<?xml version="1.0" encoding="UTF-8" standalone="no"?>
<!DOCTYPE svg PUBLIC "-//W3C//DTD SVG 1.1//EN"
 "http://www.w3.org/Graphics/SVG/1.1/DTD/svg11.dtd">
<!-- Generated by graphviz version 2.43.0 (0)
 -->
<!-- Title: include/cppuddle/kernel_aggregation/detail/aggregation_executors_and_allocators.hpp Pages: 1 -->
<svg width="568pt" height="273pt"
 viewBox="0.00 0.00 568.00 273.00" xmlns="http://www.w3.org/2000/svg" xmlns:xlink="http://www.w3.org/1999/xlink">
<g id="graph0" class="graph" transform="scale(1 1) rotate(0) translate(4 269)">
<title>include/cppuddle/kernel_aggregation/detail/aggregation_executors_and_allocators.hpp</title>
<polygon fill="white" stroke="transparent" points="-4,4 -4,-269 564,-269 564,4 -4,4"/>
<!-- Node1 -->
<g id="node1" class="node">
<title>Node1</title>
<g id="a_node1"><a xlink:title=" ">
<polygon fill="#bfbfbf" stroke="black" points="184,-223.5 184,-264.5 357,-264.5 357,-223.5 184,-223.5"/>
<text text-anchor="start" x="192" y="-252.5" font-family="Helvetica,sans-Serif" font-size="10.00">include/cppuddle/kernel</text>
<text text-anchor="start" x="192" y="-241.5" font-family="Helvetica,sans-Serif" font-size="10.00">_aggregation/detail/aggregation</text>
<text text-anchor="middle" x="270.5" y="-230.5" font-family="Helvetica,sans-Serif" font-size="10.00">_executors_and_allocators.hpp</text>
</a>
</g>
</g>
<!-- Node2 -->
<g id="node2" class="node">
<title>Node2</title>
<g id="a_node2"><a xlink:href="aggregation__executor__pools_8hpp.html" target="_top" xlink:title=" ">
<polygon fill="white" stroke="black" points="127,-145.5 127,-186.5 300,-186.5 300,-145.5 127,-145.5"/>
<text text-anchor="start" x="135" y="-174.5" font-family="Helvetica,sans-Serif" font-size="10.00">include/cppuddle/kernel</text>
<text text-anchor="start" x="135" y="-163.5" font-family="Helvetica,sans-Serif" font-size="10.00">_aggregation/detail/aggregation</text>
<text text-anchor="middle" x="213.5" y="-152.5" font-family="Helvetica,sans-Serif" font-size="10.00">_executor_pools.hpp</text>
</a>
</g>
</g>
<!-- Node1&#45;&gt;Node2 -->
<g id="edge1" class="edge">
<title>Node1&#45;&gt;Node2</title>
<path fill="none" stroke="midnightblue" d="M249.75,-215.34C242.58,-205.78 234.7,-195.27 228.13,-186.51"/>
<polygon fill="midnightblue" stroke="midnightblue" points="247.02,-217.53 255.82,-223.43 252.62,-213.33 247.02,-217.53"/>
</g>
<!-- Node3 -->
<g id="node3" class="node">
<title>Node3</title>
<g id="a_node3"><a xlink:href="kernel__aggregation__interface_8hpp.html" target="_top" xlink:title=" ">
<polygon fill="white" stroke="black" points="182,-67.5 182,-108.5 359,-108.5 359,-67.5 182,-67.5"/>
<text text-anchor="start" x="190" y="-96.5" font-family="Helvetica,sans-Serif" font-size="10.00">include/cppuddle/kernel</text>
<text text-anchor="start" x="190" y="-85.5" font-family="Helvetica,sans-Serif" font-size="10.00">_aggregation/kernel_aggregation</text>
<text text-anchor="middle" x="270.5" y="-74.5" font-family="Helvetica,sans-Serif" font-size="10.00">_interface.hpp</text>
</a>
</g>
</g>
<!-- Node1&#45;&gt;Node3 -->
<g id="edge7" class="edge">
<title>Node1&#45;&gt;Node3</title>
<path fill="none" stroke="midnightblue" d="M294.71,-215.3C300.73,-206.78 306.36,-197 309.5,-187 315.09,-169.19 315.09,-162.81 309.5,-145 305.31,-131.66 296.7,-118.72 288.63,-108.65"/>
<polygon fill="midnightblue" stroke="midnightblue" points="291.86,-213.26 288.63,-223.35 297.45,-217.48 291.86,-213.26"/>
</g>
<!-- Node2&#45;&gt;Node3 -->
<g id="edge2" class="edge">
<title>Node2&#45;&gt;Node3</title>
<path fill="none" stroke="midnightblue" d="M234.25,-137.34C241.42,-127.78 249.3,-117.27 255.87,-108.51"/>
<polygon fill="midnightblue" stroke="midnightblue" points="231.38,-135.33 228.18,-145.43 236.98,-139.53 231.38,-135.33"/>
</g>
<!-- Node4 -->
<g id="node4" class="node">
<title>Node4</title>
<g id="a_node4"><a xlink:href="aggregation__manager_8hpp.html" target="_top" xlink:title=" ">
<polygon fill="white" stroke="black" points="0,-0.5 0,-30.5 113,-30.5 113,-0.5 0,-0.5"/>
<text text-anchor="start" x="8" y="-18.5" font-family="Helvetica,sans-Serif" font-size="10.00">include/aggregation</text>
<text text-anchor="middle" x="56.5" y="-7.5" font-family="Helvetica,sans-Serif" font-size="10.00">_manager.hpp</text>
</a>
</g>
</g>
<!-- Node3&#45;&gt;Node4 -->
<g id="edge3" class="edge">
<title>Node3&#45;&gt;Node4</title>
<path fill="none" stroke="midnightblue" d="M201.41,-64.24C167.81,-53.17 128.49,-40.22 99.29,-30.6"/>
<polygon fill="midnightblue" stroke="midnightblue" points="200.58,-67.65 211.17,-67.46 202.77,-61 200.58,-67.65"/>
</g>
<!-- Node5 -->
<g id="node5" class="node">
<title>Node5</title>
<g id="a_node5"><a xlink:href="work__aggregation__cpu__triad_8cpp.html" target="_top" xlink:title=" ">
<polygon fill="white" stroke="black" points="131,-0.5 131,-30.5 262,-30.5 262,-0.5 131,-0.5"/>
<text text-anchor="start" x="139" y="-18.5" font-family="Helvetica,sans-Serif" font-size="10.00">tests/work_aggregation</text>
<text text-anchor="middle" x="196.5" y="-7.5" font-family="Helvetica,sans-Serif" font-size="10.00">_cpu_triad.cpp</text>
</a>
</g>
</g>
<!-- Node3&#45;&gt;Node5 -->
<g id="edge4" class="edge">
<title>Node3&#45;&gt;Node5</title>
<path fill="none" stroke="midnightblue" d="M242.48,-60.31C232,-50.32 220.49,-39.35 211.61,-30.89"/>
<polygon fill="midnightblue" stroke="midnightblue" points="240.23,-63 249.89,-67.36 245.06,-57.93 240.23,-63"/>
</g>
<!-- Node6 -->
<g id="node6" class="node">
<title>Node6</title>
<g id="a_node6"><a xlink:href="work__aggregation__cuda__triad_8cpp.html" target="_top" xlink:title=" ">
<polygon fill="white" stroke="black" points="280,-0.5 280,-30.5 411,-30.5 411,-0.5 280,-0.5"/>
<text text-anchor="start" x="288" y="-18.5" font-family="Helvetica,sans-Serif" font-size="10.00">tests/work_aggregation</text>
<text text-anchor="middle" x="345.5" y="-7.5" font-family="Helvetica,sans-Serif" font-size="10.00">_cuda_triad.cpp</text>
</a>
</g>
</g>
<!-- Node3&#45;&gt;Node6 -->
<g id="edge5" class="edge">
<title>Node3&#45;&gt;Node6</title>
<path fill="none" stroke="midnightblue" d="M298.89,-60.31C309.52,-50.32 321.19,-39.35 330.19,-30.89"/>
<polygon fill="midnightblue" stroke="midnightblue" points="296.28,-57.96 291.39,-67.36 301.08,-63.06 296.28,-57.96"/>
</g>
<!-- Node7 -->
<g id="node7" class="node">
<title>Node7</title>
<g id="a_node7"><a xlink:href="work__aggregation__test_8cpp.html" target="_top" xlink:title=" ">
<polygon fill="white" stroke="black" points="429,-0.5 429,-30.5 560,-30.5 560,-0.5 429,-0.5"/>
<text text-anchor="start" x="437" y="-18.5" font-family="Helvetica,sans-Serif" font-size="10.00">tests/work_aggregation</text>
<text text-anchor="middle" x="494.5" y="-7.5" font-family="Helvetica,sans-Serif" font-size="10.00">_test.cpp</text>
</a>
</g>
</g>
<!-- Node3&#45;&gt;Node7 -->
<g id="edge6" class="edge">
<title>Node3&#45;&gt;Node7</title>
<path fill="none" stroke="midnightblue" d="M342.37,-64.38C377.63,-53.28 419.02,-40.26 449.71,-30.6"/>
<polygon fill="midnightblue" stroke="midnightblue" points="341.09,-61.11 332.6,-67.46 343.19,-67.79 341.09,-61.11"/>
</g>
</g>
</svg>
