<?xml version="1.0" encoding="UTF-8" standalone="no"?>
<!DOCTYPE svg PUBLIC "-//W3C//DTD SVG 1.1//EN"
 "http://www.w3.org/Graphics/SVG/1.1/DTD/svg11.dtd">
<!-- Generated by graphviz version 2.43.0 (0)
 -->
<!-- Title: include/aggregation_manager.hpp Pages: 1 -->
<!--zoomable 500 -->

<svg id="main" version="1.1" xmlns="http://www.w3.org/2000/svg" xmlns:xlink="http://www.w3.org/1999/xlink" xml:space="preserve" onload="init(evt)">
<style type="text/css"><![CDATA[
.node, .edge {opacity: 0.7;}
.node.selected, .edge.selected {opacity: 1;}
.edge:hover path { stroke: red; }
.edge:hover polygon { stroke: red; fill: red; }
]]></style>

<defs>
  <circle id="rim" cx="0" cy="0" r="7"/>
  <circle id="rim2" cx="0" cy="0" r="3.5"/>
  <g id="zoomPlus">
    <use xlink:href="#rim" fill="#404040"><set attributeName="fill" to="#808080" begin="zoomplus.mouseover" end="zoomplus.mouseout"/></use>
    <path d="M-4,0h8M0,-4v8" fill="none" stroke="white" stroke-width="1.5" pointer-events="none"/>
  </g>
  <g id="zoomMin">
    <use xlink:href="#rim" fill="#404040"><set attributeName="fill" to="#808080" begin="zoomminus.mouseover" end="zoomminus.mouseout"/></use>
    <path d="M-4,0h8" fill="none" stroke="white" stroke-width="1.5" pointer-events="none"/>
  </g>
  <g id="arrowUp" transform="translate(30 24)">
    <use xlink:href="#rim"/>
    <path pointer-events="none" fill="none" stroke="white" stroke-width="1.5" d="M0,-3.0v7 M-2.5,-0.5L0,-3.0L2.5,-0.5"/>
  </g>
  <g id="arrowRight" transform="rotate(90) translate(36 -43)">
    <use xlink:href="#rim"/>
    <path pointer-events="none" fill="none" stroke="white" stroke-width="1.5" d="M0,-3.0v7 M-2.5,-0.5L0,-3.0L2.5,-0.5"/>
  </g>
  <g id="arrowDown" transform="rotate(180) translate(-30 -48)">
    <use xlink:href="#rim"/>
    <path pointer-events="none" fill="none" stroke="white" stroke-width="1.5" d="M0,-3.0v7 M-2.5,-0.5L0,-3.0L2.5,-0.5"/>
  </g>
  <g id="arrowLeft" transform="rotate(270) translate(-36 17)">
    <use xlink:href="#rim"/>
    <path pointer-events="none" fill="none" stroke="white" stroke-width="1.5" d="M0,-3.0v7 M-2.5,-0.5L0,-3.0L2.5,-0.5"/>
  </g>
  <g id="resetDef">
    <use xlink:href="#rim2" fill="#404040"><set attributeName="fill" to="#808080" begin="reset.mouseover" end="reset.mouseout"/></use>
  </g>
</defs>
<script type="application/ecmascript">
var viewWidth = 2452;
var viewHeight = 500;
var sectionId = 'dynsection-0';
</script>
<script type="application/ecmascript" xlink:href="svg.min.js"/>
<svg id="graph" class="graph">
<g id="viewport">
<title>include/aggregation_manager.hpp</title>
<!-- Node1 -->
<g id="Node000001" class="node">
<title>Node1</title>
<g id="a_Node000001"><a xlink:title=" ">
<polygon fill="#999999" stroke="#666666" points="943.23,-492 830.23,-492 830.23,-462 943.23,-462 943.23,-492"/>
<text text-anchor="start" x="838.23" y="-480" font-family="Helvetica,sans-Serif" font-size="10.00">include/aggregation</text>
<text text-anchor="middle" x="886.73" y="-469" font-family="Helvetica,sans-Serif" font-size="10.00">_manager.hpp</text>
</a>
</g>
</g>
<!-- Node2 -->
<g id="Node000002" class="node">
<title>Node2</title>
<g id="a_Node000002"><a xlink:href="kernel__aggregation__interface_8hpp.html" target="_top" xlink:title=" ">
<polygon fill="white" stroke="#666666" points="978.23,-426 795.23,-426 795.23,-396 978.23,-396 978.23,-426"/>
<text text-anchor="start" x="803.23" y="-414" font-family="Helvetica,sans-Serif" font-size="10.00">cppuddle/kernel_aggregation</text>
<text text-anchor="middle" x="886.73" y="-403" font-family="Helvetica,sans-Serif" font-size="10.00">/kernel_aggregation_interface.hpp</text>
</a>
</g>
</g>
<!-- Node1&#45;&gt;Node2 -->
<g id="edge1_Node000001_Node000002" class="edge">
<title>Node1&#45;&gt;Node2</title>
<g id="a_edge1_Node000001_Node000002"><a xlink:title=" ">
<path fill="none" stroke="#63b8ff" d="M886.73,-461.8C886.73,-454.34 886.73,-444.99 886.73,-436.41"/>
<polygon fill="#63b8ff" stroke="#63b8ff" points="890.23,-436.16 886.73,-426.16 883.23,-436.16 890.23,-436.16"/>
</a>
</g>
</g>
<!-- Node3 -->
<g id="Node000003" class="node">
<title>Node3</title>
<g id="a_Node000003"><a xlink:href="executor__pools__interface_8hpp.html" target="_top" xlink:title=" ">
<polygon fill="white" stroke="#666666" points="399.23,-206 236.23,-206 236.23,-176 399.23,-176 399.23,-206"/>
<text text-anchor="start" x="244.23" y="-194" font-family="Helvetica,sans-Serif" font-size="10.00">cppuddle/executor_recycling</text>
<text text-anchor="middle" x="317.73" y="-183" font-family="Helvetica,sans-Serif" font-size="10.00">/executor_pools_interface.hpp</text>
</a>
</g>
</g>
<!-- Node2&#45;&gt;Node3 -->
<g id="edge2_Node000002_Node000003" class="edge">
<title>Node2&#45;&gt;Node3</title>
<g id="a_edge2_Node000002_Node000003"><a xlink:title=" ">
<path fill="none" stroke="#63b8ff" d="M849.83,-395.86C749.91,-357.58 474.18,-251.94 364.05,-209.75"/>
<polygon fill="#63b8ff" stroke="#63b8ff" points="365.13,-206.41 354.54,-206.1 362.63,-212.95 365.13,-206.41"/>
</a>
</g>
</g>
<!-- Node16 -->
<g id="Node000016" class="node">
<title>Node16</title>
<g id="a_Node000016"><a xlink:href="aggregation__executors__and__allocators_8hpp.html" target="_top" xlink:title=" ">
<polygon fill="white" stroke="#666666" points="1074.23,-283 913.23,-283 913.23,-242 1074.23,-242 1074.23,-283"/>
<text text-anchor="start" x="921.23" y="-271" font-family="Helvetica,sans-Serif" font-size="10.00">cppuddle/kernel_aggregation</text>
<text text-anchor="start" x="921.23" y="-260" font-family="Helvetica,sans-Serif" font-size="10.00">/detail/aggregation_executors</text>
<text text-anchor="middle" x="993.73" y="-249" font-family="Helvetica,sans-Serif" font-size="10.00">_and_allocators.hpp</text>
</a>
</g>
</g>
<!-- Node2&#45;&gt;Node16 -->
<g id="edge16_Node000002_Node000016" class="edge">
<title>Node2&#45;&gt;Node16</title>
<g id="a_edge16_Node000002_Node000016"><a xlink:title=" ">
<path fill="none" stroke="#63b8ff" d="M927.11,-395.92C944.29,-387.95 963.02,-376.25 974.73,-360 988.67,-340.65 993.05,-313.69 994.16,-293.19"/>
<polygon fill="#63b8ff" stroke="#63b8ff" points="997.66,-293.23 994.47,-283.13 990.66,-293.01 997.66,-293.23"/>
</a>
</g>
</g>
<!-- Node41 -->
<g id="Node000041" class="node">
<title>Node41</title>
<g id="a_Node000041"><a xlink:href="aggregation__executor__pools_8hpp.html" target="_top" xlink:title=" ">
<polygon fill="white" stroke="#666666" points="965.73,-360 807.73,-360 807.73,-319 965.73,-319 965.73,-360"/>
<text text-anchor="start" x="815.73" y="-348" font-family="Helvetica,sans-Serif" font-size="10.00">cppuddle/kernel_aggregation</text>
<text text-anchor="start" x="815.73" y="-337" font-family="Helvetica,sans-Serif" font-size="10.00">/detail/aggregation_executor</text>
<text text-anchor="middle" x="886.73" y="-326" font-family="Helvetica,sans-Serif" font-size="10.00">_pools.hpp</text>
</a>
</g>
</g>
<!-- Node2&#45;&gt;Node41 -->
<g id="edge58_Node000002_Node000041" class="edge">
<title>Node2&#45;&gt;Node41</title>
<g id="a_edge58_Node000002_Node000041"><a xlink:title=" ">
<path fill="none" stroke="#63b8ff" d="M886.73,-395.94C886.73,-388.52 886.73,-379.14 886.73,-370.2"/>
<polygon fill="#63b8ff" stroke="#63b8ff" points="890.23,-370.07 886.73,-360.07 883.23,-370.07 890.23,-370.07"/>
</a>
</g>
</g>
<!-- Node4 -->
<g id="Node000004" class="node">
<title>Node4</title>
<g id="a_Node000004"><a xlink:href="executor__pools__management_8hpp.html" target="_top" xlink:title=" ">
<polygon fill="white" stroke="#666666" points="399.23,-140 184.23,-140 184.23,-110 399.23,-110 399.23,-140"/>
<text text-anchor="start" x="192.23" y="-128" font-family="Helvetica,sans-Serif" font-size="10.00">cppuddle/executor_recycling</text>
<text text-anchor="middle" x="291.73" y="-117" font-family="Helvetica,sans-Serif" font-size="10.00">/detail/executor_pools_management.hpp</text>
</a>
</g>
</g>
<!-- Node3&#45;&gt;Node4 -->
<g id="edge3_Node000003_Node000004" class="edge">
<title>Node3&#45;&gt;Node4</title>
<g id="a_edge3_Node000003_Node000004"><a xlink:title=" ">
<path fill="none" stroke="#63b8ff" d="M311.96,-175.8C308.83,-168.09 304.88,-158.37 301.3,-149.56"/>
<polygon fill="#63b8ff" stroke="#63b8ff" points="304.49,-148.11 297.48,-140.16 298,-150.75 304.49,-148.11"/>
</a>
</g>
</g>
<!-- Node5 -->
<g id="Node000005" class="node">
<title>Node5</title>
<g id="a_Node000005"><a xlink:title=" ">
<polygon fill="#e0e0e0" stroke="#999999" points="136.73,-74 72.73,-74 72.73,-55 136.73,-55 136.73,-74"/>
<text text-anchor="middle" x="104.73" y="-62" font-family="Helvetica,sans-Serif" font-size="10.00">algorithm</text>
</a>
</g>
</g>
<!-- Node4&#45;&gt;Node5 -->
<g id="edge4_Node000004_Node000005" class="edge">
<title>Node4&#45;&gt;Node5</title>
<g id="a_edge4_Node000004_Node000005"><a xlink:title=" ">
<path fill="none" stroke="#63b8ff" d="M246.94,-109.99C214.8,-99.94 172.02,-86.55 141.8,-77.1"/>
<polygon fill="#63b8ff" stroke="#63b8ff" points="142.66,-73.7 132.07,-74.05 140.57,-80.38 142.66,-73.7"/>
</a>
</g>
</g>
<!-- Node6 -->
<g id="Node000006" class="node">
<title>Node6</title>
<g id="a_Node000006"><a xlink:title=" ">
<polygon fill="#e0e0e0" stroke="#999999" points="327.73,-74 285.73,-74 285.73,-55 327.73,-55 327.73,-74"/>
<text text-anchor="middle" x="306.73" y="-62" font-family="Helvetica,sans-Serif" font-size="10.00">array</text>
</a>
</g>
</g>
<!-- Node4&#45;&gt;Node6 -->
<g id="edge5_Node000004_Node000006" class="edge">
<title>Node4&#45;&gt;Node6</title>
<g id="a_edge5_Node000004_Node000006"><a xlink:title=" ">
<path fill="none" stroke="#63b8ff" d="M295.36,-109.84C297.34,-102.13 299.81,-92.49 301.94,-84.17"/>
<polygon fill="#63b8ff" stroke="#63b8ff" points="305.39,-84.82 304.48,-74.27 298.61,-83.08 305.39,-84.82"/>
</a>
</g>
</g>
<!-- Node7 -->
<g id="Node000007" class="node">
<title>Node7</title>
<g id="a_Node000007"><a xlink:title=" ">
<polygon fill="#e0e0e0" stroke="#999999" points="513.73,-74 461.73,-74 461.73,-55 513.73,-55 513.73,-74"/>
<text text-anchor="middle" x="487.73" y="-62" font-family="Helvetica,sans-Serif" font-size="10.00">cassert</text>
</a>
</g>
</g>
<!-- Node4&#45;&gt;Node7 -->
<g id="edge6_Node000004_Node000007" class="edge">
<title>Node4&#45;&gt;Node7</title>
<g id="a_edge6_Node000004_Node000007"><a xlink:title=" ">
<path fill="none" stroke="#63b8ff" d="M338.68,-109.99C373.42,-99.62 420.04,-85.7 451.84,-76.21"/>
<polygon fill="#63b8ff" stroke="#63b8ff" points="453.02,-79.51 461.6,-73.3 451.02,-72.8 453.02,-79.51"/>
</a>
</g>
</g>
<!-- Node8 -->
<g id="Node000008" class="node">
<title>Node8</title>
<g id="a_Node000008"><a xlink:title=" ">
<polygon fill="#e0e0e0" stroke="#999999" points="202.23,-74 155.23,-74 155.23,-55 202.23,-55 202.23,-74"/>
<text text-anchor="middle" x="178.73" y="-62" font-family="Helvetica,sans-Serif" font-size="10.00">deque</text>
</a>
</g>
</g>
<!-- Node4&#45;&gt;Node8 -->
<g id="edge7_Node000004_Node000008" class="edge">
<title>Node4&#45;&gt;Node8</title>
<g id="a_edge7_Node000004_Node000008"><a xlink:title=" ">
<path fill="none" stroke="#63b8ff" d="M264.66,-109.99C246.48,-100.58 222.66,-88.24 204.71,-78.95"/>
<polygon fill="#63b8ff" stroke="#63b8ff" points="205.91,-75.63 195.42,-74.14 202.69,-81.84 205.91,-75.63"/>
</a>
</g>
</g>
<!-- Node9 -->
<g id="Node000009" class="node">
<title>Node9</title>
<g id="a_Node000009"><a xlink:title=" ">
<polygon fill="#e0e0e0" stroke="#999999" points="443.73,-74 383.73,-74 383.73,-55 443.73,-55 443.73,-74"/>
<text text-anchor="middle" x="413.73" y="-62" font-family="Helvetica,sans-Serif" font-size="10.00">iostream</text>
</a>
</g>
</g>
<!-- Node4&#45;&gt;Node9 -->
<g id="edge8_Node000004_Node000009" class="edge">
<title>Node4&#45;&gt;Node9</title>
<g id="a_edge8_Node000004_Node000009"><a xlink:title=" ">
<path fill="none" stroke="#63b8ff" d="M320.95,-109.99C340.85,-100.45 367.01,-87.9 386.48,-78.57"/>
<polygon fill="#63b8ff" stroke="#63b8ff" points="388.21,-81.62 395.71,-74.14 385.18,-75.31 388.21,-81.62"/>
</a>
</g>
</g>
<!-- Node10 -->
<g id="Node000010" class="node">
<title>Node10</title>
<g id="a_Node000010"><a xlink:title=" ">
<polygon fill="#e0e0e0" stroke="#999999" points="677.73,-74 619.73,-74 619.73,-55 677.73,-55 677.73,-74"/>
<text text-anchor="middle" x="648.73" y="-62" font-family="Helvetica,sans-Serif" font-size="10.00">memory</text>
</a>
</g>
</g>
<!-- Node4&#45;&gt;Node10 -->
<g id="edge9_Node000004_Node000010" class="edge">
<title>Node4&#45;&gt;Node10</title>
<g id="a_edge9_Node000004_Node000010"><a xlink:title=" ">
<path fill="none" stroke="#63b8ff" d="M390.47,-110C450.8,-101.08 529.75,-88.78 609.18,-74"/>
<polygon fill="#63b8ff" stroke="#63b8ff" points="610.19,-77.37 619.38,-72.09 608.91,-70.49 610.19,-77.37"/>
</a>
</g>
</g>
<!-- Node11 -->
<g id="Node000011" class="node">
<title>Node11</title>
<g id="a_Node000011"><a xlink:title=" ">
<polygon fill="#e0e0e0" stroke="#999999" points="589.73,-19 541.73,-19 541.73,0 589.73,0 589.73,-19"/>
<text text-anchor="middle" x="565.73" y="-7" font-family="Helvetica,sans-Serif" font-size="10.00">mutex</text>
</a>
</g>
</g>
<!-- Node4&#45;&gt;Node11 -->
<g id="edge10_Node000004_Node000011" class="edge">
<title>Node4&#45;&gt;Node11</title>
<g id="a_edge10_Node000004_Node000011"><a xlink:title=" ">
<path fill="none" stroke="#63b8ff" d="M304.69,-109.83C319.92,-94.05 346.7,-68.93 374.73,-55 425.84,-29.6 491.91,-18.38 531.43,-13.67"/>
<polygon fill="#63b8ff" stroke="#63b8ff" points="532.06,-17.12 541.6,-12.53 531.28,-10.16 532.06,-17.12"/>
</a>
</g>
</g>
<!-- Node12 -->
<g id="Node000012" class="node">
<title>Node12</title>
<g id="a_Node000012"><a xlink:title=" ">
<polygon fill="#e0e0e0" stroke="#999999" points="267.23,-74 220.23,-74 220.23,-55 267.23,-55 267.23,-74"/>
<text text-anchor="middle" x="243.73" y="-62" font-family="Helvetica,sans-Serif" font-size="10.00">queue</text>
</a>
</g>
</g>
<!-- Node4&#45;&gt;Node12 -->
<g id="edge11_Node000004_Node000012" class="edge">
<title>Node4&#45;&gt;Node12</title>
<g id="a_edge11_Node000004_Node000012"><a xlink:title=" ">
<path fill="none" stroke="#63b8ff" d="M280.11,-109.84C273.28,-101.52 264.62,-90.96 257.46,-82.23"/>
<polygon fill="#63b8ff" stroke="#63b8ff" points="259.97,-79.78 250.92,-74.27 254.56,-84.22 259.97,-79.78"/>
</a>
</g>
</g>
<!-- Node13 -->
<g id="Node000013" class="node">
<title>Node13</title>
<g id="a_Node000013"><a xlink:title=" ">
<polygon fill="#e0e0e0" stroke="#999999" points="54.23,-74 13.23,-74 13.23,-55 54.23,-55 54.23,-74"/>
<text text-anchor="middle" x="33.73" y="-62" font-family="Helvetica,sans-Serif" font-size="10.00">tuple</text>
</a>
</g>
</g>
<!-- Node4&#45;&gt;Node13 -->
<g id="edge12_Node000004_Node000013" class="edge">
<title>Node4&#45;&gt;Node13</title>
<g id="a_edge12_Node000004_Node000013"><a xlink:title=" ">
<path fill="none" stroke="#63b8ff" d="M222.63,-109.98C179.68,-101 123.13,-88.7 64.2,-74"/>
<polygon fill="#63b8ff" stroke="#63b8ff" points="64.89,-70.56 54.34,-71.52 63.19,-77.35 64.89,-70.56"/>
</a>
</g>
</g>
<!-- Node14 -->
<g id="Node000014" class="node">
<title>Node14</title>
<g id="a_Node000014"><a xlink:title=" ">
<polygon fill="#e0e0e0" stroke="#999999" points="601.23,-74 532.23,-74 532.23,-55 601.23,-55 601.23,-74"/>
<text text-anchor="middle" x="566.73" y="-62" font-family="Helvetica,sans-Serif" font-size="10.00">type_traits</text>
</a>
</g>
</g>
<!-- Node4&#45;&gt;Node14 -->
<g id="edge13_Node000004_Node000014" class="edge">
<title>Node4&#45;&gt;Node14</title>
<g id="a_edge13_Node000004_Node000014"><a xlink:title=" ">
<path fill="none" stroke="#63b8ff" d="M357.6,-109.99C408.46,-99.17 477.45,-84.49 522.04,-75.01"/>
<polygon fill="#63b8ff" stroke="#63b8ff" points="522.94,-78.39 531.99,-72.89 521.48,-71.55 522.94,-78.39"/>
</a>
</g>
</g>
<!-- Node15 -->
<g id="Node000015" class="node">
<title>Node15</title>
<g id="a_Node000015"><a xlink:href="config_8hpp.html" target="_top" xlink:title=" ">
<polygon fill="white" stroke="#666666" points="855.73,-74 695.73,-74 695.73,-55 855.73,-55 855.73,-74"/>
<text text-anchor="middle" x="775.73" y="-62" font-family="Helvetica,sans-Serif" font-size="10.00">cppuddle/common/config.hpp</text>
</a>
</g>
</g>
<!-- Node4&#45;&gt;Node15 -->
<g id="edge14_Node000004_Node000015" class="edge">
<title>Node4&#45;&gt;Node15</title>
<g id="a_edge14_Node000004_Node000015"><a xlink:title=" ">
<path fill="none" stroke="#63b8ff" d="M399.44,-110.98C488.93,-100.16 614.27,-85.02 695.23,-75.23"/>
<polygon fill="#63b8ff" stroke="#63b8ff" points="695.86,-78.68 705.37,-74 695.02,-71.73 695.86,-78.68"/>
</a>
</g>
</g>
<!-- Node15&#45;&gt;Node11 -->
<g id="edge15_Node000015_Node000011" class="edge">
<title>Node15&#45;&gt;Node11</title>
<g id="a_edge15_Node000015_Node000011"><a xlink:title=" ">
<path fill="none" stroke="#63b8ff" d="M741.99,-54.98C702.93,-45.13 638.96,-28.98 599.77,-19.09"/>
<polygon fill="#63b8ff" stroke="#63b8ff" points="600.45,-15.65 589.89,-16.6 598.73,-22.44 600.45,-15.65"/>
</a>
</g>
</g>
<!-- Node16&#45;&gt;Node3 -->
<g id="edge57_Node000016_Node000003" class="edge">
<title>Node16&#45;&gt;Node3</title>
<g id="a_edge57_Node000016_Node000003"><a xlink:title=" ">
<path fill="none" stroke="#63b8ff" d="M912.9,-255.03C800.7,-245.77 591.48,-227.45 413.73,-206 412.41,-205.84 411.09,-205.68 409.75,-205.51"/>
<polygon fill="#63b8ff" stroke="#63b8ff" points="409.76,-201.99 399.39,-204.19 408.87,-208.93 409.76,-201.99"/>
</a>
</g>
</g>
<!-- Node16&#45;&gt;Node9 -->
<g id="edge23_Node000016_Node000009" class="edge">
<title>Node16&#45;&gt;Node9</title>
<g id="a_edge23_Node000016_Node000009"><a xlink:title=" ">
<path fill="none" stroke="#63b8ff" d="M913,-261.27C789.48,-259.5 560.81,-250.13 493.73,-206 449.87,-177.15 427.4,-115.46 418.47,-84.32"/>
<polygon fill="#63b8ff" stroke="#63b8ff" points="421.76,-83.08 415.78,-74.34 415,-84.91 421.76,-83.08"/>
</a>
</g>
</g>
<!-- Node16&#45;&gt;Node10 -->
<g id="edge24_Node000016_Node000010" class="edge">
<title>Node16&#45;&gt;Node10</title>
<g id="a_edge24_Node000016_Node000010"><a xlink:title=" ">
<path fill="none" stroke="#63b8ff" d="M913.05,-257.74C785.28,-250.95 548.17,-234.61 522.73,-206 480.89,-158.94 572.88,-103.35 621.35,-78.57"/>
<polygon fill="#63b8ff" stroke="#63b8ff" points="623.03,-81.64 630.41,-74.03 619.9,-75.38 623.03,-81.64"/>
</a>
</g>
</g>
<!-- Node16&#45;&gt;Node11 -->
<g id="edge25_Node000016_Node000011" class="edge">
<title>Node16&#45;&gt;Node11</title>
<g id="a_edge25_Node000016_Node000011"><a xlink:title=" ">
<path fill="none" stroke="#63b8ff" d="M913.17,-261.95C732.51,-262.02 300.26,-256.69 164.73,-206 78.06,-173.58 41.56,-158.44 3.73,-74 0.28,-66.29 -2,-61.2 3.73,-55 39.6,-16.18 415.06,-11.19 531.49,-10.58"/>
<polygon fill="#63b8ff" stroke="#63b8ff" points="531.64,-14.08 541.62,-10.53 531.61,-7.08 531.64,-14.08"/>
</a>
</g>
</g>
<!-- Node16&#45;&gt;Node13 -->
<g id="edge29_Node000016_Node000013" class="edge">
<title>Node16&#45;&gt;Node13</title>
<g id="a_edge29_Node000016_Node000013"><a xlink:title=" ">
<path fill="none" stroke="#63b8ff" d="M913.22,-261.24C742.78,-259.8 351.01,-251.47 226.73,-206 151.34,-178.42 79.55,-112.14 49.06,-81.52"/>
<polygon fill="#63b8ff" stroke="#63b8ff" points="51.41,-78.91 41.91,-74.21 46.41,-83.81 51.41,-78.91"/>
</a>
</g>
</g>
<!-- Node16&#45;&gt;Node14 -->
<g id="edge30_Node000016_Node000014" class="edge">
<title>Node16&#45;&gt;Node14</title>
<g id="a_edge30_Node000016_Node000014"><a xlink:title=" ">
<path fill="none" stroke="#63b8ff" d="M913.03,-258.03C782.07,-251.57 535.12,-235.59 508.73,-206 475.47,-168.72 523.12,-109.74 550.2,-81.55"/>
<polygon fill="#63b8ff" stroke="#63b8ff" points="552.98,-83.72 557.52,-74.15 548,-78.79 552.98,-83.72"/>
</a>
</g>
</g>
<!-- Node16&#45;&gt;Node15 -->
<g id="edge43_Node000016_Node000015" class="edge">
<title>Node16&#45;&gt;Node15</title>
<g id="a_edge43_Node000016_Node000015"><a xlink:title=" ">
<path fill="none" stroke="#63b8ff" d="M912.91,-258.49C830.75,-253.52 711.56,-240.43 682.73,-206 646.91,-163.23 716.07,-106.21 753.68,-79.91"/>
<polygon fill="#63b8ff" stroke="#63b8ff" points="755.76,-82.73 762.04,-74.2 751.81,-76.94 755.76,-82.73"/>
</a>
</g>
</g>
<!-- Node17 -->
<g id="Node000017" class="node">
<title>Node17</title>
<g id="a_Node000017"><a xlink:title=" ">
<polygon fill="#e0e0e0" stroke="#999999" points="1146.23,-74 1081.23,-74 1081.23,-55 1146.23,-55 1146.23,-74"/>
<text text-anchor="middle" x="1113.73" y="-62" font-family="Helvetica,sans-Serif" font-size="10.00">stdexcept</text>
</a>
</g>
</g>
<!-- Node16&#45;&gt;Node17 -->
<g id="edge17_Node000016_Node000017" class="edge">
<title>Node16&#45;&gt;Node17</title>
<g id="a_edge17_Node000016_Node000017"><a xlink:title=" ">
<path fill="none" stroke="#63b8ff" d="M1074.26,-246.06C1095.86,-237.84 1116.79,-225.26 1129.73,-206 1154.97,-168.43 1135.56,-112.11 1122.72,-83.53"/>
<polygon fill="#63b8ff" stroke="#63b8ff" points="1125.81,-81.88 1118.38,-74.34 1119.48,-84.87 1125.81,-81.88"/>
</a>
</g>
</g>
<!-- Node18 -->
<g id="Node000018" class="node">
<title>Node18</title>
<g id="a_Node000018"><a xlink:title=" ">
<polygon fill="#e0e0e0" stroke="#999999" points="581.73,-200.5 531.73,-200.5 531.73,-181.5 581.73,-181.5 581.73,-200.5"/>
<text text-anchor="middle" x="556.73" y="-188.5" font-family="Helvetica,sans-Serif" font-size="10.00">stdio.h</text>
</a>
</g>
</g>
<!-- Node16&#45;&gt;Node18 -->
<g id="edge18_Node000016_Node000018" class="edge">
<title>Node16&#45;&gt;Node18</title>
<g id="a_edge18_Node000016_Node000018"><a xlink:title=" ">
<path fill="none" stroke="#63b8ff" d="M913.01,-256.43C830.78,-249.86 700.16,-235.55 590.73,-206 588.79,-205.48 586.81,-204.87 584.83,-204.21"/>
<polygon fill="#63b8ff" stroke="#63b8ff" points="585.73,-200.81 575.14,-200.57 583.27,-207.36 585.73,-200.81"/>
</a>
</g>
</g>
<!-- Node19 -->
<g id="Node000019" class="node">
<title>Node19</title>
<g id="a_Node000019"><a xlink:title=" ">
<polygon fill="#e0e0e0" stroke="#999999" points="635.23,-200.5 600.23,-200.5 600.23,-181.5 635.23,-181.5 635.23,-200.5"/>
<text text-anchor="middle" x="617.73" y="-188.5" font-family="Helvetica,sans-Serif" font-size="10.00">any</text>
</a>
</g>
</g>
<!-- Node16&#45;&gt;Node19 -->
<g id="edge19_Node000016_Node000019" class="edge">
<title>Node16&#45;&gt;Node19</title>
<g id="a_edge19_Node000016_Node000019"><a xlink:title=" ">
<path fill="none" stroke="#63b8ff" d="M913.21,-254.32C842.67,-246.66 737.94,-231.96 649.73,-206 648.05,-205.51 646.34,-204.94 644.63,-204.34"/>
<polygon fill="#63b8ff" stroke="#63b8ff" points="645.62,-200.97 635.04,-200.52 643.03,-207.47 645.62,-200.97"/>
</a>
</g>
</g>
<!-- Node20 -->
<g id="Node000020" class="node">
<title>Node20</title>
<g id="a_Node000020"><a xlink:title=" ">
<polygon fill="#e0e0e0" stroke="#999999" points="1370.73,-74 1320.73,-74 1320.73,-55 1370.73,-55 1370.73,-74"/>
<text text-anchor="middle" x="1345.73" y="-62" font-family="Helvetica,sans-Serif" font-size="10.00">atomic</text>
</a>
</g>
</g>
<!-- Node16&#45;&gt;Node20 -->
<g id="edge20_Node000016_Node000020" class="edge">
<title>Node16&#45;&gt;Node20</title>
<g id="a_edge20_Node000016_Node000020"><a xlink:title=" ">
<path fill="none" stroke="#63b8ff" d="M1074.44,-261.36C1365.96,-260.45 2349.74,-253.84 2395.73,-206 2404.97,-196.39 2404.65,-185.91 2395.73,-176 2326.21,-98.78 1556.06,-71.66 1380.99,-66.47"/>
<polygon fill="#63b8ff" stroke="#63b8ff" points="1380.89,-62.97 1370.79,-66.18 1380.68,-69.97 1380.89,-62.97"/>
</a>
</g>
</g>
<!-- Node21 -->
<g id="Node000021" class="node">
<title>Node21</title>
<g id="a_Node000021"><a xlink:title=" ">
<polygon fill="#e0e0e0" stroke="#999999" points="741.73,-200.5 691.73,-200.5 691.73,-181.5 741.73,-181.5 741.73,-200.5"/>
<text text-anchor="middle" x="716.73" y="-188.5" font-family="Helvetica,sans-Serif" font-size="10.00">chrono</text>
</a>
</g>
</g>
<!-- Node16&#45;&gt;Node21 -->
<g id="edge21_Node000016_Node000021" class="edge">
<title>Node16&#45;&gt;Node21</title>
<g id="a_edge21_Node000016_Node000021"><a xlink:title=" ">
<path fill="none" stroke="#63b8ff" d="M913.21,-246.61C865.46,-236.92 804.04,-222.93 750.73,-206 749.06,-205.47 747.35,-204.89 745.64,-204.28"/>
<polygon fill="#63b8ff" stroke="#63b8ff" points="746.53,-200.87 735.94,-200.56 744.02,-207.41 746.53,-200.87"/>
</a>
</g>
</g>
<!-- Node22 -->
<g id="Node000022" class="node">
<title>Node22</title>
<g id="a_Node000022"><a xlink:title=" ">
<polygon fill="#e0e0e0" stroke="#999999" points="805.73,-200.5 759.73,-200.5 759.73,-181.5 805.73,-181.5 805.73,-200.5"/>
<text text-anchor="middle" x="782.73" y="-188.5" font-family="Helvetica,sans-Serif" font-size="10.00">cstdio</text>
</a>
</g>
</g>
<!-- Node16&#45;&gt;Node22 -->
<g id="edge22_Node000016_Node000022" class="edge">
<title>Node16&#45;&gt;Node22</title>
<g id="a_edge22_Node000016_Node000022"><a xlink:title=" ">
<path fill="none" stroke="#63b8ff" d="M929.42,-241.88C896.48,-231.6 855.81,-218.57 819.73,-206 818.08,-205.43 816.39,-204.83 814.69,-204.21"/>
<polygon fill="#63b8ff" stroke="#63b8ff" points="815.56,-200.8 804.96,-200.63 813.14,-207.37 815.56,-200.8"/>
</a>
</g>
</g>
<!-- Node23 -->
<g id="Node000023" class="node">
<title>Node23</title>
<g id="a_Node000023"><a xlink:title=" ">
<polygon fill="#e0e0e0" stroke="#999999" points="1995.73,-74 1939.73,-74 1939.73,-55 1995.73,-55 1995.73,-74"/>
<text text-anchor="middle" x="1967.73" y="-62" font-family="Helvetica,sans-Serif" font-size="10.00">optional</text>
</a>
</g>
</g>
<!-- Node16&#45;&gt;Node23 -->
<g id="edge26_Node000016_Node000023" class="edge">
<title>Node16&#45;&gt;Node23</title>
<g id="a_edge26_Node000016_Node000023"><a xlink:title=" ">
<path fill="none" stroke="#63b8ff" d="M1074.41,-261.4C1368.19,-260.63 2366.12,-254.47 2412.73,-206 2533.99,-79.91 2134.09,-66.57 2005.94,-65.48"/>
<polygon fill="#63b8ff" stroke="#63b8ff" points="2005.81,-61.98 1995.79,-65.42 2005.77,-68.98 2005.81,-61.98"/>
</a>
</g>
</g>
<!-- Node24 -->
<g id="Node000024" class="node">
<title>Node24</title>
<g id="a_Node000024"><a xlink:title=" ">
<polygon fill="#e0e0e0" stroke="#999999" points="919.23,-200.5 862.23,-200.5 862.23,-181.5 919.23,-181.5 919.23,-200.5"/>
<text text-anchor="middle" x="890.73" y="-188.5" font-family="Helvetica,sans-Serif" font-size="10.00">ostream</text>
</a>
</g>
</g>
<!-- Node16&#45;&gt;Node24 -->
<g id="edge27_Node000016_Node000024" class="edge">
<title>Node16&#45;&gt;Node24</title>
<g id="a_edge27_Node000016_Node000024"><a xlink:title=" ">
<path fill="none" stroke="#63b8ff" d="M964.76,-241.96C948.01,-230.65 927.29,-216.67 912.04,-206.38"/>
<polygon fill="#63b8ff" stroke="#63b8ff" points="913.58,-203.2 903.33,-200.5 909.66,-209 913.58,-203.2"/>
</a>
</g>
</g>
<!-- Node25 -->
<g id="Node000025" class="node">
<title>Node25</title>
<g id="a_Node000025"><a xlink:title=" ">
<polygon fill="#e0e0e0" stroke="#999999" points="981.73,-200.5 937.73,-200.5 937.73,-181.5 981.73,-181.5 981.73,-200.5"/>
<text text-anchor="middle" x="959.73" y="-188.5" font-family="Helvetica,sans-Serif" font-size="10.00">string</text>
</a>
</g>
</g>
<!-- Node16&#45;&gt;Node25 -->
<g id="edge28_Node000016_Node000025" class="edge">
<title>Node16&#45;&gt;Node25</title>
<g id="a_edge28_Node000016_Node000025"><a xlink:title=" ">
<path fill="none" stroke="#63b8ff" d="M984.08,-241.77C979.18,-231.76 973.28,-219.7 968.51,-209.95"/>
<polygon fill="#63b8ff" stroke="#63b8ff" points="971.58,-208.26 964.04,-200.82 965.29,-211.34 971.58,-208.26"/>
</a>
</g>
</g>
<!-- Node26 -->
<g id="Node000026" class="node">
<title>Node26</title>
<g id="a_Node000026"><a xlink:title=" ">
<polygon fill="#e0e0e0" stroke="#999999" points="1057.23,-200.5 1000.23,-200.5 1000.23,-181.5 1057.23,-181.5 1057.23,-200.5"/>
<text text-anchor="middle" x="1028.73" y="-188.5" font-family="Helvetica,sans-Serif" font-size="10.00">typeinfo</text>
</a>
</g>
</g>
<!-- Node16&#45;&gt;Node26 -->
<g id="edge31_Node000016_Node000026" class="edge">
<title>Node16&#45;&gt;Node26</title>
<g id="a_edge31_Node000016_Node000026"><a xlink:title=" ">
<path fill="none" stroke="#63b8ff" d="M1003.66,-241.77C1008.7,-231.76 1014.78,-219.7 1019.69,-209.95"/>
<polygon fill="#63b8ff" stroke="#63b8ff" points="1022.91,-211.33 1024.29,-200.82 1016.66,-208.18 1022.91,-211.33"/>
</a>
</g>
</g>
<!-- Node27 -->
<g id="Node000027" class="node">
<title>Node27</title>
<g id="a_Node000027"><a xlink:title=" ">
<polygon fill="#e0e0e0" stroke="#999999" points="1120.23,-200.5 1075.23,-200.5 1075.23,-181.5 1120.23,-181.5 1120.23,-200.5"/>
<text text-anchor="middle" x="1097.73" y="-188.5" font-family="Helvetica,sans-Serif" font-size="10.00">utility</text>
</a>
</g>
</g>
<!-- Node16&#45;&gt;Node27 -->
<g id="edge32_Node000016_Node000027" class="edge">
<title>Node16&#45;&gt;Node27</title>
<g id="a_edge32_Node000016_Node000027"><a xlink:title=" ">
<path fill="none" stroke="#63b8ff" d="M1022.98,-241.96C1040.05,-230.54 1061.2,-216.41 1076.65,-206.09"/>
<polygon fill="#63b8ff" stroke="#63b8ff" points="1078.63,-208.97 1085,-200.5 1074.74,-203.15 1078.63,-208.97"/>
</a>
</g>
</g>
<!-- Node28 -->
<g id="Node000028" class="node">
<title>Node28</title>
<g id="a_Node000028"><a xlink:title=" ">
<polygon fill="#e0e0e0" stroke="#999999" points="2382.23,-74 2289.23,-74 2289.23,-55 2382.23,-55 2382.23,-74"/>
<text text-anchor="middle" x="2335.73" y="-62" font-family="Helvetica,sans-Serif" font-size="10.00">unordered_map</text>
</a>
</g>
</g>
<!-- Node16&#45;&gt;Node28 -->
<g id="edge33_Node000016_Node000028" class="edge">
<title>Node16&#45;&gt;Node28</title>
<g id="a_edge33_Node000016_Node000028"><a xlink:title=" ">
<path fill="none" stroke="#63b8ff" d="M1074.24,-261.45C1371.03,-260.89 2389.24,-255.35 2436.73,-206 2454.23,-187.81 2433.5,-127.46 2419.73,-110 2408.11,-95.27 2390.24,-84.85 2373.97,-77.81"/>
<polygon fill="#63b8ff" stroke="#63b8ff" points="2375.22,-74.54 2364.63,-74.05 2372.6,-81.03 2375.22,-74.54"/>
</a>
</g>
</g>
<!-- Node29 -->
<g id="Node000029" class="node">
<title>Node29</title>
<g id="a_Node000029"><a xlink:title=" ">
<polygon fill="#e0e0e0" stroke="#999999" points="1302.23,-200.5 1177.23,-200.5 1177.23,-181.5 1302.23,-181.5 1302.23,-200.5"/>
<text text-anchor="middle" x="1239.73" y="-188.5" font-family="Helvetica,sans-Serif" font-size="10.00">hpx/futures/future.hpp</text>
</a>
</g>
</g>
<!-- Node16&#45;&gt;Node29 -->
<g id="edge34_Node000016_Node000029" class="edge">
<title>Node16&#45;&gt;Node29</title>
<g id="a_edge34_Node000016_Node000029"><a xlink:title=" ">
<path fill="none" stroke="#63b8ff" d="M1062.91,-241.96C1107.07,-229.48 1162.77,-213.74 1199.73,-203.3"/>
<polygon fill="#63b8ff" stroke="#63b8ff" points="1200.96,-206.59 1209.63,-200.5 1199.05,-199.85 1200.96,-206.59"/>
</a>
</g>
</g>
<!-- Node30 -->
<g id="Node000030" class="node">
<title>Node30</title>
<g id="a_Node000030"><a xlink:title=" ">
<polygon fill="#e0e0e0" stroke="#999999" points="1418.73,-200.5 1320.73,-200.5 1320.73,-181.5 1418.73,-181.5 1418.73,-200.5"/>
<text text-anchor="middle" x="1369.73" y="-188.5" font-family="Helvetica,sans-Serif" font-size="10.00">hpx/hpx_init.hpp</text>
</a>
</g>
</g>
<!-- Node16&#45;&gt;Node30 -->
<g id="edge35_Node000016_Node000030" class="edge">
<title>Node16&#45;&gt;Node30</title>
<g id="a_edge35_Node000016_Node000030"><a xlink:title=" ">
<path fill="none" stroke="#63b8ff" d="M1074.38,-248.89C1138.82,-238.46 1231.34,-222.7 1311.73,-206 1316.43,-205.02 1321.32,-203.94 1326.19,-202.83"/>
<polygon fill="#63b8ff" stroke="#63b8ff" points="1327.14,-206.2 1336.07,-200.51 1325.54,-199.39 1327.14,-206.2"/>
</a>
</g>
</g>
<!-- Node31 -->
<g id="Node000031" class="node">
<title>Node31</title>
<g id="a_Node000031"><a xlink:title=" ">
<polygon fill="#e0e0e0" stroke="#999999" points="1562.23,-200.5 1437.23,-200.5 1437.23,-181.5 1562.23,-181.5 1562.23,-200.5"/>
<text text-anchor="middle" x="1499.73" y="-188.5" font-family="Helvetica,sans-Serif" font-size="10.00">hpx/include/async.hpp</text>
</a>
</g>
</g>
<!-- Node16&#45;&gt;Node31 -->
<g id="edge36_Node000016_Node000031" class="edge">
<title>Node16&#45;&gt;Node31</title>
<g id="a_edge36_Node000016_Node000031"><a xlink:title=" ">
<path fill="none" stroke="#63b8ff" d="M1074.34,-252.78C1161.65,-242.96 1304.92,-225.77 1427.73,-206 1434.4,-204.93 1441.4,-203.7 1448.31,-202.42"/>
<polygon fill="#63b8ff" stroke="#63b8ff" points="1449.13,-205.83 1458.31,-200.53 1447.83,-198.95 1449.13,-205.83"/>
</a>
</g>
</g>
<!-- Node32 -->
<g id="Node000032" class="node">
<title>Node32</title>
<g id="a_Node000032"><a xlink:title=" ">
<polygon fill="#e0e0e0" stroke="#999999" points="1726.73,-200.5 1580.73,-200.5 1580.73,-181.5 1726.73,-181.5 1726.73,-200.5"/>
<text text-anchor="middle" x="1653.73" y="-188.5" font-family="Helvetica,sans-Serif" font-size="10.00">hpx/include/iostreams.hpp</text>
</a>
</g>
</g>
<!-- Node16&#45;&gt;Node32 -->
<g id="edge37_Node000016_Node000032" class="edge">
<title>Node16&#45;&gt;Node32</title>
<g id="a_edge37_Node000016_Node000032"><a xlink:title=" ">
<path fill="none" stroke="#63b8ff" d="M1074.36,-255.64C1186.26,-247.07 1394.86,-229.56 1571.73,-206 1580.06,-204.89 1588.85,-203.56 1597.45,-202.17"/>
<polygon fill="#63b8ff" stroke="#63b8ff" points="1598.12,-205.6 1607.42,-200.52 1596.98,-198.7 1598.12,-205.6"/>
</a>
</g>
</g>
<!-- Node33 -->
<g id="Node000033" class="node">
<title>Node33</title>
<g id="a_Node000033"><a xlink:title=" ">
<polygon fill="#e0e0e0" stroke="#999999" points="1860.73,-200.5 1744.73,-200.5 1744.73,-181.5 1860.73,-181.5 1860.73,-200.5"/>
<text text-anchor="middle" x="1802.73" y="-188.5" font-family="Helvetica,sans-Serif" font-size="10.00">hpx/include/lcos.hpp</text>
</a>
</g>
</g>
<!-- Node16&#45;&gt;Node33 -->
<g id="edge38_Node000016_Node000033" class="edge">
<title>Node16&#45;&gt;Node33</title>
<g id="a_edge38_Node000016_Node000033"><a xlink:title=" ">
<path fill="none" stroke="#63b8ff" d="M1074.25,-258.94C1210.87,-253.83 1496.54,-239.79 1735.73,-206 1742.45,-205.05 1749.5,-203.83 1756.41,-202.5"/>
<polygon fill="#63b8ff" stroke="#63b8ff" points="1757.25,-205.9 1766.37,-200.5 1755.88,-199.04 1757.25,-205.9"/>
</a>
</g>
</g>
<!-- Node34 -->
<g id="Node000034" class="node">
<title>Node34</title>
<g id="a_Node000034"><a xlink:title=" ">
<polygon fill="#e0e0e0" stroke="#999999" points="2000.23,-200.5 1879.23,-200.5 1879.23,-181.5 2000.23,-181.5 2000.23,-200.5"/>
<text text-anchor="middle" x="1939.73" y="-188.5" font-family="Helvetica,sans-Serif" font-size="10.00">hpx/lcos/promise.hpp</text>
</a>
</g>
</g>
<!-- Node16&#45;&gt;Node34 -->
<g id="edge39_Node000016_Node000034" class="edge">
<title>Node16&#45;&gt;Node34</title>
<g id="a_edge39_Node000016_Node000034"><a xlink:title=" ">
<path fill="none" stroke="#63b8ff" d="M1074.39,-260C1229.21,-256.33 1578.49,-244.17 1869.73,-206 1876.91,-205.06 1884.46,-203.82 1891.84,-202.46"/>
<polygon fill="#63b8ff" stroke="#63b8ff" points="1892.58,-205.88 1901.74,-200.56 1891.26,-199.01 1892.58,-205.88"/>
</a>
</g>
</g>
<!-- Node35 -->
<g id="Node000035" class="node">
<title>Node35</title>
<g id="a_Node000035"><a xlink:title=" ">
<polygon fill="#e0e0e0" stroke="#999999" points="2108.73,-200.5 2018.73,-200.5 2018.73,-181.5 2108.73,-181.5 2108.73,-200.5"/>
<text text-anchor="middle" x="2063.73" y="-188.5" font-family="Helvetica,sans-Serif" font-size="10.00">hpx/mutex.hpp</text>
</a>
</g>
</g>
<!-- Node16&#45;&gt;Node35 -->
<g id="edge40_Node000016_Node000035" class="edge">
<title>Node16&#45;&gt;Node35</title>
<g id="a_edge40_Node000016_Node000035"><a xlink:title=" ">
<path fill="none" stroke="#63b8ff" d="M1074.29,-259.17C1281.61,-252.85 1829.93,-233.93 2009.73,-206 2014.8,-205.21 2020.09,-204.15 2025.29,-202.96"/>
<polygon fill="#63b8ff" stroke="#63b8ff" points="2026.21,-206.34 2035.09,-200.56 2024.54,-199.54 2026.21,-206.34"/>
</a>
</g>
</g>
<!-- Node36 -->
<g id="Node000036" class="node">
<title>Node36</title>
<g id="a_Node000036"><a xlink:title=" ">
<polygon fill="#e0e0e0" stroke="#999999" points="2266.73,-200.5 2126.73,-200.5 2126.73,-181.5 2266.73,-181.5 2266.73,-200.5"/>
<text text-anchor="middle" x="2196.73" y="-188.5" font-family="Helvetica,sans-Serif" font-size="10.00">boost/core/demangle.hpp</text>
</a>
</g>
</g>
<!-- Node16&#45;&gt;Node36 -->
<g id="edge41_Node000016_Node000036" class="edge">
<title>Node16&#45;&gt;Node36</title>
<g id="a_edge41_Node000016_Node000036"><a xlink:title=" ">
<path fill="none" stroke="#63b8ff" d="M1074.42,-261C1259.48,-259.09 1728.47,-249.92 2117.73,-206 2126.28,-205.03 2135.31,-203.72 2144.09,-202.28"/>
<polygon fill="#63b8ff" stroke="#63b8ff" points="2144.97,-205.68 2154.23,-200.54 2143.79,-198.78 2144.97,-205.68"/>
</a>
</g>
</g>
<!-- Node37 -->
<g id="Node000037" class="node">
<title>Node37</title>
<g id="a_Node000037"><a xlink:title=" ">
<polygon fill="#e0e0e0" stroke="#999999" points="2386.23,-200.5 2285.23,-200.5 2285.23,-181.5 2386.23,-181.5 2386.23,-200.5"/>
<text text-anchor="middle" x="2335.73" y="-188.5" font-family="Helvetica,sans-Serif" font-size="10.00">boost/format.hpp</text>
</a>
</g>
</g>
<!-- Node16&#45;&gt;Node37 -->
<g id="edge42_Node000016_Node000037" class="edge">
<title>Node16&#45;&gt;Node37</title>
<g id="a_edge42_Node000016_Node000037"><a xlink:title=" ">
<path fill="none" stroke="#63b8ff" d="M1074.45,-259.97C1317.83,-255.05 2042.05,-238.04 2275.73,-206 2281.7,-205.18 2287.96,-204.04 2294.07,-202.77"/>
<polygon fill="#63b8ff" stroke="#63b8ff" points="2295.17,-206.11 2304.17,-200.52 2293.65,-199.28 2295.17,-206.11"/>
</a>
</g>
</g>
<!-- Node38 -->
<g id="Node000038" class="node">
<title>Node38</title>
<g id="a_Node000038"><a xlink:href="buffer__management_8hpp.html" target="_top" xlink:title=" ">
<polygon fill="white" stroke="#666666" points="974.73,-140 804.73,-140 804.73,-110 974.73,-110 974.73,-140"/>
<text text-anchor="start" x="812.73" y="-128" font-family="Helvetica,sans-Serif" font-size="10.00">cppuddle/memory_recycling</text>
<text text-anchor="middle" x="889.73" y="-117" font-family="Helvetica,sans-Serif" font-size="10.00">/detail/buffer_management.hpp</text>
</a>
</g>
</g>
<!-- Node16&#45;&gt;Node38 -->
<g id="edge44_Node000016_Node000038" class="edge">
<title>Node16&#45;&gt;Node38</title>
<g id="a_edge44_Node000016_Node000038"><a xlink:title=" ">
<path fill="none" stroke="#63b8ff" d="M912.89,-247.64C889.6,-239.49 866.72,-226.55 852.73,-206 840.22,-187.63 853.81,-164.36 867.92,-147.65"/>
<polygon fill="#63b8ff" stroke="#63b8ff" points="870.69,-149.81 874.77,-140.03 865.48,-145.13 870.69,-149.81"/>
</a>
</g>
</g>
<!-- Node38&#45;&gt;Node7 -->
<g id="edge46_Node000038_Node000007" class="edge">
<title>Node38&#45;&gt;Node7</title>
<g id="a_edge46_Node000038_Node000007"><a xlink:title=" ">
<path fill="none" stroke="#63b8ff" d="M804.42,-114.9C732.18,-106.61 625.74,-93.03 524.17,-74.11"/>
<polygon fill="#63b8ff" stroke="#63b8ff" points="524.51,-70.61 514.04,-72.2 523.22,-77.49 524.51,-70.61"/>
</a>
</g>
</g>
<!-- Node38&#45;&gt;Node9 -->
<g id="edge48_Node000038_Node000009" class="edge">
<title>Node38&#45;&gt;Node9</title>
<g id="a_edge48_Node000038_Node000009"><a xlink:title=" ">
<path fill="none" stroke="#63b8ff" d="M804.37,-116.8C718.27,-108.95 581.37,-94.87 453.85,-74.03"/>
<polygon fill="#63b8ff" stroke="#63b8ff" points="454.34,-70.57 443.9,-72.39 453.2,-77.47 454.34,-70.57"/>
</a>
</g>
</g>
<!-- Node38&#45;&gt;Node10 -->
<g id="edge50_Node000038_Node000010" class="edge">
<title>Node38&#45;&gt;Node10</title>
<g id="a_edge50_Node000038_Node000010"><a xlink:title=" ">
<path fill="none" stroke="#63b8ff" d="M832,-109.99C787.39,-99.16 726.85,-84.46 687.78,-74.98"/>
<polygon fill="#63b8ff" stroke="#63b8ff" points="688.39,-71.53 677.85,-72.57 686.74,-78.33 688.39,-71.53"/>
</a>
</g>
</g>
<!-- Node38&#45;&gt;Node11 -->
<g id="edge51_Node000038_Node000011" class="edge">
<title>Node38&#45;&gt;Node11</title>
<g id="a_edge51_Node000038_Node000011"><a xlink:title=" ">
<path fill="none" stroke="#63b8ff" d="M945.71,-109.93C982.63,-98.04 1020.49,-79.11 998.73,-55 972.16,-25.56 698.11,-14.48 600.24,-11.45"/>
<polygon fill="#63b8ff" stroke="#63b8ff" points="600.09,-7.94 589.99,-11.14 599.88,-14.94 600.09,-7.94"/>
</a>
</g>
</g>
<!-- Node38&#45;&gt;Node14 -->
<g id="edge54_Node000038_Node000014" class="edge">
<title>Node38&#45;&gt;Node14</title>
<g id="a_edge54_Node000038_Node000014"><a xlink:title=" ">
<path fill="none" stroke="#63b8ff" d="M809.7,-109.95C756.3,-100.51 684.24,-87.64 611.16,-74.06"/>
<polygon fill="#63b8ff" stroke="#63b8ff" points="611.78,-70.61 601.31,-72.23 610.5,-77.5 611.78,-70.61"/>
</a>
</g>
</g>
<!-- Node38&#45;&gt;Node15 -->
<g id="edge56_Node000038_Node000015" class="edge">
<title>Node38&#45;&gt;Node15</title>
<g id="a_edge56_Node000038_Node000015"><a xlink:title=" ">
<path fill="none" stroke="#63b8ff" d="M862.42,-109.99C844.08,-100.58 820.05,-88.24 801.94,-78.95"/>
<polygon fill="#63b8ff" stroke="#63b8ff" points="803.06,-75.59 792.56,-74.14 799.86,-81.82 803.06,-75.59"/>
</a>
</g>
</g>
<!-- Node38&#45;&gt;Node17 -->
<g id="edge53_Node000038_Node000017" class="edge">
<title>Node38&#45;&gt;Node17</title>
<g id="a_edge53_Node000038_Node000017"><a xlink:title=" ">
<path fill="none" stroke="#63b8ff" d="M943.38,-109.99C982.54,-99.76 1034.9,-86.09 1071.19,-76.61"/>
<polygon fill="#63b8ff" stroke="#63b8ff" points="1072.19,-79.97 1080.98,-74.05 1070.42,-73.19 1072.19,-79.97"/>
</a>
</g>
</g>
<!-- Node38&#45;&gt;Node20 -->
<g id="edge45_Node000038_Node000020" class="edge">
<title>Node38&#45;&gt;Node20</title>
<g id="a_edge45_Node000038_Node000020"><a xlink:title=" ">
<path fill="none" stroke="#63b8ff" d="M974.96,-113.07C1075.74,-100.14 1238.77,-79.22 1310.24,-70.05"/>
<polygon fill="#63b8ff" stroke="#63b8ff" points="1311.03,-73.48 1320.51,-68.74 1310.14,-66.54 1311.03,-73.48"/>
</a>
</g>
</g>
<!-- Node38&#45;&gt;Node23 -->
<g id="edge52_Node000038_Node000023" class="edge">
<title>Node38&#45;&gt;Node23</title>
<g id="a_edge52_Node000038_Node000023"><a xlink:title=" ">
<path fill="none" stroke="#63b8ff" d="M974.77,-119.39C1194.44,-107.46 1774.46,-75.99 1929.28,-67.59"/>
<polygon fill="#63b8ff" stroke="#63b8ff" points="1929.48,-71.08 1939.27,-67.04 1929.1,-64.09 1929.48,-71.08"/>
</a>
</g>
</g>
<!-- Node38&#45;&gt;Node28 -->
<g id="edge55_Node000038_Node000028" class="edge">
<title>Node38&#45;&gt;Node28</title>
<g id="a_edge55_Node000038_Node000028"><a xlink:title=" ">
<path fill="none" stroke="#63b8ff" d="M974.78,-120.56C1241.31,-109.78 2055.76,-76.83 2278.76,-67.8"/>
<polygon fill="#63b8ff" stroke="#63b8ff" points="2279.08,-71.29 2288.93,-67.39 2278.79,-64.3 2279.08,-71.29"/>
</a>
</g>
</g>
<!-- Node39 -->
<g id="Node000039" class="node">
<title>Node39</title>
<g id="a_Node000039"><a xlink:title=" ">
<polygon fill="#e0e0e0" stroke="#999999" points="989.23,-74 924.23,-74 924.23,-55 989.23,-55 989.23,-74"/>
<text text-anchor="middle" x="956.73" y="-62" font-family="Helvetica,sans-Serif" font-size="10.00">functional</text>
</a>
</g>
</g>
<!-- Node38&#45;&gt;Node39 -->
<g id="edge47_Node000038_Node000039" class="edge">
<title>Node38&#45;&gt;Node39</title>
<g id="a_edge47_Node000038_Node000039"><a xlink:title=" ">
<path fill="none" stroke="#63b8ff" d="M905.95,-109.84C915.97,-101.09 928.84,-89.85 939.11,-80.88"/>
<polygon fill="#63b8ff" stroke="#63b8ff" points="941.46,-83.48 946.69,-74.27 936.85,-78.21 941.46,-83.48"/>
</a>
</g>
</g>
<!-- Node40 -->
<g id="Node000040" class="node">
<title>Node40</title>
<g id="a_Node000040"><a xlink:title=" ">
<polygon fill="#e0e0e0" stroke="#999999" points="905.73,-74 873.73,-74 873.73,-55 905.73,-55 905.73,-74"/>
<text text-anchor="middle" x="889.73" y="-62" font-family="Helvetica,sans-Serif" font-size="10.00">list</text>
</a>
</g>
</g>
<!-- Node38&#45;&gt;Node40 -->
<g id="edge49_Node000038_Node000040" class="edge">
<title>Node38&#45;&gt;Node40</title>
<g id="a_edge49_Node000038_Node000040"><a xlink:title=" ">
<path fill="none" stroke="#63b8ff" d="M889.73,-109.84C889.73,-102.21 889.73,-92.7 889.73,-84.45"/>
<polygon fill="#63b8ff" stroke="#63b8ff" points="893.23,-84.27 889.73,-74.27 886.23,-84.27 893.23,-84.27"/>
</a>
</g>
</g>
<!-- Node41&#45;&gt;Node16 -->
<g id="edge59_Node000041_Node000016" class="edge">
<title>Node41&#45;&gt;Node16</title>
<g id="a_edge59_Node000041_Node000016"><a xlink:title=" ">
<path fill="none" stroke="#63b8ff" d="M914.56,-318.99C927.59,-309.86 943.27,-298.87 957.23,-289.08"/>
<polygon fill="#63b8ff" stroke="#63b8ff" points="959.48,-291.78 965.66,-283.17 955.46,-286.05 959.48,-291.78"/>
</a>
</g>
</g>
</g>
</svg>

<g id="navigator" transform="translate(0 0)" fill="#404254">
  <rect fill="#f2f5e9" fill-opacity="0.5" stroke="#606060" stroke-width=".5" x="0" y="0" width="60" height="60"/>
  <use id="zoomplus" xlink:href="#zoomPlus" x="17" y="9" onmousedown="handleZoom(evt,'in')"/>
  <use id="zoomminus" xlink:href="#zoomMin" x="42" y="9" onmousedown="handleZoom(evt,'out')"/>
  <use id="reset" xlink:href="#resetDef" x="30" y="36" onmousedown="handleReset()"/>
   <use id="arrowup" xlink:href="#arrowUp" x="0" y="0" onmousedown="handlePan(0,-1)"/>
  <use id="arrowright" xlink:href="#arrowRight" x="0" y="0" onmousedown="handlePan(1,0)"/>
  <use id="arrowdown" xlink:href="#arrowDown" x="0" y="0" onmousedown="handlePan(0,1)"/>
  <use id="arrowleft" xlink:href="#arrowLeft" x="0" y="0" onmousedown="handlePan(-1,0)"/>
</g>
<svg viewBox="0 0 15 15" width="100%" height="30px" preserveAspectRatio="xMaxYMin meet">
 <g id="arrow_out" transform="scale(0.3 0.3)">
  <a xlink:href="aggregation__manager_8hpp__incl_org.svg" target="_base">
   <rect id="button" ry="5" rx="5" y="6" x="6" height="38" width="38"
        fill="#f2f5e9" fill-opacity="0.5" stroke="#606060" stroke-width="1.0"/>
   <path id="arrow"
     d="M 11.500037,31.436501 C 11.940474,20.09759 22.043105,11.32322 32.158766,21.979434 L 37.068811,17.246167 C 37.068811,17.246167 37.088388,32 37.088388,32 L 22.160133,31.978069 C 22.160133,31.978069 26.997745,27.140456 26.997745,27.140456 C 18.528582,18.264221 13.291696,25.230495 11.500037,31.436501 z"
     style="fill:#404040;"/>
  </a>
 </g>
</svg>

<style type='text/css'>
<![CDATA[
[data-mouse-over-selected='false'] { opacity: 0.7; }
[data-mouse-over-selected='true']  { opacity: 1.0; }
]]>
</style>
<script type="application/ecmascript"><![CDATA[
document.addEventListener('DOMContentLoaded', (event) => {
  highlightEdges();
  highlightAdjacentNodes();
});
]]></script>
</svg>
