<?xml version="1.0" encoding="UTF-8" standalone="no"?>
<!DOCTYPE svg PUBLIC "-//W3C//DTD SVG 1.1//EN"
 "http://www.w3.org/Graphics/SVG/1.1/DTD/svg11.dtd">
<!-- Generated by graphviz version 2.43.0 (0)
 -->
<!-- Title: include/aggregation_manager.hpp Pages: 1 -->
<svg width="2284pt" height="508pt"
 viewBox="0.00 0.00 2283.78 508.00" xmlns="http://www.w3.org/2000/svg" xmlns:xlink="http://www.w3.org/1999/xlink">
<g id="graph0" class="graph" transform="scale(1 1) rotate(0) translate(4 504)">
<title>include/aggregation_manager.hpp</title>
<polygon fill="white" stroke="transparent" points="-4,4 -4,-504 2279.78,-504 2279.78,4 -4,4"/>
<!-- Node1 -->
<g id="node1" class="node">
<title>Node1</title>
<g id="a_node1"><a xlink:title=" ">
<polygon fill="#bfbfbf" stroke="black" points="657.51,-469.5 657.51,-499.5 770.51,-499.5 770.51,-469.5 657.51,-469.5"/>
<text text-anchor="start" x="665.51" y="-487.5" font-family="Helvetica,sans-Serif" font-size="10.00">include/aggregation</text>
<text text-anchor="middle" x="714.01" y="-476.5" font-family="Helvetica,sans-Serif" font-size="10.00">_manager.hpp</text>
</a>
</g>
</g>
<!-- Node2 -->
<g id="node2" class="node">
<title>Node2</title>
<g id="a_node2"><a xlink:href="kernel__aggregation__interface_8hpp.html" target="_top" xlink:title=" ">
<polygon fill="white" stroke="black" points="622.51,-402.5 622.51,-432.5 805.51,-432.5 805.51,-402.5 622.51,-402.5"/>
<text text-anchor="start" x="630.51" y="-420.5" font-family="Helvetica,sans-Serif" font-size="10.00">cppuddle/kernel_aggregation</text>
<text text-anchor="middle" x="714.01" y="-409.5" font-family="Helvetica,sans-Serif" font-size="10.00">/kernel_aggregation_interface.hpp</text>
</a>
</g>
</g>
<!-- Node1&#45;&gt;Node2 -->
<g id="edge1" class="edge">
<title>Node1&#45;&gt;Node2</title>
<path fill="none" stroke="midnightblue" d="M714.01,-469.4C714.01,-461.64 714.01,-451.81 714.01,-442.86"/>
<polygon fill="midnightblue" stroke="midnightblue" points="717.51,-442.58 714.01,-432.58 710.51,-442.58 717.51,-442.58"/>
</g>
<!-- Node3 -->
<g id="node3" class="node">
<title>Node3</title>
<g id="a_node3"><a xlink:href="aggregation__executors__and__allocators_8hpp.html" target="_top" xlink:title=" ">
<polygon fill="white" stroke="black" points="633.51,-246.5 633.51,-287.5 794.51,-287.5 794.51,-246.5 633.51,-246.5"/>
<text text-anchor="start" x="641.51" y="-275.5" font-family="Helvetica,sans-Serif" font-size="10.00">cppuddle/kernel_aggregation</text>
<text text-anchor="start" x="641.51" y="-264.5" font-family="Helvetica,sans-Serif" font-size="10.00">/detail/aggregation_executors</text>
<text text-anchor="middle" x="714.01" y="-253.5" font-family="Helvetica,sans-Serif" font-size="10.00">_and_allocators.hpp</text>
</a>
</g>
</g>
<!-- Node2&#45;&gt;Node3 -->
<g id="edge2" class="edge">
<title>Node2&#45;&gt;Node3</title>
<path fill="none" stroke="midnightblue" d="M701.02,-402.25C693.26,-392.75 684.14,-379.55 680.01,-366 674.56,-348.15 674.98,-341.98 680.01,-324 682.71,-314.33 687.6,-304.66 692.84,-296.15"/>
<polygon fill="midnightblue" stroke="midnightblue" points="695.79,-298.03 698.35,-287.75 689.94,-294.19 695.79,-298.03"/>
</g>
<!-- Node41 -->
<g id="node41" class="node">
<title>Node41</title>
<g id="a_node41"><a xlink:href="aggregation__executor__pools_8hpp.html" target="_top" xlink:title=" ">
<polygon fill="white" stroke="black" points="689.01,-324.5 689.01,-365.5 847.01,-365.5 847.01,-324.5 689.01,-324.5"/>
<text text-anchor="start" x="697.01" y="-353.5" font-family="Helvetica,sans-Serif" font-size="10.00">cppuddle/kernel_aggregation</text>
<text text-anchor="start" x="697.01" y="-342.5" font-family="Helvetica,sans-Serif" font-size="10.00">/detail/aggregation_executor</text>
<text text-anchor="middle" x="768.01" y="-331.5" font-family="Helvetica,sans-Serif" font-size="10.00">_pools.hpp</text>
</a>
</g>
</g>
<!-- Node2&#45;&gt;Node41 -->
<g id="edge57" class="edge">
<title>Node2&#45;&gt;Node41</title>
<path fill="none" stroke="midnightblue" d="M724.93,-402.23C731.24,-394 739.39,-383.36 746.9,-373.56"/>
<polygon fill="midnightblue" stroke="midnightblue" points="749.7,-375.66 753,-365.59 744.14,-371.4 749.7,-375.66"/>
</g>
<!-- Node4 -->
<g id="node4" class="node">
<title>Node4</title>
<g id="a_node4"><a xlink:title=" ">
<polygon fill="white" stroke="#bfbfbf" points="5.51,-56.5 5.51,-75.5 70.51,-75.5 70.51,-56.5 5.51,-56.5"/>
<text text-anchor="middle" x="38.01" y="-63.5" font-family="Helvetica,sans-Serif" font-size="10.00">stdexcept</text>
</a>
</g>
</g>
<!-- Node3&#45;&gt;Node4 -->
<g id="edge3" class="edge">
<title>Node3&#45;&gt;Node4</title>
<path fill="none" stroke="midnightblue" d="M633.24,-265.54C458.19,-263.71 56.22,-254.64 15.01,-210 -17.02,-175.31 10.31,-114.57 27.15,-84.66"/>
<polygon fill="midnightblue" stroke="midnightblue" points="30.32,-86.18 32.36,-75.79 24.28,-82.64 30.32,-86.18"/>
</g>
<!-- Node5 -->
<g id="node5" class="node">
<title>Node5</title>
<g id="a_node5"><a xlink:title=" ">
<polygon fill="white" stroke="#bfbfbf" points="24.01,-185 24.01,-204 74.01,-204 74.01,-185 24.01,-185"/>
<text text-anchor="middle" x="49.01" y="-192" font-family="Helvetica,sans-Serif" font-size="10.00">stdio.h</text>
</a>
</g>
</g>
<!-- Node3&#45;&gt;Node5 -->
<g id="edge4" class="edge">
<title>Node3&#45;&gt;Node5</title>
<path fill="none" stroke="midnightblue" d="M633.48,-266.87C512.22,-266.4 276.35,-258.51 83.01,-210 80.64,-209.41 78.23,-208.67 75.84,-207.85"/>
<polygon fill="midnightblue" stroke="midnightblue" points="76.88,-204.49 66.29,-204.11 74.33,-211.01 76.88,-204.49"/>
</g>
<!-- Node6 -->
<g id="node6" class="node">
<title>Node6</title>
<g id="a_node6"><a xlink:title=" ">
<polygon fill="white" stroke="#bfbfbf" points="92.51,-185 92.51,-204 127.51,-204 127.51,-185 92.51,-185"/>
<text text-anchor="middle" x="110.01" y="-192" font-family="Helvetica,sans-Serif" font-size="10.00">any</text>
</a>
</g>
</g>
<!-- Node3&#45;&gt;Node6 -->
<g id="edge5" class="edge">
<title>Node3&#45;&gt;Node6</title>
<path fill="none" stroke="midnightblue" d="M633.43,-266.34C521.33,-264.98 312.85,-255.73 142.01,-210 139.85,-209.42 137.66,-208.72 135.49,-207.93"/>
<polygon fill="midnightblue" stroke="midnightblue" points="136.81,-204.69 126.23,-204.09 134.13,-211.15 136.81,-204.69"/>
</g>
<!-- Node7 -->
<g id="node7" class="node">
<title>Node7</title>
<g id="a_node7"><a xlink:title=" ">
<polygon fill="white" stroke="#bfbfbf" points="127.01,-56.5 127.01,-75.5 177.01,-75.5 177.01,-56.5 127.01,-56.5"/>
<text text-anchor="middle" x="152.01" y="-63.5" font-family="Helvetica,sans-Serif" font-size="10.00">atomic</text>
</a>
</g>
</g>
<!-- Node3&#45;&gt;Node7 -->
<g id="edge6" class="edge">
<title>Node3&#45;&gt;Node7</title>
<path fill="none" stroke="midnightblue" d="M633.44,-262.96C491.25,-256.83 207.63,-240.84 175.01,-210 140.98,-177.83 144.29,-116.8 148.62,-85.92"/>
<polygon fill="midnightblue" stroke="midnightblue" points="152.13,-86.1 150.25,-75.68 145.22,-85 152.13,-86.1"/>
</g>
<!-- Node8 -->
<g id="node8" class="node">
<title>Node8</title>
<g id="a_node8"><a xlink:title=" ">
<polygon fill="white" stroke="#bfbfbf" points="184.01,-185 184.01,-204 234.01,-204 234.01,-185 184.01,-185"/>
<text text-anchor="middle" x="209.01" y="-192" font-family="Helvetica,sans-Serif" font-size="10.00">chrono</text>
</a>
</g>
</g>
<!-- Node3&#45;&gt;Node8 -->
<g id="edge7" class="edge">
<title>Node3&#45;&gt;Node8</title>
<path fill="none" stroke="midnightblue" d="M633.11,-263.36C538.22,-258.67 376.87,-245.72 243.01,-210 240.65,-209.37 238.25,-208.61 235.86,-207.77"/>
<polygon fill="midnightblue" stroke="midnightblue" points="236.9,-204.42 226.31,-204.01 234.33,-210.93 236.9,-204.42"/>
</g>
<!-- Node9 -->
<g id="node9" class="node">
<title>Node9</title>
<g id="a_node9"><a xlink:title=" ">
<polygon fill="white" stroke="#bfbfbf" points="252.01,-185 252.01,-204 298.01,-204 298.01,-185 252.01,-185"/>
<text text-anchor="middle" x="275.01" y="-192" font-family="Helvetica,sans-Serif" font-size="10.00">cstdio</text>
</a>
</g>
</g>
<!-- Node3&#45;&gt;Node9 -->
<g id="edge8" class="edge">
<title>Node3&#45;&gt;Node9</title>
<path fill="none" stroke="midnightblue" d="M633.21,-260.36C551.25,-253.33 421.25,-238.59 312.01,-210 309.34,-209.3 306.61,-208.47 303.9,-207.56"/>
<polygon fill="midnightblue" stroke="midnightblue" points="304.9,-204.2 294.31,-204.05 302.49,-210.78 304.9,-204.2"/>
</g>
<!-- Node10 -->
<g id="node10" class="node">
<title>Node10</title>
<g id="a_node10"><a xlink:title=" ">
<polygon fill="white" stroke="#bfbfbf" points="786.01,-56.5 786.01,-75.5 846.01,-75.5 846.01,-56.5 786.01,-56.5"/>
<text text-anchor="middle" x="816.01" y="-63.5" font-family="Helvetica,sans-Serif" font-size="10.00">iostream</text>
</a>
</g>
</g>
<!-- Node3&#45;&gt;Node10 -->
<g id="edge9" class="edge">
<title>Node3&#45;&gt;Node10</title>
<path fill="none" stroke="midnightblue" d="M695.48,-246.47C680.99,-228.71 665.01,-201.88 676.01,-179 698.95,-131.25 753.27,-97.49 787.1,-80.22"/>
<polygon fill="midnightblue" stroke="midnightblue" points="789.06,-83.16 796.47,-75.59 785.96,-76.88 789.06,-83.16"/>
</g>
<!-- Node11 -->
<g id="node11" class="node">
<title>Node11</title>
<g id="a_node11"><a xlink:title=" ">
<polygon fill="white" stroke="#bfbfbf" points="552.01,-56.5 552.01,-75.5 610.01,-75.5 610.01,-56.5 552.01,-56.5"/>
<text text-anchor="middle" x="581.01" y="-63.5" font-family="Helvetica,sans-Serif" font-size="10.00">memory</text>
</a>
</g>
</g>
<!-- Node3&#45;&gt;Node11 -->
<g id="edge10" class="edge">
<title>Node3&#45;&gt;Node11</title>
<path fill="none" stroke="midnightblue" d="M633.26,-258.9C567.88,-251.28 483.28,-236.53 462.01,-210 410.83,-146.2 532.84,-175.26 562.01,-143 576.09,-127.43 580.09,-103 581.06,-86.06"/>
<polygon fill="midnightblue" stroke="midnightblue" points="584.56,-85.81 581.32,-75.73 577.57,-85.63 584.56,-85.81"/>
</g>
<!-- Node12 -->
<g id="node12" class="node">
<title>Node12</title>
<g id="a_node12"><a xlink:title=" ">
<polygon fill="white" stroke="#bfbfbf" points="1185.01,-0.5 1185.01,-19.5 1233.01,-19.5 1233.01,-0.5 1185.01,-0.5"/>
<text text-anchor="middle" x="1209.01" y="-7.5" font-family="Helvetica,sans-Serif" font-size="10.00">mutex</text>
</a>
</g>
</g>
<!-- Node3&#45;&gt;Node12 -->
<g id="edge11" class="edge">
<title>Node3&#45;&gt;Node12</title>
<path fill="none" stroke="midnightblue" d="M794.76,-266.16C1106.47,-266.38 2216.48,-263.42 2268.01,-210 2290.37,-186.82 2258.69,-123.99 2244.01,-112 2164.75,-47.33 1414.62,-18.01 1243.6,-12.13"/>
<polygon fill="midnightblue" stroke="midnightblue" points="1243.52,-8.62 1233.41,-11.78 1243.28,-15.62 1243.52,-8.62"/>
</g>
<!-- Node13 -->
<g id="node13" class="node">
<title>Node13</title>
<g id="a_node13"><a xlink:title=" ">
<polygon fill="white" stroke="#bfbfbf" points="195.01,-56.5 195.01,-75.5 251.01,-75.5 251.01,-56.5 195.01,-56.5"/>
<text text-anchor="middle" x="223.01" y="-63.5" font-family="Helvetica,sans-Serif" font-size="10.00">optional</text>
</a>
</g>
</g>
<!-- Node3&#45;&gt;Node13 -->
<g id="edge12" class="edge">
<title>Node3&#45;&gt;Node13</title>
<path fill="none" stroke="midnightblue" d="M633.34,-264.76C563.89,-260.87 462.57,-248.28 383.01,-210 318.53,-178.98 260.75,-114.03 235.9,-83.51"/>
<polygon fill="midnightblue" stroke="midnightblue" points="238.51,-81.17 229.53,-75.54 233.05,-85.54 238.51,-81.17"/>
</g>
<!-- Node14 -->
<g id="node14" class="node">
<title>Node14</title>
<g id="a_node14"><a xlink:title=" ">
<polygon fill="white" stroke="#bfbfbf" points="471.51,-185 471.51,-204 528.51,-204 528.51,-185 471.51,-185"/>
<text text-anchor="middle" x="500.01" y="-192" font-family="Helvetica,sans-Serif" font-size="10.00">ostream</text>
</a>
</g>
</g>
<!-- Node3&#45;&gt;Node14 -->
<g id="edge13" class="edge">
<title>Node3&#45;&gt;Node14</title>
<path fill="none" stroke="midnightblue" d="M649.35,-246.39C615.95,-236.01 574.63,-222.8 538.01,-210 535.89,-209.26 533.72,-208.48 531.54,-207.69"/>
<polygon fill="midnightblue" stroke="midnightblue" points="532.62,-204.36 522.03,-204.15 530.18,-210.92 532.62,-204.36"/>
</g>
<!-- Node15 -->
<g id="node15" class="node">
<title>Node15</title>
<g id="a_node15"><a xlink:title=" ">
<polygon fill="white" stroke="#bfbfbf" points="547.01,-185 547.01,-204 591.01,-204 591.01,-185 547.01,-185"/>
<text text-anchor="middle" x="569.01" y="-192" font-family="Helvetica,sans-Serif" font-size="10.00">string</text>
</a>
</g>
</g>
<!-- Node3&#45;&gt;Node15 -->
<g id="edge14" class="edge">
<title>Node3&#45;&gt;Node15</title>
<path fill="none" stroke="midnightblue" d="M673.61,-246.36C648.8,-234.29 617.69,-219.17 595.87,-208.56"/>
<polygon fill="midnightblue" stroke="midnightblue" points="597.37,-205.4 586.84,-204.17 594.31,-211.69 597.37,-205.4"/>
</g>
<!-- Node16 -->
<g id="node16" class="node">
<title>Node16</title>
<g id="a_node16"><a xlink:title=" ">
<polygon fill="white" stroke="#bfbfbf" points="1801.51,-56.5 1801.51,-75.5 1842.51,-75.5 1842.51,-56.5 1801.51,-56.5"/>
<text text-anchor="middle" x="1822.01" y="-63.5" font-family="Helvetica,sans-Serif" font-size="10.00">tuple</text>
</a>
</g>
</g>
<!-- Node3&#45;&gt;Node16 -->
<g id="edge15" class="edge">
<title>Node3&#45;&gt;Node16</title>
<path fill="none" stroke="midnightblue" d="M794.62,-266.11C1103.15,-266.16 2194.31,-262.58 2245.01,-210 2362.93,-87.68 1968.86,-69.99 1853.06,-67.43"/>
<polygon fill="midnightblue" stroke="midnightblue" points="1852.81,-63.93 1842.75,-67.23 1852.68,-70.93 1852.81,-63.93"/>
</g>
<!-- Node17 -->
<g id="node17" class="node">
<title>Node17</title>
<g id="a_node17"><a xlink:title=" ">
<polygon fill="white" stroke="#bfbfbf" points="628.51,-56.5 628.51,-75.5 697.51,-75.5 697.51,-56.5 628.51,-56.5"/>
<text text-anchor="middle" x="663.01" y="-63.5" font-family="Helvetica,sans-Serif" font-size="10.00">type_traits</text>
</a>
</g>
</g>
<!-- Node3&#45;&gt;Node17 -->
<g id="edge16" class="edge">
<title>Node3&#45;&gt;Node17</title>
<path fill="none" stroke="midnightblue" d="M676.92,-246.27C663.69,-237.15 650.27,-224.97 643.01,-210 624,-170.81 633.96,-154.61 643.01,-112 645,-102.59 649.11,-92.76 653.08,-84.7"/>
<polygon fill="midnightblue" stroke="midnightblue" points="656.31,-86.07 657.88,-75.59 650.12,-82.81 656.31,-86.07"/>
</g>
<!-- Node18 -->
<g id="node18" class="node">
<title>Node18</title>
<g id="a_node18"><a xlink:title=" ">
<polygon fill="white" stroke="#bfbfbf" points="685.51,-185 685.51,-204 742.51,-204 742.51,-185 685.51,-185"/>
<text text-anchor="middle" x="714.01" y="-192" font-family="Helvetica,sans-Serif" font-size="10.00">typeinfo</text>
</a>
</g>
</g>
<!-- Node3&#45;&gt;Node18 -->
<g id="edge17" class="edge">
<title>Node3&#45;&gt;Node18</title>
<path fill="none" stroke="midnightblue" d="M714.01,-246.36C714.01,-236.3 714.01,-224.1 714.01,-214.18"/>
<polygon fill="midnightblue" stroke="midnightblue" points="717.51,-214.17 714.01,-204.17 710.51,-214.17 717.51,-214.17"/>
</g>
<!-- Node19 -->
<g id="node19" class="node">
<title>Node19</title>
<g id="a_node19"><a xlink:title=" ">
<polygon fill="white" stroke="#bfbfbf" points="760.51,-185 760.51,-204 805.51,-204 805.51,-185 760.51,-185"/>
<text text-anchor="middle" x="783.01" y="-192" font-family="Helvetica,sans-Serif" font-size="10.00">utility</text>
</a>
</g>
</g>
<!-- Node3&#45;&gt;Node19 -->
<g id="edge18" class="edge">
<title>Node3&#45;&gt;Node19</title>
<path fill="none" stroke="midnightblue" d="M733.23,-246.36C744.03,-235.32 757.34,-221.72 767.48,-211.37"/>
<polygon fill="midnightblue" stroke="midnightblue" points="770.02,-213.77 774.52,-204.17 765.02,-208.87 770.02,-213.77"/>
</g>
<!-- Node20 -->
<g id="node20" class="node">
<title>Node20</title>
<g id="a_node20"><a xlink:title=" ">
<polygon fill="white" stroke="#bfbfbf" points="269.51,-56.5 269.51,-75.5 362.51,-75.5 362.51,-56.5 269.51,-56.5"/>
<text text-anchor="middle" x="316.01" y="-63.5" font-family="Helvetica,sans-Serif" font-size="10.00">unordered_map</text>
</a>
</g>
</g>
<!-- Node3&#45;&gt;Node20 -->
<g id="edge19" class="edge">
<title>Node3&#45;&gt;Node20</title>
<path fill="none" stroke="midnightblue" d="M633.33,-257.37C558.87,-248.21 454.73,-232.02 420.01,-210 371.09,-178.98 337.79,-116.01 323.65,-85.03"/>
<polygon fill="midnightblue" stroke="midnightblue" points="326.84,-83.58 319.6,-75.85 320.43,-86.41 326.84,-83.58"/>
</g>
<!-- Node21 -->
<g id="node21" class="node">
<title>Node21</title>
<g id="a_node21"><a xlink:title=" ">
<polygon fill="white" stroke="#bfbfbf" points="1004.51,-185 1004.51,-204 1129.51,-204 1129.51,-185 1004.51,-185"/>
<text text-anchor="middle" x="1067.01" y="-192" font-family="Helvetica,sans-Serif" font-size="10.00">hpx/futures/future.hpp</text>
</a>
</g>
</g>
<!-- Node3&#45;&gt;Node21 -->
<g id="edge20" class="edge">
<title>Node3&#45;&gt;Node21</title>
<path fill="none" stroke="midnightblue" d="M794.56,-250.12C850.98,-238.98 928.11,-223.67 996.01,-210 1002.24,-208.74 1008.78,-207.42 1015.26,-206.1"/>
<polygon fill="midnightblue" stroke="midnightblue" points="1016.24,-209.47 1025.34,-204.05 1014.84,-202.61 1016.24,-209.47"/>
</g>
<!-- Node22 -->
<g id="node22" class="node">
<title>Node22</title>
<g id="a_node22"><a xlink:title=" ">
<polygon fill="white" stroke="#bfbfbf" points="1148.01,-185 1148.01,-204 1246.01,-204 1246.01,-185 1148.01,-185"/>
<text text-anchor="middle" x="1197.01" y="-192" font-family="Helvetica,sans-Serif" font-size="10.00">hpx/hpx_init.hpp</text>
</a>
</g>
</g>
<!-- Node3&#45;&gt;Node22 -->
<g id="edge21" class="edge">
<title>Node3&#45;&gt;Node22</title>
<path fill="none" stroke="midnightblue" d="M794.73,-258.13C880.55,-249.12 1020.02,-232.64 1139.01,-210 1144.42,-208.97 1150.09,-207.74 1155.67,-206.44"/>
<polygon fill="midnightblue" stroke="midnightblue" points="1156.64,-209.81 1165.54,-204.06 1155,-203 1156.64,-209.81"/>
</g>
<!-- Node23 -->
<g id="node23" class="node">
<title>Node23</title>
<g id="a_node23"><a xlink:title=" ">
<polygon fill="white" stroke="#bfbfbf" points="1264.51,-185 1264.51,-204 1389.51,-204 1389.51,-185 1264.51,-185"/>
<text text-anchor="middle" x="1327.01" y="-192" font-family="Helvetica,sans-Serif" font-size="10.00">hpx/include/async.hpp</text>
</a>
</g>
</g>
<!-- Node3&#45;&gt;Node23 -->
<g id="edge22" class="edge">
<title>Node3&#45;&gt;Node23</title>
<path fill="none" stroke="midnightblue" d="M794.51,-260.08C900.47,-251.75 1092.34,-234.74 1255.01,-210 1262.54,-208.85 1270.49,-207.45 1278.24,-205.98"/>
<polygon fill="midnightblue" stroke="midnightblue" points="1279.13,-209.37 1288.26,-204.01 1277.78,-202.5 1279.13,-209.37"/>
</g>
<!-- Node24 -->
<g id="node24" class="node">
<title>Node24</title>
<g id="a_node24"><a xlink:title=" ">
<polygon fill="white" stroke="#bfbfbf" points="1408.01,-185 1408.01,-204 1554.01,-204 1554.01,-185 1408.01,-185"/>
<text text-anchor="middle" x="1481.01" y="-192" font-family="Helvetica,sans-Serif" font-size="10.00">hpx/include/iostreams.hpp</text>
</a>
</g>
</g>
<!-- Node3&#45;&gt;Node24 -->
<g id="edge23" class="edge">
<title>Node3&#45;&gt;Node24</title>
<path fill="none" stroke="midnightblue" d="M794.67,-261.85C923,-254.71 1181.41,-238.07 1399.01,-210 1408.17,-208.82 1417.86,-207.32 1427.25,-205.74"/>
<polygon fill="midnightblue" stroke="midnightblue" points="1428.03,-209.16 1437.29,-204.01 1426.84,-202.26 1428.03,-209.16"/>
</g>
<!-- Node25 -->
<g id="node25" class="node">
<title>Node25</title>
<g id="a_node25"><a xlink:title=" ">
<polygon fill="white" stroke="#bfbfbf" points="1572.01,-185 1572.01,-204 1688.01,-204 1688.01,-185 1572.01,-185"/>
<text text-anchor="middle" x="1630.01" y="-192" font-family="Helvetica,sans-Serif" font-size="10.00">hpx/include/lcos.hpp</text>
</a>
</g>
</g>
<!-- Node3&#45;&gt;Node25 -->
<g id="edge24" class="edge">
<title>Node3&#45;&gt;Node25</title>
<path fill="none" stroke="midnightblue" d="M794.59,-264.63C945.89,-261.19 1282.51,-249.38 1563.01,-210 1570.3,-208.98 1577.98,-207.6 1585.44,-206.1"/>
<polygon fill="midnightblue" stroke="midnightblue" points="1586.34,-209.49 1595.41,-204.01 1584.9,-202.64 1586.34,-209.49"/>
</g>
<!-- Node26 -->
<g id="node26" class="node">
<title>Node26</title>
<g id="a_node26"><a xlink:title=" ">
<polygon fill="white" stroke="#bfbfbf" points="1706.51,-185 1706.51,-204 1827.51,-204 1827.51,-185 1706.51,-185"/>
<text text-anchor="middle" x="1767.01" y="-192" font-family="Helvetica,sans-Serif" font-size="10.00">hpx/lcos/promise.hpp</text>
</a>
</g>
</g>
<!-- Node3&#45;&gt;Node26 -->
<g id="edge25" class="edge">
<title>Node3&#45;&gt;Node26</title>
<path fill="none" stroke="midnightblue" d="M794.66,-265.42C963.04,-263.32 1363.98,-253.74 1697.01,-210 1704.79,-208.98 1713.01,-207.57 1720.96,-206.04"/>
<polygon fill="midnightblue" stroke="midnightblue" points="1721.74,-209.46 1730.85,-204.05 1720.35,-202.59 1721.74,-209.46"/>
</g>
<!-- Node27 -->
<g id="node27" class="node">
<title>Node27</title>
<g id="a_node27"><a xlink:title=" ">
<polygon fill="white" stroke="#bfbfbf" points="1846.01,-185 1846.01,-204 1936.01,-204 1936.01,-185 1846.01,-185"/>
<text text-anchor="middle" x="1891.01" y="-192" font-family="Helvetica,sans-Serif" font-size="10.00">hpx/mutex.hpp</text>
</a>
</g>
</g>
<!-- Node3&#45;&gt;Node27 -->
<g id="edge26" class="edge">
<title>Node3&#45;&gt;Node27</title>
<path fill="none" stroke="midnightblue" d="M794.88,-264.2C1017.48,-258.89 1635.98,-241.63 1837.01,-210 1842.52,-209.13 1848.28,-207.92 1853.9,-206.57"/>
<polygon fill="midnightblue" stroke="midnightblue" points="1854.97,-209.91 1863.78,-204.02 1853.22,-203.13 1854.97,-209.91"/>
</g>
<!-- Node28 -->
<g id="node28" class="node">
<title>Node28</title>
<g id="a_node28"><a xlink:title=" ">
<polygon fill="white" stroke="#bfbfbf" points="1954.01,-185 1954.01,-204 2094.01,-204 2094.01,-185 1954.01,-185"/>
<text text-anchor="middle" x="2024.01" y="-192" font-family="Helvetica,sans-Serif" font-size="10.00">boost/core/demangle.hpp</text>
</a>
</g>
</g>
<!-- Node3&#45;&gt;Node28 -->
<g id="edge27" class="edge">
<title>Node3&#45;&gt;Node28</title>
<path fill="none" stroke="midnightblue" d="M794.6,-266.12C991.64,-265.59 1513.24,-259.21 1945.01,-210 1954.26,-208.94 1964.07,-207.45 1973.51,-205.82"/>
<polygon fill="midnightblue" stroke="midnightblue" points="1974.35,-209.23 1983.57,-204.02 1973.11,-202.34 1974.35,-209.23"/>
</g>
<!-- Node29 -->
<g id="node29" class="node">
<title>Node29</title>
<g id="a_node29"><a xlink:title=" ">
<polygon fill="white" stroke="#bfbfbf" points="2112.51,-185 2112.51,-204 2213.51,-204 2213.51,-185 2112.51,-185"/>
<text text-anchor="middle" x="2163.01" y="-192" font-family="Helvetica,sans-Serif" font-size="10.00">boost/format.hpp</text>
</a>
</g>
</g>
<!-- Node3&#45;&gt;Node29 -->
<g id="edge28" class="edge">
<title>Node3&#45;&gt;Node29</title>
<path fill="none" stroke="midnightblue" d="M794.59,-264.83C1051.26,-260.79 1847.7,-245.64 2103.01,-210 2109.41,-209.11 2116.14,-207.83 2122.67,-206.39"/>
<polygon fill="midnightblue" stroke="midnightblue" points="2123.76,-209.73 2132.71,-204.05 2122.17,-202.92 2123.76,-209.73"/>
</g>
<!-- Node30 -->
<g id="node30" class="node">
<title>Node30</title>
<g id="a_node30"><a xlink:href="config_8hpp.html" target="_top" xlink:title=" ">
<polygon fill="white" stroke="black" points="1012.01,-56.5 1012.01,-75.5 1172.01,-75.5 1172.01,-56.5 1012.01,-56.5"/>
<text text-anchor="middle" x="1092.01" y="-63.5" font-family="Helvetica,sans-Serif" font-size="10.00">cppuddle/common/config.hpp</text>
</a>
</g>
</g>
<!-- Node3&#45;&gt;Node30 -->
<g id="edge29" class="edge">
<title>Node3&#45;&gt;Node30</title>
<path fill="none" stroke="midnightblue" d="M794.76,-266.07C1100.62,-265.94 2173.12,-261.77 2223.01,-210 2382.78,-44.18 1439.67,-97.7 1182.36,-76.05"/>
<polygon fill="midnightblue" stroke="midnightblue" points="1182.34,-72.53 1172.06,-75.1 1181.7,-79.5 1182.34,-72.53"/>
</g>
<!-- Node31 -->
<g id="node31" class="node">
<title>Node31</title>
<g id="a_node31"><a xlink:href="buffer__management_8hpp.html" target="_top" xlink:title=" ">
<polygon fill="white" stroke="black" points="383.01,-112.5 383.01,-142.5 553.01,-142.5 553.01,-112.5 383.01,-112.5"/>
<text text-anchor="start" x="391.01" y="-130.5" font-family="Helvetica,sans-Serif" font-size="10.00">cppuddle/memory_recycling</text>
<text text-anchor="middle" x="468.01" y="-119.5" font-family="Helvetica,sans-Serif" font-size="10.00">/detail/buffer_management.hpp</text>
</a>
</g>
</g>
<!-- Node3&#45;&gt;Node31 -->
<g id="edge31" class="edge">
<title>Node3&#45;&gt;Node31</title>
<path fill="none" stroke="midnightblue" d="M633.23,-261.31C558.25,-255.06 454.47,-240.96 429.01,-210 414.23,-192.04 429.66,-167.54 445.26,-150.1"/>
<polygon fill="midnightblue" stroke="midnightblue" points="447.99,-152.3 452.33,-142.64 442.91,-147.49 447.99,-152.3"/>
</g>
<!-- Node35 -->
<g id="node35" class="node">
<title>Node35</title>
<g id="a_node35"><a xlink:href="executor__pools__interface_8hpp.html" target="_top" xlink:title=" ">
<polygon fill="white" stroke="black" points="823.51,-179.5 823.51,-209.5 986.51,-209.5 986.51,-179.5 823.51,-179.5"/>
<text text-anchor="start" x="831.51" y="-197.5" font-family="Helvetica,sans-Serif" font-size="10.00">cppuddle/executor_recycling</text>
<text text-anchor="middle" x="905.01" y="-186.5" font-family="Helvetica,sans-Serif" font-size="10.00">/executor_pools_interface.hpp</text>
</a>
</g>
</g>
<!-- Node3&#45;&gt;Node35 -->
<g id="edge44" class="edge">
<title>Node3&#45;&gt;Node35</title>
<path fill="none" stroke="midnightblue" d="M766.96,-246.46C795.3,-235.99 829.93,-223.21 857.41,-213.07"/>
<polygon fill="midnightblue" stroke="midnightblue" points="858.64,-216.34 866.81,-209.6 856.22,-209.78 858.64,-216.34"/>
</g>
<!-- Node30&#45;&gt;Node12 -->
<g id="edge30" class="edge">
<title>Node30&#45;&gt;Node12</title>
<path fill="none" stroke="midnightblue" d="M1110.54,-56.44C1129.63,-47.64 1159.58,-33.81 1181.44,-23.72"/>
<polygon fill="midnightblue" stroke="midnightblue" points="1182.94,-26.88 1190.55,-19.52 1180.01,-20.53 1182.94,-26.88"/>
</g>
<!-- Node31&#45;&gt;Node4 -->
<g id="edge40" class="edge">
<title>Node31&#45;&gt;Node4</title>
<path fill="none" stroke="midnightblue" d="M382.79,-114.71C291.74,-102.11 151.04,-82.64 80.87,-72.93"/>
<polygon fill="midnightblue" stroke="midnightblue" points="81.02,-69.42 70.63,-71.51 80.06,-76.35 81.02,-69.42"/>
</g>
<!-- Node31&#45;&gt;Node7 -->
<g id="edge32" class="edge">
<title>Node31&#45;&gt;Node7</title>
<path fill="none" stroke="midnightblue" d="M382.81,-113.1C329.2,-104.24 258.38,-91.73 187.24,-76.14"/>
<polygon fill="midnightblue" stroke="midnightblue" points="187.72,-72.66 177.2,-73.91 186.21,-79.49 187.72,-72.66"/>
</g>
<!-- Node31&#45;&gt;Node10 -->
<g id="edge35" class="edge">
<title>Node31&#45;&gt;Node10</title>
<path fill="none" stroke="midnightblue" d="M553.19,-114.1C612.97,-105.04 694.97,-91.91 775.94,-76.11"/>
<polygon fill="midnightblue" stroke="midnightblue" points="776.68,-79.53 785.81,-74.17 775.33,-72.67 776.68,-79.53"/>
</g>
<!-- Node31&#45;&gt;Node11 -->
<g id="edge37" class="edge">
<title>Node31&#45;&gt;Node11</title>
<path fill="none" stroke="midnightblue" d="M494.78,-112.4C513.07,-102.77 537.15,-90.09 555.22,-80.58"/>
<polygon fill="midnightblue" stroke="midnightblue" points="557.35,-83.41 564.56,-75.66 554.08,-77.22 557.35,-83.41"/>
</g>
<!-- Node31&#45;&gt;Node12 -->
<g id="edge38" class="edge">
<title>Node31&#45;&gt;Node12</title>
<path fill="none" stroke="midnightblue" d="M468.61,-112.48C470.14,-96.02 475.38,-69.3 493.01,-56 547.82,-14.64 1039.52,-11.14 1174.73,-10.97"/>
<polygon fill="midnightblue" stroke="midnightblue" points="1174.92,-14.47 1184.92,-10.96 1174.91,-7.47 1174.92,-14.47"/>
</g>
<!-- Node31&#45;&gt;Node13 -->
<g id="edge39" class="edge">
<title>Node31&#45;&gt;Node13</title>
<path fill="none" stroke="midnightblue" d="M410.17,-112.47C370.72,-102.89 317,-89.85 261.02,-76.25"/>
<polygon fill="midnightblue" stroke="midnightblue" points="261.83,-72.84 251.29,-73.88 260.18,-79.64 261.83,-72.84"/>
</g>
<!-- Node31&#45;&gt;Node17 -->
<g id="edge41" class="edge">
<title>Node31&#45;&gt;Node17</title>
<path fill="none" stroke="midnightblue" d="M514.22,-112.4C548.06,-102.07 593.43,-88.23 625.13,-78.56"/>
<polygon fill="midnightblue" stroke="midnightblue" points="626.37,-81.84 634.92,-75.57 624.33,-75.14 626.37,-81.84"/>
</g>
<!-- Node31&#45;&gt;Node20 -->
<g id="edge42" class="edge">
<title>Node31&#45;&gt;Node20</title>
<path fill="none" stroke="midnightblue" d="M431.98,-112.4C406.37,-102.37 372.28,-89.03 347.7,-79.4"/>
<polygon fill="midnightblue" stroke="midnightblue" points="348.71,-76.04 338.12,-75.66 346.16,-82.56 348.71,-76.04"/>
</g>
<!-- Node31&#45;&gt;Node30 -->
<g id="edge43" class="edge">
<title>Node31&#45;&gt;Node30</title>
<path fill="none" stroke="midnightblue" d="M553.27,-118.63C656.69,-109.04 836.66,-92.23 1001.61,-76.13"/>
<polygon fill="midnightblue" stroke="midnightblue" points="1002.34,-79.58 1011.95,-75.12 1001.66,-72.61 1002.34,-79.58"/>
</g>
<!-- Node32 -->
<g id="node32" class="node">
<title>Node32</title>
<g id="a_node32"><a xlink:title=" ">
<polygon fill="white" stroke="#bfbfbf" points="716.01,-56.5 716.01,-75.5 768.01,-75.5 768.01,-56.5 716.01,-56.5"/>
<text text-anchor="middle" x="742.01" y="-63.5" font-family="Helvetica,sans-Serif" font-size="10.00">cassert</text>
</a>
</g>
</g>
<!-- Node31&#45;&gt;Node32 -->
<g id="edge33" class="edge">
<title>Node31&#45;&gt;Node32</title>
<path fill="none" stroke="midnightblue" d="M537.41,-112.46C582.54,-103.17 642.91,-90.44 705.61,-76.02"/>
<polygon fill="midnightblue" stroke="midnightblue" points="706.73,-79.36 715.69,-73.7 705.15,-72.54 706.73,-79.36"/>
</g>
<!-- Node33 -->
<g id="node33" class="node">
<title>Node33</title>
<g id="a_node33"><a xlink:title=" ">
<polygon fill="white" stroke="#bfbfbf" points="380.51,-56.5 380.51,-75.5 445.51,-75.5 445.51,-56.5 380.51,-56.5"/>
<text text-anchor="middle" x="413.01" y="-63.5" font-family="Helvetica,sans-Serif" font-size="10.00">functional</text>
</a>
</g>
</g>
<!-- Node31&#45;&gt;Node33 -->
<g id="edge34" class="edge">
<title>Node31&#45;&gt;Node33</title>
<path fill="none" stroke="midnightblue" d="M454.97,-112.4C446.81,-103.58 436.28,-92.18 427.81,-83.02"/>
<polygon fill="midnightblue" stroke="midnightblue" points="430.37,-80.63 421.01,-75.66 425.23,-85.38 430.37,-80.63"/>
</g>
<!-- Node34 -->
<g id="node34" class="node">
<title>Node34</title>
<g id="a_node34"><a xlink:title=" ">
<polygon fill="white" stroke="#bfbfbf" points="502.01,-56.5 502.01,-75.5 534.01,-75.5 534.01,-56.5 502.01,-56.5"/>
<text text-anchor="middle" x="518.01" y="-63.5" font-family="Helvetica,sans-Serif" font-size="10.00">list</text>
</a>
</g>
</g>
<!-- Node31&#45;&gt;Node34 -->
<g id="edge36" class="edge">
<title>Node31&#45;&gt;Node34</title>
<path fill="none" stroke="midnightblue" d="M479.85,-112.4C487.12,-103.75 496.46,-92.64 504.08,-83.58"/>
<polygon fill="midnightblue" stroke="midnightblue" points="506.98,-85.57 510.73,-75.66 501.62,-81.06 506.98,-85.57"/>
</g>
<!-- Node36 -->
<g id="node36" class="node">
<title>Node36</title>
<g id="a_node36"><a xlink:href="executor__pools__management_8hpp.html" target="_top" xlink:title=" ">
<polygon fill="white" stroke="black" points="825.51,-112.5 825.51,-142.5 1040.51,-142.5 1040.51,-112.5 825.51,-112.5"/>
<text text-anchor="start" x="833.51" y="-130.5" font-family="Helvetica,sans-Serif" font-size="10.00">cppuddle/executor_recycling</text>
<text text-anchor="middle" x="933.01" y="-119.5" font-family="Helvetica,sans-Serif" font-size="10.00">/detail/executor_pools_management.hpp</text>
</a>
</g>
</g>
<!-- Node35&#45;&gt;Node36 -->
<g id="edge45" class="edge">
<title>Node35&#45;&gt;Node36</title>
<path fill="none" stroke="midnightblue" d="M911.08,-179.4C914.53,-171.39 918.94,-161.16 922.89,-151.98"/>
<polygon fill="midnightblue" stroke="midnightblue" points="926.2,-153.15 926.94,-142.58 919.77,-150.38 926.2,-153.15"/>
</g>
<!-- Node36&#45;&gt;Node10 -->
<g id="edge50" class="edge">
<title>Node36&#45;&gt;Node10</title>
<path fill="none" stroke="midnightblue" d="M905.28,-112.4C886.17,-102.68 860.95,-89.86 842.19,-80.31"/>
<polygon fill="midnightblue" stroke="midnightblue" points="843.53,-77.07 833.03,-75.66 840.36,-83.31 843.53,-77.07"/>
</g>
<!-- Node36&#45;&gt;Node11 -->
<g id="edge51" class="edge">
<title>Node36&#45;&gt;Node11</title>
<path fill="none" stroke="midnightblue" d="M834.03,-112.48C774.59,-103.61 697.27,-91.28 620.29,-76.15"/>
<polygon fill="midnightblue" stroke="midnightblue" points="620.91,-72.7 610.42,-74.19 619.55,-79.57 620.91,-72.7"/>
</g>
<!-- Node36&#45;&gt;Node12 -->
<g id="edge52" class="edge">
<title>Node36&#45;&gt;Node12</title>
<path fill="none" stroke="midnightblue" d="M1040.67,-119.12C1144.86,-110.85 1289.57,-95.95 1307.01,-76 1329.73,-50.01 1279.67,-29.99 1243.07,-19.4"/>
<polygon fill="midnightblue" stroke="midnightblue" points="1243.75,-15.95 1233.17,-16.66 1241.88,-22.7 1243.75,-15.95"/>
</g>
<!-- Node36&#45;&gt;Node16 -->
<g id="edge54" class="edge">
<title>Node36&#45;&gt;Node16</title>
<path fill="none" stroke="midnightblue" d="M1040.68,-119.29C1243.53,-105.72 1672.57,-77 1791.1,-69.07"/>
<polygon fill="midnightblue" stroke="midnightblue" points="1791.53,-72.55 1801.28,-68.39 1791.07,-65.56 1791.53,-72.55"/>
</g>
<!-- Node36&#45;&gt;Node17 -->
<g id="edge55" class="edge">
<title>Node36&#45;&gt;Node17</title>
<path fill="none" stroke="midnightblue" d="M869.36,-112.47C819.61,-101.51 751.7,-86.55 707.61,-76.83"/>
<polygon fill="midnightblue" stroke="midnightblue" points="708.27,-73.39 697.75,-74.66 706.77,-80.23 708.27,-73.39"/>
</g>
<!-- Node36&#45;&gt;Node30 -->
<g id="edge56" class="edge">
<title>Node36&#45;&gt;Node30</title>
<path fill="none" stroke="midnightblue" d="M970.69,-112.4C997.6,-102.33 1033.46,-88.91 1059.2,-79.28"/>
<polygon fill="midnightblue" stroke="midnightblue" points="1060.73,-82.44 1068.87,-75.66 1058.28,-75.88 1060.73,-82.44"/>
</g>
<!-- Node36&#45;&gt;Node32 -->
<g id="edge48" class="edge">
<title>Node36&#45;&gt;Node32</title>
<path fill="none" stroke="midnightblue" d="M887.74,-112.4C854.1,-101.92 808.82,-87.81 777.71,-78.12"/>
<polygon fill="midnightblue" stroke="midnightblue" points="778.73,-74.77 768.14,-75.14 776.65,-81.46 778.73,-74.77"/>
</g>
<!-- Node37 -->
<g id="node37" class="node">
<title>Node37</title>
<g id="a_node37"><a xlink:title=" ">
<polygon fill="white" stroke="#bfbfbf" points="930.01,-56.5 930.01,-75.5 994.01,-75.5 994.01,-56.5 930.01,-56.5"/>
<text text-anchor="middle" x="962.01" y="-63.5" font-family="Helvetica,sans-Serif" font-size="10.00">algorithm</text>
</a>
</g>
</g>
<!-- Node36&#45;&gt;Node37 -->
<g id="edge46" class="edge">
<title>Node36&#45;&gt;Node37</title>
<path fill="none" stroke="midnightblue" d="M939.88,-112.4C943.92,-104.11 949.06,-93.55 953.37,-84.71"/>
<polygon fill="midnightblue" stroke="midnightblue" points="956.55,-86.18 957.79,-75.66 950.26,-83.11 956.55,-86.18"/>
</g>
<!-- Node38 -->
<g id="node38" class="node">
<title>Node38</title>
<g id="a_node38"><a xlink:title=" ">
<polygon fill="white" stroke="#bfbfbf" points="1190.01,-56.5 1190.01,-75.5 1232.01,-75.5 1232.01,-56.5 1190.01,-56.5"/>
<text text-anchor="middle" x="1211.01" y="-63.5" font-family="Helvetica,sans-Serif" font-size="10.00">array</text>
</a>
</g>
</g>
<!-- Node36&#45;&gt;Node38 -->
<g id="edge47" class="edge">
<title>Node36&#45;&gt;Node38</title>
<path fill="none" stroke="midnightblue" d="M1011.05,-112.49C1057.6,-103.69 1118.04,-91.5 1179.84,-76.13"/>
<polygon fill="midnightblue" stroke="midnightblue" points="1180.92,-79.46 1189.77,-73.63 1179.21,-72.67 1180.92,-79.46"/>
</g>
<!-- Node39 -->
<g id="node39" class="node">
<title>Node39</title>
<g id="a_node39"><a xlink:title=" ">
<polygon fill="white" stroke="#bfbfbf" points="1250.51,-56.5 1250.51,-75.5 1297.51,-75.5 1297.51,-56.5 1250.51,-56.5"/>
<text text-anchor="middle" x="1274.01" y="-63.5" font-family="Helvetica,sans-Serif" font-size="10.00">deque</text>
</a>
</g>
</g>
<!-- Node36&#45;&gt;Node39 -->
<g id="edge49" class="edge">
<title>Node36&#45;&gt;Node39</title>
<path fill="none" stroke="midnightblue" d="M1035.12,-112.47C1092.75,-103.91 1166.21,-91.93 1240.3,-75.96"/>
<polygon fill="midnightblue" stroke="midnightblue" points="1241.26,-79.33 1250.29,-73.79 1239.77,-72.49 1241.26,-79.33"/>
</g>
<!-- Node40 -->
<g id="node40" class="node">
<title>Node40</title>
<g id="a_node40"><a xlink:title=" ">
<polygon fill="white" stroke="#bfbfbf" points="864.51,-56.5 864.51,-75.5 911.51,-75.5 911.51,-56.5 864.51,-56.5"/>
<text text-anchor="middle" x="888.01" y="-63.5" font-family="Helvetica,sans-Serif" font-size="10.00">queue</text>
</a>
</g>
</g>
<!-- Node36&#45;&gt;Node40 -->
<g id="edge53" class="edge">
<title>Node36&#45;&gt;Node40</title>
<path fill="none" stroke="midnightblue" d="M922.34,-112.4C915.87,-103.84 907.57,-92.87 900.75,-83.86"/>
<polygon fill="midnightblue" stroke="midnightblue" points="903.38,-81.52 894.55,-75.66 897.79,-85.74 903.38,-81.52"/>
</g>
<!-- Node41&#45;&gt;Node3 -->
<g id="edge58" class="edge">
<title>Node41&#45;&gt;Node3</title>
<path fill="none" stroke="midnightblue" d="M754.1,-324.43C747.93,-315.74 740.55,-305.36 733.81,-295.88"/>
<polygon fill="midnightblue" stroke="midnightblue" points="736.51,-293.63 727.86,-287.51 730.8,-297.68 736.51,-293.63"/>
</g>
</g>
</svg>
