<?xml version="1.0" encoding="UTF-8" standalone="no"?>
<!DOCTYPE svg PUBLIC "-//W3C//DTD SVG 1.1//EN"
 "http://www.w3.org/Graphics/SVG/1.1/DTD/svg11.dtd">
<!-- Generated by graphviz version 2.43.0 (0)
 -->
<!-- Title: include/cppuddle/kernel_aggregation/detail/aggregation_executors_and_allocators.hpp Pages: 1 -->
<!--zoomable 291 -->

<svg id="main" version="1.1" xmlns="http://www.w3.org/2000/svg" xmlns:xlink="http://www.w3.org/1999/xlink" xml:space="preserve" onload="init(evt)">
<style type="text/css"><![CDATA[
.node, .edge {opacity: 0.7;}
.node.selected, .edge.selected {opacity: 1;}
.edge:hover path { stroke: red; }
.edge:hover polygon { stroke: red; fill: red; }
]]></style>

<defs>
  <circle id="rim" cx="0" cy="0" r="7"/>
  <circle id="rim2" cx="0" cy="0" r="3.5"/>
  <g id="zoomPlus">
    <use xlink:href="#rim" fill="#404040"><set attributeName="fill" to="#808080" begin="zoomplus.mouseover" end="zoomplus.mouseout"/></use>
    <path d="M-4,0h8M0,-4v8" fill="none" stroke="white" stroke-width="1.5" pointer-events="none"/>
  </g>
  <g id="zoomMin">
    <use xlink:href="#rim" fill="#404040"><set attributeName="fill" to="#808080" begin="zoomminus.mouseover" end="zoomminus.mouseout"/></use>
    <path d="M-4,0h8" fill="none" stroke="white" stroke-width="1.5" pointer-events="none"/>
  </g>
  <g id="arrowUp" transform="translate(30 24)">
    <use xlink:href="#rim"/>
    <path pointer-events="none" fill="none" stroke="white" stroke-width="1.5" d="M0,-3.0v7 M-2.5,-0.5L0,-3.0L2.5,-0.5"/>
  </g>
  <g id="arrowRight" transform="rotate(90) translate(36 -43)">
    <use xlink:href="#rim"/>
    <path pointer-events="none" fill="none" stroke="white" stroke-width="1.5" d="M0,-3.0v7 M-2.5,-0.5L0,-3.0L2.5,-0.5"/>
  </g>
  <g id="arrowDown" transform="rotate(180) translate(-30 -48)">
    <use xlink:href="#rim"/>
    <path pointer-events="none" fill="none" stroke="white" stroke-width="1.5" d="M0,-3.0v7 M-2.5,-0.5L0,-3.0L2.5,-0.5"/>
  </g>
  <g id="arrowLeft" transform="rotate(270) translate(-36 17)">
    <use xlink:href="#rim"/>
    <path pointer-events="none" fill="none" stroke="white" stroke-width="1.5" d="M0,-3.0v7 M-2.5,-0.5L0,-3.0L2.5,-0.5"/>
  </g>
  <g id="resetDef">
    <use xlink:href="#rim2" fill="#404040"><set attributeName="fill" to="#808080" begin="reset.mouseover" end="reset.mouseout"/></use>
  </g>
</defs>
<script type="application/ecmascript">
var viewWidth = 2279;
var viewHeight = 291;
var sectionId = 'dynsection-0';
</script>
<script type="application/ecmascript" xlink:href="svg.min.js"/>
<svg id="graph" class="graph">
<g id="viewport">
<title>include/cppuddle/kernel_aggregation/detail/aggregation_executors_and_allocators.hpp</title>
<!-- Node1 -->
<g id="Node000001" class="node">
<title>Node1</title>
<g id="a_Node000001"><a xlink:title=" ">
<polygon fill="#999999" stroke="#666666" points="800.46,-283 627.46,-283 627.46,-242 800.46,-242 800.46,-283"/>
<text text-anchor="start" x="635.46" y="-271" font-family="Helvetica,sans-Serif" font-size="10.00">include/cppuddle/kernel</text>
<text text-anchor="start" x="635.46" y="-260" font-family="Helvetica,sans-Serif" font-size="10.00">_aggregation/detail/aggregation</text>
<text text-anchor="middle" x="713.96" y="-249" font-family="Helvetica,sans-Serif" font-size="10.00">_executors_and_allocators.hpp</text>
</a>
</g>
</g>
<!-- Node2 -->
<g id="Node000002" class="node">
<title>Node2</title>
<g id="a_Node000002"><a xlink:title=" ">
<polygon fill="#e0e0e0" stroke="#999999" points="68.46,-74 3.46,-74 3.46,-55 68.46,-55 68.46,-74"/>
<text text-anchor="middle" x="35.96" y="-62" font-family="Helvetica,sans-Serif" font-size="10.00">stdexcept</text>
</a>
</g>
</g>
<!-- Node1&#45;&gt;Node2 -->
<g id="edge1_Node000001_Node000002" class="edge">
<title>Node1&#45;&gt;Node2</title>
<g id="a_edge1_Node000001_Node000002"><a xlink:title=" ">
<path fill="none" stroke="#63b8ff" d="M627.19,-261.04C449.13,-259.2 55.72,-250.12 14.96,-206 -16.47,-171.98 9.51,-112.28 25.58,-82.87"/>
<polygon fill="#63b8ff" stroke="#63b8ff" points="28.65,-84.56 30.56,-74.14 22.56,-81.1 28.65,-84.56"/>
</a>
</g>
</g>
<!-- Node3 -->
<g id="Node000003" class="node">
<title>Node3</title>
<g id="a_Node000003"><a xlink:title=" ">
<polygon fill="#e0e0e0" stroke="#999999" points="73.96,-200.5 23.96,-200.5 23.96,-181.5 73.96,-181.5 73.96,-200.5"/>
<text text-anchor="middle" x="48.96" y="-188.5" font-family="Helvetica,sans-Serif" font-size="10.00">stdio.h</text>
</a>
</g>
</g>
<!-- Node1&#45;&gt;Node3 -->
<g id="edge2_Node000001_Node000003" class="edge">
<title>Node1&#45;&gt;Node3</title>
<g id="a_edge2_Node000001_Node000003"><a xlink:title=" ">
<path fill="none" stroke="#63b8ff" d="M627.4,-262.1C504.56,-261.11 273.4,-252.44 82.96,-206 80.79,-205.47 78.58,-204.83 76.38,-204.11"/>
<polygon fill="#63b8ff" stroke="#63b8ff" points="77.56,-200.81 66.97,-200.6 75.12,-207.37 77.56,-200.81"/>
</a>
</g>
</g>
<!-- Node4 -->
<g id="Node000004" class="node">
<title>Node4</title>
<g id="a_Node000004"><a xlink:title=" ">
<polygon fill="#e0e0e0" stroke="#999999" points="127.46,-200.5 92.46,-200.5 92.46,-181.5 127.46,-181.5 127.46,-200.5"/>
<text text-anchor="middle" x="109.96" y="-188.5" font-family="Helvetica,sans-Serif" font-size="10.00">any</text>
</a>
</g>
</g>
<!-- Node1&#45;&gt;Node4 -->
<g id="edge3_Node000001_Node000004" class="edge">
<title>Node1&#45;&gt;Node4</title>
<g id="a_edge3_Node000001_Node000004"><a xlink:title=" ">
<path fill="none" stroke="#63b8ff" d="M627.2,-261.52C513.84,-259.65 309.96,-249.72 141.96,-206 140.06,-205.51 138.14,-204.92 136.22,-204.26"/>
<polygon fill="#63b8ff" stroke="#63b8ff" points="137.46,-200.99 126.87,-200.58 134.9,-207.5 137.46,-200.99"/>
</a>
</g>
</g>
<!-- Node5 -->
<g id="Node000005" class="node">
<title>Node5</title>
<g id="a_Node000005"><a xlink:title=" ">
<polygon fill="#e0e0e0" stroke="#999999" points="176.96,-74 126.96,-74 126.96,-55 176.96,-55 176.96,-74"/>
<text text-anchor="middle" x="151.96" y="-62" font-family="Helvetica,sans-Serif" font-size="10.00">atomic</text>
</a>
</g>
</g>
<!-- Node1&#45;&gt;Node5 -->
<g id="edge4_Node000001_Node000005" class="edge">
<title>Node1&#45;&gt;Node5</title>
<g id="a_edge4_Node000001_Node000005"><a xlink:title=" ">
<path fill="none" stroke="#63b8ff" d="M627.46,-258.27C483.47,-252.08 207.18,-236.36 174.96,-206 141.46,-174.44 144.52,-114.46 148.68,-84.1"/>
<polygon fill="#63b8ff" stroke="#63b8ff" points="152.17,-84.45 150.26,-74.03 145.25,-83.37 152.17,-84.45"/>
</a>
</g>
</g>
<!-- Node6 -->
<g id="Node000006" class="node">
<title>Node6</title>
<g id="a_Node000006"><a xlink:title=" ">
<polygon fill="#e0e0e0" stroke="#999999" points="233.96,-200.5 183.96,-200.5 183.96,-181.5 233.96,-181.5 233.96,-200.5"/>
<text text-anchor="middle" x="208.96" y="-188.5" font-family="Helvetica,sans-Serif" font-size="10.00">chrono</text>
</a>
</g>
</g>
<!-- Node1&#45;&gt;Node6 -->
<g id="edge5_Node000001_Node000006" class="edge">
<title>Node1&#45;&gt;Node6</title>
<g id="a_edge5_Node000001_Node000006"><a xlink:title=" ">
<path fill="none" stroke="#63b8ff" d="M627.14,-258.36C531.63,-253.28 374.26,-240.08 242.96,-206 241.01,-205.49 239.03,-204.9 237.05,-204.25"/>
<polygon fill="#63b8ff" stroke="#63b8ff" points="237.94,-200.85 227.35,-200.64 235.5,-207.41 237.94,-200.85"/>
</a>
</g>
</g>
<!-- Node7 -->
<g id="Node000007" class="node">
<title>Node7</title>
<g id="a_Node000007"><a xlink:title=" ">
<polygon fill="#e0e0e0" stroke="#999999" points="297.96,-200.5 251.96,-200.5 251.96,-181.5 297.96,-181.5 297.96,-200.5"/>
<text text-anchor="middle" x="274.96" y="-188.5" font-family="Helvetica,sans-Serif" font-size="10.00">cstdio</text>
</a>
</g>
</g>
<!-- Node1&#45;&gt;Node7 -->
<g id="edge6_Node000001_Node000007" class="edge">
<title>Node1&#45;&gt;Node7</title>
<g id="a_edge6_Node000001_Node000007"><a xlink:title=" ">
<path fill="none" stroke="#63b8ff" d="M627.4,-255.2C545.25,-247.9 418.8,-233.22 311.96,-206 309.51,-205.38 307,-204.64 304.51,-203.85"/>
<polygon fill="#63b8ff" stroke="#63b8ff" points="305.64,-200.54 295.05,-200.54 303.33,-207.14 305.64,-200.54"/>
</a>
</g>
</g>
<!-- Node8 -->
<g id="Node000008" class="node">
<title>Node8</title>
<g id="a_Node000008"><a xlink:title=" ">
<polygon fill="#e0e0e0" stroke="#999999" points="845.96,-74 785.96,-74 785.96,-55 845.96,-55 845.96,-74"/>
<text text-anchor="middle" x="815.96" y="-62" font-family="Helvetica,sans-Serif" font-size="10.00">iostream</text>
</a>
</g>
</g>
<!-- Node1&#45;&gt;Node8 -->
<g id="edge7_Node000001_Node000008" class="edge">
<title>Node1&#45;&gt;Node8</title>
<g id="a_edge7_Node000001_Node000008"><a xlink:title=" ">
<path fill="none" stroke="#63b8ff" d="M695.59,-241.94C681.52,-224.47 666.2,-198.29 676.96,-176 699.7,-128.87 753.39,-95.66 787,-78.63"/>
<polygon fill="#63b8ff" stroke="#63b8ff" points="788.87,-81.61 796.31,-74.06 785.79,-75.32 788.87,-81.61"/>
</a>
</g>
</g>
<!-- Node9 -->
<g id="Node000009" class="node">
<title>Node9</title>
<g id="a_Node000009"><a xlink:title=" ">
<polygon fill="#e0e0e0" stroke="#999999" points="609.96,-74 551.96,-74 551.96,-55 609.96,-55 609.96,-74"/>
<text text-anchor="middle" x="580.96" y="-62" font-family="Helvetica,sans-Serif" font-size="10.00">memory</text>
</a>
</g>
</g>
<!-- Node1&#45;&gt;Node9 -->
<g id="edge8_Node000001_Node000009" class="edge">
<title>Node1&#45;&gt;Node9</title>
<g id="a_edge8_Node000001_Node000009"><a xlink:title=" ">
<path fill="none" stroke="#63b8ff" d="M627.37,-253.79C563.21,-246.08 483.5,-231.58 462.96,-206 413.03,-143.83 531.18,-173.99 561.96,-140 575.79,-124.73 579.85,-100.78 580.89,-84.18"/>
<polygon fill="#63b8ff" stroke="#63b8ff" points="584.39,-84.16 581.21,-74.05 577.4,-83.94 584.39,-84.16"/>
</a>
</g>
</g>
<!-- Node10 -->
<g id="Node000010" class="node">
<title>Node10</title>
<g id="a_Node000010"><a xlink:title=" ">
<polygon fill="#e0e0e0" stroke="#999999" points="1232.96,-19 1184.96,-19 1184.96,0 1232.96,0 1232.96,-19"/>
<text text-anchor="middle" x="1208.96" y="-7" font-family="Helvetica,sans-Serif" font-size="10.00">mutex</text>
</a>
</g>
</g>
<!-- Node1&#45;&gt;Node10 -->
<g id="edge9_Node000001_Node000010" class="edge">
<title>Node1&#45;&gt;Node10</title>
<g id="a_edge9_Node000001_Node000010"><a xlink:title=" ">
<path fill="none" stroke="#63b8ff" d="M800.65,-261.68C1119.58,-261.93 2211.93,-258.89 2262.96,-206 2285.11,-183.04 2254.26,-122.42 2238.96,-110 2159.91,-45.87 1413.54,-17.3 1243.37,-11.6"/>
<polygon fill="#63b8ff" stroke="#63b8ff" points="1243.34,-8.09 1233.23,-11.26 1243.11,-15.09 1243.34,-8.09"/>
</a>
</g>
</g>
<!-- Node11 -->
<g id="Node000011" class="node">
<title>Node11</title>
<g id="a_Node000011"><a xlink:title=" ">
<polygon fill="#e0e0e0" stroke="#999999" points="250.96,-74 194.96,-74 194.96,-55 250.96,-55 250.96,-74"/>
<text text-anchor="middle" x="222.96" y="-62" font-family="Helvetica,sans-Serif" font-size="10.00">optional</text>
</a>
</g>
</g>
<!-- Node1&#45;&gt;Node11 -->
<g id="edge10_Node000001_Node000011" class="edge">
<title>Node1&#45;&gt;Node11</title>
<g id="a_edge10_Node000001_Node000011"><a xlink:title=" ">
<path fill="none" stroke="#63b8ff" d="M627.24,-260.14C557.62,-256.03 458.95,-243.29 380.96,-206 317.66,-175.74 260.81,-112.34 236.06,-82.16"/>
<polygon fill="#63b8ff" stroke="#63b8ff" points="238.69,-79.85 229.69,-74.26 233.24,-84.24 238.69,-79.85"/>
</a>
</g>
</g>
<!-- Node12 -->
<g id="Node000012" class="node">
<title>Node12</title>
<g id="a_Node000012"><a xlink:title=" ">
<polygon fill="#e0e0e0" stroke="#999999" points="528.46,-200.5 471.46,-200.5 471.46,-181.5 528.46,-181.5 528.46,-200.5"/>
<text text-anchor="middle" x="499.96" y="-188.5" font-family="Helvetica,sans-Serif" font-size="10.00">ostream</text>
</a>
</g>
</g>
<!-- Node1&#45;&gt;Node12 -->
<g id="edge11_Node000001_Node000012" class="edge">
<title>Node1&#45;&gt;Node12</title>
<g id="a_edge11_Node000001_Node000012"><a xlink:title=" ">
<path fill="none" stroke="#63b8ff" d="M649.35,-241.93C615.97,-231.62 574.64,-218.53 537.96,-206 536.11,-205.37 534.22,-204.71 532.31,-204.04"/>
<polygon fill="#63b8ff" stroke="#63b8ff" points="533.4,-200.71 522.8,-200.62 531.03,-207.3 533.4,-200.71"/>
</a>
</g>
</g>
<!-- Node13 -->
<g id="Node000013" class="node">
<title>Node13</title>
<g id="a_Node000013"><a xlink:title=" ">
<polygon fill="#e0e0e0" stroke="#999999" points="590.96,-200.5 546.96,-200.5 546.96,-181.5 590.96,-181.5 590.96,-200.5"/>
<text text-anchor="middle" x="568.96" y="-188.5" font-family="Helvetica,sans-Serif" font-size="10.00">string</text>
</a>
</g>
</g>
<!-- Node1&#45;&gt;Node13 -->
<g id="edge12_Node000001_Node000013" class="edge">
<title>Node1&#45;&gt;Node13</title>
<g id="a_edge12_Node000001_Node000013"><a xlink:title=" ">
<path fill="none" stroke="#63b8ff" d="M673.18,-241.96C648.48,-230.12 617.67,-215.35 595.97,-204.95"/>
<polygon fill="#63b8ff" stroke="#63b8ff" points="597.23,-201.67 586.7,-200.5 594.2,-207.98 597.23,-201.67"/>
</a>
</g>
</g>
<!-- Node14 -->
<g id="Node000014" class="node">
<title>Node14</title>
<g id="a_Node000014"><a xlink:title=" ">
<polygon fill="#e0e0e0" stroke="#999999" points="1842.46,-74 1801.46,-74 1801.46,-55 1842.46,-55 1842.46,-74"/>
<text text-anchor="middle" x="1821.96" y="-62" font-family="Helvetica,sans-Serif" font-size="10.00">tuple</text>
</a>
</g>
</g>
<!-- Node1&#45;&gt;Node14 -->
<g id="edge13_Node000001_Node000014" class="edge">
<title>Node1&#45;&gt;Node14</title>
<g id="a_edge13_Node000001_Node000014"><a xlink:title=" ">
<path fill="none" stroke="#63b8ff" d="M800.71,-261.63C1116.63,-261.69 2189.77,-258.05 2239.96,-206 2356.31,-85.34 1967.92,-68.3 1853.02,-65.89"/>
<polygon fill="#63b8ff" stroke="#63b8ff" points="1852.84,-62.39 1842.78,-65.7 1852.71,-69.39 1852.84,-62.39"/>
</a>
</g>
</g>
<!-- Node15 -->
<g id="Node000015" class="node">
<title>Node15</title>
<g id="a_Node000015"><a xlink:title=" ">
<polygon fill="#e0e0e0" stroke="#999999" points="697.46,-74 628.46,-74 628.46,-55 697.46,-55 697.46,-74"/>
<text text-anchor="middle" x="662.96" y="-62" font-family="Helvetica,sans-Serif" font-size="10.00">type_traits</text>
</a>
</g>
</g>
<!-- Node1&#45;&gt;Node15 -->
<g id="edge14_Node000001_Node000015" class="edge">
<title>Node1&#45;&gt;Node15</title>
<g id="a_edge14_Node000001_Node000015"><a xlink:title=" ">
<path fill="none" stroke="#63b8ff" d="M676.51,-241.76C663.39,-232.76 650.16,-220.77 642.96,-206 624.26,-167.65 634.01,-151.72 642.96,-110 644.93,-100.8 648.96,-91.2 652.88,-83.29"/>
<polygon fill="#63b8ff" stroke="#63b8ff" points="656.05,-84.79 657.64,-74.32 649.86,-81.51 656.05,-84.79"/>
</a>
</g>
</g>
<!-- Node16 -->
<g id="Node000016" class="node">
<title>Node16</title>
<g id="a_Node000016"><a xlink:title=" ">
<polygon fill="#e0e0e0" stroke="#999999" points="742.46,-200.5 685.46,-200.5 685.46,-181.5 742.46,-181.5 742.46,-200.5"/>
<text text-anchor="middle" x="713.96" y="-188.5" font-family="Helvetica,sans-Serif" font-size="10.00">typeinfo</text>
</a>
</g>
</g>
<!-- Node1&#45;&gt;Node16 -->
<g id="edge15_Node000001_Node000016" class="edge">
<title>Node1&#45;&gt;Node16</title>
<g id="a_edge15_Node000001_Node000016"><a xlink:title=" ">
<path fill="none" stroke="#63b8ff" d="M713.96,-241.77C713.96,-232.08 713.96,-220.46 713.96,-210.88"/>
<polygon fill="#63b8ff" stroke="#63b8ff" points="717.46,-210.82 713.96,-200.82 710.46,-210.82 717.46,-210.82"/>
</a>
</g>
</g>
<!-- Node17 -->
<g id="Node000017" class="node">
<title>Node17</title>
<g id="a_Node000017"><a xlink:title=" ">
<polygon fill="#e0e0e0" stroke="#999999" points="805.46,-200.5 760.46,-200.5 760.46,-181.5 805.46,-181.5 805.46,-200.5"/>
<text text-anchor="middle" x="782.96" y="-188.5" font-family="Helvetica,sans-Serif" font-size="10.00">utility</text>
</a>
</g>
</g>
<!-- Node1&#45;&gt;Node17 -->
<g id="edge16_Node000001_Node000017" class="edge">
<title>Node1&#45;&gt;Node17</title>
<g id="a_edge16_Node000001_Node000017"><a xlink:title=" ">
<path fill="none" stroke="#63b8ff" d="M733.54,-241.77C744.11,-231.13 756.98,-218.16 766.94,-208.13"/>
<polygon fill="#63b8ff" stroke="#63b8ff" points="769.64,-210.38 774.2,-200.82 764.67,-205.45 769.64,-210.38"/>
</a>
</g>
</g>
<!-- Node18 -->
<g id="Node000018" class="node">
<title>Node18</title>
<g id="a_Node000018"><a xlink:title=" ">
<polygon fill="#e0e0e0" stroke="#999999" points="362.46,-74 269.46,-74 269.46,-55 362.46,-55 362.46,-74"/>
<text text-anchor="middle" x="315.96" y="-62" font-family="Helvetica,sans-Serif" font-size="10.00">unordered_map</text>
</a>
</g>
</g>
<!-- Node1&#45;&gt;Node18 -->
<g id="edge17_Node000001_Node000018" class="edge">
<title>Node1&#45;&gt;Node18</title>
<g id="a_edge17_Node000001_Node000018"><a xlink:title=" ">
<path fill="none" stroke="#63b8ff" d="M627.31,-252.32C553.09,-243.18 452.97,-227.42 418.96,-206 370.88,-175.72 337.9,-114.23 323.75,-83.63"/>
<polygon fill="#63b8ff" stroke="#63b8ff" points="326.81,-81.9 319.53,-74.2 320.42,-84.76 326.81,-81.9"/>
</a>
</g>
</g>
<!-- Node19 -->
<g id="Node000019" class="node">
<title>Node19</title>
<g id="a_Node000019"><a xlink:title=" ">
<polygon fill="#e0e0e0" stroke="#999999" points="1129.46,-200.5 1004.46,-200.5 1004.46,-181.5 1129.46,-181.5 1129.46,-200.5"/>
<text text-anchor="middle" x="1066.96" y="-188.5" font-family="Helvetica,sans-Serif" font-size="10.00">hpx/futures/future.hpp</text>
</a>
</g>
</g>
<!-- Node1&#45;&gt;Node19 -->
<g id="edge18_Node000001_Node000019" class="edge">
<title>Node1&#45;&gt;Node19</title>
<g id="a_edge18_Node000001_Node000019"><a xlink:title=" ">
<path fill="none" stroke="#63b8ff" d="M800.67,-244.44C856.44,-233.47 930.48,-218.9 995.96,-206 1001.72,-204.86 1007.75,-203.68 1013.75,-202.49"/>
<polygon fill="#63b8ff" stroke="#63b8ff" points="1014.64,-205.88 1023.78,-200.52 1013.29,-199.02 1014.64,-205.88"/>
</a>
</g>
</g>
<!-- Node20 -->
<g id="Node000020" class="node">
<title>Node20</title>
<g id="a_Node000020"><a xlink:title=" ">
<polygon fill="#e0e0e0" stroke="#999999" points="1245.96,-200.5 1147.96,-200.5 1147.96,-181.5 1245.96,-181.5 1245.96,-200.5"/>
<text text-anchor="middle" x="1196.96" y="-188.5" font-family="Helvetica,sans-Serif" font-size="10.00">hpx/hpx_init.hpp</text>
</a>
</g>
</g>
<!-- Node1&#45;&gt;Node20 -->
<g id="edge19_Node000001_Node000020" class="edge">
<title>Node1&#45;&gt;Node20</title>
<g id="a_edge19_Node000001_Node000020"><a xlink:title=" ">
<path fill="none" stroke="#63b8ff" d="M800.66,-252.93C886.85,-243.76 1022.63,-227.57 1138.96,-206 1143.98,-205.07 1149.23,-203.97 1154.42,-202.82"/>
<polygon fill="#63b8ff" stroke="#63b8ff" points="1155.31,-206.2 1164.27,-200.54 1153.74,-199.38 1155.31,-206.2"/>
</a>
</g>
</g>
<!-- Node21 -->
<g id="Node000021" class="node">
<title>Node21</title>
<g id="a_Node000021"><a xlink:title=" ">
<polygon fill="#e0e0e0" stroke="#999999" points="1389.46,-200.5 1264.46,-200.5 1264.46,-181.5 1389.46,-181.5 1389.46,-200.5"/>
<text text-anchor="middle" x="1326.96" y="-188.5" font-family="Helvetica,sans-Serif" font-size="10.00">hpx/include/async.hpp</text>
</a>
</g>
</g>
<!-- Node1&#45;&gt;Node21 -->
<g id="edge20_Node000001_Node000021" class="edge">
<title>Node1&#45;&gt;Node21</title>
<g id="a_edge20_Node000001_Node000021"><a xlink:title=" ">
<path fill="none" stroke="#63b8ff" d="M800.46,-255.04C907.52,-246.48 1095.25,-229.67 1254.96,-206 1261.81,-204.98 1269.01,-203.77 1276.09,-202.48"/>
<polygon fill="#63b8ff" stroke="#63b8ff" points="1277.14,-205.84 1286.32,-200.56 1275.85,-198.96 1277.14,-205.84"/>
</a>
</g>
</g>
<!-- Node22 -->
<g id="Node000022" class="node">
<title>Node22</title>
<g id="a_Node000022"><a xlink:title=" ">
<polygon fill="#e0e0e0" stroke="#999999" points="1553.96,-200.5 1407.96,-200.5 1407.96,-181.5 1553.96,-181.5 1553.96,-200.5"/>
<text text-anchor="middle" x="1480.96" y="-188.5" font-family="Helvetica,sans-Serif" font-size="10.00">hpx/include/iostreams.hpp</text>
</a>
</g>
</g>
<!-- Node1&#45;&gt;Node22 -->
<g id="edge21_Node000001_Node000022" class="edge">
<title>Node1&#45;&gt;Node22</title>
<g id="a_edge21_Node000001_Node000022"><a xlink:title=" ">
<path fill="none" stroke="#63b8ff" d="M800.72,-256.93C930.98,-249.52 1184.68,-232.92 1398.96,-206 1407.4,-204.94 1416.31,-203.62 1425.01,-202.23"/>
<polygon fill="#63b8ff" stroke="#63b8ff" points="1425.79,-205.65 1435.09,-200.57 1424.65,-198.74 1425.79,-205.65"/>
</a>
</g>
</g>
<!-- Node23 -->
<g id="Node000023" class="node">
<title>Node23</title>
<g id="a_Node000023"><a xlink:title=" ">
<polygon fill="#e0e0e0" stroke="#999999" points="1687.96,-200.5 1571.96,-200.5 1571.96,-181.5 1687.96,-181.5 1687.96,-200.5"/>
<text text-anchor="middle" x="1629.96" y="-188.5" font-family="Helvetica,sans-Serif" font-size="10.00">hpx/include/lcos.hpp</text>
</a>
</g>
</g>
<!-- Node1&#45;&gt;Node23 -->
<g id="edge22_Node000001_Node000023" class="edge">
<title>Node1&#45;&gt;Node23</title>
<g id="a_edge22_Node000001_Node000023"><a xlink:title=" ">
<path fill="none" stroke="#63b8ff" d="M800.53,-259.86C954.54,-256.04 1285.98,-243.8 1562.96,-206 1569.68,-205.08 1576.74,-203.88 1583.65,-202.56"/>
<polygon fill="#63b8ff" stroke="#63b8ff" points="1584.49,-205.96 1593.61,-200.57 1583.11,-199.1 1584.49,-205.96"/>
</a>
</g>
</g>
<!-- Node24 -->
<g id="Node000024" class="node">
<title>Node24</title>
<g id="a_Node000024"><a xlink:title=" ">
<polygon fill="#e0e0e0" stroke="#999999" points="1827.46,-200.5 1706.46,-200.5 1706.46,-181.5 1827.46,-181.5 1827.46,-200.5"/>
<text text-anchor="middle" x="1766.96" y="-188.5" font-family="Helvetica,sans-Serif" font-size="10.00">hpx/lcos/promise.hpp</text>
</a>
</g>
</g>
<!-- Node1&#45;&gt;Node24 -->
<g id="edge23_Node000001_Node000024" class="edge">
<title>Node1&#45;&gt;Node24</title>
<g id="a_edge23_Node000001_Node000024"><a xlink:title=" ">
<path fill="none" stroke="#63b8ff" d="M800.79,-260.7C972.6,-258.21 1367.8,-247.99 1696.96,-206 1704.23,-205.07 1711.87,-203.83 1719.33,-202.46"/>
<polygon fill="#63b8ff" stroke="#63b8ff" points="1720.18,-205.86 1729.34,-200.54 1718.85,-198.99 1720.18,-205.86"/>
</a>
</g>
</g>
<!-- Node25 -->
<g id="Node000025" class="node">
<title>Node25</title>
<g id="a_Node000025"><a xlink:title=" ">
<polygon fill="#e0e0e0" stroke="#999999" points="1935.96,-200.5 1845.96,-200.5 1845.96,-181.5 1935.96,-181.5 1935.96,-200.5"/>
<text text-anchor="middle" x="1890.96" y="-188.5" font-family="Helvetica,sans-Serif" font-size="10.00">hpx/mutex.hpp</text>
</a>
</g>
</g>
<!-- Node1&#45;&gt;Node25 -->
<g id="edge24_Node000001_Node000025" class="edge">
<title>Node1&#45;&gt;Node25</title>
<g id="a_edge24_Node000001_Node000025"><a xlink:title=" ">
<path fill="none" stroke="#63b8ff" d="M800.51,-259.51C1027.73,-253.92 1637.48,-236.46 1836.96,-206 1842.09,-205.22 1847.44,-204.15 1852.7,-202.94"/>
<polygon fill="#63b8ff" stroke="#63b8ff" points="1853.72,-206.3 1862.6,-200.51 1852.05,-199.5 1853.72,-206.3"/>
</a>
</g>
</g>
<!-- Node26 -->
<g id="Node000026" class="node">
<title>Node26</title>
<g id="a_Node000026"><a xlink:title=" ">
<polygon fill="#e0e0e0" stroke="#999999" points="2093.96,-200.5 1953.96,-200.5 1953.96,-181.5 2093.96,-181.5 2093.96,-200.5"/>
<text text-anchor="middle" x="2023.96" y="-188.5" font-family="Helvetica,sans-Serif" font-size="10.00">boost/core/demangle.hpp</text>
</a>
</g>
</g>
<!-- Node1&#45;&gt;Node26 -->
<g id="edge25_Node000001_Node000026" class="edge">
<title>Node1&#45;&gt;Node26</title>
<g id="a_edge25_Node000001_Node000026"><a xlink:title=" ">
<path fill="none" stroke="#63b8ff" d="M800.82,-261.47C1002.44,-260.54 1517.56,-253.3 1944.96,-206 1953.71,-205.03 1962.95,-203.69 1971.92,-202.21"/>
<polygon fill="#63b8ff" stroke="#63b8ff" points="1972.61,-205.65 1981.87,-200.51 1971.43,-198.75 1972.61,-205.65"/>
</a>
</g>
</g>
<!-- Node27 -->
<g id="Node000027" class="node">
<title>Node27</title>
<g id="a_Node000027"><a xlink:title=" ">
<polygon fill="#e0e0e0" stroke="#999999" points="2213.46,-200.5 2112.46,-200.5 2112.46,-181.5 2213.46,-181.5 2213.46,-200.5"/>
<text text-anchor="middle" x="2162.96" y="-188.5" font-family="Helvetica,sans-Serif" font-size="10.00">boost/format.hpp</text>
</a>
</g>
</g>
<!-- Node1&#45;&gt;Node27 -->
<g id="edge26_Node000001_Node000027" class="edge">
<title>Node1&#45;&gt;Node27</title>
<g id="a_edge26_Node000001_Node000027"><a xlink:title=" ">
<path fill="none" stroke="#63b8ff" d="M800.48,-260.19C1063.25,-255.86 1849.45,-240.33 2102.96,-206 2108.93,-205.19 2115.19,-204.06 2121.3,-202.79"/>
<polygon fill="#63b8ff" stroke="#63b8ff" points="2122.4,-206.13 2131.4,-200.54 2120.88,-199.29 2122.4,-206.13"/>
</a>
</g>
</g>
<!-- Node28 -->
<g id="Node000028" class="node">
<title>Node28</title>
<g id="a_Node000028"><a xlink:href="config_8hpp.html" target="_top" xlink:title=" ">
<polygon fill="white" stroke="#666666" points="1171.96,-74 1011.96,-74 1011.96,-55 1171.96,-55 1171.96,-74"/>
<text text-anchor="middle" x="1091.96" y="-62" font-family="Helvetica,sans-Serif" font-size="10.00">cppuddle/common/config.hpp</text>
</a>
</g>
</g>
<!-- Node1&#45;&gt;Node28 -->
<g id="edge27_Node000001_Node000028" class="edge">
<title>Node1&#45;&gt;Node28</title>
<g id="a_edge27_Node000001_Node000028"><a xlink:title=" ">
<path fill="none" stroke="#63b8ff" d="M800.56,-261.59C1113.97,-261.52 2173.38,-257.43 2222.96,-206 2232.21,-196.4 2231.91,-185.88 2222.96,-176 2220.77,-173.59 1450,-99.72 1182.29,-74.13"/>
<polygon fill="#63b8ff" stroke="#63b8ff" points="1182.5,-70.63 1172.21,-73.16 1181.83,-77.6 1182.5,-70.63"/>
</a>
</g>
</g>
<!-- Node29 -->
<g id="Node000029" class="node">
<title>Node29</title>
<g id="a_Node000029"><a xlink:href="buffer__management_8hpp.html" target="_top" xlink:title=" ">
<polygon fill="white" stroke="#666666" points="552.96,-140 382.96,-140 382.96,-110 552.96,-110 552.96,-140"/>
<text text-anchor="start" x="390.96" y="-128" font-family="Helvetica,sans-Serif" font-size="10.00">cppuddle/memory_recycling</text>
<text text-anchor="middle" x="467.96" y="-117" font-family="Helvetica,sans-Serif" font-size="10.00">/detail/buffer_management.hpp</text>
</a>
</g>
</g>
<!-- Node1&#45;&gt;Node29 -->
<g id="edge29_Node000001_Node000029" class="edge">
<title>Node1&#45;&gt;Node29</title>
<g id="a_edge29_Node000001_Node000029"><a xlink:title=" ">
<path fill="none" stroke="#63b8ff" d="M627.12,-256.45C552.72,-250.09 453.76,-236.1 428.96,-206 414.47,-188.42 429.6,-164.56 445.04,-147.48"/>
<polygon fill="#63b8ff" stroke="#63b8ff" points="447.67,-149.8 452.05,-140.16 442.61,-144.96 447.67,-149.8"/>
</a>
</g>
</g>
<!-- Node33 -->
<g id="Node000033" class="node">
<title>Node33</title>
<g id="a_Node000033"><a xlink:href="executor__pools__interface_8hpp.html" target="_top" xlink:title=" ">
<polygon fill="white" stroke="#666666" points="986.46,-206 823.46,-206 823.46,-176 986.46,-176 986.46,-206"/>
<text text-anchor="start" x="831.46" y="-194" font-family="Helvetica,sans-Serif" font-size="10.00">cppuddle/executor_recycling</text>
<text text-anchor="middle" x="904.96" y="-183" font-family="Helvetica,sans-Serif" font-size="10.00">/executor_pools_interface.hpp</text>
</a>
</g>
</g>
<!-- Node1&#45;&gt;Node33 -->
<g id="edge42_Node000001_Node000033" class="edge">
<title>Node1&#45;&gt;Node33</title>
<g id="a_edge42_Node000001_Node000033"><a xlink:title=" ">
<path fill="none" stroke="#63b8ff" d="M767.67,-241.96C795.68,-231.76 829.66,-219.4 856.8,-209.52"/>
<polygon fill="#63b8ff" stroke="#63b8ff" points="858.27,-212.71 866.47,-206 855.88,-206.13 858.27,-212.71"/>
</a>
</g>
</g>
<!-- Node28&#45;&gt;Node10 -->
<g id="edge28_Node000028_Node000010" class="edge">
<title>Node28&#45;&gt;Node10</title>
<g id="a_edge28_Node000028_Node000010"><a xlink:title=" ">
<path fill="none" stroke="#63b8ff" d="M1110.75,-54.98C1129.58,-46.46 1158.78,-33.23 1180.45,-23.41"/>
<polygon fill="#63b8ff" stroke="#63b8ff" points="1182.15,-26.48 1189.82,-19.17 1179.26,-20.11 1182.15,-26.48"/>
</a>
</g>
</g>
<!-- Node29&#45;&gt;Node2 -->
<g id="edge38_Node000029_Node000002" class="edge">
<title>Node29&#45;&gt;Node2</title>
<g id="a_edge38_Node000029_Node000002"><a xlink:title=" ">
<path fill="none" stroke="#63b8ff" d="M382.87,-112.48C291.33,-100.08 149.44,-80.87 78.86,-71.31"/>
<polygon fill="#63b8ff" stroke="#63b8ff" points="78.95,-67.79 68.57,-69.92 78.01,-74.73 78.95,-67.79"/>
</a>
</g>
</g>
<!-- Node29&#45;&gt;Node5 -->
<g id="edge30_Node000029_Node000005" class="edge">
<title>Node29&#45;&gt;Node5</title>
<g id="a_edge30_Node000029_Node000005"><a xlink:title=" ">
<path fill="none" stroke="#63b8ff" d="M382.82,-110.49C329.23,-101.61 258.42,-89.21 187.21,-74.15"/>
<polygon fill="#63b8ff" stroke="#63b8ff" points="187.67,-70.67 177.16,-72.01 186.21,-77.52 187.67,-70.67"/>
</a>
</g>
</g>
<!-- Node29&#45;&gt;Node8 -->
<g id="edge33_Node000029_Node000008" class="edge">
<title>Node29&#45;&gt;Node8</title>
<g id="a_edge33_Node000029_Node000008"><a xlink:title=" ">
<path fill="none" stroke="#63b8ff" d="M553.1,-111.49C612.85,-102.42 694.84,-89.38 775.88,-74.12"/>
<polygon fill="#63b8ff" stroke="#63b8ff" points="776.58,-77.55 785.76,-72.25 775.28,-70.67 776.58,-77.55"/>
</a>
</g>
</g>
<!-- Node29&#45;&gt;Node9 -->
<g id="edge35_Node000029_Node000009" class="edge">
<title>Node29&#45;&gt;Node9</title>
<g id="a_edge35_Node000029_Node000009"><a xlink:title=" ">
<path fill="none" stroke="#63b8ff" d="M495.02,-109.99C513.2,-100.58 537.02,-88.24 554.97,-78.95"/>
<polygon fill="#63b8ff" stroke="#63b8ff" points="557,-81.84 564.27,-74.14 553.78,-75.63 557,-81.84"/>
</a>
</g>
</g>
<!-- Node29&#45;&gt;Node10 -->
<g id="edge36_Node000029_Node000010" class="edge">
<title>Node29&#45;&gt;Node10</title>
<g id="a_edge36_Node000029_Node000010"><a xlink:title=" ">
<path fill="none" stroke="#63b8ff" d="M468.68,-109.98C470.35,-93.84 475.72,-67.9 492.96,-55 547.92,-13.85 1039.51,-10.57 1174.69,-10.46"/>
<polygon fill="#63b8ff" stroke="#63b8ff" points="1174.87,-13.96 1184.87,-10.45 1174.87,-6.96 1174.87,-13.96"/>
</a>
</g>
</g>
<!-- Node29&#45;&gt;Node11 -->
<g id="edge37_Node000029_Node000011" class="edge">
<title>Node29&#45;&gt;Node11</title>
<g id="a_edge37_Node000029_Node000011"><a xlink:title=" ">
<path fill="none" stroke="#63b8ff" d="M409.27,-109.99C363.3,-99.01 300.7,-84.06 261.05,-74.6"/>
<polygon fill="#63b8ff" stroke="#63b8ff" points="261.78,-71.17 251.24,-72.25 260.16,-77.98 261.78,-71.17"/>
</a>
</g>
</g>
<!-- Node29&#45;&gt;Node15 -->
<g id="edge39_Node000029_Node000015" class="edge">
<title>Node29&#45;&gt;Node15</title>
<g id="a_edge39_Node000029_Node000015"><a xlink:title=" ">
<path fill="none" stroke="#63b8ff" d="M514.66,-109.99C548.32,-99.89 593.17,-86.44 624.71,-76.98"/>
<polygon fill="#63b8ff" stroke="#63b8ff" points="625.87,-80.28 634.44,-74.05 623.86,-73.57 625.87,-80.28"/>
</a>
</g>
</g>
<!-- Node29&#45;&gt;Node18 -->
<g id="edge40_Node000029_Node000018" class="edge">
<title>Node29&#45;&gt;Node18</title>
<g id="a_edge40_Node000029_Node000018"><a xlink:title=" ">
<path fill="none" stroke="#63b8ff" d="M431.55,-109.99C406.08,-100.18 372.37,-87.21 347.93,-77.81"/>
<polygon fill="#63b8ff" stroke="#63b8ff" points="348.99,-74.46 338.4,-74.14 346.48,-81 348.99,-74.46"/>
</a>
</g>
</g>
<!-- Node29&#45;&gt;Node28 -->
<g id="edge41_Node000029_Node000028" class="edge">
<title>Node29&#45;&gt;Node28</title>
<g id="a_edge41_Node000029_Node000028"><a xlink:title=" ">
<path fill="none" stroke="#63b8ff" d="M553.21,-116.09C656.62,-106.47 836.57,-89.71 1001.56,-74.13"/>
<polygon fill="#63b8ff" stroke="#63b8ff" points="1002.28,-77.58 1011.9,-73.15 1001.62,-70.61 1002.28,-77.58"/>
</a>
</g>
</g>
<!-- Node30 -->
<g id="Node000030" class="node">
<title>Node30</title>
<g id="a_Node000030"><a xlink:title=" ">
<polygon fill="#e0e0e0" stroke="#999999" points="767.96,-74 715.96,-74 715.96,-55 767.96,-55 767.96,-74"/>
<text text-anchor="middle" x="741.96" y="-62" font-family="Helvetica,sans-Serif" font-size="10.00">cassert</text>
</a>
</g>
</g>
<!-- Node29&#45;&gt;Node30 -->
<g id="edge31_Node000029_Node000030" class="edge">
<title>Node29&#45;&gt;Node30</title>
<g id="a_edge31_Node000029_Node000030"><a xlink:title=" ">
<path fill="none" stroke="#63b8ff" d="M537.89,-109.98C583.19,-100.76 643.69,-88.18 705.65,-74.24"/>
<polygon fill="#63b8ff" stroke="#63b8ff" points="706.62,-77.61 715.6,-72 705.08,-70.78 706.62,-77.61"/>
</a>
</g>
</g>
<!-- Node31 -->
<g id="Node000031" class="node">
<title>Node31</title>
<g id="a_Node000031"><a xlink:title=" ">
<polygon fill="#e0e0e0" stroke="#999999" points="445.46,-74 380.46,-74 380.46,-55 445.46,-55 445.46,-74"/>
<text text-anchor="middle" x="412.96" y="-62" font-family="Helvetica,sans-Serif" font-size="10.00">functional</text>
</a>
</g>
</g>
<!-- Node29&#45;&gt;Node31 -->
<g id="edge32_Node000029_Node000031" class="edge">
<title>Node29&#45;&gt;Node31</title>
<g id="a_edge32_Node000029_Node000031"><a xlink:title=" ">
<path fill="none" stroke="#63b8ff" d="M454.64,-109.84C446.66,-101.35 436.48,-90.52 428.18,-81.69"/>
<polygon fill="#63b8ff" stroke="#63b8ff" points="430.6,-79.15 421.2,-74.27 425.5,-83.95 430.6,-79.15"/>
</a>
</g>
</g>
<!-- Node32 -->
<g id="Node000032" class="node">
<title>Node32</title>
<g id="a_Node000032"><a xlink:title=" ">
<polygon fill="#e0e0e0" stroke="#999999" points="533.96,-74 501.96,-74 501.96,-55 533.96,-55 533.96,-74"/>
<text text-anchor="middle" x="517.96" y="-62" font-family="Helvetica,sans-Serif" font-size="10.00">list</text>
</a>
</g>
</g>
<!-- Node29&#45;&gt;Node32 -->
<g id="edge34_Node000029_Node000032" class="edge">
<title>Node29&#45;&gt;Node32</title>
<g id="a_edge34_Node000029_Node000032"><a xlink:title=" ">
<path fill="none" stroke="#63b8ff" d="M480.06,-109.84C487.24,-101.43 496.38,-90.74 503.89,-81.96"/>
<polygon fill="#63b8ff" stroke="#63b8ff" points="506.63,-84.14 510.46,-74.27 501.31,-79.59 506.63,-84.14"/>
</a>
</g>
</g>
<!-- Node34 -->
<g id="Node000034" class="node">
<title>Node34</title>
<g id="a_Node000034"><a xlink:href="executor__pools__management_8hpp.html" target="_top" xlink:title=" ">
<polygon fill="white" stroke="#666666" points="1040.46,-140 825.46,-140 825.46,-110 1040.46,-110 1040.46,-140"/>
<text text-anchor="start" x="833.46" y="-128" font-family="Helvetica,sans-Serif" font-size="10.00">cppuddle/executor_recycling</text>
<text text-anchor="middle" x="932.96" y="-117" font-family="Helvetica,sans-Serif" font-size="10.00">/detail/executor_pools_management.hpp</text>
</a>
</g>
</g>
<!-- Node33&#45;&gt;Node34 -->
<g id="edge43_Node000033_Node000034" class="edge">
<title>Node33&#45;&gt;Node34</title>
<g id="a_edge43_Node000033_Node000034"><a xlink:title=" ">
<path fill="none" stroke="#63b8ff" d="M911.17,-175.8C914.54,-168.09 918.8,-158.37 922.65,-149.56"/>
<polygon fill="#63b8ff" stroke="#63b8ff" points="925.96,-150.73 926.76,-140.16 919.55,-147.92 925.96,-150.73"/>
</a>
</g>
</g>
<!-- Node34&#45;&gt;Node8 -->
<g id="edge48_Node000034_Node000008" class="edge">
<title>Node34&#45;&gt;Node8</title>
<g id="a_edge48_Node000034_Node000008"><a xlink:title=" ">
<path fill="none" stroke="#63b8ff" d="M904.93,-109.99C885.93,-100.49 860.99,-88.02 842.34,-78.69"/>
<polygon fill="#63b8ff" stroke="#63b8ff" points="843.74,-75.48 833.24,-74.14 840.61,-81.74 843.74,-75.48"/>
</a>
</g>
</g>
<!-- Node34&#45;&gt;Node9 -->
<g id="edge49_Node000034_Node000009" class="edge">
<title>Node34&#45;&gt;Node9</title>
<g id="a_edge49_Node000034_Node000009"><a xlink:title=" ">
<path fill="none" stroke="#63b8ff" d="M836.13,-109.97C776.71,-101.02 698.84,-88.68 620.38,-73.98"/>
<polygon fill="#63b8ff" stroke="#63b8ff" points="620.78,-70.5 610.31,-72.08 619.49,-77.38 620.78,-70.5"/>
</a>
</g>
</g>
<!-- Node34&#45;&gt;Node10 -->
<g id="edge50_Node000034_Node000010" class="edge">
<title>Node34&#45;&gt;Node10</title>
<g id="a_edge50_Node000034_Node000010"><a xlink:title=" ">
<path fill="none" stroke="#63b8ff" d="M1040.62,-116.76C1144.8,-108.64 1289.51,-93.93 1306.96,-74 1329.53,-48.2 1279.52,-28.78 1242.97,-18.57"/>
<polygon fill="#63b8ff" stroke="#63b8ff" points="1243.65,-15.13 1233.09,-15.93 1241.85,-21.89 1243.65,-15.13"/>
</a>
</g>
</g>
<!-- Node34&#45;&gt;Node14 -->
<g id="edge52_Node000034_Node000014" class="edge">
<title>Node34&#45;&gt;Node14</title>
<g id="a_edge52_Node000034_Node000014"><a xlink:title=" ">
<path fill="none" stroke="#63b8ff" d="M1040.63,-116.91C1243.48,-103.57 1672.52,-75.33 1791.05,-67.53"/>
<polygon fill="#63b8ff" stroke="#63b8ff" points="1791.48,-71.01 1801.23,-66.86 1791.02,-64.03 1791.48,-71.01"/>
</a>
</g>
</g>
<!-- Node34&#45;&gt;Node15 -->
<g id="edge53_Node000034_Node000015" class="edge">
<title>Node34&#45;&gt;Node15</title>
<g id="a_edge53_Node000034_Node000015"><a xlink:title=" ">
<path fill="none" stroke="#63b8ff" d="M868.28,-109.99C818.64,-99.23 751.39,-84.66 707.6,-75.17"/>
<polygon fill="#63b8ff" stroke="#63b8ff" points="708.32,-71.75 697.81,-73.05 706.84,-78.59 708.32,-71.75"/>
</a>
</g>
</g>
<!-- Node34&#45;&gt;Node28 -->
<g id="edge54_Node000034_Node000028" class="edge">
<title>Node34&#45;&gt;Node28</title>
<g id="a_edge54_Node000034_Node000028"><a xlink:title=" ">
<path fill="none" stroke="#63b8ff" d="M971.04,-109.99C997.81,-100.14 1033.26,-87.1 1058.85,-77.68"/>
<polygon fill="#63b8ff" stroke="#63b8ff" points="1060.3,-80.88 1068.48,-74.14 1057.88,-74.31 1060.3,-80.88"/>
</a>
</g>
</g>
<!-- Node34&#45;&gt;Node30 -->
<g id="edge46_Node000034_Node000030" class="edge">
<title>Node34&#45;&gt;Node30</title>
<g id="a_edge46_Node000034_Node000030"><a xlink:title=" ">
<path fill="none" stroke="#63b8ff" d="M887.21,-109.99C853.79,-99.75 809.1,-86.07 778.16,-76.59"/>
<polygon fill="#63b8ff" stroke="#63b8ff" points="778.82,-73.13 768.23,-73.55 776.77,-79.82 778.82,-73.13"/>
</a>
</g>
</g>
<!-- Node35 -->
<g id="Node000035" class="node">
<title>Node35</title>
<g id="a_Node000035"><a xlink:title=" ">
<polygon fill="#e0e0e0" stroke="#999999" points="993.96,-74 929.96,-74 929.96,-55 993.96,-55 993.96,-74"/>
<text text-anchor="middle" x="961.96" y="-62" font-family="Helvetica,sans-Serif" font-size="10.00">algorithm</text>
</a>
</g>
</g>
<!-- Node34&#45;&gt;Node35 -->
<g id="edge44_Node000034_Node000035" class="edge">
<title>Node34&#45;&gt;Node35</title>
<g id="a_edge44_Node000034_Node000035"><a xlink:title=" ">
<path fill="none" stroke="#63b8ff" d="M939.98,-109.84C943.93,-101.87 948.9,-91.84 953.12,-83.33"/>
<polygon fill="#63b8ff" stroke="#63b8ff" points="956.31,-84.78 957.61,-74.27 950.03,-81.67 956.31,-84.78"/>
</a>
</g>
</g>
<!-- Node36 -->
<g id="Node000036" class="node">
<title>Node36</title>
<g id="a_Node000036"><a xlink:title=" ">
<polygon fill="#e0e0e0" stroke="#999999" points="1231.96,-74 1189.96,-74 1189.96,-55 1231.96,-55 1231.96,-74"/>
<text text-anchor="middle" x="1210.96" y="-62" font-family="Helvetica,sans-Serif" font-size="10.00">array</text>
</a>
</g>
</g>
<!-- Node34&#45;&gt;Node36 -->
<g id="edge45_Node000034_Node000036" class="edge">
<title>Node34&#45;&gt;Node36</title>
<g id="a_edge45_Node000034_Node000036"><a xlink:title=" ">
<path fill="none" stroke="#63b8ff" d="M1010.37,-109.98C1056.97,-101.17 1117.65,-89.05 1179.73,-74.15"/>
<polygon fill="#63b8ff" stroke="#63b8ff" points="1180.81,-77.49 1189.7,-71.74 1179.16,-70.69 1180.81,-77.49"/>
</a>
</g>
</g>
<!-- Node37 -->
<g id="Node000037" class="node">
<title>Node37</title>
<g id="a_Node000037"><a xlink:title=" ">
<polygon fill="#e0e0e0" stroke="#999999" points="1297.46,-74 1250.46,-74 1250.46,-55 1297.46,-55 1297.46,-74"/>
<text text-anchor="middle" x="1273.96" y="-62" font-family="Helvetica,sans-Serif" font-size="10.00">deque</text>
</a>
</g>
</g>
<!-- Node34&#45;&gt;Node37 -->
<g id="edge47_Node000034_Node000037" class="edge">
<title>Node34&#45;&gt;Node37</title>
<g id="a_edge47_Node000034_Node000037"><a xlink:title=" ">
<path fill="none" stroke="#63b8ff" d="M1033.95,-109.98C1091.69,-101.4 1165.62,-89.46 1240.18,-73.99"/>
<polygon fill="#63b8ff" stroke="#63b8ff" points="1241.15,-77.37 1250.22,-71.89 1239.72,-70.51 1241.15,-77.37"/>
</a>
</g>
</g>
<!-- Node38 -->
<g id="Node000038" class="node">
<title>Node38</title>
<g id="a_Node000038"><a xlink:title=" ">
<polygon fill="#e0e0e0" stroke="#999999" points="911.46,-74 864.46,-74 864.46,-55 911.46,-55 911.46,-74"/>
<text text-anchor="middle" x="887.96" y="-62" font-family="Helvetica,sans-Serif" font-size="10.00">queue</text>
</a>
</g>
</g>
<!-- Node34&#45;&gt;Node38 -->
<g id="edge51_Node000034_Node000038" class="edge">
<title>Node34&#45;&gt;Node38</title>
<g id="a_edge51_Node000034_Node000038"><a xlink:title=" ">
<path fill="none" stroke="#63b8ff" d="M922.06,-109.84C915.66,-101.52 907.54,-90.96 900.83,-82.23"/>
<polygon fill="#63b8ff" stroke="#63b8ff" points="903.57,-80.06 894.7,-74.27 898.02,-84.33 903.57,-80.06"/>
</a>
</g>
</g>
</g>
</svg>

<g id="navigator" transform="translate(0 0)" fill="#404254">
  <rect fill="#f2f5e9" fill-opacity="0.5" stroke="#606060" stroke-width=".5" x="0" y="0" width="60" height="60"/>
  <use id="zoomplus" xlink:href="#zoomPlus" x="17" y="9" onmousedown="handleZoom(evt,'in')"/>
  <use id="zoomminus" xlink:href="#zoomMin" x="42" y="9" onmousedown="handleZoom(evt,'out')"/>
  <use id="reset" xlink:href="#resetDef" x="30" y="36" onmousedown="handleReset()"/>
   <use id="arrowup" xlink:href="#arrowUp" x="0" y="0" onmousedown="handlePan(0,-1)"/>
  <use id="arrowright" xlink:href="#arrowRight" x="0" y="0" onmousedown="handlePan(1,0)"/>
  <use id="arrowdown" xlink:href="#arrowDown" x="0" y="0" onmousedown="handlePan(0,1)"/>
  <use id="arrowleft" xlink:href="#arrowLeft" x="0" y="0" onmousedown="handlePan(-1,0)"/>
</g>
<svg viewBox="0 0 15 15" width="100%" height="30px" preserveAspectRatio="xMaxYMin meet">
 <g id="arrow_out" transform="scale(0.3 0.3)">
  <a xlink:href="aggregation__executors__and__allocators_8hpp__incl_org.svg" target="_base">
   <rect id="button" ry="5" rx="5" y="6" x="6" height="38" width="38"
        fill="#f2f5e9" fill-opacity="0.5" stroke="#606060" stroke-width="1.0"/>
   <path id="arrow"
     d="M 11.500037,31.436501 C 11.940474,20.09759 22.043105,11.32322 32.158766,21.979434 L 37.068811,17.246167 C 37.068811,17.246167 37.088388,32 37.088388,32 L 22.160133,31.978069 C 22.160133,31.978069 26.997745,27.140456 26.997745,27.140456 C 18.528582,18.264221 13.291696,25.230495 11.500037,31.436501 z"
     style="fill:#404040;"/>
  </a>
 </g>
</svg>

<style type='text/css'>
<![CDATA[
[data-mouse-over-selected='false'] { opacity: 0.7; }
[data-mouse-over-selected='true']  { opacity: 1.0; }
]]>
</style>
<script type="application/ecmascript"><![CDATA[
document.addEventListener('DOMContentLoaded', (event) => {
  highlightEdges();
  highlightAdjacentNodes();
});
]]></script>
</svg>
