<?xml version="1.0" encoding="UTF-8" standalone="no"?>
<!DOCTYPE svg PUBLIC "-//W3C//DTD SVG 1.1//EN"
 "http://www.w3.org/Graphics/SVG/1.1/DTD/svg11.dtd">
<!-- Generated by graphviz version 2.43.0 (0)
 -->
<!-- Title: include/cppuddle/kernel_aggregation/detail/aggregation_executors_and_allocators.hpp Pages: 1 -->
<svg width="2284pt" height="296pt"
 viewBox="0.00 0.00 2284.04 296.00" xmlns="http://www.w3.org/2000/svg" xmlns:xlink="http://www.w3.org/1999/xlink">
<g id="graph0" class="graph" transform="scale(1 1) rotate(0) translate(4 292)">
<title>include/cppuddle/kernel_aggregation/detail/aggregation_executors_and_allocators.hpp</title>
<polygon fill="white" stroke="transparent" points="-4,4 -4,-292 2280.04,-292 2280.04,4 -4,4"/>
<!-- Node1 -->
<g id="node1" class="node">
<title>Node1</title>
<g id="a_node1"><a xlink:title=" ">
<polygon fill="#bfbfbf" stroke="black" points="627.76,-246.5 627.76,-287.5 800.76,-287.5 800.76,-246.5 627.76,-246.5"/>
<text text-anchor="start" x="635.76" y="-275.5" font-family="Helvetica,sans-Serif" font-size="10.00">include/cppuddle/kernel</text>
<text text-anchor="start" x="635.76" y="-264.5" font-family="Helvetica,sans-Serif" font-size="10.00">_aggregation/detail/aggregation</text>
<text text-anchor="middle" x="714.26" y="-253.5" font-family="Helvetica,sans-Serif" font-size="10.00">_executors_and_allocators.hpp</text>
</a>
</g>
</g>
<!-- Node2 -->
<g id="node2" class="node">
<title>Node2</title>
<g id="a_node2"><a xlink:title=" ">
<polygon fill="white" stroke="#bfbfbf" points="3.76,-56.5 3.76,-75.5 68.76,-75.5 68.76,-56.5 3.76,-56.5"/>
<text text-anchor="middle" x="36.26" y="-63.5" font-family="Helvetica,sans-Serif" font-size="10.00">stdexcept</text>
</a>
</g>
</g>
<!-- Node1&#45;&gt;Node2 -->
<g id="edge1" class="edge">
<title>Node1&#45;&gt;Node2</title>
<path fill="none" stroke="midnightblue" d="M627.49,-265.48C449.44,-263.51 56.01,-254.14 15.26,-210 -16.69,-175.38 9.53,-114.61 25.77,-84.68"/>
<polygon fill="midnightblue" stroke="midnightblue" points="28.92,-86.22 30.8,-75.79 22.83,-82.77 28.92,-86.22"/>
</g>
<!-- Node3 -->
<g id="node3" class="node">
<title>Node3</title>
<g id="a_node3"><a xlink:title=" ">
<polygon fill="white" stroke="#bfbfbf" points="24.26,-185 24.26,-204 74.26,-204 74.26,-185 24.26,-185"/>
<text text-anchor="middle" x="49.26" y="-192" font-family="Helvetica,sans-Serif" font-size="10.00">stdio.h</text>
</a>
</g>
</g>
<!-- Node1&#45;&gt;Node3 -->
<g id="edge2" class="edge">
<title>Node1&#45;&gt;Node3</title>
<path fill="none" stroke="midnightblue" d="M627.62,-266.84C504.68,-266.13 273.41,-257.71 83.26,-210 80.9,-209.41 78.49,-208.67 76.1,-207.85"/>
<polygon fill="midnightblue" stroke="midnightblue" points="77.13,-204.49 66.55,-204.11 74.58,-211.01 77.13,-204.49"/>
</g>
<!-- Node4 -->
<g id="node4" class="node">
<title>Node4</title>
<g id="a_node4"><a xlink:title=" ">
<polygon fill="white" stroke="#bfbfbf" points="92.76,-185 92.76,-204 127.76,-204 127.76,-185 92.76,-185"/>
<text text-anchor="middle" x="110.26" y="-192" font-family="Helvetica,sans-Serif" font-size="10.00">any</text>
</a>
</g>
</g>
<!-- Node1&#45;&gt;Node4 -->
<g id="edge3" class="edge">
<title>Node1&#45;&gt;Node4</title>
<path fill="none" stroke="midnightblue" d="M627.42,-266.26C513.96,-264.63 309.98,-254.89 142.26,-210 140.11,-209.42 137.92,-208.72 135.74,-207.93"/>
<polygon fill="midnightblue" stroke="midnightblue" points="137.07,-204.69 126.49,-204.09 134.39,-211.15 137.07,-204.69"/>
</g>
<!-- Node5 -->
<g id="node5" class="node">
<title>Node5</title>
<g id="a_node5"><a xlink:title=" ">
<polygon fill="white" stroke="#bfbfbf" points="127.26,-56.5 127.26,-75.5 177.26,-75.5 177.26,-56.5 127.26,-56.5"/>
<text text-anchor="middle" x="152.26" y="-63.5" font-family="Helvetica,sans-Serif" font-size="10.00">atomic</text>
</a>
</g>
</g>
<!-- Node1&#45;&gt;Node5 -->
<g id="edge4" class="edge">
<title>Node1&#45;&gt;Node5</title>
<path fill="none" stroke="midnightblue" d="M627.75,-262.7C483.75,-256.38 207.44,-240.42 175.26,-210 141.24,-177.83 144.55,-116.8 148.87,-85.92"/>
<polygon fill="midnightblue" stroke="midnightblue" points="152.39,-86.1 150.51,-75.68 145.48,-85 152.39,-86.1"/>
</g>
<!-- Node6 -->
<g id="node6" class="node">
<title>Node6</title>
<g id="a_node6"><a xlink:title=" ">
<polygon fill="white" stroke="#bfbfbf" points="184.26,-185 184.26,-204 234.26,-204 234.26,-185 184.26,-185"/>
<text text-anchor="middle" x="209.26" y="-192" font-family="Helvetica,sans-Serif" font-size="10.00">chrono</text>
</a>
</g>
</g>
<!-- Node1&#45;&gt;Node6 -->
<g id="edge5" class="edge">
<title>Node1&#45;&gt;Node6</title>
<path fill="none" stroke="midnightblue" d="M627.36,-263.06C531.78,-258.12 374.35,-244.97 243.26,-210 240.91,-209.37 238.51,-208.61 236.12,-207.77"/>
<polygon fill="midnightblue" stroke="midnightblue" points="237.16,-204.42 226.57,-204.01 234.59,-210.93 237.16,-204.42"/>
</g>
<!-- Node7 -->
<g id="node7" class="node">
<title>Node7</title>
<g id="a_node7"><a xlink:title=" ">
<polygon fill="white" stroke="#bfbfbf" points="252.26,-185 252.26,-204 298.26,-204 298.26,-185 252.26,-185"/>
<text text-anchor="middle" x="275.26" y="-192" font-family="Helvetica,sans-Serif" font-size="10.00">cstdio</text>
</a>
</g>
</g>
<!-- Node1&#45;&gt;Node7 -->
<g id="edge6" class="edge">
<title>Node1&#45;&gt;Node7</title>
<path fill="none" stroke="midnightblue" d="M627.64,-259.85C545.43,-252.63 418.95,-237.92 312.26,-210 309.6,-209.3 306.87,-208.47 304.16,-207.56"/>
<polygon fill="midnightblue" stroke="midnightblue" points="305.16,-204.2 294.57,-204.05 302.75,-210.78 305.16,-204.2"/>
</g>
<!-- Node8 -->
<g id="node8" class="node">
<title>Node8</title>
<g id="a_node8"><a xlink:title=" ">
<polygon fill="white" stroke="#bfbfbf" points="786.26,-56.5 786.26,-75.5 846.26,-75.5 846.26,-56.5 786.26,-56.5"/>
<text text-anchor="middle" x="816.26" y="-63.5" font-family="Helvetica,sans-Serif" font-size="10.00">iostream</text>
</a>
</g>
</g>
<!-- Node1&#45;&gt;Node8 -->
<g id="edge7" class="edge">
<title>Node1&#45;&gt;Node8</title>
<path fill="none" stroke="midnightblue" d="M696.13,-246.43C681.96,-228.65 666.35,-201.8 677.26,-179 700.09,-131.29 754.25,-97.42 787.83,-80.14"/>
<polygon fill="midnightblue" stroke="midnightblue" points="789.73,-83.1 797.12,-75.51 786.61,-76.83 789.73,-83.1"/>
</g>
<!-- Node9 -->
<g id="node9" class="node">
<title>Node9</title>
<g id="a_node9"><a xlink:title=" ">
<polygon fill="white" stroke="#bfbfbf" points="552.26,-56.5 552.26,-75.5 610.26,-75.5 610.26,-56.5 552.26,-56.5"/>
<text text-anchor="middle" x="581.26" y="-63.5" font-family="Helvetica,sans-Serif" font-size="10.00">memory</text>
</a>
</g>
</g>
<!-- Node1&#45;&gt;Node9 -->
<g id="edge8" class="edge">
<title>Node1&#45;&gt;Node9</title>
<path fill="none" stroke="midnightblue" d="M627.66,-258.12C563.5,-250.27 483.79,-235.61 463.26,-210 412.37,-146.5 534.27,-174.06 562.26,-143 576.32,-127.4 580.33,-102.98 581.3,-86.05"/>
<polygon fill="midnightblue" stroke="midnightblue" points="584.81,-85.81 581.58,-75.72 577.81,-85.63 584.81,-85.81"/>
</g>
<!-- Node10 -->
<g id="node10" class="node">
<title>Node10</title>
<g id="a_node10"><a xlink:title=" ">
<polygon fill="white" stroke="#bfbfbf" points="1185.26,-0.5 1185.26,-19.5 1233.26,-19.5 1233.26,-0.5 1185.26,-0.5"/>
<text text-anchor="middle" x="1209.26" y="-7.5" font-family="Helvetica,sans-Serif" font-size="10.00">mutex</text>
</a>
</g>
</g>
<!-- Node1&#45;&gt;Node10 -->
<g id="edge9" class="edge">
<title>Node1&#45;&gt;Node10</title>
<path fill="none" stroke="midnightblue" d="M800.96,-266.16C1120.57,-266.34 2217.06,-263.08 2268.26,-210 2290.63,-186.82 2258.95,-123.99 2244.26,-112 2165,-47.33 1414.88,-18.01 1243.86,-12.13"/>
<polygon fill="midnightblue" stroke="midnightblue" points="1243.78,-8.62 1233.66,-11.78 1243.54,-15.62 1243.78,-8.62"/>
</g>
<!-- Node11 -->
<g id="node11" class="node">
<title>Node11</title>
<g id="a_node11"><a xlink:title=" ">
<polygon fill="white" stroke="#bfbfbf" points="195.26,-56.5 195.26,-75.5 251.26,-75.5 251.26,-56.5 195.26,-56.5"/>
<text text-anchor="middle" x="223.26" y="-63.5" font-family="Helvetica,sans-Serif" font-size="10.00">optional</text>
</a>
</g>
</g>
<!-- Node1&#45;&gt;Node11 -->
<g id="edge10" class="edge">
<title>Node1&#45;&gt;Node11</title>
<path fill="none" stroke="midnightblue" d="M627.45,-264.66C557.78,-260.55 459.09,-247.7 381.26,-210 317.32,-179.02 260.4,-114.05 235.95,-83.52"/>
<polygon fill="midnightblue" stroke="midnightblue" points="238.61,-81.24 229.68,-75.55 233.11,-85.57 238.61,-81.24"/>
</g>
<!-- Node12 -->
<g id="node12" class="node">
<title>Node12</title>
<g id="a_node12"><a xlink:title=" ">
<polygon fill="white" stroke="#bfbfbf" points="471.76,-185 471.76,-204 528.76,-204 528.76,-185 471.76,-185"/>
<text text-anchor="middle" x="500.26" y="-192" font-family="Helvetica,sans-Serif" font-size="10.00">ostream</text>
</a>
</g>
</g>
<!-- Node1&#45;&gt;Node12 -->
<g id="edge11" class="edge">
<title>Node1&#45;&gt;Node12</title>
<path fill="none" stroke="midnightblue" d="M649.61,-246.39C616.21,-236.01 574.89,-222.8 538.26,-210 536.15,-209.26 533.98,-208.48 531.8,-207.69"/>
<polygon fill="midnightblue" stroke="midnightblue" points="532.88,-204.36 522.29,-204.15 530.44,-210.92 532.88,-204.36"/>
</g>
<!-- Node13 -->
<g id="node13" class="node">
<title>Node13</title>
<g id="a_node13"><a xlink:title=" ">
<polygon fill="white" stroke="#bfbfbf" points="547.26,-185 547.26,-204 591.26,-204 591.26,-185 547.26,-185"/>
<text text-anchor="middle" x="569.26" y="-192" font-family="Helvetica,sans-Serif" font-size="10.00">string</text>
</a>
</g>
</g>
<!-- Node1&#45;&gt;Node13 -->
<g id="edge12" class="edge">
<title>Node1&#45;&gt;Node13</title>
<path fill="none" stroke="midnightblue" d="M673.87,-246.36C649.06,-234.29 617.95,-219.17 596.13,-208.56"/>
<polygon fill="midnightblue" stroke="midnightblue" points="597.63,-205.4 587.1,-204.17 594.57,-211.69 597.63,-205.4"/>
</g>
<!-- Node14 -->
<g id="node14" class="node">
<title>Node14</title>
<g id="a_node14"><a xlink:title=" ">
<polygon fill="white" stroke="#bfbfbf" points="1801.76,-56.5 1801.76,-75.5 1842.76,-75.5 1842.76,-56.5 1801.76,-56.5"/>
<text text-anchor="middle" x="1822.26" y="-63.5" font-family="Helvetica,sans-Serif" font-size="10.00">tuple</text>
</a>
</g>
</g>
<!-- Node1&#45;&gt;Node14 -->
<g id="edge13" class="edge">
<title>Node1&#45;&gt;Node14</title>
<path fill="none" stroke="midnightblue" d="M801.03,-266.11C1117.65,-266.11 2194.9,-262.24 2245.26,-210 2363.19,-87.68 1969.12,-69.99 1853.32,-67.43"/>
<polygon fill="midnightblue" stroke="midnightblue" points="1853.07,-63.93 1843.01,-67.23 1852.94,-70.93 1853.07,-63.93"/>
</g>
<!-- Node15 -->
<g id="node15" class="node">
<title>Node15</title>
<g id="a_node15"><a xlink:title=" ">
<polygon fill="white" stroke="#bfbfbf" points="628.76,-56.5 628.76,-75.5 697.76,-75.5 697.76,-56.5 628.76,-56.5"/>
<text text-anchor="middle" x="663.26" y="-63.5" font-family="Helvetica,sans-Serif" font-size="10.00">type_traits</text>
</a>
</g>
</g>
<!-- Node1&#45;&gt;Node15 -->
<g id="edge14" class="edge">
<title>Node1&#45;&gt;Node15</title>
<path fill="none" stroke="midnightblue" d="M677.18,-246.27C663.95,-237.15 650.52,-224.97 643.26,-210 624.26,-170.81 634.22,-154.61 643.26,-112 645.26,-102.59 649.37,-92.76 653.34,-84.7"/>
<polygon fill="midnightblue" stroke="midnightblue" points="656.57,-86.07 658.13,-75.59 650.38,-82.81 656.57,-86.07"/>
</g>
<!-- Node16 -->
<g id="node16" class="node">
<title>Node16</title>
<g id="a_node16"><a xlink:title=" ">
<polygon fill="white" stroke="#bfbfbf" points="685.76,-185 685.76,-204 742.76,-204 742.76,-185 685.76,-185"/>
<text text-anchor="middle" x="714.26" y="-192" font-family="Helvetica,sans-Serif" font-size="10.00">typeinfo</text>
</a>
</g>
</g>
<!-- Node1&#45;&gt;Node16 -->
<g id="edge15" class="edge">
<title>Node1&#45;&gt;Node16</title>
<path fill="none" stroke="midnightblue" d="M714.26,-246.36C714.26,-236.3 714.26,-224.1 714.26,-214.18"/>
<polygon fill="midnightblue" stroke="midnightblue" points="717.76,-214.17 714.26,-204.17 710.76,-214.17 717.76,-214.17"/>
</g>
<!-- Node17 -->
<g id="node17" class="node">
<title>Node17</title>
<g id="a_node17"><a xlink:title=" ">
<polygon fill="white" stroke="#bfbfbf" points="760.76,-185 760.76,-204 805.76,-204 805.76,-185 760.76,-185"/>
<text text-anchor="middle" x="783.26" y="-192" font-family="Helvetica,sans-Serif" font-size="10.00">utility</text>
</a>
</g>
</g>
<!-- Node1&#45;&gt;Node17 -->
<g id="edge16" class="edge">
<title>Node1&#45;&gt;Node17</title>
<path fill="none" stroke="midnightblue" d="M733.48,-246.36C744.29,-235.32 757.6,-221.72 767.74,-211.37"/>
<polygon fill="midnightblue" stroke="midnightblue" points="770.28,-213.77 774.78,-204.17 765.28,-208.87 770.28,-213.77"/>
</g>
<!-- Node18 -->
<g id="node18" class="node">
<title>Node18</title>
<g id="a_node18"><a xlink:title=" ">
<polygon fill="white" stroke="#bfbfbf" points="269.76,-56.5 269.76,-75.5 362.76,-75.5 362.76,-56.5 269.76,-56.5"/>
<text text-anchor="middle" x="316.26" y="-63.5" font-family="Helvetica,sans-Serif" font-size="10.00">unordered_map</text>
</a>
</g>
</g>
<!-- Node1&#45;&gt;Node18 -->
<g id="edge17" class="edge">
<title>Node1&#45;&gt;Node18</title>
<path fill="none" stroke="midnightblue" d="M627.57,-256.73C553.32,-247.5 453.18,-231.6 419.26,-210 370.57,-178.99 337.71,-116.02 323.79,-85.04"/>
<polygon fill="midnightblue" stroke="midnightblue" points="326.99,-83.63 319.8,-75.85 320.57,-86.42 326.99,-83.63"/>
</g>
<!-- Node19 -->
<g id="node19" class="node">
<title>Node19</title>
<g id="a_node19"><a xlink:title=" ">
<polygon fill="white" stroke="#bfbfbf" points="1004.76,-185 1004.76,-204 1129.76,-204 1129.76,-185 1004.76,-185"/>
<text text-anchor="middle" x="1067.26" y="-192" font-family="Helvetica,sans-Serif" font-size="10.00">hpx/futures/future.hpp</text>
</a>
</g>
</g>
<!-- Node1&#45;&gt;Node19 -->
<g id="edge18" class="edge">
<title>Node1&#45;&gt;Node19</title>
<path fill="none" stroke="midnightblue" d="M801,-248.9C856.78,-237.87 930.82,-223.18 996.26,-210 1002.5,-208.74 1009.03,-207.42 1015.52,-206.1"/>
<polygon fill="midnightblue" stroke="midnightblue" points="1016.5,-209.47 1025.6,-204.05 1015.1,-202.61 1016.5,-209.47"/>
</g>
<!-- Node20 -->
<g id="node20" class="node">
<title>Node20</title>
<g id="a_node20"><a xlink:title=" ">
<polygon fill="white" stroke="#bfbfbf" points="1148.26,-185 1148.26,-204 1246.26,-204 1246.26,-185 1148.26,-185"/>
<text text-anchor="middle" x="1197.26" y="-192" font-family="Helvetica,sans-Serif" font-size="10.00">hpx/hpx_init.hpp</text>
</a>
</g>
</g>
<!-- Node1&#45;&gt;Node20 -->
<g id="edge19" class="edge">
<title>Node1&#45;&gt;Node20</title>
<path fill="none" stroke="midnightblue" d="M801.01,-257.5C887.22,-248.36 1023.02,-232.11 1139.26,-210 1144.68,-208.97 1150.35,-207.74 1155.93,-206.44"/>
<polygon fill="midnightblue" stroke="midnightblue" points="1156.9,-209.81 1165.8,-204.06 1155.26,-203 1156.9,-209.81"/>
</g>
<!-- Node21 -->
<g id="node21" class="node">
<title>Node21</title>
<g id="a_node21"><a xlink:title=" ">
<polygon fill="white" stroke="#bfbfbf" points="1264.76,-185 1264.76,-204 1389.76,-204 1389.76,-185 1264.76,-185"/>
<text text-anchor="middle" x="1327.26" y="-192" font-family="Helvetica,sans-Serif" font-size="10.00">hpx/include/async.hpp</text>
</a>
</g>
</g>
<!-- Node1&#45;&gt;Node21 -->
<g id="edge20" class="edge">
<title>Node1&#45;&gt;Node21</title>
<path fill="none" stroke="midnightblue" d="M800.79,-259.61C907.87,-251.11 1095.63,-234.28 1255.26,-210 1262.8,-208.85 1270.75,-207.45 1278.5,-205.98"/>
<polygon fill="midnightblue" stroke="midnightblue" points="1279.38,-209.37 1288.52,-204.01 1278.04,-202.5 1279.38,-209.37"/>
</g>
<!-- Node22 -->
<g id="node22" class="node">
<title>Node22</title>
<g id="a_node22"><a xlink:title=" ">
<polygon fill="white" stroke="#bfbfbf" points="1408.26,-185 1408.26,-204 1554.26,-204 1554.26,-185 1408.26,-185"/>
<text text-anchor="middle" x="1481.26" y="-192" font-family="Helvetica,sans-Serif" font-size="10.00">hpx/include/iostreams.hpp</text>
</a>
</g>
</g>
<!-- Node1&#45;&gt;Node22 -->
<g id="edge21" class="edge">
<title>Node1&#45;&gt;Node22</title>
<path fill="none" stroke="midnightblue" d="M800.77,-261.53C930.98,-254.21 1184.92,-237.65 1399.26,-210 1408.43,-208.82 1418.12,-207.32 1427.51,-205.74"/>
<polygon fill="midnightblue" stroke="midnightblue" points="1428.29,-209.16 1437.55,-204.01 1427.1,-202.26 1428.29,-209.16"/>
</g>
<!-- Node23 -->
<g id="node23" class="node">
<title>Node23</title>
<g id="a_node23"><a xlink:title=" ">
<polygon fill="white" stroke="#bfbfbf" points="1572.26,-185 1572.26,-204 1688.26,-204 1688.26,-185 1572.26,-185"/>
<text text-anchor="middle" x="1630.26" y="-192" font-family="Helvetica,sans-Serif" font-size="10.00">hpx/include/lcos.hpp</text>
</a>
</g>
</g>
<!-- Node1&#45;&gt;Node23 -->
<g id="edge22" class="edge">
<title>Node1&#45;&gt;Node23</title>
<path fill="none" stroke="midnightblue" d="M800.86,-264.49C954.92,-260.87 1286.43,-248.87 1563.26,-210 1570.56,-208.98 1578.24,-207.6 1585.69,-206.1"/>
<polygon fill="midnightblue" stroke="midnightblue" points="1586.6,-209.49 1595.66,-204.01 1585.16,-202.64 1586.6,-209.49"/>
</g>
<!-- Node24 -->
<g id="node24" class="node">
<title>Node24</title>
<g id="a_node24"><a xlink:title=" ">
<polygon fill="white" stroke="#bfbfbf" points="1706.76,-185 1706.76,-204 1827.76,-204 1827.76,-185 1706.76,-185"/>
<text text-anchor="middle" x="1767.26" y="-192" font-family="Helvetica,sans-Serif" font-size="10.00">hpx/lcos/promise.hpp</text>
</a>
</g>
</g>
<!-- Node1&#45;&gt;Node24 -->
<g id="edge23" class="edge">
<title>Node1&#45;&gt;Node24</title>
<path fill="none" stroke="midnightblue" d="M800.79,-265.34C972.47,-263.1 1368.05,-253.24 1697.26,-210 1705.05,-208.98 1713.27,-207.57 1721.22,-206.04"/>
<polygon fill="midnightblue" stroke="midnightblue" points="1721.99,-209.46 1731.11,-204.05 1720.61,-202.59 1721.99,-209.46"/>
</g>
<!-- Node25 -->
<g id="node25" class="node">
<title>Node25</title>
<g id="a_node25"><a xlink:title=" ">
<polygon fill="white" stroke="#bfbfbf" points="1846.26,-185 1846.26,-204 1936.26,-204 1936.26,-185 1846.26,-185"/>
<text text-anchor="middle" x="1891.26" y="-192" font-family="Helvetica,sans-Serif" font-size="10.00">hpx/mutex.hpp</text>
</a>
</g>
</g>
<!-- Node1&#45;&gt;Node25 -->
<g id="edge24" class="edge">
<title>Node1&#45;&gt;Node25</title>
<path fill="none" stroke="midnightblue" d="M800.83,-264.06C1028.09,-258.6 1637.92,-241.37 1837.26,-210 1842.78,-209.13 1848.54,-207.92 1854.16,-206.57"/>
<polygon fill="midnightblue" stroke="midnightblue" points="1855.23,-209.91 1864.04,-204.02 1853.48,-203.13 1855.23,-209.91"/>
</g>
<!-- Node26 -->
<g id="node26" class="node">
<title>Node26</title>
<g id="a_node26"><a xlink:title=" ">
<polygon fill="white" stroke="#bfbfbf" points="1954.26,-185 1954.26,-204 2094.26,-204 2094.26,-185 1954.26,-185"/>
<text text-anchor="middle" x="2024.26" y="-192" font-family="Helvetica,sans-Serif" font-size="10.00">boost/core/demangle.hpp</text>
</a>
</g>
</g>
<!-- Node1&#45;&gt;Node26 -->
<g id="edge25" class="edge">
<title>Node1&#45;&gt;Node26</title>
<path fill="none" stroke="midnightblue" d="M800.77,-266.1C1002.17,-265.46 1517.75,-258.73 1945.26,-210 1954.52,-208.94 1964.33,-207.45 1973.77,-205.82"/>
<polygon fill="midnightblue" stroke="midnightblue" points="1974.6,-209.23 1983.83,-204.02 1973.37,-202.34 1974.6,-209.23"/>
</g>
<!-- Node27 -->
<g id="node27" class="node">
<title>Node27</title>
<g id="a_node27"><a xlink:title=" ">
<polygon fill="white" stroke="#bfbfbf" points="2112.76,-185 2112.76,-204 2213.76,-204 2213.76,-185 2112.76,-185"/>
<text text-anchor="middle" x="2163.26" y="-192" font-family="Helvetica,sans-Serif" font-size="10.00">boost/format.hpp</text>
</a>
</g>
</g>
<!-- Node1&#45;&gt;Node27 -->
<g id="edge26" class="edge">
<title>Node1&#45;&gt;Node27</title>
<path fill="none" stroke="midnightblue" d="M800.8,-264.74C1063.61,-260.56 1849.9,-245.37 2103.26,-210 2109.67,-209.11 2116.4,-207.83 2122.93,-206.39"/>
<polygon fill="midnightblue" stroke="midnightblue" points="2124.02,-209.73 2132.96,-204.05 2122.43,-202.92 2124.02,-209.73"/>
</g>
<!-- Node28 -->
<g id="node28" class="node">
<title>Node28</title>
<g id="a_node28"><a xlink:href="config_8hpp.html" target="_top" xlink:title=" ">
<polygon fill="white" stroke="black" points="1012.26,-56.5 1012.26,-75.5 1172.26,-75.5 1172.26,-56.5 1012.26,-56.5"/>
<text text-anchor="middle" x="1092.26" y="-63.5" font-family="Helvetica,sans-Serif" font-size="10.00">cppuddle/common/config.hpp</text>
</a>
</g>
</g>
<!-- Node1&#45;&gt;Node28 -->
<g id="edge27" class="edge">
<title>Node1&#45;&gt;Node28</title>
<path fill="none" stroke="midnightblue" d="M800.86,-266.07C1114.28,-265.88 2173.7,-261.44 2223.26,-210 2383.04,-44.18 1439.93,-97.7 1182.62,-76.05"/>
<polygon fill="midnightblue" stroke="midnightblue" points="1182.59,-72.53 1172.32,-75.1 1181.96,-79.5 1182.59,-72.53"/>
</g>
<!-- Node29 -->
<g id="node29" class="node">
<title>Node29</title>
<g id="a_node29"><a xlink:href="buffer__management_8hpp.html" target="_top" xlink:title=" ">
<polygon fill="white" stroke="black" points="383.26,-112.5 383.26,-142.5 553.26,-142.5 553.26,-112.5 383.26,-112.5"/>
<text text-anchor="start" x="391.26" y="-130.5" font-family="Helvetica,sans-Serif" font-size="10.00">cppuddle/memory_recycling</text>
<text text-anchor="middle" x="468.26" y="-119.5" font-family="Helvetica,sans-Serif" font-size="10.00">/detail/buffer_management.hpp</text>
</a>
</g>
</g>
<!-- Node1&#45;&gt;Node29 -->
<g id="edge29" class="edge">
<title>Node1&#45;&gt;Node29</title>
<path fill="none" stroke="midnightblue" d="M627.42,-260.79C553.01,-254.3 454.05,-240.13 429.26,-210 414.49,-192.04 429.92,-167.54 445.51,-150.1"/>
<polygon fill="midnightblue" stroke="midnightblue" points="448.25,-152.3 452.59,-142.64 443.17,-147.49 448.25,-152.3"/>
</g>
<!-- Node33 -->
<g id="node33" class="node">
<title>Node33</title>
<g id="a_node33"><a xlink:href="executor__pools__interface_8hpp.html" target="_top" xlink:title=" ">
<polygon fill="white" stroke="black" points="823.76,-179.5 823.76,-209.5 986.76,-209.5 986.76,-179.5 823.76,-179.5"/>
<text text-anchor="start" x="831.76" y="-197.5" font-family="Helvetica,sans-Serif" font-size="10.00">cppuddle/executor_recycling</text>
<text text-anchor="middle" x="905.26" y="-186.5" font-family="Helvetica,sans-Serif" font-size="10.00">/executor_pools_interface.hpp</text>
</a>
</g>
</g>
<!-- Node1&#45;&gt;Node33 -->
<g id="edge42" class="edge">
<title>Node1&#45;&gt;Node33</title>
<path fill="none" stroke="midnightblue" d="M767.21,-246.46C795.56,-235.99 830.19,-223.21 857.67,-213.07"/>
<polygon fill="midnightblue" stroke="midnightblue" points="858.9,-216.34 867.07,-209.6 856.48,-209.78 858.9,-216.34"/>
</g>
<!-- Node28&#45;&gt;Node10 -->
<g id="edge28" class="edge">
<title>Node28&#45;&gt;Node10</title>
<path fill="none" stroke="midnightblue" d="M1110.8,-56.44C1129.89,-47.64 1159.84,-33.81 1181.7,-23.72"/>
<polygon fill="midnightblue" stroke="midnightblue" points="1183.2,-26.88 1190.81,-19.52 1180.27,-20.53 1183.2,-26.88"/>
</g>
<!-- Node29&#45;&gt;Node2 -->
<g id="edge38" class="edge">
<title>Node29&#45;&gt;Node2</title>
<path fill="none" stroke="midnightblue" d="M383.17,-114.78C291.64,-102.17 149.74,-82.63 79.16,-72.91"/>
<polygon fill="midnightblue" stroke="midnightblue" points="79.26,-69.39 68.87,-71.49 78.3,-76.32 79.26,-69.39"/>
</g>
<!-- Node29&#45;&gt;Node5 -->
<g id="edge30" class="edge">
<title>Node29&#45;&gt;Node5</title>
<path fill="none" stroke="midnightblue" d="M383.07,-113.1C329.46,-104.24 258.64,-91.73 187.5,-76.14"/>
<polygon fill="midnightblue" stroke="midnightblue" points="187.98,-72.66 177.46,-73.91 186.47,-79.49 187.98,-72.66"/>
</g>
<!-- Node29&#45;&gt;Node8 -->
<g id="edge33" class="edge">
<title>Node29&#45;&gt;Node8</title>
<path fill="none" stroke="midnightblue" d="M553.45,-114.1C613.23,-105.04 695.23,-91.91 776.2,-76.11"/>
<polygon fill="midnightblue" stroke="midnightblue" points="776.93,-79.53 786.07,-74.17 775.58,-72.67 776.93,-79.53"/>
</g>
<!-- Node29&#45;&gt;Node9 -->
<g id="edge35" class="edge">
<title>Node29&#45;&gt;Node9</title>
<path fill="none" stroke="midnightblue" d="M495.04,-112.4C513.33,-102.77 537.41,-90.09 555.48,-80.58"/>
<polygon fill="midnightblue" stroke="midnightblue" points="557.6,-83.41 564.82,-75.66 554.34,-77.22 557.6,-83.41"/>
</g>
<!-- Node29&#45;&gt;Node10 -->
<g id="edge36" class="edge">
<title>Node29&#45;&gt;Node10</title>
<path fill="none" stroke="midnightblue" d="M468.87,-112.48C470.4,-96.02 475.64,-69.3 493.26,-56 548.08,-14.64 1039.78,-11.14 1174.99,-10.97"/>
<polygon fill="midnightblue" stroke="midnightblue" points="1175.18,-14.47 1185.18,-10.96 1175.17,-7.47 1175.18,-14.47"/>
</g>
<!-- Node29&#45;&gt;Node11 -->
<g id="edge37" class="edge">
<title>Node29&#45;&gt;Node11</title>
<path fill="none" stroke="midnightblue" d="M410.51,-112.47C364.44,-101.29 301.23,-85.93 261.31,-76.24"/>
<polygon fill="midnightblue" stroke="midnightblue" points="261.99,-72.8 251.45,-73.84 260.34,-79.61 261.99,-72.8"/>
</g>
<!-- Node29&#45;&gt;Node15 -->
<g id="edge39" class="edge">
<title>Node29&#45;&gt;Node15</title>
<path fill="none" stroke="midnightblue" d="M514.48,-112.4C548.32,-102.07 593.68,-88.23 625.39,-78.56"/>
<polygon fill="midnightblue" stroke="midnightblue" points="626.63,-81.84 635.17,-75.57 624.59,-75.14 626.63,-81.84"/>
</g>
<!-- Node29&#45;&gt;Node18 -->
<g id="edge40" class="edge">
<title>Node29&#45;&gt;Node18</title>
<path fill="none" stroke="midnightblue" d="M432.24,-112.4C406.63,-102.37 372.54,-89.03 347.95,-79.4"/>
<polygon fill="midnightblue" stroke="midnightblue" points="348.97,-76.04 338.38,-75.66 346.42,-82.56 348.97,-76.04"/>
</g>
<!-- Node29&#45;&gt;Node28 -->
<g id="edge41" class="edge">
<title>Node29&#45;&gt;Node28</title>
<path fill="none" stroke="midnightblue" d="M553.53,-118.63C656.95,-109.04 836.92,-92.23 1001.87,-76.13"/>
<polygon fill="midnightblue" stroke="midnightblue" points="1002.6,-79.58 1012.21,-75.12 1001.92,-72.61 1002.6,-79.58"/>
</g>
<!-- Node30 -->
<g id="node30" class="node">
<title>Node30</title>
<g id="a_node30"><a xlink:title=" ">
<polygon fill="white" stroke="#bfbfbf" points="716.26,-56.5 716.26,-75.5 768.26,-75.5 768.26,-56.5 716.26,-56.5"/>
<text text-anchor="middle" x="742.26" y="-63.5" font-family="Helvetica,sans-Serif" font-size="10.00">cassert</text>
</a>
</g>
</g>
<!-- Node29&#45;&gt;Node30 -->
<g id="edge31" class="edge">
<title>Node29&#45;&gt;Node30</title>
<path fill="none" stroke="midnightblue" d="M538.51,-112.49C583.8,-103.27 644.19,-90.61 705.99,-76.23"/>
<polygon fill="midnightblue" stroke="midnightblue" points="706.98,-79.59 715.92,-73.9 705.39,-72.77 706.98,-79.59"/>
</g>
<!-- Node31 -->
<g id="node31" class="node">
<title>Node31</title>
<g id="a_node31"><a xlink:title=" ">
<polygon fill="white" stroke="#bfbfbf" points="380.76,-56.5 380.76,-75.5 445.76,-75.5 445.76,-56.5 380.76,-56.5"/>
<text text-anchor="middle" x="413.26" y="-63.5" font-family="Helvetica,sans-Serif" font-size="10.00">functional</text>
</a>
</g>
</g>
<!-- Node29&#45;&gt;Node31 -->
<g id="edge32" class="edge">
<title>Node29&#45;&gt;Node31</title>
<path fill="none" stroke="midnightblue" d="M455.23,-112.4C447.07,-103.58 436.54,-92.18 428.07,-83.02"/>
<polygon fill="midnightblue" stroke="midnightblue" points="430.63,-80.63 421.27,-75.66 425.49,-85.38 430.63,-80.63"/>
</g>
<!-- Node32 -->
<g id="node32" class="node">
<title>Node32</title>
<g id="a_node32"><a xlink:title=" ">
<polygon fill="white" stroke="#bfbfbf" points="502.26,-56.5 502.26,-75.5 534.26,-75.5 534.26,-56.5 502.26,-56.5"/>
<text text-anchor="middle" x="518.26" y="-63.5" font-family="Helvetica,sans-Serif" font-size="10.00">list</text>
</a>
</g>
</g>
<!-- Node29&#45;&gt;Node32 -->
<g id="edge34" class="edge">
<title>Node29&#45;&gt;Node32</title>
<path fill="none" stroke="midnightblue" d="M480.11,-112.4C487.38,-103.75 496.72,-92.64 504.33,-83.58"/>
<polygon fill="midnightblue" stroke="midnightblue" points="507.23,-85.57 510.99,-75.66 501.88,-81.06 507.23,-85.57"/>
</g>
<!-- Node34 -->
<g id="node34" class="node">
<title>Node34</title>
<g id="a_node34"><a xlink:href="executor__pools__management_8hpp.html" target="_top" xlink:title=" ">
<polygon fill="white" stroke="black" points="825.76,-112.5 825.76,-142.5 1040.76,-142.5 1040.76,-112.5 825.76,-112.5"/>
<text text-anchor="start" x="833.76" y="-130.5" font-family="Helvetica,sans-Serif" font-size="10.00">cppuddle/executor_recycling</text>
<text text-anchor="middle" x="933.26" y="-119.5" font-family="Helvetica,sans-Serif" font-size="10.00">/detail/executor_pools_management.hpp</text>
</a>
</g>
</g>
<!-- Node33&#45;&gt;Node34 -->
<g id="edge43" class="edge">
<title>Node33&#45;&gt;Node34</title>
<path fill="none" stroke="midnightblue" d="M911.34,-179.4C914.79,-171.39 919.19,-161.16 923.15,-151.98"/>
<polygon fill="midnightblue" stroke="midnightblue" points="926.46,-153.15 927.2,-142.58 920.03,-150.38 926.46,-153.15"/>
</g>
<!-- Node34&#45;&gt;Node8 -->
<g id="edge48" class="edge">
<title>Node34&#45;&gt;Node8</title>
<path fill="none" stroke="midnightblue" d="M905.54,-112.4C886.43,-102.68 861.21,-89.86 842.44,-80.31"/>
<polygon fill="midnightblue" stroke="midnightblue" points="843.79,-77.07 833.29,-75.66 840.62,-83.31 843.79,-77.07"/>
</g>
<!-- Node34&#45;&gt;Node9 -->
<g id="edge49" class="edge">
<title>Node34&#45;&gt;Node9</title>
<path fill="none" stroke="midnightblue" d="M835.68,-112.47C776.32,-103.53 698.77,-91.14 620.63,-75.96"/>
<polygon fill="midnightblue" stroke="midnightblue" points="621.09,-72.48 610.61,-73.99 619.75,-79.35 621.09,-72.48"/>
</g>
<!-- Node34&#45;&gt;Node10 -->
<g id="edge50" class="edge">
<title>Node34&#45;&gt;Node10</title>
<path fill="none" stroke="midnightblue" d="M1040.93,-119.12C1145.12,-110.85 1289.83,-95.95 1307.26,-76 1329.98,-50.01 1279.93,-29.99 1243.33,-19.4"/>
<polygon fill="midnightblue" stroke="midnightblue" points="1244,-15.95 1233.43,-16.66 1242.14,-22.7 1244,-15.95"/>
</g>
<!-- Node34&#45;&gt;Node14 -->
<g id="edge52" class="edge">
<title>Node34&#45;&gt;Node14</title>
<path fill="none" stroke="midnightblue" d="M1040.94,-119.29C1243.79,-105.72 1672.83,-77 1791.36,-69.07"/>
<polygon fill="midnightblue" stroke="midnightblue" points="1791.79,-72.55 1801.54,-68.39 1791.32,-65.56 1791.79,-72.55"/>
</g>
<!-- Node34&#45;&gt;Node15 -->
<g id="edge53" class="edge">
<title>Node34&#45;&gt;Node15</title>
<path fill="none" stroke="midnightblue" d="M869.62,-112.47C819.86,-101.51 751.96,-86.55 707.87,-76.83"/>
<polygon fill="midnightblue" stroke="midnightblue" points="708.53,-73.39 698.01,-74.66 707.03,-80.23 708.53,-73.39"/>
</g>
<!-- Node34&#45;&gt;Node28 -->
<g id="edge54" class="edge">
<title>Node34&#45;&gt;Node28</title>
<path fill="none" stroke="midnightblue" d="M970.95,-112.4C997.86,-102.33 1033.72,-88.91 1059.46,-79.28"/>
<polygon fill="midnightblue" stroke="midnightblue" points="1060.99,-82.44 1069.13,-75.66 1058.54,-75.88 1060.99,-82.44"/>
</g>
<!-- Node34&#45;&gt;Node30 -->
<g id="edge46" class="edge">
<title>Node34&#45;&gt;Node30</title>
<path fill="none" stroke="midnightblue" d="M888,-112.4C854.35,-101.92 809.08,-87.81 777.97,-78.12"/>
<polygon fill="midnightblue" stroke="midnightblue" points="778.99,-74.77 768.4,-75.14 776.91,-81.46 778.99,-74.77"/>
</g>
<!-- Node35 -->
<g id="node35" class="node">
<title>Node35</title>
<g id="a_node35"><a xlink:title=" ">
<polygon fill="white" stroke="#bfbfbf" points="930.26,-56.5 930.26,-75.5 994.26,-75.5 994.26,-56.5 930.26,-56.5"/>
<text text-anchor="middle" x="962.26" y="-63.5" font-family="Helvetica,sans-Serif" font-size="10.00">algorithm</text>
</a>
</g>
</g>
<!-- Node34&#45;&gt;Node35 -->
<g id="edge44" class="edge">
<title>Node34&#45;&gt;Node35</title>
<path fill="none" stroke="midnightblue" d="M940.14,-112.4C944.18,-104.11 949.32,-93.55 953.63,-84.71"/>
<polygon fill="midnightblue" stroke="midnightblue" points="956.81,-86.18 958.04,-75.66 950.52,-83.11 956.81,-86.18"/>
</g>
<!-- Node36 -->
<g id="node36" class="node">
<title>Node36</title>
<g id="a_node36"><a xlink:title=" ">
<polygon fill="white" stroke="#bfbfbf" points="1190.26,-56.5 1190.26,-75.5 1232.26,-75.5 1232.26,-56.5 1190.26,-56.5"/>
<text text-anchor="middle" x="1211.26" y="-63.5" font-family="Helvetica,sans-Serif" font-size="10.00">array</text>
</a>
</g>
</g>
<!-- Node34&#45;&gt;Node36 -->
<g id="edge45" class="edge">
<title>Node34&#45;&gt;Node36</title>
<path fill="none" stroke="midnightblue" d="M1011.31,-112.49C1057.86,-103.69 1118.29,-91.5 1180.1,-76.13"/>
<polygon fill="midnightblue" stroke="midnightblue" points="1181.18,-79.46 1190.03,-73.63 1179.47,-72.67 1181.18,-79.46"/>
</g>
<!-- Node37 -->
<g id="node37" class="node">
<title>Node37</title>
<g id="a_node37"><a xlink:title=" ">
<polygon fill="white" stroke="#bfbfbf" points="1250.76,-56.5 1250.76,-75.5 1297.76,-75.5 1297.76,-56.5 1250.76,-56.5"/>
<text text-anchor="middle" x="1274.26" y="-63.5" font-family="Helvetica,sans-Serif" font-size="10.00">deque</text>
</a>
</g>
</g>
<!-- Node34&#45;&gt;Node37 -->
<g id="edge47" class="edge">
<title>Node34&#45;&gt;Node37</title>
<path fill="none" stroke="midnightblue" d="M1035.38,-112.47C1093,-103.91 1166.47,-91.93 1240.56,-75.96"/>
<polygon fill="midnightblue" stroke="midnightblue" points="1241.52,-79.33 1250.54,-73.79 1240.03,-72.49 1241.52,-79.33"/>
</g>
<!-- Node38 -->
<g id="node38" class="node">
<title>Node38</title>
<g id="a_node38"><a xlink:title=" ">
<polygon fill="white" stroke="#bfbfbf" points="864.76,-56.5 864.76,-75.5 911.76,-75.5 911.76,-56.5 864.76,-56.5"/>
<text text-anchor="middle" x="888.26" y="-63.5" font-family="Helvetica,sans-Serif" font-size="10.00">queue</text>
</a>
</g>
</g>
<!-- Node34&#45;&gt;Node38 -->
<g id="edge51" class="edge">
<title>Node34&#45;&gt;Node38</title>
<path fill="none" stroke="midnightblue" d="M922.6,-112.4C916.13,-103.84 907.83,-92.87 901.01,-83.86"/>
<polygon fill="midnightblue" stroke="midnightblue" points="903.64,-81.52 894.81,-75.66 898.05,-85.74 903.64,-81.52"/>
</g>
</g>
</svg>
