<?xml version="1.0" encoding="UTF-8" standalone="no"?>
<!DOCTYPE svg PUBLIC "-//W3C//DTD SVG 1.1//EN"
 "http://www.w3.org/Graphics/SVG/1.1/DTD/svg11.dtd">
<!-- Generated by graphviz version 2.43.0 (0)
 -->
<!-- Title: include/buffer_manager.hpp Pages: 1 -->
<svg width="988pt" height="330pt"
 viewBox="0.00 0.00 987.50 330.00" xmlns="http://www.w3.org/2000/svg" xmlns:xlink="http://www.w3.org/1999/xlink">
<g id="graph0" class="graph" transform="scale(1 1) rotate(0) translate(4 326)">
<title>include/buffer_manager.hpp</title>
<polygon fill="white" stroke="transparent" points="-4,4 -4,-326 983.5,-326 983.5,4 -4,4"/>
<!-- Node1 -->
<g id="node1" class="node">
<title>Node1</title>
<g id="a_node1"><a xlink:title=" ">
<polygon fill="#bfbfbf" stroke="black" points="224,-302.5 224,-321.5 376,-321.5 376,-302.5 224,-302.5"/>
<text text-anchor="middle" x="300" y="-309.5" font-family="Helvetica,sans-Serif" font-size="10.00">include/buffer_manager.hpp</text>
</a>
</g>
</g>
<!-- Node2 -->
<g id="node2" class="node">
<title>Node2</title>
<g id="a_node2"><a xlink:href="config_8hpp.html" target="_top" xlink:title=" ">
<polygon fill="white" stroke="black" points="0,-56.5 0,-75.5 160,-75.5 160,-56.5 0,-56.5"/>
<text text-anchor="middle" x="80" y="-63.5" font-family="Helvetica,sans-Serif" font-size="10.00">cppuddle/common/config.hpp</text>
</a>
</g>
</g>
<!-- Node1&#45;&gt;Node2 -->
<g id="edge1" class="edge">
<title>Node1&#45;&gt;Node2</title>
<path fill="none" stroke="midnightblue" d="M291.89,-302.42C283.39,-293.41 269.68,-278.78 258,-266 196.6,-198.81 124.67,-117.61 94.48,-83.43"/>
<polygon fill="midnightblue" stroke="midnightblue" points="96.98,-80.97 87.74,-75.79 91.73,-85.6 96.98,-80.97"/>
</g>
<!-- Node4 -->
<g id="node4" class="node">
<title>Node4</title>
<g id="a_node4"><a xlink:href="buffer__management__interface_8hpp.html" target="_top" xlink:title=" ">
<polygon fill="white" stroke="black" points="252,-168.5 252,-198.5 440,-198.5 440,-168.5 252,-168.5"/>
<text text-anchor="start" x="260" y="-186.5" font-family="Helvetica,sans-Serif" font-size="10.00">cppuddle/memory_recycling</text>
<text text-anchor="middle" x="346" y="-175.5" font-family="Helvetica,sans-Serif" font-size="10.00">/buffer_management_interface.hpp</text>
</a>
</g>
</g>
<!-- Node1&#45;&gt;Node4 -->
<g id="edge3" class="edge">
<title>Node1&#45;&gt;Node4</title>
<path fill="none" stroke="midnightblue" d="M290.85,-302.34C276.85,-288 253.02,-258.54 266,-235 273.41,-221.56 286.07,-211.2 299.16,-203.47"/>
<polygon fill="midnightblue" stroke="midnightblue" points="301.12,-206.39 308.23,-198.53 297.77,-200.24 301.12,-206.39"/>
</g>
<!-- Node5 -->
<g id="node5" class="node">
<title>Node5</title>
<g id="a_node5"><a xlink:href="buffer__management_8hpp.html" target="_top" xlink:title=" ">
<polygon fill="white" stroke="black" points="384.5,-112.5 384.5,-131.5 551.5,-131.5 551.5,-112.5 384.5,-112.5"/>
<text text-anchor="middle" x="468" y="-119.5" font-family="Helvetica,sans-Serif" font-size="10.00">detail/buffer_management.hpp</text>
</a>
</g>
</g>
<!-- Node1&#45;&gt;Node5 -->
<g id="edge17" class="edge">
<title>Node1&#45;&gt;Node5</title>
<path fill="none" stroke="midnightblue" d="M376.37,-302.47C400.52,-296.08 425.25,-285.02 442,-266 472.9,-230.9 472.69,-171.68 470.21,-141.65"/>
<polygon fill="midnightblue" stroke="midnightblue" points="473.7,-141.29 469.22,-131.69 466.73,-141.99 473.7,-141.29"/>
</g>
<!-- Node16 -->
<g id="node16" class="node">
<title>Node16</title>
<g id="a_node16"><a xlink:href="std__recycling__allocators_8hpp.html" target="_top" xlink:title=" ">
<polygon fill="white" stroke="black" points="275,-235.5 275,-265.5 433,-265.5 433,-235.5 275,-235.5"/>
<text text-anchor="start" x="283" y="-253.5" font-family="Helvetica,sans-Serif" font-size="10.00">cppuddle/memory_recycling</text>
<text text-anchor="middle" x="354" y="-242.5" font-family="Helvetica,sans-Serif" font-size="10.00">/std_recycling_allocators.hpp</text>
</a>
</g>
</g>
<!-- Node1&#45;&gt;Node16 -->
<g id="edge18" class="edge">
<title>Node1&#45;&gt;Node16</title>
<path fill="none" stroke="midnightblue" d="M307.74,-302.48C314.71,-294.79 325.26,-283.17 334.52,-272.96"/>
<polygon fill="midnightblue" stroke="midnightblue" points="337.14,-275.28 341.27,-265.52 331.96,-270.58 337.14,-275.28"/>
</g>
<!-- Node3 -->
<g id="node3" class="node">
<title>Node3</title>
<g id="a_node3"><a xlink:title=" ">
<polygon fill="white" stroke="#bfbfbf" points="110,-0.5 110,-19.5 158,-19.5 158,-0.5 110,-0.5"/>
<text text-anchor="middle" x="134" y="-7.5" font-family="Helvetica,sans-Serif" font-size="10.00">mutex</text>
</a>
</g>
</g>
<!-- Node2&#45;&gt;Node3 -->
<g id="edge2" class="edge">
<title>Node2&#45;&gt;Node3</title>
<path fill="none" stroke="midnightblue" d="M88.92,-56.08C96.78,-48.22 108.43,-36.57 117.92,-27.08"/>
<polygon fill="midnightblue" stroke="midnightblue" points="120.65,-29.3 125.25,-19.75 115.7,-24.35 120.65,-29.3"/>
</g>
<!-- Node4&#45;&gt;Node5 -->
<g id="edge4" class="edge">
<title>Node4&#45;&gt;Node5</title>
<path fill="none" stroke="midnightblue" d="M374.91,-168.4C395.02,-158.59 421.62,-145.62 441.24,-136.05"/>
<polygon fill="midnightblue" stroke="midnightblue" points="442.79,-139.19 450.25,-131.66 439.73,-132.9 442.79,-139.19"/>
</g>
<!-- Node5&#45;&gt;Node2 -->
<g id="edge16" class="edge">
<title>Node5&#45;&gt;Node2</title>
<path fill="none" stroke="midnightblue" d="M406.52,-112.44C337.13,-102.79 224.42,-87.1 151.25,-76.92"/>
<polygon fill="midnightblue" stroke="midnightblue" points="151.58,-73.43 141.19,-75.52 150.61,-80.36 151.58,-73.43"/>
</g>
<!-- Node5&#45;&gt;Node3 -->
<g id="edge11" class="edge">
<title>Node5&#45;&gt;Node3</title>
<path fill="none" stroke="midnightblue" d="M384.49,-118.31C331.41,-113.83 262.5,-102.75 207,-76 183.01,-64.44 161,-42.62 147.56,-27.47"/>
<polygon fill="midnightblue" stroke="midnightblue" points="150.18,-25.16 141.01,-19.85 144.87,-29.72 150.18,-25.16"/>
</g>
<!-- Node6 -->
<g id="node6" class="node">
<title>Node6</title>
<g id="a_node6"><a xlink:title=" ">
<polygon fill="white" stroke="#bfbfbf" points="216,-56.5 216,-75.5 266,-75.5 266,-56.5 216,-56.5"/>
<text text-anchor="middle" x="241" y="-63.5" font-family="Helvetica,sans-Serif" font-size="10.00">atomic</text>
</a>
</g>
</g>
<!-- Node5&#45;&gt;Node6 -->
<g id="edge5" class="edge">
<title>Node5&#45;&gt;Node6</title>
<path fill="none" stroke="midnightblue" d="M429.84,-112.45C392.9,-104.1 335.09,-90.83 276.09,-76.22"/>
<polygon fill="midnightblue" stroke="midnightblue" points="276.78,-72.78 266.23,-73.77 275.09,-79.58 276.78,-72.78"/>
</g>
<!-- Node7 -->
<g id="node7" class="node">
<title>Node7</title>
<g id="a_node7"><a xlink:title=" ">
<polygon fill="white" stroke="#bfbfbf" points="284,-56.5 284,-75.5 336,-75.5 336,-56.5 284,-56.5"/>
<text text-anchor="middle" x="310" y="-63.5" font-family="Helvetica,sans-Serif" font-size="10.00">cassert</text>
</a>
</g>
</g>
<!-- Node5&#45;&gt;Node7 -->
<g id="edge6" class="edge">
<title>Node5&#45;&gt;Node7</title>
<path fill="none" stroke="midnightblue" d="M442.96,-112.44C416.38,-103.36 374.19,-88.94 344.48,-78.78"/>
<polygon fill="midnightblue" stroke="midnightblue" points="345.51,-75.44 334.92,-75.52 343.25,-82.06 345.51,-75.44"/>
</g>
<!-- Node8 -->
<g id="node8" class="node">
<title>Node8</title>
<g id="a_node8"><a xlink:title=" ">
<polygon fill="white" stroke="#bfbfbf" points="354.5,-56.5 354.5,-75.5 419.5,-75.5 419.5,-56.5 354.5,-56.5"/>
<text text-anchor="middle" x="387" y="-63.5" font-family="Helvetica,sans-Serif" font-size="10.00">functional</text>
</a>
</g>
</g>
<!-- Node5&#45;&gt;Node8 -->
<g id="edge7" class="edge">
<title>Node5&#45;&gt;Node8</title>
<path fill="none" stroke="midnightblue" d="M454.99,-112.32C442.47,-103.98 423.32,-91.21 408.53,-81.35"/>
<polygon fill="midnightblue" stroke="midnightblue" points="410.24,-78.29 399.98,-75.65 406.36,-84.11 410.24,-78.29"/>
</g>
<!-- Node9 -->
<g id="node9" class="node">
<title>Node9</title>
<g id="a_node9"><a xlink:title=" ">
<polygon fill="white" stroke="#bfbfbf" points="438,-56.5 438,-75.5 498,-75.5 498,-56.5 438,-56.5"/>
<text text-anchor="middle" x="468" y="-63.5" font-family="Helvetica,sans-Serif" font-size="10.00">iostream</text>
</a>
</g>
</g>
<!-- Node5&#45;&gt;Node9 -->
<g id="edge8" class="edge">
<title>Node5&#45;&gt;Node9</title>
<path fill="none" stroke="midnightblue" d="M468,-112.08C468,-105.01 468,-94.86 468,-85.99"/>
<polygon fill="midnightblue" stroke="midnightblue" points="471.5,-85.75 468,-75.75 464.5,-85.75 471.5,-85.75"/>
</g>
<!-- Node10 -->
<g id="node10" class="node">
<title>Node10</title>
<g id="a_node10"><a xlink:title=" ">
<polygon fill="white" stroke="#bfbfbf" points="516,-56.5 516,-75.5 548,-75.5 548,-56.5 516,-56.5"/>
<text text-anchor="middle" x="532" y="-63.5" font-family="Helvetica,sans-Serif" font-size="10.00">list</text>
</a>
</g>
</g>
<!-- Node5&#45;&gt;Node10 -->
<g id="edge9" class="edge">
<title>Node5&#45;&gt;Node10</title>
<path fill="none" stroke="midnightblue" d="M478.28,-112.32C487.84,-104.26 502.28,-92.08 513.78,-82.37"/>
<polygon fill="midnightblue" stroke="midnightblue" points="516.14,-84.96 521.53,-75.83 511.63,-79.61 516.14,-84.96"/>
</g>
<!-- Node11 -->
<g id="node11" class="node">
<title>Node11</title>
<g id="a_node11"><a xlink:title=" ">
<polygon fill="white" stroke="#bfbfbf" points="566,-56.5 566,-75.5 624,-75.5 624,-56.5 566,-56.5"/>
<text text-anchor="middle" x="595" y="-63.5" font-family="Helvetica,sans-Serif" font-size="10.00">memory</text>
</a>
</g>
</g>
<!-- Node5&#45;&gt;Node11 -->
<g id="edge10" class="edge">
<title>Node5&#45;&gt;Node11</title>
<path fill="none" stroke="midnightblue" d="M488.12,-112.44C509.02,-103.56 541.93,-89.56 565.72,-79.45"/>
<polygon fill="midnightblue" stroke="midnightblue" points="567.14,-82.65 574.97,-75.52 564.4,-76.21 567.14,-82.65"/>
</g>
<!-- Node12 -->
<g id="node12" class="node">
<title>Node12</title>
<g id="a_node12"><a xlink:title=" ">
<polygon fill="white" stroke="#bfbfbf" points="642,-56.5 642,-75.5 698,-75.5 698,-56.5 642,-56.5"/>
<text text-anchor="middle" x="670" y="-63.5" font-family="Helvetica,sans-Serif" font-size="10.00">optional</text>
</a>
</g>
</g>
<!-- Node5&#45;&gt;Node12 -->
<g id="edge12" class="edge">
<title>Node5&#45;&gt;Node12</title>
<path fill="none" stroke="midnightblue" d="M500.01,-112.44C535.85,-102.86 593.9,-87.34 632.02,-77.15"/>
<polygon fill="midnightblue" stroke="midnightblue" points="632.97,-80.52 641.73,-74.56 631.16,-73.76 632.97,-80.52"/>
</g>
<!-- Node13 -->
<g id="node13" class="node">
<title>Node13</title>
<g id="a_node13"><a xlink:title=" ">
<polygon fill="white" stroke="#bfbfbf" points="716.5,-56.5 716.5,-75.5 781.5,-75.5 781.5,-56.5 716.5,-56.5"/>
<text text-anchor="middle" x="749" y="-63.5" font-family="Helvetica,sans-Serif" font-size="10.00">stdexcept</text>
</a>
</g>
</g>
<!-- Node5&#45;&gt;Node13 -->
<g id="edge13" class="edge">
<title>Node5&#45;&gt;Node13</title>
<path fill="none" stroke="midnightblue" d="M515.23,-112.47C561.32,-104.06 633.7,-90.64 706.23,-76.11"/>
<polygon fill="midnightblue" stroke="midnightblue" points="707.34,-79.46 716.46,-74.06 705.96,-72.6 707.34,-79.46"/>
</g>
<!-- Node14 -->
<g id="node14" class="node">
<title>Node14</title>
<g id="a_node14"><a xlink:title=" ">
<polygon fill="white" stroke="#bfbfbf" points="799.5,-56.5 799.5,-75.5 868.5,-75.5 868.5,-56.5 799.5,-56.5"/>
<text text-anchor="middle" x="834" y="-63.5" font-family="Helvetica,sans-Serif" font-size="10.00">type_traits</text>
</a>
</g>
</g>
<!-- Node5&#45;&gt;Node14 -->
<g id="edge14" class="edge">
<title>Node5&#45;&gt;Node14</title>
<path fill="none" stroke="midnightblue" d="M539.42,-112.46C602.71,-104.58 697.85,-91.93 789.32,-76.2"/>
<polygon fill="midnightblue" stroke="midnightblue" points="790.05,-79.63 799.31,-74.47 788.85,-72.73 790.05,-79.63"/>
</g>
<!-- Node15 -->
<g id="node15" class="node">
<title>Node15</title>
<g id="a_node15"><a xlink:title=" ">
<polygon fill="white" stroke="#bfbfbf" points="886.5,-56.5 886.5,-75.5 979.5,-75.5 979.5,-56.5 886.5,-56.5"/>
<text text-anchor="middle" x="933" y="-63.5" font-family="Helvetica,sans-Serif" font-size="10.00">unordered_map</text>
</a>
</g>
</g>
<!-- Node5&#45;&gt;Node15 -->
<g id="edge15" class="edge">
<title>Node5&#45;&gt;Node15</title>
<path fill="none" stroke="midnightblue" d="M551.79,-113.11C632.49,-105.22 758.26,-92.13 876.28,-76.18"/>
<polygon fill="midnightblue" stroke="midnightblue" points="876.78,-79.64 886.22,-74.83 875.84,-72.71 876.78,-79.64"/>
</g>
<!-- Node16&#45;&gt;Node4 -->
<g id="edge19" class="edge">
<title>Node16&#45;&gt;Node4</title>
<path fill="none" stroke="midnightblue" d="M352.26,-235.4C351.3,-227.56 350.07,-217.6 348.96,-208.57"/>
<polygon fill="midnightblue" stroke="midnightblue" points="352.43,-208.07 347.73,-198.58 345.48,-208.93 352.43,-208.07"/>
</g>
</g>
</svg>
