<?xml version="1.0" encoding="UTF-8" standalone="no"?>
<!DOCTYPE svg PUBLIC "-//W3C//DTD SVG 1.1//EN"
 "http://www.w3.org/Graphics/SVG/1.1/DTD/svg11.dtd">
<!-- Generated by graphviz version 2.43.0 (0)
 -->
<!-- Title: include/buffer_manager.hpp Pages: 1 -->
<svg width="988pt" height="324pt"
 viewBox="0.00 0.00 987.50 324.00" xmlns="http://www.w3.org/2000/svg" xmlns:xlink="http://www.w3.org/1999/xlink">
<g id="graph0" class="graph" transform="scale(1 1) rotate(0) translate(4 320)">
<title>include/buffer_manager.hpp</title>
<!-- Node1 -->
<g id="Node000001" class="node">
<title>Node1</title>
<g id="a_Node000001"><a xlink:title=" ">
<polygon fill="#999999" stroke="#666666" points="376,-316 224,-316 224,-297 376,-297 376,-316"/>
<text text-anchor="middle" x="300" y="-304" font-family="Helvetica,sans-Serif" font-size="10.00">include/buffer_manager.hpp</text>
</a>
</g>
</g>
<!-- Node2 -->
<g id="Node000002" class="node">
<title>Node2</title>
<g id="a_Node000002"><a xlink:href="config_8hpp.html" target="_top" xlink:title=" ">
<polygon fill="white" stroke="#666666" points="160,-74 0,-74 0,-55 160,-55 160,-74"/>
<text text-anchor="middle" x="80" y="-62" font-family="Helvetica,sans-Serif" font-size="10.00">cppuddle/common/config.hpp</text>
</a>
</g>
</g>
<!-- Node1&#45;&gt;Node2 -->
<g id="edge1_Node000001_Node000002" class="edge">
<title>Node1&#45;&gt;Node2</title>
<g id="a_edge1_Node000001_Node000002"><a xlink:title=" ">
<path fill="none" stroke="#63b8ff" d="M291.59,-296.68C283.07,-287.73 269.56,-273.47 258,-261 196.72,-194.9 124.73,-115.18 94.5,-81.63"/>
<polygon fill="#63b8ff" stroke="#63b8ff" points="97.04,-79.22 87.75,-74.13 91.84,-83.9 97.04,-79.22"/>
</a>
</g>
</g>
<!-- Node4 -->
<g id="Node000004" class="node">
<title>Node4</title>
<g id="a_Node000004"><a xlink:href="buffer__management__interface_8hpp.html" target="_top" xlink:title=" ">
<polygon fill="white" stroke="#666666" points="440,-195 252,-195 252,-165 440,-165 440,-195"/>
<text text-anchor="start" x="260" y="-183" font-family="Helvetica,sans-Serif" font-size="10.00">cppuddle/memory_recycling</text>
<text text-anchor="middle" x="346" y="-172" font-family="Helvetica,sans-Serif" font-size="10.00">/buffer_management_interface.hpp</text>
</a>
</g>
</g>
<!-- Node1&#45;&gt;Node4 -->
<g id="edge3_Node000001_Node000004" class="edge">
<title>Node1&#45;&gt;Node4</title>
<g id="a_edge3_Node000001_Node000004"><a xlink:title=" ">
<path fill="none" stroke="#63b8ff" d="M290.44,-296.57C276.43,-282.36 253.32,-253.88 266,-231 273.35,-217.73 285.86,-207.52 298.83,-199.89"/>
<polygon fill="#63b8ff" stroke="#63b8ff" points="300.7,-202.85 307.82,-195.01 297.36,-196.7 300.7,-202.85"/>
</a>
</g>
</g>
<!-- Node5 -->
<g id="Node000005" class="node">
<title>Node5</title>
<g id="a_Node000005"><a xlink:href="buffer__management_8hpp.html" target="_top" xlink:title=" ">
<polygon fill="white" stroke="#666666" points="551.5,-129 384.5,-129 384.5,-110 551.5,-110 551.5,-129"/>
<text text-anchor="middle" x="468" y="-117" font-family="Helvetica,sans-Serif" font-size="10.00">detail/buffer_management.hpp</text>
</a>
</g>
</g>
<!-- Node1&#45;&gt;Node5 -->
<g id="edge17_Node000001_Node000005" class="edge">
<title>Node1&#45;&gt;Node5</title>
<g id="a_edge17_Node000001_Node000005"><a xlink:title=" ">
<path fill="none" stroke="#63b8ff" d="M376.32,-297.23C400.46,-290.91 425.21,-279.95 442,-261 472.35,-226.74 472.46,-168.88 470.15,-139.24"/>
<polygon fill="#63b8ff" stroke="#63b8ff" points="473.61,-138.66 469.17,-129.04 466.64,-139.33 473.61,-138.66"/>
</a>
</g>
</g>
<!-- Node16 -->
<g id="Node000016" class="node">
<title>Node16</title>
<g id="a_Node000016"><a xlink:href="std__recycling__allocators_8hpp.html" target="_top" xlink:title=" ">
<polygon fill="white" stroke="#666666" points="433,-261 275,-261 275,-231 433,-231 433,-261"/>
<text text-anchor="start" x="283" y="-249" font-family="Helvetica,sans-Serif" font-size="10.00">cppuddle/memory_recycling</text>
<text text-anchor="middle" x="354" y="-238" font-family="Helvetica,sans-Serif" font-size="10.00">/std_recycling_allocators.hpp</text>
</a>
</g>
</g>
<!-- Node1&#45;&gt;Node16 -->
<g id="edge18_Node000001_Node000016" class="edge">
<title>Node1&#45;&gt;Node16</title>
<g id="a_edge18_Node000001_Node000016"><a xlink:title=" ">
<path fill="none" stroke="#63b8ff" d="M307.97,-296.87C314.82,-289.44 325,-278.42 334.05,-268.62"/>
<polygon fill="#63b8ff" stroke="#63b8ff" points="336.76,-270.84 340.97,-261.11 331.62,-266.09 336.76,-270.84"/>
</a>
</g>
</g>
<!-- Node3 -->
<g id="Node000003" class="node">
<title>Node3</title>
<g id="a_Node000003"><a xlink:title=" ">
<polygon fill="#e0e0e0" stroke="#999999" points="158,-19 110,-19 110,0 158,0 158,-19"/>
<text text-anchor="middle" x="134" y="-7" font-family="Helvetica,sans-Serif" font-size="10.00">mutex</text>
</a>
</g>
</g>
<!-- Node2&#45;&gt;Node3 -->
<g id="edge2_Node000002_Node000003" class="edge">
<title>Node2&#45;&gt;Node3</title>
<g id="a_edge2_Node000002_Node000003"><a xlink:title=" ">
<path fill="none" stroke="#63b8ff" d="M88.92,-54.75C96.78,-47.03 108.43,-35.6 117.92,-26.28"/>
<polygon fill="#63b8ff" stroke="#63b8ff" points="120.56,-28.59 125.25,-19.09 115.66,-23.6 120.56,-28.59"/>
</a>
</g>
</g>
<!-- Node4&#45;&gt;Node5 -->
<g id="edge4_Node000004_Node000005" class="edge">
<title>Node4&#45;&gt;Node5</title>
<g id="a_edge4_Node000004_Node000005"><a xlink:title=" ">
<path fill="none" stroke="#63b8ff" d="M375.22,-164.99C395.12,-155.45 421.28,-142.9 440.75,-133.57"/>
<polygon fill="#63b8ff" stroke="#63b8ff" points="442.48,-136.62 449.98,-129.14 439.45,-130.31 442.48,-136.62"/>
</a>
</g>
</g>
<!-- Node5&#45;&gt;Node2 -->
<g id="edge16_Node000005_Node000002" class="edge">
<title>Node5&#45;&gt;Node2</title>
<g id="a_edge16_Node000005_Node000002"><a xlink:title=" ">
<path fill="none" stroke="#63b8ff" d="M405.66,-109.98C336.61,-100.55 225.43,-85.36 152.53,-75.41"/>
<polygon fill="#63b8ff" stroke="#63b8ff" points="152.89,-71.92 142.51,-74.04 151.94,-78.86 152.89,-71.92"/>
</a>
</g>
</g>
<!-- Node5&#45;&gt;Node3 -->
<g id="edge11_Node000005_Node000003" class="edge">
<title>Node5&#45;&gt;Node3</title>
<g id="a_edge11_Node000005_Node000003"><a xlink:title=" ">
<path fill="none" stroke="#63b8ff" d="M384.3,-115.75C331.31,-111.28 262.56,-100.32 207,-74 183.4,-62.82 161.54,-41.8 148.01,-27.01"/>
<polygon fill="#63b8ff" stroke="#63b8ff" points="150.3,-24.32 141.06,-19.15 145.06,-28.96 150.3,-24.32"/>
</a>
</g>
</g>
<!-- Node6 -->
<g id="Node000006" class="node">
<title>Node6</title>
<g id="a_Node000006"><a xlink:title=" ">
<polygon fill="#e0e0e0" stroke="#999999" points="266,-74 216,-74 216,-55 266,-55 266,-74"/>
<text text-anchor="middle" x="241" y="-62" font-family="Helvetica,sans-Serif" font-size="10.00">atomic</text>
</a>
</g>
</g>
<!-- Node5&#45;&gt;Node6 -->
<g id="edge5_Node000005_Node000006" class="edge">
<title>Node5&#45;&gt;Node6</title>
<g id="a_edge5_Node000005_Node000006"><a xlink:title=" ">
<path fill="none" stroke="#63b8ff" d="M429.87,-109.92C392.95,-101.58 335.16,-88.38 276.11,-74.23"/>
<polygon fill="#63b8ff" stroke="#63b8ff" points="276.78,-70.8 266.24,-71.86 275.14,-77.6 276.78,-70.8"/>
</a>
</g>
</g>
<!-- Node7 -->
<g id="Node000007" class="node">
<title>Node7</title>
<g id="a_Node000007"><a xlink:title=" ">
<polygon fill="#e0e0e0" stroke="#999999" points="336,-74 284,-74 284,-55 336,-55 336,-74"/>
<text text-anchor="middle" x="310" y="-62" font-family="Helvetica,sans-Serif" font-size="10.00">cassert</text>
</a>
</g>
</g>
<!-- Node5&#45;&gt;Node7 -->
<g id="edge6_Node000005_Node000007" class="edge">
<title>Node5&#45;&gt;Node7</title>
<g id="a_edge6_Node000005_Node000007"><a xlink:title=" ">
<path fill="none" stroke="#63b8ff" d="M442.61,-109.98C416.2,-101.13 374.65,-87.19 345.11,-77.28"/>
<polygon fill="#63b8ff" stroke="#63b8ff" points="346.18,-73.94 335.58,-74.08 343.95,-80.58 346.18,-73.94"/>
</a>
</g>
</g>
<!-- Node8 -->
<g id="Node000008" class="node">
<title>Node8</title>
<g id="a_Node000008"><a xlink:title=" ">
<polygon fill="#e0e0e0" stroke="#999999" points="419.5,-74 354.5,-74 354.5,-55 419.5,-55 419.5,-74"/>
<text text-anchor="middle" x="387" y="-62" font-family="Helvetica,sans-Serif" font-size="10.00">functional</text>
</a>
</g>
</g>
<!-- Node5&#45;&gt;Node8 -->
<g id="edge7_Node000005_Node000008" class="edge">
<title>Node5&#45;&gt;Node8</title>
<g id="a_edge7_Node000005_Node000008"><a xlink:title=" ">
<path fill="none" stroke="#63b8ff" d="M454.99,-109.98C442.54,-101.84 423.54,-89.41 408.79,-79.76"/>
<polygon fill="#63b8ff" stroke="#63b8ff" points="410.54,-76.72 400.25,-74.17 406.7,-82.57 410.54,-76.72"/>
</a>
</g>
</g>
<!-- Node9 -->
<g id="Node000009" class="node">
<title>Node9</title>
<g id="a_Node000009"><a xlink:title=" ">
<polygon fill="#e0e0e0" stroke="#999999" points="498,-74 438,-74 438,-55 498,-55 498,-74"/>
<text text-anchor="middle" x="468" y="-62" font-family="Helvetica,sans-Serif" font-size="10.00">iostream</text>
</a>
</g>
</g>
<!-- Node5&#45;&gt;Node9 -->
<g id="edge8_Node000005_Node000009" class="edge">
<title>Node5&#45;&gt;Node9</title>
<g id="a_edge8_Node000005_Node000009"><a xlink:title=" ">
<path fill="none" stroke="#63b8ff" d="M468,-109.75C468,-102.8 468,-92.85 468,-84.13"/>
<polygon fill="#63b8ff" stroke="#63b8ff" points="471.5,-84.09 468,-74.09 464.5,-84.09 471.5,-84.09"/>
</a>
</g>
</g>
<!-- Node10 -->
<g id="Node000010" class="node">
<title>Node10</title>
<g id="a_Node000010"><a xlink:title=" ">
<polygon fill="#e0e0e0" stroke="#999999" points="548,-74 516,-74 516,-55 548,-55 548,-74"/>
<text text-anchor="middle" x="532" y="-62" font-family="Helvetica,sans-Serif" font-size="10.00">list</text>
</a>
</g>
</g>
<!-- Node5&#45;&gt;Node10 -->
<g id="edge9_Node000005_Node000010" class="edge">
<title>Node5&#45;&gt;Node10</title>
<g id="a_edge9_Node000005_Node000010"><a xlink:title=" ">
<path fill="none" stroke="#63b8ff" d="M478.28,-109.98C487.84,-102.07 502.28,-90.11 513.78,-80.58"/>
<polygon fill="#63b8ff" stroke="#63b8ff" points="516.06,-83.24 521.53,-74.17 511.6,-77.85 516.06,-83.24"/>
</a>
</g>
</g>
<!-- Node11 -->
<g id="Node000011" class="node">
<title>Node11</title>
<g id="a_Node000011"><a xlink:title=" ">
<polygon fill="#e0e0e0" stroke="#999999" points="624,-74 566,-74 566,-55 624,-55 624,-74"/>
<text text-anchor="middle" x="595" y="-62" font-family="Helvetica,sans-Serif" font-size="10.00">memory</text>
</a>
</g>
</g>
<!-- Node5&#45;&gt;Node11 -->
<g id="edge10_Node000005_Node000011" class="edge">
<title>Node5&#45;&gt;Node11</title>
<g id="a_edge10_Node000005_Node000011"><a xlink:title=" ">
<path fill="none" stroke="#63b8ff" d="M488.4,-109.98C509.02,-101.38 541.11,-87.99 564.69,-78.15"/>
<polygon fill="#63b8ff" stroke="#63b8ff" points="566.34,-81.25 574.22,-74.17 563.65,-74.79 566.34,-81.25"/>
</a>
</g>
</g>
<!-- Node12 -->
<g id="Node000012" class="node">
<title>Node12</title>
<g id="a_Node000012"><a xlink:title=" ">
<polygon fill="#e0e0e0" stroke="#999999" points="698,-74 642,-74 642,-55 698,-55 698,-74"/>
<text text-anchor="middle" x="670" y="-62" font-family="Helvetica,sans-Serif" font-size="10.00">optional</text>
</a>
</g>
</g>
<!-- Node5&#45;&gt;Node12 -->
<g id="edge12_Node000005_Node000012" class="edge">
<title>Node5&#45;&gt;Node12</title>
<g id="a_edge12_Node000005_Node000012"><a xlink:title=" ">
<path fill="none" stroke="#63b8ff" d="M500.45,-109.98C536.24,-100.6 593.75,-85.51 631.71,-75.55"/>
<polygon fill="#63b8ff" stroke="#63b8ff" points="633.08,-78.81 641.86,-72.88 631.3,-72.04 633.08,-78.81"/>
</a>
</g>
</g>
<!-- Node13 -->
<g id="Node000013" class="node">
<title>Node13</title>
<g id="a_Node000013"><a xlink:title=" ">
<polygon fill="#e0e0e0" stroke="#999999" points="781.5,-74 716.5,-74 716.5,-55 781.5,-55 781.5,-74"/>
<text text-anchor="middle" x="749" y="-62" font-family="Helvetica,sans-Serif" font-size="10.00">stdexcept</text>
</a>
</g>
</g>
<!-- Node5&#45;&gt;Node13 -->
<g id="edge13_Node000005_Node000013" class="edge">
<title>Node5&#45;&gt;Node13</title>
<g id="a_edge13_Node000005_Node000013"><a xlink:title=" ">
<path fill="none" stroke="#63b8ff" d="M515.2,-109.94C561.28,-101.53 633.64,-88.18 706.21,-74.13"/>
<polygon fill="#63b8ff" stroke="#63b8ff" points="707.3,-77.48 716.45,-72.14 705.97,-70.61 707.3,-77.48"/>
</a>
</g>
</g>
<!-- Node14 -->
<g id="Node000014" class="node">
<title>Node14</title>
<g id="a_Node000014"><a xlink:title=" ">
<polygon fill="#e0e0e0" stroke="#999999" points="868.5,-74 799.5,-74 799.5,-55 868.5,-55 868.5,-74"/>
<text text-anchor="middle" x="834" y="-62" font-family="Helvetica,sans-Serif" font-size="10.00">type_traits</text>
</a>
</g>
</g>
<!-- Node5&#45;&gt;Node14 -->
<g id="edge14_Node000005_Node000014" class="edge">
<title>Node5&#45;&gt;Node14</title>
<g id="a_edge14_Node000005_Node000014"><a xlink:title=" ">
<path fill="none" stroke="#63b8ff" d="M538.43,-110C601.68,-102.09 697.32,-89.45 789.26,-74.22"/>
<polygon fill="#63b8ff" stroke="#63b8ff" points="790.01,-77.64 799.3,-72.54 788.86,-70.73 790.01,-77.64"/>
</a>
</g>
</g>
<!-- Node15 -->
<g id="Node000015" class="node">
<title>Node15</title>
<g id="a_Node000015"><a xlink:title=" ">
<polygon fill="#e0e0e0" stroke="#999999" points="979.5,-74 886.5,-74 886.5,-55 979.5,-55 979.5,-74"/>
<text text-anchor="middle" x="933" y="-62" font-family="Helvetica,sans-Serif" font-size="10.00">unordered_map</text>
</a>
</g>
</g>
<!-- Node5&#45;&gt;Node15 -->
<g id="edge15_Node000005_Node000015" class="edge">
<title>Node5&#45;&gt;Node15</title>
<g id="a_edge15_Node000005_Node000015"><a xlink:title=" ">
<path fill="none" stroke="#63b8ff" d="M551.76,-110.53C632.45,-102.59 758.2,-89.55 876.27,-74.18"/>
<polygon fill="#63b8ff" stroke="#63b8ff" points="876.75,-77.65 886.21,-72.88 875.84,-70.71 876.75,-77.65"/>
</a>
</g>
</g>
<!-- Node16&#45;&gt;Node4 -->
<g id="edge19_Node000016_Node000004" class="edge">
<title>Node16&#45;&gt;Node4</title>
<g id="a_edge19_Node000016_Node000004"><a xlink:title=" ">
<path fill="none" stroke="#63b8ff" d="M352.22,-230.8C351.28,-223.26 350.1,-213.78 349.02,-205.13"/>
<polygon fill="#63b8ff" stroke="#63b8ff" points="352.48,-204.65 347.77,-195.16 345.54,-205.52 352.48,-204.65"/>
</a>
</g>
</g>
</g>
</svg>
