<?xml version="1.0" encoding="UTF-8" standalone="no"?>
<!DOCTYPE svg PUBLIC "-//W3C//DTD SVG 1.1//EN"
 "http://www.w3.org/Graphics/SVG/1.1/DTD/svg11.dtd">
<!-- Generated by graphviz version 2.43.0 (0)
 -->
<!-- Title: include/cppuddle/memory_recycling/buffer_management_interface.hpp Pages: 1 -->
<svg width="2092pt" height="329pt"
 viewBox="0.00 0.00 2091.50 329.00" xmlns="http://www.w3.org/2000/svg" xmlns:xlink="http://www.w3.org/1999/xlink">
<g id="graph0" class="graph" transform="scale(1 1) rotate(0) translate(4 325)">
<title>include/cppuddle/memory_recycling/buffer_management_interface.hpp</title>
<polygon fill="white" stroke="transparent" points="-4,4 -4,-325 2087.5,-325 2087.5,4 -4,4"/>
<!-- Node1 -->
<g id="node1" class="node">
<title>Node1</title>
<g id="a_node1"><a xlink:title=" ">
<polygon fill="#bfbfbf" stroke="black" points="1008.5,-279.5 1008.5,-320.5 1176.5,-320.5 1176.5,-279.5 1008.5,-279.5"/>
<text text-anchor="start" x="1016.5" y="-308.5" font-family="Helvetica,sans-Serif" font-size="10.00">include/cppuddle/memory</text>
<text text-anchor="start" x="1016.5" y="-297.5" font-family="Helvetica,sans-Serif" font-size="10.00">_recycling/buffer_management</text>
<text text-anchor="middle" x="1092.5" y="-286.5" font-family="Helvetica,sans-Serif" font-size="10.00">_interface.hpp</text>
</a>
</g>
</g>
<!-- Node2 -->
<g id="node2" class="node">
<title>Node2</title>
<g id="a_node2"><a xlink:href="buffer__manager_8hpp.html" target="_top" xlink:title=" ">
<polygon fill="white" stroke="black" points="880.5,-134.5 880.5,-153.5 1032.5,-153.5 1032.5,-134.5 880.5,-134.5"/>
<text text-anchor="middle" x="956.5" y="-141.5" font-family="Helvetica,sans-Serif" font-size="10.00">include/buffer_manager.hpp</text>
</a>
</g>
</g>
<!-- Node1&#45;&gt;Node2 -->
<g id="edge1" class="edge">
<title>Node1&#45;&gt;Node2</title>
<path fill="none" stroke="midnightblue" d="M1048.69,-274.01C1035.73,-265.29 1022.17,-254.72 1011.5,-243 985.62,-214.58 967,-171.87 959.79,-153.69"/>
<polygon fill="midnightblue" stroke="midnightblue" points="1046.8,-276.95 1057.09,-279.47 1050.61,-271.09 1046.8,-276.95"/>
</g>
<!-- Node4 -->
<g id="node4" class="node">
<title>Node4</title>
<g id="a_node4"><a xlink:href="aligned__recycling__allocators_8hpp.html" target="_top" xlink:title=" ">
<polygon fill="white" stroke="black" points="1464,-201.5 1464,-242.5 1619,-242.5 1619,-201.5 1464,-201.5"/>
<text text-anchor="start" x="1472" y="-230.5" font-family="Helvetica,sans-Serif" font-size="10.00">include/cppuddle/memory</text>
<text text-anchor="start" x="1472" y="-219.5" font-family="Helvetica,sans-Serif" font-size="10.00">_recycling/aligned_recycling</text>
<text text-anchor="middle" x="1541.5" y="-208.5" font-family="Helvetica,sans-Serif" font-size="10.00">_allocators.hpp</text>
</a>
</g>
</g>
<!-- Node1&#45;&gt;Node4 -->
<g id="edge3" class="edge">
<title>Node1&#45;&gt;Node4</title>
<path fill="none" stroke="midnightblue" d="M1186.78,-283.04C1268.99,-269.13 1386.79,-249.19 1463.71,-236.17"/>
<polygon fill="midnightblue" stroke="midnightblue" points="1185.97,-279.63 1176.69,-284.75 1187.13,-286.53 1185.97,-279.63"/>
</g>
<!-- Node7 -->
<g id="node7" class="node">
<title>Node7</title>
<g id="a_node7"><a xlink:href="cuda__recycling__allocators_8hpp.html" target="_top" xlink:title=" ">
<polygon fill="white" stroke="black" points="307,-201.5 307,-242.5 450,-242.5 450,-201.5 307,-201.5"/>
<text text-anchor="start" x="315" y="-230.5" font-family="Helvetica,sans-Serif" font-size="10.00">include/cppuddle/memory</text>
<text text-anchor="start" x="315" y="-219.5" font-family="Helvetica,sans-Serif" font-size="10.00">_recycling/cuda_recycling</text>
<text text-anchor="middle" x="378.5" y="-208.5" font-family="Helvetica,sans-Serif" font-size="10.00">_allocators.hpp</text>
</a>
</g>
</g>
<!-- Node1&#45;&gt;Node7 -->
<g id="edge6" class="edge">
<title>Node1&#45;&gt;Node7</title>
<path fill="none" stroke="midnightblue" d="M998.31,-288.97C853.62,-273.57 579.86,-244.43 450.14,-230.63"/>
<polygon fill="midnightblue" stroke="midnightblue" points="998.18,-292.48 1008.5,-290.06 998.92,-285.52 998.18,-292.48"/>
</g>
<!-- Node15 -->
<g id="node15" class="node">
<title>Node15</title>
<g id="a_node15"><a xlink:href="std__recycling__allocators_8hpp.html" target="_top" xlink:title=" ">
<polygon fill="white" stroke="black" points="1021,-201.5 1021,-242.5 1164,-242.5 1164,-201.5 1021,-201.5"/>
<text text-anchor="start" x="1029" y="-230.5" font-family="Helvetica,sans-Serif" font-size="10.00">include/cppuddle/memory</text>
<text text-anchor="start" x="1029" y="-219.5" font-family="Helvetica,sans-Serif" font-size="10.00">_recycling/std_recycling</text>
<text text-anchor="middle" x="1092.5" y="-208.5" font-family="Helvetica,sans-Serif" font-size="10.00">_allocators.hpp</text>
</a>
</g>
</g>
<!-- Node1&#45;&gt;Node15 -->
<g id="edge19" class="edge">
<title>Node1&#45;&gt;Node15</title>
<path fill="none" stroke="midnightblue" d="M1092.5,-269.3C1092.5,-260.3 1092.5,-250.65 1092.5,-242.51"/>
<polygon fill="midnightblue" stroke="midnightblue" points="1089,-269.43 1092.5,-279.43 1096,-269.43 1089,-269.43"/>
</g>
<!-- Node19 -->
<g id="node19" class="node">
<title>Node19</title>
<g id="a_node19"><a xlink:href="hip__recycling__allocators_8hpp.html" target="_top" xlink:title=" ">
<polygon fill="white" stroke="black" points="1706,-201.5 1706,-242.5 1849,-242.5 1849,-201.5 1706,-201.5"/>
<text text-anchor="start" x="1714" y="-230.5" font-family="Helvetica,sans-Serif" font-size="10.00">include/cppuddle/memory</text>
<text text-anchor="start" x="1714" y="-219.5" font-family="Helvetica,sans-Serif" font-size="10.00">_recycling/hip_recycling</text>
<text text-anchor="middle" x="1777.5" y="-208.5" font-family="Helvetica,sans-Serif" font-size="10.00">_allocators.hpp</text>
</a>
</g>
</g>
<!-- Node1&#45;&gt;Node19 -->
<g id="edge26" class="edge">
<title>Node1&#45;&gt;Node19</title>
<path fill="none" stroke="midnightblue" d="M1187.03,-289.92C1294,-279.46 1473.43,-261.33 1627.5,-243 1653.07,-239.96 1681.04,-236.31 1705.83,-232.98"/>
<polygon fill="midnightblue" stroke="midnightblue" points="1186.52,-286.45 1176.9,-290.91 1187.2,-293.42 1186.52,-286.45"/>
</g>
<!-- Node22 -->
<g id="node22" class="node">
<title>Node22</title>
<g id="a_node22"><a xlink:href="sycl__recycling__allocators_8hpp.html" target="_top" xlink:title=" ">
<polygon fill="white" stroke="black" points="1912,-201.5 1912,-242.5 2055,-242.5 2055,-201.5 1912,-201.5"/>
<text text-anchor="start" x="1920" y="-230.5" font-family="Helvetica,sans-Serif" font-size="10.00">include/cppuddle/memory</text>
<text text-anchor="start" x="1920" y="-219.5" font-family="Helvetica,sans-Serif" font-size="10.00">_recycling/sycl_recycling</text>
<text text-anchor="middle" x="1983.5" y="-208.5" font-family="Helvetica,sans-Serif" font-size="10.00">_allocators.hpp</text>
</a>
</g>
</g>
<!-- Node1&#45;&gt;Node22 -->
<g id="edge30" class="edge">
<title>Node1&#45;&gt;Node22</title>
<path fill="none" stroke="midnightblue" d="M1186.78,-294.71C1331.57,-287.54 1617.27,-271.06 1858.5,-243 1875.85,-240.98 1894.49,-238.29 1911.93,-235.53"/>
<polygon fill="midnightblue" stroke="midnightblue" points="1186.42,-291.23 1176.6,-295.21 1186.76,-298.22 1186.42,-291.23"/>
</g>
<!-- Node24 -->
<g id="node24" class="node">
<title>Node24</title>
<g id="a_node24"><a xlink:href="recycling__kokkos__view_8hpp.html" target="_top" xlink:title=" ">
<polygon fill="white" stroke="black" points="650,-201.5 650,-242.5 793,-242.5 793,-201.5 650,-201.5"/>
<text text-anchor="start" x="658" y="-230.5" font-family="Helvetica,sans-Serif" font-size="10.00">include/cppuddle/memory</text>
<text text-anchor="start" x="658" y="-219.5" font-family="Helvetica,sans-Serif" font-size="10.00">_recycling/util/recycling</text>
<text text-anchor="middle" x="721.5" y="-208.5" font-family="Helvetica,sans-Serif" font-size="10.00">_kokkos_view.hpp</text>
</a>
</g>
</g>
<!-- Node1&#45;&gt;Node24 -->
<g id="edge32" class="edge">
<title>Node1&#45;&gt;Node24</title>
<path fill="none" stroke="midnightblue" d="M998.25,-279.69C934.49,-266.63 851.56,-249.64 793.17,-237.68"/>
<polygon fill="midnightblue" stroke="midnightblue" points="997.82,-283.18 1008.31,-281.75 999.22,-276.32 997.82,-283.18"/>
</g>
<!-- Node3 -->
<g id="node3" class="node">
<title>Node3</title>
<g id="a_node3"><a xlink:href="cuda__buffer__util_8hpp.html" target="_top" xlink:title=" ">
<polygon fill="white" stroke="black" points="439.5,-56.5 439.5,-86.5 551.5,-86.5 551.5,-56.5 439.5,-56.5"/>
<text text-anchor="start" x="447.5" y="-74.5" font-family="Helvetica,sans-Serif" font-size="10.00">include/cuda_buffer</text>
<text text-anchor="middle" x="495.5" y="-63.5" font-family="Helvetica,sans-Serif" font-size="10.00">_util.hpp</text>
</a>
</g>
</g>
<!-- Node2&#45;&gt;Node3 -->
<g id="edge2" class="edge">
<title>Node2&#45;&gt;Node3</title>
<path fill="none" stroke="midnightblue" d="M913.11,-132.07C899.52,-128.87 884.44,-125.55 870.5,-123 758.07,-102.4 625.23,-86.48 551.67,-78.39"/>
<polygon fill="midnightblue" stroke="midnightblue" points="912.62,-135.55 923.16,-134.47 914.25,-128.74 912.62,-135.55"/>
</g>
<!-- Node5 -->
<g id="node5" class="node">
<title>Node5</title>
<g id="a_node5"><a xlink:href="aligned__buffer__util_8hpp.html" target="_top" xlink:title=" ">
<polygon fill="white" stroke="black" points="1624,-129 1624,-159 1749,-159 1749,-129 1624,-129"/>
<text text-anchor="start" x="1632" y="-147" font-family="Helvetica,sans-Serif" font-size="10.00">include/aligned_buffer</text>
<text text-anchor="middle" x="1686.5" y="-136" font-family="Helvetica,sans-Serif" font-size="10.00">_util.hpp</text>
</a>
</g>
</g>
<!-- Node4&#45;&gt;Node5 -->
<g id="edge4" class="edge">
<title>Node4&#45;&gt;Node5</title>
<path fill="none" stroke="midnightblue" d="M1587.97,-196.64C1611.53,-184.3 1639.31,-169.73 1659.36,-159.23"/>
<polygon fill="midnightblue" stroke="midnightblue" points="1586.07,-193.69 1578.84,-201.43 1589.32,-199.89 1586.07,-193.69"/>
</g>
<!-- Node6 -->
<g id="node6" class="node">
<title>Node6</title>
<g id="a_node6"><a xlink:href="allocator__aligned__test_8cpp.html" target="_top" xlink:title=" ">
<polygon fill="white" stroke="black" points="1477.5,-129 1477.5,-159 1605.5,-159 1605.5,-129 1477.5,-129"/>
<text text-anchor="start" x="1485.5" y="-147" font-family="Helvetica,sans-Serif" font-size="10.00">tests/allocator_aligned</text>
<text text-anchor="middle" x="1541.5" y="-136" font-family="Helvetica,sans-Serif" font-size="10.00">_test.cpp</text>
</a>
</g>
</g>
<!-- Node4&#45;&gt;Node6 -->
<g id="edge5" class="edge">
<title>Node4&#45;&gt;Node6</title>
<path fill="none" stroke="midnightblue" d="M1541.5,-191.28C1541.5,-180.25 1541.5,-168.25 1541.5,-159.23"/>
<polygon fill="midnightblue" stroke="midnightblue" points="1538,-191.43 1541.5,-201.43 1545,-191.43 1538,-191.43"/>
</g>
<!-- Node7&#45;&gt;Node3 -->
<g id="edge13" class="edge">
<title>Node7&#45;&gt;Node3</title>
<path fill="none" stroke="midnightblue" d="M384.73,-191.56C390.31,-170.68 400.18,-142.93 416.5,-123 429.18,-107.51 447.91,-95.24 463.96,-86.68"/>
<polygon fill="midnightblue" stroke="midnightblue" points="381.28,-190.94 382.26,-201.49 388.07,-192.63 381.28,-190.94"/>
</g>
<!-- Node8 -->
<g id="node8" class="node">
<title>Node8</title>
<g id="a_node8"><a xlink:href="cuda__recycling__device__buffer_8hpp.html" target="_top" xlink:title="Contains a RAII wrappers for CUDA device buffers. Intended to be used with the recycling allocators b...">
<polygon fill="white" stroke="black" points="170,-123.5 170,-164.5 331,-164.5 331,-123.5 170,-123.5"/>
<text text-anchor="start" x="178" y="-152.5" font-family="Helvetica,sans-Serif" font-size="10.00">include/cppuddle/memory</text>
<text text-anchor="start" x="178" y="-141.5" font-family="Helvetica,sans-Serif" font-size="10.00">_recycling/util/cuda_recycling</text>
<text text-anchor="middle" x="250.5" y="-130.5" font-family="Helvetica,sans-Serif" font-size="10.00">_device_buffer.hpp</text>
</a>
</g>
</g>
<!-- Node7&#45;&gt;Node8 -->
<g id="edge7" class="edge">
<title>Node7&#45;&gt;Node8</title>
<path fill="none" stroke="midnightblue" d="M336.74,-196.2C319.41,-185.92 299.61,-174.16 283.35,-164.51"/>
<polygon fill="midnightblue" stroke="midnightblue" points="335.15,-199.33 345.54,-201.43 338.73,-193.31 335.15,-199.33"/>
</g>
<!-- Node9 -->
<g id="node9" class="node">
<title>Node9</title>
<g id="a_node9"><a xlink:href="stream__test_8hpp.html" target="_top" xlink:title=" ">
<polygon fill="white" stroke="black" points="298,-62 298,-81 421,-81 421,-62 298,-62"/>
<text text-anchor="middle" x="359.5" y="-69" font-family="Helvetica,sans-Serif" font-size="10.00">tests/stream_test.hpp</text>
</a>
</g>
</g>
<!-- Node7&#45;&gt;Node9 -->
<g id="edge16" class="edge">
<title>Node7&#45;&gt;Node9</title>
<path fill="none" stroke="midnightblue" d="M374.7,-191.33C370.31,-156.97 363.32,-102.39 360.62,-81.26"/>
<polygon fill="midnightblue" stroke="midnightblue" points="371.24,-191.81 375.98,-201.28 378.18,-190.92 371.24,-191.81"/>
</g>
<!-- Node11 -->
<g id="node11" class="node">
<title>Node11</title>
<g id="a_node11"><a xlink:href="work__aggregation__cuda__triad_8cpp.html" target="_top" xlink:title=" ">
<polygon fill="white" stroke="black" points="0,-56.5 0,-86.5 131,-86.5 131,-56.5 0,-56.5"/>
<text text-anchor="start" x="8" y="-74.5" font-family="Helvetica,sans-Serif" font-size="10.00">tests/work_aggregation</text>
<text text-anchor="middle" x="65.5" y="-63.5" font-family="Helvetica,sans-Serif" font-size="10.00">_cuda_triad.cpp</text>
</a>
</g>
</g>
<!-- Node7&#45;&gt;Node11 -->
<g id="edge17" class="edge">
<title>Node7&#45;&gt;Node11</title>
<path fill="none" stroke="midnightblue" d="M296.87,-212.95C251.03,-205.6 194.23,-191.61 149.5,-165 115.94,-145.04 88.05,-107.42 74.44,-86.84"/>
<polygon fill="midnightblue" stroke="midnightblue" points="296.36,-216.41 306.77,-214.46 297.42,-209.49 296.36,-216.41"/>
</g>
<!-- Node12 -->
<g id="node12" class="node">
<title>Node12</title>
<g id="a_node12"><a xlink:href="work__aggregation__test_8cpp.html" target="_top" xlink:title=" ">
<polygon fill="white" stroke="black" points="149,-56.5 149,-86.5 280,-86.5 280,-56.5 149,-56.5"/>
<text text-anchor="start" x="157" y="-74.5" font-family="Helvetica,sans-Serif" font-size="10.00">tests/work_aggregation</text>
<text text-anchor="middle" x="214.5" y="-63.5" font-family="Helvetica,sans-Serif" font-size="10.00">_test.cpp</text>
</a>
</g>
</g>
<!-- Node7&#45;&gt;Node12 -->
<g id="edge18" class="edge">
<title>Node7&#45;&gt;Node12</title>
<path fill="none" stroke="midnightblue" d="M296.79,-210.51C242.21,-201.64 177.44,-186.84 160.5,-165 149.06,-150.25 153.07,-140.12 160.5,-123 166.99,-108.05 180.33,-95.5 192.13,-86.65"/>
<polygon fill="midnightblue" stroke="midnightblue" points="296.42,-214 306.84,-212.1 297.51,-207.08 296.42,-214"/>
</g>
<!-- Node13 -->
<g id="node13" class="node">
<title>Node13</title>
<g id="a_node13"><a xlink:href="allocator__kokkos__executor__for__loop__test_8cpp.html" target="_top" xlink:title=" ">
<polygon fill="white" stroke="black" points="566,-129 566,-159 719,-159 719,-129 566,-129"/>
<text text-anchor="start" x="574" y="-147" font-family="Helvetica,sans-Serif" font-size="10.00">tests/allocator_kokkos</text>
<text text-anchor="middle" x="642.5" y="-136" font-family="Helvetica,sans-Serif" font-size="10.00">_executor_for_loop_test.cpp</text>
</a>
</g>
</g>
<!-- Node7&#45;&gt;Node13 -->
<g id="edge14" class="edge">
<title>Node7&#45;&gt;Node13</title>
<path fill="none" stroke="midnightblue" d="M456.1,-198.66C500.54,-185.87 554.96,-170.2 593.5,-159.11"/>
<polygon fill="midnightblue" stroke="midnightblue" points="455.13,-195.3 446.49,-201.43 457.06,-202.03 455.13,-195.3"/>
</g>
<!-- Node14 -->
<g id="node14" class="node">
<title>Node14</title>
<g id="a_node14"><a xlink:href="allocator__kokkos__test_8cpp.html" target="_top" xlink:title=" ">
<polygon fill="white" stroke="black" points="737,-129 737,-159 862,-159 862,-129 737,-129"/>
<text text-anchor="start" x="745" y="-147" font-family="Helvetica,sans-Serif" font-size="10.00">tests/allocator_kokkos</text>
<text text-anchor="middle" x="799.5" y="-136" font-family="Helvetica,sans-Serif" font-size="10.00">_test.cpp</text>
</a>
</g>
</g>
<!-- Node7&#45;&gt;Node14 -->
<g id="edge15" class="edge">
<title>Node7&#45;&gt;Node14</title>
<path fill="none" stroke="midnightblue" d="M460.35,-210.5C531.39,-200.77 636.79,-184.81 727.5,-165 735.36,-163.28 743.63,-161.23 751.66,-159.09"/>
<polygon fill="midnightblue" stroke="midnightblue" points="459.56,-207.08 450.12,-211.89 460.5,-214.01 459.56,-207.08"/>
</g>
<!-- Node8&#45;&gt;Node3 -->
<g id="edge8" class="edge">
<title>Node8&#45;&gt;Node3</title>
<path fill="none" stroke="midnightblue" d="M328.12,-120.66C366.9,-109.5 412.65,-96.34 446.51,-86.6"/>
<polygon fill="midnightblue" stroke="midnightblue" points="327.06,-117.33 318.42,-123.46 329,-124.05 327.06,-117.33"/>
</g>
<!-- Node8&#45;&gt;Node9 -->
<g id="edge9" class="edge">
<title>Node8&#45;&gt;Node9</title>
<path fill="none" stroke="midnightblue" d="M289.42,-117.83C309.22,-105.02 332.01,-90.28 346.09,-81.17"/>
<polygon fill="midnightblue" stroke="midnightblue" points="287.36,-114.99 280.86,-123.36 291.16,-120.87 287.36,-114.99"/>
</g>
<!-- Node8&#45;&gt;Node11 -->
<g id="edge11" class="edge">
<title>Node8&#45;&gt;Node11</title>
<path fill="none" stroke="midnightblue" d="M189.4,-119.72C160.63,-108.75 127.25,-96.03 102.39,-86.56"/>
<polygon fill="midnightblue" stroke="midnightblue" points="188.38,-123.07 198.97,-123.36 190.87,-116.53 188.38,-123.07"/>
</g>
<!-- Node8&#45;&gt;Node12 -->
<g id="edge12" class="edge">
<title>Node8&#45;&gt;Node12</title>
<path fill="none" stroke="midnightblue" d="M235.82,-114.26C231.01,-104.84 225.88,-94.78 221.85,-86.89"/>
<polygon fill="midnightblue" stroke="midnightblue" points="232.81,-116.05 240.47,-123.36 239.04,-112.86 232.81,-116.05"/>
</g>
<!-- Node10 -->
<g id="node10" class="node">
<title>Node10</title>
<g id="a_node10"><a xlink:href="stream__test_8cpp.html" target="_top" xlink:title=" ">
<polygon fill="white" stroke="black" points="298.5,-0.5 298.5,-19.5 420.5,-19.5 420.5,-0.5 298.5,-0.5"/>
<text text-anchor="middle" x="359.5" y="-7.5" font-family="Helvetica,sans-Serif" font-size="10.00">tests/stream_test.cpp</text>
</a>
</g>
</g>
<!-- Node9&#45;&gt;Node10 -->
<g id="edge10" class="edge">
<title>Node9&#45;&gt;Node10</title>
<path fill="none" stroke="midnightblue" d="M359.5,-51.82C359.5,-41 359.5,-27.9 359.5,-19.51"/>
<polygon fill="midnightblue" stroke="midnightblue" points="356,-51.98 359.5,-61.98 363,-51.98 356,-51.98"/>
</g>
<!-- Node15&#45;&gt;Node2 -->
<g id="edge20" class="edge">
<title>Node15&#45;&gt;Node2</title>
<path fill="none" stroke="midnightblue" d="M1048.42,-196.37C1022.08,-181.65 990.26,-163.87 971.8,-153.55"/>
<polygon fill="midnightblue" stroke="midnightblue" points="1047.04,-199.61 1057.48,-201.43 1050.45,-193.49 1047.04,-199.61"/>
</g>
<!-- Node15&#45;&gt;Node13 -->
<g id="edge22" class="edge">
<title>Node15&#45;&gt;Node13</title>
<path fill="none" stroke="midnightblue" d="M1010.66,-210.33C936.48,-200.2 824.27,-183.78 727.5,-165 718.42,-163.24 708.84,-161.18 699.52,-159.07"/>
<polygon fill="midnightblue" stroke="midnightblue" points="1010.49,-213.83 1020.87,-211.71 1011.44,-206.9 1010.49,-213.83"/>
</g>
<!-- Node15&#45;&gt;Node14 -->
<g id="edge24" class="edge">
<title>Node15&#45;&gt;Node14</title>
<path fill="none" stroke="midnightblue" d="M1010.89,-200.79C969.14,-190.33 917.54,-177.23 871.5,-165 864.35,-163.1 856.82,-161.06 849.43,-159.03"/>
<polygon fill="midnightblue" stroke="midnightblue" points="1010.18,-204.22 1020.73,-203.25 1011.88,-197.43 1010.18,-204.22"/>
</g>
<!-- Node16 -->
<g id="node16" class="node">
<title>Node16</title>
<g id="a_node16"><a xlink:href="allocator__hpx__test_8cpp.html" target="_top" xlink:title=" ">
<polygon fill="white" stroke="black" points="1050.5,-129 1050.5,-159 1160.5,-159 1160.5,-129 1050.5,-129"/>
<text text-anchor="start" x="1058.5" y="-147" font-family="Helvetica,sans-Serif" font-size="10.00">tests/allocator_hpx</text>
<text text-anchor="middle" x="1105.5" y="-136" font-family="Helvetica,sans-Serif" font-size="10.00">_test.cpp</text>
</a>
</g>
</g>
<!-- Node15&#45;&gt;Node16 -->
<g id="edge21" class="edge">
<title>Node15&#45;&gt;Node16</title>
<path fill="none" stroke="midnightblue" d="M1097.58,-191.28C1099.47,-180.25 1101.52,-168.25 1103.07,-159.23"/>
<polygon fill="midnightblue" stroke="midnightblue" points="1094.08,-190.98 1095.85,-201.43 1100.98,-192.16 1094.08,-190.98"/>
</g>
<!-- Node17 -->
<g id="node17" class="node">
<title>Node17</title>
<g id="a_node17"><a xlink:href="allocator__test_8cpp.html" target="_top" xlink:title=" ">
<polygon fill="white" stroke="black" points="1179,-134.5 1179,-153.5 1310,-153.5 1310,-134.5 1179,-134.5"/>
<text text-anchor="middle" x="1244.5" y="-141.5" font-family="Helvetica,sans-Serif" font-size="10.00">tests/allocator_test.cpp</text>
</a>
</g>
</g>
<!-- Node15&#45;&gt;Node17 -->
<g id="edge23" class="edge">
<title>Node15&#45;&gt;Node17</title>
<path fill="none" stroke="midnightblue" d="M1140.61,-196.94C1170.27,-182.12 1206.5,-164 1227.4,-153.55"/>
<polygon fill="midnightblue" stroke="midnightblue" points="1139.02,-193.83 1131.64,-201.43 1142.15,-200.09 1139.02,-193.83"/>
</g>
<!-- Node18 -->
<g id="node18" class="node">
<title>Node18</title>
<g id="a_node18"><a xlink:href="work__aggregation__cpu__triad_8cpp.html" target="_top" xlink:title=" ">
<polygon fill="white" stroke="black" points="1328,-129 1328,-159 1459,-159 1459,-129 1328,-129"/>
<text text-anchor="start" x="1336" y="-147" font-family="Helvetica,sans-Serif" font-size="10.00">tests/work_aggregation</text>
<text text-anchor="middle" x="1393.5" y="-136" font-family="Helvetica,sans-Serif" font-size="10.00">_cpu_triad.cpp</text>
</a>
</g>
</g>
<!-- Node15&#45;&gt;Node18 -->
<g id="edge25" class="edge">
<title>Node15&#45;&gt;Node18</title>
<path fill="none" stroke="midnightblue" d="M1173.94,-201.19C1216.97,-190.63 1270.65,-177.31 1318.5,-165 1325.81,-163.12 1333.51,-161.11 1341.08,-159.11"/>
<polygon fill="midnightblue" stroke="midnightblue" points="1172.96,-197.82 1164.09,-203.61 1174.63,-204.62 1172.96,-197.82"/>
</g>
<!-- Node20 -->
<g id="node20" class="node">
<title>Node20</title>
<g id="a_node20"><a xlink:href="hip__recycling__device__buffer_8hpp.html" target="_top" xlink:title=" ">
<polygon fill="white" stroke="black" points="1805.5,-123.5 1805.5,-164.5 1957.5,-164.5 1957.5,-123.5 1805.5,-123.5"/>
<text text-anchor="start" x="1813.5" y="-152.5" font-family="Helvetica,sans-Serif" font-size="10.00">include/cppuddle/memory</text>
<text text-anchor="start" x="1813.5" y="-141.5" font-family="Helvetica,sans-Serif" font-size="10.00">_recycling/util/hip_recycling</text>
<text text-anchor="middle" x="1881.5" y="-130.5" font-family="Helvetica,sans-Serif" font-size="10.00">_device_buffer.hpp</text>
</a>
</g>
</g>
<!-- Node19&#45;&gt;Node20 -->
<g id="edge27" class="edge">
<title>Node19&#45;&gt;Node20</title>
<path fill="none" stroke="midnightblue" d="M1812.6,-195.35C1826.39,-185.27 1841.96,-173.89 1854.81,-164.51"/>
<polygon fill="midnightblue" stroke="midnightblue" points="1810.29,-192.7 1804.28,-201.43 1814.42,-198.35 1810.29,-192.7"/>
</g>
<!-- Node21 -->
<g id="node21" class="node">
<title>Node21</title>
<g id="a_node21"><a xlink:href="hip__buffer__util_8hpp.html" target="_top" xlink:title=" ">
<polygon fill="white" stroke="black" points="1777.5,-56.5 1777.5,-86.5 1881.5,-86.5 1881.5,-56.5 1777.5,-56.5"/>
<text text-anchor="start" x="1785.5" y="-74.5" font-family="Helvetica,sans-Serif" font-size="10.00">include/hip_buffer</text>
<text text-anchor="middle" x="1829.5" y="-63.5" font-family="Helvetica,sans-Serif" font-size="10.00">_util.hpp</text>
</a>
</g>
</g>
<!-- Node19&#45;&gt;Node21 -->
<g id="edge29" class="edge">
<title>Node19&#45;&gt;Node21</title>
<path fill="none" stroke="midnightblue" d="M1780.25,-191.19C1782.8,-171.32 1787.61,-144.92 1796.5,-123 1801.85,-109.8 1810.83,-96.37 1818.07,-86.68"/>
<polygon fill="midnightblue" stroke="midnightblue" points="1776.76,-190.87 1779.08,-201.21 1783.71,-191.69 1776.76,-190.87"/>
</g>
<!-- Node20&#45;&gt;Node21 -->
<g id="edge28" class="edge">
<title>Node20&#45;&gt;Node21</title>
<path fill="none" stroke="midnightblue" d="M1860.95,-115.14C1853.82,-105.47 1846.11,-95.02 1840.12,-86.89"/>
<polygon fill="midnightblue" stroke="midnightblue" points="1858.26,-117.39 1867.02,-123.36 1863.9,-113.24 1858.26,-117.39"/>
</g>
<!-- Node23 -->
<g id="node23" class="node">
<title>Node23</title>
<g id="a_node23"><a xlink:href="sycl__buffer__util_8hpp.html" target="_top" xlink:title=" ">
<polygon fill="white" stroke="black" points="1975.5,-129 1975.5,-159 2083.5,-159 2083.5,-129 1975.5,-129"/>
<text text-anchor="start" x="1983.5" y="-147" font-family="Helvetica,sans-Serif" font-size="10.00">include/sycl_buffer</text>
<text text-anchor="middle" x="2029.5" y="-136" font-family="Helvetica,sans-Serif" font-size="10.00">_util.hpp</text>
</a>
</g>
</g>
<!-- Node22&#45;&gt;Node23 -->
<g id="edge31" class="edge">
<title>Node22&#45;&gt;Node23</title>
<path fill="none" stroke="midnightblue" d="M2000.66,-192.64C2007.56,-181.25 2015.21,-168.62 2020.89,-159.23"/>
<polygon fill="midnightblue" stroke="midnightblue" points="1997.53,-191.06 1995.35,-201.43 2003.52,-194.69 1997.53,-191.06"/>
</g>
<!-- Node24&#45;&gt;Node13 -->
<g id="edge34" class="edge">
<title>Node24&#45;&gt;Node13</title>
<path fill="none" stroke="midnightblue" d="M693.77,-194.32C681.49,-182.51 667.53,-169.08 657.29,-159.23"/>
<polygon fill="midnightblue" stroke="midnightblue" points="691.52,-197.02 701.16,-201.43 696.38,-191.97 691.52,-197.02"/>
</g>
<!-- Node24&#45;&gt;Node14 -->
<g id="edge35" class="edge">
<title>Node24&#45;&gt;Node14</title>
<path fill="none" stroke="midnightblue" d="M748.88,-194.32C761.01,-182.51 774.78,-169.08 784.9,-159.23"/>
<polygon fill="midnightblue" stroke="midnightblue" points="746.31,-191.94 741.59,-201.43 751.19,-196.96 746.31,-191.94"/>
</g>
<!-- Node25 -->
<g id="node25" class="node">
<title>Node25</title>
<g id="a_node25"><a xlink:href="kokkos__buffer__util_8hpp.html" target="_top" xlink:title=" ">
<polygon fill="white" stroke="black" points="425.5,-129 425.5,-159 547.5,-159 547.5,-129 425.5,-129"/>
<text text-anchor="start" x="433.5" y="-147" font-family="Helvetica,sans-Serif" font-size="10.00">include/kokkos_buffer</text>
<text text-anchor="middle" x="486.5" y="-136" font-family="Helvetica,sans-Serif" font-size="10.00">_util.hpp</text>
</a>
</g>
</g>
<!-- Node24&#45;&gt;Node25 -->
<g id="edge33" class="edge">
<title>Node24&#45;&gt;Node25</title>
<path fill="none" stroke="midnightblue" d="M651.18,-198.26C611.85,-185.54 564.06,-170.08 530.12,-159.11"/>
<polygon fill="midnightblue" stroke="midnightblue" points="650.39,-201.68 660.98,-201.43 652.54,-195.02 650.39,-201.68"/>
</g>
</g>
</svg>
