<?xml version="1.0" encoding="UTF-8" standalone="no"?>
<!DOCTYPE svg PUBLIC "-//W3C//DTD SVG 1.1//EN"
 "http://www.w3.org/Graphics/SVG/1.1/DTD/svg11.dtd">
<!-- Generated by graphviz version 2.43.0 (0)
 -->
<!-- Title: include/cppuddle/memory_recycling/detail/buffer_management.hpp Pages: 1 -->
<svg width="988pt" height="162pt"
 viewBox="0.00 0.00 988.00 162.00" xmlns="http://www.w3.org/2000/svg" xmlns:xlink="http://www.w3.org/1999/xlink">
<g id="graph0" class="graph" transform="scale(1 1) rotate(0) translate(4 158)">
<title>include/cppuddle/memory_recycling/detail/buffer_management.hpp</title>
<polygon fill="white" stroke="transparent" points="-4,4 -4,-158 984,-158 984,4 -4,4"/>
<!-- Node1 -->
<g id="node1" class="node">
<title>Node1</title>
<g id="a_node1"><a xlink:title=" ">
<polygon fill="#bfbfbf" stroke="black" points="335.5,-112.5 335.5,-153.5 478.5,-153.5 478.5,-112.5 335.5,-112.5"/>
<text text-anchor="start" x="343.5" y="-141.5" font-family="Helvetica,sans-Serif" font-size="10.00">include/cppuddle/memory</text>
<text text-anchor="start" x="343.5" y="-130.5" font-family="Helvetica,sans-Serif" font-size="10.00">_recycling/detail/buffer</text>
<text text-anchor="middle" x="407" y="-119.5" font-family="Helvetica,sans-Serif" font-size="10.00">_management.hpp</text>
</a>
</g>
</g>
<!-- Node2 -->
<g id="node2" class="node">
<title>Node2</title>
<g id="a_node2"><a xlink:title=" ">
<polygon fill="white" stroke="#bfbfbf" points="0,-56.5 0,-75.5 50,-75.5 50,-56.5 0,-56.5"/>
<text text-anchor="middle" x="25" y="-63.5" font-family="Helvetica,sans-Serif" font-size="10.00">atomic</text>
</a>
</g>
</g>
<!-- Node1&#45;&gt;Node2 -->
<g id="edge1" class="edge">
<title>Node1&#45;&gt;Node2</title>
<path fill="none" stroke="midnightblue" d="M335.3,-122.58C266.95,-113.12 160.98,-97.21 60.23,-76.09"/>
<polygon fill="midnightblue" stroke="midnightblue" points="60.69,-72.61 50.18,-73.96 59.24,-79.46 60.69,-72.61"/>
</g>
<!-- Node3 -->
<g id="node3" class="node">
<title>Node3</title>
<g id="a_node3"><a xlink:title=" ">
<polygon fill="white" stroke="#bfbfbf" points="68,-56.5 68,-75.5 120,-75.5 120,-56.5 68,-56.5"/>
<text text-anchor="middle" x="94" y="-63.5" font-family="Helvetica,sans-Serif" font-size="10.00">cassert</text>
</a>
</g>
</g>
<!-- Node1&#45;&gt;Node3 -->
<g id="edge2" class="edge">
<title>Node1&#45;&gt;Node3</title>
<path fill="none" stroke="midnightblue" d="M335.36,-118.65C281.5,-108.36 205.68,-93.36 130.46,-76.25"/>
<polygon fill="midnightblue" stroke="midnightblue" points="130.87,-72.75 120.34,-73.93 129.3,-79.57 130.87,-72.75"/>
</g>
<!-- Node4 -->
<g id="node4" class="node">
<title>Node4</title>
<g id="a_node4"><a xlink:title=" ">
<polygon fill="white" stroke="#bfbfbf" points="138.5,-56.5 138.5,-75.5 203.5,-75.5 203.5,-56.5 138.5,-56.5"/>
<text text-anchor="middle" x="171" y="-63.5" font-family="Helvetica,sans-Serif" font-size="10.00">functional</text>
</a>
</g>
</g>
<!-- Node1&#45;&gt;Node4 -->
<g id="edge3" class="edge">
<title>Node1&#45;&gt;Node4</title>
<path fill="none" stroke="midnightblue" d="M336.19,-112.5C295.54,-101.3 245.93,-87.64 211.75,-78.22"/>
<polygon fill="midnightblue" stroke="midnightblue" points="212.68,-74.85 202.11,-75.57 210.82,-81.6 212.68,-74.85"/>
</g>
<!-- Node5 -->
<g id="node5" class="node">
<title>Node5</title>
<g id="a_node5"><a xlink:title=" ">
<polygon fill="white" stroke="#bfbfbf" points="222,-56.5 222,-75.5 282,-75.5 282,-56.5 222,-56.5"/>
<text text-anchor="middle" x="252" y="-63.5" font-family="Helvetica,sans-Serif" font-size="10.00">iostream</text>
</a>
</g>
</g>
<!-- Node1&#45;&gt;Node5 -->
<g id="edge4" class="edge">
<title>Node1&#45;&gt;Node5</title>
<path fill="none" stroke="midnightblue" d="M360.49,-112.5C335.02,-101.81 304.19,-88.89 281.91,-79.54"/>
<polygon fill="midnightblue" stroke="midnightblue" points="283.21,-76.29 272.63,-75.65 280.5,-82.75 283.21,-76.29"/>
</g>
<!-- Node6 -->
<g id="node6" class="node">
<title>Node6</title>
<g id="a_node6"><a xlink:title=" ">
<polygon fill="white" stroke="#bfbfbf" points="300,-56.5 300,-75.5 332,-75.5 332,-56.5 300,-56.5"/>
<text text-anchor="middle" x="316" y="-63.5" font-family="Helvetica,sans-Serif" font-size="10.00">list</text>
</a>
</g>
</g>
<!-- Node1&#45;&gt;Node6 -->
<g id="edge5" class="edge">
<title>Node1&#45;&gt;Node6</title>
<path fill="none" stroke="midnightblue" d="M379.7,-112.5C365.74,-102.53 349.06,-90.61 336.27,-81.48"/>
<polygon fill="midnightblue" stroke="midnightblue" points="338.29,-78.62 328.11,-75.65 334.22,-84.31 338.29,-78.62"/>
</g>
<!-- Node7 -->
<g id="node7" class="node">
<title>Node7</title>
<g id="a_node7"><a xlink:title=" ">
<polygon fill="white" stroke="#bfbfbf" points="350,-56.5 350,-75.5 408,-75.5 408,-56.5 350,-56.5"/>
<text text-anchor="middle" x="379" y="-63.5" font-family="Helvetica,sans-Serif" font-size="10.00">memory</text>
</a>
</g>
</g>
<!-- Node1&#45;&gt;Node7 -->
<g id="edge6" class="edge">
<title>Node1&#45;&gt;Node7</title>
<path fill="none" stroke="midnightblue" d="M398.6,-112.5C394.84,-103.78 390.44,-93.56 386.76,-85.02"/>
<polygon fill="midnightblue" stroke="midnightblue" points="389.9,-83.45 382.73,-75.65 383.47,-86.22 389.9,-83.45"/>
</g>
<!-- Node8 -->
<g id="node8" class="node">
<title>Node8</title>
<g id="a_node8"><a xlink:title=" ">
<polygon fill="white" stroke="#bfbfbf" points="644,-0.5 644,-19.5 692,-19.5 692,-0.5 644,-0.5"/>
<text text-anchor="middle" x="668" y="-7.5" font-family="Helvetica,sans-Serif" font-size="10.00">mutex</text>
</a>
</g>
</g>
<!-- Node1&#45;&gt;Node8 -->
<g id="edge7" class="edge">
<title>Node1&#45;&gt;Node8</title>
<path fill="none" stroke="midnightblue" d="M414.25,-112.3C421.74,-94.76 435.14,-69.81 455,-56 509.29,-18.23 588.87,-11.07 633.81,-10.32"/>
<polygon fill="midnightblue" stroke="midnightblue" points="633.94,-13.82 643.92,-10.25 633.89,-6.82 633.94,-13.82"/>
</g>
<!-- Node9 -->
<g id="node9" class="node">
<title>Node9</title>
<g id="a_node9"><a xlink:title=" ">
<polygon fill="white" stroke="#bfbfbf" points="464,-56.5 464,-75.5 520,-75.5 520,-56.5 464,-56.5"/>
<text text-anchor="middle" x="492" y="-63.5" font-family="Helvetica,sans-Serif" font-size="10.00">optional</text>
</a>
</g>
</g>
<!-- Node1&#45;&gt;Node9 -->
<g id="edge8" class="edge">
<title>Node1&#45;&gt;Node9</title>
<path fill="none" stroke="midnightblue" d="M432.5,-112.5C445.41,-102.63 460.82,-90.84 472.72,-81.74"/>
<polygon fill="midnightblue" stroke="midnightblue" points="474.87,-84.51 480.69,-75.65 470.62,-78.95 474.87,-84.51"/>
</g>
<!-- Node10 -->
<g id="node10" class="node">
<title>Node10</title>
<g id="a_node10"><a xlink:title=" ">
<polygon fill="white" stroke="#bfbfbf" points="538.5,-56.5 538.5,-75.5 603.5,-75.5 603.5,-56.5 538.5,-56.5"/>
<text text-anchor="middle" x="571" y="-63.5" font-family="Helvetica,sans-Serif" font-size="10.00">stdexcept</text>
</a>
</g>
</g>
<!-- Node1&#45;&gt;Node10 -->
<g id="edge9" class="edge">
<title>Node1&#45;&gt;Node10</title>
<path fill="none" stroke="midnightblue" d="M456.21,-112.5C483.28,-101.77 516.07,-88.77 539.67,-79.42"/>
<polygon fill="midnightblue" stroke="midnightblue" points="541.16,-82.59 549.17,-75.65 538.58,-76.08 541.16,-82.59"/>
</g>
<!-- Node11 -->
<g id="node11" class="node">
<title>Node11</title>
<g id="a_node11"><a xlink:title=" ">
<polygon fill="white" stroke="#bfbfbf" points="621.5,-56.5 621.5,-75.5 690.5,-75.5 690.5,-56.5 621.5,-56.5"/>
<text text-anchor="middle" x="656" y="-63.5" font-family="Helvetica,sans-Serif" font-size="10.00">type_traits</text>
</a>
</g>
</g>
<!-- Node1&#45;&gt;Node11 -->
<g id="edge10" class="edge">
<title>Node1&#45;&gt;Node11</title>
<path fill="none" stroke="midnightblue" d="M478.69,-113.29C522.29,-101.91 576.49,-87.75 613.42,-78.12"/>
<polygon fill="midnightblue" stroke="midnightblue" points="614.56,-81.44 623.35,-75.52 612.79,-74.66 614.56,-81.44"/>
</g>
<!-- Node12 -->
<g id="node12" class="node">
<title>Node12</title>
<g id="a_node12"><a xlink:title=" ">
<polygon fill="white" stroke="#bfbfbf" points="708.5,-56.5 708.5,-75.5 801.5,-75.5 801.5,-56.5 708.5,-56.5"/>
<text text-anchor="middle" x="755" y="-63.5" font-family="Helvetica,sans-Serif" font-size="10.00">unordered_map</text>
</a>
</g>
</g>
<!-- Node1&#45;&gt;Node12 -->
<g id="edge11" class="edge">
<title>Node1&#45;&gt;Node12</title>
<path fill="none" stroke="midnightblue" d="M478.68,-118.61C544.14,-106.39 639.55,-88.56 699.41,-77.38"/>
<polygon fill="midnightblue" stroke="midnightblue" points="700.24,-80.79 709.42,-75.51 698.95,-73.91 700.24,-80.79"/>
</g>
<!-- Node13 -->
<g id="node13" class="node">
<title>Node13</title>
<g id="a_node13"><a xlink:href="config_8hpp.html" target="_top" xlink:title=" ">
<polygon fill="white" stroke="black" points="820,-56.5 820,-75.5 980,-75.5 980,-56.5 820,-56.5"/>
<text text-anchor="middle" x="900" y="-63.5" font-family="Helvetica,sans-Serif" font-size="10.00">cppuddle/common/config.hpp</text>
</a>
</g>
</g>
<!-- Node1&#45;&gt;Node13 -->
<g id="edge12" class="edge">
<title>Node1&#45;&gt;Node13</title>
<path fill="none" stroke="midnightblue" d="M478.69,-122.55C571.19,-110.35 731.36,-89.23 825.3,-76.85"/>
<polygon fill="midnightblue" stroke="midnightblue" points="825.84,-80.31 835.3,-75.53 824.93,-73.37 825.84,-80.31"/>
</g>
<!-- Node13&#45;&gt;Node8 -->
<g id="edge13" class="edge">
<title>Node13&#45;&gt;Node8</title>
<path fill="none" stroke="midnightblue" d="M863.24,-56.44C818.98,-46.14 745.23,-28.97 702.16,-18.95"/>
<polygon fill="midnightblue" stroke="midnightblue" points="702.7,-15.48 692.16,-16.62 701.11,-22.3 702.7,-15.48"/>
</g>
</g>
</svg>
