<?xml version="1.0" encoding="UTF-8" standalone="no"?>
<!DOCTYPE svg PUBLIC "-//W3C//DTD SVG 1.1//EN"
 "http://www.w3.org/Graphics/SVG/1.1/DTD/svg11.dtd">
<!-- Generated by graphviz version 2.43.0 (0)
 -->
<!-- Title: include/cppuddle/memory_recycling/detail/buffer_management.hpp Pages: 1 -->
<!--zoomable 407 -->
<svg id="main" version="1.1" xmlns="http://www.w3.org/2000/svg" xmlns:xlink="http://www.w3.org/1999/xlink" xml:space="preserve" onload="init(evt)">
<style type="text/css"><![CDATA[
.edge:hover path { stroke: red; }
.edge:hover polygon { stroke: red; fill: red; }
]]></style>
<script type="text/javascript"><![CDATA[
var edges = document.getElementsByTagName('g');
if (edges && edges.length) {
  for (var i=0;i<edges.length;i++) {
    if (edges[i].id.substr(0,4)=='edge') {
      edges[i].setAttribute('class','edge');
    }
  }
}
]]></script>
        <defs>
                <circle id="rim" cx="0" cy="0" r="7"/>
                <circle id="rim2" cx="0" cy="0" r="3.5"/>
                <g id="zoomPlus">
                        <use xlink:href="#rim" fill="#404040">
                                <set attributeName="fill" to="#808080" begin="zoomplus.mouseover" end="zoomplus.mouseout"/>
                        </use>
                        <path d="M-4,0h8M0,-4v8" fill="none" stroke="white" stroke-width="1.5" pointer-events="none"/>
                </g>
                <g id="zoomMin">
                        <use xlink:href="#rim" fill="#404040">
                                <set attributeName="fill" to="#808080" begin="zoomminus.mouseover" end="zoomminus.mouseout"/>
                        </use>
                        <path d="M-4,0h8" fill="none" stroke="white" stroke-width="1.5" pointer-events="none"/>
                </g>
                <g id="dirArrow">
                        <path fill="none" stroke="white" stroke-width="1.5" d="M0,-3.0v7 M-2.5,-0.5L0,-3.0L2.5,-0.5"/>
                </g>
               <g id="resetDef">
                       <use xlink:href="#rim2" fill="#404040">
                               <set attributeName="fill" to="#808080" begin="reset.mouseover" end="reset.mouseout"/>
                       </use>
               </g>
        </defs>

<script type="text/javascript">
var viewWidth = 2083;
var viewHeight = 407;
var sectionId = 'dynsection-1';
</script>
<script xlink:href="svgpan.js"/>
<svg id="graph" class="graph">
<g id="viewport">
<title>include/cppuddle/memory_recycling/detail/buffer_management.hpp</title>
<polygon fill="white" stroke="transparent" points="-4,4 -4,-403 2078.5,-403 2078.5,4 -4,4"/>
<!-- Node1 -->
<g id="node1" class="node">
<title>Node1</title>
<g id="a_node1"><a xlink:title=" ">
<polygon fill="#bfbfbf" stroke="black" points="224,-357.5 224,-398.5 367,-398.5 367,-357.5 224,-357.5"/>
<text text-anchor="start" x="232" y="-386.5" font-family="Helvetica,sans-Serif" font-size="10.00">include/cppuddle/memory</text>
<text text-anchor="start" x="232" y="-375.5" font-family="Helvetica,sans-Serif" font-size="10.00">_recycling/detail/buffer</text>
<text text-anchor="middle" x="295.5" y="-364.5" font-family="Helvetica,sans-Serif" font-size="10.00">_management.hpp</text>
</a>
</g>
</g>
<!-- Node2 -->
<g id="node2" class="node">
<title>Node2</title>
<g id="a_node2"><a xlink:href="buffer__manager_8hpp.html" target="_top" xlink:title=" ">
<polygon fill="white" stroke="black" points="195.5,-134.5 195.5,-153.5 347.5,-153.5 347.5,-134.5 195.5,-134.5"/>
<text text-anchor="middle" x="271.5" y="-141.5" font-family="Helvetica,sans-Serif" font-size="10.00">include/buffer_manager.hpp</text>
</a>
</g>
</g>
<!-- Node1&#45;&gt;Node2 -->
<g id="edge1" class="edge">
<title>Node1&#45;&gt;Node2</title>
<path fill="none" stroke="midnightblue" d="M292.4,-347.02C286.88,-293.64 275.61,-184.78 272.38,-153.55"/>
<polygon fill="midnightblue" stroke="midnightblue" points="288.94,-347.63 293.45,-357.22 295.91,-346.91 288.94,-347.63"/>
</g>
<!-- Node4 -->
<g id="node4" class="node">
<title>Node4</title>
<g id="a_node4"><a xlink:href="buffer__management__interface_8hpp.html" target="_top" xlink:title=" ">
<polygon fill="white" stroke="black" points="970.5,-279.5 970.5,-320.5 1138.5,-320.5 1138.5,-279.5 970.5,-279.5"/>
<text text-anchor="start" x="978.5" y="-308.5" font-family="Helvetica,sans-Serif" font-size="10.00">include/cppuddle/memory</text>
<text text-anchor="start" x="978.5" y="-297.5" font-family="Helvetica,sans-Serif" font-size="10.00">_recycling/buffer_management</text>
<text text-anchor="middle" x="1054.5" y="-286.5" font-family="Helvetica,sans-Serif" font-size="10.00">_interface.hpp</text>
</a>
</g>
</g>
<!-- Node1&#45;&gt;Node4 -->
<g id="edge3" class="edge">
<title>Node1&#45;&gt;Node4</title>
<path fill="none" stroke="midnightblue" d="M377.43,-368.8C522.67,-354.25 823.79,-324.1 970.5,-309.41"/>
<polygon fill="midnightblue" stroke="midnightblue" points="376.85,-365.34 367.25,-369.82 377.55,-372.3 376.85,-365.34"/>
</g>
<!-- Node27 -->
<g id="node27" class="node">
<title>Node27</title>
<g id="a_node27"><a xlink:href="aggregation__executors__and__allocators_8hpp.html" target="_top" xlink:title=" ">
<polygon fill="white" stroke="black" points="94,-279.5 94,-320.5 267,-320.5 267,-279.5 94,-279.5"/>
<text text-anchor="start" x="102" y="-308.5" font-family="Helvetica,sans-Serif" font-size="10.00">include/cppuddle/kernel</text>
<text text-anchor="start" x="102" y="-297.5" font-family="Helvetica,sans-Serif" font-size="10.00">_aggregation/detail/aggregation</text>
<text text-anchor="middle" x="180.5" y="-286.5" font-family="Helvetica,sans-Serif" font-size="10.00">_executors_and_allocators.hpp</text>
</a>
</g>
</g>
<!-- Node1&#45;&gt;Node27 -->
<g id="edge38" class="edge">
<title>Node1&#45;&gt;Node27</title>
<path fill="none" stroke="midnightblue" d="M257.12,-351.64C241.76,-341.49 224.35,-329.98 210.01,-320.51"/>
<polygon fill="midnightblue" stroke="midnightblue" points="255.61,-354.83 265.88,-357.43 259.47,-348.99 255.61,-354.83"/>
</g>
<!-- Node3 -->
<g id="node3" class="node">
<title>Node3</title>
<g id="a_node3"><a xlink:href="cuda__buffer__util_8hpp.html" target="_top" xlink:title=" ">
<polygon fill="white" stroke="black" points="1248.5,-56.5 1248.5,-86.5 1360.5,-86.5 1360.5,-56.5 1248.5,-56.5"/>
<text text-anchor="start" x="1256.5" y="-74.5" font-family="Helvetica,sans-Serif" font-size="10.00">include/cuda_buffer</text>
<text text-anchor="middle" x="1304.5" y="-63.5" font-family="Helvetica,sans-Serif" font-size="10.00">_util.hpp</text>
</a>
</g>
</g>
<!-- Node2&#45;&gt;Node3 -->
<g id="edge2" class="edge">
<title>Node2&#45;&gt;Node3</title>
<path fill="none" stroke="midnightblue" d="M325.88,-132.73C347.2,-129.08 371.93,-125.31 394.5,-123 768,-84.8 866.19,-135.46 1238.5,-87 1241.76,-86.58 1245.09,-86.07 1248.45,-85.51"/>
<polygon fill="midnightblue" stroke="midnightblue" points="325.28,-129.29 316.03,-134.45 326.48,-136.18 325.28,-129.29"/>
</g>
<!-- Node4&#45;&gt;Node2 -->
<g id="edge4" class="edge">
<title>Node4&#45;&gt;Node2</title>
<path fill="none" stroke="midnightblue" d="M960.06,-297.04C851.55,-292.99 668.85,-280.62 516.5,-243 427.1,-220.92 327.05,-173.1 288.19,-153.57"/>
<polygon fill="midnightblue" stroke="midnightblue" points="960.2,-300.55 970.32,-297.41 960.45,-293.55 960.2,-300.55"/>
</g>
<!-- Node5 -->
<g id="node5" class="node">
<title>Node5</title>
<g id="a_node5"><a xlink:href="aligned__recycling__allocators_8hpp.html" target="_top" xlink:title=" ">
<polygon fill="white" stroke="black" points="1663,-201.5 1663,-242.5 1818,-242.5 1818,-201.5 1663,-201.5"/>
<text text-anchor="start" x="1671" y="-230.5" font-family="Helvetica,sans-Serif" font-size="10.00">include/cppuddle/memory</text>
<text text-anchor="start" x="1671" y="-219.5" font-family="Helvetica,sans-Serif" font-size="10.00">_recycling/aligned_recycling</text>
<text text-anchor="middle" x="1740.5" y="-208.5" font-family="Helvetica,sans-Serif" font-size="10.00">_allocators.hpp</text>
</a>
</g>
</g>
<!-- Node4&#45;&gt;Node5 -->
<g id="edge5" class="edge">
<title>Node4&#45;&gt;Node5</title>
<path fill="none" stroke="midnightblue" d="M1148.66,-288.57C1285.32,-273.43 1536.12,-245.64 1662.84,-231.6"/>
<polygon fill="midnightblue" stroke="midnightblue" points="1148.17,-285.1 1138.62,-289.68 1148.94,-292.06 1148.17,-285.1"/>
</g>
<!-- Node8 -->
<g id="node8" class="node">
<title>Node8</title>
<g id="a_node8"><a xlink:href="cuda__recycling__allocators_8hpp.html" target="_top" xlink:title=" ">
<polygon fill="white" stroke="black" points="1094,-201.5 1094,-242.5 1237,-242.5 1237,-201.5 1094,-201.5"/>
<text text-anchor="start" x="1102" y="-230.5" font-family="Helvetica,sans-Serif" font-size="10.00">include/cppuddle/memory</text>
<text text-anchor="start" x="1102" y="-219.5" font-family="Helvetica,sans-Serif" font-size="10.00">_recycling/cuda_recycling</text>
<text text-anchor="middle" x="1165.5" y="-208.5" font-family="Helvetica,sans-Serif" font-size="10.00">_allocators.hpp</text>
</a>
</g>
</g>
<!-- Node4&#45;&gt;Node8 -->
<g id="edge8" class="edge">
<title>Node4&#45;&gt;Node8</title>
<path fill="none" stroke="midnightblue" d="M1091.55,-273.64C1106.37,-263.49 1123.17,-251.98 1137.01,-242.51"/>
<polygon fill="midnightblue" stroke="midnightblue" points="1089.36,-270.89 1083.09,-279.43 1093.31,-276.67 1089.36,-270.89"/>
</g>
<!-- Node16 -->
<g id="node16" class="node">
<title>Node16</title>
<g id="a_node16"><a xlink:href="std__recycling__allocators_8hpp.html" target="_top" xlink:title=" ">
<polygon fill="white" stroke="black" points="526,-201.5 526,-242.5 669,-242.5 669,-201.5 526,-201.5"/>
<text text-anchor="start" x="534" y="-230.5" font-family="Helvetica,sans-Serif" font-size="10.00">include/cppuddle/memory</text>
<text text-anchor="start" x="534" y="-219.5" font-family="Helvetica,sans-Serif" font-size="10.00">_recycling/std_recycling</text>
<text text-anchor="middle" x="597.5" y="-208.5" font-family="Helvetica,sans-Serif" font-size="10.00">_allocators.hpp</text>
</a>
</g>
</g>
<!-- Node4&#45;&gt;Node16 -->
<g id="edge21" class="edge">
<title>Node4&#45;&gt;Node16</title>
<path fill="none" stroke="midnightblue" d="M960.33,-283.34C873.85,-268.96 747.55,-247.95 669.06,-234.9"/>
<polygon fill="midnightblue" stroke="midnightblue" points="959.97,-286.83 970.41,-285.02 961.12,-279.92 959.97,-286.83"/>
</g>
<!-- Node20 -->
<g id="node20" class="node">
<title>Node20</title>
<g id="a_node20"><a xlink:href="hip__recycling__allocators_8hpp.html" target="_top" xlink:title=" ">
<polygon fill="white" stroke="black" points="1407,-201.5 1407,-242.5 1550,-242.5 1550,-201.5 1407,-201.5"/>
<text text-anchor="start" x="1415" y="-230.5" font-family="Helvetica,sans-Serif" font-size="10.00">include/cppuddle/memory</text>
<text text-anchor="start" x="1415" y="-219.5" font-family="Helvetica,sans-Serif" font-size="10.00">_recycling/hip_recycling</text>
<text text-anchor="middle" x="1478.5" y="-208.5" font-family="Helvetica,sans-Serif" font-size="10.00">_allocators.hpp</text>
</a>
</g>
</g>
<!-- Node4&#45;&gt;Node20 -->
<g id="edge28" class="edge">
<title>Node4&#45;&gt;Node20</title>
<path fill="none" stroke="midnightblue" d="M1148.84,-282.09C1226.86,-268.1 1336.01,-248.54 1406.97,-235.82"/>
<polygon fill="midnightblue" stroke="midnightblue" points="1147.75,-278.73 1138.52,-283.94 1148.98,-285.62 1147.75,-278.73"/>
</g>
<!-- Node23 -->
<g id="node23" class="node">
<title>Node23</title>
<g id="a_node23"><a xlink:href="sycl__recycling__allocators_8hpp.html" target="_top" xlink:title=" ">
<polygon fill="white" stroke="black" points="1892,-201.5 1892,-242.5 2035,-242.5 2035,-201.5 1892,-201.5"/>
<text text-anchor="start" x="1900" y="-230.5" font-family="Helvetica,sans-Serif" font-size="10.00">include/cppuddle/memory</text>
<text text-anchor="start" x="1900" y="-219.5" font-family="Helvetica,sans-Serif" font-size="10.00">_recycling/sycl_recycling</text>
<text text-anchor="middle" x="1963.5" y="-208.5" font-family="Helvetica,sans-Serif" font-size="10.00">_allocators.hpp</text>
</a>
</g>
</g>
<!-- Node4&#45;&gt;Node23 -->
<g id="edge32" class="edge">
<title>Node4&#45;&gt;Node23</title>
<path fill="none" stroke="midnightblue" d="M1149.01,-294.4C1294.89,-286.8 1583.57,-269.73 1827.5,-243 1848.49,-240.7 1871.23,-237.6 1891.99,-234.53"/>
<polygon fill="midnightblue" stroke="midnightblue" points="1148.56,-290.92 1138.76,-294.93 1148.92,-297.91 1148.56,-290.92"/>
</g>
<!-- Node25 -->
<g id="node25" class="node">
<title>Node25</title>
<g id="a_node25"><a xlink:href="recycling__kokkos__view_8hpp.html" target="_top" xlink:title=" ">
<polygon fill="white" stroke="black" points="873,-201.5 873,-242.5 1016,-242.5 1016,-201.5 873,-201.5"/>
<text text-anchor="start" x="881" y="-230.5" font-family="Helvetica,sans-Serif" font-size="10.00">include/cppuddle/memory</text>
<text text-anchor="start" x="881" y="-219.5" font-family="Helvetica,sans-Serif" font-size="10.00">_recycling/util/recycling</text>
<text text-anchor="middle" x="944.5" y="-208.5" font-family="Helvetica,sans-Serif" font-size="10.00">_kokkos_view.hpp</text>
</a>
</g>
</g>
<!-- Node4&#45;&gt;Node25 -->
<g id="edge34" class="edge">
<title>Node4&#45;&gt;Node25</title>
<path fill="none" stroke="midnightblue" d="M1017.79,-273.64C1003.1,-263.49 986.45,-251.98 972.73,-242.51"/>
<polygon fill="midnightblue" stroke="midnightblue" points="1015.96,-276.62 1026.17,-279.43 1019.93,-270.86 1015.96,-276.62"/>
</g>
<!-- Node6 -->
<g id="node6" class="node">
<title>Node6</title>
<g id="a_node6"><a xlink:href="aligned__buffer__util_8hpp.html" target="_top" xlink:title=" ">
<polygon fill="white" stroke="black" points="1823,-129 1823,-159 1948,-159 1948,-129 1823,-129"/>
<text text-anchor="start" x="1831" y="-147" font-family="Helvetica,sans-Serif" font-size="10.00">include/aligned_buffer</text>
<text text-anchor="middle" x="1885.5" y="-136" font-family="Helvetica,sans-Serif" font-size="10.00">_util.hpp</text>
</a>
</g>
</g>
<!-- Node5&#45;&gt;Node6 -->
<g id="edge6" class="edge">
<title>Node5&#45;&gt;Node6</title>
<path fill="none" stroke="midnightblue" d="M1786.97,-196.64C1810.53,-184.3 1838.31,-169.73 1858.36,-159.23"/>
<polygon fill="midnightblue" stroke="midnightblue" points="1785.07,-193.69 1777.84,-201.43 1788.32,-199.89 1785.07,-193.69"/>
</g>
<!-- Node7 -->
<g id="node7" class="node">
<title>Node7</title>
<g id="a_node7"><a xlink:href="allocator__aligned__test_8cpp.html" target="_top" xlink:title=" ">
<polygon fill="white" stroke="black" points="1676.5,-129 1676.5,-159 1804.5,-159 1804.5,-129 1676.5,-129"/>
<text text-anchor="start" x="1684.5" y="-147" font-family="Helvetica,sans-Serif" font-size="10.00">tests/allocator_aligned</text>
<text text-anchor="middle" x="1740.5" y="-136" font-family="Helvetica,sans-Serif" font-size="10.00">_test.cpp</text>
</a>
</g>
</g>
<!-- Node5&#45;&gt;Node7 -->
<g id="edge7" class="edge">
<title>Node5&#45;&gt;Node7</title>
<path fill="none" stroke="midnightblue" d="M1740.5,-191.28C1740.5,-180.25 1740.5,-168.25 1740.5,-159.23"/>
<polygon fill="midnightblue" stroke="midnightblue" points="1737,-191.43 1740.5,-201.43 1744,-191.43 1737,-191.43"/>
</g>
<!-- Node8&#45;&gt;Node3 -->
<g id="edge15" class="edge">
<title>Node8&#45;&gt;Node3</title>
<path fill="none" stroke="midnightblue" d="M1247.21,-210.51C1301.79,-201.64 1366.56,-186.84 1383.5,-165 1394.94,-150.25 1392.47,-139.37 1383.5,-123 1374.51,-106.58 1357.65,-94.72 1341.81,-86.64"/>
<polygon fill="midnightblue" stroke="midnightblue" points="1246.49,-207.08 1237.16,-212.1 1247.58,-214 1246.49,-207.08"/>
</g>
<!-- Node9 -->
<g id="node9" class="node">
<title>Node9</title>
<g id="a_node9"><a xlink:href="cuda__recycling__device__buffer_8hpp.html" target="_top" xlink:title="Contains a RAII wrappers for CUDA device buffers. Intended to be used with the recycling allocators b...">
<polygon fill="white" stroke="black" points="1213,-123.5 1213,-164.5 1374,-164.5 1374,-123.5 1213,-123.5"/>
<text text-anchor="start" x="1221" y="-152.5" font-family="Helvetica,sans-Serif" font-size="10.00">include/cppuddle/memory</text>
<text text-anchor="start" x="1221" y="-141.5" font-family="Helvetica,sans-Serif" font-size="10.00">_recycling/util/cuda_recycling</text>
<text text-anchor="middle" x="1293.5" y="-130.5" font-family="Helvetica,sans-Serif" font-size="10.00">_device_buffer.hpp</text>
</a>
</g>
</g>
<!-- Node8&#45;&gt;Node9 -->
<g id="edge9" class="edge">
<title>Node8&#45;&gt;Node9</title>
<path fill="none" stroke="midnightblue" d="M1207.26,-196.2C1224.59,-185.92 1244.39,-174.16 1260.65,-164.51"/>
<polygon fill="midnightblue" stroke="midnightblue" points="1205.27,-193.31 1198.46,-201.43 1208.85,-199.33 1205.27,-193.31"/>
</g>
<!-- Node10 -->
<g id="node10" class="node">
<title>Node10</title>
<g id="a_node10"><a xlink:href="stream__test_8hpp.html" target="_top" xlink:title=" ">
<polygon fill="white" stroke="black" points="1379,-62 1379,-81 1502,-81 1502,-62 1379,-62"/>
<text text-anchor="middle" x="1440.5" y="-69" font-family="Helvetica,sans-Serif" font-size="10.00">tests/stream_test.hpp</text>
</a>
</g>
</g>
<!-- Node8&#45;&gt;Node10 -->
<g id="edge18" class="edge">
<title>Node8&#45;&gt;Node10</title>
<path fill="none" stroke="midnightblue" d="M1247.22,-219.41C1296.59,-214.45 1357.97,-200.7 1400.5,-165 1427.03,-142.73 1436.45,-99.57 1439.36,-81.16"/>
<polygon fill="midnightblue" stroke="midnightblue" points="1246.85,-215.93 1237.2,-220.31 1247.47,-222.9 1246.85,-215.93"/>
</g>
<!-- Node12 -->
<g id="node12" class="node">
<title>Node12</title>
<g id="a_node12"><a xlink:href="work__aggregation__cuda__triad_8cpp.html" target="_top" xlink:title=" ">
<polygon fill="white" stroke="black" points="950,-56.5 950,-86.5 1081,-86.5 1081,-56.5 950,-56.5"/>
<text text-anchor="start" x="958" y="-74.5" font-family="Helvetica,sans-Serif" font-size="10.00">tests/work_aggregation</text>
<text text-anchor="middle" x="1015.5" y="-63.5" font-family="Helvetica,sans-Serif" font-size="10.00">_cuda_triad.cpp</text>
</a>
</g>
</g>
<!-- Node8&#45;&gt;Node12 -->
<g id="edge19" class="edge">
<title>Node8&#45;&gt;Node12</title>
<path fill="none" stroke="midnightblue" d="M1159.93,-191.5C1154.57,-170.18 1144.52,-141.91 1126.5,-123 1110.43,-106.14 1087.68,-94.45 1066.95,-86.59"/>
<polygon fill="midnightblue" stroke="midnightblue" points="1156.54,-192.38 1162.2,-201.34 1163.36,-190.81 1156.54,-192.38"/>
</g>
<!-- Node13 -->
<g id="node13" class="node">
<title>Node13</title>
<g id="a_node13"><a xlink:href="work__aggregation__test_8cpp.html" target="_top" xlink:title=" ">
<polygon fill="white" stroke="black" points="1099,-56.5 1099,-86.5 1230,-86.5 1230,-56.5 1099,-56.5"/>
<text text-anchor="start" x="1107" y="-74.5" font-family="Helvetica,sans-Serif" font-size="10.00">tests/work_aggregation</text>
<text text-anchor="middle" x="1164.5" y="-63.5" font-family="Helvetica,sans-Serif" font-size="10.00">_test.cpp</text>
</a>
</g>
</g>
<!-- Node8&#45;&gt;Node13 -->
<g id="edge20" class="edge">
<title>Node8&#45;&gt;Node13</title>
<path fill="none" stroke="midnightblue" d="M1165.3,-191.22C1165.09,-159.42 1164.76,-110.4 1164.59,-86.53"/>
<polygon fill="midnightblue" stroke="midnightblue" points="1161.8,-191.3 1165.37,-201.28 1168.8,-191.26 1161.8,-191.3"/>
</g>
<!-- Node14 -->
<g id="node14" class="node">
<title>Node14</title>
<g id="a_node14"><a xlink:href="allocator__kokkos__executor__for__loop__test_8cpp.html" target="_top" xlink:title=" ">
<polygon fill="white" stroke="black" points="965,-129 965,-159 1118,-159 1118,-129 965,-129"/>
<text text-anchor="start" x="973" y="-147" font-family="Helvetica,sans-Serif" font-size="10.00">tests/allocator_kokkos</text>
<text text-anchor="middle" x="1041.5" y="-136" font-family="Helvetica,sans-Serif" font-size="10.00">_executor_for_loop_test.cpp</text>
</a>
</g>
</g>
<!-- Node8&#45;&gt;Node14 -->
<g id="edge16" class="edge">
<title>Node8&#45;&gt;Node14</title>
<path fill="none" stroke="midnightblue" d="M1124.96,-196.15C1104.99,-183.91 1081.63,-169.59 1064.71,-159.23"/>
<polygon fill="midnightblue" stroke="midnightblue" points="1123.21,-199.19 1133.57,-201.43 1126.87,-193.22 1123.21,-199.19"/>
</g>
<!-- Node15 -->
<g id="node15" class="node">
<title>Node15</title>
<g id="a_node15"><a xlink:href="allocator__kokkos__test_8cpp.html" target="_top" xlink:title=" ">
<polygon fill="white" stroke="black" points="681,-129 681,-159 806,-159 806,-129 681,-129"/>
<text text-anchor="start" x="689" y="-147" font-family="Helvetica,sans-Serif" font-size="10.00">tests/allocator_kokkos</text>
<text text-anchor="middle" x="743.5" y="-136" font-family="Helvetica,sans-Serif" font-size="10.00">_test.cpp</text>
</a>
</g>
</g>
<!-- Node8&#45;&gt;Node15 -->
<g id="edge17" class="edge">
<title>Node8&#45;&gt;Node15</title>
<path fill="none" stroke="midnightblue" d="M1083.78,-209.01C996.87,-196.07 865.24,-175.85 815.5,-165 807.64,-163.29 799.37,-161.23 791.34,-159.1"/>
<polygon fill="midnightblue" stroke="midnightblue" points="1083.47,-212.5 1093.88,-210.51 1084.5,-205.58 1083.47,-212.5"/>
</g>
<!-- Node9&#45;&gt;Node3 -->
<g id="edge10" class="edge">
<title>Node9&#45;&gt;Node3</title>
<path fill="none" stroke="midnightblue" d="M1298.12,-113.38C1299.55,-104.21 1301.06,-94.53 1302.25,-86.89"/>
<polygon fill="midnightblue" stroke="midnightblue" points="1294.65,-112.94 1296.56,-123.36 1301.56,-114.02 1294.65,-112.94"/>
</g>
<!-- Node9&#45;&gt;Node10 -->
<g id="edge11" class="edge">
<title>Node9&#45;&gt;Node10</title>
<path fill="none" stroke="midnightblue" d="M1343.48,-119.03C1370.75,-105.95 1402.83,-90.56 1422.42,-81.17"/>
<polygon fill="midnightblue" stroke="midnightblue" points="1341.95,-115.88 1334.45,-123.36 1344.98,-122.19 1341.95,-115.88"/>
</g>
<!-- Node9&#45;&gt;Node12 -->
<g id="edge13" class="edge">
<title>Node9&#45;&gt;Node12</title>
<path fill="none" stroke="midnightblue" d="M1206.54,-120.95C1162.3,-109.73 1109.83,-96.42 1071.09,-86.6"/>
<polygon fill="midnightblue" stroke="midnightblue" points="1205.88,-124.39 1216.43,-123.46 1207.6,-117.6 1205.88,-124.39"/>
</g>
<!-- Node9&#45;&gt;Node13 -->
<g id="edge14" class="edge">
<title>Node9&#45;&gt;Node13</title>
<path fill="none" stroke="midnightblue" d="M1248.56,-118.44C1229.12,-107.82 1207.07,-95.76 1190.43,-86.67"/>
<polygon fill="midnightblue" stroke="midnightblue" points="1247.11,-121.64 1257.57,-123.36 1250.47,-115.49 1247.11,-121.64"/>
</g>
<!-- Node11 -->
<g id="node11" class="node">
<title>Node11</title>
<g id="a_node11"><a xlink:href="stream__test_8cpp.html" target="_top" xlink:title=" ">
<polygon fill="white" stroke="black" points="1379.5,-0.5 1379.5,-19.5 1501.5,-19.5 1501.5,-0.5 1379.5,-0.5"/>
<text text-anchor="middle" x="1440.5" y="-7.5" font-family="Helvetica,sans-Serif" font-size="10.00">tests/stream_test.cpp</text>
</a>
</g>
</g>
<!-- Node10&#45;&gt;Node11 -->
<g id="edge12" class="edge">
<title>Node10&#45;&gt;Node11</title>
<path fill="none" stroke="midnightblue" d="M1440.5,-51.82C1440.5,-41 1440.5,-27.9 1440.5,-19.51"/>
<polygon fill="midnightblue" stroke="midnightblue" points="1437,-51.98 1440.5,-61.98 1444,-51.98 1437,-51.98"/>
</g>
<!-- Node16&#45;&gt;Node2 -->
<g id="edge22" class="edge">
<title>Node16&#45;&gt;Node2</title>
<path fill="none" stroke="midnightblue" d="M515.89,-201.97C449.21,-186.43 358.07,-165.18 308.06,-153.52"/>
<polygon fill="midnightblue" stroke="midnightblue" points="515.42,-205.46 525.96,-204.32 517.01,-198.64 515.42,-205.46"/>
</g>
<!-- Node16&#45;&gt;Node14 -->
<g id="edge24" class="edge">
<title>Node16&#45;&gt;Node14</title>
<path fill="none" stroke="midnightblue" d="M679.11,-209.97C751.86,-199.73 861.13,-183.33 955.5,-165 964.68,-163.22 974.37,-161.15 983.8,-159.03"/>
<polygon fill="midnightblue" stroke="midnightblue" points="678.51,-206.52 669.09,-211.38 679.48,-213.46 678.51,-206.52"/>
</g>
<!-- Node16&#45;&gt;Node15 -->
<g id="edge25" class="edge">
<title>Node16&#45;&gt;Node15</title>
<path fill="none" stroke="midnightblue" d="M643.98,-196.81C667.76,-184.43 695.9,-169.78 716.17,-159.23"/>
<polygon fill="midnightblue" stroke="midnightblue" points="642.35,-193.71 635.1,-201.43 645.58,-199.92 642.35,-193.71"/>
</g>
<!-- Node17 -->
<g id="node17" class="node">
<title>Node17</title>
<g id="a_node17"><a xlink:href="allocator__hpx__test_8cpp.html" target="_top" xlink:title=" ">
<polygon fill="white" stroke="black" points="403.5,-129 403.5,-159 513.5,-159 513.5,-129 403.5,-129"/>
<text text-anchor="start" x="411.5" y="-147" font-family="Helvetica,sans-Serif" font-size="10.00">tests/allocator_hpx</text>
<text text-anchor="middle" x="458.5" y="-136" font-family="Helvetica,sans-Serif" font-size="10.00">_test.cpp</text>
</a>
</g>
</g>
<!-- Node16&#45;&gt;Node17 -->
<g id="edge23" class="edge">
<title>Node16&#45;&gt;Node17</title>
<path fill="none" stroke="midnightblue" d="M552.65,-196.48C530.14,-184.17 503.65,-169.69 484.52,-159.23"/>
<polygon fill="midnightblue" stroke="midnightblue" points="551.25,-199.7 561.7,-201.43 554.61,-193.56 551.25,-199.7"/>
</g>
<!-- Node18 -->
<g id="node18" class="node">
<title>Node18</title>
<g id="a_node18"><a xlink:href="allocator__test_8cpp.html" target="_top" xlink:title=" ">
<polygon fill="white" stroke="black" points="532,-134.5 532,-153.5 663,-153.5 663,-134.5 532,-134.5"/>
<text text-anchor="middle" x="597.5" y="-141.5" font-family="Helvetica,sans-Serif" font-size="10.00">tests/allocator_test.cpp</text>
</a>
</g>
</g>
<!-- Node16&#45;&gt;Node18 -->
<g id="edge26" class="edge">
<title>Node16&#45;&gt;Node18</title>
<path fill="none" stroke="midnightblue" d="M597.5,-191.05C597.5,-177.56 597.5,-162.65 597.5,-153.55"/>
<polygon fill="midnightblue" stroke="midnightblue" points="594,-191.43 597.5,-201.43 601,-191.43 594,-191.43"/>
</g>
<!-- Node19 -->
<g id="node19" class="node">
<title>Node19</title>
<g id="a_node19"><a xlink:href="work__aggregation__cpu__triad_8cpp.html" target="_top" xlink:title=" ">
<polygon fill="white" stroke="black" points="237,-56.5 237,-86.5 368,-86.5 368,-56.5 237,-56.5"/>
<text text-anchor="start" x="245" y="-74.5" font-family="Helvetica,sans-Serif" font-size="10.00">tests/work_aggregation</text>
<text text-anchor="middle" x="302.5" y="-63.5" font-family="Helvetica,sans-Serif" font-size="10.00">_cpu_triad.cpp</text>
</a>
</g>
</g>
<!-- Node16&#45;&gt;Node19 -->
<g id="edge27" class="edge">
<title>Node16&#45;&gt;Node19</title>
<path fill="none" stroke="midnightblue" d="M515.65,-209.35C476.84,-201.18 431.07,-187.54 394.5,-165 373.07,-151.79 374.15,-140.95 356.5,-123 344.08,-110.37 329.36,-96.68 318.42,-86.75"/>
<polygon fill="midnightblue" stroke="midnightblue" points="515.39,-212.87 525.88,-211.41 516.77,-206.01 515.39,-212.87"/>
</g>
<!-- Node21 -->
<g id="node21" class="node">
<title>Node21</title>
<g id="a_node21"><a xlink:href="hip__recycling__device__buffer_8hpp.html" target="_top" xlink:title=" ">
<polygon fill="white" stroke="black" points="1506.5,-123.5 1506.5,-164.5 1658.5,-164.5 1658.5,-123.5 1506.5,-123.5"/>
<text text-anchor="start" x="1514.5" y="-152.5" font-family="Helvetica,sans-Serif" font-size="10.00">include/cppuddle/memory</text>
<text text-anchor="start" x="1514.5" y="-141.5" font-family="Helvetica,sans-Serif" font-size="10.00">_recycling/util/hip_recycling</text>
<text text-anchor="middle" x="1582.5" y="-130.5" font-family="Helvetica,sans-Serif" font-size="10.00">_device_buffer.hpp</text>
</a>
</g>
</g>
<!-- Node20&#45;&gt;Node21 -->
<g id="edge29" class="edge">
<title>Node20&#45;&gt;Node21</title>
<path fill="none" stroke="midnightblue" d="M1513.6,-195.35C1527.39,-185.27 1542.96,-173.89 1555.81,-164.51"/>
<polygon fill="midnightblue" stroke="midnightblue" points="1511.29,-192.7 1505.28,-201.43 1515.42,-198.35 1511.29,-192.7"/>
</g>
<!-- Node22 -->
<g id="node22" class="node">
<title>Node22</title>
<g id="a_node22"><a xlink:href="hip__buffer__util_8hpp.html" target="_top" xlink:title=" ">
<polygon fill="white" stroke="black" points="1525.5,-56.5 1525.5,-86.5 1629.5,-86.5 1629.5,-56.5 1525.5,-56.5"/>
<text text-anchor="start" x="1533.5" y="-74.5" font-family="Helvetica,sans-Serif" font-size="10.00">include/hip_buffer</text>
<text text-anchor="middle" x="1577.5" y="-63.5" font-family="Helvetica,sans-Serif" font-size="10.00">_util.hpp</text>
</a>
</g>
</g>
<!-- Node20&#45;&gt;Node22 -->
<g id="edge31" class="edge">
<title>Node20&#45;&gt;Node22</title>
<path fill="none" stroke="midnightblue" d="M1478.24,-191.06C1479.43,-170.33 1483.84,-142.98 1497.5,-123 1508.53,-106.86 1526.59,-94.82 1542.76,-86.55"/>
<polygon fill="midnightblue" stroke="midnightblue" points="1474.74,-191.1 1477.88,-201.22 1481.73,-191.35 1474.74,-191.1"/>
</g>
<!-- Node21&#45;&gt;Node22 -->
<g id="edge30" class="edge">
<title>Node21&#45;&gt;Node22</title>
<path fill="none" stroke="midnightblue" d="M1580.4,-113.38C1579.75,-104.21 1579.06,-94.53 1578.52,-86.89"/>
<polygon fill="midnightblue" stroke="midnightblue" points="1576.91,-113.63 1581.11,-123.36 1583.89,-113.14 1576.91,-113.63"/>
</g>
<!-- Node24 -->
<g id="node24" class="node">
<title>Node24</title>
<g id="a_node24"><a xlink:href="sycl__buffer__util_8hpp.html" target="_top" xlink:title=" ">
<polygon fill="white" stroke="black" points="1966.5,-129 1966.5,-159 2074.5,-159 2074.5,-129 1966.5,-129"/>
<text text-anchor="start" x="1974.5" y="-147" font-family="Helvetica,sans-Serif" font-size="10.00">include/sycl_buffer</text>
<text text-anchor="middle" x="2020.5" y="-136" font-family="Helvetica,sans-Serif" font-size="10.00">_util.hpp</text>
</a>
</g>
</g>
<!-- Node23&#45;&gt;Node24 -->
<g id="edge33" class="edge">
<title>Node23&#45;&gt;Node24</title>
<path fill="none" stroke="midnightblue" d="M1984.26,-193.32C1992.94,-181.75 2002.65,-168.8 2009.83,-159.23"/>
<polygon fill="midnightblue" stroke="midnightblue" points="1981.38,-191.33 1978.18,-201.43 1986.98,-195.53 1981.38,-191.33"/>
</g>
<!-- Node25&#45;&gt;Node14 -->
<g id="edge36" class="edge">
<title>Node25&#45;&gt;Node14</title>
<path fill="none" stroke="midnightblue" d="M977.69,-194.99C992.98,-183.02 1010.53,-169.27 1023.34,-159.23"/>
<polygon fill="midnightblue" stroke="midnightblue" points="975.19,-192.51 969.48,-201.43 979.51,-198.02 975.19,-192.51"/>
</g>
<!-- Node25&#45;&gt;Node15 -->
<g id="edge37" class="edge">
<title>Node25&#45;&gt;Node15</title>
<path fill="none" stroke="midnightblue" d="M883.07,-197.77C849.68,-185.15 809.47,-169.94 780.81,-159.11"/>
<polygon fill="midnightblue" stroke="midnightblue" points="882.15,-201.17 892.74,-201.43 884.62,-194.62 882.15,-201.17"/>
</g>
<!-- Node26 -->
<g id="node26" class="node">
<title>Node26</title>
<g id="a_node26"><a xlink:href="kokkos__buffer__util_8hpp.html" target="_top" xlink:title=" ">
<polygon fill="white" stroke="black" points="824.5,-129 824.5,-159 946.5,-159 946.5,-129 824.5,-129"/>
<text text-anchor="start" x="832.5" y="-147" font-family="Helvetica,sans-Serif" font-size="10.00">include/kokkos_buffer</text>
<text text-anchor="middle" x="885.5" y="-136" font-family="Helvetica,sans-Serif" font-size="10.00">_util.hpp</text>
</a>
</g>
</g>
<!-- Node25&#45;&gt;Node26 -->
<g id="edge35" class="edge">
<title>Node25&#45;&gt;Node26</title>
<path fill="none" stroke="midnightblue" d="M923.01,-193.32C914.03,-181.75 903.98,-168.8 896.54,-159.23"/>
<polygon fill="midnightblue" stroke="midnightblue" points="920.41,-195.68 929.31,-201.43 925.94,-191.38 920.41,-195.68"/>
</g>
<!-- Node28 -->
<g id="node28" class="node">
<title>Node28</title>
<g id="a_node28"><a xlink:href="aggregation__executor__pools_8hpp.html" target="_top" xlink:title=" ">
<polygon fill="white" stroke="black" points="94,-201.5 94,-242.5 267,-242.5 267,-201.5 94,-201.5"/>
<text text-anchor="start" x="102" y="-230.5" font-family="Helvetica,sans-Serif" font-size="10.00">include/cppuddle/kernel</text>
<text text-anchor="start" x="102" y="-219.5" font-family="Helvetica,sans-Serif" font-size="10.00">_aggregation/detail/aggregation</text>
<text text-anchor="middle" x="180.5" y="-208.5" font-family="Helvetica,sans-Serif" font-size="10.00">_executor_pools.hpp</text>
</a>
</g>
</g>
<!-- Node27&#45;&gt;Node28 -->
<g id="edge39" class="edge">
<title>Node27&#45;&gt;Node28</title>
<path fill="none" stroke="midnightblue" d="M180.5,-269.3C180.5,-260.3 180.5,-250.65 180.5,-242.51"/>
<polygon fill="midnightblue" stroke="midnightblue" points="177,-269.43 180.5,-279.43 184,-269.43 177,-269.43"/>
</g>
<!-- Node29 -->
<g id="node29" class="node">
<title>Node29</title>
<g id="a_node29"><a xlink:href="kernel__aggregation__interface_8hpp.html" target="_top" xlink:title=" ">
<polygon fill="white" stroke="black" points="0,-123.5 0,-164.5 177,-164.5 177,-123.5 0,-123.5"/>
<text text-anchor="start" x="8" y="-152.5" font-family="Helvetica,sans-Serif" font-size="10.00">include/cppuddle/kernel</text>
<text text-anchor="start" x="8" y="-141.5" font-family="Helvetica,sans-Serif" font-size="10.00">_aggregation/kernel_aggregation</text>
<text text-anchor="middle" x="88.5" y="-130.5" font-family="Helvetica,sans-Serif" font-size="10.00">_interface.hpp</text>
</a>
</g>
</g>
<!-- Node27&#45;&gt;Node29 -->
<g id="edge45" class="edge">
<title>Node27&#45;&gt;Node29</title>
<path fill="none" stroke="midnightblue" d="M116.48,-274.23C103.71,-266.24 91.96,-255.98 84.5,-243 70.68,-218.93 76.08,-185.78 81.83,-164.87"/>
<polygon fill="midnightblue" stroke="midnightblue" points="115.02,-277.43 125.43,-279.41 118.53,-271.37 115.02,-277.43"/>
</g>
<!-- Node28&#45;&gt;Node29 -->
<g id="edge40" class="edge">
<title>Node28&#45;&gt;Node29</title>
<path fill="none" stroke="midnightblue" d="M148.76,-194.78C136.73,-184.84 123.26,-173.72 112.11,-164.51"/>
<polygon fill="midnightblue" stroke="midnightblue" points="146.87,-197.76 156.81,-201.43 151.33,-192.36 146.87,-197.76"/>
</g>
<!-- Node29&#45;&gt;Node12 -->
<g id="edge43" class="edge">
<title>Node29&#45;&gt;Node12</title>
<path fill="none" stroke="midnightblue" d="M187.36,-123C476.96,-85.53 811.02,-75.89 949.91,-73.37"/>
<polygon fill="midnightblue" stroke="midnightblue" points="186.54,-119.57 177.08,-124.34 187.45,-126.52 186.54,-119.57"/>
</g>
<!-- Node29&#45;&gt;Node13 -->
<g id="edge44" class="edge">
<title>Node29&#45;&gt;Node13</title>
<path fill="none" stroke="midnightblue" d="M187.17,-123.05C587,-75.65 693.83,-132.87 1089.5,-87 1092.53,-86.65 1095.62,-86.24 1098.74,-85.8"/>
<polygon fill="midnightblue" stroke="midnightblue" points="186.58,-119.59 177.07,-124.26 187.41,-126.54 186.58,-119.59"/>
</g>
<!-- Node29&#45;&gt;Node19 -->
<g id="edge42" class="edge">
<title>Node29&#45;&gt;Node19</title>
<path fill="none" stroke="midnightblue" d="M157.59,-120.24C191.19,-109.17 230.51,-96.22 259.71,-86.6"/>
<polygon fill="midnightblue" stroke="midnightblue" points="156.23,-117 147.83,-123.46 158.42,-123.65 156.23,-117"/>
</g>
<!-- Node30 -->
<g id="node30" class="node">
<title>Node30</title>
<g id="a_node30"><a xlink:href="aggregation__manager_8hpp.html" target="_top" xlink:title=" ">
<polygon fill="white" stroke="black" points="32,-56.5 32,-86.5 145,-86.5 145,-56.5 32,-56.5"/>
<text text-anchor="start" x="40" y="-74.5" font-family="Helvetica,sans-Serif" font-size="10.00">include/aggregation</text>
<text text-anchor="middle" x="88.5" y="-63.5" font-family="Helvetica,sans-Serif" font-size="10.00">_manager.hpp</text>
</a>
</g>
</g>
<!-- Node29&#45;&gt;Node30 -->
<g id="edge41" class="edge">
<title>Node29&#45;&gt;Node30</title>
<path fill="none" stroke="midnightblue" d="M88.5,-113.08C88.5,-104.01 88.5,-94.45 88.5,-86.89"/>
<polygon fill="midnightblue" stroke="midnightblue" points="85,-113.36 88.5,-123.36 92,-113.36 85,-113.36"/>
</g>
</g>
</svg>
        <g id="navigator" transform="translate(0 0)" fill="#404254">
                <rect fill="#f2f5e9" fill-opacity="0.5" stroke="#606060" stroke-width=".5" x="0" y="0" width="60" height="60"/>
                <use id="zoomplus" xlink:href="#zoomPlus" x="17" y="9" onmousedown="handleZoom(evt,'in')"/>
                <use id="zoomminus" xlink:href="#zoomMin" x="42" y="9" onmousedown="handleZoom(evt,'out')"/>
                <use id="reset" xlink:href="#resetDef" x="30" y="36" onmousedown="handleReset()"/>
                <g id="arrowUp" xlink:href="#dirArrow" transform="translate(30 24)" onmousedown="handlePan(0,-1)">
                  <use xlink:href="#rim" fill="#404040">
                        <set attributeName="fill" to="#808080" begin="arrowUp.mouseover" end="arrowUp.mouseout"/>
                  </use>
                  <path fill="none" stroke="white" stroke-width="1.5" d="M0,-3.0v7 M-2.5,-0.5L0,-3.0L2.5,-0.5"/>
                </g>
                <g id="arrowRight" xlink:href="#dirArrow" transform="rotate(90) translate(36 -43)" onmousedown="handlePan(1,0)">
                  <use xlink:href="#rim" fill="#404040">
                        <set attributeName="fill" to="#808080" begin="arrowRight.mouseover" end="arrowRight.mouseout"/>
                  </use>
                  <path fill="none" stroke="white" stroke-width="1.5" d="M0,-3.0v7 M-2.5,-0.5L0,-3.0L2.5,-0.5"/>
                </g>
                <g id="arrowDown" xlink:href="#dirArrow" transform="rotate(180) translate(-30 -48)" onmousedown="handlePan(0,1)">
                  <use xlink:href="#rim" fill="#404040">
                        <set attributeName="fill" to="#808080" begin="arrowDown.mouseover" end="arrowDown.mouseout"/>
                  </use>
                  <path fill="none" stroke="white" stroke-width="1.5" d="M0,-3.0v7 M-2.5,-0.5L0,-3.0L2.5,-0.5"/>
                </g>
                <g id="arrowLeft" xlink:href="#dirArrow" transform="rotate(270) translate(-36 17)" onmousedown="handlePan(-1,0)">
                  <use xlink:href="#rim" fill="#404040">
                        <set attributeName="fill" to="#808080" begin="arrowLeft.mouseover" end="arrowLeft.mouseout"/>
                  </use>
                  <path fill="none" stroke="white" stroke-width="1.5" d="M0,-3.0v7 M-2.5,-0.5L0,-3.0L2.5,-0.5"/>
                </g>
        </g>
        <svg viewBox="0 0 15 15" width="100%" height="30px" preserveAspectRatio="xMaxYMin meet">
         <g id="arrow_out" transform="scale(0.3 0.3)">
          <a xlink:href="buffer__management_8hpp__dep__incl_org.svg" target="_base">
           <rect id="button" ry="5" rx="5" y="6" x="6" height="38" width="38"
                fill="#f2f5e9" fill-opacity="0.5" stroke="#606060" stroke-width="1.0"/>
           <path id="arrow"
             d="M 11.500037,31.436501 C 11.940474,20.09759 22.043105,11.32322 32.158766,21.979434 L 37.068811,17.246167 C 37.068811,17.246167 37.088388,32 37.088388,32 L 22.160133,31.978069 C 22.160133,31.978069 26.997745,27.140456 26.997745,27.140456 C 18.528582,18.264221 13.291696,25.230495 11.500037,31.436501 z"
             style="fill:#404040;"/>
          </a>
         </g>
        </svg>
</svg>
