<?xml version="1.0" encoding="UTF-8" standalone="no"?>
<!DOCTYPE svg PUBLIC "-//W3C//DTD SVG 1.1//EN"
 "http://www.w3.org/Graphics/SVG/1.1/DTD/svg11.dtd">
<!-- Generated by graphviz version 2.43.0 (0)
 -->
<!-- Title: include/cppuddle/memory_recycling/detail/buffer_management.hpp Pages: 1 -->
<svg width="988pt" height="159pt"
 viewBox="0.00 0.00 988.00 159.00" xmlns="http://www.w3.org/2000/svg" xmlns:xlink="http://www.w3.org/1999/xlink">
<g id="graph0" class="graph" transform="scale(1 1) rotate(0) translate(4 155)">
<title>include/cppuddle/memory_recycling/detail/buffer_management.hpp</title>
<!-- Node1 -->
<g id="Node000001" class="node">
<title>Node1</title>
<g id="a_Node000001"><a xlink:title=" ">
<polygon fill="#999999" stroke="#666666" points="478.5,-151 335.5,-151 335.5,-110 478.5,-110 478.5,-151"/>
<text text-anchor="start" x="343.5" y="-139" font-family="Helvetica,sans-Serif" font-size="10.00">include/cppuddle/memory</text>
<text text-anchor="start" x="343.5" y="-128" font-family="Helvetica,sans-Serif" font-size="10.00">_recycling/detail/buffer</text>
<text text-anchor="middle" x="407" y="-117" font-family="Helvetica,sans-Serif" font-size="10.00">_management.hpp</text>
</a>
</g>
</g>
<!-- Node2 -->
<g id="Node000002" class="node">
<title>Node2</title>
<g id="a_Node000002"><a xlink:title=" ">
<polygon fill="#e0e0e0" stroke="#999999" points="50,-74 0,-74 0,-55 50,-55 50,-74"/>
<text text-anchor="middle" x="25" y="-62" font-family="Helvetica,sans-Serif" font-size="10.00">atomic</text>
</a>
</g>
</g>
<!-- Node1&#45;&gt;Node2 -->
<g id="edge1_Node000001_Node000002" class="edge">
<title>Node1&#45;&gt;Node2</title>
<g id="a_edge1_Node000001_Node000002"><a xlink:title=" ">
<path fill="none" stroke="#63b8ff" d="M335.36,-119.93C267.04,-110.38 161.1,-94.48 60.25,-74.11"/>
<polygon fill="#63b8ff" stroke="#63b8ff" points="60.69,-70.63 50.2,-72.06 59.29,-77.48 60.69,-70.63"/>
</a>
</g>
</g>
<!-- Node3 -->
<g id="Node000003" class="node">
<title>Node3</title>
<g id="a_Node000003"><a xlink:title=" ">
<polygon fill="#e0e0e0" stroke="#999999" points="120,-74 68,-74 68,-55 120,-55 120,-74"/>
<text text-anchor="middle" x="94" y="-62" font-family="Helvetica,sans-Serif" font-size="10.00">cassert</text>
</a>
</g>
</g>
<!-- Node1&#45;&gt;Node3 -->
<g id="edge2_Node000001_Node000003" class="edge">
<title>Node1&#45;&gt;Node3</title>
<g id="a_edge2_Node000001_Node000003"><a xlink:title=" ">
<path fill="none" stroke="#63b8ff" d="M335.41,-116.05C281.58,-105.74 205.77,-90.81 130.48,-74.26"/>
<polygon fill="#63b8ff" stroke="#63b8ff" points="130.87,-70.76 120.35,-72.02 129.36,-77.6 130.87,-70.76"/>
</a>
</g>
</g>
<!-- Node4 -->
<g id="Node000004" class="node">
<title>Node4</title>
<g id="a_Node000004"><a xlink:title=" ">
<polygon fill="#e0e0e0" stroke="#999999" points="203.5,-74 138.5,-74 138.5,-55 203.5,-55 203.5,-74"/>
<text text-anchor="middle" x="171" y="-62" font-family="Helvetica,sans-Serif" font-size="10.00">functional</text>
</a>
</g>
</g>
<!-- Node1&#45;&gt;Node4 -->
<g id="edge3_Node000001_Node000004" class="edge">
<title>Node1&#45;&gt;Node4</title>
<g id="a_edge3_Node000001_Node000004"><a xlink:title=" ">
<path fill="none" stroke="#63b8ff" d="M335.23,-110.04C295.04,-99.14 246.36,-85.94 212.48,-76.75"/>
<polygon fill="#63b8ff" stroke="#63b8ff" points="213.03,-73.27 202.46,-74.03 211.2,-80.03 213.03,-73.27"/>
</a>
</g>
</g>
<!-- Node5 -->
<g id="Node000005" class="node">
<title>Node5</title>
<g id="a_Node000005"><a xlink:title=" ">
<polygon fill="#e0e0e0" stroke="#999999" points="282,-74 222,-74 222,-55 282,-55 282,-74"/>
<text text-anchor="middle" x="252" y="-62" font-family="Helvetica,sans-Serif" font-size="10.00">iostream</text>
</a>
</g>
</g>
<!-- Node1&#45;&gt;Node5 -->
<g id="edge4_Node000001_Node000005" class="edge">
<title>Node1&#45;&gt;Node5</title>
<g id="a_edge4_Node000001_Node000005"><a xlink:title=" ">
<path fill="none" stroke="#63b8ff" d="M359.65,-109.95C334.48,-99.56 304.29,-87.09 282.29,-78.01"/>
<polygon fill="#63b8ff" stroke="#63b8ff" points="283.39,-74.67 272.81,-74.09 280.72,-81.14 283.39,-74.67"/>
</a>
</g>
</g>
<!-- Node6 -->
<g id="Node000006" class="node">
<title>Node6</title>
<g id="a_Node000006"><a xlink:title=" ">
<polygon fill="#e0e0e0" stroke="#999999" points="332,-74 300,-74 300,-55 332,-55 332,-74"/>
<text text-anchor="middle" x="316" y="-62" font-family="Helvetica,sans-Serif" font-size="10.00">list</text>
</a>
</g>
</g>
<!-- Node1&#45;&gt;Node6 -->
<g id="edge5_Node000001_Node000006" class="edge">
<title>Node1&#45;&gt;Node6</title>
<g id="a_edge5_Node000001_Node000006"><a xlink:title=" ">
<path fill="none" stroke="#63b8ff" d="M379.2,-109.95C365.58,-100.37 349.44,-89.02 336.88,-80.19"/>
<polygon fill="#63b8ff" stroke="#63b8ff" points="338.65,-77.15 328.46,-74.26 334.62,-82.88 338.65,-77.15"/>
</a>
</g>
</g>
<!-- Node7 -->
<g id="Node000007" class="node">
<title>Node7</title>
<g id="a_Node000007"><a xlink:title=" ">
<polygon fill="#e0e0e0" stroke="#999999" points="408,-74 350,-74 350,-55 408,-55 408,-74"/>
<text text-anchor="middle" x="379" y="-62" font-family="Helvetica,sans-Serif" font-size="10.00">memory</text>
</a>
</g>
</g>
<!-- Node1&#45;&gt;Node7 -->
<g id="edge6_Node000001_Node000007" class="edge">
<title>Node1&#45;&gt;Node7</title>
<g id="a_edge6_Node000001_Node000007"><a xlink:title=" ">
<path fill="none" stroke="#63b8ff" d="M398.45,-109.95C394.78,-101.58 390.53,-91.85 386.94,-83.64"/>
<polygon fill="#63b8ff" stroke="#63b8ff" points="390.05,-82.02 382.83,-74.26 383.63,-84.83 390.05,-82.02"/>
</a>
</g>
</g>
<!-- Node8 -->
<g id="Node000008" class="node">
<title>Node8</title>
<g id="a_Node000008"><a xlink:title=" ">
<polygon fill="#e0e0e0" stroke="#999999" points="692,-19 644,-19 644,0 692,0 692,-19"/>
<text text-anchor="middle" x="668" y="-7" font-family="Helvetica,sans-Serif" font-size="10.00">mutex</text>
</a>
</g>
</g>
<!-- Node1&#45;&gt;Node8 -->
<g id="edge7_Node000001_Node000008" class="edge">
<title>Node1&#45;&gt;Node8</title>
<g id="a_edge7_Node000001_Node000008"><a xlink:title=" ">
<path fill="none" stroke="#63b8ff" d="M414.49,-109.84C422.07,-92.66 435.47,-68.42 455,-55 509.47,-17.56 588.99,-10.51 633.86,-9.8"/>
<polygon fill="#63b8ff" stroke="#63b8ff" points="633.98,-13.3 643.96,-9.74 633.94,-6.3 633.98,-13.3"/>
</a>
</g>
</g>
<!-- Node9 -->
<g id="Node000009" class="node">
<title>Node9</title>
<g id="a_Node000009"><a xlink:title=" ">
<polygon fill="#e0e0e0" stroke="#999999" points="520,-74 464,-74 464,-55 520,-55 520,-74"/>
<text text-anchor="middle" x="492" y="-62" font-family="Helvetica,sans-Serif" font-size="10.00">optional</text>
</a>
</g>
</g>
<!-- Node1&#45;&gt;Node9 -->
<g id="edge8_Node000001_Node000009" class="edge">
<title>Node1&#45;&gt;Node9</title>
<g id="a_edge8_Node000001_Node000009"><a xlink:title=" ">
<path fill="none" stroke="#63b8ff" d="M432.96,-109.95C445.57,-100.46 460.47,-89.24 472.15,-80.44"/>
<polygon fill="#63b8ff" stroke="#63b8ff" points="474.48,-83.07 480.36,-74.26 470.27,-77.48 474.48,-83.07"/>
</a>
</g>
</g>
<!-- Node10 -->
<g id="Node000010" class="node">
<title>Node10</title>
<g id="a_Node000010"><a xlink:title=" ">
<polygon fill="#e0e0e0" stroke="#999999" points="603.5,-74 538.5,-74 538.5,-55 603.5,-55 603.5,-74"/>
<text text-anchor="middle" x="571" y="-62" font-family="Helvetica,sans-Serif" font-size="10.00">stdexcept</text>
</a>
</g>
</g>
<!-- Node1&#45;&gt;Node10 -->
<g id="edge9_Node000001_Node000010" class="edge">
<title>Node1&#45;&gt;Node10</title>
<g id="a_edge9_Node000001_Node000010"><a xlink:title=" ">
<path fill="none" stroke="#63b8ff" d="M457.1,-109.95C483.97,-99.46 516.25,-86.87 539.58,-77.76"/>
<polygon fill="#63b8ff" stroke="#63b8ff" points="540.94,-80.99 548.98,-74.09 538.4,-74.47 540.94,-80.99"/>
</a>
</g>
</g>
<!-- Node11 -->
<g id="Node000011" class="node">
<title>Node11</title>
<g id="a_Node000011"><a xlink:title=" ">
<polygon fill="#e0e0e0" stroke="#999999" points="690.5,-74 621.5,-74 621.5,-55 690.5,-55 690.5,-74"/>
<text text-anchor="middle" x="656" y="-62" font-family="Helvetica,sans-Serif" font-size="10.00">type_traits</text>
</a>
</g>
</g>
<!-- Node1&#45;&gt;Node11 -->
<g id="edge10_Node000001_Node000011" class="edge">
<title>Node1&#45;&gt;Node11</title>
<g id="a_edge10_Node000001_Node000011"><a xlink:title=" ">
<path fill="none" stroke="#63b8ff" d="M478.69,-111.07C522.02,-99.94 575.84,-86.1 612.75,-76.62"/>
<polygon fill="#63b8ff" stroke="#63b8ff" points="613.87,-79.94 622.69,-74.06 612.13,-73.16 613.87,-79.94"/>
</a>
</g>
</g>
<!-- Node12 -->
<g id="Node000012" class="node">
<title>Node12</title>
<g id="a_Node000012"><a xlink:title=" ">
<polygon fill="#e0e0e0" stroke="#999999" points="801.5,-74 708.5,-74 708.5,-55 801.5,-55 801.5,-74"/>
<text text-anchor="middle" x="755" y="-62" font-family="Helvetica,sans-Serif" font-size="10.00">unordered_map</text>
</a>
</g>
</g>
<!-- Node1&#45;&gt;Node12 -->
<g id="edge11_Node000001_Node000012" class="edge">
<title>Node1&#45;&gt;Node12</title>
<g id="a_edge11_Node000001_Node000012"><a xlink:title=" ">
<path fill="none" stroke="#63b8ff" d="M478.68,-116.32C543.86,-104.33 638.73,-86.88 698.63,-75.87"/>
<polygon fill="#63b8ff" stroke="#63b8ff" points="699.46,-79.27 708.66,-74.02 698.19,-72.39 699.46,-79.27"/>
</a>
</g>
</g>
<!-- Node13 -->
<g id="Node000013" class="node">
<title>Node13</title>
<g id="a_Node000013"><a xlink:href="config_8hpp.html" target="_top" xlink:title=" ">
<polygon fill="white" stroke="#666666" points="980,-74 820,-74 820,-55 980,-55 980,-74"/>
<text text-anchor="middle" x="900" y="-62" font-family="Helvetica,sans-Serif" font-size="10.00">cppuddle/common/config.hpp</text>
</a>
</g>
</g>
<!-- Node1&#45;&gt;Node13 -->
<g id="edge12_Node000001_Node000013" class="edge">
<title>Node1&#45;&gt;Node13</title>
<g id="a_edge12_Node000001_Node000013"><a xlink:title=" ">
<path fill="none" stroke="#63b8ff" d="M478.69,-120.19C570.8,-108.24 730.02,-87.57 824.12,-75.35"/>
<polygon fill="#63b8ff" stroke="#63b8ff" points="824.68,-78.81 834.14,-74.05 823.77,-71.87 824.68,-78.81"/>
</a>
</g>
</g>
<!-- Node13&#45;&gt;Node8 -->
<g id="edge13_Node000013_Node000008" class="edge">
<title>Node13&#45;&gt;Node8</title>
<g id="a_edge13_Node000013_Node000008"><a xlink:title=" ">
<path fill="none" stroke="#63b8ff" d="M862.73,-54.98C818.35,-44.85 744.88,-28.06 702,-18.27"/>
<polygon fill="#63b8ff" stroke="#63b8ff" points="702.58,-14.81 692.05,-15.99 701.02,-21.63 702.58,-14.81"/>
</a>
</g>
</g>
</g>
</svg>
