<?xml version="1.0" encoding="UTF-8" standalone="no"?>
<!DOCTYPE svg PUBLIC "-//W3C//DTD SVG 1.1//EN"
 "http://www.w3.org/Graphics/SVG/1.1/DTD/svg11.dtd">
<!-- Generated by graphviz version 2.43.0 (0)
 -->
<!-- Title: include/cppuddle/memory_recycling/buffer_management_interface.hpp Pages: 1 -->
<svg width="988pt" height="218pt"
 viewBox="0.00 0.00 988.00 218.00" xmlns="http://www.w3.org/2000/svg" xmlns:xlink="http://www.w3.org/1999/xlink">
<g id="graph0" class="graph" transform="scale(1 1) rotate(0) translate(4 214)">
<title>include/cppuddle/memory_recycling/buffer_management_interface.hpp</title>
<polygon fill="white" stroke="transparent" points="-4,4 -4,-214 984,-214 984,4 -4,4"/>
<!-- Node1 -->
<g id="node1" class="node">
<title>Node1</title>
<g id="a_node1"><a xlink:title=" ">
<polygon fill="#bfbfbf" stroke="black" points="323,-168.5 323,-209.5 491,-209.5 491,-168.5 323,-168.5"/>
<text text-anchor="start" x="331" y="-197.5" font-family="Helvetica,sans-Serif" font-size="10.00">include/cppuddle/memory</text>
<text text-anchor="start" x="331" y="-186.5" font-family="Helvetica,sans-Serif" font-size="10.00">_recycling/buffer_management</text>
<text text-anchor="middle" x="407" y="-175.5" font-family="Helvetica,sans-Serif" font-size="10.00">_interface.hpp</text>
</a>
</g>
</g>
<!-- Node2 -->
<g id="node2" class="node">
<title>Node2</title>
<g id="a_node2"><a xlink:href="buffer__management_8hpp.html" target="_top" xlink:title=" ">
<polygon fill="white" stroke="black" points="323.5,-112.5 323.5,-131.5 490.5,-131.5 490.5,-112.5 323.5,-112.5"/>
<text text-anchor="middle" x="407" y="-119.5" font-family="Helvetica,sans-Serif" font-size="10.00">detail/buffer_management.hpp</text>
</a>
</g>
</g>
<!-- Node1&#45;&gt;Node2 -->
<g id="edge1" class="edge">
<title>Node1&#45;&gt;Node2</title>
<path fill="none" stroke="midnightblue" d="M407,-168.5C407,-160.07 407,-150.24 407,-141.87"/>
<polygon fill="midnightblue" stroke="midnightblue" points="410.5,-141.65 407,-131.65 403.5,-141.65 410.5,-141.65"/>
</g>
<!-- Node3 -->
<g id="node3" class="node">
<title>Node3</title>
<g id="a_node3"><a xlink:title=" ">
<polygon fill="white" stroke="#bfbfbf" points="0,-56.5 0,-75.5 50,-75.5 50,-56.5 0,-56.5"/>
<text text-anchor="middle" x="25" y="-63.5" font-family="Helvetica,sans-Serif" font-size="10.00">atomic</text>
</a>
</g>
</g>
<!-- Node2&#45;&gt;Node3 -->
<g id="edge2" class="edge">
<title>Node2&#45;&gt;Node3</title>
<path fill="none" stroke="midnightblue" d="M323.18,-113.25C254.81,-106.22 155.58,-94.4 60.27,-76.03"/>
<polygon fill="midnightblue" stroke="midnightblue" points="60.65,-72.54 50.17,-74.05 59.31,-79.41 60.65,-72.54"/>
</g>
<!-- Node4 -->
<g id="node4" class="node">
<title>Node4</title>
<g id="a_node4"><a xlink:title=" ">
<polygon fill="white" stroke="#bfbfbf" points="68,-56.5 68,-75.5 120,-75.5 120,-56.5 68,-56.5"/>
<text text-anchor="middle" x="94" y="-63.5" font-family="Helvetica,sans-Serif" font-size="10.00">cassert</text>
</a>
</g>
</g>
<!-- Node2&#45;&gt;Node4 -->
<g id="edge3" class="edge">
<title>Node2&#45;&gt;Node4</title>
<path fill="none" stroke="midnightblue" d="M344.04,-112.48C289.82,-104.76 209.28,-92.4 130.42,-76.15"/>
<polygon fill="midnightblue" stroke="midnightblue" points="130.82,-72.65 120.31,-74.04 129.39,-79.51 130.82,-72.65"/>
</g>
<!-- Node5 -->
<g id="node5" class="node">
<title>Node5</title>
<g id="a_node5"><a xlink:title=" ">
<polygon fill="white" stroke="#bfbfbf" points="138.5,-56.5 138.5,-75.5 203.5,-75.5 203.5,-56.5 138.5,-56.5"/>
<text text-anchor="middle" x="171" y="-63.5" font-family="Helvetica,sans-Serif" font-size="10.00">functional</text>
</a>
</g>
</g>
<!-- Node2&#45;&gt;Node5 -->
<g id="edge4" class="edge">
<title>Node2&#45;&gt;Node5</title>
<path fill="none" stroke="midnightblue" d="M369.61,-112.44C327.16,-102.73 258.07,-86.92 213.58,-76.74"/>
<polygon fill="midnightblue" stroke="midnightblue" points="214.19,-73.29 203.66,-74.47 212.63,-80.12 214.19,-73.29"/>
</g>
<!-- Node6 -->
<g id="node6" class="node">
<title>Node6</title>
<g id="a_node6"><a xlink:title=" ">
<polygon fill="white" stroke="#bfbfbf" points="222,-56.5 222,-75.5 282,-75.5 282,-56.5 222,-56.5"/>
<text text-anchor="middle" x="252" y="-63.5" font-family="Helvetica,sans-Serif" font-size="10.00">iostream</text>
</a>
</g>
</g>
<!-- Node2&#45;&gt;Node6 -->
<g id="edge5" class="edge">
<title>Node2&#45;&gt;Node6</title>
<path fill="none" stroke="midnightblue" d="M382.44,-112.44C356.48,-103.4 315.33,-89.06 286.2,-78.92"/>
<polygon fill="midnightblue" stroke="midnightblue" points="287.04,-75.5 276.45,-75.52 284.74,-82.11 287.04,-75.5"/>
</g>
<!-- Node7 -->
<g id="node7" class="node">
<title>Node7</title>
<g id="a_node7"><a xlink:title=" ">
<polygon fill="white" stroke="#bfbfbf" points="300,-56.5 300,-75.5 332,-75.5 332,-56.5 300,-56.5"/>
<text text-anchor="middle" x="316" y="-63.5" font-family="Helvetica,sans-Serif" font-size="10.00">list</text>
</a>
</g>
</g>
<!-- Node2&#45;&gt;Node7 -->
<g id="edge6" class="edge">
<title>Node2&#45;&gt;Node7</title>
<path fill="none" stroke="midnightblue" d="M392.38,-112.32C378.05,-103.82 355.99,-90.73 339.25,-80.8"/>
<polygon fill="midnightblue" stroke="midnightblue" points="340.97,-77.75 330.58,-75.65 337.4,-83.77 340.97,-77.75"/>
</g>
<!-- Node8 -->
<g id="node8" class="node">
<title>Node8</title>
<g id="a_node8"><a xlink:title=" ">
<polygon fill="white" stroke="#bfbfbf" points="350,-56.5 350,-75.5 408,-75.5 408,-56.5 350,-56.5"/>
<text text-anchor="middle" x="379" y="-63.5" font-family="Helvetica,sans-Serif" font-size="10.00">memory</text>
</a>
</g>
</g>
<!-- Node2&#45;&gt;Node8 -->
<g id="edge7" class="edge">
<title>Node2&#45;&gt;Node8</title>
<path fill="none" stroke="midnightblue" d="M402.38,-112.08C398.54,-104.69 392.98,-93.95 388.24,-84.81"/>
<polygon fill="midnightblue" stroke="midnightblue" points="391.25,-83.02 383.54,-75.75 385.03,-86.24 391.25,-83.02"/>
</g>
<!-- Node9 -->
<g id="node9" class="node">
<title>Node9</title>
<g id="a_node9"><a xlink:title=" ">
<polygon fill="white" stroke="#bfbfbf" points="644,-0.5 644,-19.5 692,-19.5 692,-0.5 644,-0.5"/>
<text text-anchor="middle" x="668" y="-7.5" font-family="Helvetica,sans-Serif" font-size="10.00">mutex</text>
</a>
</g>
</g>
<!-- Node2&#45;&gt;Node9 -->
<g id="edge8" class="edge">
<title>Node2&#45;&gt;Node9</title>
<path fill="none" stroke="midnightblue" d="M410.88,-112.24C417.66,-98.03 433.05,-70.11 455,-56 510.48,-20.33 589.3,-12.38 633.86,-10.93"/>
<polygon fill="midnightblue" stroke="midnightblue" points="633.97,-14.43 643.88,-10.7 633.8,-7.43 633.97,-14.43"/>
</g>
<!-- Node10 -->
<g id="node10" class="node">
<title>Node10</title>
<g id="a_node10"><a xlink:title=" ">
<polygon fill="white" stroke="#bfbfbf" points="464,-56.5 464,-75.5 520,-75.5 520,-56.5 464,-56.5"/>
<text text-anchor="middle" x="492" y="-63.5" font-family="Helvetica,sans-Serif" font-size="10.00">optional</text>
</a>
</g>
</g>
<!-- Node2&#45;&gt;Node10 -->
<g id="edge9" class="edge">
<title>Node2&#45;&gt;Node10</title>
<path fill="none" stroke="midnightblue" d="M420.66,-112.32C433.92,-103.9 454.27,-90.97 469.85,-81.07"/>
<polygon fill="midnightblue" stroke="midnightblue" points="471.81,-83.97 478.38,-75.65 468.06,-78.06 471.81,-83.97"/>
</g>
<!-- Node11 -->
<g id="node11" class="node">
<title>Node11</title>
<g id="a_node11"><a xlink:title=" ">
<polygon fill="white" stroke="#bfbfbf" points="538.5,-56.5 538.5,-75.5 603.5,-75.5 603.5,-56.5 538.5,-56.5"/>
<text text-anchor="middle" x="571" y="-63.5" font-family="Helvetica,sans-Serif" font-size="10.00">stdexcept</text>
</a>
</g>
</g>
<!-- Node2&#45;&gt;Node11 -->
<g id="edge10" class="edge">
<title>Node2&#45;&gt;Node11</title>
<path fill="none" stroke="midnightblue" d="M432.99,-112.44C460.7,-103.32 504.75,-88.81 535.62,-78.65"/>
<polygon fill="midnightblue" stroke="midnightblue" points="536.73,-81.97 545.14,-75.52 534.54,-75.32 536.73,-81.97"/>
</g>
<!-- Node12 -->
<g id="node12" class="node">
<title>Node12</title>
<g id="a_node12"><a xlink:title=" ">
<polygon fill="white" stroke="#bfbfbf" points="621.5,-56.5 621.5,-75.5 690.5,-75.5 690.5,-56.5 621.5,-56.5"/>
<text text-anchor="middle" x="656" y="-63.5" font-family="Helvetica,sans-Serif" font-size="10.00">type_traits</text>
</a>
</g>
</g>
<!-- Node2&#45;&gt;Node12 -->
<g id="edge11" class="edge">
<title>Node2&#45;&gt;Node12</title>
<path fill="none" stroke="midnightblue" d="M446.45,-112.44C491.3,-102.72 564.34,-86.88 611.26,-76.7"/>
<polygon fill="midnightblue" stroke="midnightblue" points="612.12,-80.1 621.15,-74.56 610.63,-73.26 612.12,-80.1"/>
</g>
<!-- Node13 -->
<g id="node13" class="node">
<title>Node13</title>
<g id="a_node13"><a xlink:title=" ">
<polygon fill="white" stroke="#bfbfbf" points="708.5,-56.5 708.5,-75.5 801.5,-75.5 801.5,-56.5 708.5,-56.5"/>
<text text-anchor="middle" x="755" y="-63.5" font-family="Helvetica,sans-Serif" font-size="10.00">unordered_map</text>
</a>
</g>
</g>
<!-- Node2&#45;&gt;Node13 -->
<g id="edge12" class="edge">
<title>Node2&#45;&gt;Node13</title>
<path fill="none" stroke="midnightblue" d="M463.47,-112.5C520.3,-103.9 610.76,-90.11 698.38,-76.25"/>
<polygon fill="midnightblue" stroke="midnightblue" points="699.17,-79.67 708.49,-74.64 698.07,-72.75 699.17,-79.67"/>
</g>
<!-- Node14 -->
<g id="node14" class="node">
<title>Node14</title>
<g id="a_node14"><a xlink:href="config_8hpp.html" target="_top" xlink:title=" ">
<polygon fill="white" stroke="black" points="820,-56.5 820,-75.5 980,-75.5 980,-56.5 820,-56.5"/>
<text text-anchor="middle" x="900" y="-63.5" font-family="Helvetica,sans-Serif" font-size="10.00">cppuddle/common/config.hpp</text>
</a>
</g>
</g>
<!-- Node2&#45;&gt;Node14 -->
<g id="edge13" class="edge">
<title>Node2&#45;&gt;Node14</title>
<path fill="none" stroke="midnightblue" d="M484.85,-112.47C573.86,-102.72 719.23,-86.8 812.21,-76.62"/>
<polygon fill="midnightblue" stroke="midnightblue" points="812.6,-80.09 822.16,-75.53 811.84,-73.14 812.6,-80.09"/>
</g>
<!-- Node14&#45;&gt;Node9 -->
<g id="edge14" class="edge">
<title>Node14&#45;&gt;Node9</title>
<path fill="none" stroke="midnightblue" d="M863.24,-56.44C818.98,-46.14 745.23,-28.97 702.16,-18.95"/>
<polygon fill="midnightblue" stroke="midnightblue" points="702.7,-15.48 692.16,-16.62 701.11,-22.3 702.7,-15.48"/>
</g>
</g>
</svg>
