<?xml version="1.0" encoding="UTF-8" standalone="no"?>
<!DOCTYPE svg PUBLIC "-//W3C//DTD SVG 1.1//EN"
 "http://www.w3.org/Graphics/SVG/1.1/DTD/svg11.dtd">
<!-- Generated by graphviz version 2.43.0 (0)
 -->
<!-- Title: include/cppuddle/memory_recycling/detail/buffer_management.hpp Pages: 1 -->
<!--zoomable 429 -->
<svg id="main" version="1.1" xmlns="http://www.w3.org/2000/svg" xmlns:xlink="http://www.w3.org/1999/xlink" xml:space="preserve" onload="init(evt)">
<style type="text/css"><![CDATA[
.edge:hover path { stroke: red; }
.edge:hover polygon { stroke: red; fill: red; }
]]></style>
<script type="text/javascript"><![CDATA[
var edges = document.getElementsByTagName('g');
if (edges && edges.length) {
  for (var i=0;i<edges.length;i++) {
    if (edges[i].id.substr(0,4)=='edge') {
      edges[i].setAttribute('class','edge');
    }
  }
}
]]></script>
        <defs>
                <circle id="rim" cx="0" cy="0" r="7"/>
                <circle id="rim2" cx="0" cy="0" r="3.5"/>
                <g id="zoomPlus">
                        <use xlink:href="#rim" fill="#404040">
                                <set attributeName="fill" to="#808080" begin="zoomplus.mouseover" end="zoomplus.mouseout"/>
                        </use>
                        <path d="M-4,0h8M0,-4v8" fill="none" stroke="white" stroke-width="1.5" pointer-events="none"/>
                </g>
                <g id="zoomMin">
                        <use xlink:href="#rim" fill="#404040">
                                <set attributeName="fill" to="#808080" begin="zoomminus.mouseover" end="zoomminus.mouseout"/>
                        </use>
                        <path d="M-4,0h8" fill="none" stroke="white" stroke-width="1.5" pointer-events="none"/>
                </g>
                <g id="dirArrow">
                        <path fill="none" stroke="white" stroke-width="1.5" d="M0,-3.0v7 M-2.5,-0.5L0,-3.0L2.5,-0.5"/>
                </g>
               <g id="resetDef">
                       <use xlink:href="#rim2" fill="#404040">
                               <set attributeName="fill" to="#808080" begin="reset.mouseover" end="reset.mouseout"/>
                       </use>
               </g>
        </defs>

<script type="text/javascript">
var viewWidth = 2083;
var viewHeight = 429;
var sectionId = 'dynsection-1';
</script>
<script xlink:href="svgpan.js"/>
<svg id="graph" class="graph">
<g id="viewport">
<title>include/cppuddle/memory_recycling/detail/buffer_management.hpp</title>
<polygon fill="white" stroke="transparent" points="-4,4 -4,-425 2078.5,-425 2078.5,4 -4,4"/>
<!-- Node1 -->
<g id="node1" class="node">
<title>Node1</title>
<g id="a_node1"><a xlink:title=" ">
<polygon fill="#bfbfbf" stroke="black" points="224,-379.5 224,-420.5 367,-420.5 367,-379.5 224,-379.5"/>
<text text-anchor="start" x="232" y="-408.5" font-family="Helvetica,sans-Serif" font-size="10.00">include/cppuddle/memory</text>
<text text-anchor="start" x="232" y="-397.5" font-family="Helvetica,sans-Serif" font-size="10.00">_recycling/detail/buffer</text>
<text text-anchor="middle" x="295.5" y="-386.5" font-family="Helvetica,sans-Serif" font-size="10.00">_management.hpp</text>
</a>
</g>
</g>
<!-- Node2 -->
<g id="node2" class="node">
<title>Node2</title>
<g id="a_node2"><a xlink:href="buffer__manager_8hpp.html" target="_top" xlink:title=" ">
<polygon fill="white" stroke="black" points="195.5,-156.5 195.5,-175.5 347.5,-175.5 347.5,-156.5 195.5,-156.5"/>
<text text-anchor="middle" x="271.5" y="-163.5" font-family="Helvetica,sans-Serif" font-size="10.00">include/buffer_manager.hpp</text>
</a>
</g>
</g>
<!-- Node1&#45;&gt;Node2 -->
<g id="edge1" class="edge">
<title>Node1&#45;&gt;Node2</title>
<path fill="none" stroke="midnightblue" d="M292.4,-369.02C286.88,-315.64 275.61,-206.78 272.38,-175.55"/>
<polygon fill="midnightblue" stroke="midnightblue" points="288.94,-369.63 293.45,-379.22 295.91,-368.91 288.94,-369.63"/>
</g>
<!-- Node4 -->
<g id="node4" class="node">
<title>Node4</title>
<g id="a_node4"><a xlink:href="buffer__management__interface_8hpp.html" target="_top" xlink:title=" ">
<polygon fill="white" stroke="black" points="977.5,-301.5 977.5,-342.5 1145.5,-342.5 1145.5,-301.5 977.5,-301.5"/>
<text text-anchor="start" x="985.5" y="-330.5" font-family="Helvetica,sans-Serif" font-size="10.00">include/cppuddle/memory</text>
<text text-anchor="start" x="985.5" y="-319.5" font-family="Helvetica,sans-Serif" font-size="10.00">_recycling/buffer_management</text>
<text text-anchor="middle" x="1061.5" y="-308.5" font-family="Helvetica,sans-Serif" font-size="10.00">_interface.hpp</text>
</a>
</g>
</g>
<!-- Node1&#45;&gt;Node4 -->
<g id="edge3" class="edge">
<title>Node1&#45;&gt;Node4</title>
<path fill="none" stroke="midnightblue" d="M377.49,-390.87C524.04,-376.33 829.39,-346.03 977.43,-331.34"/>
<polygon fill="midnightblue" stroke="midnightblue" points="376.82,-387.41 367.22,-391.88 377.52,-394.38 376.82,-387.41"/>
</g>
<!-- Node27 -->
<g id="node27" class="node">
<title>Node27</title>
<g id="a_node27"><a xlink:href="aggregation__executors__and__allocators_8hpp.html" target="_top" xlink:title=" ">
<polygon fill="white" stroke="black" points="94,-301.5 94,-342.5 267,-342.5 267,-301.5 94,-301.5"/>
<text text-anchor="start" x="102" y="-330.5" font-family="Helvetica,sans-Serif" font-size="10.00">include/cppuddle/kernel</text>
<text text-anchor="start" x="102" y="-319.5" font-family="Helvetica,sans-Serif" font-size="10.00">_aggregation/detail/aggregation</text>
<text text-anchor="middle" x="180.5" y="-308.5" font-family="Helvetica,sans-Serif" font-size="10.00">_executors_and_allocators.hpp</text>
</a>
</g>
</g>
<!-- Node1&#45;&gt;Node27 -->
<g id="edge38" class="edge">
<title>Node1&#45;&gt;Node27</title>
<path fill="none" stroke="midnightblue" d="M257.12,-373.64C241.76,-363.49 224.35,-351.98 210.01,-342.51"/>
<polygon fill="midnightblue" stroke="midnightblue" points="255.61,-376.83 265.88,-379.43 259.47,-370.99 255.61,-376.83"/>
</g>
<!-- Node3 -->
<g id="node3" class="node">
<title>Node3</title>
<g id="a_node3"><a xlink:href="cuda__buffer__util_8hpp.html" target="_top" xlink:title=" ">
<polygon fill="white" stroke="black" points="1248.5,-78.5 1248.5,-108.5 1360.5,-108.5 1360.5,-78.5 1248.5,-78.5"/>
<text text-anchor="start" x="1256.5" y="-96.5" font-family="Helvetica,sans-Serif" font-size="10.00">include/cuda_buffer</text>
<text text-anchor="middle" x="1304.5" y="-85.5" font-family="Helvetica,sans-Serif" font-size="10.00">_util.hpp</text>
</a>
</g>
</g>
<!-- Node2&#45;&gt;Node3 -->
<g id="edge2" class="edge">
<title>Node2&#45;&gt;Node3</title>
<path fill="none" stroke="midnightblue" d="M325.88,-154.73C347.2,-151.08 371.93,-147.31 394.5,-145 768,-106.8 866.19,-157.46 1238.5,-109 1241.76,-108.58 1245.09,-108.07 1248.45,-107.51"/>
<polygon fill="midnightblue" stroke="midnightblue" points="325.28,-151.29 316.03,-156.45 326.48,-158.18 325.28,-151.29"/>
</g>
<!-- Node4&#45;&gt;Node2 -->
<g id="edge4" class="edge">
<title>Node4&#45;&gt;Node2</title>
<path fill="none" stroke="midnightblue" d="M967.11,-319.23C857.36,-315.35 671.44,-303.15 516.5,-265 427.09,-242.98 327.05,-195.13 288.19,-175.58"/>
<polygon fill="midnightblue" stroke="midnightblue" points="967.06,-322.73 977.17,-319.57 967.29,-315.73 967.06,-322.73"/>
</g>
<!-- Node5 -->
<g id="node5" class="node">
<title>Node5</title>
<g id="a_node5"><a xlink:href="aligned__recycling__allocators_8hpp.html" target="_top" xlink:title=" ">
<polygon fill="white" stroke="black" points="1663,-223.5 1663,-264.5 1818,-264.5 1818,-223.5 1663,-223.5"/>
<text text-anchor="start" x="1671" y="-252.5" font-family="Helvetica,sans-Serif" font-size="10.00">include/cppuddle/memory</text>
<text text-anchor="start" x="1671" y="-241.5" font-family="Helvetica,sans-Serif" font-size="10.00">_recycling/aligned_recycling</text>
<text text-anchor="middle" x="1740.5" y="-230.5" font-family="Helvetica,sans-Serif" font-size="10.00">_allocators.hpp</text>
</a>
</g>
</g>
<!-- Node4&#45;&gt;Node5 -->
<g id="edge5" class="edge">
<title>Node4&#45;&gt;Node5</title>
<path fill="none" stroke="midnightblue" d="M1155.72,-310.45C1290.94,-295.32 1537.51,-267.72 1662.87,-253.69"/>
<polygon fill="midnightblue" stroke="midnightblue" points="1155.33,-306.98 1145.78,-311.57 1156.11,-313.93 1155.33,-306.98"/>
</g>
<!-- Node8 -->
<g id="node8" class="node">
<title>Node8</title>
<g id="a_node8"><a xlink:href="cuda__recycling__allocators_8hpp.html" target="_top" xlink:title=" ">
<polygon fill="white" stroke="black" points="1094,-223.5 1094,-264.5 1237,-264.5 1237,-223.5 1094,-223.5"/>
<text text-anchor="start" x="1102" y="-252.5" font-family="Helvetica,sans-Serif" font-size="10.00">include/cppuddle/memory</text>
<text text-anchor="start" x="1102" y="-241.5" font-family="Helvetica,sans-Serif" font-size="10.00">_recycling/cuda_recycling</text>
<text text-anchor="middle" x="1165.5" y="-230.5" font-family="Helvetica,sans-Serif" font-size="10.00">_allocators.hpp</text>
</a>
</g>
</g>
<!-- Node4&#45;&gt;Node8 -->
<g id="edge8" class="edge">
<title>Node4&#45;&gt;Node8</title>
<path fill="none" stroke="midnightblue" d="M1096.6,-295.35C1110.39,-285.27 1125.96,-273.89 1138.81,-264.51"/>
<polygon fill="midnightblue" stroke="midnightblue" points="1094.29,-292.7 1088.28,-301.43 1098.42,-298.35 1094.29,-292.7"/>
</g>
<!-- Node16 -->
<g id="node16" class="node">
<title>Node16</title>
<g id="a_node16"><a xlink:href="std__recycling__allocators_8hpp.html" target="_top" xlink:title=" ">
<polygon fill="white" stroke="black" points="526,-223.5 526,-264.5 669,-264.5 669,-223.5 526,-223.5"/>
<text text-anchor="start" x="534" y="-252.5" font-family="Helvetica,sans-Serif" font-size="10.00">include/cppuddle/memory</text>
<text text-anchor="start" x="534" y="-241.5" font-family="Helvetica,sans-Serif" font-size="10.00">_recycling/std_recycling</text>
<text text-anchor="middle" x="597.5" y="-230.5" font-family="Helvetica,sans-Serif" font-size="10.00">_allocators.hpp</text>
</a>
</g>
</g>
<!-- Node4&#45;&gt;Node16 -->
<g id="edge21" class="edge">
<title>Node4&#45;&gt;Node16</title>
<path fill="none" stroke="midnightblue" d="M967.46,-305.6C879.24,-291.15 749.2,-269.85 669.11,-256.73"/>
<polygon fill="midnightblue" stroke="midnightblue" points="967.04,-309.07 977.47,-307.24 968.17,-302.17 967.04,-309.07"/>
</g>
<!-- Node20 -->
<g id="node20" class="node">
<title>Node20</title>
<g id="a_node20"><a xlink:href="hip__recycling__allocators_8hpp.html" target="_top" xlink:title=" ">
<polygon fill="white" stroke="black" points="1407,-223.5 1407,-264.5 1550,-264.5 1550,-223.5 1407,-223.5"/>
<text text-anchor="start" x="1415" y="-252.5" font-family="Helvetica,sans-Serif" font-size="10.00">include/cppuddle/memory</text>
<text text-anchor="start" x="1415" y="-241.5" font-family="Helvetica,sans-Serif" font-size="10.00">_recycling/hip_recycling</text>
<text text-anchor="middle" x="1478.5" y="-230.5" font-family="Helvetica,sans-Serif" font-size="10.00">_allocators.hpp</text>
</a>
</g>
</g>
<!-- Node4&#45;&gt;Node20 -->
<g id="edge28" class="edge">
<title>Node4&#45;&gt;Node20</title>
<path fill="none" stroke="midnightblue" d="M1155.72,-303.83C1231.92,-289.94 1337.61,-270.68 1406.99,-258.03"/>
<polygon fill="midnightblue" stroke="midnightblue" points="1154.85,-300.43 1145.64,-305.67 1156.1,-307.32 1154.85,-300.43"/>
</g>
<!-- Node23 -->
<g id="node23" class="node">
<title>Node23</title>
<g id="a_node23"><a xlink:href="sycl__recycling__allocators_8hpp.html" target="_top" xlink:title=" ">
<polygon fill="white" stroke="black" points="1892,-223.5 1892,-264.5 2035,-264.5 2035,-223.5 1892,-223.5"/>
<text text-anchor="start" x="1900" y="-252.5" font-family="Helvetica,sans-Serif" font-size="10.00">include/cppuddle/memory</text>
<text text-anchor="start" x="1900" y="-241.5" font-family="Helvetica,sans-Serif" font-size="10.00">_recycling/sycl_recycling</text>
<text text-anchor="middle" x="1963.5" y="-230.5" font-family="Helvetica,sans-Serif" font-size="10.00">_allocators.hpp</text>
</a>
</g>
</g>
<!-- Node4&#45;&gt;Node23 -->
<g id="edge32" class="edge">
<title>Node4&#45;&gt;Node23</title>
<path fill="none" stroke="midnightblue" d="M1155.74,-316.33C1300.48,-308.66 1586.1,-291.54 1827.5,-265 1848.49,-262.69 1871.23,-259.59 1891.99,-256.52"/>
<polygon fill="midnightblue" stroke="midnightblue" points="1155.36,-312.85 1145.56,-316.87 1155.73,-319.84 1155.36,-312.85"/>
</g>
<!-- Node25 -->
<g id="node25" class="node">
<title>Node25</title>
<g id="a_node25"><a xlink:href="recycling__kokkos__view_8hpp.html" target="_top" xlink:title=" ">
<polygon fill="white" stroke="black" points="887,-223.5 887,-264.5 1030,-264.5 1030,-223.5 887,-223.5"/>
<text text-anchor="start" x="895" y="-252.5" font-family="Helvetica,sans-Serif" font-size="10.00">include/cppuddle/memory</text>
<text text-anchor="start" x="895" y="-241.5" font-family="Helvetica,sans-Serif" font-size="10.00">_recycling/util/recycling</text>
<text text-anchor="middle" x="958.5" y="-230.5" font-family="Helvetica,sans-Serif" font-size="10.00">_kokkos_view.hpp</text>
</a>
</g>
</g>
<!-- Node4&#45;&gt;Node25 -->
<g id="edge34" class="edge">
<title>Node4&#45;&gt;Node25</title>
<path fill="none" stroke="midnightblue" d="M1026.74,-295.35C1013.08,-285.27 997.66,-273.89 984.94,-264.51"/>
<polygon fill="midnightblue" stroke="midnightblue" points="1024.85,-298.31 1034.97,-301.43 1029.01,-292.67 1024.85,-298.31"/>
</g>
<!-- Node6 -->
<g id="node6" class="node">
<title>Node6</title>
<g id="a_node6"><a xlink:href="aligned__buffer__util_8hpp.html" target="_top" xlink:title=" ">
<polygon fill="white" stroke="black" points="1823,-151 1823,-181 1948,-181 1948,-151 1823,-151"/>
<text text-anchor="start" x="1831" y="-169" font-family="Helvetica,sans-Serif" font-size="10.00">include/aligned_buffer</text>
<text text-anchor="middle" x="1885.5" y="-158" font-family="Helvetica,sans-Serif" font-size="10.00">_util.hpp</text>
</a>
</g>
</g>
<!-- Node5&#45;&gt;Node6 -->
<g id="edge6" class="edge">
<title>Node5&#45;&gt;Node6</title>
<path fill="none" stroke="midnightblue" d="M1786.97,-218.64C1810.53,-206.3 1838.31,-191.73 1858.36,-181.23"/>
<polygon fill="midnightblue" stroke="midnightblue" points="1785.07,-215.69 1777.84,-223.43 1788.32,-221.89 1785.07,-215.69"/>
</g>
<!-- Node7 -->
<g id="node7" class="node">
<title>Node7</title>
<g id="a_node7"><a xlink:href="allocator__aligned__test_8cpp.html" target="_top" xlink:title=" ">
<polygon fill="white" stroke="black" points="1676.5,-151 1676.5,-181 1804.5,-181 1804.5,-151 1676.5,-151"/>
<text text-anchor="start" x="1684.5" y="-169" font-family="Helvetica,sans-Serif" font-size="10.00">tests/allocator_aligned</text>
<text text-anchor="middle" x="1740.5" y="-158" font-family="Helvetica,sans-Serif" font-size="10.00">_test.cpp</text>
</a>
</g>
</g>
<!-- Node5&#45;&gt;Node7 -->
<g id="edge7" class="edge">
<title>Node5&#45;&gt;Node7</title>
<path fill="none" stroke="midnightblue" d="M1740.5,-213.28C1740.5,-202.25 1740.5,-190.25 1740.5,-181.23"/>
<polygon fill="midnightblue" stroke="midnightblue" points="1737,-213.43 1740.5,-223.43 1744,-213.43 1737,-213.43"/>
</g>
<!-- Node8&#45;&gt;Node3 -->
<g id="edge15" class="edge">
<title>Node8&#45;&gt;Node3</title>
<path fill="none" stroke="midnightblue" d="M1247.21,-232.51C1301.79,-223.64 1366.56,-208.84 1383.5,-187 1394.94,-172.25 1392.47,-161.37 1383.5,-145 1374.51,-128.58 1357.65,-116.72 1341.81,-108.64"/>
<polygon fill="midnightblue" stroke="midnightblue" points="1246.49,-229.08 1237.16,-234.1 1247.58,-236 1246.49,-229.08"/>
</g>
<!-- Node9 -->
<g id="node9" class="node">
<title>Node9</title>
<g id="a_node9"><a xlink:href="cuda__recycling__device__buffer_8hpp.html" target="_top" xlink:title="Contains a RAII wrappers for CUDA device buffers. Intended to be used with the recycling allocators b...">
<polygon fill="white" stroke="black" points="1213,-145.5 1213,-186.5 1374,-186.5 1374,-145.5 1213,-145.5"/>
<text text-anchor="start" x="1221" y="-174.5" font-family="Helvetica,sans-Serif" font-size="10.00">include/cppuddle/memory</text>
<text text-anchor="start" x="1221" y="-163.5" font-family="Helvetica,sans-Serif" font-size="10.00">_recycling/util/cuda_recycling</text>
<text text-anchor="middle" x="1293.5" y="-152.5" font-family="Helvetica,sans-Serif" font-size="10.00">_device_buffer.hpp</text>
</a>
</g>
</g>
<!-- Node8&#45;&gt;Node9 -->
<g id="edge9" class="edge">
<title>Node8&#45;&gt;Node9</title>
<path fill="none" stroke="midnightblue" d="M1207.26,-218.2C1224.59,-207.92 1244.39,-196.16 1260.65,-186.51"/>
<polygon fill="midnightblue" stroke="midnightblue" points="1205.27,-215.31 1198.46,-223.43 1208.85,-221.33 1205.27,-215.31"/>
</g>
<!-- Node10 -->
<g id="node10" class="node">
<title>Node10</title>
<g id="a_node10"><a xlink:href="stream__test_8hpp.html" target="_top" xlink:title=" ">
<polygon fill="white" stroke="black" points="1379,-84 1379,-103 1502,-103 1502,-84 1379,-84"/>
<text text-anchor="middle" x="1440.5" y="-91" font-family="Helvetica,sans-Serif" font-size="10.00">tests/stream_test.hpp</text>
</a>
</g>
</g>
<!-- Node8&#45;&gt;Node10 -->
<g id="edge18" class="edge">
<title>Node8&#45;&gt;Node10</title>
<path fill="none" stroke="midnightblue" d="M1247.22,-241.41C1296.59,-236.45 1357.97,-222.7 1400.5,-187 1427.03,-164.73 1436.45,-121.57 1439.36,-103.16"/>
<polygon fill="midnightblue" stroke="midnightblue" points="1246.85,-237.93 1237.2,-242.31 1247.47,-244.9 1246.85,-237.93"/>
</g>
<!-- Node12 -->
<g id="node12" class="node">
<title>Node12</title>
<g id="a_node12"><a xlink:href="work__aggregation__cuda__triad_8cpp.html" target="_top" xlink:title=" ">
<polygon fill="white" stroke="black" points="950,-78.5 950,-108.5 1081,-108.5 1081,-78.5 950,-78.5"/>
<text text-anchor="start" x="958" y="-96.5" font-family="Helvetica,sans-Serif" font-size="10.00">tests/work_aggregation</text>
<text text-anchor="middle" x="1015.5" y="-85.5" font-family="Helvetica,sans-Serif" font-size="10.00">_cuda_triad.cpp</text>
</a>
</g>
</g>
<!-- Node8&#45;&gt;Node12 -->
<g id="edge19" class="edge">
<title>Node8&#45;&gt;Node12</title>
<path fill="none" stroke="midnightblue" d="M1159.93,-213.5C1154.57,-192.18 1144.52,-163.91 1126.5,-145 1110.43,-128.14 1087.68,-116.45 1066.95,-108.59"/>
<polygon fill="midnightblue" stroke="midnightblue" points="1156.54,-214.38 1162.2,-223.34 1163.36,-212.81 1156.54,-214.38"/>
</g>
<!-- Node13 -->
<g id="node13" class="node">
<title>Node13</title>
<g id="a_node13"><a xlink:href="work__aggregation__test_8cpp.html" target="_top" xlink:title=" ">
<polygon fill="white" stroke="black" points="1099,-78.5 1099,-108.5 1230,-108.5 1230,-78.5 1099,-78.5"/>
<text text-anchor="start" x="1107" y="-96.5" font-family="Helvetica,sans-Serif" font-size="10.00">tests/work_aggregation</text>
<text text-anchor="middle" x="1164.5" y="-85.5" font-family="Helvetica,sans-Serif" font-size="10.00">_test.cpp</text>
</a>
</g>
</g>
<!-- Node8&#45;&gt;Node13 -->
<g id="edge20" class="edge">
<title>Node8&#45;&gt;Node13</title>
<path fill="none" stroke="midnightblue" d="M1165.3,-213.22C1165.09,-181.42 1164.76,-132.4 1164.59,-108.53"/>
<polygon fill="midnightblue" stroke="midnightblue" points="1161.8,-213.3 1165.37,-223.28 1168.8,-213.26 1161.8,-213.3"/>
</g>
<!-- Node14 -->
<g id="node14" class="node">
<title>Node14</title>
<g id="a_node14"><a xlink:href="allocator__kokkos__test_8cpp.html" target="_top" xlink:title=" ">
<polygon fill="white" stroke="black" points="993,-151 993,-181 1118,-181 1118,-151 993,-151"/>
<text text-anchor="start" x="1001" y="-169" font-family="Helvetica,sans-Serif" font-size="10.00">tests/allocator_kokkos</text>
<text text-anchor="middle" x="1055.5" y="-158" font-family="Helvetica,sans-Serif" font-size="10.00">_test.cpp</text>
</a>
</g>
</g>
<!-- Node8&#45;&gt;Node14 -->
<g id="edge16" class="edge">
<title>Node8&#45;&gt;Node14</title>
<path fill="none" stroke="midnightblue" d="M1128.82,-217.66C1111.26,-205.53 1090.89,-191.45 1076.09,-181.23"/>
<polygon fill="midnightblue" stroke="midnightblue" points="1126.96,-220.62 1137.17,-223.43 1130.93,-214.86 1126.96,-220.62"/>
</g>
<!-- Node15 -->
<g id="node15" class="node">
<title>Node15</title>
<g id="a_node15"><a xlink:href="allocator__kokkos__executor__for__loop__test_8cpp.html" target="_top" xlink:title=" ">
<polygon fill="white" stroke="black" points="681,-151 681,-181 834,-181 834,-151 681,-151"/>
<text text-anchor="start" x="689" y="-169" font-family="Helvetica,sans-Serif" font-size="10.00">tests/allocator_kokkos</text>
<text text-anchor="middle" x="757.5" y="-158" font-family="Helvetica,sans-Serif" font-size="10.00">_executor_for_loop_test.cpp</text>
</a>
</g>
</g>
<!-- Node8&#45;&gt;Node15 -->
<g id="edge17" class="edge">
<title>Node8&#45;&gt;Node15</title>
<path fill="none" stroke="midnightblue" d="M1083.76,-230.09C1018.54,-219.47 924.92,-203.53 843.5,-187 834.49,-185.17 824.97,-183.1 815.69,-181"/>
<polygon fill="midnightblue" stroke="midnightblue" points="1083.55,-233.6 1093.98,-231.75 1084.67,-226.69 1083.55,-233.6"/>
</g>
<!-- Node9&#45;&gt;Node3 -->
<g id="edge10" class="edge">
<title>Node9&#45;&gt;Node3</title>
<path fill="none" stroke="midnightblue" d="M1298.12,-135.38C1299.55,-126.21 1301.06,-116.53 1302.25,-108.89"/>
<polygon fill="midnightblue" stroke="midnightblue" points="1294.65,-134.94 1296.56,-145.36 1301.56,-136.02 1294.65,-134.94"/>
</g>
<!-- Node9&#45;&gt;Node10 -->
<g id="edge11" class="edge">
<title>Node9&#45;&gt;Node10</title>
<path fill="none" stroke="midnightblue" d="M1343.48,-141.03C1370.75,-127.95 1402.83,-112.56 1422.42,-103.17"/>
<polygon fill="midnightblue" stroke="midnightblue" points="1341.95,-137.88 1334.45,-145.36 1344.98,-144.19 1341.95,-137.88"/>
</g>
<!-- Node9&#45;&gt;Node12 -->
<g id="edge13" class="edge">
<title>Node9&#45;&gt;Node12</title>
<path fill="none" stroke="midnightblue" d="M1206.54,-142.95C1162.3,-131.73 1109.83,-118.42 1071.09,-108.6"/>
<polygon fill="midnightblue" stroke="midnightblue" points="1205.88,-146.39 1216.43,-145.46 1207.6,-139.6 1205.88,-146.39"/>
</g>
<!-- Node9&#45;&gt;Node13 -->
<g id="edge14" class="edge">
<title>Node9&#45;&gt;Node13</title>
<path fill="none" stroke="midnightblue" d="M1248.56,-140.44C1229.12,-129.82 1207.07,-117.76 1190.43,-108.67"/>
<polygon fill="midnightblue" stroke="midnightblue" points="1247.11,-143.64 1257.57,-145.36 1250.47,-137.49 1247.11,-143.64"/>
</g>
<!-- Node11 -->
<g id="node11" class="node">
<title>Node11</title>
<g id="a_node11"><a xlink:href="stream__test_8cpp.html" target="_top" xlink:title=" ">
<polygon fill="white" stroke="black" points="1379.5,-11.5 1379.5,-30.5 1501.5,-30.5 1501.5,-11.5 1379.5,-11.5"/>
<text text-anchor="middle" x="1440.5" y="-18.5" font-family="Helvetica,sans-Serif" font-size="10.00">tests/stream_test.cpp</text>
</a>
</g>
</g>
<!-- Node10&#45;&gt;Node11 -->
<g id="edge12" class="edge">
<title>Node10&#45;&gt;Node11</title>
<path fill="none" stroke="midnightblue" d="M1440.5,-73.44C1440.5,-59.53 1440.5,-41.32 1440.5,-30.72"/>
<polygon fill="midnightblue" stroke="midnightblue" points="1437,-73.86 1440.5,-83.86 1444,-73.86 1437,-73.86"/>
</g>
<!-- Node16&#45;&gt;Node2 -->
<g id="edge22" class="edge">
<title>Node16&#45;&gt;Node2</title>
<path fill="none" stroke="midnightblue" d="M515.89,-223.97C449.21,-208.43 358.07,-187.18 308.06,-175.52"/>
<polygon fill="midnightblue" stroke="midnightblue" points="515.42,-227.46 525.96,-226.32 517.01,-220.64 515.42,-227.46"/>
</g>
<!-- Node16&#45;&gt;Node14 -->
<g id="edge24" class="edge">
<title>Node16&#45;&gt;Node14</title>
<path fill="none" stroke="midnightblue" d="M679.43,-234.17C757.93,-224.99 879.5,-208.9 983.5,-187 991.5,-185.32 999.92,-183.25 1008.07,-181.09"/>
<polygon fill="midnightblue" stroke="midnightblue" points="678.65,-230.74 669.12,-235.37 679.46,-237.69 678.65,-230.74"/>
</g>
<!-- Node16&#45;&gt;Node15 -->
<g id="edge25" class="edge">
<title>Node16&#45;&gt;Node15</title>
<path fill="none" stroke="midnightblue" d="M647.75,-219.13C673.96,-206.68 705.14,-191.87 727.55,-181.23"/>
<polygon fill="midnightblue" stroke="midnightblue" points="646.24,-215.98 638.7,-223.43 649.24,-222.3 646.24,-215.98"/>
</g>
<!-- Node17 -->
<g id="node17" class="node">
<title>Node17</title>
<g id="a_node17"><a xlink:href="allocator__hpx__test_8cpp.html" target="_top" xlink:title=" ">
<polygon fill="white" stroke="black" points="403.5,-151 403.5,-181 513.5,-181 513.5,-151 403.5,-151"/>
<text text-anchor="start" x="411.5" y="-169" font-family="Helvetica,sans-Serif" font-size="10.00">tests/allocator_hpx</text>
<text text-anchor="middle" x="458.5" y="-158" font-family="Helvetica,sans-Serif" font-size="10.00">_test.cpp</text>
</a>
</g>
</g>
<!-- Node16&#45;&gt;Node17 -->
<g id="edge23" class="edge">
<title>Node16&#45;&gt;Node17</title>
<path fill="none" stroke="midnightblue" d="M552.65,-218.48C530.14,-206.17 503.65,-191.69 484.52,-181.23"/>
<polygon fill="midnightblue" stroke="midnightblue" points="551.25,-221.7 561.7,-223.43 554.61,-215.56 551.25,-221.7"/>
</g>
<!-- Node18 -->
<g id="node18" class="node">
<title>Node18</title>
<g id="a_node18"><a xlink:href="allocator__test_8cpp.html" target="_top" xlink:title=" ">
<polygon fill="white" stroke="black" points="532,-156.5 532,-175.5 663,-175.5 663,-156.5 532,-156.5"/>
<text text-anchor="middle" x="597.5" y="-163.5" font-family="Helvetica,sans-Serif" font-size="10.00">tests/allocator_test.cpp</text>
</a>
</g>
</g>
<!-- Node16&#45;&gt;Node18 -->
<g id="edge26" class="edge">
<title>Node16&#45;&gt;Node18</title>
<path fill="none" stroke="midnightblue" d="M597.5,-213.05C597.5,-199.56 597.5,-184.65 597.5,-175.55"/>
<polygon fill="midnightblue" stroke="midnightblue" points="594,-213.43 597.5,-223.43 601,-213.43 594,-213.43"/>
</g>
<!-- Node19 -->
<g id="node19" class="node">
<title>Node19</title>
<g id="a_node19"><a xlink:href="work__aggregation__cpu__triad_8cpp.html" target="_top" xlink:title=" ">
<polygon fill="white" stroke="black" points="236,-78.5 236,-108.5 367,-108.5 367,-78.5 236,-78.5"/>
<text text-anchor="start" x="244" y="-96.5" font-family="Helvetica,sans-Serif" font-size="10.00">tests/work_aggregation</text>
<text text-anchor="middle" x="301.5" y="-85.5" font-family="Helvetica,sans-Serif" font-size="10.00">_cpu_triad.cpp</text>
</a>
</g>
</g>
<!-- Node16&#45;&gt;Node19 -->
<g id="edge27" class="edge">
<title>Node16&#45;&gt;Node19</title>
<path fill="none" stroke="midnightblue" d="M515.65,-231.35C476.84,-223.18 431.07,-209.54 394.5,-187 373.07,-173.79 374.23,-162.87 356.5,-145 343.9,-132.3 328.9,-118.62 317.75,-108.7"/>
<polygon fill="midnightblue" stroke="midnightblue" points="515.39,-234.87 525.88,-233.41 516.77,-228.01 515.39,-234.87"/>
</g>
<!-- Node21 -->
<g id="node21" class="node">
<title>Node21</title>
<g id="a_node21"><a xlink:href="hip__recycling__device__buffer_8hpp.html" target="_top" xlink:title=" ">
<polygon fill="white" stroke="black" points="1506.5,-145.5 1506.5,-186.5 1658.5,-186.5 1658.5,-145.5 1506.5,-145.5"/>
<text text-anchor="start" x="1514.5" y="-174.5" font-family="Helvetica,sans-Serif" font-size="10.00">include/cppuddle/memory</text>
<text text-anchor="start" x="1514.5" y="-163.5" font-family="Helvetica,sans-Serif" font-size="10.00">_recycling/util/hip_recycling</text>
<text text-anchor="middle" x="1582.5" y="-152.5" font-family="Helvetica,sans-Serif" font-size="10.00">_device_buffer.hpp</text>
</a>
</g>
</g>
<!-- Node20&#45;&gt;Node21 -->
<g id="edge29" class="edge">
<title>Node20&#45;&gt;Node21</title>
<path fill="none" stroke="midnightblue" d="M1513.6,-217.35C1527.39,-207.27 1542.96,-195.89 1555.81,-186.51"/>
<polygon fill="midnightblue" stroke="midnightblue" points="1511.29,-214.7 1505.28,-223.43 1515.42,-220.35 1511.29,-214.7"/>
</g>
<!-- Node22 -->
<g id="node22" class="node">
<title>Node22</title>
<g id="a_node22"><a xlink:href="hip__buffer__util_8hpp.html" target="_top" xlink:title=" ">
<polygon fill="white" stroke="black" points="1525.5,-78.5 1525.5,-108.5 1629.5,-108.5 1629.5,-78.5 1525.5,-78.5"/>
<text text-anchor="start" x="1533.5" y="-96.5" font-family="Helvetica,sans-Serif" font-size="10.00">include/hip_buffer</text>
<text text-anchor="middle" x="1577.5" y="-85.5" font-family="Helvetica,sans-Serif" font-size="10.00">_util.hpp</text>
</a>
</g>
</g>
<!-- Node20&#45;&gt;Node22 -->
<g id="edge31" class="edge">
<title>Node20&#45;&gt;Node22</title>
<path fill="none" stroke="midnightblue" d="M1478.24,-213.06C1479.43,-192.33 1483.84,-164.98 1497.5,-145 1508.53,-128.86 1526.59,-116.82 1542.76,-108.55"/>
<polygon fill="midnightblue" stroke="midnightblue" points="1474.74,-213.1 1477.88,-223.22 1481.73,-213.35 1474.74,-213.1"/>
</g>
<!-- Node21&#45;&gt;Node22 -->
<g id="edge30" class="edge">
<title>Node21&#45;&gt;Node22</title>
<path fill="none" stroke="midnightblue" d="M1580.4,-135.38C1579.75,-126.21 1579.06,-116.53 1578.52,-108.89"/>
<polygon fill="midnightblue" stroke="midnightblue" points="1576.91,-135.63 1581.11,-145.36 1583.89,-135.14 1576.91,-135.63"/>
</g>
<!-- Node24 -->
<g id="node24" class="node">
<title>Node24</title>
<g id="a_node24"><a xlink:href="sycl__buffer__util_8hpp.html" target="_top" xlink:title=" ">
<polygon fill="white" stroke="black" points="1966.5,-151 1966.5,-181 2074.5,-181 2074.5,-151 1966.5,-151"/>
<text text-anchor="start" x="1974.5" y="-169" font-family="Helvetica,sans-Serif" font-size="10.00">include/sycl_buffer</text>
<text text-anchor="middle" x="2020.5" y="-158" font-family="Helvetica,sans-Serif" font-size="10.00">_util.hpp</text>
</a>
</g>
</g>
<!-- Node23&#45;&gt;Node24 -->
<g id="edge33" class="edge">
<title>Node23&#45;&gt;Node24</title>
<path fill="none" stroke="midnightblue" d="M1984.26,-215.32C1992.94,-203.75 2002.65,-190.8 2009.83,-181.23"/>
<polygon fill="midnightblue" stroke="midnightblue" points="1981.38,-213.33 1978.18,-223.43 1986.98,-217.53 1981.38,-213.33"/>
</g>
<!-- Node25&#45;&gt;Node14 -->
<g id="edge36" class="edge">
<title>Node25&#45;&gt;Node14</title>
<path fill="none" stroke="midnightblue" d="M991.69,-216.99C1006.98,-205.02 1024.53,-191.27 1037.34,-181.23"/>
<polygon fill="midnightblue" stroke="midnightblue" points="989.19,-214.51 983.48,-223.43 993.51,-220.02 989.19,-214.51"/>
</g>
<!-- Node25&#45;&gt;Node15 -->
<g id="edge37" class="edge">
<title>Node25&#45;&gt;Node15</title>
<path fill="none" stroke="midnightblue" d="M897.07,-219.77C863.68,-207.15 823.47,-191.94 794.81,-181.11"/>
<polygon fill="midnightblue" stroke="midnightblue" points="896.15,-223.17 906.74,-223.43 898.62,-216.62 896.15,-223.17"/>
</g>
<!-- Node26 -->
<g id="node26" class="node">
<title>Node26</title>
<g id="a_node26"><a xlink:href="kokkos__buffer__util_8hpp.html" target="_top" xlink:title=" ">
<polygon fill="white" stroke="black" points="852.5,-151 852.5,-181 974.5,-181 974.5,-151 852.5,-151"/>
<text text-anchor="start" x="860.5" y="-169" font-family="Helvetica,sans-Serif" font-size="10.00">include/kokkos_buffer</text>
<text text-anchor="middle" x="913.5" y="-158" font-family="Helvetica,sans-Serif" font-size="10.00">_util.hpp</text>
</a>
</g>
</g>
<!-- Node25&#45;&gt;Node26 -->
<g id="edge35" class="edge">
<title>Node25&#45;&gt;Node26</title>
<path fill="none" stroke="midnightblue" d="M941.71,-214.64C934.96,-203.25 927.48,-190.62 921.92,-181.23"/>
<polygon fill="midnightblue" stroke="midnightblue" points="938.8,-216.61 946.91,-223.43 944.83,-213.04 938.8,-216.61"/>
</g>
<!-- Node28 -->
<g id="node28" class="node">
<title>Node28</title>
<g id="a_node28"><a xlink:href="aggregation__executor__pools_8hpp.html" target="_top" xlink:title=" ">
<polygon fill="white" stroke="black" points="94,-223.5 94,-264.5 267,-264.5 267,-223.5 94,-223.5"/>
<text text-anchor="start" x="102" y="-252.5" font-family="Helvetica,sans-Serif" font-size="10.00">include/cppuddle/kernel</text>
<text text-anchor="start" x="102" y="-241.5" font-family="Helvetica,sans-Serif" font-size="10.00">_aggregation/detail/aggregation</text>
<text text-anchor="middle" x="180.5" y="-230.5" font-family="Helvetica,sans-Serif" font-size="10.00">_executor_pools.hpp</text>
</a>
</g>
</g>
<!-- Node27&#45;&gt;Node28 -->
<g id="edge39" class="edge">
<title>Node27&#45;&gt;Node28</title>
<path fill="none" stroke="midnightblue" d="M180.5,-291.3C180.5,-282.3 180.5,-272.65 180.5,-264.51"/>
<polygon fill="midnightblue" stroke="midnightblue" points="177,-291.43 180.5,-301.43 184,-291.43 177,-291.43"/>
</g>
<!-- Node29 -->
<g id="node29" class="node">
<title>Node29</title>
<g id="a_node29"><a xlink:href="kernel__aggregation__interface_8hpp.html" target="_top" xlink:title=" ">
<polygon fill="white" stroke="black" points="0,-145.5 0,-186.5 177,-186.5 177,-145.5 0,-145.5"/>
<text text-anchor="start" x="8" y="-174.5" font-family="Helvetica,sans-Serif" font-size="10.00">include/cppuddle/kernel</text>
<text text-anchor="start" x="8" y="-163.5" font-family="Helvetica,sans-Serif" font-size="10.00">_aggregation/kernel_aggregation</text>
<text text-anchor="middle" x="88.5" y="-152.5" font-family="Helvetica,sans-Serif" font-size="10.00">_interface.hpp</text>
</a>
</g>
</g>
<!-- Node27&#45;&gt;Node29 -->
<g id="edge46" class="edge">
<title>Node27&#45;&gt;Node29</title>
<path fill="none" stroke="midnightblue" d="M116.48,-296.23C103.71,-288.24 91.96,-277.98 84.5,-265 70.68,-240.93 76.08,-207.78 81.83,-186.87"/>
<polygon fill="midnightblue" stroke="midnightblue" points="115.02,-299.43 125.43,-301.41 118.53,-293.37 115.02,-299.43"/>
</g>
<!-- Node28&#45;&gt;Node29 -->
<g id="edge40" class="edge">
<title>Node28&#45;&gt;Node29</title>
<path fill="none" stroke="midnightblue" d="M148.76,-216.78C136.73,-206.84 123.26,-195.72 112.11,-186.51"/>
<polygon fill="midnightblue" stroke="midnightblue" points="146.87,-219.76 156.81,-223.43 151.33,-214.36 146.87,-219.76"/>
</g>
<!-- Node29&#45;&gt;Node12 -->
<g id="edge44" class="edge">
<title>Node29&#45;&gt;Node12</title>
<path fill="none" stroke="midnightblue" d="M187.36,-145C476.96,-107.53 811.02,-97.89 949.91,-95.37"/>
<polygon fill="midnightblue" stroke="midnightblue" points="186.54,-141.57 177.08,-146.34 187.45,-148.52 186.54,-141.57"/>
</g>
<!-- Node29&#45;&gt;Node13 -->
<g id="edge45" class="edge">
<title>Node29&#45;&gt;Node13</title>
<path fill="none" stroke="midnightblue" d="M187.17,-145.05C587,-97.65 693.83,-154.87 1089.5,-109 1092.53,-108.65 1095.62,-108.24 1098.74,-107.8"/>
<polygon fill="midnightblue" stroke="midnightblue" points="186.58,-141.59 177.07,-146.26 187.41,-148.54 186.58,-141.59"/>
</g>
<!-- Node29&#45;&gt;Node19 -->
<g id="edge43" class="edge">
<title>Node29&#45;&gt;Node19</title>
<path fill="none" stroke="midnightblue" d="M157.27,-142.24C190.71,-131.17 229.85,-118.22 258.91,-108.6"/>
<polygon fill="midnightblue" stroke="midnightblue" points="155.94,-138.99 147.55,-145.46 158.14,-145.64 155.94,-138.99"/>
</g>
<!-- Node30 -->
<g id="node30" class="node">
<title>Node30</title>
<g id="a_node30"><a xlink:href="aggregation__manager_8hpp.html" target="_top" xlink:title=" ">
<polygon fill="white" stroke="black" points="32,-78.5 32,-108.5 145,-108.5 145,-78.5 32,-78.5"/>
<text text-anchor="start" x="40" y="-96.5" font-family="Helvetica,sans-Serif" font-size="10.00">include/aggregation</text>
<text text-anchor="middle" x="88.5" y="-85.5" font-family="Helvetica,sans-Serif" font-size="10.00">_manager.hpp</text>
</a>
</g>
</g>
<!-- Node29&#45;&gt;Node30 -->
<g id="edge41" class="edge">
<title>Node29&#45;&gt;Node30</title>
<path fill="none" stroke="midnightblue" d="M88.5,-135.08C88.5,-126.01 88.5,-116.45 88.5,-108.89"/>
<polygon fill="midnightblue" stroke="midnightblue" points="85,-135.36 88.5,-145.36 92,-135.36 85,-135.36"/>
</g>
<!-- Node31 -->
<g id="node31" class="node">
<title>Node31</title>
<g id="a_node31"><a xlink:href="kokkos__aggregation__util_8hpp.html" target="_top" xlink:title=" ">
<polygon fill="white" stroke="black" points="20.5,-0.5 20.5,-41.5 156.5,-41.5 156.5,-0.5 20.5,-0.5"/>
<text text-anchor="start" x="28.5" y="-29.5" font-family="Helvetica,sans-Serif" font-size="10.00">include/cppuddle/kernel</text>
<text text-anchor="start" x="28.5" y="-18.5" font-family="Helvetica,sans-Serif" font-size="10.00">_aggregation/util/kokkos</text>
<text text-anchor="middle" x="88.5" y="-7.5" font-family="Helvetica,sans-Serif" font-size="10.00">_aggregation_util.hpp</text>
</a>
</g>
</g>
<!-- Node30&#45;&gt;Node31 -->
<g id="edge42" class="edge">
<title>Node30&#45;&gt;Node31</title>
<path fill="none" stroke="midnightblue" d="M88.5,-67.98C88.5,-59.35 88.5,-49.76 88.5,-41.59"/>
<polygon fill="midnightblue" stroke="midnightblue" points="85,-68.23 88.5,-78.23 92,-68.23 85,-68.23"/>
</g>
</g>
</svg>
        <g id="navigator" transform="translate(0 0)" fill="#404254">
                <rect fill="#f2f5e9" fill-opacity="0.5" stroke="#606060" stroke-width=".5" x="0" y="0" width="60" height="60"/>
                <use id="zoomplus" xlink:href="#zoomPlus" x="17" y="9" onmousedown="handleZoom(evt,'in')"/>
                <use id="zoomminus" xlink:href="#zoomMin" x="42" y="9" onmousedown="handleZoom(evt,'out')"/>
                <use id="reset" xlink:href="#resetDef" x="30" y="36" onmousedown="handleReset()"/>
                <g id="arrowUp" xlink:href="#dirArrow" transform="translate(30 24)" onmousedown="handlePan(0,-1)">
                  <use xlink:href="#rim" fill="#404040">
                        <set attributeName="fill" to="#808080" begin="arrowUp.mouseover" end="arrowUp.mouseout"/>
                  </use>
                  <path fill="none" stroke="white" stroke-width="1.5" d="M0,-3.0v7 M-2.5,-0.5L0,-3.0L2.5,-0.5"/>
                </g>
                <g id="arrowRight" xlink:href="#dirArrow" transform="rotate(90) translate(36 -43)" onmousedown="handlePan(1,0)">
                  <use xlink:href="#rim" fill="#404040">
                        <set attributeName="fill" to="#808080" begin="arrowRight.mouseover" end="arrowRight.mouseout"/>
                  </use>
                  <path fill="none" stroke="white" stroke-width="1.5" d="M0,-3.0v7 M-2.5,-0.5L0,-3.0L2.5,-0.5"/>
                </g>
                <g id="arrowDown" xlink:href="#dirArrow" transform="rotate(180) translate(-30 -48)" onmousedown="handlePan(0,1)">
                  <use xlink:href="#rim" fill="#404040">
                        <set attributeName="fill" to="#808080" begin="arrowDown.mouseover" end="arrowDown.mouseout"/>
                  </use>
                  <path fill="none" stroke="white" stroke-width="1.5" d="M0,-3.0v7 M-2.5,-0.5L0,-3.0L2.5,-0.5"/>
                </g>
                <g id="arrowLeft" xlink:href="#dirArrow" transform="rotate(270) translate(-36 17)" onmousedown="handlePan(-1,0)">
                  <use xlink:href="#rim" fill="#404040">
                        <set attributeName="fill" to="#808080" begin="arrowLeft.mouseover" end="arrowLeft.mouseout"/>
                  </use>
                  <path fill="none" stroke="white" stroke-width="1.5" d="M0,-3.0v7 M-2.5,-0.5L0,-3.0L2.5,-0.5"/>
                </g>
        </g>
        <svg viewBox="0 0 15 15" width="100%" height="30px" preserveAspectRatio="xMaxYMin meet">
         <g id="arrow_out" transform="scale(0.3 0.3)">
          <a xlink:href="buffer__management_8hpp__dep__incl_org.svg" target="_base">
           <rect id="button" ry="5" rx="5" y="6" x="6" height="38" width="38"
                fill="#f2f5e9" fill-opacity="0.5" stroke="#606060" stroke-width="1.0"/>
           <path id="arrow"
             d="M 11.500037,31.436501 C 11.940474,20.09759 22.043105,11.32322 32.158766,21.979434 L 37.068811,17.246167 C 37.068811,17.246167 37.088388,32 37.088388,32 L 22.160133,31.978069 C 22.160133,31.978069 26.997745,27.140456 26.997745,27.140456 C 18.528582,18.264221 13.291696,25.230495 11.500037,31.436501 z"
             style="fill:#404040;"/>
          </a>
         </g>
        </svg>
</svg>
