<?xml version="1.0" encoding="UTF-8" standalone="no"?>
<!DOCTYPE svg PUBLIC "-//W3C//DTD SVG 1.1//EN"
 "http://www.w3.org/Graphics/SVG/1.1/DTD/svg11.dtd">
<!-- Generated by graphviz version 2.43.0 (0)
 -->
<!-- Title: include/cppuddle/memory_recycling/buffer_management_interface.hpp Pages: 1 -->
<!--zoomable 324 -->

<svg id="main" version="1.1" xmlns="http://www.w3.org/2000/svg" xmlns:xlink="http://www.w3.org/1999/xlink" xml:space="preserve" onload="init(evt)">
<style type="text/css"><![CDATA[
.node, .edge {opacity: 0.7;}
.node.selected, .edge.selected {opacity: 1;}
.edge:hover path { stroke: red; }
.edge:hover polygon { stroke: red; fill: red; }
]]></style>

<defs>
  <circle id="rim" cx="0" cy="0" r="7"/>
  <circle id="rim2" cx="0" cy="0" r="3.5"/>
  <g id="zoomPlus">
    <use xlink:href="#rim" fill="#404040"><set attributeName="fill" to="#808080" begin="zoomplus.mouseover" end="zoomplus.mouseout"/></use>
    <path d="M-4,0h8M0,-4v8" fill="none" stroke="white" stroke-width="1.5" pointer-events="none"/>
  </g>
  <g id="zoomMin">
    <use xlink:href="#rim" fill="#404040"><set attributeName="fill" to="#808080" begin="zoomminus.mouseover" end="zoomminus.mouseout"/></use>
    <path d="M-4,0h8" fill="none" stroke="white" stroke-width="1.5" pointer-events="none"/>
  </g>
  <g id="arrowUp" transform="translate(30 24)">
    <use xlink:href="#rim"/>
    <path pointer-events="none" fill="none" stroke="white" stroke-width="1.5" d="M0,-3.0v7 M-2.5,-0.5L0,-3.0L2.5,-0.5"/>
  </g>
  <g id="arrowRight" transform="rotate(90) translate(36 -43)">
    <use xlink:href="#rim"/>
    <path pointer-events="none" fill="none" stroke="white" stroke-width="1.5" d="M0,-3.0v7 M-2.5,-0.5L0,-3.0L2.5,-0.5"/>
  </g>
  <g id="arrowDown" transform="rotate(180) translate(-30 -48)">
    <use xlink:href="#rim"/>
    <path pointer-events="none" fill="none" stroke="white" stroke-width="1.5" d="M0,-3.0v7 M-2.5,-0.5L0,-3.0L2.5,-0.5"/>
  </g>
  <g id="arrowLeft" transform="rotate(270) translate(-36 17)">
    <use xlink:href="#rim"/>
    <path pointer-events="none" fill="none" stroke="white" stroke-width="1.5" d="M0,-3.0v7 M-2.5,-0.5L0,-3.0L2.5,-0.5"/>
  </g>
  <g id="resetDef">
    <use xlink:href="#rim2" fill="#404040"><set attributeName="fill" to="#808080" begin="reset.mouseover" end="reset.mouseout"/></use>
  </g>
</defs>
<script type="application/ecmascript">
var viewWidth = 2092;
var viewHeight = 324;
var sectionId = 'dynsection-1';
</script>
<script type="application/ecmascript" xlink:href="svg.min.js"/>
<svg id="graph" class="graph">
<g id="viewport">
<title>include/cppuddle/memory_recycling/buffer_management_interface.hpp</title>
<!-- Node1 -->
<g id="Node000001" class="node">
<title>Node1</title>
<g id="a_Node000001"><a xlink:title=" ">
<polygon fill="#999999" stroke="#666666" points="1176.5,-316 1008.5,-316 1008.5,-275 1176.5,-275 1176.5,-316"/>
<text text-anchor="start" x="1016.5" y="-304" font-family="Helvetica,sans-Serif" font-size="10.00">include/cppuddle/memory</text>
<text text-anchor="start" x="1016.5" y="-293" font-family="Helvetica,sans-Serif" font-size="10.00">_recycling/buffer_management</text>
<text text-anchor="middle" x="1092.5" y="-282" font-family="Helvetica,sans-Serif" font-size="10.00">_interface.hpp</text>
</a>
</g>
</g>
<!-- Node2 -->
<g id="Node000002" class="node">
<title>Node2</title>
<g id="a_Node000002"><a xlink:href="buffer__manager_8hpp.html" target="_top" xlink:title=" ">
<polygon fill="white" stroke="#666666" points="1032.5,-151 880.5,-151 880.5,-132 1032.5,-132 1032.5,-151"/>
<text text-anchor="middle" x="956.5" y="-139" font-family="Helvetica,sans-Serif" font-size="10.00">include/buffer_manager.hpp</text>
</a>
</g>
</g>
<!-- Node1&#45;&gt;Node2 -->
<g id="edge1_Node000001_Node000002" class="edge">
<title>Node1&#45;&gt;Node2</title>
<g id="a_edge1_Node000001_Node000002"><a xlink:title=" ">
<path fill="none" stroke="#63b8ff" d="M1048.02,-269.28C1035.28,-260.73 1022.01,-250.41 1011.5,-239 985.77,-211.05 967.07,-168.97 959.82,-151.06"/>
<polygon fill="#63b8ff" stroke="#63b8ff" points="1046.42,-272.41 1056.72,-274.91 1050.23,-266.53 1046.42,-272.41"/>
</a>
</g>
</g>
<!-- Node4 -->
<g id="Node000004" class="node">
<title>Node4</title>
<g id="a_Node000004"><a xlink:href="aligned__recycling__allocators_8hpp.html" target="_top" xlink:title=" ">
<polygon fill="white" stroke="#666666" points="1619,-239 1464,-239 1464,-198 1619,-198 1619,-239"/>
<text text-anchor="start" x="1472" y="-227" font-family="Helvetica,sans-Serif" font-size="10.00">include/cppuddle/memory</text>
<text text-anchor="start" x="1472" y="-216" font-family="Helvetica,sans-Serif" font-size="10.00">_recycling/aligned_recycling</text>
<text text-anchor="middle" x="1541.5" y="-205" font-family="Helvetica,sans-Serif" font-size="10.00">_allocators.hpp</text>
</a>
</g>
</g>
<!-- Node1&#45;&gt;Node4 -->
<g id="edge3_Node000001_Node000004" class="edge">
<title>Node1&#45;&gt;Node4</title>
<g id="a_edge3_Node000001_Node000004"><a xlink:title=" ">
<path fill="none" stroke="#63b8ff" d="M1186.78,-278.75C1268.99,-265.02 1386.79,-245.34 1463.71,-232.49"/>
<polygon fill="#63b8ff" stroke="#63b8ff" points="1185.98,-275.34 1176.69,-280.44 1187.13,-282.24 1185.98,-275.34"/>
</a>
</g>
</g>
<!-- Node7 -->
<g id="Node000007" class="node">
<title>Node7</title>
<g id="a_Node000007"><a xlink:href="cuda__recycling__allocators_8hpp.html" target="_top" xlink:title=" ">
<polygon fill="white" stroke="#666666" points="450,-239 307,-239 307,-198 450,-198 450,-239"/>
<text text-anchor="start" x="315" y="-227" font-family="Helvetica,sans-Serif" font-size="10.00">include/cppuddle/memory</text>
<text text-anchor="start" x="315" y="-216" font-family="Helvetica,sans-Serif" font-size="10.00">_recycling/cuda_recycling</text>
<text text-anchor="middle" x="378.5" y="-205" font-family="Helvetica,sans-Serif" font-size="10.00">_allocators.hpp</text>
</a>
</g>
</g>
<!-- Node1&#45;&gt;Node7 -->
<g id="edge6_Node000001_Node000007" class="edge">
<title>Node1&#45;&gt;Node7</title>
<g id="a_edge6_Node000001_Node000007"><a xlink:title=" ">
<path fill="none" stroke="#63b8ff" d="M998.31,-284.61C853.62,-269.41 579.86,-240.65 450.14,-227.02"/>
<polygon fill="#63b8ff" stroke="#63b8ff" points="998.18,-288.11 1008.5,-285.68 998.92,-281.15 998.18,-288.11"/>
</a>
</g>
</g>
<!-- Node15 -->
<g id="Node000015" class="node">
<title>Node15</title>
<g id="a_Node000015"><a xlink:href="hip__recycling__allocators_8hpp.html" target="_top" xlink:title=" ">
<polygon fill="white" stroke="#666666" points="1849,-239 1706,-239 1706,-198 1849,-198 1849,-239"/>
<text text-anchor="start" x="1714" y="-227" font-family="Helvetica,sans-Serif" font-size="10.00">include/cppuddle/memory</text>
<text text-anchor="start" x="1714" y="-216" font-family="Helvetica,sans-Serif" font-size="10.00">_recycling/hip_recycling</text>
<text text-anchor="middle" x="1777.5" y="-205" font-family="Helvetica,sans-Serif" font-size="10.00">_allocators.hpp</text>
</a>
</g>
</g>
<!-- Node1&#45;&gt;Node15 -->
<g id="edge19_Node000001_Node000015" class="edge">
<title>Node1&#45;&gt;Node15</title>
<g id="a_edge19_Node000001_Node000015"><a xlink:title=" ">
<path fill="none" stroke="#63b8ff" d="M1187.02,-285.44C1293.99,-275.02 1473.41,-257.01 1627.5,-239 1653.06,-236.01 1681.03,-232.46 1705.83,-229.2"/>
<polygon fill="#63b8ff" stroke="#63b8ff" points="1186.51,-281.97 1176.9,-286.43 1187.19,-288.94 1186.51,-281.97"/>
</a>
</g>
</g>
<!-- Node18 -->
<g id="Node000018" class="node">
<title>Node18</title>
<g id="a_Node000018"><a xlink:href="std__recycling__allocators_8hpp.html" target="_top" xlink:title=" ">
<polygon fill="white" stroke="#666666" points="1164,-239 1021,-239 1021,-198 1164,-198 1164,-239"/>
<text text-anchor="start" x="1029" y="-227" font-family="Helvetica,sans-Serif" font-size="10.00">include/cppuddle/memory</text>
<text text-anchor="start" x="1029" y="-216" font-family="Helvetica,sans-Serif" font-size="10.00">_recycling/std_recycling</text>
<text text-anchor="middle" x="1092.5" y="-205" font-family="Helvetica,sans-Serif" font-size="10.00">_allocators.hpp</text>
</a>
</g>
</g>
<!-- Node1&#45;&gt;Node18 -->
<g id="edge23_Node000001_Node000018" class="edge">
<title>Node1&#45;&gt;Node18</title>
<g id="a_edge23_Node000001_Node000018"><a xlink:title=" ">
<path fill="none" stroke="#63b8ff" d="M1092.5,-264.69C1092.5,-256.08 1092.5,-246.9 1092.5,-239.07"/>
<polygon fill="#63b8ff" stroke="#63b8ff" points="1089,-264.79 1092.5,-274.79 1096,-264.79 1089,-264.79"/>
</a>
</g>
</g>
<!-- Node22 -->
<g id="Node000022" class="node">
<title>Node22</title>
<g id="a_Node000022"><a xlink:href="sycl__recycling__allocators_8hpp.html" target="_top" xlink:title=" ">
<polygon fill="white" stroke="#666666" points="2055,-239 1912,-239 1912,-198 2055,-198 2055,-239"/>
<text text-anchor="start" x="1920" y="-227" font-family="Helvetica,sans-Serif" font-size="10.00">include/cppuddle/memory</text>
<text text-anchor="start" x="1920" y="-216" font-family="Helvetica,sans-Serif" font-size="10.00">_recycling/sycl_recycling</text>
<text text-anchor="middle" x="1983.5" y="-205" font-family="Helvetica,sans-Serif" font-size="10.00">_allocators.hpp</text>
</a>
</g>
</g>
<!-- Node1&#45;&gt;Node22 -->
<g id="edge30_Node000001_Node000022" class="edge">
<title>Node1&#45;&gt;Node22</title>
<g id="a_edge30_Node000001_Node000022"><a xlink:title=" ">
<path fill="none" stroke="#63b8ff" d="M1186.77,-290.18C1331.54,-282.97 1617.22,-266.51 1858.5,-239 1875.85,-237.02 1894.48,-234.39 1911.92,-231.71"/>
<polygon fill="#63b8ff" stroke="#63b8ff" points="1186.4,-286.69 1176.59,-290.68 1186.75,-293.68 1186.4,-286.69"/>
</a>
</g>
</g>
<!-- Node24 -->
<g id="Node000024" class="node">
<title>Node24</title>
<g id="a_Node000024"><a xlink:href="recycling__kokkos__view_8hpp.html" target="_top" xlink:title=" ">
<polygon fill="white" stroke="#666666" points="793,-239 650,-239 650,-198 793,-198 793,-239"/>
<text text-anchor="start" x="658" y="-227" font-family="Helvetica,sans-Serif" font-size="10.00">include/cppuddle/memory</text>
<text text-anchor="start" x="658" y="-216" font-family="Helvetica,sans-Serif" font-size="10.00">_recycling/util/recycling</text>
<text text-anchor="middle" x="721.5" y="-205" font-family="Helvetica,sans-Serif" font-size="10.00">_kokkos_view.hpp</text>
</a>
</g>
</g>
<!-- Node1&#45;&gt;Node24 -->
<g id="edge32_Node000001_Node000024" class="edge">
<title>Node1&#45;&gt;Node24</title>
<g id="a_edge32_Node000001_Node000024"><a xlink:title=" ">
<path fill="none" stroke="#63b8ff" d="M998.25,-275.45C934.49,-262.56 851.56,-245.79 793.17,-233.99"/>
<polygon fill="#63b8ff" stroke="#63b8ff" points="997.82,-278.93 1008.31,-277.48 999.21,-272.07 997.82,-278.93"/>
</a>
</g>
</g>
<!-- Node3 -->
<g id="Node000003" class="node">
<title>Node3</title>
<g id="a_Node000003"><a xlink:href="cuda__buffer__util_8hpp.html" target="_top" xlink:title=" ">
<polygon fill="white" stroke="#666666" points="551.5,-85 439.5,-85 439.5,-55 551.5,-55 551.5,-85"/>
<text text-anchor="start" x="447.5" y="-73" font-family="Helvetica,sans-Serif" font-size="10.00">include/cuda_buffer</text>
<text text-anchor="middle" x="495.5" y="-62" font-family="Helvetica,sans-Serif" font-size="10.00">_util.hpp</text>
</a>
</g>
</g>
<!-- Node2&#45;&gt;Node3 -->
<g id="edge2_Node000002_Node000003" class="edge">
<title>Node2&#45;&gt;Node3</title>
<g id="a_edge2_Node000002_Node000003"><a xlink:title=" ">
<path fill="none" stroke="#63b8ff" d="M912.04,-129.61C898.73,-126.57 884.07,-123.44 870.5,-121 758.02,-100.79 625.2,-84.96 551.65,-76.88"/>
<polygon fill="#63b8ff" stroke="#63b8ff" points="911.38,-133.05 921.91,-131.91 912.97,-126.24 911.38,-133.05"/>
</a>
</g>
</g>
<!-- Node5 -->
<g id="Node000005" class="node">
<title>Node5</title>
<g id="a_Node000005"><a xlink:href="aligned__buffer__util_8hpp.html" target="_top" xlink:title=" ">
<polygon fill="white" stroke="#666666" points="1749,-156.5 1624,-156.5 1624,-126.5 1749,-126.5 1749,-156.5"/>
<text text-anchor="start" x="1632" y="-144.5" font-family="Helvetica,sans-Serif" font-size="10.00">include/aligned_buffer</text>
<text text-anchor="middle" x="1686.5" y="-133.5" font-family="Helvetica,sans-Serif" font-size="10.00">_util.hpp</text>
</a>
</g>
</g>
<!-- Node4&#45;&gt;Node5 -->
<g id="edge4_Node000004_Node000005" class="edge">
<title>Node4&#45;&gt;Node5</title>
<g id="a_edge4_Node000004_Node000005"><a xlink:title=" ">
<path fill="none" stroke="#63b8ff" d="M1588.28,-193.3C1611.65,-181.22 1639.11,-167.01 1659.05,-156.7"/>
<polygon fill="#63b8ff" stroke="#63b8ff" points="1586.49,-190.29 1579.22,-197.99 1589.71,-196.5 1586.49,-190.29"/>
</a>
</g>
</g>
<!-- Node6 -->
<g id="Node000006" class="node">
<title>Node6</title>
<g id="a_Node000006"><a xlink:href="allocator__aligned__test_8cpp.html" target="_top" xlink:title=" ">
<polygon fill="white" stroke="#666666" points="1605.5,-156.5 1477.5,-156.5 1477.5,-126.5 1605.5,-126.5 1605.5,-156.5"/>
<text text-anchor="start" x="1485.5" y="-144.5" font-family="Helvetica,sans-Serif" font-size="10.00">tests/allocator_aligned</text>
<text text-anchor="middle" x="1541.5" y="-133.5" font-family="Helvetica,sans-Serif" font-size="10.00">_test.cpp</text>
</a>
</g>
</g>
<!-- Node4&#45;&gt;Node6 -->
<g id="edge5_Node000004_Node000006" class="edge">
<title>Node4&#45;&gt;Node6</title>
<g id="a_edge5_Node000004_Node000006"><a xlink:title=" ">
<path fill="none" stroke="#63b8ff" d="M1541.5,-187.61C1541.5,-177.01 1541.5,-165.57 1541.5,-156.86"/>
<polygon fill="#63b8ff" stroke="#63b8ff" points="1538,-187.79 1541.5,-197.79 1545,-187.79 1538,-187.79"/>
</a>
</g>
</g>
<!-- Node7&#45;&gt;Node3 -->
<g id="edge13_Node000007_Node000003" class="edge">
<title>Node7&#45;&gt;Node3</title>
<g id="a_edge13_Node000007_Node000003"><a xlink:title=" ">
<path fill="none" stroke="#63b8ff" d="M384.91,-188.11C390.54,-167.58 400.4,-140.47 416.5,-121 429.22,-105.61 447.96,-93.47 463.99,-85"/>
<polygon fill="#63b8ff" stroke="#63b8ff" points="381.49,-187.33 382.41,-197.89 388.28,-189.07 381.49,-187.33"/>
</a>
</g>
</g>
<!-- Node8 -->
<g id="Node000008" class="node">
<title>Node8</title>
<g id="a_Node000008"><a xlink:href="cuda__recycling__device__buffer_8hpp.html" target="_top" xlink:title="Contains a RAII wrappers for CUDA device buffers. Intended to be used with the recycling allocators b...">
<polygon fill="white" stroke="#666666" points="331,-162 170,-162 170,-121 331,-121 331,-162"/>
<text text-anchor="start" x="178" y="-150" font-family="Helvetica,sans-Serif" font-size="10.00">include/cppuddle/memory</text>
<text text-anchor="start" x="178" y="-139" font-family="Helvetica,sans-Serif" font-size="10.00">_recycling/util/cuda_recycling</text>
<text text-anchor="middle" x="250.5" y="-128" font-family="Helvetica,sans-Serif" font-size="10.00">_device_buffer.hpp</text>
</a>
</g>
</g>
<!-- Node7&#45;&gt;Node8 -->
<g id="edge7_Node000007_Node000008" class="edge">
<title>Node7&#45;&gt;Node8</title>
<g id="a_edge7_Node000007_Node000008"><a xlink:title=" ">
<path fill="none" stroke="#63b8ff" d="M336.55,-192.92C319.53,-182.95 300.13,-171.58 284.07,-162.17"/>
<polygon fill="#63b8ff" stroke="#63b8ff" points="334.81,-195.95 345.2,-197.99 338.35,-189.92 334.81,-195.95"/>
</a>
</g>
</g>
<!-- Node9 -->
<g id="Node000009" class="node">
<title>Node9</title>
<g id="a_Node000009"><a xlink:href="stream__test_8hpp.html" target="_top" xlink:title=" ">
<polygon fill="white" stroke="#666666" points="421,-79.5 298,-79.5 298,-60.5 421,-60.5 421,-79.5"/>
<text text-anchor="middle" x="359.5" y="-67.5" font-family="Helvetica,sans-Serif" font-size="10.00">tests/stream_test.hpp</text>
</a>
</g>
</g>
<!-- Node7&#45;&gt;Node9 -->
<g id="edge16_Node000007_Node000009" class="edge">
<title>Node7&#45;&gt;Node9</title>
<g id="a_edge16_Node000007_Node000009"><a xlink:title=" ">
<path fill="none" stroke="#63b8ff" d="M374.6,-187.46C370.2,-153.5 363.29,-100.26 360.62,-79.6"/>
<polygon fill="#63b8ff" stroke="#63b8ff" points="371.18,-188.28 375.94,-197.74 378.12,-187.38 371.18,-188.28"/>
</a>
</g>
</g>
<!-- Node11 -->
<g id="Node000011" class="node">
<title>Node11</title>
<g id="a_Node000011"><a xlink:href="work__aggregation__cuda__triad_8cpp.html" target="_top" xlink:title=" ">
<polygon fill="white" stroke="#666666" points="131,-85 0,-85 0,-55 131,-55 131,-85"/>
<text text-anchor="start" x="8" y="-73" font-family="Helvetica,sans-Serif" font-size="10.00">tests/work_aggregation</text>
<text text-anchor="middle" x="65.5" y="-62" font-family="Helvetica,sans-Serif" font-size="10.00">_cuda_triad.cpp</text>
</a>
</g>
</g>
<!-- Node7&#45;&gt;Node11 -->
<g id="edge17_Node000007_Node000011" class="edge">
<title>Node7&#45;&gt;Node11</title>
<g id="a_edge17_Node000007_Node000011"><a xlink:title=" ">
<path fill="none" stroke="#63b8ff" d="M296.96,-209.51C251.14,-202.24 194.34,-188.37 149.5,-162 116.14,-142.38 88.16,-105.36 74.49,-85.11"/>
<polygon fill="#63b8ff" stroke="#63b8ff" points="296.44,-212.98 306.85,-211.01 297.49,-206.06 296.44,-212.98"/>
</a>
</g>
</g>
<!-- Node12 -->
<g id="Node000012" class="node">
<title>Node12</title>
<g id="a_Node000012"><a xlink:href="work__aggregation__test_8cpp.html" target="_top" xlink:title=" ">
<polygon fill="white" stroke="#666666" points="280,-85 149,-85 149,-55 280,-55 280,-85"/>
<text text-anchor="start" x="157" y="-73" font-family="Helvetica,sans-Serif" font-size="10.00">tests/work_aggregation</text>
<text text-anchor="middle" x="214.5" y="-62" font-family="Helvetica,sans-Serif" font-size="10.00">_test.cpp</text>
</a>
</g>
</g>
<!-- Node7&#45;&gt;Node12 -->
<g id="edge18_Node000007_Node000012" class="edge">
<title>Node7&#45;&gt;Node12</title>
<g id="a_edge18_Node000007_Node000012"><a xlink:title=" ">
<path fill="none" stroke="#63b8ff" d="M296.79,-207.21C242.22,-198.46 177.45,-183.81 160.5,-162 149.32,-147.61 153.2,-137.7 160.5,-121 166.95,-106.25 180.13,-93.91 191.85,-85.17"/>
<polygon fill="#63b8ff" stroke="#63b8ff" points="296.43,-210.69 306.85,-208.77 297.51,-203.78 296.43,-210.69"/>
</a>
</g>
</g>
<!-- Node13 -->
<g id="Node000013" class="node">
<title>Node13</title>
<g id="a_Node000013"><a xlink:href="allocator__kokkos__executor__for__loop__test_8cpp.html" target="_top" xlink:title=" ">
<polygon fill="white" stroke="#666666" points="719,-156.5 566,-156.5 566,-126.5 719,-126.5 719,-156.5"/>
<text text-anchor="start" x="574" y="-144.5" font-family="Helvetica,sans-Serif" font-size="10.00">tests/allocator_kokkos</text>
<text text-anchor="middle" x="642.5" y="-133.5" font-family="Helvetica,sans-Serif" font-size="10.00">_executor_for_loop_test.cpp</text>
</a>
</g>
</g>
<!-- Node7&#45;&gt;Node13 -->
<g id="edge14_Node000007_Node000013" class="edge">
<title>Node7&#45;&gt;Node13</title>
<g id="a_edge14_Node000007_Node000013"><a xlink:title=" ">
<path fill="none" stroke="#63b8ff" d="M457,-195.2C501.05,-182.68 554.69,-167.45 592.93,-156.58"/>
<polygon fill="#63b8ff" stroke="#63b8ff" points="455.84,-191.89 447.17,-197.99 457.75,-198.62 455.84,-191.89"/>
</a>
</g>
</g>
<!-- Node14 -->
<g id="Node000014" class="node">
<title>Node14</title>
<g id="a_Node000014"><a xlink:href="allocator__kokkos__test_8cpp.html" target="_top" xlink:title=" ">
<polygon fill="white" stroke="#666666" points="862,-156.5 737,-156.5 737,-126.5 862,-126.5 862,-156.5"/>
<text text-anchor="start" x="745" y="-144.5" font-family="Helvetica,sans-Serif" font-size="10.00">tests/allocator_kokkos</text>
<text text-anchor="middle" x="799.5" y="-133.5" font-family="Helvetica,sans-Serif" font-size="10.00">_test.cpp</text>
</a>
</g>
</g>
<!-- Node7&#45;&gt;Node14 -->
<g id="edge15_Node000007_Node000014" class="edge">
<title>Node7&#45;&gt;Node14</title>
<g id="a_edge15_Node000007_Node000014"><a xlink:title=" ">
<path fill="none" stroke="#63b8ff" d="M460.32,-207.01C531.34,-197.3 636.73,-181.45 727.5,-162 734.97,-160.4 742.82,-158.5 750.48,-156.53"/>
<polygon fill="#63b8ff" stroke="#63b8ff" points="459.54,-203.58 450.1,-208.39 460.48,-210.52 459.54,-203.58"/>
</a>
</g>
</g>
<!-- Node8&#45;&gt;Node3 -->
<g id="edge8_Node000008_Node000003" class="edge">
<title>Node8&#45;&gt;Node3</title>
<g id="a_edge8_Node000008_Node000003"><a xlink:title=" ">
<path fill="none" stroke="#63b8ff" d="M329.51,-118.09C367.85,-107.21 412.72,-94.48 446.13,-85"/>
<polygon fill="#63b8ff" stroke="#63b8ff" points="328.06,-114.86 319.4,-120.96 329.97,-121.59 328.06,-114.86"/>
</a>
</g>
</g>
<!-- Node8&#45;&gt;Node9 -->
<g id="edge9_Node000008_Node000009" class="edge">
<title>Node8&#45;&gt;Node9</title>
<g id="a_edge9_Node000008_Node000009"><a xlink:title=" ">
<path fill="none" stroke="#63b8ff" d="M289.7,-115.51C309.47,-102.9 332.16,-88.43 346.16,-79.5"/>
<polygon fill="#63b8ff" stroke="#63b8ff" points="287.7,-112.63 281.15,-120.96 291.47,-118.53 287.7,-112.63"/>
</a>
</g>
</g>
<!-- Node8&#45;&gt;Node11 -->
<g id="edge11_Node000008_Node000011" class="edge">
<title>Node8&#45;&gt;Node11</title>
<g id="a_edge11_Node000008_Node000011"><a xlink:title=" ">
<path fill="none" stroke="#63b8ff" d="M188.99,-117.39C160.45,-106.67 127.47,-94.28 102.78,-85"/>
<polygon fill="#63b8ff" stroke="#63b8ff" points="187.88,-120.72 198.47,-120.96 190.34,-114.16 187.88,-120.72"/>
</a>
</g>
</g>
<!-- Node8&#45;&gt;Node12 -->
<g id="edge12_Node000008_Node000012" class="edge">
<title>Node8&#45;&gt;Node12</title>
<g id="a_edge12_Node000008_Node000012"><a xlink:title=" ">
<path fill="none" stroke="#63b8ff" d="M235.65,-111.82C230.86,-102.58 225.76,-92.74 221.77,-85.04"/>
<polygon fill="#63b8ff" stroke="#63b8ff" points="232.57,-113.5 240.28,-120.77 238.79,-110.28 232.57,-113.5"/>
</a>
</g>
</g>
<!-- Node10 -->
<g id="Node000010" class="node">
<title>Node10</title>
<g id="a_Node000010"><a xlink:href="stream__test_8cpp.html" target="_top" xlink:title=" ">
<polygon fill="white" stroke="#666666" points="420.5,-19 298.5,-19 298.5,0 420.5,0 420.5,-19"/>
<text text-anchor="middle" x="359.5" y="-7" font-family="Helvetica,sans-Serif" font-size="10.00">tests/stream_test.cpp</text>
</a>
</g>
</g>
<!-- Node9&#45;&gt;Node10 -->
<g id="edge10_Node000009_Node000010" class="edge">
<title>Node9&#45;&gt;Node10</title>
<g id="a_edge10_Node000009_Node000010"><a xlink:title=" ">
<path fill="none" stroke="#63b8ff" d="M359.5,-50.16C359.5,-39.74 359.5,-27.3 359.5,-19.17"/>
<polygon fill="#63b8ff" stroke="#63b8ff" points="356,-50.37 359.5,-60.37 363,-50.37 356,-50.37"/>
</a>
</g>
</g>
<!-- Node16 -->
<g id="Node000016" class="node">
<title>Node16</title>
<g id="a_Node000016"><a xlink:href="hip__recycling__device__buffer_8hpp.html" target="_top" xlink:title=" ">
<polygon fill="white" stroke="#666666" points="1957.5,-162 1805.5,-162 1805.5,-121 1957.5,-121 1957.5,-162"/>
<text text-anchor="start" x="1813.5" y="-150" font-family="Helvetica,sans-Serif" font-size="10.00">include/cppuddle/memory</text>
<text text-anchor="start" x="1813.5" y="-139" font-family="Helvetica,sans-Serif" font-size="10.00">_recycling/util/hip_recycling</text>
<text text-anchor="middle" x="1881.5" y="-128" font-family="Helvetica,sans-Serif" font-size="10.00">_device_buffer.hpp</text>
</a>
</g>
</g>
<!-- Node15&#45;&gt;Node16 -->
<g id="edge20_Node000015_Node000016" class="edge">
<title>Node15&#45;&gt;Node16</title>
<g id="a_edge20_Node000015_Node000016"><a xlink:title=" ">
<path fill="none" stroke="#63b8ff" d="M1812.73,-192.09C1826.28,-182.32 1841.53,-171.32 1854.22,-162.17"/>
<polygon fill="#63b8ff" stroke="#63b8ff" points="1810.62,-189.3 1804.55,-197.99 1814.71,-194.98 1810.62,-189.3"/>
</a>
</g>
</g>
<!-- Node17 -->
<g id="Node000017" class="node">
<title>Node17</title>
<g id="a_Node000017"><a xlink:href="hip__buffer__util_8hpp.html" target="_top" xlink:title=" ">
<polygon fill="white" stroke="#666666" points="1881.5,-85 1777.5,-85 1777.5,-55 1881.5,-55 1881.5,-85"/>
<text text-anchor="start" x="1785.5" y="-73" font-family="Helvetica,sans-Serif" font-size="10.00">include/hip_buffer</text>
<text text-anchor="middle" x="1829.5" y="-62" font-family="Helvetica,sans-Serif" font-size="10.00">_util.hpp</text>
</a>
</g>
</g>
<!-- Node15&#45;&gt;Node17 -->
<g id="edge22_Node000015_Node000017" class="edge">
<title>Node15&#45;&gt;Node17</title>
<g id="a_edge22_Node000015_Node000017"><a xlink:title=" ">
<path fill="none" stroke="#63b8ff" d="M1780.36,-187.5C1782.95,-168 1787.76,-142.33 1796.5,-121 1801.86,-107.91 1810.84,-94.62 1818.08,-85.03"/>
<polygon fill="#63b8ff" stroke="#63b8ff" points="1776.86,-187.28 1779.14,-197.63 1783.81,-188.12 1776.86,-187.28"/>
</a>
</g>
</g>
<!-- Node16&#45;&gt;Node17 -->
<g id="edge21_Node000016_Node000017" class="edge">
<title>Node16&#45;&gt;Node17</title>
<g id="a_edge21_Node000016_Node000017"><a xlink:title=" ">
<path fill="none" stroke="#63b8ff" d="M1860.69,-112.69C1853.59,-103.19 1845.95,-92.98 1840,-85.04"/>
<polygon fill="#63b8ff" stroke="#63b8ff" points="1857.94,-114.86 1866.74,-120.77 1863.55,-110.67 1857.94,-114.86"/>
</a>
</g>
</g>
<!-- Node18&#45;&gt;Node2 -->
<g id="edge24_Node000018_Node000002" class="edge">
<title>Node18&#45;&gt;Node2</title>
<g id="a_edge24_Node000018_Node000002"><a xlink:title=" ">
<path fill="none" stroke="#63b8ff" d="M1048.12,-193.03C1021.97,-178.61 990.5,-161.25 972.07,-151.09"/>
<polygon fill="#63b8ff" stroke="#63b8ff" points="1046.68,-196.23 1057.12,-197.99 1050.06,-190.1 1046.68,-196.23"/>
</a>
</g>
</g>
<!-- Node18&#45;&gt;Node13 -->
<g id="edge26_Node000018_Node000013" class="edge">
<title>Node18&#45;&gt;Node13</title>
<g id="a_edge26_Node000018_Node000013"><a xlink:title=" ">
<path fill="none" stroke="#63b8ff" d="M1010.69,-206.84C936.52,-196.75 824.32,-180.44 727.5,-162 718.87,-160.36 709.79,-158.46 700.91,-156.5"/>
<polygon fill="#63b8ff" stroke="#63b8ff" points="1010.51,-210.35 1020.89,-208.22 1011.45,-203.41 1010.51,-210.35"/>
</a>
</g>
</g>
<!-- Node18&#45;&gt;Node14 -->
<g id="edge27_Node000018_Node000014" class="edge">
<title>Node18&#45;&gt;Node14</title>
<g id="a_edge27_Node000018_Node000014"><a xlink:title=" ">
<path fill="none" stroke="#63b8ff" d="M1010.91,-197.39C969.16,-187.01 917.57,-174.02 871.5,-162 864.86,-160.27 857.88,-158.42 850.99,-156.57"/>
<polygon fill="#63b8ff" stroke="#63b8ff" points="1010.2,-200.82 1020.75,-199.84 1011.89,-194.03 1010.2,-200.82"/>
</a>
</g>
</g>
<!-- Node19 -->
<g id="Node000019" class="node">
<title>Node19</title>
<g id="a_Node000019"><a xlink:href="allocator__hpx__test_8cpp.html" target="_top" xlink:title=" ">
<polygon fill="white" stroke="#666666" points="1160.5,-156.5 1050.5,-156.5 1050.5,-126.5 1160.5,-126.5 1160.5,-156.5"/>
<text text-anchor="start" x="1058.5" y="-144.5" font-family="Helvetica,sans-Serif" font-size="10.00">tests/allocator_hpx</text>
<text text-anchor="middle" x="1105.5" y="-133.5" font-family="Helvetica,sans-Serif" font-size="10.00">_test.cpp</text>
</a>
</g>
</g>
<!-- Node18&#45;&gt;Node19 -->
<g id="edge25_Node000018_Node000019" class="edge">
<title>Node18&#45;&gt;Node19</title>
<g id="a_edge25_Node000018_Node000019"><a xlink:title=" ">
<path fill="none" stroke="#63b8ff" d="M1097.68,-187.61C1099.52,-177.01 1101.5,-165.57 1103.01,-156.86"/>
<polygon fill="#63b8ff" stroke="#63b8ff" points="1094.17,-187.34 1095.92,-197.79 1101.07,-188.54 1094.17,-187.34"/>
</a>
</g>
</g>
<!-- Node20 -->
<g id="Node000020" class="node">
<title>Node20</title>
<g id="a_Node000020"><a xlink:href="allocator__test_8cpp.html" target="_top" xlink:title=" ">
<polygon fill="white" stroke="#666666" points="1310,-151 1179,-151 1179,-132 1310,-132 1310,-151"/>
<text text-anchor="middle" x="1244.5" y="-139" font-family="Helvetica,sans-Serif" font-size="10.00">tests/allocator_test.cpp</text>
</a>
</g>
</g>
<!-- Node18&#45;&gt;Node20 -->
<g id="edge28_Node000018_Node000020" class="edge">
<title>Node18&#45;&gt;Node20</title>
<g id="a_edge28_Node000018_Node000020"><a xlink:title=" ">
<path fill="none" stroke="#63b8ff" d="M1141.33,-193.41C1170.71,-178.91 1206.32,-161.34 1227.09,-151.09"/>
<polygon fill="#63b8ff" stroke="#63b8ff" points="1139.46,-190.43 1132.04,-197.99 1142.56,-196.7 1139.46,-190.43"/>
</a>
</g>
</g>
<!-- Node21 -->
<g id="Node000021" class="node">
<title>Node21</title>
<g id="a_Node000021"><a xlink:href="work__aggregation__cpu__triad_8cpp.html" target="_top" xlink:title=" ">
<polygon fill="white" stroke="#666666" points="1459,-156.5 1328,-156.5 1328,-126.5 1459,-126.5 1459,-156.5"/>
<text text-anchor="start" x="1336" y="-144.5" font-family="Helvetica,sans-Serif" font-size="10.00">tests/work_aggregation</text>
<text text-anchor="middle" x="1393.5" y="-133.5" font-family="Helvetica,sans-Serif" font-size="10.00">_cpu_triad.cpp</text>
</a>
</g>
</g>
<!-- Node18&#45;&gt;Node21 -->
<g id="edge29_Node000018_Node000021" class="edge">
<title>Node18&#45;&gt;Node21</title>
<g id="a_edge29_Node000018_Node000021"><a xlink:title=" ">
<path fill="none" stroke="#63b8ff" d="M1173.92,-197.79C1216.94,-187.3 1270.62,-174.1 1318.5,-162 1325.41,-160.25 1332.68,-158.39 1339.85,-156.54"/>
<polygon fill="#63b8ff" stroke="#63b8ff" points="1172.95,-194.42 1164.07,-200.19 1174.61,-201.22 1172.95,-194.42"/>
</a>
</g>
</g>
<!-- Node23 -->
<g id="Node000023" class="node">
<title>Node23</title>
<g id="a_Node000023"><a xlink:href="sycl__buffer__util_8hpp.html" target="_top" xlink:title=" ">
<polygon fill="white" stroke="#666666" points="2083.5,-156.5 1975.5,-156.5 1975.5,-126.5 2083.5,-126.5 2083.5,-156.5"/>
<text text-anchor="start" x="1983.5" y="-144.5" font-family="Helvetica,sans-Serif" font-size="10.00">include/sycl_buffer</text>
<text text-anchor="middle" x="2029.5" y="-133.5" font-family="Helvetica,sans-Serif" font-size="10.00">_util.hpp</text>
</a>
</g>
</g>
<!-- Node22&#45;&gt;Node23 -->
<g id="edge31_Node000022_Node000023" class="edge">
<title>Node22&#45;&gt;Node23</title>
<g id="a_edge31_Node000022_Node000023"><a xlink:title=" ">
<path fill="none" stroke="#63b8ff" d="M2000.82,-189.26C2007.6,-178.21 2015.07,-166.02 2020.69,-156.86"/>
<polygon fill="#63b8ff" stroke="#63b8ff" points="1997.83,-187.44 1995.59,-197.79 2003.8,-191.1 1997.83,-187.44"/>
</a>
</g>
</g>
<!-- Node24&#45;&gt;Node13 -->
<g id="edge34_Node000024_Node000013" class="edge">
<title>Node24&#45;&gt;Node13</title>
<g id="a_edge34_Node000024_Node000013"><a xlink:title=" ">
<path fill="none" stroke="#63b8ff" d="M693.47,-190.89C681.4,-179.43 667.76,-166.48 657.63,-156.86"/>
<polygon fill="#63b8ff" stroke="#63b8ff" points="691.08,-193.45 700.74,-197.79 695.9,-188.37 691.08,-193.45"/>
</a>
</g>
</g>
<!-- Node24&#45;&gt;Node14 -->
<g id="edge35_Node000024_Node000014" class="edge">
<title>Node24&#45;&gt;Node14</title>
<g id="a_edge35_Node000024_Node000014"><a xlink:title=" ">
<path fill="none" stroke="#63b8ff" d="M749.51,-190.57C761.35,-179.18 774.66,-166.39 784.56,-156.86"/>
<polygon fill="#63b8ff" stroke="#63b8ff" points="746.78,-188.34 741.99,-197.79 751.63,-193.39 746.78,-188.34"/>
</a>
</g>
</g>
<!-- Node25 -->
<g id="Node000025" class="node">
<title>Node25</title>
<g id="a_Node000025"><a xlink:href="kokkos__buffer__util_8hpp.html" target="_top" xlink:title=" ">
<polygon fill="white" stroke="#666666" points="547.5,-156.5 425.5,-156.5 425.5,-126.5 547.5,-126.5 547.5,-156.5"/>
<text text-anchor="start" x="433.5" y="-144.5" font-family="Helvetica,sans-Serif" font-size="10.00">include/kokkos_buffer</text>
<text text-anchor="middle" x="486.5" y="-133.5" font-family="Helvetica,sans-Serif" font-size="10.00">_util.hpp</text>
</a>
</g>
</g>
<!-- Node24&#45;&gt;Node25 -->
<g id="edge33_Node000024_Node000025" class="edge">
<title>Node24&#45;&gt;Node25</title>
<g id="a_edge33_Node000024_Node000025"><a xlink:title=" ">
<path fill="none" stroke="#63b8ff" d="M650.64,-194.88C611.61,-182.43 564.38,-167.36 530.63,-156.58"/>
<polygon fill="#63b8ff" stroke="#63b8ff" points="649.78,-198.28 660.37,-197.99 651.91,-191.62 649.78,-198.28"/>
</a>
</g>
</g>
</g>
</svg>

<g id="navigator" transform="translate(0 0)" fill="#404254">
  <rect fill="#f2f5e9" fill-opacity="0.5" stroke="#606060" stroke-width=".5" x="0" y="0" width="60" height="60"/>
  <use id="zoomplus" xlink:href="#zoomPlus" x="17" y="9" onmousedown="handleZoom(evt,'in')"/>
  <use id="zoomminus" xlink:href="#zoomMin" x="42" y="9" onmousedown="handleZoom(evt,'out')"/>
  <use id="reset" xlink:href="#resetDef" x="30" y="36" onmousedown="handleReset()"/>
   <use id="arrowup" xlink:href="#arrowUp" x="0" y="0" onmousedown="handlePan(0,-1)"/>
  <use id="arrowright" xlink:href="#arrowRight" x="0" y="0" onmousedown="handlePan(1,0)"/>
  <use id="arrowdown" xlink:href="#arrowDown" x="0" y="0" onmousedown="handlePan(0,1)"/>
  <use id="arrowleft" xlink:href="#arrowLeft" x="0" y="0" onmousedown="handlePan(-1,0)"/>
</g>
<svg viewBox="0 0 15 15" width="100%" height="30px" preserveAspectRatio="xMaxYMin meet">
 <g id="arrow_out" transform="scale(0.3 0.3)">
  <a xlink:href="buffer__management__interface_8hpp__dep__incl_org.svg" target="_base">
   <rect id="button" ry="5" rx="5" y="6" x="6" height="38" width="38"
        fill="#f2f5e9" fill-opacity="0.5" stroke="#606060" stroke-width="1.0"/>
   <path id="arrow"
     d="M 11.500037,31.436501 C 11.940474,20.09759 22.043105,11.32322 32.158766,21.979434 L 37.068811,17.246167 C 37.068811,17.246167 37.088388,32 37.088388,32 L 22.160133,31.978069 C 22.160133,31.978069 26.997745,27.140456 26.997745,27.140456 C 18.528582,18.264221 13.291696,25.230495 11.500037,31.436501 z"
     style="fill:#404040;"/>
  </a>
 </g>
</svg>

<style type='text/css'>
<![CDATA[
[data-mouse-over-selected='false'] { opacity: 0.7; }
[data-mouse-over-selected='true']  { opacity: 1.0; }
]]>
</style>
<script type="application/ecmascript"><![CDATA[
document.addEventListener('DOMContentLoaded', (event) => {
  highlightEdges();
  highlightAdjacentNodes();
});
]]></script>
</svg>
