<?xml version="1.0" encoding="UTF-8" standalone="no"?>
<!DOCTYPE svg PUBLIC "-//W3C//DTD SVG 1.1//EN"
 "http://www.w3.org/Graphics/SVG/1.1/DTD/svg11.dtd">
<!-- Generated by graphviz version 2.43.0 (0)
 -->
<!-- Title: include/cppuddle/memory_recycling/detail/buffer_management.hpp Pages: 1 -->
<svg width="2083pt" height="423pt"
 viewBox="0.00 0.00 2082.50 423.00" xmlns="http://www.w3.org/2000/svg" xmlns:xlink="http://www.w3.org/1999/xlink">
<g id="graph0" class="graph" transform="scale(1 1) rotate(0) translate(4 419)">
<title>include/cppuddle/memory_recycling/detail/buffer_management.hpp</title>
<!-- Node1 -->
<g id="Node000001" class="node">
<title>Node1</title>
<g id="a_Node000001"><a xlink:title=" ">
<polygon fill="#999999" stroke="#666666" points="367,-415 224,-415 224,-374 367,-374 367,-415"/>
<text text-anchor="start" x="232" y="-403" font-family="Helvetica,sans-Serif" font-size="10.00">include/cppuddle/memory</text>
<text text-anchor="start" x="232" y="-392" font-family="Helvetica,sans-Serif" font-size="10.00">_recycling/detail/buffer</text>
<text text-anchor="middle" x="295.5" y="-381" font-family="Helvetica,sans-Serif" font-size="10.00">_management.hpp</text>
</a>
</g>
</g>
<!-- Node2 -->
<g id="Node000002" class="node">
<title>Node2</title>
<g id="a_Node000002"><a xlink:href="buffer__manager_8hpp.html" target="_top" xlink:title=" ">
<polygon fill="white" stroke="#666666" points="347.5,-173 195.5,-173 195.5,-154 347.5,-154 347.5,-173"/>
<text text-anchor="middle" x="271.5" y="-161" font-family="Helvetica,sans-Serif" font-size="10.00">include/buffer_manager.hpp</text>
</a>
</g>
</g>
<!-- Node1&#45;&gt;Node2 -->
<g id="edge1_Node000001_Node000002" class="edge">
<title>Node1&#45;&gt;Node2</title>
<g id="a_edge1_Node000001_Node000002"><a xlink:title=" ">
<path fill="none" stroke="#63b8ff" d="M292.4,-363.96C286.91,-311.54 275.73,-204.82 272.43,-173.39"/>
<polygon fill="#63b8ff" stroke="#63b8ff" points="288.93,-364.39 293.45,-373.98 295.89,-363.67 288.93,-364.39"/>
</a>
</g>
</g>
<!-- Node4 -->
<g id="Node000004" class="node">
<title>Node4</title>
<g id="a_Node000004"><a xlink:href="aggregation__executors__and__allocators_8hpp.html" target="_top" xlink:title=" ">
<polygon fill="white" stroke="#666666" points="267,-338 94,-338 94,-297 267,-297 267,-338"/>
<text text-anchor="start" x="102" y="-326" font-family="Helvetica,sans-Serif" font-size="10.00">include/cppuddle/kernel</text>
<text text-anchor="start" x="102" y="-315" font-family="Helvetica,sans-Serif" font-size="10.00">_aggregation/detail/aggregation</text>
<text text-anchor="middle" x="180.5" y="-304" font-family="Helvetica,sans-Serif" font-size="10.00">_executors_and_allocators.hpp</text>
</a>
</g>
</g>
<!-- Node1&#45;&gt;Node4 -->
<g id="edge3_Node000001_Node000004" class="edge">
<title>Node1&#45;&gt;Node4</title>
<g id="a_edge3_Node000001_Node000004"><a xlink:title=" ">
<path fill="none" stroke="#63b8ff" d="M256.97,-368.37C241.88,-358.53 224.83,-347.41 210.66,-338.17"/>
<polygon fill="#63b8ff" stroke="#63b8ff" points="255.3,-371.46 265.59,-373.99 259.12,-365.6 255.3,-371.46"/>
</a>
</g>
</g>
<!-- Node12 -->
<g id="Node000012" class="node">
<title>Node12</title>
<g id="a_Node000012"><a xlink:href="buffer__management__interface_8hpp.html" target="_top" xlink:title=" ">
<polygon fill="white" stroke="#666666" points="1142.5,-338 974.5,-338 974.5,-297 1142.5,-297 1142.5,-338"/>
<text text-anchor="start" x="982.5" y="-326" font-family="Helvetica,sans-Serif" font-size="10.00">include/cppuddle/memory</text>
<text text-anchor="start" x="982.5" y="-315" font-family="Helvetica,sans-Serif" font-size="10.00">_recycling/buffer_management</text>
<text text-anchor="middle" x="1058.5" y="-304" font-family="Helvetica,sans-Serif" font-size="10.00">_interface.hpp</text>
</a>
</g>
</g>
<!-- Node1&#45;&gt;Node12 -->
<g id="edge12_Node000001_Node000012" class="edge">
<title>Node1&#45;&gt;Node12</title>
<g id="a_edge12_Node000001_Node000012"><a xlink:title=" ">
<path fill="none" stroke="#63b8ff" d="M377.51,-385.44C523.45,-371.09 826.73,-341.28 974.26,-326.78"/>
<polygon fill="#63b8ff" stroke="#63b8ff" points="376.89,-381.98 367.28,-386.44 377.58,-388.95 376.89,-381.98"/>
</a>
</g>
</g>
<!-- Node3 -->
<g id="Node000003" class="node">
<title>Node3</title>
<g id="a_Node000003"><a xlink:href="cuda__buffer__util_8hpp.html" target="_top" xlink:title=" ">
<polygon fill="white" stroke="#666666" points="1360.5,-107 1248.5,-107 1248.5,-77 1360.5,-77 1360.5,-107"/>
<text text-anchor="start" x="1256.5" y="-95" font-family="Helvetica,sans-Serif" font-size="10.00">include/cuda_buffer</text>
<text text-anchor="middle" x="1304.5" y="-84" font-family="Helvetica,sans-Serif" font-size="10.00">_util.hpp</text>
</a>
</g>
</g>
<!-- Node2&#45;&gt;Node3 -->
<g id="edge2_Node000002_Node000003" class="edge">
<title>Node2&#45;&gt;Node3</title>
<g id="a_edge2_Node000002_Node000003"><a xlink:title=" ">
<path fill="none" stroke="#63b8ff" d="M327.23,-152.28C348.25,-148.79 372.41,-145.21 394.5,-143 768.52,-105.51 866.65,-154.75 1239.5,-107 1242.36,-106.63 1245.29,-106.2 1248.23,-105.73"/>
<polygon fill="#63b8ff" stroke="#63b8ff" points="326.47,-148.86 317.19,-153.98 327.63,-155.76 326.47,-148.86"/>
</a>
</g>
</g>
<!-- Node5 -->
<g id="Node000005" class="node">
<title>Node5</title>
<g id="a_Node000005"><a xlink:href="aggregation__executor__pools_8hpp.html" target="_top" xlink:title=" ">
<polygon fill="white" stroke="#666666" points="267,-261 94,-261 94,-220 267,-220 267,-261"/>
<text text-anchor="start" x="102" y="-249" font-family="Helvetica,sans-Serif" font-size="10.00">include/cppuddle/kernel</text>
<text text-anchor="start" x="102" y="-238" font-family="Helvetica,sans-Serif" font-size="10.00">_aggregation/detail/aggregation</text>
<text text-anchor="middle" x="180.5" y="-227" font-family="Helvetica,sans-Serif" font-size="10.00">_executor_pools.hpp</text>
</a>
</g>
</g>
<!-- Node4&#45;&gt;Node5 -->
<g id="edge4_Node000004_Node000005" class="edge">
<title>Node4&#45;&gt;Node5</title>
<g id="a_edge4_Node000004_Node000005"><a xlink:title=" ">
<path fill="none" stroke="#63b8ff" d="M180.5,-286.69C180.5,-278.08 180.5,-268.9 180.5,-261.07"/>
<polygon fill="#63b8ff" stroke="#63b8ff" points="177,-286.79 180.5,-296.79 184,-286.79 177,-286.79"/>
</a>
</g>
</g>
<!-- Node6 -->
<g id="Node000006" class="node">
<title>Node6</title>
<g id="a_Node000006"><a xlink:href="kernel__aggregation__interface_8hpp.html" target="_top" xlink:title=" ">
<polygon fill="white" stroke="#666666" points="177,-184 0,-184 0,-143 177,-143 177,-184"/>
<text text-anchor="start" x="8" y="-172" font-family="Helvetica,sans-Serif" font-size="10.00">include/cppuddle/kernel</text>
<text text-anchor="start" x="8" y="-161" font-family="Helvetica,sans-Serif" font-size="10.00">_aggregation/kernel_aggregation</text>
<text text-anchor="middle" x="88.5" y="-150" font-family="Helvetica,sans-Serif" font-size="10.00">_interface.hpp</text>
</a>
</g>
</g>
<!-- Node4&#45;&gt;Node6 -->
<g id="edge11_Node000004_Node000006" class="edge">
<title>Node4&#45;&gt;Node6</title>
<g id="a_edge11_Node000004_Node000006"><a xlink:title=" ">
<path fill="none" stroke="#63b8ff" d="M116.09,-291.81C103.48,-283.92 91.89,-273.8 84.5,-261 70.84,-237.33 76.2,-204.68 81.89,-184.08"/>
<polygon fill="#63b8ff" stroke="#63b8ff" points="114.53,-294.95 124.94,-296.92 118.03,-288.89 114.53,-294.95"/>
</a>
</g>
</g>
<!-- Node5&#45;&gt;Node6 -->
<g id="edge5_Node000005_Node000006" class="edge">
<title>Node5&#45;&gt;Node6</title>
<g id="a_edge5_Node000005_Node000006"><a xlink:title=" ">
<path fill="none" stroke="#63b8ff" d="M148.42,-213.35C136.62,-203.73 123.48,-193.01 112.51,-184.07"/>
<polygon fill="#63b8ff" stroke="#63b8ff" points="146.37,-216.19 156.33,-219.79 150.79,-210.76 146.37,-216.19"/>
</a>
</g>
</g>
<!-- Node7 -->
<g id="Node000007" class="node">
<title>Node7</title>
<g id="a_Node000007"><a xlink:href="aggregation__manager_8hpp.html" target="_top" xlink:title=" ">
<polygon fill="white" stroke="#666666" points="145,-107 32,-107 32,-77 145,-77 145,-107"/>
<text text-anchor="start" x="40" y="-95" font-family="Helvetica,sans-Serif" font-size="10.00">include/aggregation</text>
<text text-anchor="middle" x="88.5" y="-84" font-family="Helvetica,sans-Serif" font-size="10.00">_manager.hpp</text>
</a>
</g>
</g>
<!-- Node6&#45;&gt;Node7 -->
<g id="edge6_Node000006_Node000007" class="edge">
<title>Node6&#45;&gt;Node7</title>
<g id="a_edge6_Node000006_Node000007"><a xlink:title=" ">
<path fill="none" stroke="#63b8ff" d="M88.5,-132.66C88.5,-123.76 88.5,-114.42 88.5,-107.04"/>
<polygon fill="#63b8ff" stroke="#63b8ff" points="85,-132.77 88.5,-142.77 92,-132.77 85,-132.77"/>
</a>
</g>
</g>
<!-- Node9 -->
<g id="Node000009" class="node">
<title>Node9</title>
<g id="a_Node000009"><a xlink:href="work__aggregation__cpu__triad_8cpp.html" target="_top" xlink:title=" ">
<polygon fill="white" stroke="#666666" points="367,-107 236,-107 236,-77 367,-77 367,-107"/>
<text text-anchor="start" x="244" y="-95" font-family="Helvetica,sans-Serif" font-size="10.00">tests/work_aggregation</text>
<text text-anchor="middle" x="301.5" y="-84" font-family="Helvetica,sans-Serif" font-size="10.00">_cpu_triad.cpp</text>
</a>
</g>
</g>
<!-- Node6&#45;&gt;Node9 -->
<g id="edge8_Node000006_Node000009" class="edge">
<title>Node6&#45;&gt;Node9</title>
<g id="a_edge8_Node000006_Node000009"><a xlink:title=" ">
<path fill="none" stroke="#63b8ff" d="M158.04,-139.81C191.18,-129 229.78,-116.4 258.58,-107"/>
<polygon fill="#63b8ff" stroke="#63b8ff" points="156.82,-136.53 148.4,-142.96 158.99,-143.18 156.82,-136.53"/>
</a>
</g>
</g>
<!-- Node10 -->
<g id="Node000010" class="node">
<title>Node10</title>
<g id="a_Node000010"><a xlink:href="work__aggregation__cuda__triad_8cpp.html" target="_top" xlink:title=" ">
<polygon fill="white" stroke="#666666" points="1081,-107 950,-107 950,-77 1081,-77 1081,-107"/>
<text text-anchor="start" x="958" y="-95" font-family="Helvetica,sans-Serif" font-size="10.00">tests/work_aggregation</text>
<text text-anchor="middle" x="1015.5" y="-84" font-family="Helvetica,sans-Serif" font-size="10.00">_cuda_triad.cpp</text>
</a>
</g>
</g>
<!-- Node6&#45;&gt;Node10 -->
<g id="edge9_Node000006_Node000010" class="edge">
<title>Node6&#45;&gt;Node10</title>
<g id="a_edge9_Node000006_Node000010"><a xlink:title=" ">
<path fill="none" stroke="#63b8ff" d="M187.37,-143C477.05,-106.3 811.06,-96.54 949.93,-93.93"/>
<polygon fill="#63b8ff" stroke="#63b8ff" points="186.56,-139.57 177.08,-144.31 187.45,-146.51 186.56,-139.57"/>
</a>
</g>
</g>
<!-- Node11 -->
<g id="Node000011" class="node">
<title>Node11</title>
<g id="a_Node000011"><a xlink:href="work__aggregation__test_8cpp.html" target="_top" xlink:title=" ">
<polygon fill="white" stroke="#666666" points="1230,-107 1099,-107 1099,-77 1230,-77 1230,-107"/>
<text text-anchor="start" x="1107" y="-95" font-family="Helvetica,sans-Serif" font-size="10.00">tests/work_aggregation</text>
<text text-anchor="middle" x="1164.5" y="-84" font-family="Helvetica,sans-Serif" font-size="10.00">_test.cpp</text>
</a>
</g>
</g>
<!-- Node6&#45;&gt;Node11 -->
<g id="edge10_Node000006_Node000011" class="edge">
<title>Node6&#45;&gt;Node11</title>
<g id="a_edge10_Node000006_Node000011"><a xlink:title=" ">
<path fill="none" stroke="#63b8ff" d="M187.19,-143.04C587.56,-96.56 694.3,-152.12 1090.5,-107 1093.23,-106.69 1096.01,-106.34 1098.81,-105.95"/>
<polygon fill="#63b8ff" stroke="#63b8ff" points="186.6,-139.59 177.07,-144.23 187.41,-146.54 186.6,-139.59"/>
</a>
</g>
</g>
<!-- Node8 -->
<g id="Node000008" class="node">
<title>Node8</title>
<g id="a_Node000008"><a xlink:href="kokkos__aggregation__util_8hpp.html" target="_top" xlink:title=" ">
<polygon fill="white" stroke="#666666" points="156.5,-41 20.5,-41 20.5,0 156.5,0 156.5,-41"/>
<text text-anchor="start" x="28.5" y="-29" font-family="Helvetica,sans-Serif" font-size="10.00">include/cppuddle/kernel</text>
<text text-anchor="start" x="28.5" y="-18" font-family="Helvetica,sans-Serif" font-size="10.00">_aggregation/util/kokkos</text>
<text text-anchor="middle" x="88.5" y="-7" font-family="Helvetica,sans-Serif" font-size="10.00">_aggregation_util.hpp</text>
</a>
</g>
</g>
<!-- Node7&#45;&gt;Node8 -->
<g id="edge7_Node000007_Node000008" class="edge">
<title>Node7&#45;&gt;Node8</title>
<g id="a_edge7_Node000007_Node000008"><a xlink:title=" ">
<path fill="none" stroke="#63b8ff" d="M88.5,-66.91C88.5,-58.47 88.5,-49.1 88.5,-41.07"/>
<polygon fill="#63b8ff" stroke="#63b8ff" points="85,-66.94 88.5,-76.94 92,-66.94 85,-66.94"/>
</a>
</g>
</g>
<!-- Node12&#45;&gt;Node2 -->
<g id="edge13_Node000012_Node000002" class="edge">
<title>Node12&#45;&gt;Node2</title>
<g id="a_edge13_Node000012_Node000002"><a xlink:title=" ">
<path fill="none" stroke="#63b8ff" d="M964.2,-314.62C855.02,-310.66 670.47,-298.45 516.5,-261 427.44,-239.33 327.6,-192.41 288.49,-173.09"/>
<polygon fill="#63b8ff" stroke="#63b8ff" points="964.08,-318.11 974.2,-314.96 964.33,-311.12 964.08,-318.11"/>
</a>
</g>
</g>
<!-- Node13 -->
<g id="Node000013" class="node">
<title>Node13</title>
<g id="a_Node000013"><a xlink:href="aligned__recycling__allocators_8hpp.html" target="_top" xlink:title=" ">
<polygon fill="white" stroke="#666666" points="1609,-261 1454,-261 1454,-220 1609,-220 1609,-261"/>
<text text-anchor="start" x="1462" y="-249" font-family="Helvetica,sans-Serif" font-size="10.00">include/cppuddle/memory</text>
<text text-anchor="start" x="1462" y="-238" font-family="Helvetica,sans-Serif" font-size="10.00">_recycling/aligned_recycling</text>
<text text-anchor="middle" x="1531.5" y="-227" font-family="Helvetica,sans-Serif" font-size="10.00">_allocators.hpp</text>
</a>
</g>
</g>
<!-- Node12&#45;&gt;Node13 -->
<g id="edge14_Node000012_Node000013" class="edge">
<title>Node12&#45;&gt;Node13</title>
<g id="a_edge14_Node000012_Node000013"><a xlink:title=" ">
<path fill="none" stroke="#63b8ff" d="M1152.53,-301.59C1240.78,-287.6 1371.23,-266.91 1453.75,-253.83"/>
<polygon fill="#63b8ff" stroke="#63b8ff" points="1151.85,-298.15 1142.52,-303.18 1152.94,-305.07 1151.85,-298.15"/>
</a>
</g>
</g>
<!-- Node16 -->
<g id="Node000016" class="node">
<title>Node16</title>
<g id="a_Node000016"><a xlink:href="cuda__recycling__allocators_8hpp.html" target="_top" xlink:title=" ">
<polygon fill="white" stroke="#666666" points="1237,-261 1094,-261 1094,-220 1237,-220 1237,-261"/>
<text text-anchor="start" x="1102" y="-249" font-family="Helvetica,sans-Serif" font-size="10.00">include/cppuddle/memory</text>
<text text-anchor="start" x="1102" y="-238" font-family="Helvetica,sans-Serif" font-size="10.00">_recycling/cuda_recycling</text>
<text text-anchor="middle" x="1165.5" y="-227" font-family="Helvetica,sans-Serif" font-size="10.00">_allocators.hpp</text>
</a>
</g>
</g>
<!-- Node12&#45;&gt;Node16 -->
<g id="edge17_Node000012_Node000016" class="edge">
<title>Node12&#45;&gt;Node16</title>
<g id="a_edge17_Node000012_Node000016"><a xlink:title=" ">
<path fill="none" stroke="#63b8ff" d="M1094.75,-291.09C1108.69,-281.32 1124.38,-270.32 1137.43,-261.17"/>
<polygon fill="#63b8ff" stroke="#63b8ff" points="1092.51,-288.38 1086.33,-296.99 1096.53,-294.12 1092.51,-288.38"/>
</a>
</g>
</g>
<!-- Node22 -->
<g id="Node000022" class="node">
<title>Node22</title>
<g id="a_Node000022"><a xlink:href="hip__recycling__allocators_8hpp.html" target="_top" xlink:title=" ">
<polygon fill="white" stroke="#666666" points="1840,-261 1697,-261 1697,-220 1840,-220 1840,-261"/>
<text text-anchor="start" x="1705" y="-249" font-family="Helvetica,sans-Serif" font-size="10.00">include/cppuddle/memory</text>
<text text-anchor="start" x="1705" y="-238" font-family="Helvetica,sans-Serif" font-size="10.00">_recycling/hip_recycling</text>
<text text-anchor="middle" x="1768.5" y="-227" font-family="Helvetica,sans-Serif" font-size="10.00">_allocators.hpp</text>
</a>
</g>
</g>
<!-- Node12&#45;&gt;Node22 -->
<g id="edge30_Node000012_Node000022" class="edge">
<title>Node12&#45;&gt;Node22</title>
<g id="a_edge30_Node000012_Node000022"><a xlink:title=" ">
<path fill="none" stroke="#63b8ff" d="M1152.74,-308.04C1264.11,-297.85 1454.96,-279.73 1618.5,-261 1644.07,-258.07 1672.04,-254.53 1696.83,-251.27"/>
<polygon fill="#63b8ff" stroke="#63b8ff" points="1152.19,-304.58 1142.55,-308.98 1152.83,-311.55 1152.19,-304.58"/>
</a>
</g>
</g>
<!-- Node25 -->
<g id="Node000025" class="node">
<title>Node25</title>
<g id="a_Node000025"><a xlink:href="std__recycling__allocators_8hpp.html" target="_top" xlink:title=" ">
<polygon fill="white" stroke="#666666" points="669,-261 526,-261 526,-220 669,-220 669,-261"/>
<text text-anchor="start" x="534" y="-249" font-family="Helvetica,sans-Serif" font-size="10.00">include/cppuddle/memory</text>
<text text-anchor="start" x="534" y="-238" font-family="Helvetica,sans-Serif" font-size="10.00">_recycling/std_recycling</text>
<text text-anchor="middle" x="597.5" y="-227" font-family="Helvetica,sans-Serif" font-size="10.00">_allocators.hpp</text>
</a>
</g>
</g>
<!-- Node12&#45;&gt;Node25 -->
<g id="edge34_Node000012_Node000025" class="edge">
<title>Node12&#45;&gt;Node25</title>
<g id="a_edge34_Node000012_Node000025"><a xlink:title=" ">
<path fill="none" stroke="#63b8ff" d="M964.56,-301.22C877.12,-286.99 748.67,-266.09 669.21,-253.17"/>
<polygon fill="#63b8ff" stroke="#63b8ff" points="964.05,-304.68 974.48,-302.83 965.17,-297.77 964.05,-304.68"/>
</a>
</g>
</g>
<!-- Node28 -->
<g id="Node000028" class="node">
<title>Node28</title>
<g id="a_Node000028"><a xlink:href="sycl__recycling__allocators_8hpp.html" target="_top" xlink:title=" ">
<polygon fill="white" stroke="#666666" points="2046,-261 1903,-261 1903,-220 2046,-220 2046,-261"/>
<text text-anchor="start" x="1911" y="-249" font-family="Helvetica,sans-Serif" font-size="10.00">include/cppuddle/memory</text>
<text text-anchor="start" x="1911" y="-238" font-family="Helvetica,sans-Serif" font-size="10.00">_recycling/sycl_recycling</text>
<text text-anchor="middle" x="1974.5" y="-227" font-family="Helvetica,sans-Serif" font-size="10.00">_allocators.hpp</text>
</a>
</g>
</g>
<!-- Node12&#45;&gt;Node28 -->
<g id="edge41_Node000012_Node000028" class="edge">
<title>Node12&#45;&gt;Node28</title>
<g id="a_edge41_Node000012_Node000028"><a xlink:title=" ">
<path fill="none" stroke="#63b8ff" d="M1152.71,-312.47C1301.2,-305.55 1598.6,-289.32 1849.5,-261 1866.85,-259.04 1885.48,-256.42 1902.92,-253.73"/>
<polygon fill="#63b8ff" stroke="#63b8ff" points="1152.54,-308.98 1142.71,-312.94 1152.86,-315.97 1152.54,-308.98"/>
</a>
</g>
</g>
<!-- Node30 -->
<g id="Node000030" class="node">
<title>Node30</title>
<g id="a_Node000030"><a xlink:href="recycling__kokkos__view_8hpp.html" target="_top" xlink:title=" ">
<polygon fill="white" stroke="#666666" points="1023,-261 880,-261 880,-220 1023,-220 1023,-261"/>
<text text-anchor="start" x="888" y="-249" font-family="Helvetica,sans-Serif" font-size="10.00">include/cppuddle/memory</text>
<text text-anchor="start" x="888" y="-238" font-family="Helvetica,sans-Serif" font-size="10.00">_recycling/util/recycling</text>
<text text-anchor="middle" x="951.5" y="-227" font-family="Helvetica,sans-Serif" font-size="10.00">_kokkos_view.hpp</text>
</a>
</g>
</g>
<!-- Node12&#45;&gt;Node30 -->
<g id="edge43_Node000012_Node000030" class="edge">
<title>Node12&#45;&gt;Node30</title>
<g id="a_edge43_Node000012_Node000030"><a xlink:title=" ">
<path fill="none" stroke="#63b8ff" d="M1022.25,-291.09C1008.31,-281.32 992.62,-270.32 979.57,-261.17"/>
<polygon fill="#63b8ff" stroke="#63b8ff" points="1020.47,-294.12 1030.67,-296.99 1024.49,-288.38 1020.47,-294.12"/>
</a>
</g>
</g>
<!-- Node14 -->
<g id="Node000014" class="node">
<title>Node14</title>
<g id="a_Node000014"><a xlink:href="aligned__buffer__util_8hpp.html" target="_top" xlink:title=" ">
<polygon fill="white" stroke="#666666" points="1594,-178.5 1469,-178.5 1469,-148.5 1594,-148.5 1594,-178.5"/>
<text text-anchor="start" x="1477" y="-166.5" font-family="Helvetica,sans-Serif" font-size="10.00">include/aligned_buffer</text>
<text text-anchor="middle" x="1531.5" y="-155.5" font-family="Helvetica,sans-Serif" font-size="10.00">_util.hpp</text>
</a>
</g>
</g>
<!-- Node13&#45;&gt;Node14 -->
<g id="edge15_Node000013_Node000014" class="edge">
<title>Node13&#45;&gt;Node14</title>
<g id="a_edge15_Node000013_Node000014"><a xlink:title=" ">
<path fill="none" stroke="#63b8ff" d="M1531.5,-209.61C1531.5,-199.01 1531.5,-187.57 1531.5,-178.86"/>
<polygon fill="#63b8ff" stroke="#63b8ff" points="1528,-209.79 1531.5,-219.79 1535,-209.79 1528,-209.79"/>
</a>
</g>
</g>
<!-- Node15 -->
<g id="Node000015" class="node">
<title>Node15</title>
<g id="a_Node000015"><a xlink:href="allocator__aligned__test_8cpp.html" target="_top" xlink:title=" ">
<polygon fill="white" stroke="#666666" points="1740.5,-178.5 1612.5,-178.5 1612.5,-148.5 1740.5,-148.5 1740.5,-178.5"/>
<text text-anchor="start" x="1620.5" y="-166.5" font-family="Helvetica,sans-Serif" font-size="10.00">tests/allocator_aligned</text>
<text text-anchor="middle" x="1676.5" y="-155.5" font-family="Helvetica,sans-Serif" font-size="10.00">_test.cpp</text>
</a>
</g>
</g>
<!-- Node13&#45;&gt;Node15 -->
<g id="edge16_Node000013_Node000015" class="edge">
<title>Node13&#45;&gt;Node15</title>
<g id="a_edge16_Node000013_Node000015"><a xlink:title=" ">
<path fill="none" stroke="#63b8ff" d="M1578.28,-215.3C1601.65,-203.22 1629.11,-189.01 1649.05,-178.7"/>
<polygon fill="#63b8ff" stroke="#63b8ff" points="1576.49,-212.29 1569.22,-219.99 1579.71,-218.5 1576.49,-212.29"/>
</a>
</g>
</g>
<!-- Node16&#45;&gt;Node3 -->
<g id="edge24_Node000016_Node000003" class="edge">
<title>Node16&#45;&gt;Node3</title>
<g id="a_edge24_Node000016_Node000003"><a xlink:title=" ">
<path fill="none" stroke="#63b8ff" d="M1247.21,-229.21C1301.78,-220.46 1366.55,-205.81 1383.5,-184 1394.68,-169.61 1392.29,-158.96 1383.5,-143 1374.58,-126.79 1357.93,-115.1 1342.22,-107.12"/>
<polygon fill="#63b8ff" stroke="#63b8ff" points="1246.49,-225.78 1237.15,-230.77 1247.57,-232.69 1246.49,-225.78"/>
</a>
</g>
</g>
<!-- Node16&#45;&gt;Node10 -->
<g id="edge28_Node000016_Node000010" class="edge">
<title>Node16&#45;&gt;Node10</title>
<g id="a_edge28_Node000016_Node000010"><a xlink:title=" ">
<path fill="none" stroke="#63b8ff" d="M1160.02,-209.75C1154.81,-188.82 1145.06,-161.37 1127.5,-143 1111.53,-126.3 1088.98,-114.78 1068.3,-107.04"/>
<polygon fill="#63b8ff" stroke="#63b8ff" points="1156.66,-210.75 1162.29,-219.73 1163.49,-209.2 1156.66,-210.75"/>
</a>
</g>
</g>
<!-- Node16&#45;&gt;Node11 -->
<g id="edge29_Node000016_Node000011" class="edge">
<title>Node16&#45;&gt;Node11</title>
<g id="a_edge29_Node000016_Node000011"><a xlink:title=" ">
<path fill="none" stroke="#63b8ff" d="M1165.29,-209.44C1165.08,-178.21 1164.76,-130.68 1164.6,-107.18"/>
<polygon fill="#63b8ff" stroke="#63b8ff" points="1161.8,-209.77 1165.37,-219.74 1168.8,-209.72 1161.8,-209.77"/>
</a>
</g>
</g>
<!-- Node17 -->
<g id="Node000017" class="node">
<title>Node17</title>
<g id="a_Node000017"><a xlink:href="cuda__recycling__device__buffer_8hpp.html" target="_top" xlink:title="Contains a RAII wrappers for CUDA device buffers. Intended to be used with the recycling allocators b...">
<polygon fill="white" stroke="#666666" points="1374,-184 1213,-184 1213,-143 1374,-143 1374,-184"/>
<text text-anchor="start" x="1221" y="-172" font-family="Helvetica,sans-Serif" font-size="10.00">include/cppuddle/memory</text>
<text text-anchor="start" x="1221" y="-161" font-family="Helvetica,sans-Serif" font-size="10.00">_recycling/util/cuda_recycling</text>
<text text-anchor="middle" x="1293.5" y="-150" font-family="Helvetica,sans-Serif" font-size="10.00">_device_buffer.hpp</text>
</a>
</g>
</g>
<!-- Node16&#45;&gt;Node17 -->
<g id="edge18_Node000016_Node000017" class="edge">
<title>Node16&#45;&gt;Node17</title>
<g id="a_edge18_Node000016_Node000017"><a xlink:title=" ">
<path fill="none" stroke="#63b8ff" d="M1207.45,-214.92C1224.47,-204.95 1243.87,-193.58 1259.93,-184.17"/>
<polygon fill="#63b8ff" stroke="#63b8ff" points="1205.65,-211.92 1198.8,-219.99 1209.19,-217.95 1205.65,-211.92"/>
</a>
</g>
</g>
<!-- Node18 -->
<g id="Node000018" class="node">
<title>Node18</title>
<g id="a_Node000018"><a xlink:href="stream__test_8hpp.html" target="_top" xlink:title=" ">
<polygon fill="white" stroke="#666666" points="1502,-101.5 1379,-101.5 1379,-82.5 1502,-82.5 1502,-101.5"/>
<text text-anchor="middle" x="1440.5" y="-89.5" font-family="Helvetica,sans-Serif" font-size="10.00">tests/stream_test.hpp</text>
</a>
</g>
</g>
<!-- Node16&#45;&gt;Node18 -->
<g id="edge27_Node000016_Node000018" class="edge">
<title>Node16&#45;&gt;Node18</title>
<g id="a_edge27_Node000016_Node000018"><a xlink:title=" ">
<path fill="none" stroke="#63b8ff" d="M1247,-228.14C1305.22,-218.59 1377.2,-203.4 1400.5,-184 1426.76,-162.14 1436.33,-119.66 1439.31,-101.53"/>
<polygon fill="#63b8ff" stroke="#63b8ff" points="1246.36,-224.7 1237.04,-229.74 1247.47,-231.61 1246.36,-224.7"/>
</a>
</g>
</g>
<!-- Node20 -->
<g id="Node000020" class="node">
<title>Node20</title>
<g id="a_Node000020"><a xlink:href="allocator__kokkos__executor__for__loop__test_8cpp.html" target="_top" xlink:title=" ">
<polygon fill="white" stroke="#666666" points="975,-178.5 822,-178.5 822,-148.5 975,-148.5 975,-178.5"/>
<text text-anchor="start" x="830" y="-166.5" font-family="Helvetica,sans-Serif" font-size="10.00">tests/allocator_kokkos</text>
<text text-anchor="middle" x="898.5" y="-155.5" font-family="Helvetica,sans-Serif" font-size="10.00">_executor_for_loop_test.cpp</text>
</a>
</g>
</g>
<!-- Node16&#45;&gt;Node20 -->
<g id="edge25_Node000016_Node000020" class="edge">
<title>Node16&#45;&gt;Node20</title>
<g id="a_edge25_Node000016_Node000020"><a xlink:title=" ">
<path fill="none" stroke="#63b8ff" d="M1086.39,-217.28C1041.78,-204.75 987.39,-189.47 948.63,-178.58"/>
<polygon fill="#63b8ff" stroke="#63b8ff" points="1085.47,-220.66 1096.05,-219.99 1087.37,-213.92 1085.47,-220.66"/>
</a>
</g>
</g>
<!-- Node21 -->
<g id="Node000021" class="node">
<title>Node21</title>
<g id="a_Node000021"><a xlink:href="allocator__kokkos__test_8cpp.html" target="_top" xlink:title=" ">
<polygon fill="white" stroke="#666666" points="1118,-178.5 993,-178.5 993,-148.5 1118,-148.5 1118,-178.5"/>
<text text-anchor="start" x="1001" y="-166.5" font-family="Helvetica,sans-Serif" font-size="10.00">tests/allocator_kokkos</text>
<text text-anchor="middle" x="1055.5" y="-155.5" font-family="Helvetica,sans-Serif" font-size="10.00">_test.cpp</text>
</a>
</g>
</g>
<!-- Node16&#45;&gt;Node21 -->
<g id="edge26_Node000016_Node000021" class="edge">
<title>Node16&#45;&gt;Node21</title>
<g id="a_edge26_Node000016_Node000021"><a xlink:title=" ">
<path fill="none" stroke="#63b8ff" d="M1128.59,-214.34C1111.18,-202.47 1091.05,-188.74 1076.33,-178.7"/>
<polygon fill="#63b8ff" stroke="#63b8ff" points="1126.65,-217.25 1136.89,-219.99 1130.6,-211.47 1126.65,-217.25"/>
</a>
</g>
</g>
<!-- Node17&#45;&gt;Node3 -->
<g id="edge19_Node000017_Node000003" class="edge">
<title>Node17&#45;&gt;Node3</title>
<g id="a_edge19_Node000017_Node000003"><a xlink:title=" ">
<path fill="none" stroke="#63b8ff" d="M1298.22,-132.66C1299.63,-123.76 1301.11,-114.42 1302.28,-107.04"/>
<polygon fill="#63b8ff" stroke="#63b8ff" points="1294.73,-132.35 1296.62,-142.77 1301.64,-133.44 1294.73,-132.35"/>
</a>
</g>
</g>
<!-- Node17&#45;&gt;Node10 -->
<g id="edge22_Node000017_Node000010" class="edge">
<title>Node17&#45;&gt;Node10</title>
<g id="a_edge22_Node000017_Node000010"><a xlink:title=" ">
<path fill="none" stroke="#63b8ff" d="M1205.51,-140.5C1161.65,-129.54 1109.92,-116.6 1071.52,-107"/>
<polygon fill="#63b8ff" stroke="#63b8ff" points="1204.77,-143.93 1215.32,-142.96 1206.47,-137.13 1204.77,-143.93"/>
</a>
</g>
</g>
<!-- Node17&#45;&gt;Node11 -->
<g id="edge23_Node000017_Node000011" class="edge">
<title>Node17&#45;&gt;Node11</title>
<g id="a_edge23_Node000017_Node000011"><a xlink:title=" ">
<path fill="none" stroke="#63b8ff" d="M1248.29,-138.14C1229.02,-127.76 1207.23,-116.02 1190.69,-107.11"/>
<polygon fill="#63b8ff" stroke="#63b8ff" points="1246.76,-141.29 1257.22,-142.96 1250.08,-135.13 1246.76,-141.29"/>
</a>
</g>
</g>
<!-- Node17&#45;&gt;Node18 -->
<g id="edge20_Node000017_Node000018" class="edge">
<title>Node17&#45;&gt;Node18</title>
<g id="a_edge20_Node000017_Node000018"><a xlink:title=" ">
<path fill="none" stroke="#63b8ff" d="M1344.22,-138.52C1371.37,-125.68 1403.12,-110.67 1422.51,-101.5"/>
<polygon fill="#63b8ff" stroke="#63b8ff" points="1342.38,-135.52 1334.84,-142.96 1345.38,-141.85 1342.38,-135.52"/>
</a>
</g>
</g>
<!-- Node19 -->
<g id="Node000019" class="node">
<title>Node19</title>
<g id="a_Node000019"><a xlink:href="stream__test_8cpp.html" target="_top" xlink:title=" ">
<polygon fill="white" stroke="#666666" points="1501.5,-30 1379.5,-30 1379.5,-11 1501.5,-11 1501.5,-30"/>
<text text-anchor="middle" x="1440.5" y="-18" font-family="Helvetica,sans-Serif" font-size="10.00">tests/stream_test.cpp</text>
</a>
</g>
</g>
<!-- Node18&#45;&gt;Node19 -->
<g id="edge21_Node000018_Node000019" class="edge">
<title>Node18&#45;&gt;Node19</title>
<g id="a_edge21_Node000018_Node000019"><a xlink:title=" ">
<path fill="none" stroke="#63b8ff" d="M1440.5,-72.21C1440.5,-58.5 1440.5,-40.55 1440.5,-30.09"/>
<polygon fill="#63b8ff" stroke="#63b8ff" points="1437,-72.48 1440.5,-82.48 1444,-72.48 1437,-72.48"/>
</a>
</g>
</g>
<!-- Node23 -->
<g id="Node000023" class="node">
<title>Node23</title>
<g id="a_Node000023"><a xlink:href="hip__recycling__device__buffer_8hpp.html" target="_top" xlink:title=" ">
<polygon fill="white" stroke="#666666" points="1948.5,-184 1796.5,-184 1796.5,-143 1948.5,-143 1948.5,-184"/>
<text text-anchor="start" x="1804.5" y="-172" font-family="Helvetica,sans-Serif" font-size="10.00">include/cppuddle/memory</text>
<text text-anchor="start" x="1804.5" y="-161" font-family="Helvetica,sans-Serif" font-size="10.00">_recycling/util/hip_recycling</text>
<text text-anchor="middle" x="1872.5" y="-150" font-family="Helvetica,sans-Serif" font-size="10.00">_device_buffer.hpp</text>
</a>
</g>
</g>
<!-- Node22&#45;&gt;Node23 -->
<g id="edge31_Node000022_Node000023" class="edge">
<title>Node22&#45;&gt;Node23</title>
<g id="a_edge31_Node000022_Node000023"><a xlink:title=" ">
<path fill="none" stroke="#63b8ff" d="M1803.73,-214.09C1817.28,-204.32 1832.53,-193.32 1845.22,-184.17"/>
<polygon fill="#63b8ff" stroke="#63b8ff" points="1801.62,-211.3 1795.55,-219.99 1805.71,-216.98 1801.62,-211.3"/>
</a>
</g>
</g>
<!-- Node24 -->
<g id="Node000024" class="node">
<title>Node24</title>
<g id="a_Node000024"><a xlink:href="hip__buffer__util_8hpp.html" target="_top" xlink:title=" ">
<polygon fill="white" stroke="#666666" points="1872.5,-107 1768.5,-107 1768.5,-77 1872.5,-77 1872.5,-107"/>
<text text-anchor="start" x="1776.5" y="-95" font-family="Helvetica,sans-Serif" font-size="10.00">include/hip_buffer</text>
<text text-anchor="middle" x="1820.5" y="-84" font-family="Helvetica,sans-Serif" font-size="10.00">_util.hpp</text>
</a>
</g>
</g>
<!-- Node22&#45;&gt;Node24 -->
<g id="edge33_Node000022_Node000024" class="edge">
<title>Node22&#45;&gt;Node24</title>
<g id="a_edge33_Node000022_Node000024"><a xlink:title=" ">
<path fill="none" stroke="#63b8ff" d="M1771.36,-209.5C1773.95,-190 1778.76,-164.33 1787.5,-143 1792.86,-129.91 1801.84,-116.62 1809.08,-107.03"/>
<polygon fill="#63b8ff" stroke="#63b8ff" points="1767.86,-209.28 1770.14,-219.63 1774.81,-210.12 1767.86,-209.28"/>
</a>
</g>
</g>
<!-- Node23&#45;&gt;Node24 -->
<g id="edge32_Node000023_Node000024" class="edge">
<title>Node23&#45;&gt;Node24</title>
<g id="a_edge32_Node000023_Node000024"><a xlink:title=" ">
<path fill="none" stroke="#63b8ff" d="M1851.69,-134.69C1844.59,-125.19 1836.95,-114.98 1831,-107.04"/>
<polygon fill="#63b8ff" stroke="#63b8ff" points="1848.94,-136.86 1857.74,-142.77 1854.55,-132.67 1848.94,-136.86"/>
</a>
</g>
</g>
<!-- Node25&#45;&gt;Node2 -->
<g id="edge35_Node000025_Node000002" class="edge">
<title>Node25&#45;&gt;Node2</title>
<g id="a_edge35_Node000025_Node000002"><a xlink:title=" ">
<path fill="none" stroke="#63b8ff" d="M515.92,-220.73C449.43,-205.43 358.61,-184.54 308.5,-173.01"/>
<polygon fill="#63b8ff" stroke="#63b8ff" points="515.43,-224.21 525.96,-223.04 517,-217.39 515.43,-224.21"/>
</a>
</g>
</g>
<!-- Node25&#45;&gt;Node9 -->
<g id="edge40_Node000025_Node000009" class="edge">
<title>Node25&#45;&gt;Node9</title>
<g id="a_edge40_Node000025_Node000009"><a xlink:title=" ">
<path fill="none" stroke="#63b8ff" d="M515.77,-227.89C476.98,-219.78 431.21,-206.26 394.5,-184 373.26,-171.12 374.15,-160.48 356.5,-143 343.85,-130.47 328.85,-116.92 317.72,-107.09"/>
<polygon fill="#63b8ff" stroke="#63b8ff" points="515.5,-231.4 525.99,-229.94 516.87,-224.54 515.5,-231.4"/>
</a>
</g>
</g>
<!-- Node25&#45;&gt;Node20 -->
<g id="edge37_Node000025_Node000020" class="edge">
<title>Node25&#45;&gt;Node20</title>
<g id="a_edge37_Node000025_Node000020"><a xlink:title=" ">
<path fill="none" stroke="#63b8ff" d="M679.01,-219.19C730.58,-206.34 795.96,-190.05 841.9,-178.6"/>
<polygon fill="#63b8ff" stroke="#63b8ff" points="678.07,-215.82 669.21,-221.63 679.76,-222.61 678.07,-215.82"/>
</a>
</g>
</g>
<!-- Node25&#45;&gt;Node21 -->
<g id="edge38_Node000025_Node000021" class="edge">
<title>Node25&#45;&gt;Node21</title>
<g id="a_edge38_Node000025_Node000021"><a xlink:title=" ">
<path fill="none" stroke="#63b8ff" d="M679.63,-230.75C758.33,-221.66 880.2,-205.71 984.5,-184 992.01,-182.44 999.9,-180.54 1007.58,-178.54"/>
<polygon fill="#63b8ff" stroke="#63b8ff" points="678.83,-227.32 669.3,-231.94 679.63,-234.28 678.83,-227.32"/>
</a>
</g>
</g>
<!-- Node26 -->
<g id="Node000026" class="node">
<title>Node26</title>
<g id="a_Node000026"><a xlink:href="allocator__hpx__test_8cpp.html" target="_top" xlink:title=" ">
<polygon fill="white" stroke="#666666" points="513.5,-178.5 403.5,-178.5 403.5,-148.5 513.5,-148.5 513.5,-178.5"/>
<text text-anchor="start" x="411.5" y="-166.5" font-family="Helvetica,sans-Serif" font-size="10.00">tests/allocator_hpx</text>
<text text-anchor="middle" x="458.5" y="-155.5" font-family="Helvetica,sans-Serif" font-size="10.00">_test.cpp</text>
</a>
</g>
</g>
<!-- Node25&#45;&gt;Node26 -->
<g id="edge36_Node000025_Node000026" class="edge">
<title>Node25&#45;&gt;Node26</title>
<g id="a_edge36_Node000025_Node000026"><a xlink:title=" ">
<path fill="none" stroke="#63b8ff" d="M552.36,-215.14C530.02,-203.09 503.84,-188.97 484.82,-178.7"/>
<polygon fill="#63b8ff" stroke="#63b8ff" points="550.88,-218.32 561.34,-219.99 554.2,-212.16 550.88,-218.32"/>
</a>
</g>
</g>
<!-- Node27 -->
<g id="Node000027" class="node">
<title>Node27</title>
<g id="a_Node000027"><a xlink:href="allocator__test_8cpp.html" target="_top" xlink:title=" ">
<polygon fill="white" stroke="#666666" points="663,-173 532,-173 532,-154 663,-154 663,-173"/>
<text text-anchor="middle" x="597.5" y="-161" font-family="Helvetica,sans-Serif" font-size="10.00">tests/allocator_test.cpp</text>
</a>
</g>
</g>
<!-- Node25&#45;&gt;Node27 -->
<g id="edge39_Node000025_Node000027" class="edge">
<title>Node25&#45;&gt;Node27</title>
<g id="a_edge39_Node000025_Node000027"><a xlink:title=" ">
<path fill="none" stroke="#63b8ff" d="M597.5,-209.7C597.5,-196.59 597.5,-182.18 597.5,-173.24"/>
<polygon fill="#63b8ff" stroke="#63b8ff" points="594,-209.79 597.5,-219.79 601,-209.79 594,-209.79"/>
</a>
</g>
</g>
<!-- Node29 -->
<g id="Node000029" class="node">
<title>Node29</title>
<g id="a_Node000029"><a xlink:href="sycl__buffer__util_8hpp.html" target="_top" xlink:title=" ">
<polygon fill="white" stroke="#666666" points="2074.5,-178.5 1966.5,-178.5 1966.5,-148.5 2074.5,-148.5 2074.5,-178.5"/>
<text text-anchor="start" x="1974.5" y="-166.5" font-family="Helvetica,sans-Serif" font-size="10.00">include/sycl_buffer</text>
<text text-anchor="middle" x="2020.5" y="-155.5" font-family="Helvetica,sans-Serif" font-size="10.00">_util.hpp</text>
</a>
</g>
</g>
<!-- Node28&#45;&gt;Node29 -->
<g id="edge42_Node000028_Node000029" class="edge">
<title>Node28&#45;&gt;Node29</title>
<g id="a_edge42_Node000028_Node000029"><a xlink:title=" ">
<path fill="none" stroke="#63b8ff" d="M1991.82,-211.26C1998.6,-200.21 2006.07,-188.02 2011.69,-178.86"/>
<polygon fill="#63b8ff" stroke="#63b8ff" points="1988.83,-209.44 1986.59,-219.79 1994.8,-213.1 1988.83,-209.44"/>
</a>
</g>
</g>
<!-- Node30&#45;&gt;Node20 -->
<g id="edge45_Node000030_Node000020" class="edge">
<title>Node30&#45;&gt;Node20</title>
<g id="a_edge45_Node000030_Node000020"><a xlink:title=" ">
<path fill="none" stroke="#63b8ff" d="M931.78,-211.59C923.91,-200.46 915.19,-188.12 908.65,-178.86"/>
<polygon fill="#63b8ff" stroke="#63b8ff" points="928.95,-213.65 937.57,-219.79 934.66,-209.61 928.95,-213.65"/>
</a>
</g>
</g>
<!-- Node30&#45;&gt;Node21 -->
<g id="edge46_Node000030_Node000021" class="edge">
<title>Node30&#45;&gt;Node21</title>
<g id="a_edge46_Node000030_Node000021"><a xlink:title=" ">
<path fill="none" stroke="#63b8ff" d="M986.84,-214.01C1003.2,-202.22 1022.02,-188.65 1035.81,-178.7"/>
<polygon fill="#63b8ff" stroke="#63b8ff" points="984.62,-211.3 978.55,-219.99 988.71,-216.98 984.62,-211.3"/>
</a>
</g>
</g>
<!-- Node31 -->
<g id="Node000031" class="node">
<title>Node31</title>
<g id="a_Node000031"><a xlink:href="kokkos__buffer__util_8hpp.html" target="_top" xlink:title=" ">
<polygon fill="white" stroke="#666666" points="803.5,-178.5 681.5,-178.5 681.5,-148.5 803.5,-148.5 803.5,-178.5"/>
<text text-anchor="start" x="689.5" y="-166.5" font-family="Helvetica,sans-Serif" font-size="10.00">include/kokkos_buffer</text>
<text text-anchor="middle" x="742.5" y="-155.5" font-family="Helvetica,sans-Serif" font-size="10.00">_util.hpp</text>
</a>
</g>
</g>
<!-- Node30&#45;&gt;Node31 -->
<g id="edge44_Node000030_Node000031" class="edge">
<title>Node30&#45;&gt;Node31</title>
<g id="a_edge44_Node000030_Node000031"><a xlink:title=" ">
<path fill="none" stroke="#63b8ff" d="M887.59,-216.57C853.05,-204.17 811.51,-189.26 781.74,-178.58"/>
<polygon fill="#63b8ff" stroke="#63b8ff" points="886.54,-219.91 897.13,-219.99 888.9,-213.32 886.54,-219.91"/>
</a>
</g>
</g>
</g>
</svg>
