<?xml version="1.0" encoding="UTF-8" standalone="no"?>
<!DOCTYPE svg PUBLIC "-//W3C//DTD SVG 1.1//EN"
 "http://www.w3.org/Graphics/SVG/1.1/DTD/svg11.dtd">
<!-- Generated by graphviz version 2.43.0 (0)
 -->
<!-- Title: include/cppuddle/common/config.hpp Pages: 1 -->
<!--zoomable 574 -->
<svg id="main" version="1.1" xmlns="http://www.w3.org/2000/svg" xmlns:xlink="http://www.w3.org/1999/xlink" xml:space="preserve" onload="init(evt)">
<style type="text/css"><![CDATA[
.edge:hover path { stroke: red; }
.edge:hover polygon { stroke: red; fill: red; }
]]></style>
<script type="text/javascript"><![CDATA[
var edges = document.getElementsByTagName('g');
if (edges && edges.length) {
  for (var i=0;i<edges.length;i++) {
    if (edges[i].id.substr(0,4)=='edge') {
      edges[i].setAttribute('class','edge');
    }
  }
}
]]></script>
        <defs>
                <circle id="rim" cx="0" cy="0" r="7"/>
                <circle id="rim2" cx="0" cy="0" r="3.5"/>
                <g id="zoomPlus">
                        <use xlink:href="#rim" fill="#404040">
                                <set attributeName="fill" to="#808080" begin="zoomplus.mouseover" end="zoomplus.mouseout"/>
                        </use>
                        <path d="M-4,0h8M0,-4v8" fill="none" stroke="white" stroke-width="1.5" pointer-events="none"/>
                </g>
                <g id="zoomMin">
                        <use xlink:href="#rim" fill="#404040">
                                <set attributeName="fill" to="#808080" begin="zoomminus.mouseover" end="zoomminus.mouseout"/>
                        </use>
                        <path d="M-4,0h8" fill="none" stroke="white" stroke-width="1.5" pointer-events="none"/>
                </g>
                <g id="dirArrow">
                        <path fill="none" stroke="white" stroke-width="1.5" d="M0,-3.0v7 M-2.5,-0.5L0,-3.0L2.5,-0.5"/>
                </g>
               <g id="resetDef">
                       <use xlink:href="#rim2" fill="#404040">
                               <set attributeName="fill" to="#808080" begin="reset.mouseover" end="reset.mouseout"/>
                       </use>
               </g>
        </defs>

<script type="text/javascript">
var viewWidth = 2233;
var viewHeight = 574;
var sectionId = 'dynsection-1';
</script>
<script xlink:href="svgpan.js"/>
<svg id="graph" class="graph">
<g id="viewport">
<title>include/cppuddle/common/config.hpp</title>
<polygon fill="white" stroke="transparent" points="-4,4 -4,-570 2229,-570 2229,4 -4,4"/>
<!-- Node1 -->
<g id="node1" class="node">
<title>Node1</title>
<g id="a_node1"><a xlink:title=" ">
<polygon fill="#bfbfbf" stroke="black" points="1018.5,-535.5 1018.5,-565.5 1163.5,-565.5 1163.5,-535.5 1018.5,-535.5"/>
<text text-anchor="start" x="1026.5" y="-553.5" font-family="Helvetica,sans-Serif" font-size="10.00">include/cppuddle/common</text>
<text text-anchor="middle" x="1091" y="-542.5" font-family="Helvetica,sans-Serif" font-size="10.00">/config.hpp</text>
</a>
</g>
</g>
<!-- Node2 -->
<g id="node2" class="node">
<title>Node2</title>
<g id="a_node2"><a xlink:href="executor__pools__management_8hpp.html" target="_top" xlink:title=" ">
<polygon fill="white" stroke="black" points="321,-457.5 321,-498.5 465,-498.5 465,-457.5 321,-457.5"/>
<text text-anchor="start" x="329" y="-486.5" font-family="Helvetica,sans-Serif" font-size="10.00">include/cppuddle/executor</text>
<text text-anchor="start" x="329" y="-475.5" font-family="Helvetica,sans-Serif" font-size="10.00">_recycling/detail/executor</text>
<text text-anchor="middle" x="393" y="-464.5" font-family="Helvetica,sans-Serif" font-size="10.00">_pools_management.hpp</text>
</a>
</g>
</g>
<!-- Node1&#45;&gt;Node2 -->
<g id="edge1" class="edge">
<title>Node1&#45;&gt;Node2</title>
<path fill="none" stroke="midnightblue" d="M1008.18,-541.13C870.18,-527.2 595.51,-499.45 465.04,-486.28"/>
<polygon fill="midnightblue" stroke="midnightblue" points="1007.98,-544.63 1018.28,-542.15 1008.68,-537.67 1007.98,-544.63"/>
</g>
<!-- Node10 -->
<g id="node10" class="node">
<title>Node10</title>
<g id="a_node10"><a xlink:href="aggregation__executors__and__allocators_8hpp.html" target="_top" xlink:title=" ">
<polygon fill="white" stroke="black" points="464.5,-301.5 464.5,-342.5 637.5,-342.5 637.5,-301.5 464.5,-301.5"/>
<text text-anchor="start" x="472.5" y="-330.5" font-family="Helvetica,sans-Serif" font-size="10.00">include/cppuddle/kernel</text>
<text text-anchor="start" x="472.5" y="-319.5" font-family="Helvetica,sans-Serif" font-size="10.00">_aggregation/detail/aggregation</text>
<text text-anchor="middle" x="551" y="-308.5" font-family="Helvetica,sans-Serif" font-size="10.00">_executors_and_allocators.hpp</text>
</a>
</g>
</g>
<!-- Node1&#45;&gt;Node10 -->
<g id="edge20" class="edge">
<title>Node1&#45;&gt;Node10</title>
<path fill="none" stroke="midnightblue" d="M1047.73,-531.35C947.71,-489.4 701.18,-385.99 597.81,-342.63"/>
<polygon fill="midnightblue" stroke="midnightblue" points="1046.65,-534.69 1057.22,-535.33 1049.35,-528.24 1046.65,-534.69"/>
</g>
<!-- Node15 -->
<g id="node15" class="node">
<title>Node15</title>
<g id="a_node15"><a xlink:href="buffer__manager_8hpp.html" target="_top" xlink:title=" ">
<polygon fill="white" stroke="black" points="1739,-156.5 1739,-175.5 1891,-175.5 1891,-156.5 1739,-156.5"/>
<text text-anchor="middle" x="1815" y="-163.5" font-family="Helvetica,sans-Serif" font-size="10.00">include/buffer_manager.hpp</text>
</a>
</g>
</g>
<!-- Node1&#45;&gt;Node15 -->
<g id="edge18" class="edge">
<title>Node1&#45;&gt;Node15</title>
<path fill="none" stroke="midnightblue" d="M1173.75,-548.21C1351.74,-543.2 1755,-518.83 1755,-401 1755,-401 1755,-401 1755,-321 1755,-261.89 1793.85,-198.19 1809.03,-175.56"/>
<polygon fill="midnightblue" stroke="midnightblue" points="1173.54,-544.72 1163.64,-548.48 1173.73,-551.71 1173.54,-544.72"/>
</g>
<!-- Node17 -->
<g id="node17" class="node">
<title>Node17</title>
<g id="a_node17"><a xlink:href="buffer__management_8hpp.html" target="_top" xlink:title=" ">
<polygon fill="white" stroke="black" points="1290.5,-379.5 1290.5,-420.5 1433.5,-420.5 1433.5,-379.5 1290.5,-379.5"/>
<text text-anchor="start" x="1298.5" y="-408.5" font-family="Helvetica,sans-Serif" font-size="10.00">include/cppuddle/memory</text>
<text text-anchor="start" x="1298.5" y="-397.5" font-family="Helvetica,sans-Serif" font-size="10.00">_recycling/detail/buffer</text>
<text text-anchor="middle" x="1362" y="-386.5" font-family="Helvetica,sans-Serif" font-size="10.00">_management.hpp</text>
</a>
</g>
</g>
<!-- Node1&#45;&gt;Node17 -->
<g id="edge21" class="edge">
<title>Node1&#45;&gt;Node17</title>
<path fill="none" stroke="midnightblue" d="M1125.79,-530.43C1177.5,-502.1 1274.12,-449.16 1326.33,-420.55"/>
<polygon fill="midnightblue" stroke="midnightblue" points="1124.07,-527.39 1116.98,-535.26 1127.44,-533.53 1124.07,-527.39"/>
</g>
<!-- Node3 -->
<g id="node3" class="node">
<title>Node3</title>
<g id="a_node3"><a xlink:href="executor__pools__interface_8hpp.html" target="_top" xlink:title=" ">
<polygon fill="white" stroke="black" points="142,-379.5 142,-420.5 286,-420.5 286,-379.5 142,-379.5"/>
<text text-anchor="start" x="150" y="-408.5" font-family="Helvetica,sans-Serif" font-size="10.00">include/cppuddle/executor</text>
<text text-anchor="start" x="150" y="-397.5" font-family="Helvetica,sans-Serif" font-size="10.00">_recycling/executor_pools</text>
<text text-anchor="middle" x="214" y="-386.5" font-family="Helvetica,sans-Serif" font-size="10.00">_interface.hpp</text>
</a>
</g>
</g>
<!-- Node2&#45;&gt;Node3 -->
<g id="edge2" class="edge">
<title>Node2&#45;&gt;Node3</title>
<path fill="none" stroke="midnightblue" d="M337.58,-453.47C312.67,-442.89 283.62,-430.56 259.94,-420.51"/>
<polygon fill="midnightblue" stroke="midnightblue" points="336.33,-456.74 346.9,-457.43 339.07,-450.3 336.33,-456.74"/>
</g>
<!-- Node4 -->
<g id="node4" class="node">
<title>Node4</title>
<g id="a_node4"><a xlink:href="kernel__aggregation__interface_8hpp.html" target="_top" xlink:title=" ">
<polygon fill="white" stroke="black" points="152.5,-145.5 152.5,-186.5 329.5,-186.5 329.5,-145.5 152.5,-145.5"/>
<text text-anchor="start" x="160.5" y="-174.5" font-family="Helvetica,sans-Serif" font-size="10.00">include/cppuddle/kernel</text>
<text text-anchor="start" x="160.5" y="-163.5" font-family="Helvetica,sans-Serif" font-size="10.00">_aggregation/kernel_aggregation</text>
<text text-anchor="middle" x="241" y="-152.5" font-family="Helvetica,sans-Serif" font-size="10.00">_interface.hpp</text>
</a>
</g>
</g>
<!-- Node3&#45;&gt;Node4 -->
<g id="edge3" class="edge">
<title>Node3&#45;&gt;Node4</title>
<path fill="none" stroke="midnightblue" d="M271.51,-374.13C283.7,-366.04 294.99,-355.77 302,-343 331.18,-289.85 284.89,-220.14 258.03,-186.64"/>
<polygon fill="midnightblue" stroke="midnightblue" points="269.65,-371.16 262.96,-379.38 273.31,-377.12 269.65,-371.16"/>
</g>
<!-- Node6 -->
<g id="node6" class="node">
<title>Node6</title>
<g id="a_node6"><a xlink:href="kokkos__aggregation__util_8hpp.html" target="_top" xlink:title=" ">
<polygon fill="white" stroke="black" points="0,-0.5 0,-41.5 136,-41.5 136,-0.5 0,-0.5"/>
<text text-anchor="start" x="8" y="-29.5" font-family="Helvetica,sans-Serif" font-size="10.00">include/cppuddle/kernel</text>
<text text-anchor="start" x="8" y="-18.5" font-family="Helvetica,sans-Serif" font-size="10.00">_aggregation/util/kokkos</text>
<text text-anchor="middle" x="68" y="-7.5" font-family="Helvetica,sans-Serif" font-size="10.00">_aggregation_util.hpp</text>
</a>
</g>
</g>
<!-- Node3&#45;&gt;Node6 -->
<g id="edge9" class="edge">
<title>Node3&#45;&gt;Node6</title>
<path fill="none" stroke="midnightblue" d="M132.17,-380.76C108.9,-372.37 85.01,-360.29 67,-343 32.81,-310.18 25,-292.39 25,-245 25,-245 25,-245 25,-165 25,-119.37 45.32,-68.89 58.03,-41.8"/>
<polygon fill="midnightblue" stroke="midnightblue" points="131.15,-384.11 141.74,-384.02 133.41,-377.48 131.15,-384.11"/>
</g>
<!-- Node9 -->
<g id="node9" class="node">
<title>Node9</title>
<g id="a_node9"><a xlink:href="work__aggregation__test_8cpp.html" target="_top" xlink:title=" ">
<polygon fill="white" stroke="black" points="184.5,-78.5 184.5,-108.5 315.5,-108.5 315.5,-78.5 184.5,-78.5"/>
<text text-anchor="start" x="192.5" y="-96.5" font-family="Helvetica,sans-Serif" font-size="10.00">tests/work_aggregation</text>
<text text-anchor="middle" x="250" y="-85.5" font-family="Helvetica,sans-Serif" font-size="10.00">_test.cpp</text>
</a>
</g>
</g>
<!-- Node3&#45;&gt;Node9 -->
<g id="edge17" class="edge">
<title>Node3&#45;&gt;Node9</title>
<path fill="none" stroke="midnightblue" d="M132.5,-376.75C116.85,-368.68 102.43,-357.76 93,-343 45.61,-268.85 41.17,-216.12 93,-145 104.26,-129.55 146.47,-116.49 184.29,-107.51"/>
<polygon fill="midnightblue" stroke="midnightblue" points="131.28,-380.05 141.82,-381.18 134.29,-373.73 131.28,-380.05"/>
</g>
<!-- Node3&#45;&gt;Node10 -->
<g id="edge10" class="edge">
<title>Node3&#45;&gt;Node10</title>
<path fill="none" stroke="midnightblue" d="M296.29,-380.44C347.3,-368.94 412.72,-354.18 464.49,-342.51"/>
<polygon fill="midnightblue" stroke="midnightblue" points="295.28,-377.08 286.29,-382.7 296.82,-383.91 295.28,-377.08"/>
</g>
<!-- Node12 -->
<g id="node12" class="node">
<title>Node12</title>
<g id="a_node12"><a xlink:href="stream__manager_8hpp.html" target="_top" xlink:title=" ">
<polygon fill="white" stroke="black" points="135,-312.5 135,-331.5 293,-331.5 293,-312.5 135,-312.5"/>
<text text-anchor="middle" x="214" y="-319.5" font-family="Helvetica,sans-Serif" font-size="10.00">include/stream_manager.hpp</text>
</a>
</g>
</g>
<!-- Node3&#45;&gt;Node12 -->
<g id="edge14" class="edge">
<title>Node3&#45;&gt;Node12</title>
<path fill="none" stroke="midnightblue" d="M214,-369.05C214,-355.56 214,-340.65 214,-331.55"/>
<polygon fill="midnightblue" stroke="midnightblue" points="210.5,-369.43 214,-379.43 217.5,-369.43 210.5,-369.43"/>
</g>
<!-- Node13 -->
<g id="node13" class="node">
<title>Node13</title>
<g id="a_node13"><a xlink:href="stream__test_8hpp.html" target="_top" xlink:title=" ">
<polygon fill="white" stroke="black" points="333.5,-84 333.5,-103 456.5,-103 456.5,-84 333.5,-84"/>
<text text-anchor="middle" x="395" y="-91" font-family="Helvetica,sans-Serif" font-size="10.00">tests/stream_test.hpp</text>
</a>
</g>
</g>
<!-- Node3&#45;&gt;Node13 -->
<g id="edge15" class="edge">
<title>Node3&#45;&gt;Node13</title>
<path fill="none" stroke="midnightblue" d="M156.49,-374.13C144.3,-366.04 133.01,-355.77 126,-343 101.18,-297.78 74.95,-219.31 143,-145 198.4,-84.51 243.6,-125.21 324,-109 333.5,-107.09 343.7,-105.01 353.33,-103.05"/>
<polygon fill="midnightblue" stroke="midnightblue" points="154.69,-377.12 165.04,-379.38 158.35,-371.16 154.69,-377.12"/>
</g>
<!-- Node5 -->
<g id="node5" class="node">
<title>Node5</title>
<g id="a_node5"><a xlink:href="aggregation__manager_8hpp.html" target="_top" xlink:title=" ">
<polygon fill="white" stroke="black" points="53.5,-78.5 53.5,-108.5 166.5,-108.5 166.5,-78.5 53.5,-78.5"/>
<text text-anchor="start" x="61.5" y="-96.5" font-family="Helvetica,sans-Serif" font-size="10.00">include/aggregation</text>
<text text-anchor="middle" x="110" y="-85.5" font-family="Helvetica,sans-Serif" font-size="10.00">_manager.hpp</text>
</a>
</g>
</g>
<!-- Node4&#45;&gt;Node5 -->
<g id="edge4" class="edge">
<title>Node4&#45;&gt;Node5</title>
<path fill="none" stroke="midnightblue" d="M195.63,-140.58C175.83,-129.93 153.31,-117.81 136.33,-108.67"/>
<polygon fill="midnightblue" stroke="midnightblue" points="194.04,-143.7 204.51,-145.36 197.36,-137.54 194.04,-143.7"/>
</g>
<!-- Node7 -->
<g id="node7" class="node">
<title>Node7</title>
<g id="a_node7"><a xlink:href="work__aggregation__cpu__triad_8cpp.html" target="_top" xlink:title=" ">
<polygon fill="white" stroke="black" points="623.5,-78.5 623.5,-108.5 754.5,-108.5 754.5,-78.5 623.5,-78.5"/>
<text text-anchor="start" x="631.5" y="-96.5" font-family="Helvetica,sans-Serif" font-size="10.00">tests/work_aggregation</text>
<text text-anchor="middle" x="689" y="-85.5" font-family="Helvetica,sans-Serif" font-size="10.00">_cpu_triad.cpp</text>
</a>
</g>
</g>
<!-- Node4&#45;&gt;Node7 -->
<g id="edge6" class="edge">
<title>Node4&#45;&gt;Node7</title>
<path fill="none" stroke="midnightblue" d="M339.67,-151.34C414.97,-140.63 521.2,-124.93 614,-109 617.01,-108.48 620.08,-107.94 623.18,-107.39"/>
<polygon fill="midnightblue" stroke="midnightblue" points="339.13,-147.88 329.72,-152.75 340.11,-154.81 339.13,-147.88"/>
</g>
<!-- Node8 -->
<g id="node8" class="node">
<title>Node8</title>
<g id="a_node8"><a xlink:href="work__aggregation__cuda__triad_8cpp.html" target="_top" xlink:title=" ">
<polygon fill="white" stroke="black" points="474.5,-78.5 474.5,-108.5 605.5,-108.5 605.5,-78.5 474.5,-78.5"/>
<text text-anchor="start" x="482.5" y="-96.5" font-family="Helvetica,sans-Serif" font-size="10.00">tests/work_aggregation</text>
<text text-anchor="middle" x="540" y="-85.5" font-family="Helvetica,sans-Serif" font-size="10.00">_cuda_triad.cpp</text>
</a>
</g>
</g>
<!-- Node4&#45;&gt;Node8 -->
<g id="edge7" class="edge">
<title>Node4&#45;&gt;Node8</title>
<path fill="none" stroke="midnightblue" d="M333.63,-143.16C381.4,-131.9 438.28,-118.48 480.21,-108.6"/>
<polygon fill="midnightblue" stroke="midnightblue" points="332.82,-139.75 323.89,-145.46 334.43,-146.57 332.82,-139.75"/>
</g>
<!-- Node4&#45;&gt;Node9 -->
<g id="edge8" class="edge">
<title>Node4&#45;&gt;Node9</title>
<path fill="none" stroke="midnightblue" d="M244.78,-135.38C245.95,-126.21 247.19,-116.53 248.16,-108.89"/>
<polygon fill="midnightblue" stroke="midnightblue" points="241.3,-135 243.51,-145.36 248.25,-135.89 241.3,-135"/>
</g>
<!-- Node5&#45;&gt;Node6 -->
<g id="edge5" class="edge">
<title>Node5&#45;&gt;Node6</title>
<path fill="none" stroke="midnightblue" d="M96.25,-69.41C90.89,-60.42 84.81,-50.22 79.67,-41.59"/>
<polygon fill="midnightblue" stroke="midnightblue" points="93.38,-71.43 101.5,-78.23 99.39,-67.85 93.38,-71.43"/>
</g>
<!-- Node10&#45;&gt;Node4 -->
<g id="edge13" class="edge">
<title>Node10&#45;&gt;Node4</title>
<path fill="none" stroke="midnightblue" d="M553.08,-291.4C552.91,-269.53 548.83,-240.62 531,-223 470.48,-163.21 426.52,-203.18 343,-187 338.66,-186.16 334.22,-185.3 329.73,-184.42"/>
<polygon fill="midnightblue" stroke="midnightblue" points="549.58,-291.43 552.89,-301.49 556.58,-291.56 549.58,-291.43"/>
</g>
<!-- Node11 -->
<g id="node11" class="node">
<title>Node11</title>
<g id="a_node11"><a xlink:href="aggregation__executor__pools_8hpp.html" target="_top" xlink:title=" ">
<polygon fill="white" stroke="black" points="349.5,-223.5 349.5,-264.5 522.5,-264.5 522.5,-223.5 349.5,-223.5"/>
<text text-anchor="start" x="357.5" y="-252.5" font-family="Helvetica,sans-Serif" font-size="10.00">include/cppuddle/kernel</text>
<text text-anchor="start" x="357.5" y="-241.5" font-family="Helvetica,sans-Serif" font-size="10.00">_aggregation/detail/aggregation</text>
<text text-anchor="middle" x="436" y="-230.5" font-family="Helvetica,sans-Serif" font-size="10.00">_executor_pools.hpp</text>
</a>
</g>
</g>
<!-- Node10&#45;&gt;Node11 -->
<g id="edge11" class="edge">
<title>Node10&#45;&gt;Node11</title>
<path fill="none" stroke="midnightblue" d="M512.62,-295.64C497.26,-285.49 479.85,-273.98 465.51,-264.51"/>
<polygon fill="midnightblue" stroke="midnightblue" points="511.11,-298.83 521.38,-301.43 514.97,-292.99 511.11,-298.83"/>
</g>
<!-- Node11&#45;&gt;Node4 -->
<g id="edge12" class="edge">
<title>Node11&#45;&gt;Node4</title>
<path fill="none" stroke="midnightblue" d="M376.34,-219.75C349.04,-209.11 317.06,-196.65 291.05,-186.51"/>
<polygon fill="midnightblue" stroke="midnightblue" points="375.19,-223.06 385.78,-223.43 377.74,-216.54 375.19,-223.06"/>
</g>
<!-- Node14 -->
<g id="node14" class="node">
<title>Node14</title>
<g id="a_node14"><a xlink:href="stream__test_8cpp.html" target="_top" xlink:title=" ">
<polygon fill="white" stroke="black" points="334,-11.5 334,-30.5 456,-30.5 456,-11.5 334,-11.5"/>
<text text-anchor="middle" x="395" y="-18.5" font-family="Helvetica,sans-Serif" font-size="10.00">tests/stream_test.cpp</text>
</a>
</g>
</g>
<!-- Node13&#45;&gt;Node14 -->
<g id="edge16" class="edge">
<title>Node13&#45;&gt;Node14</title>
<path fill="none" stroke="midnightblue" d="M395,-73.44C395,-59.53 395,-41.32 395,-30.72"/>
<polygon fill="midnightblue" stroke="midnightblue" points="391.5,-73.86 395,-83.86 398.5,-73.86 391.5,-73.86"/>
</g>
<!-- Node16 -->
<g id="node16" class="node">
<title>Node16</title>
<g id="a_node16"><a xlink:href="cuda__buffer__util_8hpp.html" target="_top" xlink:title=" ">
<polygon fill="white" stroke="black" points="773,-78.5 773,-108.5 885,-108.5 885,-78.5 773,-78.5"/>
<text text-anchor="start" x="781" y="-96.5" font-family="Helvetica,sans-Serif" font-size="10.00">include/cuda_buffer</text>
<text text-anchor="middle" x="829" y="-85.5" font-family="Helvetica,sans-Serif" font-size="10.00">_util.hpp</text>
</a>
</g>
</g>
<!-- Node15&#45;&gt;Node16 -->
<g id="edge19" class="edge">
<title>Node15&#45;&gt;Node16</title>
<path fill="none" stroke="midnightblue" d="M1774.71,-154C1760.66,-150.57 1744.73,-147.13 1730,-145 1412.91,-99.17 1027.47,-94.33 885.22,-94.24"/>
<polygon fill="midnightblue" stroke="midnightblue" points="1774.01,-157.43 1784.56,-156.47 1775.72,-150.64 1774.01,-157.43"/>
</g>
<!-- Node17&#45;&gt;Node10 -->
<g id="edge57" class="edge">
<title>Node17&#45;&gt;Node10</title>
<path fill="none" stroke="midnightblue" d="M1280.06,-391.32C1126.15,-376.9 795.21,-345.88 637.71,-331.13"/>
<polygon fill="midnightblue" stroke="midnightblue" points="1280.1,-394.84 1290.38,-392.29 1280.76,-387.87 1280.1,-394.84"/>
</g>
<!-- Node17&#45;&gt;Node15 -->
<g id="edge22" class="edge">
<title>Node17&#45;&gt;Node15</title>
<path fill="none" stroke="midnightblue" d="M1443.78,-385.02C1484.49,-376.2 1533.71,-362.69 1575,-343 1587.88,-336.86 1757.38,-210.16 1803.49,-175.63"/>
<polygon fill="midnightblue" stroke="midnightblue" points="1442.95,-381.61 1433.89,-387.1 1444.39,-388.46 1442.95,-381.61"/>
</g>
<!-- Node18 -->
<g id="node18" class="node">
<title>Node18</title>
<g id="a_node18"><a xlink:href="buffer__management__interface_8hpp.html" target="_top" xlink:title=" ">
<polygon fill="white" stroke="black" points="1398,-301.5 1398,-342.5 1566,-342.5 1566,-301.5 1398,-301.5"/>
<text text-anchor="start" x="1406" y="-330.5" font-family="Helvetica,sans-Serif" font-size="10.00">include/cppuddle/memory</text>
<text text-anchor="start" x="1406" y="-319.5" font-family="Helvetica,sans-Serif" font-size="10.00">_recycling/buffer_management</text>
<text text-anchor="middle" x="1482" y="-308.5" font-family="Helvetica,sans-Serif" font-size="10.00">_interface.hpp</text>
</a>
</g>
</g>
<!-- Node17&#45;&gt;Node18 -->
<g id="edge23" class="edge">
<title>Node17&#45;&gt;Node18</title>
<path fill="none" stroke="midnightblue" d="M1401.6,-373.92C1417.73,-363.7 1436.1,-352.07 1451.2,-342.51"/>
<polygon fill="midnightblue" stroke="midnightblue" points="1399.48,-371.12 1392.9,-379.43 1403.22,-377.03 1399.48,-371.12"/>
</g>
<!-- Node18&#45;&gt;Node15 -->
<g id="edge24" class="edge">
<title>Node18&#45;&gt;Node15</title>
<path fill="none" stroke="midnightblue" d="M1531.58,-296.92C1573.19,-276.83 1634.28,-247.62 1688,-223 1725.68,-205.73 1770.06,-186.39 1795.12,-175.55"/>
<polygon fill="midnightblue" stroke="midnightblue" points="1529.97,-293.81 1522.49,-301.32 1533.02,-300.12 1529.97,-293.81"/>
</g>
<!-- Node19 -->
<g id="node19" class="node">
<title>Node19</title>
<g id="a_node19"><a xlink:href="aligned__recycling__allocators_8hpp.html" target="_top" xlink:title=" ">
<polygon fill="white" stroke="black" points="1434.5,-223.5 1434.5,-264.5 1589.5,-264.5 1589.5,-223.5 1434.5,-223.5"/>
<text text-anchor="start" x="1442.5" y="-252.5" font-family="Helvetica,sans-Serif" font-size="10.00">include/cppuddle/memory</text>
<text text-anchor="start" x="1442.5" y="-241.5" font-family="Helvetica,sans-Serif" font-size="10.00">_recycling/aligned_recycling</text>
<text text-anchor="middle" x="1512" y="-230.5" font-family="Helvetica,sans-Serif" font-size="10.00">_allocators.hpp</text>
</a>
</g>
</g>
<!-- Node18&#45;&gt;Node19 -->
<g id="edge25" class="edge">
<title>Node18&#45;&gt;Node19</title>
<path fill="none" stroke="midnightblue" d="M1493.49,-291.88C1497.11,-282.72 1501.01,-272.83 1504.3,-264.51"/>
<polygon fill="midnightblue" stroke="midnightblue" points="1490.14,-290.84 1489.73,-301.43 1496.65,-293.41 1490.14,-290.84"/>
</g>
<!-- Node22 -->
<g id="node22" class="node">
<title>Node22</title>
<g id="a_node22"><a xlink:href="cuda__recycling__allocators_8hpp.html" target="_top" xlink:title=" ">
<polygon fill="white" stroke="black" points="579.5,-223.5 579.5,-264.5 722.5,-264.5 722.5,-223.5 579.5,-223.5"/>
<text text-anchor="start" x="587.5" y="-252.5" font-family="Helvetica,sans-Serif" font-size="10.00">include/cppuddle/memory</text>
<text text-anchor="start" x="587.5" y="-241.5" font-family="Helvetica,sans-Serif" font-size="10.00">_recycling/cuda_recycling</text>
<text text-anchor="middle" x="651" y="-230.5" font-family="Helvetica,sans-Serif" font-size="10.00">_allocators.hpp</text>
</a>
</g>
</g>
<!-- Node18&#45;&gt;Node22 -->
<g id="edge28" class="edge">
<title>Node18&#45;&gt;Node22</title>
<path fill="none" stroke="midnightblue" d="M1387.68,-312.37C1219.77,-297.02 872.58,-265.26 722.59,-251.55"/>
<polygon fill="midnightblue" stroke="midnightblue" points="1387.47,-315.87 1397.75,-313.29 1388.11,-308.9 1387.47,-315.87"/>
</g>
<!-- Node26 -->
<g id="node26" class="node">
<title>Node26</title>
<g id="a_node26"><a xlink:href="hip__recycling__allocators_8hpp.html" target="_top" xlink:title=" ">
<polygon fill="white" stroke="black" points="1847.5,-223.5 1847.5,-264.5 1990.5,-264.5 1990.5,-223.5 1847.5,-223.5"/>
<text text-anchor="start" x="1855.5" y="-252.5" font-family="Helvetica,sans-Serif" font-size="10.00">include/cppuddle/memory</text>
<text text-anchor="start" x="1855.5" y="-241.5" font-family="Helvetica,sans-Serif" font-size="10.00">_recycling/hip_recycling</text>
<text text-anchor="middle" x="1919" y="-230.5" font-family="Helvetica,sans-Serif" font-size="10.00">_allocators.hpp</text>
</a>
</g>
</g>
<!-- Node18&#45;&gt;Node26 -->
<g id="edge40" class="edge">
<title>Node18&#45;&gt;Node26</title>
<path fill="none" stroke="midnightblue" d="M1576.5,-304.57C1657.82,-290.42 1773.4,-270.32 1847.3,-257.47"/>
<polygon fill="midnightblue" stroke="midnightblue" points="1575.51,-301.18 1566.26,-306.35 1576.71,-308.08 1575.51,-301.18"/>
</g>
<!-- Node29 -->
<g id="node29" class="node">
<title>Node29</title>
<g id="a_node29"><a xlink:href="std__recycling__allocators_8hpp.html" target="_top" xlink:title=" ">
<polygon fill="white" stroke="black" points="1155.5,-223.5 1155.5,-264.5 1298.5,-264.5 1298.5,-223.5 1155.5,-223.5"/>
<text text-anchor="start" x="1163.5" y="-252.5" font-family="Helvetica,sans-Serif" font-size="10.00">include/cppuddle/memory</text>
<text text-anchor="start" x="1163.5" y="-241.5" font-family="Helvetica,sans-Serif" font-size="10.00">_recycling/std_recycling</text>
<text text-anchor="middle" x="1227" y="-230.5" font-family="Helvetica,sans-Serif" font-size="10.00">_allocators.hpp</text>
</a>
</g>
</g>
<!-- Node18&#45;&gt;Node29 -->
<g id="edge44" class="edge">
<title>Node18&#45;&gt;Node29</title>
<path fill="none" stroke="midnightblue" d="M1406.31,-298.44C1370.12,-287.66 1327.21,-274.87 1292.45,-264.51"/>
<polygon fill="midnightblue" stroke="midnightblue" points="1405.75,-301.93 1416.33,-301.43 1407.75,-295.22 1405.75,-301.93"/>
</g>
<!-- Node32 -->
<g id="node32" class="node">
<title>Node32</title>
<g id="a_node32"><a xlink:href="sycl__recycling__allocators_8hpp.html" target="_top" xlink:title=" ">
<polygon fill="white" stroke="black" points="2053.5,-223.5 2053.5,-264.5 2196.5,-264.5 2196.5,-223.5 2053.5,-223.5"/>
<text text-anchor="start" x="2061.5" y="-252.5" font-family="Helvetica,sans-Serif" font-size="10.00">include/cppuddle/memory</text>
<text text-anchor="start" x="2061.5" y="-241.5" font-family="Helvetica,sans-Serif" font-size="10.00">_recycling/sycl_recycling</text>
<text text-anchor="middle" x="2125" y="-230.5" font-family="Helvetica,sans-Serif" font-size="10.00">_allocators.hpp</text>
</a>
</g>
</g>
<!-- Node18&#45;&gt;Node32 -->
<g id="edge51" class="edge">
<title>Node18&#45;&gt;Node32</title>
<path fill="none" stroke="midnightblue" d="M1576.2,-312.27C1680.14,-302.3 1852.28,-284.79 2000,-265 2017.32,-262.68 2035.93,-259.87 2053.37,-257.1"/>
<polygon fill="midnightblue" stroke="midnightblue" points="1575.67,-308.81 1566.05,-313.24 1576.33,-315.77 1575.67,-308.81"/>
</g>
<!-- Node34 -->
<g id="node34" class="node">
<title>Node34</title>
<g id="a_node34"><a xlink:href="recycling__kokkos__view_8hpp.html" target="_top" xlink:title=" ">
<polygon fill="white" stroke="black" points="912.5,-223.5 912.5,-264.5 1055.5,-264.5 1055.5,-223.5 912.5,-223.5"/>
<text text-anchor="start" x="920.5" y="-252.5" font-family="Helvetica,sans-Serif" font-size="10.00">include/cppuddle/memory</text>
<text text-anchor="start" x="920.5" y="-241.5" font-family="Helvetica,sans-Serif" font-size="10.00">_recycling/util/recycling</text>
<text text-anchor="middle" x="984" y="-230.5" font-family="Helvetica,sans-Serif" font-size="10.00">_kokkos_view.hpp</text>
</a>
</g>
</g>
<!-- Node18&#45;&gt;Node34 -->
<g id="edge53" class="edge">
<title>Node18&#45;&gt;Node34</title>
<path fill="none" stroke="midnightblue" d="M1387.75,-306.62C1291.14,-291.87 1143.06,-269.27 1055.63,-255.93"/>
<polygon fill="midnightblue" stroke="midnightblue" points="1387.39,-310.1 1397.8,-308.15 1388.45,-303.18 1387.39,-310.1"/>
</g>
<!-- Node20 -->
<g id="node20" class="node">
<title>Node20</title>
<g id="a_node20"><a xlink:href="aligned__buffer__util_8hpp.html" target="_top" xlink:title=" ">
<polygon fill="white" stroke="black" points="1449.5,-151 1449.5,-181 1574.5,-181 1574.5,-151 1449.5,-151"/>
<text text-anchor="start" x="1457.5" y="-169" font-family="Helvetica,sans-Serif" font-size="10.00">include/aligned_buffer</text>
<text text-anchor="middle" x="1512" y="-158" font-family="Helvetica,sans-Serif" font-size="10.00">_util.hpp</text>
</a>
</g>
</g>
<!-- Node19&#45;&gt;Node20 -->
<g id="edge26" class="edge">
<title>Node19&#45;&gt;Node20</title>
<path fill="none" stroke="midnightblue" d="M1512,-213.28C1512,-202.25 1512,-190.25 1512,-181.23"/>
<polygon fill="midnightblue" stroke="midnightblue" points="1508.5,-213.43 1512,-223.43 1515.5,-213.43 1508.5,-213.43"/>
</g>
<!-- Node21 -->
<g id="node21" class="node">
<title>Node21</title>
<g id="a_node21"><a xlink:href="allocator__aligned__test_8cpp.html" target="_top" xlink:title=" ">
<polygon fill="white" stroke="black" points="1593,-151 1593,-181 1721,-181 1721,-151 1593,-151"/>
<text text-anchor="start" x="1601" y="-169" font-family="Helvetica,sans-Serif" font-size="10.00">tests/allocator_aligned</text>
<text text-anchor="middle" x="1657" y="-158" font-family="Helvetica,sans-Serif" font-size="10.00">_test.cpp</text>
</a>
</g>
</g>
<!-- Node19&#45;&gt;Node21 -->
<g id="edge27" class="edge">
<title>Node19&#45;&gt;Node21</title>
<path fill="none" stroke="midnightblue" d="M1558.47,-218.64C1582.03,-206.3 1609.81,-191.73 1629.86,-181.23"/>
<polygon fill="midnightblue" stroke="midnightblue" points="1556.57,-215.69 1549.34,-223.43 1559.82,-221.89 1556.57,-215.69"/>
</g>
<!-- Node22&#45;&gt;Node8 -->
<g id="edge38" class="edge">
<title>Node22&#45;&gt;Node8</title>
<path fill="none" stroke="midnightblue" d="M636.65,-214.15C625.93,-193.88 610.21,-166.64 593,-145 582.4,-131.67 568.37,-118.46 557.41,-108.89"/>
<polygon fill="midnightblue" stroke="midnightblue" points="633.63,-215.94 641.35,-223.2 639.84,-212.71 633.63,-215.94"/>
</g>
<!-- Node22&#45;&gt;Node9 -->
<g id="edge39" class="edge">
<title>Node22&#45;&gt;Node9</title>
<path fill="none" stroke="midnightblue" d="M569.56,-225.84C495.18,-210.1 396.14,-188.94 392,-187 364.45,-174.13 363.25,-161.94 338,-145 318.11,-131.65 294.51,-118.23 276.77,-108.59"/>
<polygon fill="midnightblue" stroke="midnightblue" points="568.91,-229.28 579.42,-227.92 570.36,-222.43 568.91,-229.28"/>
</g>
<!-- Node22&#45;&gt;Node13 -->
<g id="edge37" class="edge">
<title>Node22&#45;&gt;Node13</title>
<path fill="none" stroke="midnightblue" d="M569.3,-223.96C501.05,-208.02 414.71,-187.73 414,-187 391.39,-163.71 392.39,-121.11 394,-103.01"/>
<polygon fill="midnightblue" stroke="midnightblue" points="568.69,-227.41 579.23,-226.28 570.29,-220.6 568.69,-227.41"/>
</g>
<!-- Node22&#45;&gt;Node16 -->
<g id="edge34" class="edge">
<title>Node22&#45;&gt;Node16</title>
<path fill="none" stroke="midnightblue" d="M649.21,-212.95C649.58,-191.53 653.64,-163.38 670,-145 677.34,-136.75 732.36,-120.41 775.65,-108.54"/>
<polygon fill="midnightblue" stroke="midnightblue" points="645.71,-213.18 649.3,-223.15 652.71,-213.12 645.71,-213.18"/>
</g>
<!-- Node23 -->
<g id="node23" class="node">
<title>Node23</title>
<g id="a_node23"><a xlink:href="cuda__recycling__device__buffer_8hpp.html" target="_top" xlink:title="Contains a RAII wrappers for CUDA device buffers. Intended to be used with the recycling allocators b...">
<polygon fill="white" stroke="black" points="423.5,-145.5 423.5,-186.5 584.5,-186.5 584.5,-145.5 423.5,-145.5"/>
<text text-anchor="start" x="431.5" y="-174.5" font-family="Helvetica,sans-Serif" font-size="10.00">include/cppuddle/memory</text>
<text text-anchor="start" x="431.5" y="-163.5" font-family="Helvetica,sans-Serif" font-size="10.00">_recycling/util/cuda_recycling</text>
<text text-anchor="middle" x="504" y="-152.5" font-family="Helvetica,sans-Serif" font-size="10.00">_device_buffer.hpp</text>
</a>
</g>
</g>
<!-- Node22&#45;&gt;Node23 -->
<g id="edge29" class="edge">
<title>Node22&#45;&gt;Node23</title>
<path fill="none" stroke="midnightblue" d="M604.13,-218.77C583.98,-208.35 560.74,-196.34 541.73,-186.51"/>
<polygon fill="midnightblue" stroke="midnightblue" points="602.65,-221.94 613.14,-223.43 605.87,-215.73 602.65,-221.94"/>
</g>
<!-- Node24 -->
<g id="node24" class="node">
<title>Node24</title>
<g id="a_node24"><a xlink:href="allocator__kokkos__executor__for__loop__test_8cpp.html" target="_top" xlink:title=" ">
<polygon fill="white" stroke="black" points="679.5,-151 679.5,-181 832.5,-181 832.5,-151 679.5,-151"/>
<text text-anchor="start" x="687.5" y="-169" font-family="Helvetica,sans-Serif" font-size="10.00">tests/allocator_kokkos</text>
<text text-anchor="middle" x="756" y="-158" font-family="Helvetica,sans-Serif" font-size="10.00">_executor_for_loop_test.cpp</text>
</a>
</g>
</g>
<!-- Node22&#45;&gt;Node24 -->
<g id="edge35" class="edge">
<title>Node22&#45;&gt;Node24</title>
<path fill="none" stroke="midnightblue" d="M686.47,-217.32C703.13,-205.27 722.34,-191.36 736.35,-181.23"/>
<polygon fill="midnightblue" stroke="midnightblue" points="684.09,-214.73 678.04,-223.43 688.19,-220.4 684.09,-214.73"/>
</g>
<!-- Node25 -->
<g id="node25" class="node">
<title>Node25</title>
<g id="a_node25"><a xlink:href="allocator__kokkos__test_8cpp.html" target="_top" xlink:title=" ">
<polygon fill="white" stroke="black" points="850.5,-151 850.5,-181 975.5,-181 975.5,-151 850.5,-151"/>
<text text-anchor="start" x="858.5" y="-169" font-family="Helvetica,sans-Serif" font-size="10.00">tests/allocator_kokkos</text>
<text text-anchor="middle" x="913" y="-158" font-family="Helvetica,sans-Serif" font-size="10.00">_test.cpp</text>
</a>
</g>
</g>
<!-- Node22&#45;&gt;Node25 -->
<g id="edge36" class="edge">
<title>Node22&#45;&gt;Node25</title>
<path fill="none" stroke="midnightblue" d="M728.29,-220.58C772.35,-207.8 826.21,-192.18 864.37,-181.11"/>
<polygon fill="midnightblue" stroke="midnightblue" points="727.1,-217.28 718.47,-223.43 729.05,-224 727.1,-217.28"/>
</g>
<!-- Node23&#45;&gt;Node8 -->
<g id="edge32" class="edge">
<title>Node23&#45;&gt;Node8</title>
<path fill="none" stroke="midnightblue" d="M518.68,-136.26C523.49,-126.84 528.62,-116.78 532.65,-108.89"/>
<polygon fill="midnightblue" stroke="midnightblue" points="515.46,-134.86 514.03,-145.36 521.69,-138.05 515.46,-134.86"/>
</g>
<!-- Node23&#45;&gt;Node9 -->
<g id="edge33" class="edge">
<title>Node23&#45;&gt;Node9</title>
<path fill="none" stroke="midnightblue" d="M423.78,-142.74C383.52,-131.56 335.97,-118.36 300.79,-108.6"/>
<polygon fill="midnightblue" stroke="midnightblue" points="423.01,-146.15 433.58,-145.46 424.88,-139.41 423.01,-146.15"/>
</g>
<!-- Node23&#45;&gt;Node13 -->
<g id="edge31" class="edge">
<title>Node23&#45;&gt;Node13</title>
<path fill="none" stroke="midnightblue" d="M465.08,-139.83C445.28,-127.02 422.49,-112.28 408.41,-103.17"/>
<polygon fill="midnightblue" stroke="midnightblue" points="463.34,-142.87 473.64,-145.36 467.14,-136.99 463.34,-142.87"/>
</g>
<!-- Node23&#45;&gt;Node16 -->
<g id="edge30" class="edge">
<title>Node23&#45;&gt;Node16</title>
<path fill="none" stroke="midnightblue" d="M594.6,-145.49C644.32,-134.76 707.07,-121.19 763,-109 766.21,-108.3 769.51,-107.58 772.83,-106.85"/>
<polygon fill="midnightblue" stroke="midnightblue" points="593.55,-142.13 584.51,-147.66 595.03,-148.98 593.55,-142.13"/>
</g>
<!-- Node27 -->
<g id="node27" class="node">
<title>Node27</title>
<g id="a_node27"><a xlink:href="hip__recycling__device__buffer_8hpp.html" target="_top" xlink:title=" ">
<polygon fill="white" stroke="black" points="1947,-145.5 1947,-186.5 2099,-186.5 2099,-145.5 1947,-145.5"/>
<text text-anchor="start" x="1955" y="-174.5" font-family="Helvetica,sans-Serif" font-size="10.00">include/cppuddle/memory</text>
<text text-anchor="start" x="1955" y="-163.5" font-family="Helvetica,sans-Serif" font-size="10.00">_recycling/util/hip_recycling</text>
<text text-anchor="middle" x="2023" y="-152.5" font-family="Helvetica,sans-Serif" font-size="10.00">_device_buffer.hpp</text>
</a>
</g>
</g>
<!-- Node26&#45;&gt;Node27 -->
<g id="edge41" class="edge">
<title>Node26&#45;&gt;Node27</title>
<path fill="none" stroke="midnightblue" d="M1954.1,-217.35C1967.89,-207.27 1983.46,-195.89 1996.31,-186.51"/>
<polygon fill="midnightblue" stroke="midnightblue" points="1951.79,-214.7 1945.78,-223.43 1955.92,-220.35 1951.79,-214.7"/>
</g>
<!-- Node28 -->
<g id="node28" class="node">
<title>Node28</title>
<g id="a_node28"><a xlink:href="hip__buffer__util_8hpp.html" target="_top" xlink:title=" ">
<polygon fill="white" stroke="black" points="1919,-78.5 1919,-108.5 2023,-108.5 2023,-78.5 1919,-78.5"/>
<text text-anchor="start" x="1927" y="-96.5" font-family="Helvetica,sans-Serif" font-size="10.00">include/hip_buffer</text>
<text text-anchor="middle" x="1971" y="-85.5" font-family="Helvetica,sans-Serif" font-size="10.00">_util.hpp</text>
</a>
</g>
</g>
<!-- Node26&#45;&gt;Node28 -->
<g id="edge43" class="edge">
<title>Node26&#45;&gt;Node28</title>
<path fill="none" stroke="midnightblue" d="M1921.75,-213.19C1924.3,-193.32 1929.11,-166.92 1938,-145 1943.35,-131.8 1952.33,-118.37 1959.57,-108.68"/>
<polygon fill="midnightblue" stroke="midnightblue" points="1918.26,-212.87 1920.58,-223.21 1925.21,-213.69 1918.26,-212.87"/>
</g>
<!-- Node27&#45;&gt;Node28 -->
<g id="edge42" class="edge">
<title>Node27&#45;&gt;Node28</title>
<path fill="none" stroke="midnightblue" d="M2002.45,-137.14C1995.32,-127.47 1987.61,-117.02 1981.62,-108.89"/>
<polygon fill="midnightblue" stroke="midnightblue" points="1999.76,-139.39 2008.52,-145.36 2005.4,-135.24 1999.76,-139.39"/>
</g>
<!-- Node29&#45;&gt;Node7 -->
<g id="edge50" class="edge">
<title>Node29&#45;&gt;Node7</title>
<path fill="none" stroke="midnightblue" d="M1195.49,-216.71C1184.92,-207.56 1173.23,-197.06 1163,-187 1145.05,-169.35 1147.47,-156.34 1125,-145 1053.03,-108.68 843.77,-120.66 764,-109 760.98,-108.56 757.9,-108.08 754.79,-107.57"/>
<polygon fill="midnightblue" stroke="midnightblue" points="1193.44,-219.56 1203.31,-223.41 1197.99,-214.25 1193.44,-219.56"/>
</g>
<!-- Node29&#45;&gt;Node15 -->
<g id="edge45" class="edge">
<title>Node29&#45;&gt;Node15</title>
<path fill="none" stroke="midnightblue" d="M1308.61,-234.46C1440.43,-220.58 1689.57,-193.98 1730,-187 1747.63,-183.96 1767.06,-179.47 1782.9,-175.52"/>
<polygon fill="midnightblue" stroke="midnightblue" points="1308.13,-230.99 1298.56,-235.52 1308.87,-237.95 1308.13,-230.99"/>
</g>
<!-- Node29&#45;&gt;Node24 -->
<g id="edge47" class="edge">
<title>Node29&#45;&gt;Node24</title>
<path fill="none" stroke="midnightblue" d="M1144.9,-233.19C1066.52,-223.34 945.26,-206.79 841,-187 831.77,-185.25 822.02,-183.17 812.55,-181.03"/>
<polygon fill="midnightblue" stroke="midnightblue" points="1144.84,-236.71 1155.19,-234.48 1145.7,-229.77 1144.84,-236.71"/>
</g>
<!-- Node29&#45;&gt;Node25 -->
<g id="edge48" class="edge">
<title>Node29&#45;&gt;Node25</title>
<path fill="none" stroke="midnightblue" d="M1145.5,-225.07C1098.46,-214.49 1038.26,-200.55 985,-187 977.71,-185.14 970.02,-183.1 962.5,-181.06"/>
<polygon fill="midnightblue" stroke="midnightblue" points="1144.8,-228.5 1155.33,-227.27 1146.33,-221.67 1144.8,-228.5"/>
</g>
<!-- Node30 -->
<g id="node30" class="node">
<title>Node30</title>
<g id="a_node30"><a xlink:href="allocator__hpx__test_8cpp.html" target="_top" xlink:title=" ">
<polygon fill="white" stroke="black" points="1172,-151 1172,-181 1282,-181 1282,-151 1172,-151"/>
<text text-anchor="start" x="1180" y="-169" font-family="Helvetica,sans-Serif" font-size="10.00">tests/allocator_hpx</text>
<text text-anchor="middle" x="1227" y="-158" font-family="Helvetica,sans-Serif" font-size="10.00">_test.cpp</text>
</a>
</g>
</g>
<!-- Node29&#45;&gt;Node30 -->
<g id="edge46" class="edge">
<title>Node29&#45;&gt;Node30</title>
<path fill="none" stroke="midnightblue" d="M1227,-213.28C1227,-202.25 1227,-190.25 1227,-181.23"/>
<polygon fill="midnightblue" stroke="midnightblue" points="1223.5,-213.43 1227,-223.43 1230.5,-213.43 1223.5,-213.43"/>
</g>
<!-- Node31 -->
<g id="node31" class="node">
<title>Node31</title>
<g id="a_node31"><a xlink:href="allocator__test_8cpp.html" target="_top" xlink:title=" ">
<polygon fill="white" stroke="black" points="1300.5,-156.5 1300.5,-175.5 1431.5,-175.5 1431.5,-156.5 1300.5,-156.5"/>
<text text-anchor="middle" x="1366" y="-163.5" font-family="Helvetica,sans-Serif" font-size="10.00">tests/allocator_test.cpp</text>
</a>
</g>
</g>
<!-- Node29&#45;&gt;Node31 -->
<g id="edge49" class="edge">
<title>Node29&#45;&gt;Node31</title>
<path fill="none" stroke="midnightblue" d="M1271.7,-218.56C1298.69,-203.8 1331.41,-185.91 1350.36,-175.55"/>
<polygon fill="midnightblue" stroke="midnightblue" points="1269.89,-215.56 1262.8,-223.43 1273.25,-221.7 1269.89,-215.56"/>
</g>
<!-- Node33 -->
<g id="node33" class="node">
<title>Node33</title>
<g id="a_node33"><a xlink:href="sycl__buffer__util_8hpp.html" target="_top" xlink:title=" ">
<polygon fill="white" stroke="black" points="2117,-151 2117,-181 2225,-181 2225,-151 2117,-151"/>
<text text-anchor="start" x="2125" y="-169" font-family="Helvetica,sans-Serif" font-size="10.00">include/sycl_buffer</text>
<text text-anchor="middle" x="2171" y="-158" font-family="Helvetica,sans-Serif" font-size="10.00">_util.hpp</text>
</a>
</g>
</g>
<!-- Node32&#45;&gt;Node33 -->
<g id="edge52" class="edge">
<title>Node32&#45;&gt;Node33</title>
<path fill="none" stroke="midnightblue" d="M2142.16,-214.64C2149.06,-203.25 2156.71,-190.62 2162.39,-181.23"/>
<polygon fill="midnightblue" stroke="midnightblue" points="2139.03,-213.06 2136.85,-223.43 2145.02,-216.69 2139.03,-213.06"/>
</g>
<!-- Node34&#45;&gt;Node24 -->
<g id="edge55" class="edge">
<title>Node34&#45;&gt;Node24</title>
<path fill="none" stroke="midnightblue" d="M915.77,-220.26C877.62,-207.54 831.25,-192.08 798.32,-181.11"/>
<polygon fill="midnightblue" stroke="midnightblue" points="914.69,-223.59 925.28,-223.43 916.9,-216.95 914.69,-223.59"/>
</g>
<!-- Node34&#45;&gt;Node25 -->
<g id="edge56" class="edge">
<title>Node34&#45;&gt;Node25</title>
<path fill="none" stroke="midnightblue" d="M958.77,-215.99C947.8,-204.25 935.41,-190.99 926.29,-181.23"/>
<polygon fill="midnightblue" stroke="midnightblue" points="956.33,-218.51 965.72,-223.43 961.45,-213.73 956.33,-218.51"/>
</g>
<!-- Node35 -->
<g id="node35" class="node">
<title>Node35</title>
<g id="a_node35"><a xlink:href="kokkos__buffer__util_8hpp.html" target="_top" xlink:title=" ">
<polygon fill="white" stroke="black" points="994,-151 994,-181 1116,-181 1116,-151 994,-151"/>
<text text-anchor="start" x="1002" y="-169" font-family="Helvetica,sans-Serif" font-size="10.00">include/kokkos_buffer</text>
<text text-anchor="middle" x="1055" y="-158" font-family="Helvetica,sans-Serif" font-size="10.00">_util.hpp</text>
</a>
</g>
</g>
<!-- Node34&#45;&gt;Node35 -->
<g id="edge54" class="edge">
<title>Node34&#45;&gt;Node35</title>
<path fill="none" stroke="midnightblue" d="M1009.23,-215.99C1020.2,-204.25 1032.59,-190.99 1041.71,-181.23"/>
<polygon fill="midnightblue" stroke="midnightblue" points="1006.55,-213.73 1002.28,-223.43 1011.67,-218.51 1006.55,-213.73"/>
</g>
</g>
</svg>
        <g id="navigator" transform="translate(0 0)" fill="#404254">
                <rect fill="#f2f5e9" fill-opacity="0.5" stroke="#606060" stroke-width=".5" x="0" y="0" width="60" height="60"/>
                <use id="zoomplus" xlink:href="#zoomPlus" x="17" y="9" onmousedown="handleZoom(evt,'in')"/>
                <use id="zoomminus" xlink:href="#zoomMin" x="42" y="9" onmousedown="handleZoom(evt,'out')"/>
                <use id="reset" xlink:href="#resetDef" x="30" y="36" onmousedown="handleReset()"/>
                <g id="arrowUp" xlink:href="#dirArrow" transform="translate(30 24)" onmousedown="handlePan(0,-1)">
                  <use xlink:href="#rim" fill="#404040">
                        <set attributeName="fill" to="#808080" begin="arrowUp.mouseover" end="arrowUp.mouseout"/>
                  </use>
                  <path fill="none" stroke="white" stroke-width="1.5" d="M0,-3.0v7 M-2.5,-0.5L0,-3.0L2.5,-0.5"/>
                </g>
                <g id="arrowRight" xlink:href="#dirArrow" transform="rotate(90) translate(36 -43)" onmousedown="handlePan(1,0)">
                  <use xlink:href="#rim" fill="#404040">
                        <set attributeName="fill" to="#808080" begin="arrowRight.mouseover" end="arrowRight.mouseout"/>
                  </use>
                  <path fill="none" stroke="white" stroke-width="1.5" d="M0,-3.0v7 M-2.5,-0.5L0,-3.0L2.5,-0.5"/>
                </g>
                <g id="arrowDown" xlink:href="#dirArrow" transform="rotate(180) translate(-30 -48)" onmousedown="handlePan(0,1)">
                  <use xlink:href="#rim" fill="#404040">
                        <set attributeName="fill" to="#808080" begin="arrowDown.mouseover" end="arrowDown.mouseout"/>
                  </use>
                  <path fill="none" stroke="white" stroke-width="1.5" d="M0,-3.0v7 M-2.5,-0.5L0,-3.0L2.5,-0.5"/>
                </g>
                <g id="arrowLeft" xlink:href="#dirArrow" transform="rotate(270) translate(-36 17)" onmousedown="handlePan(-1,0)">
                  <use xlink:href="#rim" fill="#404040">
                        <set attributeName="fill" to="#808080" begin="arrowLeft.mouseover" end="arrowLeft.mouseout"/>
                  </use>
                  <path fill="none" stroke="white" stroke-width="1.5" d="M0,-3.0v7 M-2.5,-0.5L0,-3.0L2.5,-0.5"/>
                </g>
        </g>
        <svg viewBox="0 0 15 15" width="100%" height="30px" preserveAspectRatio="xMaxYMin meet">
         <g id="arrow_out" transform="scale(0.3 0.3)">
          <a xlink:href="config_8hpp__dep__incl_org.svg" target="_base">
           <rect id="button" ry="5" rx="5" y="6" x="6" height="38" width="38"
                fill="#f2f5e9" fill-opacity="0.5" stroke="#606060" stroke-width="1.0"/>
           <path id="arrow"
             d="M 11.500037,31.436501 C 11.940474,20.09759 22.043105,11.32322 32.158766,21.979434 L 37.068811,17.246167 C 37.068811,17.246167 37.088388,32 37.088388,32 L 22.160133,31.978069 C 22.160133,31.978069 26.997745,27.140456 26.997745,27.140456 C 18.528582,18.264221 13.291696,25.230495 11.500037,31.436501 z"
             style="fill:#404040;"/>
          </a>
         </g>
        </svg>
</svg>
