<?xml version="1.0" encoding="UTF-8" standalone="no"?>
<!DOCTYPE svg PUBLIC "-//W3C//DTD SVG 1.1//EN"
 "http://www.w3.org/Graphics/SVG/1.1/DTD/svg11.dtd">
<!-- Generated by graphviz version 2.43.0 (0)
 -->
<!-- Title: include/cppuddle/common/config.hpp Pages: 1 -->
<svg width="2186pt" height="574pt"
 viewBox="0.00 0.00 2186.00 574.00" xmlns="http://www.w3.org/2000/svg" xmlns:xlink="http://www.w3.org/1999/xlink">
<g id="graph0" class="graph" transform="scale(1 1) rotate(0) translate(4 570)">
<title>include/cppuddle/common/config.hpp</title>
<polygon fill="white" stroke="transparent" points="-4,4 -4,-570 2182,-570 2182,4 -4,4"/>
<!-- Node1 -->
<g id="node1" class="node">
<title>Node1</title>
<g id="a_node1"><a xlink:title=" ">
<polygon fill="#bfbfbf" stroke="black" points="1464.5,-535.5 1464.5,-565.5 1609.5,-565.5 1609.5,-535.5 1464.5,-535.5"/>
<text text-anchor="start" x="1472.5" y="-553.5" font-family="Helvetica,sans-Serif" font-size="10.00">include/cppuddle/common</text>
<text text-anchor="middle" x="1537" y="-542.5" font-family="Helvetica,sans-Serif" font-size="10.00">/config.hpp</text>
</a>
</g>
</g>
<!-- Node2 -->
<g id="node2" class="node">
<title>Node2</title>
<g id="a_node2"><a xlink:href="executor__pools__management_8hpp.html" target="_top" xlink:title=" ">
<polygon fill="white" stroke="black" points="1505,-457.5 1505,-498.5 1649,-498.5 1649,-457.5 1505,-457.5"/>
<text text-anchor="start" x="1513" y="-486.5" font-family="Helvetica,sans-Serif" font-size="10.00">include/cppuddle/executor</text>
<text text-anchor="start" x="1513" y="-475.5" font-family="Helvetica,sans-Serif" font-size="10.00">_recycling/detail/executor</text>
<text text-anchor="middle" x="1577" y="-464.5" font-family="Helvetica,sans-Serif" font-size="10.00">_pools_management.hpp</text>
</a>
</g>
</g>
<!-- Node1&#45;&gt;Node2 -->
<g id="edge1" class="edge">
<title>Node1&#45;&gt;Node2</title>
<path fill="none" stroke="midnightblue" d="M1550.1,-526.41C1555.2,-517.42 1560.99,-507.22 1565.89,-498.59"/>
<polygon fill="midnightblue" stroke="midnightblue" points="1546.99,-524.81 1545.09,-535.23 1553.07,-528.26 1546.99,-524.81"/>
</g>
<!-- Node5 -->
<g id="node5" class="node">
<title>Node5</title>
<g id="a_node5"><a xlink:href="aggregation__executors__and__allocators_8hpp.html" target="_top" xlink:title=" ">
<polygon fill="white" stroke="black" points="1742.5,-301.5 1742.5,-342.5 1915.5,-342.5 1915.5,-301.5 1742.5,-301.5"/>
<text text-anchor="start" x="1750.5" y="-330.5" font-family="Helvetica,sans-Serif" font-size="10.00">include/cppuddle/kernel</text>
<text text-anchor="start" x="1750.5" y="-319.5" font-family="Helvetica,sans-Serif" font-size="10.00">_aggregation/detail/aggregation</text>
<text text-anchor="middle" x="1829" y="-308.5" font-family="Helvetica,sans-Serif" font-size="10.00">_executors_and_allocators.hpp</text>
</a>
</g>
</g>
<!-- Node1&#45;&gt;Node5 -->
<g id="edge19" class="edge">
<title>Node1&#45;&gt;Node5</title>
<path fill="none" stroke="midnightblue" d="M1591.97,-531.95C1613.56,-523.71 1637.92,-512.67 1658,-499 1725.09,-453.34 1787.02,-378.17 1814.32,-342.7"/>
<polygon fill="midnightblue" stroke="midnightblue" points="1590.75,-528.67 1582.59,-535.42 1593.18,-535.23 1590.75,-528.67"/>
</g>
<!-- Node15 -->
<g id="node15" class="node">
<title>Node15</title>
<g id="a_node15"><a xlink:href="buffer__manager_8hpp.html" target="_top" xlink:title=" ">
<polygon fill="white" stroke="black" points="0,-156.5 0,-175.5 152,-175.5 152,-156.5 0,-156.5"/>
<text text-anchor="middle" x="76" y="-163.5" font-family="Helvetica,sans-Serif" font-size="10.00">include/buffer_manager.hpp</text>
</a>
</g>
</g>
<!-- Node1&#45;&gt;Node15 -->
<g id="edge17" class="edge">
<title>Node1&#45;&gt;Node15</title>
<path fill="none" stroke="midnightblue" d="M1454.01,-549.9C1143.25,-550.3 66,-541.58 66,-401 66,-401 66,-401 66,-321 66,-265.54 72.54,-199.08 75.04,-175.67"/>
<polygon fill="midnightblue" stroke="midnightblue" points="1454.31,-553.4 1464.3,-549.88 1454.3,-546.4 1454.31,-553.4"/>
</g>
<!-- Node17 -->
<g id="node17" class="node">
<title>Node17</title>
<g id="a_node17"><a xlink:href="buffer__management_8hpp.html" target="_top" xlink:title=" ">
<polygon fill="white" stroke="black" points="1097.5,-379.5 1097.5,-420.5 1240.5,-420.5 1240.5,-379.5 1097.5,-379.5"/>
<text text-anchor="start" x="1105.5" y="-408.5" font-family="Helvetica,sans-Serif" font-size="10.00">include/cppuddle/memory</text>
<text text-anchor="start" x="1105.5" y="-397.5" font-family="Helvetica,sans-Serif" font-size="10.00">_recycling/detail/buffer</text>
<text text-anchor="middle" x="1169" y="-386.5" font-family="Helvetica,sans-Serif" font-size="10.00">_management.hpp</text>
</a>
</g>
</g>
<!-- Node1&#45;&gt;Node17 -->
<g id="edge20" class="edge">
<title>Node1&#45;&gt;Node17</title>
<path fill="none" stroke="midnightblue" d="M1492.7,-531.62C1423.3,-503.62 1289.47,-449.61 1217.55,-420.59"/>
<polygon fill="midnightblue" stroke="midnightblue" points="1491.46,-534.9 1502.05,-535.4 1494.08,-528.41 1491.46,-534.9"/>
</g>
<!-- Node3 -->
<g id="node3" class="node">
<title>Node3</title>
<g id="a_node3"><a xlink:href="executor__pools__interface_8hpp.html" target="_top" xlink:title=" ">
<polygon fill="white" stroke="black" points="1566,-379.5 1566,-420.5 1710,-420.5 1710,-379.5 1566,-379.5"/>
<text text-anchor="start" x="1574" y="-408.5" font-family="Helvetica,sans-Serif" font-size="10.00">include/cppuddle/executor</text>
<text text-anchor="start" x="1574" y="-397.5" font-family="Helvetica,sans-Serif" font-size="10.00">_recycling/executor_pools</text>
<text text-anchor="middle" x="1638" y="-386.5" font-family="Helvetica,sans-Serif" font-size="10.00">_interface.hpp</text>
</a>
</g>
</g>
<!-- Node2&#45;&gt;Node3 -->
<g id="edge2" class="edge">
<title>Node2&#45;&gt;Node3</title>
<path fill="none" stroke="midnightblue" d="M1598.97,-449.63C1606.71,-439.99 1615.24,-429.36 1622.34,-420.51"/>
<polygon fill="midnightblue" stroke="midnightblue" points="1596.24,-447.44 1592.71,-457.43 1601.7,-451.82 1596.24,-447.44"/>
</g>
<!-- Node4 -->
<g id="node4" class="node">
<title>Node4</title>
<g id="a_node4"><a xlink:href="kokkos__aggregation__util_8hpp.html" target="_top" xlink:title=" ">
<polygon fill="white" stroke="black" points="1971,-0.5 1971,-41.5 2107,-41.5 2107,-0.5 1971,-0.5"/>
<text text-anchor="start" x="1979" y="-29.5" font-family="Helvetica,sans-Serif" font-size="10.00">include/cppuddle/kernel</text>
<text text-anchor="start" x="1979" y="-18.5" font-family="Helvetica,sans-Serif" font-size="10.00">_aggregation/util/kokkos</text>
<text text-anchor="middle" x="2039" y="-7.5" font-family="Helvetica,sans-Serif" font-size="10.00">_aggregation_util.hpp</text>
</a>
</g>
</g>
<!-- Node3&#45;&gt;Node4 -->
<g id="edge3" class="edge">
<title>Node3&#45;&gt;Node4</title>
<path fill="none" stroke="midnightblue" d="M1720.44,-392.66C1871.65,-378.76 2178,-338.99 2178,-245 2178,-245 2178,-245 2178,-165 2178,-107.87 2120.26,-64.98 2079.2,-41.71"/>
<polygon fill="midnightblue" stroke="midnightblue" points="1719.91,-389.2 1710.27,-393.58 1720.54,-396.17 1719.91,-389.2"/>
</g>
<!-- Node3&#45;&gt;Node5 -->
<g id="edge4" class="edge">
<title>Node3&#45;&gt;Node5</title>
<path fill="none" stroke="midnightblue" d="M1696.79,-375.61C1723.45,-365 1754.61,-352.6 1779.98,-342.51"/>
<polygon fill="midnightblue" stroke="midnightblue" points="1695.18,-372.48 1687.19,-379.43 1697.77,-378.98 1695.18,-372.48"/>
</g>
<!-- Node11 -->
<g id="node11" class="node">
<title>Node11</title>
<g id="a_node11"><a xlink:href="work__aggregation__test_8cpp.html" target="_top" xlink:title=" ">
<polygon fill="white" stroke="black" points="836.5,-78.5 836.5,-108.5 967.5,-108.5 967.5,-78.5 836.5,-78.5"/>
<text text-anchor="start" x="844.5" y="-96.5" font-family="Helvetica,sans-Serif" font-size="10.00">tests/work_aggregation</text>
<text text-anchor="middle" x="902" y="-85.5" font-family="Helvetica,sans-Serif" font-size="10.00">_test.cpp</text>
</a>
</g>
</g>
<!-- Node3&#45;&gt;Node11 -->
<g id="edge16" class="edge">
<title>Node3&#45;&gt;Node11</title>
<path fill="none" stroke="midnightblue" d="M1671.92,-372.65C1680.75,-364.12 1689.37,-354 1695,-343 1715.21,-303.55 1749.36,-177.29 1719,-145 1693.39,-117.76 1157.51,-101.17 967.82,-96.14"/>
<polygon fill="midnightblue" stroke="midnightblue" points="1669.53,-370.09 1664.5,-379.42 1674.25,-375.26 1669.53,-370.09"/>
</g>
<!-- Node12 -->
<g id="node12" class="node">
<title>Node12</title>
<g id="a_node12"><a xlink:href="stream__manager_8hpp.html" target="_top" xlink:title=" ">
<polygon fill="white" stroke="black" points="1528,-312.5 1528,-331.5 1686,-331.5 1686,-312.5 1528,-312.5"/>
<text text-anchor="middle" x="1607" y="-319.5" font-family="Helvetica,sans-Serif" font-size="10.00">include/stream_manager.hpp</text>
</a>
</g>
</g>
<!-- Node3&#45;&gt;Node12 -->
<g id="edge13" class="edge">
<title>Node3&#45;&gt;Node12</title>
<path fill="none" stroke="midnightblue" d="M1626.11,-369.85C1620.52,-356.15 1614.27,-340.83 1610.49,-331.55"/>
<polygon fill="midnightblue" stroke="midnightblue" points="1623,-371.49 1630.02,-379.43 1629.48,-368.85 1623,-371.49"/>
</g>
<!-- Node13 -->
<g id="node13" class="node">
<title>Node13</title>
<g id="a_node13"><a xlink:href="stream__test_8hpp.html" target="_top" xlink:title=" ">
<polygon fill="white" stroke="black" points="231.5,-84 231.5,-103 354.5,-103 354.5,-84 231.5,-84"/>
<text text-anchor="middle" x="293" y="-91" font-family="Helvetica,sans-Serif" font-size="10.00">tests/stream_test.hpp</text>
</a>
</g>
</g>
<!-- Node3&#45;&gt;Node13 -->
<g id="edge14" class="edge">
<title>Node3&#45;&gt;Node13</title>
<path fill="none" stroke="midnightblue" d="M1555.96,-394.15C1317.52,-379.39 627.96,-331.95 413,-265 341.26,-242.66 302,-251.23 263,-187 246,-159 272,-120.32 285.58,-103.22"/>
<polygon fill="midnightblue" stroke="midnightblue" points="1555.76,-397.64 1565.95,-394.76 1556.19,-390.65 1555.76,-397.64"/>
</g>
<!-- Node6 -->
<g id="node6" class="node">
<title>Node6</title>
<g id="a_node6"><a xlink:href="aggregation__executor__pools_8hpp.html" target="_top" xlink:title=" ">
<polygon fill="white" stroke="black" points="1742.5,-223.5 1742.5,-264.5 1915.5,-264.5 1915.5,-223.5 1742.5,-223.5"/>
<text text-anchor="start" x="1750.5" y="-252.5" font-family="Helvetica,sans-Serif" font-size="10.00">include/cppuddle/kernel</text>
<text text-anchor="start" x="1750.5" y="-241.5" font-family="Helvetica,sans-Serif" font-size="10.00">_aggregation/detail/aggregation</text>
<text text-anchor="middle" x="1829" y="-230.5" font-family="Helvetica,sans-Serif" font-size="10.00">_executor_pools.hpp</text>
</a>
</g>
</g>
<!-- Node5&#45;&gt;Node6 -->
<g id="edge5" class="edge">
<title>Node5&#45;&gt;Node6</title>
<path fill="none" stroke="midnightblue" d="M1829,-291.3C1829,-282.3 1829,-272.65 1829,-264.51"/>
<polygon fill="midnightblue" stroke="midnightblue" points="1825.5,-291.43 1829,-301.43 1832.5,-291.43 1825.5,-291.43"/>
</g>
<!-- Node7 -->
<g id="node7" class="node">
<title>Node7</title>
<g id="a_node7"><a xlink:href="kernel__aggregation__interface_8hpp.html" target="_top" xlink:title=" ">
<polygon fill="white" stroke="black" points="1765.5,-145.5 1765.5,-186.5 1942.5,-186.5 1942.5,-145.5 1765.5,-145.5"/>
<text text-anchor="start" x="1773.5" y="-174.5" font-family="Helvetica,sans-Serif" font-size="10.00">include/cppuddle/kernel</text>
<text text-anchor="start" x="1773.5" y="-163.5" font-family="Helvetica,sans-Serif" font-size="10.00">_aggregation/kernel_aggregation</text>
<text text-anchor="middle" x="1854" y="-152.5" font-family="Helvetica,sans-Serif" font-size="10.00">_interface.hpp</text>
</a>
</g>
</g>
<!-- Node5&#45;&gt;Node7 -->
<g id="edge12" class="edge">
<title>Node5&#45;&gt;Node7</title>
<path fill="none" stroke="midnightblue" d="M1893.02,-296.23C1905.79,-288.24 1917.54,-277.98 1925,-265 1934.3,-248.81 1933.14,-239.8 1925,-223 1917.74,-208.03 1904.32,-195.85 1891.08,-186.73"/>
<polygon fill="midnightblue" stroke="midnightblue" points="1890.97,-293.37 1884.07,-301.41 1894.48,-299.43 1890.97,-293.37"/>
</g>
<!-- Node6&#45;&gt;Node7 -->
<g id="edge6" class="edge">
<title>Node6&#45;&gt;Node7</title>
<path fill="none" stroke="midnightblue" d="M1838.58,-213.88C1841.59,-204.72 1844.85,-194.83 1847.58,-186.51"/>
<polygon fill="midnightblue" stroke="midnightblue" points="1835.24,-212.84 1835.44,-223.43 1841.89,-215.02 1835.24,-212.84"/>
</g>
<!-- Node8 -->
<g id="node8" class="node">
<title>Node8</title>
<g id="a_node8"><a xlink:href="aggregation__manager_8hpp.html" target="_top" xlink:title=" ">
<polygon fill="white" stroke="black" points="1820.5,-78.5 1820.5,-108.5 1933.5,-108.5 1933.5,-78.5 1820.5,-78.5"/>
<text text-anchor="start" x="1828.5" y="-96.5" font-family="Helvetica,sans-Serif" font-size="10.00">include/aggregation</text>
<text text-anchor="middle" x="1877" y="-85.5" font-family="Helvetica,sans-Serif" font-size="10.00">_manager.hpp</text>
</a>
</g>
</g>
<!-- Node7&#45;&gt;Node8 -->
<g id="edge7" class="edge">
<title>Node7&#45;&gt;Node8</title>
<path fill="none" stroke="midnightblue" d="M1863.57,-135.67C1866.59,-126.42 1869.79,-116.61 1872.3,-108.89"/>
<polygon fill="midnightblue" stroke="midnightblue" points="1860.18,-134.77 1860.41,-145.36 1866.84,-136.94 1860.18,-134.77"/>
</g>
<!-- Node9 -->
<g id="node9" class="node">
<title>Node9</title>
<g id="a_node9"><a xlink:href="work__aggregation__cpu__triad_8cpp.html" target="_top" xlink:title=" ">
<polygon fill="white" stroke="black" points="1456.5,-78.5 1456.5,-108.5 1587.5,-108.5 1587.5,-78.5 1456.5,-78.5"/>
<text text-anchor="start" x="1464.5" y="-96.5" font-family="Helvetica,sans-Serif" font-size="10.00">tests/work_aggregation</text>
<text text-anchor="middle" x="1522" y="-85.5" font-family="Helvetica,sans-Serif" font-size="10.00">_cpu_triad.cpp</text>
</a>
</g>
</g>
<!-- Node7&#45;&gt;Node9 -->
<g id="edge9" class="edge">
<title>Node7&#45;&gt;Node9</title>
<path fill="none" stroke="midnightblue" d="M1755.49,-144.08C1701.32,-132.58 1635.58,-118.62 1587.68,-108.45"/>
<polygon fill="midnightblue" stroke="midnightblue" points="1754.96,-147.55 1765.47,-146.2 1756.41,-140.7 1754.96,-147.55"/>
</g>
<!-- Node10 -->
<g id="node10" class="node">
<title>Node10</title>
<g id="a_node10"><a xlink:href="work__aggregation__cuda__triad_8cpp.html" target="_top" xlink:title=" ">
<polygon fill="white" stroke="black" points="408.5,-78.5 408.5,-108.5 539.5,-108.5 539.5,-78.5 408.5,-78.5"/>
<text text-anchor="start" x="416.5" y="-96.5" font-family="Helvetica,sans-Serif" font-size="10.00">tests/work_aggregation</text>
<text text-anchor="middle" x="474" y="-85.5" font-family="Helvetica,sans-Serif" font-size="10.00">_cuda_triad.cpp</text>
</a>
</g>
</g>
<!-- Node7&#45;&gt;Node10 -->
<g id="edge10" class="edge">
<title>Node7&#45;&gt;Node10</title>
<path fill="none" stroke="midnightblue" d="M1755.06,-149.11C1742.94,-147.52 1730.7,-146.1 1719,-145 1324.42,-107.91 1224,-125.11 828,-109 727.36,-104.91 610.63,-100.12 539.57,-97.2"/>
<polygon fill="midnightblue" stroke="midnightblue" points="1754.83,-152.61 1765.21,-150.47 1755.76,-145.67 1754.83,-152.61"/>
</g>
<!-- Node7&#45;&gt;Node11 -->
<g id="edge11" class="edge">
<title>Node7&#45;&gt;Node11</title>
<path fill="none" stroke="midnightblue" d="M1755.31,-145.43C1754.2,-145.28 1753.1,-145.14 1752,-145 1461.09,-108.01 1110.63,-98.02 967.6,-95.4"/>
<polygon fill="midnightblue" stroke="midnightblue" points="1754.99,-148.92 1765.38,-146.88 1755.98,-141.99 1754.99,-148.92"/>
</g>
<!-- Node8&#45;&gt;Node4 -->
<g id="edge8" class="edge">
<title>Node8&#45;&gt;Node4</title>
<path fill="none" stroke="midnightblue" d="M1918.59,-74.4C1941.7,-64.34 1970.47,-51.83 1994.08,-41.55"/>
<polygon fill="midnightblue" stroke="midnightblue" points="1917.17,-71.2 1909.39,-78.4 1919.96,-77.62 1917.17,-71.2"/>
</g>
<!-- Node14 -->
<g id="node14" class="node">
<title>Node14</title>
<g id="a_node14"><a xlink:href="stream__test_8cpp.html" target="_top" xlink:title=" ">
<polygon fill="white" stroke="black" points="232,-11.5 232,-30.5 354,-30.5 354,-11.5 232,-11.5"/>
<text text-anchor="middle" x="293" y="-18.5" font-family="Helvetica,sans-Serif" font-size="10.00">tests/stream_test.cpp</text>
</a>
</g>
</g>
<!-- Node13&#45;&gt;Node14 -->
<g id="edge15" class="edge">
<title>Node13&#45;&gt;Node14</title>
<path fill="none" stroke="midnightblue" d="M293,-73.44C293,-59.53 293,-41.32 293,-30.72"/>
<polygon fill="midnightblue" stroke="midnightblue" points="289.5,-73.86 293,-83.86 296.5,-73.86 289.5,-73.86"/>
</g>
<!-- Node16 -->
<g id="node16" class="node">
<title>Node16</title>
<g id="a_node16"><a xlink:href="cuda__buffer__util_8hpp.html" target="_top" xlink:title=" ">
<polygon fill="white" stroke="black" points="101,-78.5 101,-108.5 213,-108.5 213,-78.5 101,-78.5"/>
<text text-anchor="start" x="109" y="-96.5" font-family="Helvetica,sans-Serif" font-size="10.00">include/cuda_buffer</text>
<text text-anchor="middle" x="157" y="-85.5" font-family="Helvetica,sans-Serif" font-size="10.00">_util.hpp</text>
</a>
</g>
</g>
<!-- Node15&#45;&gt;Node16 -->
<g id="edge18" class="edge">
<title>Node15&#45;&gt;Node16</title>
<path fill="none" stroke="midnightblue" d="M93.48,-149.78C107.54,-137.55 127.13,-120.5 140.83,-108.58"/>
<polygon fill="midnightblue" stroke="midnightblue" points="91.18,-147.15 85.93,-156.36 95.77,-152.43 91.18,-147.15"/>
</g>
<!-- Node17&#45;&gt;Node5 -->
<g id="edge56" class="edge">
<title>Node17&#45;&gt;Node5</title>
<path fill="none" stroke="midnightblue" d="M1250.65,-391.38C1354.17,-381.48 1538.08,-363.05 1695,-343 1710.28,-341.05 1726.52,-338.78 1742.22,-336.5"/>
<polygon fill="midnightblue" stroke="midnightblue" points="1250.2,-387.91 1240.58,-392.34 1250.86,-394.88 1250.2,-387.91"/>
</g>
<!-- Node17&#45;&gt;Node15 -->
<g id="edge21" class="edge">
<title>Node17&#45;&gt;Node15</title>
<path fill="none" stroke="midnightblue" d="M1087.04,-399.06C861.32,-398.56 242.3,-392.66 166,-343 103.87,-302.57 82.51,-205.07 77.35,-175.59"/>
<polygon fill="midnightblue" stroke="midnightblue" points="1087.16,-402.56 1097.16,-399.07 1087.17,-395.56 1087.16,-402.56"/>
</g>
<!-- Node18 -->
<g id="node18" class="node">
<title>Node18</title>
<g id="a_node18"><a xlink:href="buffer__management__interface_8hpp.html" target="_top" xlink:title=" ">
<polygon fill="white" stroke="black" points="1046,-301.5 1046,-342.5 1214,-342.5 1214,-301.5 1046,-301.5"/>
<text text-anchor="start" x="1054" y="-330.5" font-family="Helvetica,sans-Serif" font-size="10.00">include/cppuddle/memory</text>
<text text-anchor="start" x="1054" y="-319.5" font-family="Helvetica,sans-Serif" font-size="10.00">_recycling/buffer_management</text>
<text text-anchor="middle" x="1130" y="-308.5" font-family="Helvetica,sans-Serif" font-size="10.00">_interface.hpp</text>
</a>
</g>
</g>
<!-- Node17&#45;&gt;Node18 -->
<g id="edge22" class="edge">
<title>Node17&#45;&gt;Node18</title>
<path fill="none" stroke="midnightblue" d="M1154.36,-370.47C1149.57,-361.14 1144.37,-351.01 1140.01,-342.51"/>
<polygon fill="midnightblue" stroke="midnightblue" points="1151.28,-372.13 1158.96,-379.43 1157.5,-368.93 1151.28,-372.13"/>
</g>
<!-- Node18&#45;&gt;Node15 -->
<g id="edge23" class="edge">
<title>Node18&#45;&gt;Node15</title>
<path fill="none" stroke="midnightblue" d="M1035.83,-319.78C898.02,-316.61 633.79,-305.28 413,-265 292.52,-243.02 153.48,-195.14 99.3,-175.58"/>
<polygon fill="midnightblue" stroke="midnightblue" points="1035.86,-323.28 1045.94,-320 1036.02,-316.28 1035.86,-323.28"/>
</g>
<!-- Node19 -->
<g id="node19" class="node">
<title>Node19</title>
<g id="a_node19"><a xlink:href="aligned__recycling__allocators_8hpp.html" target="_top" xlink:title=" ">
<polygon fill="white" stroke="black" points="1298.5,-223.5 1298.5,-264.5 1453.5,-264.5 1453.5,-223.5 1298.5,-223.5"/>
<text text-anchor="start" x="1306.5" y="-252.5" font-family="Helvetica,sans-Serif" font-size="10.00">include/cppuddle/memory</text>
<text text-anchor="start" x="1306.5" y="-241.5" font-family="Helvetica,sans-Serif" font-size="10.00">_recycling/aligned_recycling</text>
<text text-anchor="middle" x="1376" y="-230.5" font-family="Helvetica,sans-Serif" font-size="10.00">_allocators.hpp</text>
</a>
</g>
</g>
<!-- Node18&#45;&gt;Node19 -->
<g id="edge24" class="edge">
<title>Node18&#45;&gt;Node19</title>
<path fill="none" stroke="midnightblue" d="M1203.02,-298.44C1237.93,-287.66 1279.32,-274.87 1312.86,-264.51"/>
<polygon fill="midnightblue" stroke="midnightblue" points="1201.87,-295.13 1193.35,-301.43 1203.94,-301.82 1201.87,-295.13"/>
</g>
<!-- Node22 -->
<g id="node22" class="node">
<title>Node22</title>
<g id="a_node22"><a xlink:href="cuda__recycling__allocators_8hpp.html" target="_top" xlink:title=" ">
<polygon fill="white" stroke="black" points="421.5,-223.5 421.5,-264.5 564.5,-264.5 564.5,-223.5 421.5,-223.5"/>
<text text-anchor="start" x="429.5" y="-252.5" font-family="Helvetica,sans-Serif" font-size="10.00">include/cppuddle/memory</text>
<text text-anchor="start" x="429.5" y="-241.5" font-family="Helvetica,sans-Serif" font-size="10.00">_recycling/cuda_recycling</text>
<text text-anchor="middle" x="493" y="-230.5" font-family="Helvetica,sans-Serif" font-size="10.00">_allocators.hpp</text>
</a>
</g>
</g>
<!-- Node18&#45;&gt;Node22 -->
<g id="edge27" class="edge">
<title>Node18&#45;&gt;Node22</title>
<path fill="none" stroke="midnightblue" d="M1035.53,-309.73C907.07,-294.4 680.14,-267.33 564.73,-253.56"/>
<polygon fill="midnightblue" stroke="midnightblue" points="1035.4,-313.24 1045.74,-310.95 1036.23,-306.29 1035.4,-313.24"/>
</g>
<!-- Node26 -->
<g id="node26" class="node">
<title>Node26</title>
<g id="a_node26"><a xlink:href="std__recycling__allocators_8hpp.html" target="_top" xlink:title=" ">
<polygon fill="white" stroke="black" points="979.5,-223.5 979.5,-264.5 1122.5,-264.5 1122.5,-223.5 979.5,-223.5"/>
<text text-anchor="start" x="987.5" y="-252.5" font-family="Helvetica,sans-Serif" font-size="10.00">include/cppuddle/memory</text>
<text text-anchor="start" x="987.5" y="-241.5" font-family="Helvetica,sans-Serif" font-size="10.00">_recycling/std_recycling</text>
<text text-anchor="middle" x="1051" y="-230.5" font-family="Helvetica,sans-Serif" font-size="10.00">_allocators.hpp</text>
</a>
</g>
</g>
<!-- Node18&#45;&gt;Node26 -->
<g id="edge39" class="edge">
<title>Node18&#45;&gt;Node26</title>
<path fill="none" stroke="midnightblue" d="M1102.45,-294.49C1092.19,-284.63 1080.76,-273.63 1071.28,-264.51"/>
<polygon fill="midnightblue" stroke="midnightblue" points="1100.02,-297.02 1109.66,-301.43 1104.88,-291.97 1100.02,-297.02"/>
</g>
<!-- Node29 -->
<g id="node29" class="node">
<title>Node29</title>
<g id="a_node29"><a xlink:href="hip__recycling__allocators_8hpp.html" target="_top" xlink:title=" ">
<polygon fill="white" stroke="black" points="1972.5,-223.5 1972.5,-264.5 2115.5,-264.5 2115.5,-223.5 1972.5,-223.5"/>
<text text-anchor="start" x="1980.5" y="-252.5" font-family="Helvetica,sans-Serif" font-size="10.00">include/cppuddle/memory</text>
<text text-anchor="start" x="1980.5" y="-241.5" font-family="Helvetica,sans-Serif" font-size="10.00">_recycling/hip_recycling</text>
<text text-anchor="middle" x="2044" y="-230.5" font-family="Helvetica,sans-Serif" font-size="10.00">_allocators.hpp</text>
</a>
</g>
</g>
<!-- Node18&#45;&gt;Node29 -->
<g id="edge46" class="edge">
<title>Node18&#45;&gt;Node29</title>
<path fill="none" stroke="midnightblue" d="M1224.31,-315.5C1404.55,-304.8 1791.84,-280.84 1925,-265 1940.39,-263.17 1956.83,-260.72 1972.42,-258.18"/>
<polygon fill="midnightblue" stroke="midnightblue" points="1224.09,-312.01 1214.32,-316.09 1224.5,-318.99 1224.09,-312.01"/>
</g>
<!-- Node32 -->
<g id="node32" class="node">
<title>Node32</title>
<g id="a_node32"><a xlink:href="sycl__recycling__allocators_8hpp.html" target="_top" xlink:title=" ">
<polygon fill="white" stroke="black" points="1518.5,-223.5 1518.5,-264.5 1661.5,-264.5 1661.5,-223.5 1518.5,-223.5"/>
<text text-anchor="start" x="1526.5" y="-252.5" font-family="Helvetica,sans-Serif" font-size="10.00">include/cppuddle/memory</text>
<text text-anchor="start" x="1526.5" y="-241.5" font-family="Helvetica,sans-Serif" font-size="10.00">_recycling/sycl_recycling</text>
<text text-anchor="middle" x="1590" y="-230.5" font-family="Helvetica,sans-Serif" font-size="10.00">_allocators.hpp</text>
</a>
</g>
</g>
<!-- Node18&#45;&gt;Node32 -->
<g id="edge50" class="edge">
<title>Node18&#45;&gt;Node32</title>
<path fill="none" stroke="midnightblue" d="M1223.99,-305.47C1311.14,-291.07 1438.93,-269.96 1518.16,-256.87"/>
<polygon fill="midnightblue" stroke="midnightblue" points="1223.4,-302.02 1214.1,-307.1 1224.54,-308.93 1223.4,-302.02"/>
</g>
<!-- Node34 -->
<g id="node34" class="node">
<title>Node34</title>
<g id="a_node34"><a xlink:href="recycling__kokkos__view_8hpp.html" target="_top" xlink:title=" ">
<polygon fill="white" stroke="black" points="745.5,-223.5 745.5,-264.5 888.5,-264.5 888.5,-223.5 745.5,-223.5"/>
<text text-anchor="start" x="753.5" y="-252.5" font-family="Helvetica,sans-Serif" font-size="10.00">include/cppuddle/memory</text>
<text text-anchor="start" x="753.5" y="-241.5" font-family="Helvetica,sans-Serif" font-size="10.00">_recycling/util/recycling</text>
<text text-anchor="middle" x="817" y="-230.5" font-family="Helvetica,sans-Serif" font-size="10.00">_kokkos_view.hpp</text>
</a>
</g>
</g>
<!-- Node18&#45;&gt;Node34 -->
<g id="edge52" class="edge">
<title>Node18&#45;&gt;Node34</title>
<path fill="none" stroke="midnightblue" d="M1039.62,-299.05C991.59,-287.39 933.38,-273.26 888.53,-262.37"/>
<polygon fill="midnightblue" stroke="midnightblue" points="1038.85,-302.47 1049.39,-301.43 1040.5,-295.67 1038.85,-302.47"/>
</g>
<!-- Node20 -->
<g id="node20" class="node">
<title>Node20</title>
<g id="a_node20"><a xlink:href="aligned__buffer__util_8hpp.html" target="_top" xlink:title=" ">
<polygon fill="white" stroke="black" points="1458.5,-151 1458.5,-181 1583.5,-181 1583.5,-151 1458.5,-151"/>
<text text-anchor="start" x="1466.5" y="-169" font-family="Helvetica,sans-Serif" font-size="10.00">include/aligned_buffer</text>
<text text-anchor="middle" x="1521" y="-158" font-family="Helvetica,sans-Serif" font-size="10.00">_util.hpp</text>
</a>
</g>
</g>
<!-- Node19&#45;&gt;Node20 -->
<g id="edge25" class="edge">
<title>Node19&#45;&gt;Node20</title>
<path fill="none" stroke="midnightblue" d="M1422.47,-218.64C1446.03,-206.3 1473.81,-191.73 1493.86,-181.23"/>
<polygon fill="midnightblue" stroke="midnightblue" points="1420.57,-215.69 1413.34,-223.43 1423.82,-221.89 1420.57,-215.69"/>
</g>
<!-- Node21 -->
<g id="node21" class="node">
<title>Node21</title>
<g id="a_node21"><a xlink:href="allocator__aligned__test_8cpp.html" target="_top" xlink:title=" ">
<polygon fill="white" stroke="black" points="1312,-151 1312,-181 1440,-181 1440,-151 1312,-151"/>
<text text-anchor="start" x="1320" y="-169" font-family="Helvetica,sans-Serif" font-size="10.00">tests/allocator_aligned</text>
<text text-anchor="middle" x="1376" y="-158" font-family="Helvetica,sans-Serif" font-size="10.00">_test.cpp</text>
</a>
</g>
</g>
<!-- Node19&#45;&gt;Node21 -->
<g id="edge26" class="edge">
<title>Node19&#45;&gt;Node21</title>
<path fill="none" stroke="midnightblue" d="M1376,-213.28C1376,-202.25 1376,-190.25 1376,-181.23"/>
<polygon fill="midnightblue" stroke="midnightblue" points="1372.5,-213.43 1376,-223.43 1379.5,-213.43 1372.5,-213.43"/>
</g>
<!-- Node22&#45;&gt;Node10 -->
<g id="edge37" class="edge">
<title>Node22&#45;&gt;Node10</title>
<path fill="none" stroke="midnightblue" d="M489.19,-213.22C485.12,-181.42 478.85,-132.4 475.79,-108.53"/>
<polygon fill="midnightblue" stroke="midnightblue" points="485.74,-213.81 490.48,-223.28 492.68,-212.92 485.74,-213.81"/>
</g>
<!-- Node22&#45;&gt;Node11 -->
<g id="edge38" class="edge">
<title>Node22&#45;&gt;Node11</title>
<path fill="none" stroke="midnightblue" d="M496.76,-213.34C501.23,-190.99 510.96,-161.46 532,-145 578.08,-108.95 743.12,-98.63 836.46,-95.68"/>
<polygon fill="midnightblue" stroke="midnightblue" points="493.29,-212.89 495.01,-223.34 500.18,-214.1 493.29,-212.89"/>
</g>
<!-- Node22&#45;&gt;Node13 -->
<g id="edge36" class="edge">
<title>Node22&#45;&gt;Node13</title>
<path fill="none" stroke="midnightblue" d="M411.39,-232.42C357.11,-223.51 292.82,-208.72 276,-187 256.4,-161.7 276.78,-120.92 287.41,-103.19"/>
<polygon fill="midnightblue" stroke="midnightblue" points="410.96,-235.9 421.39,-234.01 412.06,-228.98 410.96,-235.9"/>
</g>
<!-- Node22&#45;&gt;Node16 -->
<g id="edge33" class="edge">
<title>Node22&#45;&gt;Node16</title>
<path fill="none" stroke="midnightblue" d="M411.34,-232.86C365.8,-224.86 309.13,-210.91 263,-187 223.97,-166.77 187.42,-129.26 169.16,-108.77"/>
<polygon fill="midnightblue" stroke="midnightblue" points="411.03,-236.36 421.48,-234.57 412.2,-229.46 411.03,-236.36"/>
</g>
<!-- Node23 -->
<g id="node23" class="node">
<title>Node23</title>
<g id="a_node23"><a xlink:href="cuda__recycling__device__buffer_8hpp.html" target="_top" xlink:title="Contains a RAII wrappers for CUDA device buffers. Intended to be used with the recycling allocators b...">
<polygon fill="white" stroke="black" points="284.5,-145.5 284.5,-186.5 445.5,-186.5 445.5,-145.5 284.5,-145.5"/>
<text text-anchor="start" x="292.5" y="-174.5" font-family="Helvetica,sans-Serif" font-size="10.00">include/cppuddle/memory</text>
<text text-anchor="start" x="292.5" y="-163.5" font-family="Helvetica,sans-Serif" font-size="10.00">_recycling/util/cuda_recycling</text>
<text text-anchor="middle" x="365" y="-152.5" font-family="Helvetica,sans-Serif" font-size="10.00">_device_buffer.hpp</text>
</a>
</g>
</g>
<!-- Node22&#45;&gt;Node23 -->
<g id="edge28" class="edge">
<title>Node22&#45;&gt;Node23</title>
<path fill="none" stroke="midnightblue" d="M451.24,-218.2C433.91,-207.92 414.11,-196.16 397.85,-186.51"/>
<polygon fill="midnightblue" stroke="midnightblue" points="449.65,-221.33 460.04,-223.43 453.23,-215.31 449.65,-221.33"/>
</g>
<!-- Node24 -->
<g id="node24" class="node">
<title>Node24</title>
<g id="a_node24"><a xlink:href="allocator__kokkos__executor__for__loop__test_8cpp.html" target="_top" xlink:title=" ">
<polygon fill="white" stroke="black" points="824.5,-151 824.5,-181 977.5,-181 977.5,-151 824.5,-151"/>
<text text-anchor="start" x="832.5" y="-169" font-family="Helvetica,sans-Serif" font-size="10.00">tests/allocator_kokkos</text>
<text text-anchor="middle" x="901" y="-158" font-family="Helvetica,sans-Serif" font-size="10.00">_executor_for_loop_test.cpp</text>
</a>
</g>
</g>
<!-- Node22&#45;&gt;Node24 -->
<g id="edge34" class="edge">
<title>Node22&#45;&gt;Node24</title>
<path fill="none" stroke="midnightblue" d="M574.74,-230.09C639.96,-219.47 733.58,-203.53 815,-187 824.01,-185.17 833.53,-183.1 842.81,-181"/>
<polygon fill="midnightblue" stroke="midnightblue" points="573.83,-226.69 564.52,-231.75 574.95,-233.6 573.83,-226.69"/>
</g>
<!-- Node25 -->
<g id="node25" class="node">
<title>Node25</title>
<g id="a_node25"><a xlink:href="allocator__kokkos__test_8cpp.html" target="_top" xlink:title=" ">
<polygon fill="white" stroke="black" points="540.5,-151 540.5,-181 665.5,-181 665.5,-151 540.5,-151"/>
<text text-anchor="start" x="548.5" y="-169" font-family="Helvetica,sans-Serif" font-size="10.00">tests/allocator_kokkos</text>
<text text-anchor="middle" x="603" y="-158" font-family="Helvetica,sans-Serif" font-size="10.00">_test.cpp</text>
</a>
</g>
</g>
<!-- Node22&#45;&gt;Node25 -->
<g id="edge35" class="edge">
<title>Node22&#45;&gt;Node25</title>
<path fill="none" stroke="midnightblue" d="M529.68,-217.66C547.24,-205.53 567.61,-191.45 582.41,-181.23"/>
<polygon fill="midnightblue" stroke="midnightblue" points="527.57,-214.86 521.33,-223.43 531.54,-220.62 527.57,-214.86"/>
</g>
<!-- Node23&#45;&gt;Node10 -->
<g id="edge31" class="edge">
<title>Node23&#45;&gt;Node10</title>
<path fill="none" stroke="midnightblue" d="M404.09,-139.72C420.24,-129.27 438.35,-117.56 452.09,-108.67"/>
<polygon fill="midnightblue" stroke="midnightblue" points="401.86,-136.99 395.36,-145.36 405.66,-142.87 401.86,-136.99"/>
</g>
<!-- Node23&#45;&gt;Node11 -->
<g id="edge32" class="edge">
<title>Node23&#45;&gt;Node11</title>
<path fill="none" stroke="midnightblue" d="M456,-151.01C470.06,-148.94 484.41,-146.87 498,-145 617.04,-128.61 756.14,-111.72 836.16,-102.22"/>
<polygon fill="midnightblue" stroke="midnightblue" points="455.22,-147.59 445.84,-152.52 456.24,-154.51 455.22,-147.59"/>
</g>
<!-- Node23&#45;&gt;Node13 -->
<g id="edge30" class="edge">
<title>Node23&#45;&gt;Node13</title>
<path fill="none" stroke="midnightblue" d="M337.7,-138.27C325.01,-125.84 310.78,-111.91 301.86,-103.17"/>
<polygon fill="midnightblue" stroke="midnightblue" points="335.35,-140.87 344.94,-145.36 340.25,-135.86 335.35,-140.87"/>
</g>
<!-- Node23&#45;&gt;Node16 -->
<g id="edge29" class="edge">
<title>Node23&#45;&gt;Node16</title>
<path fill="none" stroke="midnightblue" d="M297.84,-142.24C265.19,-131.17 226.97,-118.22 198.59,-108.6"/>
<polygon fill="midnightblue" stroke="midnightblue" points="296.74,-145.56 307.34,-145.46 298.99,-138.93 296.74,-145.56"/>
</g>
<!-- Node26&#45;&gt;Node9 -->
<g id="edge45" class="edge">
<title>Node26&#45;&gt;Node9</title>
<path fill="none" stroke="midnightblue" d="M1132.87,-232.97C1174.69,-225.11 1225.04,-211.26 1265,-187 1286.52,-173.94 1281.29,-157.75 1303,-145 1349.94,-117.44 1410.75,-104.92 1456.38,-99.23"/>
<polygon fill="midnightblue" stroke="midnightblue" points="1132.21,-229.53 1122.98,-234.74 1133.44,-236.42 1132.21,-229.53"/>
</g>
<!-- Node26&#45;&gt;Node15 -->
<g id="edge40" class="edge">
<title>Node26&#45;&gt;Node15</title>
<path fill="none" stroke="midnightblue" d="M969.08,-231.18C946.12,-228.17 921.12,-225.18 898,-223 622.31,-197.04 552.05,-208.78 276,-187 235.12,-183.77 189.64,-179.3 152.38,-175.4"/>
<polygon fill="midnightblue" stroke="midnightblue" points="968.75,-234.67 979.12,-232.52 969.67,-227.73 968.75,-234.67"/>
</g>
<!-- Node26&#45;&gt;Node24 -->
<g id="edge42" class="edge">
<title>Node26&#45;&gt;Node24</title>
<path fill="none" stroke="midnightblue" d="M1003.25,-218.81C978.81,-206.43 949.91,-191.78 929.08,-181.23"/>
<polygon fill="midnightblue" stroke="midnightblue" points="1001.87,-222.03 1012.37,-223.43 1005.03,-215.79 1001.87,-222.03"/>
</g>
<!-- Node26&#45;&gt;Node25 -->
<g id="edge43" class="edge">
<title>Node26&#45;&gt;Node25</title>
<path fill="none" stroke="midnightblue" d="M969.29,-232.03C876.09,-219.31 729.58,-198.6 675,-187 667.01,-185.3 658.59,-183.23 650.43,-181.07"/>
<polygon fill="midnightblue" stroke="midnightblue" points="968.87,-235.51 979.25,-233.39 969.82,-228.57 968.87,-235.51"/>
</g>
<!-- Node27 -->
<g id="node27" class="node">
<title>Node27</title>
<g id="a_node27"><a xlink:href="allocator__hpx__test_8cpp.html" target="_top" xlink:title=" ">
<polygon fill="white" stroke="black" points="996,-151 996,-181 1106,-181 1106,-151 996,-151"/>
<text text-anchor="start" x="1004" y="-169" font-family="Helvetica,sans-Serif" font-size="10.00">tests/allocator_hpx</text>
<text text-anchor="middle" x="1051" y="-158" font-family="Helvetica,sans-Serif" font-size="10.00">_test.cpp</text>
</a>
</g>
</g>
<!-- Node26&#45;&gt;Node27 -->
<g id="edge41" class="edge">
<title>Node26&#45;&gt;Node27</title>
<path fill="none" stroke="midnightblue" d="M1051,-213.28C1051,-202.25 1051,-190.25 1051,-181.23"/>
<polygon fill="midnightblue" stroke="midnightblue" points="1047.5,-213.43 1051,-223.43 1054.5,-213.43 1047.5,-213.43"/>
</g>
<!-- Node28 -->
<g id="node28" class="node">
<title>Node28</title>
<g id="a_node28"><a xlink:href="allocator__test_8cpp.html" target="_top" xlink:title=" ">
<polygon fill="white" stroke="black" points="1124.5,-156.5 1124.5,-175.5 1255.5,-175.5 1255.5,-156.5 1124.5,-156.5"/>
<text text-anchor="middle" x="1190" y="-163.5" font-family="Helvetica,sans-Serif" font-size="10.00">tests/allocator_test.cpp</text>
</a>
</g>
</g>
<!-- Node26&#45;&gt;Node28 -->
<g id="edge44" class="edge">
<title>Node26&#45;&gt;Node28</title>
<path fill="none" stroke="midnightblue" d="M1095.7,-218.56C1122.69,-203.8 1155.41,-185.91 1174.36,-175.55"/>
<polygon fill="midnightblue" stroke="midnightblue" points="1093.89,-215.56 1086.8,-223.43 1097.25,-221.7 1093.89,-215.56"/>
</g>
<!-- Node30 -->
<g id="node30" class="node">
<title>Node30</title>
<g id="a_node30"><a xlink:href="hip__recycling__device__buffer_8hpp.html" target="_top" xlink:title=" ">
<polygon fill="white" stroke="black" points="1998,-145.5 1998,-186.5 2150,-186.5 2150,-145.5 1998,-145.5"/>
<text text-anchor="start" x="2006" y="-174.5" font-family="Helvetica,sans-Serif" font-size="10.00">include/cppuddle/memory</text>
<text text-anchor="start" x="2006" y="-163.5" font-family="Helvetica,sans-Serif" font-size="10.00">_recycling/util/hip_recycling</text>
<text text-anchor="middle" x="2074" y="-152.5" font-family="Helvetica,sans-Serif" font-size="10.00">_device_buffer.hpp</text>
</a>
</g>
</g>
<!-- Node29&#45;&gt;Node30 -->
<g id="edge47" class="edge">
<title>Node29&#45;&gt;Node30</title>
<path fill="none" stroke="midnightblue" d="M2055.49,-213.88C2059.11,-204.72 2063.01,-194.83 2066.3,-186.51"/>
<polygon fill="midnightblue" stroke="midnightblue" points="2052.14,-212.84 2051.73,-223.43 2058.65,-215.41 2052.14,-212.84"/>
</g>
<!-- Node31 -->
<g id="node31" class="node">
<title>Node31</title>
<g id="a_node31"><a xlink:href="hip__buffer__util_8hpp.html" target="_top" xlink:title=" ">
<polygon fill="white" stroke="black" points="1976,-78.5 1976,-108.5 2080,-108.5 2080,-78.5 1976,-78.5"/>
<text text-anchor="start" x="1984" y="-96.5" font-family="Helvetica,sans-Serif" font-size="10.00">include/hip_buffer</text>
<text text-anchor="middle" x="2028" y="-85.5" font-family="Helvetica,sans-Serif" font-size="10.00">_util.hpp</text>
</a>
</g>
</g>
<!-- Node29&#45;&gt;Node31 -->
<g id="edge49" class="edge">
<title>Node29&#45;&gt;Node31</title>
<path fill="none" stroke="midnightblue" d="M2009.72,-216.47C2001.35,-208.05 1993.51,-198.02 1989,-187 1981.93,-169.72 1982.97,-162.67 1989,-145 1993.72,-131.16 2003.94,-118.17 2012.74,-108.83"/>
<polygon fill="midnightblue" stroke="midnightblue" points="2007.46,-219.15 2017.14,-223.44 2012.25,-214.04 2007.46,-219.15"/>
</g>
<!-- Node30&#45;&gt;Node31 -->
<g id="edge48" class="edge">
<title>Node30&#45;&gt;Node31</title>
<path fill="none" stroke="midnightblue" d="M2055.63,-136.85C2049.38,-127.26 2042.64,-116.94 2037.39,-108.89"/>
<polygon fill="midnightblue" stroke="midnightblue" points="2052.79,-138.9 2061.19,-145.36 2058.65,-135.07 2052.79,-138.9"/>
</g>
<!-- Node33 -->
<g id="node33" class="node">
<title>Node33</title>
<g id="a_node33"><a xlink:href="sycl__buffer__util_8hpp.html" target="_top" xlink:title=" ">
<polygon fill="white" stroke="black" points="1602,-151 1602,-181 1710,-181 1710,-151 1602,-151"/>
<text text-anchor="start" x="1610" y="-169" font-family="Helvetica,sans-Serif" font-size="10.00">include/sycl_buffer</text>
<text text-anchor="middle" x="1656" y="-158" font-family="Helvetica,sans-Serif" font-size="10.00">_util.hpp</text>
</a>
</g>
</g>
<!-- Node32&#45;&gt;Node33 -->
<g id="edge51" class="edge">
<title>Node32&#45;&gt;Node33</title>
<path fill="none" stroke="midnightblue" d="M1613.75,-215.65C1623.87,-204 1635.25,-190.9 1643.65,-181.23"/>
<polygon fill="midnightblue" stroke="midnightblue" points="1610.91,-213.58 1607,-223.43 1616.2,-218.17 1610.91,-213.58"/>
</g>
<!-- Node34&#45;&gt;Node24 -->
<g id="edge54" class="edge">
<title>Node34&#45;&gt;Node24</title>
<path fill="none" stroke="midnightblue" d="M846.11,-216.66C859.26,-204.76 874.28,-191.18 885.28,-181.23"/>
<polygon fill="midnightblue" stroke="midnightblue" points="843.7,-214.12 838.63,-223.43 848.4,-219.31 843.7,-214.12"/>
</g>
<!-- Node34&#45;&gt;Node25 -->
<g id="edge55" class="edge">
<title>Node34&#45;&gt;Node25</title>
<path fill="none" stroke="midnightblue" d="M752.05,-219.93C716.41,-207.28 673.37,-191.99 642.72,-181.11"/>
<polygon fill="midnightblue" stroke="midnightblue" points="751.29,-223.38 761.89,-223.43 753.64,-216.78 751.29,-223.38"/>
</g>
<!-- Node35 -->
<g id="node35" class="node">
<title>Node35</title>
<g id="a_node35"><a xlink:href="kokkos__buffer__util_8hpp.html" target="_top" xlink:title=" ">
<polygon fill="white" stroke="black" points="684,-151 684,-181 806,-181 806,-151 684,-151"/>
<text text-anchor="start" x="692" y="-169" font-family="Helvetica,sans-Serif" font-size="10.00">include/kokkos_buffer</text>
<text text-anchor="middle" x="745" y="-158" font-family="Helvetica,sans-Serif" font-size="10.00">_util.hpp</text>
</a>
</g>
</g>
<!-- Node34&#45;&gt;Node35 -->
<g id="edge53" class="edge">
<title>Node34&#45;&gt;Node35</title>
<path fill="none" stroke="midnightblue" d="M791.41,-215.99C780.29,-204.25 767.73,-190.99 758.48,-181.23"/>
<polygon fill="midnightblue" stroke="midnightblue" points="789.04,-218.58 798.46,-223.43 794.12,-213.76 789.04,-218.58"/>
</g>
</g>
</svg>
