<?xml version="1.0" encoding="UTF-8" standalone="no"?>
<!DOCTYPE svg PUBLIC "-//W3C//DTD SVG 1.1//EN"
 "http://www.w3.org/Graphics/SVG/1.1/DTD/svg11.dtd">
<!-- Generated by graphviz version 2.43.0 (0)
 -->
<!-- Title: include/cppuddle/common/config.hpp Pages: 1 -->
<svg width="2215pt" height="574pt"
 viewBox="0.00 0.00 2214.50 574.00" xmlns="http://www.w3.org/2000/svg" xmlns:xlink="http://www.w3.org/1999/xlink">
<g id="graph0" class="graph" transform="scale(1 1) rotate(0) translate(4 570)">
<title>include/cppuddle/common/config.hpp</title>
<polygon fill="white" stroke="transparent" points="-4,4 -4,-570 2210.5,-570 2210.5,4 -4,4"/>
<!-- Node1 -->
<g id="node1" class="node">
<title>Node1</title>
<g id="a_node1"><a xlink:title=" ">
<polygon fill="#bfbfbf" stroke="black" points="626.5,-535.5 626.5,-565.5 771.5,-565.5 771.5,-535.5 626.5,-535.5"/>
<text text-anchor="start" x="634.5" y="-553.5" font-family="Helvetica,sans-Serif" font-size="10.00">include/cppuddle/common</text>
<text text-anchor="middle" x="699" y="-542.5" font-family="Helvetica,sans-Serif" font-size="10.00">/config.hpp</text>
</a>
</g>
</g>
<!-- Node2 -->
<g id="node2" class="node">
<title>Node2</title>
<g id="a_node2"><a xlink:href="executor__pools__management_8hpp.html" target="_top" xlink:title=" ">
<polygon fill="white" stroke="black" points="250,-457.5 250,-498.5 394,-498.5 394,-457.5 250,-457.5"/>
<text text-anchor="start" x="258" y="-486.5" font-family="Helvetica,sans-Serif" font-size="10.00">include/cppuddle/executor</text>
<text text-anchor="start" x="258" y="-475.5" font-family="Helvetica,sans-Serif" font-size="10.00">_recycling/detail/executor</text>
<text text-anchor="middle" x="322" y="-464.5" font-family="Helvetica,sans-Serif" font-size="10.00">_pools_management.hpp</text>
</a>
</g>
</g>
<!-- Node1&#45;&gt;Node2 -->
<g id="edge1" class="edge">
<title>Node1&#45;&gt;Node2</title>
<path fill="none" stroke="midnightblue" d="M616.3,-534.03C549.89,-521.62 457.58,-504.35 394.15,-492.49"/>
<polygon fill="midnightblue" stroke="midnightblue" points="615.84,-537.51 626.31,-535.91 617.12,-530.63 615.84,-537.51"/>
</g>
<!-- Node10 -->
<g id="node10" class="node">
<title>Node10</title>
<g id="a_node10"><a xlink:href="aggregation__executors__and__allocators_8hpp.html" target="_top" xlink:title=" ">
<polygon fill="white" stroke="black" points="397.5,-301.5 397.5,-342.5 570.5,-342.5 570.5,-301.5 397.5,-301.5"/>
<text text-anchor="start" x="405.5" y="-330.5" font-family="Helvetica,sans-Serif" font-size="10.00">include/cppuddle/kernel</text>
<text text-anchor="start" x="405.5" y="-319.5" font-family="Helvetica,sans-Serif" font-size="10.00">_aggregation/detail/aggregation</text>
<text text-anchor="middle" x="484" y="-308.5" font-family="Helvetica,sans-Serif" font-size="10.00">_executors_and_allocators.hpp</text>
</a>
</g>
</g>
<!-- Node1&#45;&gt;Node10 -->
<g id="edge20" class="edge">
<title>Node1&#45;&gt;Node10</title>
<path fill="none" stroke="midnightblue" d="M678.66,-528.07C637.1,-484.29 543.01,-385.16 502.79,-342.8"/>
<polygon fill="midnightblue" stroke="midnightblue" points="676.13,-530.49 685.55,-535.33 681.2,-525.67 676.13,-530.49"/>
</g>
<!-- Node15 -->
<g id="node15" class="node">
<title>Node15</title>
<g id="a_node15"><a xlink:href="buffer__manager_8hpp.html" target="_top" xlink:title=" ">
<polygon fill="white" stroke="black" points="945,-156.5 945,-175.5 1097,-175.5 1097,-156.5 945,-156.5"/>
<text text-anchor="middle" x="1021" y="-163.5" font-family="Helvetica,sans-Serif" font-size="10.00">include/buffer_manager.hpp</text>
</a>
</g>
</g>
<!-- Node1&#45;&gt;Node15 -->
<g id="edge18" class="edge">
<title>Node1&#45;&gt;Node15</title>
<path fill="none" stroke="midnightblue" d="M782.04,-545.95C877.15,-536.9 1020,-505.86 1020,-401 1020,-401 1020,-401 1020,-321 1020,-265.66 1020.65,-199.12 1020.9,-175.68"/>
<polygon fill="midnightblue" stroke="midnightblue" points="781.49,-542.48 771.84,-546.85 782.11,-549.46 781.49,-542.48"/>
</g>
<!-- Node17 -->
<g id="node17" class="node">
<title>Node17</title>
<g id="a_node17"><a xlink:href="buffer__management_8hpp.html" target="_top" xlink:title=" ">
<polygon fill="white" stroke="black" points="791.5,-379.5 791.5,-420.5 934.5,-420.5 934.5,-379.5 791.5,-379.5"/>
<text text-anchor="start" x="799.5" y="-408.5" font-family="Helvetica,sans-Serif" font-size="10.00">include/cppuddle/memory</text>
<text text-anchor="start" x="799.5" y="-397.5" font-family="Helvetica,sans-Serif" font-size="10.00">_recycling/detail/buffer</text>
<text text-anchor="middle" x="863" y="-386.5" font-family="Helvetica,sans-Serif" font-size="10.00">_management.hpp</text>
</a>
</g>
</g>
<!-- Node1&#45;&gt;Node17 -->
<g id="edge21" class="edge">
<title>Node1&#45;&gt;Node17</title>
<path fill="none" stroke="midnightblue" d="M722.24,-528.46C754,-499.7 810.54,-448.51 841.41,-420.55"/>
<polygon fill="midnightblue" stroke="midnightblue" points="719.79,-525.95 714.73,-535.26 724.49,-531.14 719.79,-525.95"/>
</g>
<!-- Node3 -->
<g id="node3" class="node">
<title>Node3</title>
<g id="a_node3"><a xlink:href="executor__pools__interface_8hpp.html" target="_top" xlink:title=" ">
<polygon fill="white" stroke="black" points="163,-379.5 163,-420.5 307,-420.5 307,-379.5 163,-379.5"/>
<text text-anchor="start" x="171" y="-408.5" font-family="Helvetica,sans-Serif" font-size="10.00">include/cppuddle/executor</text>
<text text-anchor="start" x="171" y="-397.5" font-family="Helvetica,sans-Serif" font-size="10.00">_recycling/executor_pools</text>
<text text-anchor="middle" x="235" y="-386.5" font-family="Helvetica,sans-Serif" font-size="10.00">_interface.hpp</text>
</a>
</g>
</g>
<!-- Node2&#45;&gt;Node3 -->
<g id="edge2" class="edge">
<title>Node2&#45;&gt;Node3</title>
<path fill="none" stroke="midnightblue" d="M291.98,-450.78C280.61,-440.84 267.87,-429.72 257.33,-420.51"/>
<polygon fill="midnightblue" stroke="midnightblue" points="289.76,-453.49 299.6,-457.43 294.37,-448.21 289.76,-453.49"/>
</g>
<!-- Node4 -->
<g id="node4" class="node">
<title>Node4</title>
<g id="a_node4"><a xlink:href="kernel__aggregation__interface_8hpp.html" target="_top" xlink:title=" ">
<polygon fill="white" stroke="black" points="90.5,-145.5 90.5,-186.5 267.5,-186.5 267.5,-145.5 90.5,-145.5"/>
<text text-anchor="start" x="98.5" y="-174.5" font-family="Helvetica,sans-Serif" font-size="10.00">include/cppuddle/kernel</text>
<text text-anchor="start" x="98.5" y="-163.5" font-family="Helvetica,sans-Serif" font-size="10.00">_aggregation/kernel_aggregation</text>
<text text-anchor="middle" x="179" y="-152.5" font-family="Helvetica,sans-Serif" font-size="10.00">_interface.hpp</text>
</a>
</g>
</g>
<!-- Node3&#45;&gt;Node4 -->
<g id="edge3" class="edge">
<title>Node3&#45;&gt;Node4</title>
<path fill="none" stroke="midnightblue" d="M177.61,-374.06C165.41,-365.98 154.09,-355.72 147,-343 121.04,-296.41 131.97,-274.46 146,-223 149.56,-209.94 157.04,-196.81 163.97,-186.56"/>
<polygon fill="midnightblue" stroke="midnightblue" points="175.8,-377.06 186.15,-379.32 179.47,-371.1 175.8,-377.06"/>
</g>
<!-- Node6 -->
<g id="node6" class="node">
<title>Node6</title>
<g id="a_node6"><a xlink:href="kokkos__aggregation__util_8hpp.html" target="_top" xlink:title=" ">
<polygon fill="white" stroke="black" points="0,-0.5 0,-41.5 136,-41.5 136,-0.5 0,-0.5"/>
<text text-anchor="start" x="8" y="-29.5" font-family="Helvetica,sans-Serif" font-size="10.00">include/cppuddle/kernel</text>
<text text-anchor="start" x="8" y="-18.5" font-family="Helvetica,sans-Serif" font-size="10.00">_aggregation/util/kokkos</text>
<text text-anchor="middle" x="68" y="-7.5" font-family="Helvetica,sans-Serif" font-size="10.00">_aggregation_util.hpp</text>
</a>
</g>
</g>
<!-- Node3&#45;&gt;Node6 -->
<g id="edge9" class="edge">
<title>Node3&#45;&gt;Node6</title>
<path fill="none" stroke="midnightblue" d="M155.36,-375.99C95.94,-353.37 25,-312.27 25,-245 25,-245 25,-245 25,-165 25,-119.37 45.32,-68.89 58.03,-41.8"/>
<polygon fill="midnightblue" stroke="midnightblue" points="154.19,-379.29 164.78,-379.46 156.61,-372.72 154.19,-379.29"/>
</g>
<!-- Node9 -->
<g id="node9" class="node">
<title>Node9</title>
<g id="a_node9"><a xlink:href="work__aggregation__test_8cpp.html" target="_top" xlink:title=" ">
<polygon fill="white" stroke="black" points="245.5,-78.5 245.5,-108.5 376.5,-108.5 376.5,-78.5 245.5,-78.5"/>
<text text-anchor="start" x="253.5" y="-96.5" font-family="Helvetica,sans-Serif" font-size="10.00">tests/work_aggregation</text>
<text text-anchor="middle" x="311" y="-85.5" font-family="Helvetica,sans-Serif" font-size="10.00">_test.cpp</text>
</a>
</g>
</g>
<!-- Node3&#45;&gt;Node9 -->
<g id="edge17" class="edge">
<title>Node3&#45;&gt;Node9</title>
<path fill="none" stroke="midnightblue" d="M169.04,-374.9C153.84,-366.74 138.94,-356.24 128,-343 70.38,-273.28 24.32,-215.48 81,-145 91.39,-132.08 181,-115.25 245.24,-104.66"/>
<polygon fill="midnightblue" stroke="midnightblue" points="167.49,-378.04 177.99,-379.44 170.65,-371.8 167.49,-378.04"/>
</g>
<!-- Node3&#45;&gt;Node10 -->
<g id="edge10" class="edge">
<title>Node3&#45;&gt;Node10</title>
<path fill="none" stroke="midnightblue" d="M308.91,-376.44C344.25,-365.66 386.15,-352.87 420.09,-342.51"/>
<polygon fill="midnightblue" stroke="midnightblue" points="307.67,-373.16 299.12,-379.43 309.71,-379.86 307.67,-373.16"/>
</g>
<!-- Node12 -->
<g id="node12" class="node">
<title>Node12</title>
<g id="a_node12"><a xlink:href="stream__manager_8hpp.html" target="_top" xlink:title=" ">
<polygon fill="white" stroke="black" points="156,-312.5 156,-331.5 314,-331.5 314,-312.5 156,-312.5"/>
<text text-anchor="middle" x="235" y="-319.5" font-family="Helvetica,sans-Serif" font-size="10.00">include/stream_manager.hpp</text>
</a>
</g>
</g>
<!-- Node3&#45;&gt;Node12 -->
<g id="edge14" class="edge">
<title>Node3&#45;&gt;Node12</title>
<path fill="none" stroke="midnightblue" d="M235,-369.05C235,-355.56 235,-340.65 235,-331.55"/>
<polygon fill="midnightblue" stroke="midnightblue" points="231.5,-369.43 235,-379.43 238.5,-369.43 231.5,-369.43"/>
</g>
<!-- Node13 -->
<g id="node13" class="node">
<title>Node13</title>
<g id="a_node13"><a xlink:href="stream__test_8hpp.html" target="_top" xlink:title=" ">
<polygon fill="white" stroke="black" points="713.5,-84 713.5,-103 836.5,-103 836.5,-84 713.5,-84"/>
<text text-anchor="middle" x="775" y="-91" font-family="Helvetica,sans-Serif" font-size="10.00">tests/stream_test.hpp</text>
</a>
</g>
</g>
<!-- Node3&#45;&gt;Node13 -->
<g id="edge15" class="edge">
<title>Node3&#45;&gt;Node13</title>
<path fill="none" stroke="midnightblue" d="M286.76,-374.23C300.05,-365.85 313.31,-355.41 323,-343 345.49,-314.2 343.15,-301.07 349,-265 351.99,-246.57 356.02,-240.3 349,-223 340.61,-202.32 322.39,-207.68 314,-187 306.98,-169.7 301.42,-158.79 314,-145 343.32,-112.85 660.95,-115.36 704,-109 714.83,-107.4 726.5,-105.21 737.18,-103.02"/>
<polygon fill="midnightblue" stroke="midnightblue" points="284.85,-371.3 278.06,-379.44 288.44,-377.3 284.85,-371.3"/>
</g>
<!-- Node5 -->
<g id="node5" class="node">
<title>Node5</title>
<g id="a_node5"><a xlink:href="aggregation__manager_8hpp.html" target="_top" xlink:title=" ">
<polygon fill="white" stroke="black" points="88.5,-78.5 88.5,-108.5 201.5,-108.5 201.5,-78.5 88.5,-78.5"/>
<text text-anchor="start" x="96.5" y="-96.5" font-family="Helvetica,sans-Serif" font-size="10.00">include/aggregation</text>
<text text-anchor="middle" x="145" y="-85.5" font-family="Helvetica,sans-Serif" font-size="10.00">_manager.hpp</text>
</a>
</g>
</g>
<!-- Node4&#45;&gt;Node5 -->
<g id="edge4" class="edge">
<title>Node4&#45;&gt;Node5</title>
<path fill="none" stroke="midnightblue" d="M165.14,-136.26C160.6,-126.84 155.74,-116.78 151.94,-108.89"/>
<polygon fill="midnightblue" stroke="midnightblue" points="162.03,-137.87 169.53,-145.36 168.34,-134.83 162.03,-137.87"/>
</g>
<!-- Node7 -->
<g id="node7" class="node">
<title>Node7</title>
<g id="a_node7"><a xlink:href="work__aggregation__cpu__triad_8cpp.html" target="_top" xlink:title=" ">
<polygon fill="white" stroke="black" points="564.5,-78.5 564.5,-108.5 695.5,-108.5 695.5,-78.5 564.5,-78.5"/>
<text text-anchor="start" x="572.5" y="-96.5" font-family="Helvetica,sans-Serif" font-size="10.00">tests/work_aggregation</text>
<text text-anchor="middle" x="630" y="-85.5" font-family="Helvetica,sans-Serif" font-size="10.00">_cpu_triad.cpp</text>
</a>
</g>
</g>
<!-- Node4&#45;&gt;Node7 -->
<g id="edge6" class="edge">
<title>Node4&#45;&gt;Node7</title>
<path fill="none" stroke="midnightblue" d="M277.71,-145.54C278.81,-145.36 279.91,-145.18 281,-145 402.21,-125.17 433.76,-128.67 555,-109 558.01,-108.51 561.09,-107.99 564.19,-107.46"/>
<polygon fill="midnightblue" stroke="midnightblue" points="276.94,-142.13 267.67,-147.27 278.12,-149.02 276.94,-142.13"/>
</g>
<!-- Node8 -->
<g id="node8" class="node">
<title>Node8</title>
<g id="a_node8"><a xlink:href="work__aggregation__cuda__triad_8cpp.html" target="_top" xlink:title=" ">
<polygon fill="white" stroke="black" points="415.5,-78.5 415.5,-108.5 546.5,-108.5 546.5,-78.5 415.5,-78.5"/>
<text text-anchor="start" x="423.5" y="-96.5" font-family="Helvetica,sans-Serif" font-size="10.00">tests/work_aggregation</text>
<text text-anchor="middle" x="481" y="-85.5" font-family="Helvetica,sans-Serif" font-size="10.00">_cuda_triad.cpp</text>
</a>
</g>
</g>
<!-- Node4&#45;&gt;Node8 -->
<g id="edge7" class="edge">
<title>Node4&#45;&gt;Node8</title>
<path fill="none" stroke="midnightblue" d="M272.56,-143.16C320.81,-131.9 378.26,-118.48 420.61,-108.6"/>
<polygon fill="midnightblue" stroke="midnightblue" points="271.67,-139.77 262.72,-145.46 273.26,-146.59 271.67,-139.77"/>
</g>
<!-- Node4&#45;&gt;Node9 -->
<g id="edge8" class="edge">
<title>Node4&#45;&gt;Node9</title>
<path fill="none" stroke="midnightblue" d="M224.71,-140.58C244.67,-129.93 267.36,-117.81 284.47,-108.67"/>
<polygon fill="midnightblue" stroke="midnightblue" points="222.94,-137.56 215.77,-145.36 226.24,-143.74 222.94,-137.56"/>
</g>
<!-- Node5&#45;&gt;Node6 -->
<g id="edge5" class="edge">
<title>Node5&#45;&gt;Node6</title>
<path fill="none" stroke="midnightblue" d="M121.93,-71.38C111.61,-61.93 99.51,-50.85 89.39,-41.59"/>
<polygon fill="midnightblue" stroke="midnightblue" points="119.68,-74.06 129.42,-78.23 124.41,-68.9 119.68,-74.06"/>
</g>
<!-- Node10&#45;&gt;Node4 -->
<g id="edge13" class="edge">
<title>Node10&#45;&gt;Node4</title>
<path fill="none" stroke="midnightblue" d="M387.19,-307.45C293.82,-293.92 165.49,-273.88 158,-265 139.38,-242.91 153.74,-208.26 166.14,-186.63"/>
<polygon fill="midnightblue" stroke="midnightblue" points="386.86,-310.94 397.25,-308.91 387.86,-304.01 386.86,-310.94"/>
</g>
<!-- Node11 -->
<g id="node11" class="node">
<title>Node11</title>
<g id="a_node11"><a xlink:href="aggregation__executor__pools_8hpp.html" target="_top" xlink:title=" ">
<polygon fill="white" stroke="black" points="167.5,-223.5 167.5,-264.5 340.5,-264.5 340.5,-223.5 167.5,-223.5"/>
<text text-anchor="start" x="175.5" y="-252.5" font-family="Helvetica,sans-Serif" font-size="10.00">include/cppuddle/kernel</text>
<text text-anchor="start" x="175.5" y="-241.5" font-family="Helvetica,sans-Serif" font-size="10.00">_aggregation/detail/aggregation</text>
<text text-anchor="middle" x="254" y="-230.5" font-family="Helvetica,sans-Serif" font-size="10.00">_executor_pools.hpp</text>
</a>
</g>
</g>
<!-- Node10&#45;&gt;Node11 -->
<g id="edge11" class="edge">
<title>Node10&#45;&gt;Node11</title>
<path fill="none" stroke="midnightblue" d="M414.89,-298.17C382.43,-287.44 344.12,-274.78 313.03,-264.51"/>
<polygon fill="midnightblue" stroke="midnightblue" points="414.18,-301.61 424.77,-301.43 416.37,-294.97 414.18,-301.61"/>
</g>
<!-- Node11&#45;&gt;Node4 -->
<g id="edge12" class="edge">
<title>Node11&#45;&gt;Node4</title>
<path fill="none" stroke="midnightblue" d="M227.56,-216.2C217.9,-206.42 207.16,-195.54 198.25,-186.51"/>
<polygon fill="midnightblue" stroke="midnightblue" points="225.17,-218.77 234.69,-223.43 230.15,-213.85 225.17,-218.77"/>
</g>
<!-- Node14 -->
<g id="node14" class="node">
<title>Node14</title>
<g id="a_node14"><a xlink:href="stream__test_8cpp.html" target="_top" xlink:title=" ">
<polygon fill="white" stroke="black" points="714,-11.5 714,-30.5 836,-30.5 836,-11.5 714,-11.5"/>
<text text-anchor="middle" x="775" y="-18.5" font-family="Helvetica,sans-Serif" font-size="10.00">tests/stream_test.cpp</text>
</a>
</g>
</g>
<!-- Node13&#45;&gt;Node14 -->
<g id="edge16" class="edge">
<title>Node13&#45;&gt;Node14</title>
<path fill="none" stroke="midnightblue" d="M775,-73.44C775,-59.53 775,-41.32 775,-30.72"/>
<polygon fill="midnightblue" stroke="midnightblue" points="771.5,-73.86 775,-83.86 778.5,-73.86 771.5,-73.86"/>
</g>
<!-- Node16 -->
<g id="node16" class="node">
<title>Node16</title>
<g id="a_node16"><a xlink:href="cuda__buffer__util_8hpp.html" target="_top" xlink:title=" ">
<polygon fill="white" stroke="black" points="861,-78.5 861,-108.5 973,-108.5 973,-78.5 861,-78.5"/>
<text text-anchor="start" x="869" y="-96.5" font-family="Helvetica,sans-Serif" font-size="10.00">include/cuda_buffer</text>
<text text-anchor="middle" x="917" y="-85.5" font-family="Helvetica,sans-Serif" font-size="10.00">_util.hpp</text>
</a>
</g>
</g>
<!-- Node15&#45;&gt;Node16 -->
<g id="edge19" class="edge">
<title>Node15&#45;&gt;Node16</title>
<path fill="none" stroke="midnightblue" d="M999.56,-150.47C981.45,-138.19 955.68,-120.72 937.76,-108.58"/>
<polygon fill="midnightblue" stroke="midnightblue" points="998.01,-153.64 1008.25,-156.36 1001.93,-147.85 998.01,-153.64"/>
</g>
<!-- Node17&#45;&gt;Node10 -->
<g id="edge57" class="edge">
<title>Node17&#45;&gt;Node10</title>
<path fill="none" stroke="midnightblue" d="M781.12,-382.58C719.06,-370.14 633.96,-353.07 570.73,-340.39"/>
<polygon fill="midnightblue" stroke="midnightblue" points="780.77,-386.08 791.27,-384.62 782.15,-379.22 780.77,-386.08"/>
</g>
<!-- Node17&#45;&gt;Node15 -->
<g id="edge22" class="edge">
<title>Node17&#45;&gt;Node15</title>
<path fill="none" stroke="midnightblue" d="M883.7,-371.1C903.47,-344.22 933.89,-302.26 959,-265 980.82,-232.61 1005.18,-193.03 1015.69,-175.76"/>
<polygon fill="midnightblue" stroke="midnightblue" points="880.79,-369.15 877.68,-379.27 886.43,-373.3 880.79,-369.15"/>
</g>
<!-- Node18 -->
<g id="node18" class="node">
<title>Node18</title>
<g id="a_node18"><a xlink:href="buffer__management__interface_8hpp.html" target="_top" xlink:title=" ">
<polygon fill="white" stroke="black" points="1091,-301.5 1091,-342.5 1259,-342.5 1259,-301.5 1091,-301.5"/>
<text text-anchor="start" x="1099" y="-330.5" font-family="Helvetica,sans-Serif" font-size="10.00">include/cppuddle/memory</text>
<text text-anchor="start" x="1099" y="-319.5" font-family="Helvetica,sans-Serif" font-size="10.00">_recycling/buffer_management</text>
<text text-anchor="middle" x="1175" y="-308.5" font-family="Helvetica,sans-Serif" font-size="10.00">_interface.hpp</text>
</a>
</g>
</g>
<!-- Node17&#45;&gt;Node18 -->
<g id="edge23" class="edge">
<title>Node17&#45;&gt;Node18</title>
<path fill="none" stroke="midnightblue" d="M944.58,-379.13C990.88,-367.85 1048.6,-353.79 1094.69,-342.56"/>
<polygon fill="midnightblue" stroke="midnightblue" points="943.47,-375.8 934.58,-381.56 945.12,-382.6 943.47,-375.8"/>
</g>
<!-- Node18&#45;&gt;Node15 -->
<g id="edge24" class="edge">
<title>Node18&#45;&gt;Node15</title>
<path fill="none" stroke="midnightblue" d="M1148.32,-294.32C1112.8,-258.8 1051.84,-197.84 1029.51,-175.51"/>
<polygon fill="midnightblue" stroke="midnightblue" points="1145.95,-296.9 1155.5,-301.5 1150.9,-291.95 1145.95,-296.9"/>
</g>
<!-- Node19 -->
<g id="node19" class="node">
<title>Node19</title>
<g id="a_node19"><a xlink:href="aligned__recycling__allocators_8hpp.html" target="_top" xlink:title=" ">
<polygon fill="white" stroke="black" points="454.5,-223.5 454.5,-264.5 609.5,-264.5 609.5,-223.5 454.5,-223.5"/>
<text text-anchor="start" x="462.5" y="-252.5" font-family="Helvetica,sans-Serif" font-size="10.00">include/cppuddle/memory</text>
<text text-anchor="start" x="462.5" y="-241.5" font-family="Helvetica,sans-Serif" font-size="10.00">_recycling/aligned_recycling</text>
<text text-anchor="middle" x="532" y="-230.5" font-family="Helvetica,sans-Serif" font-size="10.00">_allocators.hpp</text>
</a>
</g>
</g>
<!-- Node18&#45;&gt;Node19 -->
<g id="edge25" class="edge">
<title>Node18&#45;&gt;Node19</title>
<path fill="none" stroke="midnightblue" d="M1080.79,-309.87C953.21,-294.79 727.88,-268.15 609.55,-254.17"/>
<polygon fill="midnightblue" stroke="midnightblue" points="1080.6,-313.37 1090.94,-311.06 1081.42,-306.41 1080.6,-313.37"/>
</g>
<!-- Node22 -->
<g id="node22" class="node">
<title>Node22</title>
<g id="a_node22"><a xlink:href="cuda__recycling__allocators_8hpp.html" target="_top" xlink:title=" ">
<polygon fill="white" stroke="black" points="807.5,-223.5 807.5,-264.5 950.5,-264.5 950.5,-223.5 807.5,-223.5"/>
<text text-anchor="start" x="815.5" y="-252.5" font-family="Helvetica,sans-Serif" font-size="10.00">include/cppuddle/memory</text>
<text text-anchor="start" x="815.5" y="-241.5" font-family="Helvetica,sans-Serif" font-size="10.00">_recycling/cuda_recycling</text>
<text text-anchor="middle" x="879" y="-230.5" font-family="Helvetica,sans-Serif" font-size="10.00">_allocators.hpp</text>
</a>
</g>
</g>
<!-- Node18&#45;&gt;Node22 -->
<g id="edge28" class="edge">
<title>Node18&#45;&gt;Node22</title>
<path fill="none" stroke="midnightblue" d="M1088.97,-298.91C1045.08,-287.64 992.3,-274.09 950.64,-263.39"/>
<polygon fill="midnightblue" stroke="midnightblue" points="1088.22,-302.33 1098.77,-301.43 1089.96,-295.55 1088.22,-302.33"/>
</g>
<!-- Node26 -->
<g id="node26" class="node">
<title>Node26</title>
<g id="a_node26"><a xlink:href="std__recycling__allocators_8hpp.html" target="_top" xlink:title=" ">
<polygon fill="white" stroke="black" points="1144.5,-223.5 1144.5,-264.5 1287.5,-264.5 1287.5,-223.5 1144.5,-223.5"/>
<text text-anchor="start" x="1152.5" y="-252.5" font-family="Helvetica,sans-Serif" font-size="10.00">include/cppuddle/memory</text>
<text text-anchor="start" x="1152.5" y="-241.5" font-family="Helvetica,sans-Serif" font-size="10.00">_recycling/std_recycling</text>
<text text-anchor="middle" x="1216" y="-230.5" font-family="Helvetica,sans-Serif" font-size="10.00">_allocators.hpp</text>
</a>
</g>
</g>
<!-- Node18&#45;&gt;Node26 -->
<g id="edge40" class="edge">
<title>Node18&#45;&gt;Node26</title>
<path fill="none" stroke="midnightblue" d="M1190.39,-292.47C1195.42,-283.14 1200.89,-273.01 1205.48,-264.51"/>
<polygon fill="midnightblue" stroke="midnightblue" points="1187.23,-290.97 1185.56,-301.43 1193.39,-294.29 1187.23,-290.97"/>
</g>
<!-- Node29 -->
<g id="node29" class="node">
<title>Node29</title>
<g id="a_node29"><a xlink:href="hip__recycling__allocators_8hpp.html" target="_top" xlink:title=" ">
<polygon fill="white" stroke="black" points="1890.5,-223.5 1890.5,-264.5 2033.5,-264.5 2033.5,-223.5 1890.5,-223.5"/>
<text text-anchor="start" x="1898.5" y="-252.5" font-family="Helvetica,sans-Serif" font-size="10.00">include/cppuddle/memory</text>
<text text-anchor="start" x="1898.5" y="-241.5" font-family="Helvetica,sans-Serif" font-size="10.00">_recycling/hip_recycling</text>
<text text-anchor="middle" x="1962" y="-230.5" font-family="Helvetica,sans-Serif" font-size="10.00">_allocators.hpp</text>
</a>
</g>
</g>
<!-- Node18&#45;&gt;Node29 -->
<g id="edge47" class="edge">
<title>Node18&#45;&gt;Node29</title>
<path fill="none" stroke="midnightblue" d="M1269.49,-311.87C1428.96,-296.48 1748.01,-265.66 1890.45,-251.91"/>
<polygon fill="midnightblue" stroke="midnightblue" points="1268.84,-308.42 1259.22,-312.87 1269.51,-315.39 1268.84,-308.42"/>
</g>
<!-- Node32 -->
<g id="node32" class="node">
<title>Node32</title>
<g id="a_node32"><a xlink:href="sycl__recycling__allocators_8hpp.html" target="_top" xlink:title=" ">
<polygon fill="white" stroke="black" points="2063.5,-223.5 2063.5,-264.5 2206.5,-264.5 2206.5,-223.5 2063.5,-223.5"/>
<text text-anchor="start" x="2071.5" y="-252.5" font-family="Helvetica,sans-Serif" font-size="10.00">include/cppuddle/memory</text>
<text text-anchor="start" x="2071.5" y="-241.5" font-family="Helvetica,sans-Serif" font-size="10.00">_recycling/sycl_recycling</text>
<text text-anchor="middle" x="2135" y="-230.5" font-family="Helvetica,sans-Serif" font-size="10.00">_allocators.hpp</text>
</a>
</g>
</g>
<!-- Node18&#45;&gt;Node32 -->
<g id="edge51" class="edge">
<title>Node18&#45;&gt;Node32</title>
<path fill="none" stroke="midnightblue" d="M1269.5,-319.52C1429.47,-316 1763.5,-304.17 2043,-265 2049.64,-264.07 2056.51,-262.92 2063.37,-261.66"/>
<polygon fill="midnightblue" stroke="midnightblue" points="1269.14,-316.03 1259.22,-319.74 1269.29,-323.03 1269.14,-316.03"/>
</g>
<!-- Node34 -->
<g id="node34" class="node">
<title>Node34</title>
<g id="a_node34"><a xlink:href="recycling__kokkos__view_8hpp.html" target="_top" xlink:title=" ">
<polygon fill="white" stroke="black" points="1368.5,-223.5 1368.5,-264.5 1511.5,-264.5 1511.5,-223.5 1368.5,-223.5"/>
<text text-anchor="start" x="1376.5" y="-252.5" font-family="Helvetica,sans-Serif" font-size="10.00">include/cppuddle/memory</text>
<text text-anchor="start" x="1376.5" y="-241.5" font-family="Helvetica,sans-Serif" font-size="10.00">_recycling/util/recycling</text>
<text text-anchor="middle" x="1440" y="-230.5" font-family="Helvetica,sans-Serif" font-size="10.00">_kokkos_view.hpp</text>
</a>
</g>
</g>
<!-- Node18&#45;&gt;Node34 -->
<g id="edge53" class="edge">
<title>Node18&#45;&gt;Node34</title>
<path fill="none" stroke="midnightblue" d="M1253.17,-298.58C1290.89,-287.76 1335.7,-274.91 1371.99,-264.51"/>
<polygon fill="midnightblue" stroke="midnightblue" points="1251.89,-295.31 1243.24,-301.43 1253.82,-302.04 1251.89,-295.31"/>
</g>
<!-- Node20 -->
<g id="node20" class="node">
<title>Node20</title>
<g id="a_node20"><a xlink:href="aligned__buffer__util_8hpp.html" target="_top" xlink:title=" ">
<polygon fill="white" stroke="black" points="469.5,-151 469.5,-181 594.5,-181 594.5,-151 469.5,-151"/>
<text text-anchor="start" x="477.5" y="-169" font-family="Helvetica,sans-Serif" font-size="10.00">include/aligned_buffer</text>
<text text-anchor="middle" x="532" y="-158" font-family="Helvetica,sans-Serif" font-size="10.00">_util.hpp</text>
</a>
</g>
</g>
<!-- Node19&#45;&gt;Node20 -->
<g id="edge26" class="edge">
<title>Node19&#45;&gt;Node20</title>
<path fill="none" stroke="midnightblue" d="M532,-213.28C532,-202.25 532,-190.25 532,-181.23"/>
<polygon fill="midnightblue" stroke="midnightblue" points="528.5,-213.43 532,-223.43 535.5,-213.43 528.5,-213.43"/>
</g>
<!-- Node21 -->
<g id="node21" class="node">
<title>Node21</title>
<g id="a_node21"><a xlink:href="allocator__aligned__test_8cpp.html" target="_top" xlink:title=" ">
<polygon fill="white" stroke="black" points="323,-151 323,-181 451,-181 451,-151 323,-151"/>
<text text-anchor="start" x="331" y="-169" font-family="Helvetica,sans-Serif" font-size="10.00">tests/allocator_aligned</text>
<text text-anchor="middle" x="387" y="-158" font-family="Helvetica,sans-Serif" font-size="10.00">_test.cpp</text>
</a>
</g>
</g>
<!-- Node19&#45;&gt;Node21 -->
<g id="edge27" class="edge">
<title>Node19&#45;&gt;Node21</title>
<path fill="none" stroke="midnightblue" d="M485.53,-218.64C461.97,-206.3 434.19,-191.73 414.14,-181.23"/>
<polygon fill="midnightblue" stroke="midnightblue" points="484.18,-221.89 494.66,-223.43 487.43,-215.69 484.18,-221.89"/>
</g>
<!-- Node22&#45;&gt;Node8 -->
<g id="edge38" class="edge">
<title>Node22&#45;&gt;Node8</title>
<path fill="none" stroke="midnightblue" d="M797.56,-229.69C760.03,-221.2 715.94,-207.77 680,-187 656.87,-173.63 659.87,-158.81 637,-145 609.47,-128.37 575.84,-116.58 546.87,-108.6"/>
<polygon fill="midnightblue" stroke="midnightblue" points="796.94,-233.14 807.46,-231.85 798.43,-226.3 796.94,-233.14"/>
</g>
<!-- Node22&#45;&gt;Node9 -->
<g id="edge39" class="edge">
<title>Node22&#45;&gt;Node9</title>
<path fill="none" stroke="midnightblue" d="M797.28,-237.51C747.79,-231.06 685.15,-217.11 637,-187 616.64,-174.27 623.71,-157.16 603,-145 593.27,-139.29 459.65,-117.67 376.57,-104.65"/>
<polygon fill="midnightblue" stroke="midnightblue" points="796.96,-241 807.31,-238.74 797.81,-234.05 796.96,-241"/>
</g>
<!-- Node22&#45;&gt;Node13 -->
<g id="edge37" class="edge">
<title>Node22&#45;&gt;Node13</title>
<path fill="none" stroke="midnightblue" d="M879.04,-212.94C877.68,-192.16 873,-164.8 859,-145 844.56,-124.58 819.01,-110.96 799.86,-103.06"/>
<polygon fill="midnightblue" stroke="midnightblue" points="875.55,-213.3 879.48,-223.14 882.54,-212.99 875.55,-213.3"/>
</g>
<!-- Node22&#45;&gt;Node16 -->
<g id="edge34" class="edge">
<title>Node22&#45;&gt;Node16</title>
<path fill="none" stroke="midnightblue" d="M886.62,-213.22C894.76,-181.42 907.3,-132.4 913.41,-108.53"/>
<polygon fill="midnightblue" stroke="midnightblue" points="883.13,-212.72 884.05,-223.28 889.92,-214.46 883.13,-212.72"/>
</g>
<!-- Node23 -->
<g id="node23" class="node">
<title>Node23</title>
<g id="a_node23"><a xlink:href="cuda__recycling__device__buffer_8hpp.html" target="_top" xlink:title="Contains a RAII wrappers for CUDA device buffers. Intended to be used with the recycling allocators b...">
<polygon fill="white" stroke="black" points="689.5,-145.5 689.5,-186.5 850.5,-186.5 850.5,-145.5 689.5,-145.5"/>
<text text-anchor="start" x="697.5" y="-174.5" font-family="Helvetica,sans-Serif" font-size="10.00">include/cppuddle/memory</text>
<text text-anchor="start" x="697.5" y="-163.5" font-family="Helvetica,sans-Serif" font-size="10.00">_recycling/util/cuda_recycling</text>
<text text-anchor="middle" x="770" y="-152.5" font-family="Helvetica,sans-Serif" font-size="10.00">_device_buffer.hpp</text>
</a>
</g>
</g>
<!-- Node22&#45;&gt;Node23 -->
<g id="edge29" class="edge">
<title>Node22&#45;&gt;Node23</title>
<path fill="none" stroke="midnightblue" d="M842.62,-217.64C828.07,-207.49 811.57,-195.98 797.98,-186.51"/>
<polygon fill="midnightblue" stroke="midnightblue" points="840.73,-220.58 850.93,-223.43 844.73,-214.84 840.73,-220.58"/>
</g>
<!-- Node24 -->
<g id="node24" class="node">
<title>Node24</title>
<g id="a_node24"><a xlink:href="allocator__kokkos__executor__for__loop__test_8cpp.html" target="_top" xlink:title=" ">
<polygon fill="white" stroke="black" points="1425.5,-151 1425.5,-181 1578.5,-181 1578.5,-151 1425.5,-151"/>
<text text-anchor="start" x="1433.5" y="-169" font-family="Helvetica,sans-Serif" font-size="10.00">tests/allocator_kokkos</text>
<text text-anchor="middle" x="1502" y="-158" font-family="Helvetica,sans-Serif" font-size="10.00">_executor_for_loop_test.cpp</text>
</a>
</g>
</g>
<!-- Node22&#45;&gt;Node24 -->
<g id="edge35" class="edge">
<title>Node22&#45;&gt;Node24</title>
<path fill="none" stroke="midnightblue" d="M960.88,-237.65C1066.55,-230.01 1255.86,-213.86 1416,-187 1425.83,-185.35 1436.21,-183.25 1446.23,-181.03"/>
<polygon fill="midnightblue" stroke="midnightblue" points="960.34,-234.18 950.61,-238.38 960.83,-241.16 960.34,-234.18"/>
</g>
<!-- Node25 -->
<g id="node25" class="node">
<title>Node25</title>
<g id="a_node25"><a xlink:href="allocator__kokkos__test_8cpp.html" target="_top" xlink:title=" ">
<polygon fill="white" stroke="black" points="1153.5,-151 1153.5,-181 1278.5,-181 1278.5,-151 1153.5,-151"/>
<text text-anchor="start" x="1161.5" y="-169" font-family="Helvetica,sans-Serif" font-size="10.00">tests/allocator_kokkos</text>
<text text-anchor="middle" x="1216" y="-158" font-family="Helvetica,sans-Serif" font-size="10.00">_test.cpp</text>
</a>
</g>
</g>
<!-- Node22&#45;&gt;Node25 -->
<g id="edge36" class="edge">
<title>Node22&#45;&gt;Node25</title>
<path fill="none" stroke="midnightblue" d="M960.99,-224.51C1020.43,-211.1 1099.59,-193.25 1153.85,-181.02"/>
<polygon fill="midnightblue" stroke="midnightblue" points="959.87,-221.18 950.88,-226.79 961.41,-228 959.87,-221.18"/>
</g>
<!-- Node23&#45;&gt;Node8 -->
<g id="edge32" class="edge">
<title>Node23&#45;&gt;Node8</title>
<path fill="none" stroke="midnightblue" d="M679.89,-143.02C633.84,-131.78 579.15,-118.44 538.79,-108.6"/>
<polygon fill="midnightblue" stroke="midnightblue" points="679.34,-146.49 689.88,-145.46 681,-139.69 679.34,-146.49"/>
</g>
<!-- Node23&#45;&gt;Node9 -->
<g id="edge33" class="edge">
<title>Node23&#45;&gt;Node9</title>
<path fill="none" stroke="midnightblue" d="M679.16,-151.05C589.99,-137.35 456.15,-116.79 376.79,-104.61"/>
<polygon fill="midnightblue" stroke="midnightblue" points="678.84,-154.54 689.26,-152.6 679.91,-147.62 678.84,-154.54"/>
</g>
<!-- Node23&#45;&gt;Node13 -->
<g id="edge31" class="edge">
<title>Node23&#45;&gt;Node13</title>
<path fill="none" stroke="midnightblue" d="M772.12,-135.1C772.94,-123.53 773.82,-111.18 774.38,-103.17"/>
<polygon fill="midnightblue" stroke="midnightblue" points="768.61,-135.14 771.39,-145.36 775.59,-135.63 768.61,-135.14"/>
</g>
<!-- Node23&#45;&gt;Node16 -->
<g id="edge30" class="edge">
<title>Node23&#45;&gt;Node16</title>
<path fill="none" stroke="midnightblue" d="M820.01,-141.02C842.45,-130.25 868.15,-117.93 887.45,-108.67"/>
<polygon fill="midnightblue" stroke="midnightblue" points="818.45,-137.88 810.95,-145.36 821.48,-144.19 818.45,-137.88"/>
</g>
<!-- Node26&#45;&gt;Node7 -->
<g id="edge46" class="edge">
<title>Node26&#45;&gt;Node7</title>
<path fill="none" stroke="midnightblue" d="M1181.28,-217.35C1169.45,-208.15 1156.34,-197.47 1145,-187 1126.28,-169.73 1128.87,-156.21 1106,-145 1025.47,-105.51 792.8,-121.64 704,-109 701.28,-108.61 698.51,-108.19 695.71,-107.74"/>
<polygon fill="midnightblue" stroke="midnightblue" points="1179.18,-220.14 1189.24,-223.45 1183.44,-214.59 1179.18,-220.14"/>
</g>
<!-- Node26&#45;&gt;Node15 -->
<g id="edge41" class="edge">
<title>Node26&#45;&gt;Node15</title>
<path fill="none" stroke="midnightblue" d="M1156.24,-219.71C1117.84,-204.74 1070.21,-186.18 1042.94,-175.55"/>
<polygon fill="midnightblue" stroke="midnightblue" points="1155.19,-223.06 1165.78,-223.43 1157.74,-216.54 1155.19,-223.06"/>
</g>
<!-- Node26&#45;&gt;Node24 -->
<g id="edge43" class="edge">
<title>Node26&#45;&gt;Node24</title>
<path fill="none" stroke="midnightblue" d="M1297.68,-221.29C1346.34,-208.37 1406.67,-192.33 1449.13,-181.05"/>
<polygon fill="midnightblue" stroke="midnightblue" points="1296.57,-217.97 1287.8,-223.92 1298.36,-224.73 1296.57,-217.97"/>
</g>
<!-- Node26&#45;&gt;Node25 -->
<g id="edge45" class="edge">
<title>Node26&#45;&gt;Node25</title>
<path fill="none" stroke="midnightblue" d="M1216,-213.28C1216,-202.25 1216,-190.25 1216,-181.23"/>
<polygon fill="midnightblue" stroke="midnightblue" points="1212.5,-213.43 1216,-223.43 1219.5,-213.43 1212.5,-213.43"/>
</g>
<!-- Node27 -->
<g id="node27" class="node">
<title>Node27</title>
<g id="a_node27"><a xlink:href="allocator__hpx__test_8cpp.html" target="_top" xlink:title=" ">
<polygon fill="white" stroke="black" points="1297,-151 1297,-181 1407,-181 1407,-151 1297,-151"/>
<text text-anchor="start" x="1305" y="-169" font-family="Helvetica,sans-Serif" font-size="10.00">tests/allocator_hpx</text>
<text text-anchor="middle" x="1352" y="-158" font-family="Helvetica,sans-Serif" font-size="10.00">_test.cpp</text>
</a>
</g>
</g>
<!-- Node26&#45;&gt;Node27 -->
<g id="edge42" class="edge">
<title>Node26&#45;&gt;Node27</title>
<path fill="none" stroke="midnightblue" d="M1259.88,-218.48C1281.91,-206.17 1307.82,-191.69 1326.54,-181.23"/>
<polygon fill="midnightblue" stroke="midnightblue" points="1258.05,-215.49 1251.02,-223.43 1261.46,-221.61 1258.05,-215.49"/>
</g>
<!-- Node28 -->
<g id="node28" class="node">
<title>Node28</title>
<g id="a_node28"><a xlink:href="allocator__test_8cpp.html" target="_top" xlink:title=" ">
<polygon fill="white" stroke="black" points="1596.5,-156.5 1596.5,-175.5 1727.5,-175.5 1727.5,-156.5 1596.5,-156.5"/>
<text text-anchor="middle" x="1662" y="-163.5" font-family="Helvetica,sans-Serif" font-size="10.00">tests/allocator_test.cpp</text>
</a>
</g>
</g>
<!-- Node26&#45;&gt;Node28 -->
<g id="edge44" class="edge">
<title>Node26&#45;&gt;Node28</title>
<path fill="none" stroke="midnightblue" d="M1297.87,-231.18C1398.74,-216.55 1560.23,-192.82 1588,-187 1603.11,-183.83 1619.72,-179.43 1633.37,-175.56"/>
<polygon fill="midnightblue" stroke="midnightblue" points="1297.1,-227.76 1287.7,-232.66 1298.1,-234.69 1297.1,-227.76"/>
</g>
<!-- Node30 -->
<g id="node30" class="node">
<title>Node30</title>
<g id="a_node30"><a xlink:href="hip__recycling__device__buffer_8hpp.html" target="_top" xlink:title=" ">
<polygon fill="white" stroke="black" points="1886,-145.5 1886,-186.5 2038,-186.5 2038,-145.5 1886,-145.5"/>
<text text-anchor="start" x="1894" y="-174.5" font-family="Helvetica,sans-Serif" font-size="10.00">include/cppuddle/memory</text>
<text text-anchor="start" x="1894" y="-163.5" font-family="Helvetica,sans-Serif" font-size="10.00">_recycling/util/hip_recycling</text>
<text text-anchor="middle" x="1962" y="-152.5" font-family="Helvetica,sans-Serif" font-size="10.00">_device_buffer.hpp</text>
</a>
</g>
</g>
<!-- Node29&#45;&gt;Node30 -->
<g id="edge48" class="edge">
<title>Node29&#45;&gt;Node30</title>
<path fill="none" stroke="midnightblue" d="M1962,-213.3C1962,-204.3 1962,-194.65 1962,-186.51"/>
<polygon fill="midnightblue" stroke="midnightblue" points="1958.5,-213.43 1962,-223.43 1965.5,-213.43 1958.5,-213.43"/>
</g>
<!-- Node31 -->
<g id="node31" class="node">
<title>Node31</title>
<g id="a_node31"><a xlink:href="hip__buffer__util_8hpp.html" target="_top" xlink:title=" ">
<polygon fill="white" stroke="black" points="1962,-78.5 1962,-108.5 2066,-108.5 2066,-78.5 1962,-78.5"/>
<text text-anchor="start" x="1970" y="-96.5" font-family="Helvetica,sans-Serif" font-size="10.00">include/hip_buffer</text>
<text text-anchor="middle" x="2014" y="-85.5" font-family="Helvetica,sans-Serif" font-size="10.00">_util.hpp</text>
</a>
</g>
</g>
<!-- Node29&#45;&gt;Node31 -->
<g id="edge50" class="edge">
<title>Node29&#45;&gt;Node31</title>
<path fill="none" stroke="midnightblue" d="M2017.57,-217.78C2029.35,-209.7 2040.26,-199.52 2047,-187 2061.15,-160.73 2040.53,-127.15 2026.07,-108.53"/>
<polygon fill="midnightblue" stroke="midnightblue" points="2015.45,-214.98 2008.89,-223.29 2019.21,-220.89 2015.45,-214.98"/>
</g>
<!-- Node30&#45;&gt;Node31 -->
<g id="edge49" class="edge">
<title>Node30&#45;&gt;Node31</title>
<path fill="none" stroke="midnightblue" d="M1982.55,-137.14C1989.68,-127.47 1997.39,-117.02 2003.38,-108.89"/>
<polygon fill="midnightblue" stroke="midnightblue" points="1979.6,-135.24 1976.48,-145.36 1985.24,-139.39 1979.6,-135.24"/>
</g>
<!-- Node33 -->
<g id="node33" class="node">
<title>Node33</title>
<g id="a_node33"><a xlink:href="sycl__buffer__util_8hpp.html" target="_top" xlink:title=" ">
<polygon fill="white" stroke="black" points="2094,-151 2094,-181 2202,-181 2202,-151 2094,-151"/>
<text text-anchor="start" x="2102" y="-169" font-family="Helvetica,sans-Serif" font-size="10.00">include/sycl_buffer</text>
<text text-anchor="middle" x="2148" y="-158" font-family="Helvetica,sans-Serif" font-size="10.00">_util.hpp</text>
</a>
</g>
</g>
<!-- Node32&#45;&gt;Node33 -->
<g id="edge52" class="edge">
<title>Node32&#45;&gt;Node33</title>
<path fill="none" stroke="midnightblue" d="M2140.08,-213.28C2141.97,-202.25 2144.02,-190.25 2145.57,-181.23"/>
<polygon fill="midnightblue" stroke="midnightblue" points="2136.58,-212.98 2138.35,-223.43 2143.48,-214.16 2136.58,-212.98"/>
</g>
<!-- Node34&#45;&gt;Node24 -->
<g id="edge55" class="edge">
<title>Node34&#45;&gt;Node24</title>
<path fill="none" stroke="midnightblue" d="M1462.31,-215.65C1471.81,-204 1482.51,-190.9 1490.4,-181.23"/>
<polygon fill="midnightblue" stroke="midnightblue" points="1459.58,-213.47 1455.97,-223.43 1465,-217.89 1459.58,-213.47"/>
</g>
<!-- Node34&#45;&gt;Node25 -->
<g id="edge56" class="edge">
<title>Node34&#45;&gt;Node25</title>
<path fill="none" stroke="midnightblue" d="M1372.49,-220.1C1335.1,-207.41 1289.8,-192.04 1257.58,-181.11"/>
<polygon fill="midnightblue" stroke="midnightblue" points="1371.72,-223.53 1382.31,-223.43 1373.97,-216.9 1371.72,-223.53"/>
</g>
<!-- Node35 -->
<g id="node35" class="node">
<title>Node35</title>
<g id="a_node35"><a xlink:href="kokkos__buffer__util_8hpp.html" target="_top" xlink:title=" ">
<polygon fill="white" stroke="black" points="1746,-151 1746,-181 1868,-181 1868,-151 1746,-151"/>
<text text-anchor="start" x="1754" y="-169" font-family="Helvetica,sans-Serif" font-size="10.00">include/kokkos_buffer</text>
<text text-anchor="middle" x="1807" y="-158" font-family="Helvetica,sans-Serif" font-size="10.00">_util.hpp</text>
</a>
</g>
</g>
<!-- Node34&#45;&gt;Node35 -->
<g id="edge54" class="edge">
<title>Node34&#45;&gt;Node35</title>
<path fill="none" stroke="midnightblue" d="M1521.96,-229.63C1581.84,-219.36 1664.84,-204.07 1737,-187 1744.5,-185.22 1752.4,-183.16 1760.09,-181.04"/>
<polygon fill="midnightblue" stroke="midnightblue" points="1521.07,-226.23 1511.8,-231.37 1522.25,-233.14 1521.07,-226.23"/>
</g>
</g>
</svg>
