<?xml version="1.0" encoding="UTF-8" standalone="no"?>
<!DOCTYPE svg PUBLIC "-//W3C//DTD SVG 1.1//EN"
 "http://www.w3.org/Graphics/SVG/1.1/DTD/svg11.dtd">
<!-- Generated by graphviz version 2.43.0 (0)
 -->
<!-- Title: include/cppuddle/common/config.hpp Pages: 1 -->
<svg width="2334pt" height="552pt"
 viewBox="0.00 0.00 2334.00 552.00" xmlns="http://www.w3.org/2000/svg" xmlns:xlink="http://www.w3.org/1999/xlink">
<g id="graph0" class="graph" transform="scale(1 1) rotate(0) translate(4 548)">
<title>include/cppuddle/common/config.hpp</title>
<polygon fill="white" stroke="transparent" points="-4,4 -4,-548 2330,-548 2330,4 -4,4"/>
<!-- Node1 -->
<g id="node1" class="node">
<title>Node1</title>
<g id="a_node1"><a xlink:title=" ">
<polygon fill="#bfbfbf" stroke="black" points="946.5,-513.5 946.5,-543.5 1091.5,-543.5 1091.5,-513.5 946.5,-513.5"/>
<text text-anchor="start" x="954.5" y="-531.5" font-family="Helvetica,sans-Serif" font-size="10.00">include/cppuddle/common</text>
<text text-anchor="middle" x="1019" y="-520.5" font-family="Helvetica,sans-Serif" font-size="10.00">/config.hpp</text>
</a>
</g>
</g>
<!-- Node2 -->
<g id="node2" class="node">
<title>Node2</title>
<g id="a_node2"><a xlink:href="executor__pools__management_8hpp.html" target="_top" xlink:title=" ">
<polygon fill="white" stroke="black" points="578,-435.5 578,-476.5 722,-476.5 722,-435.5 578,-435.5"/>
<text text-anchor="start" x="586" y="-464.5" font-family="Helvetica,sans-Serif" font-size="10.00">include/cppuddle/executor</text>
<text text-anchor="start" x="586" y="-453.5" font-family="Helvetica,sans-Serif" font-size="10.00">_recycling/detail/executor</text>
<text text-anchor="middle" x="650" y="-442.5" font-family="Helvetica,sans-Serif" font-size="10.00">_pools_management.hpp</text>
</a>
</g>
</g>
<!-- Node1&#45;&gt;Node2 -->
<g id="edge1" class="edge">
<title>Node1&#45;&gt;Node2</title>
<path fill="none" stroke="midnightblue" d="M936.22,-513.04C881.33,-503.29 807.77,-489.89 743,-477 736.2,-475.65 729.12,-474.2 722.05,-472.72"/>
<polygon fill="midnightblue" stroke="midnightblue" points="935.79,-516.52 946.24,-514.82 937.01,-509.63 935.79,-516.52"/>
</g>
<!-- Node4 -->
<g id="node4" class="node">
<title>Node4</title>
<g id="a_node4"><a xlink:href="aggregation__executors__and__allocators_8hpp.html" target="_top" xlink:title=" ">
<polygon fill="white" stroke="black" points="654.5,-279.5 654.5,-320.5 827.5,-320.5 827.5,-279.5 654.5,-279.5"/>
<text text-anchor="start" x="662.5" y="-308.5" font-family="Helvetica,sans-Serif" font-size="10.00">include/cppuddle/kernel</text>
<text text-anchor="start" x="662.5" y="-297.5" font-family="Helvetica,sans-Serif" font-size="10.00">_aggregation/detail/aggregation</text>
<text text-anchor="middle" x="741" y="-286.5" font-family="Helvetica,sans-Serif" font-size="10.00">_executors_and_allocators.hpp</text>
</a>
</g>
</g>
<!-- Node1&#45;&gt;Node4 -->
<g id="edge17" class="edge">
<title>Node1&#45;&gt;Node4</title>
<path fill="none" stroke="midnightblue" d="M993.69,-506.88C940.48,-463.52 817.62,-363.43 765.3,-320.8"/>
<polygon fill="midnightblue" stroke="midnightblue" points="991.65,-509.73 1001.61,-513.33 996.07,-504.3 991.65,-509.73"/>
</g>
<!-- Node14 -->
<g id="node14" class="node">
<title>Node14</title>
<g id="a_node14"><a xlink:href="buffer__manager_8hpp.html" target="_top" xlink:title=" ">
<polygon fill="white" stroke="black" points="2174,-134.5 2174,-153.5 2326,-153.5 2326,-134.5 2174,-134.5"/>
<text text-anchor="middle" x="2250" y="-141.5" font-family="Helvetica,sans-Serif" font-size="10.00">include/buffer_manager.hpp</text>
</a>
</g>
</g>
<!-- Node1&#45;&gt;Node14 -->
<g id="edge15" class="edge">
<title>Node1&#45;&gt;Node14</title>
<path fill="none" stroke="midnightblue" d="M1101.88,-526.01C1374.18,-520.03 2224,-492.29 2224,-379 2224,-379 2224,-379 2224,-299 2224,-242.87 2241,-176.83 2247.51,-153.6"/>
<polygon fill="midnightblue" stroke="midnightblue" points="1101.59,-522.52 1091.66,-526.23 1101.74,-529.51 1101.59,-522.52"/>
</g>
<!-- Node16 -->
<g id="node16" class="node">
<title>Node16</title>
<g id="a_node16"><a xlink:href="buffer__management_8hpp.html" target="_top" xlink:title=" ">
<polygon fill="white" stroke="black" points="1095.5,-357.5 1095.5,-398.5 1238.5,-398.5 1238.5,-357.5 1095.5,-357.5"/>
<text text-anchor="start" x="1103.5" y="-386.5" font-family="Helvetica,sans-Serif" font-size="10.00">include/cppuddle/memory</text>
<text text-anchor="start" x="1103.5" y="-375.5" font-family="Helvetica,sans-Serif" font-size="10.00">_recycling/detail/buffer</text>
<text text-anchor="middle" x="1167" y="-364.5" font-family="Helvetica,sans-Serif" font-size="10.00">_management.hpp</text>
</a>
</g>
</g>
<!-- Node1&#45;&gt;Node16 -->
<g id="edge18" class="edge">
<title>Node1&#45;&gt;Node16</title>
<path fill="none" stroke="midnightblue" d="M1040.33,-506.09C1069.06,-477.27 1119.77,-426.39 1147.52,-398.55"/>
<polygon fill="midnightblue" stroke="midnightblue" points="1037.77,-503.71 1033.19,-513.26 1042.73,-508.65 1037.77,-503.71"/>
</g>
<!-- Node3 -->
<g id="node3" class="node">
<title>Node3</title>
<g id="a_node3"><a xlink:href="executor__pools__interface_8hpp.html" target="_top" xlink:title=" ">
<polygon fill="white" stroke="black" points="554,-357.5 554,-398.5 698,-398.5 698,-357.5 554,-357.5"/>
<text text-anchor="start" x="562" y="-386.5" font-family="Helvetica,sans-Serif" font-size="10.00">include/cppuddle/executor</text>
<text text-anchor="start" x="562" y="-375.5" font-family="Helvetica,sans-Serif" font-size="10.00">_recycling/executor_pools</text>
<text text-anchor="middle" x="626" y="-364.5" font-family="Helvetica,sans-Serif" font-size="10.00">_interface.hpp</text>
</a>
</g>
</g>
<!-- Node2&#45;&gt;Node3 -->
<g id="edge2" class="edge">
<title>Node2&#45;&gt;Node3</title>
<path fill="none" stroke="midnightblue" d="M640.8,-425.88C637.91,-416.72 634.79,-406.83 632.16,-398.51"/>
<polygon fill="midnightblue" stroke="midnightblue" points="637.47,-426.95 643.82,-435.43 644.15,-424.84 637.47,-426.95"/>
</g>
<!-- Node3&#45;&gt;Node4 -->
<g id="edge3" class="edge">
<title>Node3&#45;&gt;Node4</title>
<path fill="none" stroke="midnightblue" d="M664.38,-351.64C679.74,-341.49 697.15,-329.98 711.49,-320.51"/>
<polygon fill="midnightblue" stroke="midnightblue" points="662.03,-348.99 655.62,-357.43 665.89,-354.83 662.03,-348.99"/>
</g>
<!-- Node10 -->
<g id="node10" class="node">
<title>Node10</title>
<g id="a_node10"><a xlink:href="work__aggregation__test_8cpp.html" target="_top" xlink:title=" ">
<polygon fill="white" stroke="black" points="656.5,-56.5 656.5,-86.5 787.5,-86.5 787.5,-56.5 656.5,-56.5"/>
<text text-anchor="start" x="664.5" y="-74.5" font-family="Helvetica,sans-Serif" font-size="10.00">tests/work_aggregation</text>
<text text-anchor="middle" x="722" y="-63.5" font-family="Helvetica,sans-Serif" font-size="10.00">_test.cpp</text>
</a>
</g>
</g>
<!-- Node3&#45;&gt;Node10 -->
<g id="edge14" class="edge">
<title>Node3&#45;&gt;Node10</title>
<path fill="none" stroke="midnightblue" d="M543.63,-374.65C449.22,-367.2 297.1,-339.77 216,-243 181.6,-201.95 169.01,-162.66 205,-123 232.76,-92.41 533.89,-91.03 575,-87 601.54,-84.4 630.78,-81.52 656.14,-79.01"/>
<polygon fill="midnightblue" stroke="midnightblue" points="543.49,-378.15 553.72,-375.38 544,-371.16 543.49,-378.15"/>
</g>
<!-- Node11 -->
<g id="node11" class="node">
<title>Node11</title>
<g id="a_node11"><a xlink:href="stream__manager_8hpp.html" target="_top" xlink:title=" ">
<polygon fill="white" stroke="black" points="0,-290.5 0,-309.5 158,-309.5 158,-290.5 0,-290.5"/>
<text text-anchor="middle" x="79" y="-297.5" font-family="Helvetica,sans-Serif" font-size="10.00">include/stream_manager.hpp</text>
</a>
</g>
</g>
<!-- Node3&#45;&gt;Node11 -->
<g id="edge11" class="edge">
<title>Node3&#45;&gt;Node11</title>
<path fill="none" stroke="midnightblue" d="M543.77,-369.08C452.57,-359.79 301.26,-342.83 172,-321 153.11,-317.81 132.24,-313.4 115.07,-309.54"/>
<polygon fill="midnightblue" stroke="midnightblue" points="543.46,-372.57 553.77,-370.1 544.17,-365.61 543.46,-372.57"/>
</g>
<!-- Node12 -->
<g id="node12" class="node">
<title>Node12</title>
<g id="a_node12"><a xlink:href="stream__test_8hpp.html" target="_top" xlink:title=" ">
<polygon fill="white" stroke="black" points="1170.5,-62 1170.5,-81 1293.5,-81 1293.5,-62 1170.5,-62"/>
<text text-anchor="middle" x="1232" y="-69" font-family="Helvetica,sans-Serif" font-size="10.00">tests/stream_test.hpp</text>
</a>
</g>
</g>
<!-- Node3&#45;&gt;Node12 -->
<g id="edge12" class="edge">
<title>Node3&#45;&gt;Node12</title>
<path fill="none" stroke="midnightblue" d="M617.43,-347.53C603.97,-294.38 585.19,-182.5 645,-123 685.82,-82.39 1104.96,-94.86 1162,-87 1172.94,-85.49 1184.74,-83.28 1195.47,-81.04"/>
<polygon fill="midnightblue" stroke="midnightblue" points="614.08,-348.57 620.02,-357.34 620.85,-346.78 614.08,-348.57"/>
</g>
<!-- Node5 -->
<g id="node5" class="node">
<title>Node5</title>
<g id="a_node5"><a xlink:href="aggregation__executor__pools_8hpp.html" target="_top" xlink:title=" ">
<polygon fill="white" stroke="black" points="386.5,-201.5 386.5,-242.5 559.5,-242.5 559.5,-201.5 386.5,-201.5"/>
<text text-anchor="start" x="394.5" y="-230.5" font-family="Helvetica,sans-Serif" font-size="10.00">include/cppuddle/kernel</text>
<text text-anchor="start" x="394.5" y="-219.5" font-family="Helvetica,sans-Serif" font-size="10.00">_aggregation/detail/aggregation</text>
<text text-anchor="middle" x="473" y="-208.5" font-family="Helvetica,sans-Serif" font-size="10.00">_executor_pools.hpp</text>
</a>
</g>
</g>
<!-- Node4&#45;&gt;Node5 -->
<g id="edge4" class="edge">
<title>Node4&#45;&gt;Node5</title>
<path fill="none" stroke="midnightblue" d="M661.94,-276.58C623.8,-265.76 578.48,-252.91 541.78,-242.51"/>
<polygon fill="midnightblue" stroke="midnightblue" points="661.41,-280.07 671.98,-279.43 663.32,-273.33 661.41,-280.07"/>
</g>
<!-- Node6 -->
<g id="node6" class="node">
<title>Node6</title>
<g id="a_node6"><a xlink:href="kernel__aggregation__interface_8hpp.html" target="_top" xlink:title=" ">
<polygon fill="white" stroke="black" points="421.5,-123.5 421.5,-164.5 598.5,-164.5 598.5,-123.5 421.5,-123.5"/>
<text text-anchor="start" x="429.5" y="-152.5" font-family="Helvetica,sans-Serif" font-size="10.00">include/cppuddle/kernel</text>
<text text-anchor="start" x="429.5" y="-141.5" font-family="Helvetica,sans-Serif" font-size="10.00">_aggregation/kernel_aggregation</text>
<text text-anchor="middle" x="510" y="-130.5" font-family="Helvetica,sans-Serif" font-size="10.00">_interface.hpp</text>
</a>
</g>
</g>
<!-- Node4&#45;&gt;Node6 -->
<g id="edge10" class="edge">
<title>Node4&#45;&gt;Node6</title>
<path fill="none" stroke="midnightblue" d="M703.28,-273.85C657.44,-243.3 581.08,-192.39 539.38,-164.59"/>
<polygon fill="midnightblue" stroke="midnightblue" points="701.48,-276.86 711.74,-279.5 705.36,-271.04 701.48,-276.86"/>
</g>
<!-- Node5&#45;&gt;Node6 -->
<g id="edge5" class="edge">
<title>Node5&#45;&gt;Node6</title>
<path fill="none" stroke="midnightblue" d="M487.03,-192.17C491.53,-182.93 496.41,-172.92 500.5,-164.51"/>
<polygon fill="midnightblue" stroke="midnightblue" points="483.76,-190.9 482.53,-201.43 490.05,-193.97 483.76,-190.9"/>
</g>
<!-- Node7 -->
<g id="node7" class="node">
<title>Node7</title>
<g id="a_node7"><a xlink:href="aggregation__manager_8hpp.html" target="_top" xlink:title=" ">
<polygon fill="white" stroke="black" points="453.5,-56.5 453.5,-86.5 566.5,-86.5 566.5,-56.5 453.5,-56.5"/>
<text text-anchor="start" x="461.5" y="-74.5" font-family="Helvetica,sans-Serif" font-size="10.00">include/aggregation</text>
<text text-anchor="middle" x="510" y="-63.5" font-family="Helvetica,sans-Serif" font-size="10.00">_manager.hpp</text>
</a>
</g>
</g>
<!-- Node6&#45;&gt;Node7 -->
<g id="edge6" class="edge">
<title>Node6&#45;&gt;Node7</title>
<path fill="none" stroke="midnightblue" d="M510,-113.08C510,-104.01 510,-94.45 510,-86.89"/>
<polygon fill="midnightblue" stroke="midnightblue" points="506.5,-113.36 510,-123.36 513.5,-113.36 506.5,-113.36"/>
</g>
<!-- Node8 -->
<g id="node8" class="node">
<title>Node8</title>
<g id="a_node8"><a xlink:href="work__aggregation__cpu__triad_8cpp.html" target="_top" xlink:title=" ">
<polygon fill="white" stroke="black" points="1021.5,-56.5 1021.5,-86.5 1152.5,-86.5 1152.5,-56.5 1021.5,-56.5"/>
<text text-anchor="start" x="1029.5" y="-74.5" font-family="Helvetica,sans-Serif" font-size="10.00">tests/work_aggregation</text>
<text text-anchor="middle" x="1087" y="-63.5" font-family="Helvetica,sans-Serif" font-size="10.00">_cpu_triad.cpp</text>
</a>
</g>
</g>
<!-- Node6&#45;&gt;Node8 -->
<g id="edge7" class="edge">
<title>Node6&#45;&gt;Node8</title>
<path fill="none" stroke="midnightblue" d="M608.7,-123.48C609.81,-123.32 610.91,-123.16 612,-123 789.15,-97.75 835.85,-112.24 1013,-87 1015.72,-86.61 1018.49,-86.19 1021.29,-85.74"/>
<polygon fill="midnightblue" stroke="midnightblue" points="607.98,-120.05 598.64,-125.04 609.06,-126.97 607.98,-120.05"/>
</g>
<!-- Node9 -->
<g id="node9" class="node">
<title>Node9</title>
<g id="a_node9"><a xlink:href="work__aggregation__cuda__triad_8cpp.html" target="_top" xlink:title=" ">
<polygon fill="white" stroke="black" points="872.5,-56.5 872.5,-86.5 1003.5,-86.5 1003.5,-56.5 872.5,-56.5"/>
<text text-anchor="start" x="880.5" y="-74.5" font-family="Helvetica,sans-Serif" font-size="10.00">tests/work_aggregation</text>
<text text-anchor="middle" x="938" y="-63.5" font-family="Helvetica,sans-Serif" font-size="10.00">_cuda_triad.cpp</text>
</a>
</g>
</g>
<!-- Node6&#45;&gt;Node9 -->
<g id="edge8" class="edge">
<title>Node6&#45;&gt;Node9</title>
<path fill="none" stroke="midnightblue" d="M608.72,-123.58C609.82,-123.38 610.91,-123.19 612,-123 701.98,-107.22 806.38,-91.5 872.31,-81.89"/>
<polygon fill="midnightblue" stroke="midnightblue" points="607.91,-120.17 598.69,-125.39 609.16,-127.06 607.91,-120.17"/>
</g>
<!-- Node6&#45;&gt;Node10 -->
<g id="edge9" class="edge">
<title>Node6&#45;&gt;Node10</title>
<path fill="none" stroke="midnightblue" d="M578.45,-120.24C611.73,-109.17 650.68,-96.22 679.61,-86.6"/>
<polygon fill="midnightblue" stroke="midnightblue" points="577.16,-116.98 568.77,-123.46 579.37,-123.62 577.16,-116.98"/>
</g>
<!-- Node13 -->
<g id="node13" class="node">
<title>Node13</title>
<g id="a_node13"><a xlink:href="stream__test_8cpp.html" target="_top" xlink:title=" ">
<polygon fill="white" stroke="black" points="1171,-0.5 1171,-19.5 1293,-19.5 1293,-0.5 1171,-0.5"/>
<text text-anchor="middle" x="1232" y="-7.5" font-family="Helvetica,sans-Serif" font-size="10.00">tests/stream_test.cpp</text>
</a>
</g>
</g>
<!-- Node12&#45;&gt;Node13 -->
<g id="edge13" class="edge">
<title>Node12&#45;&gt;Node13</title>
<path fill="none" stroke="midnightblue" d="M1232,-51.82C1232,-41 1232,-27.9 1232,-19.51"/>
<polygon fill="midnightblue" stroke="midnightblue" points="1228.5,-51.98 1232,-61.98 1235.5,-51.98 1228.5,-51.98"/>
</g>
<!-- Node15 -->
<g id="node15" class="node">
<title>Node15</title>
<g id="a_node15"><a xlink:href="cuda__buffer__util_8hpp.html" target="_top" xlink:title=" ">
<polygon fill="white" stroke="black" points="1318,-56.5 1318,-86.5 1430,-86.5 1430,-56.5 1318,-56.5"/>
<text text-anchor="start" x="1326" y="-74.5" font-family="Helvetica,sans-Serif" font-size="10.00">include/cuda_buffer</text>
<text text-anchor="middle" x="1374" y="-63.5" font-family="Helvetica,sans-Serif" font-size="10.00">_util.hpp</text>
</a>
</g>
</g>
<!-- Node14&#45;&gt;Node15 -->
<g id="edge16" class="edge">
<title>Node14&#45;&gt;Node15</title>
<path fill="none" stroke="midnightblue" d="M2209.35,-131.98C2195.39,-128.58 2179.6,-125.17 2165,-123 1891.75,-82.42 1560.64,-74.43 1430.45,-72.87"/>
<polygon fill="midnightblue" stroke="midnightblue" points="2208.6,-135.4 2219.15,-134.43 2210.3,-128.61 2208.6,-135.4"/>
</g>
<!-- Node16&#45;&gt;Node4 -->
<g id="edge54" class="edge">
<title>Node16&#45;&gt;Node4</title>
<path fill="none" stroke="midnightblue" d="M1085.04,-362.38C1011.23,-349.21 903.08,-329.92 827.81,-316.49"/>
<polygon fill="midnightblue" stroke="midnightblue" points="1084.76,-365.88 1095.22,-364.19 1085.99,-358.99 1084.76,-365.88"/>
</g>
<!-- Node16&#45;&gt;Node14 -->
<g id="edge19" class="edge">
<title>Node16&#45;&gt;Node14</title>
<path fill="none" stroke="midnightblue" d="M1248.78,-372.07C1405.09,-360.99 1755.81,-328.08 2038,-243 2115.64,-219.59 2201.36,-172.94 2235.15,-153.66"/>
<polygon fill="midnightblue" stroke="midnightblue" points="1248.5,-368.58 1238.77,-372.77 1248.99,-375.57 1248.5,-368.58"/>
</g>
<!-- Node17 -->
<g id="node17" class="node">
<title>Node17</title>
<g id="a_node17"><a xlink:href="buffer__management__interface_8hpp.html" target="_top" xlink:title=" ">
<polygon fill="white" stroke="black" points="1116,-279.5 1116,-320.5 1284,-320.5 1284,-279.5 1116,-279.5"/>
<text text-anchor="start" x="1124" y="-308.5" font-family="Helvetica,sans-Serif" font-size="10.00">include/cppuddle/memory</text>
<text text-anchor="start" x="1124" y="-297.5" font-family="Helvetica,sans-Serif" font-size="10.00">_recycling/buffer_management</text>
<text text-anchor="middle" x="1200" y="-286.5" font-family="Helvetica,sans-Serif" font-size="10.00">_interface.hpp</text>
</a>
</g>
</g>
<!-- Node16&#45;&gt;Node17 -->
<g id="edge20" class="edge">
<title>Node16&#45;&gt;Node17</title>
<path fill="none" stroke="midnightblue" d="M1179.52,-348.17C1183.53,-338.93 1187.88,-328.92 1191.53,-320.51"/>
<polygon fill="midnightblue" stroke="midnightblue" points="1176.27,-346.86 1175.5,-357.43 1182.69,-349.65 1176.27,-346.86"/>
</g>
<!-- Node17&#45;&gt;Node14 -->
<g id="edge21" class="edge">
<title>Node17&#45;&gt;Node14</title>
<path fill="none" stroke="midnightblue" d="M1294.05,-299.17C1436.93,-297.81 1716.62,-288.82 1949,-243 2057.65,-221.58 2181.74,-173.16 2229.65,-153.52"/>
<polygon fill="midnightblue" stroke="midnightblue" points="1293.97,-295.67 1284,-299.25 1294.03,-302.67 1293.97,-295.67"/>
</g>
<!-- Node18 -->
<g id="node18" class="node">
<title>Node18</title>
<g id="a_node18"><a xlink:href="aligned__recycling__allocators_8hpp.html" target="_top" xlink:title=" ">
<polygon fill="white" stroke="black" points="910.5,-201.5 910.5,-242.5 1065.5,-242.5 1065.5,-201.5 910.5,-201.5"/>
<text text-anchor="start" x="918.5" y="-230.5" font-family="Helvetica,sans-Serif" font-size="10.00">include/cppuddle/memory</text>
<text text-anchor="start" x="918.5" y="-219.5" font-family="Helvetica,sans-Serif" font-size="10.00">_recycling/aligned_recycling</text>
<text text-anchor="middle" x="988" y="-208.5" font-family="Helvetica,sans-Serif" font-size="10.00">_allocators.hpp</text>
</a>
</g>
</g>
<!-- Node17&#45;&gt;Node18 -->
<g id="edge22" class="edge">
<title>Node17&#45;&gt;Node18</title>
<path fill="none" stroke="midnightblue" d="M1135.92,-276.03C1106.07,-265.33 1070.94,-252.73 1042.41,-242.51"/>
<polygon fill="midnightblue" stroke="midnightblue" points="1134.81,-279.35 1145.4,-279.43 1137.17,-272.76 1134.81,-279.35"/>
</g>
<!-- Node21 -->
<g id="node21" class="node">
<title>Node21</title>
<g id="a_node21"><a xlink:href="cuda__recycling__allocators_8hpp.html" target="_top" xlink:title=" ">
<polygon fill="white" stroke="black" points="1193.5,-201.5 1193.5,-242.5 1336.5,-242.5 1336.5,-201.5 1193.5,-201.5"/>
<text text-anchor="start" x="1201.5" y="-230.5" font-family="Helvetica,sans-Serif" font-size="10.00">include/cppuddle/memory</text>
<text text-anchor="start" x="1201.5" y="-219.5" font-family="Helvetica,sans-Serif" font-size="10.00">_recycling/cuda_recycling</text>
<text text-anchor="middle" x="1265" y="-208.5" font-family="Helvetica,sans-Serif" font-size="10.00">_allocators.hpp</text>
</a>
</g>
</g>
<!-- Node17&#45;&gt;Node21 -->
<g id="edge25" class="edge">
<title>Node17&#45;&gt;Node21</title>
<path fill="none" stroke="midnightblue" d="M1223.41,-271.63C1231.65,-261.99 1240.74,-251.36 1248.32,-242.51"/>
<polygon fill="midnightblue" stroke="midnightblue" points="1220.58,-269.55 1216.74,-279.43 1225.9,-274.1 1220.58,-269.55"/>
</g>
<!-- Node25 -->
<g id="node25" class="node">
<title>Node25</title>
<g id="a_node25"><a xlink:href="std__recycling__allocators_8hpp.html" target="_top" xlink:title=" ">
<polygon fill="white" stroke="black" points="1796.5,-201.5 1796.5,-242.5 1939.5,-242.5 1939.5,-201.5 1796.5,-201.5"/>
<text text-anchor="start" x="1804.5" y="-230.5" font-family="Helvetica,sans-Serif" font-size="10.00">include/cppuddle/memory</text>
<text text-anchor="start" x="1804.5" y="-219.5" font-family="Helvetica,sans-Serif" font-size="10.00">_recycling/std_recycling</text>
<text text-anchor="middle" x="1868" y="-208.5" font-family="Helvetica,sans-Serif" font-size="10.00">_allocators.hpp</text>
</a>
</g>
</g>
<!-- Node17&#45;&gt;Node25 -->
<g id="edge37" class="edge">
<title>Node17&#45;&gt;Node25</title>
<path fill="none" stroke="midnightblue" d="M1294.6,-288.24C1429.71,-272.87 1674.99,-244.96 1796.22,-231.17"/>
<polygon fill="midnightblue" stroke="midnightblue" points="1293.8,-284.8 1284.26,-289.41 1294.6,-291.76 1293.8,-284.8"/>
</g>
<!-- Node28 -->
<g id="node28" class="node">
<title>Node28</title>
<g id="a_node28"><a xlink:href="hip__recycling__allocators_8hpp.html" target="_top" xlink:title=" ">
<polygon fill="white" stroke="black" points="225.5,-201.5 225.5,-242.5 368.5,-242.5 368.5,-201.5 225.5,-201.5"/>
<text text-anchor="start" x="233.5" y="-230.5" font-family="Helvetica,sans-Serif" font-size="10.00">include/cppuddle/memory</text>
<text text-anchor="start" x="233.5" y="-219.5" font-family="Helvetica,sans-Serif" font-size="10.00">_recycling/hip_recycling</text>
<text text-anchor="middle" x="297" y="-208.5" font-family="Helvetica,sans-Serif" font-size="10.00">_allocators.hpp</text>
</a>
</g>
</g>
<!-- Node17&#45;&gt;Node28 -->
<g id="edge44" class="edge">
<title>Node17&#45;&gt;Node28</title>
<path fill="none" stroke="midnightblue" d="M1105.61,-293.52C904.7,-281.73 447.3,-254.09 377,-243 374.31,-242.58 371.58,-242.11 368.83,-241.6"/>
<polygon fill="midnightblue" stroke="midnightblue" points="1105.66,-297.03 1115.85,-294.12 1106.07,-290.04 1105.66,-297.03"/>
</g>
<!-- Node31 -->
<g id="node31" class="node">
<title>Node31</title>
<g id="a_node31"><a xlink:href="sycl__recycling__allocators_8hpp.html" target="_top" xlink:title=" ">
<polygon fill="white" stroke="black" points="702.5,-201.5 702.5,-242.5 845.5,-242.5 845.5,-201.5 702.5,-201.5"/>
<text text-anchor="start" x="710.5" y="-230.5" font-family="Helvetica,sans-Serif" font-size="10.00">include/cppuddle/memory</text>
<text text-anchor="start" x="710.5" y="-219.5" font-family="Helvetica,sans-Serif" font-size="10.00">_recycling/sycl_recycling</text>
<text text-anchor="middle" x="774" y="-208.5" font-family="Helvetica,sans-Serif" font-size="10.00">_allocators.hpp</text>
</a>
</g>
</g>
<!-- Node17&#45;&gt;Node31 -->
<g id="edge48" class="edge">
<title>Node17&#45;&gt;Node31</title>
<path fill="none" stroke="midnightblue" d="M1105.94,-282.22C1027.4,-268.21 917.12,-248.53 845.61,-235.78"/>
<polygon fill="midnightblue" stroke="midnightblue" points="1105.38,-285.67 1115.84,-283.98 1106.61,-278.78 1105.38,-285.67"/>
</g>
<!-- Node33 -->
<g id="node33" class="node">
<title>Node33</title>
<g id="a_node33"><a xlink:href="recycling__kokkos__view_8hpp.html" target="_top" xlink:title=" ">
<polygon fill="white" stroke="black" points="1464.5,-201.5 1464.5,-242.5 1607.5,-242.5 1607.5,-201.5 1464.5,-201.5"/>
<text text-anchor="start" x="1472.5" y="-230.5" font-family="Helvetica,sans-Serif" font-size="10.00">include/cppuddle/memory</text>
<text text-anchor="start" x="1472.5" y="-219.5" font-family="Helvetica,sans-Serif" font-size="10.00">_recycling/util/recycling</text>
<text text-anchor="middle" x="1536" y="-208.5" font-family="Helvetica,sans-Serif" font-size="10.00">_kokkos_view.hpp</text>
</a>
</g>
</g>
<!-- Node17&#45;&gt;Node33 -->
<g id="edge50" class="edge">
<title>Node17&#45;&gt;Node33</title>
<path fill="none" stroke="midnightblue" d="M1294.27,-277.68C1348.21,-265.48 1414.79,-250.42 1464.41,-239.19"/>
<polygon fill="midnightblue" stroke="midnightblue" points="1293.33,-274.3 1284.35,-279.92 1294.88,-281.13 1293.33,-274.3"/>
</g>
<!-- Node19 -->
<g id="node19" class="node">
<title>Node19</title>
<g id="a_node19"><a xlink:href="aligned__buffer__util_8hpp.html" target="_top" xlink:title=" ">
<polygon fill="white" stroke="black" points="780.5,-129 780.5,-159 905.5,-159 905.5,-129 780.5,-129"/>
<text text-anchor="start" x="788.5" y="-147" font-family="Helvetica,sans-Serif" font-size="10.00">include/aligned_buffer</text>
<text text-anchor="middle" x="843" y="-136" font-family="Helvetica,sans-Serif" font-size="10.00">_util.hpp</text>
</a>
</g>
</g>
<!-- Node18&#45;&gt;Node19 -->
<g id="edge23" class="edge">
<title>Node18&#45;&gt;Node19</title>
<path fill="none" stroke="midnightblue" d="M941.53,-196.64C917.97,-184.3 890.19,-169.73 870.14,-159.23"/>
<polygon fill="midnightblue" stroke="midnightblue" points="940.18,-199.89 950.66,-201.43 943.43,-193.69 940.18,-199.89"/>
</g>
<!-- Node20 -->
<g id="node20" class="node">
<title>Node20</title>
<g id="a_node20"><a xlink:href="allocator__aligned__test_8cpp.html" target="_top" xlink:title=" ">
<polygon fill="white" stroke="black" points="924,-129 924,-159 1052,-159 1052,-129 924,-129"/>
<text text-anchor="start" x="932" y="-147" font-family="Helvetica,sans-Serif" font-size="10.00">tests/allocator_aligned</text>
<text text-anchor="middle" x="988" y="-136" font-family="Helvetica,sans-Serif" font-size="10.00">_test.cpp</text>
</a>
</g>
</g>
<!-- Node18&#45;&gt;Node20 -->
<g id="edge24" class="edge">
<title>Node18&#45;&gt;Node20</title>
<path fill="none" stroke="midnightblue" d="M988,-191.28C988,-180.25 988,-168.25 988,-159.23"/>
<polygon fill="midnightblue" stroke="midnightblue" points="984.5,-191.43 988,-201.43 991.5,-191.43 984.5,-191.43"/>
</g>
<!-- Node21&#45;&gt;Node9 -->
<g id="edge35" class="edge">
<title>Node21&#45;&gt;Node9</title>
<path fill="none" stroke="midnightblue" d="M1200.33,-197.6C1179.62,-188.79 1157.12,-177.76 1138,-165 1115.52,-149.99 1117.22,-136.84 1094,-123 1066.13,-106.38 1032.14,-94.55 1003.02,-86.54"/>
<polygon fill="midnightblue" stroke="midnightblue" points="1199.13,-200.89 1209.7,-201.5 1201.81,-194.43 1199.13,-200.89"/>
</g>
<!-- Node21&#45;&gt;Node10 -->
<g id="edge36" class="edge">
<title>Node21&#45;&gt;Node10</title>
<path fill="none" stroke="midnightblue" d="M1183.3,-204.75C1153.4,-196.2 1120.44,-183.51 1094,-165 1074.55,-151.39 1081.53,-134.93 1061,-123 1037.85,-109.55 879.66,-90.05 787.77,-79.65"/>
<polygon fill="midnightblue" stroke="midnightblue" points="1182.74,-208.23 1193.31,-207.5 1184.59,-201.48 1182.74,-208.23"/>
</g>
<!-- Node21&#45;&gt;Node12 -->
<g id="edge34" class="edge">
<title>Node21&#45;&gt;Node12</title>
<path fill="none" stroke="midnightblue" d="M1297.47,-194.14C1305.38,-185.72 1312.77,-175.78 1317,-165 1323.82,-147.62 1326.23,-139.22 1317,-123 1304.94,-101.82 1280.11,-88.59 1260.38,-81.02"/>
<polygon fill="midnightblue" stroke="midnightblue" points="1294.77,-191.89 1290.15,-201.42 1299.71,-196.85 1294.77,-191.89"/>
</g>
<!-- Node21&#45;&gt;Node15 -->
<g id="edge31" class="edge">
<title>Node21&#45;&gt;Node15</title>
<path fill="none" stroke="midnightblue" d="M1303.53,-195.1C1314.39,-186.46 1325.53,-176.17 1334,-165 1352.6,-140.46 1364.53,-105.94 1370.17,-86.76"/>
<polygon fill="midnightblue" stroke="midnightblue" points="1301.15,-192.51 1295.33,-201.36 1305.4,-198.07 1301.15,-192.51"/>
</g>
<!-- Node22 -->
<g id="node22" class="node">
<title>Node22</title>
<g id="a_node22"><a xlink:href="cuda__recycling__device__buffer_8hpp.html" target="_top" xlink:title="Contains a RAII wrappers for CUDA device buffers. Intended to be used with the recycling allocators b...">
<polygon fill="white" stroke="black" points="1146.5,-123.5 1146.5,-164.5 1307.5,-164.5 1307.5,-123.5 1146.5,-123.5"/>
<text text-anchor="start" x="1154.5" y="-152.5" font-family="Helvetica,sans-Serif" font-size="10.00">include/cppuddle/memory</text>
<text text-anchor="start" x="1154.5" y="-141.5" font-family="Helvetica,sans-Serif" font-size="10.00">_recycling/util/cuda_recycling</text>
<text text-anchor="middle" x="1227" y="-130.5" font-family="Helvetica,sans-Serif" font-size="10.00">_device_buffer.hpp</text>
</a>
</g>
</g>
<!-- Node21&#45;&gt;Node22 -->
<g id="edge26" class="edge">
<title>Node21&#45;&gt;Node22</title>
<path fill="none" stroke="midnightblue" d="M1250.73,-192.47C1246.07,-183.14 1241,-173.01 1236.75,-164.51"/>
<polygon fill="midnightblue" stroke="midnightblue" points="1247.61,-194.05 1255.21,-201.43 1253.87,-190.92 1247.61,-194.05"/>
</g>
<!-- Node23 -->
<g id="node23" class="node">
<title>Node23</title>
<g id="a_node23"><a xlink:href="allocator__kokkos__executor__for__loop__test_8cpp.html" target="_top" xlink:title=" ">
<polygon fill="white" stroke="black" points="1686.5,-129 1686.5,-159 1839.5,-159 1839.5,-129 1686.5,-129"/>
<text text-anchor="start" x="1694.5" y="-147" font-family="Helvetica,sans-Serif" font-size="10.00">tests/allocator_kokkos</text>
<text text-anchor="middle" x="1763" y="-136" font-family="Helvetica,sans-Serif" font-size="10.00">_executor_for_loop_test.cpp</text>
</a>
</g>
</g>
<!-- Node21&#45;&gt;Node23 -->
<g id="edge32" class="edge">
<title>Node21&#45;&gt;Node23</title>
<path fill="none" stroke="midnightblue" d="M1346.95,-212.15C1430.35,-202.6 1563.18,-185.92 1677,-165 1686.35,-163.28 1696.21,-161.22 1705.79,-159.09"/>
<polygon fill="midnightblue" stroke="midnightblue" points="1346.32,-208.7 1336.77,-213.3 1347.11,-215.65 1346.32,-208.7"/>
</g>
<!-- Node24 -->
<g id="node24" class="node">
<title>Node24</title>
<g id="a_node24"><a xlink:href="allocator__kokkos__test_8cpp.html" target="_top" xlink:title=" ">
<polygon fill="white" stroke="black" points="1402.5,-129 1402.5,-159 1527.5,-159 1527.5,-129 1402.5,-129"/>
<text text-anchor="start" x="1410.5" y="-147" font-family="Helvetica,sans-Serif" font-size="10.00">tests/allocator_kokkos</text>
<text text-anchor="middle" x="1465" y="-136" font-family="Helvetica,sans-Serif" font-size="10.00">_test.cpp</text>
</a>
</g>
</g>
<!-- Node21&#45;&gt;Node24 -->
<g id="edge33" class="edge">
<title>Node21&#45;&gt;Node24</title>
<path fill="none" stroke="midnightblue" d="M1326.13,-197.77C1359.35,-185.15 1399.36,-169.94 1427.88,-159.11"/>
<polygon fill="midnightblue" stroke="midnightblue" points="1324.61,-194.6 1316.5,-201.43 1327.1,-201.15 1324.61,-194.6"/>
</g>
<!-- Node22&#45;&gt;Node9 -->
<g id="edge29" class="edge">
<title>Node22&#45;&gt;Node9</title>
<path fill="none" stroke="midnightblue" d="M1136.89,-121.02C1090.84,-109.78 1036.15,-96.44 995.79,-86.6"/>
<polygon fill="midnightblue" stroke="midnightblue" points="1136.34,-124.49 1146.88,-123.46 1138,-117.69 1136.34,-124.49"/>
</g>
<!-- Node22&#45;&gt;Node10 -->
<g id="edge30" class="edge">
<title>Node22&#45;&gt;Node10</title>
<path fill="none" stroke="midnightblue" d="M1136.27,-129.18C1122.12,-127.08 1107.67,-124.96 1094,-123 986.74,-107.66 861.9,-90.94 787.56,-81.11"/>
<polygon fill="midnightblue" stroke="midnightblue" points="1136.09,-132.69 1146.5,-130.7 1137.12,-125.77 1136.09,-132.69"/>
</g>
<!-- Node22&#45;&gt;Node12 -->
<g id="edge28" class="edge">
<title>Node22&#45;&gt;Node12</title>
<path fill="none" stroke="midnightblue" d="M1229.12,-113.1C1229.94,-101.53 1230.82,-89.18 1231.38,-81.17"/>
<polygon fill="midnightblue" stroke="midnightblue" points="1225.61,-113.14 1228.39,-123.36 1232.59,-113.63 1225.61,-113.14"/>
</g>
<!-- Node22&#45;&gt;Node15 -->
<g id="edge27" class="edge">
<title>Node22&#45;&gt;Node15</title>
<path fill="none" stroke="midnightblue" d="M1277.01,-119.02C1299.45,-108.25 1325.15,-95.93 1344.45,-86.67"/>
<polygon fill="midnightblue" stroke="midnightblue" points="1275.45,-115.88 1267.95,-123.36 1278.48,-122.19 1275.45,-115.88"/>
</g>
<!-- Node25&#45;&gt;Node8 -->
<g id="edge43" class="edge">
<title>Node25&#45;&gt;Node8</title>
<path fill="none" stroke="midnightblue" d="M1871.07,-191.11C1871.55,-168.84 1867.99,-139.52 1849,-123 1791.32,-72.84 1237.87,-96.28 1162,-87 1158.97,-86.63 1155.88,-86.21 1152.77,-85.75"/>
<polygon fill="midnightblue" stroke="midnightblue" points="1867.56,-191.24 1870.57,-201.4 1874.55,-191.58 1867.56,-191.24"/>
</g>
<!-- Node25&#45;&gt;Node14 -->
<g id="edge38" class="edge">
<title>Node25&#45;&gt;Node14</title>
<path fill="none" stroke="midnightblue" d="M1949.73,-206.61C2009.49,-195.83 2092.46,-180.37 2165,-165 2181.61,-161.48 2199.96,-157.21 2215.34,-153.53"/>
<polygon fill="midnightblue" stroke="midnightblue" points="1948.81,-203.21 1939.59,-208.43 1950.05,-210.1 1948.81,-203.21"/>
</g>
<!-- Node25&#45;&gt;Node23 -->
<g id="edge40" class="edge">
<title>Node25&#45;&gt;Node23</title>
<path fill="none" stroke="midnightblue" d="M1832.53,-195.32C1815.87,-183.27 1796.66,-169.36 1782.65,-159.23"/>
<polygon fill="midnightblue" stroke="midnightblue" points="1830.81,-198.4 1840.96,-201.43 1834.91,-192.73 1830.81,-198.4"/>
</g>
<!-- Node25&#45;&gt;Node24 -->
<g id="edge41" class="edge">
<title>Node25&#45;&gt;Node24</title>
<path fill="none" stroke="midnightblue" d="M1786.12,-209.56C1718.86,-199.58 1621.27,-183.78 1537,-165 1529.15,-163.25 1520.88,-161.18 1512.85,-159.03"/>
<polygon fill="midnightblue" stroke="midnightblue" points="1785.83,-213.05 1796.24,-211.05 1786.85,-206.13 1785.83,-213.05"/>
</g>
<!-- Node26 -->
<g id="node26" class="node">
<title>Node26</title>
<g id="a_node26"><a xlink:href="allocator__hpx__test_8cpp.html" target="_top" xlink:title=" ">
<polygon fill="white" stroke="black" points="2046,-129 2046,-159 2156,-159 2156,-129 2046,-129"/>
<text text-anchor="start" x="2054" y="-147" font-family="Helvetica,sans-Serif" font-size="10.00">tests/allocator_hpx</text>
<text text-anchor="middle" x="2101" y="-136" font-family="Helvetica,sans-Serif" font-size="10.00">_test.cpp</text>
</a>
</g>
</g>
<!-- Node25&#45;&gt;Node26 -->
<g id="edge39" class="edge">
<title>Node25&#45;&gt;Node26</title>
<path fill="none" stroke="midnightblue" d="M1937.72,-198.26C1976.72,-185.54 2024.1,-170.08 2057.75,-159.11"/>
<polygon fill="midnightblue" stroke="midnightblue" points="1936.42,-195 1928,-201.43 1938.6,-201.65 1936.42,-195"/>
</g>
<!-- Node27 -->
<g id="node27" class="node">
<title>Node27</title>
<g id="a_node27"><a xlink:href="allocator__test_8cpp.html" target="_top" xlink:title=" ">
<polygon fill="white" stroke="black" points="1896.5,-134.5 1896.5,-153.5 2027.5,-153.5 2027.5,-134.5 1896.5,-134.5"/>
<text text-anchor="middle" x="1962" y="-141.5" font-family="Helvetica,sans-Serif" font-size="10.00">tests/allocator_test.cpp</text>
</a>
</g>
</g>
<!-- Node25&#45;&gt;Node27 -->
<g id="edge42" class="edge">
<title>Node25&#45;&gt;Node27</title>
<path fill="none" stroke="midnightblue" d="M1900.15,-195.01C1918.01,-180.57 1939.06,-163.55 1951.42,-153.55"/>
<polygon fill="midnightblue" stroke="midnightblue" points="1897.78,-192.42 1892.21,-201.43 1902.18,-197.86 1897.78,-192.42"/>
</g>
<!-- Node29 -->
<g id="node29" class="node">
<title>Node29</title>
<g id="a_node29"><a xlink:href="hip__recycling__device__buffer_8hpp.html" target="_top" xlink:title=" ">
<polygon fill="white" stroke="black" points="214,-123.5 214,-164.5 366,-164.5 366,-123.5 214,-123.5"/>
<text text-anchor="start" x="222" y="-152.5" font-family="Helvetica,sans-Serif" font-size="10.00">include/cppuddle/memory</text>
<text text-anchor="start" x="222" y="-141.5" font-family="Helvetica,sans-Serif" font-size="10.00">_recycling/util/hip_recycling</text>
<text text-anchor="middle" x="290" y="-130.5" font-family="Helvetica,sans-Serif" font-size="10.00">_device_buffer.hpp</text>
</a>
</g>
</g>
<!-- Node28&#45;&gt;Node29 -->
<g id="edge45" class="edge">
<title>Node28&#45;&gt;Node29</title>
<path fill="none" stroke="midnightblue" d="M294.26,-191.3C293.44,-182.3 292.55,-172.65 291.8,-164.51"/>
<polygon fill="midnightblue" stroke="midnightblue" points="290.79,-191.79 295.2,-201.43 297.77,-191.15 290.79,-191.79"/>
</g>
<!-- Node30 -->
<g id="node30" class="node">
<title>Node30</title>
<g id="a_node30"><a xlink:href="hip__buffer__util_8hpp.html" target="_top" xlink:title=" ">
<polygon fill="white" stroke="black" points="285,-56.5 285,-86.5 389,-86.5 389,-56.5 285,-56.5"/>
<text text-anchor="start" x="293" y="-74.5" font-family="Helvetica,sans-Serif" font-size="10.00">include/hip_buffer</text>
<text text-anchor="middle" x="337" y="-63.5" font-family="Helvetica,sans-Serif" font-size="10.00">_util.hpp</text>
</a>
</g>
</g>
<!-- Node28&#45;&gt;Node30 -->
<g id="edge47" class="edge">
<title>Node28&#45;&gt;Node30</title>
<path fill="none" stroke="midnightblue" d="M347.44,-195.44C358.49,-187.3 368.75,-177.17 375,-165 383.52,-148.39 380.92,-140.7 375,-123 370.41,-109.26 360.45,-96.27 351.88,-86.9"/>
<polygon fill="midnightblue" stroke="midnightblue" points="345.17,-192.75 338.88,-201.27 349.11,-198.53 345.17,-192.75"/>
</g>
<!-- Node29&#45;&gt;Node30 -->
<g id="edge46" class="edge">
<title>Node29&#45;&gt;Node30</title>
<path fill="none" stroke="midnightblue" d="M308.77,-114.85C315.16,-105.26 322.04,-94.94 327.41,-86.89"/>
<polygon fill="midnightblue" stroke="midnightblue" points="305.73,-113.1 303.09,-123.36 311.55,-116.98 305.73,-113.1"/>
</g>
<!-- Node32 -->
<g id="node32" class="node">
<title>Node32</title>
<g id="a_node32"><a xlink:href="sycl__buffer__util_8hpp.html" target="_top" xlink:title=" ">
<polygon fill="white" stroke="black" points="654,-129 654,-159 762,-159 762,-129 654,-129"/>
<text text-anchor="start" x="662" y="-147" font-family="Helvetica,sans-Serif" font-size="10.00">include/sycl_buffer</text>
<text text-anchor="middle" x="708" y="-136" font-family="Helvetica,sans-Serif" font-size="10.00">_util.hpp</text>
</a>
</g>
</g>
<!-- Node31&#45;&gt;Node32 -->
<g id="edge49" class="edge">
<title>Node31&#45;&gt;Node32</title>
<path fill="none" stroke="midnightblue" d="M750.25,-193.65C740.13,-182 728.75,-168.9 720.35,-159.23"/>
<polygon fill="midnightblue" stroke="midnightblue" points="747.8,-196.17 757,-201.43 753.09,-191.58 747.8,-196.17"/>
</g>
<!-- Node33&#45;&gt;Node23 -->
<g id="edge52" class="edge">
<title>Node33&#45;&gt;Node23</title>
<path fill="none" stroke="midnightblue" d="M1604.41,-198.1C1642.31,-185.41 1688.22,-170.04 1720.87,-159.11"/>
<polygon fill="midnightblue" stroke="midnightblue" points="1602.83,-194.93 1594.46,-201.43 1605.05,-201.57 1602.83,-194.93"/>
</g>
<!-- Node33&#45;&gt;Node24 -->
<g id="edge53" class="edge">
<title>Node33&#45;&gt;Node24</title>
<path fill="none" stroke="midnightblue" d="M1510.77,-193.99C1499.8,-182.25 1487.41,-168.99 1478.29,-159.23"/>
<polygon fill="midnightblue" stroke="midnightblue" points="1508.33,-196.51 1517.72,-201.43 1513.45,-191.73 1508.33,-196.51"/>
</g>
<!-- Node34 -->
<g id="node34" class="node">
<title>Node34</title>
<g id="a_node34"><a xlink:href="kokkos__buffer__util_8hpp.html" target="_top" xlink:title=" ">
<polygon fill="white" stroke="black" points="1546,-129 1546,-159 1668,-159 1668,-129 1546,-129"/>
<text text-anchor="start" x="1554" y="-147" font-family="Helvetica,sans-Serif" font-size="10.00">include/kokkos_buffer</text>
<text text-anchor="middle" x="1607" y="-136" font-family="Helvetica,sans-Serif" font-size="10.00">_util.hpp</text>
</a>
</g>
</g>
<!-- Node33&#45;&gt;Node34 -->
<g id="edge51" class="edge">
<title>Node33&#45;&gt;Node34</title>
<path fill="none" stroke="midnightblue" d="M1561.23,-193.99C1572.2,-182.25 1584.59,-168.99 1593.71,-159.23"/>
<polygon fill="midnightblue" stroke="midnightblue" points="1558.55,-191.73 1554.28,-201.43 1563.67,-196.51 1558.55,-191.73"/>
</g>
</g>
</svg>
