<?xml version="1.0" encoding="UTF-8" standalone="no"?>
<!DOCTYPE svg PUBLIC "-//W3C//DTD SVG 1.1//EN"
 "http://www.w3.org/Graphics/SVG/1.1/DTD/svg11.dtd">
<!-- Generated by graphviz version 2.43.0 (0)
 -->
<!-- Title: include/cppuddle/memory_recycling/util/cuda_recycling_device_buffer.hpp Pages: 1 -->
<svg width="989pt" height="346pt"
 viewBox="0.00 0.00 988.50 346.00" xmlns="http://www.w3.org/2000/svg" xmlns:xlink="http://www.w3.org/1999/xlink">
<g id="graph0" class="graph" transform="scale(1 1) rotate(0) translate(4 342)">
<title>include/cppuddle/memory_recycling/util/cuda_recycling_device_buffer.hpp</title>
<!-- Node1 -->
<g id="Node000001" class="node">
<title>Node1</title>
<g id="a_Node000001"><a xlink:title="Contains a RAII wrappers for CUDA device buffers. Intended to be used with the recycling allocators b...">
<polygon fill="#999999" stroke="#666666" points="608.5,-338 447.5,-338 447.5,-297 608.5,-297 608.5,-338"/>
<text text-anchor="start" x="455.5" y="-326" font-family="Helvetica,sans-Serif" font-size="10.00">include/cppuddle/memory</text>
<text text-anchor="start" x="455.5" y="-315" font-family="Helvetica,sans-Serif" font-size="10.00">_recycling/util/cuda_recycling</text>
<text text-anchor="middle" x="528" y="-304" font-family="Helvetica,sans-Serif" font-size="10.00">_device_buffer.hpp</text>
</a>
</g>
</g>
<!-- Node2 -->
<g id="Node000002" class="node">
<title>Node2</title>
<g id="a_Node000002"><a xlink:href="cuda__recycling__allocators_8hpp.html" target="_top" xlink:title=" ">
<polygon fill="white" stroke="#666666" points="611.5,-261 444.5,-261 444.5,-231 611.5,-231 611.5,-261"/>
<text text-anchor="start" x="452.5" y="-249" font-family="Helvetica,sans-Serif" font-size="10.00">cppuddle/memory_recycling</text>
<text text-anchor="middle" x="528" y="-238" font-family="Helvetica,sans-Serif" font-size="10.00">/cuda_recycling_allocators.hpp</text>
</a>
</g>
</g>
<!-- Node1&#45;&gt;Node2 -->
<g id="edge1_Node000001_Node000002" class="edge">
<title>Node1&#45;&gt;Node2</title>
<g id="a_edge1_Node000001_Node000002"><a xlink:title=" ">
<path fill="none" stroke="#63b8ff" d="M528,-296.77C528,-288.85 528,-279.63 528,-271.3"/>
<polygon fill="#63b8ff" stroke="#63b8ff" points="531.5,-271.04 528,-261.04 524.5,-271.04 531.5,-271.04"/>
</a>
</g>
</g>
<!-- Node3 -->
<g id="Node000003" class="node">
<title>Node3</title>
<g id="a_Node000003"><a xlink:href="buffer__management__interface_8hpp.html" target="_top" xlink:title=" ">
<polygon fill="white" stroke="#666666" points="533.5,-189.5 348.5,-189.5 348.5,-170.5 533.5,-170.5 533.5,-189.5"/>
<text text-anchor="middle" x="441" y="-177.5" font-family="Helvetica,sans-Serif" font-size="10.00">buffer_management_interface.hpp</text>
</a>
</g>
</g>
<!-- Node2&#45;&gt;Node3 -->
<g id="edge2_Node000002_Node000003" class="edge">
<title>Node2&#45;&gt;Node3</title>
<g id="a_edge2_Node000002_Node000003"><a xlink:title=" ">
<path fill="none" stroke="#63b8ff" d="M508.69,-230.8C494.51,-220.37 475.31,-206.24 460.98,-195.69"/>
<polygon fill="#63b8ff" stroke="#63b8ff" points="462.9,-192.76 452.77,-189.66 458.75,-198.4 462.9,-192.76"/>
</a>
</g>
</g>
<!-- Node17 -->
<g id="Node000017" class="node">
<title>Node17</title>
<g id="a_Node000017"><a xlink:href="cuda__underlying__allocators_8hpp.html" target="_top" xlink:title=" ">
<polygon fill="white" stroke="#666666" points="682,-195 554,-195 554,-165 682,-165 682,-195"/>
<text text-anchor="start" x="562" y="-183" font-family="Helvetica,sans-Serif" font-size="10.00">detail/cuda_underlying</text>
<text text-anchor="middle" x="618" y="-172" font-family="Helvetica,sans-Serif" font-size="10.00">_allocators.hpp</text>
</a>
</g>
</g>
<!-- Node2&#45;&gt;Node17 -->
<g id="edge17_Node000002_Node000017" class="edge">
<title>Node2&#45;&gt;Node17</title>
<g id="a_edge17_Node000002_Node000017"><a xlink:title=" ">
<path fill="none" stroke="#63b8ff" d="M547.97,-230.8C560.21,-222.1 576.06,-210.82 589.59,-201.2"/>
<polygon fill="#63b8ff" stroke="#63b8ff" points="591.96,-203.81 598.08,-195.16 587.9,-198.11 591.96,-203.81"/>
</a>
</g>
</g>
<!-- Node4 -->
<g id="Node000004" class="node">
<title>Node4</title>
<g id="a_Node000004"><a xlink:href="buffer__management_8hpp.html" target="_top" xlink:title=" ">
<polygon fill="white" stroke="#666666" points="519.5,-129 352.5,-129 352.5,-110 519.5,-110 519.5,-129"/>
<text text-anchor="middle" x="436" y="-117" font-family="Helvetica,sans-Serif" font-size="10.00">detail/buffer_management.hpp</text>
</a>
</g>
</g>
<!-- Node3&#45;&gt;Node4 -->
<g id="edge3_Node000003_Node000004" class="edge">
<title>Node3&#45;&gt;Node4</title>
<g id="a_edge3_Node000003_Node000004"><a xlink:title=" ">
<path fill="none" stroke="#63b8ff" d="M440.26,-170.37C439.57,-162.25 438.5,-149.81 437.61,-139.39"/>
<polygon fill="#63b8ff" stroke="#63b8ff" points="441.08,-138.83 436.74,-129.17 434.11,-139.43 441.08,-138.83"/>
</a>
</g>
</g>
<!-- Node5 -->
<g id="Node000005" class="node">
<title>Node5</title>
<g id="a_Node000005"><a xlink:title=" ">
<polygon fill="#e0e0e0" stroke="#999999" points="50,-74 0,-74 0,-55 50,-55 50,-74"/>
<text text-anchor="middle" x="25" y="-62" font-family="Helvetica,sans-Serif" font-size="10.00">atomic</text>
</a>
</g>
</g>
<!-- Node4&#45;&gt;Node5 -->
<g id="edge4_Node000004_Node000005" class="edge">
<title>Node4&#45;&gt;Node5</title>
<g id="a_edge4_Node000004_Node000005"><a xlink:title=" ">
<path fill="none" stroke="#63b8ff" d="M352.44,-111.72C278.06,-104.97 166.18,-93.1 60.09,-73.98"/>
<polygon fill="#63b8ff" stroke="#63b8ff" points="60.64,-70.53 50.17,-72.17 59.38,-77.41 60.64,-70.53"/>
</a>
</g>
</g>
<!-- Node6 -->
<g id="Node000006" class="node">
<title>Node6</title>
<g id="a_Node000006"><a xlink:title=" ">
<polygon fill="#e0e0e0" stroke="#999999" points="120,-74 68,-74 68,-55 120,-55 120,-74"/>
<text text-anchor="middle" x="94" y="-62" font-family="Helvetica,sans-Serif" font-size="10.00">cassert</text>
</a>
</g>
</g>
<!-- Node4&#45;&gt;Node6 -->
<g id="edge5_Node000004_Node000006" class="edge">
<title>Node4&#45;&gt;Node6</title>
<g id="a_edge5_Node000004_Node000006"><a xlink:title=" ">
<path fill="none" stroke="#63b8ff" d="M363.72,-109.98C303.62,-102.44 215.66,-90.38 130.18,-74.08"/>
<polygon fill="#63b8ff" stroke="#63b8ff" points="130.8,-70.63 120.31,-72.17 129.47,-77.5 130.8,-70.63"/>
</a>
</g>
</g>
<!-- Node7 -->
<g id="Node000007" class="node">
<title>Node7</title>
<g id="a_Node000007"><a xlink:title=" ">
<polygon fill="#e0e0e0" stroke="#999999" points="203.5,-74 138.5,-74 138.5,-55 203.5,-55 203.5,-74"/>
<text text-anchor="middle" x="171" y="-62" font-family="Helvetica,sans-Serif" font-size="10.00">functional</text>
</a>
</g>
</g>
<!-- Node4&#45;&gt;Node7 -->
<g id="edge6_Node000004_Node000007" class="edge">
<title>Node4&#45;&gt;Node7</title>
<g id="a_edge6_Node000004_Node000007"><a xlink:title=" ">
<path fill="none" stroke="#63b8ff" d="M392.83,-109.92C350,-101.4 282.23,-87.9 213.68,-74.13"/>
<polygon fill="#63b8ff" stroke="#63b8ff" points="214.05,-70.64 203.56,-72.1 212.67,-77.5 214.05,-70.64"/>
</a>
</g>
</g>
<!-- Node8 -->
<g id="Node000008" class="node">
<title>Node8</title>
<g id="a_Node000008"><a xlink:title=" ">
<polygon fill="#e0e0e0" stroke="#999999" points="282,-74 222,-74 222,-55 282,-55 282,-74"/>
<text text-anchor="middle" x="252" y="-62" font-family="Helvetica,sans-Serif" font-size="10.00">iostream</text>
</a>
</g>
</g>
<!-- Node4&#45;&gt;Node8 -->
<g id="edge7_Node000004_Node000008" class="edge">
<title>Node4&#45;&gt;Node8</title>
<g id="a_edge7_Node000004_Node000008"><a xlink:title=" ">
<path fill="none" stroke="#63b8ff" d="M406.44,-109.98C375.28,-101.01 326.03,-86.82 291.54,-76.89"/>
<polygon fill="#63b8ff" stroke="#63b8ff" points="292.37,-73.49 281.79,-74.08 290.43,-80.21 292.37,-73.49"/>
</a>
</g>
</g>
<!-- Node9 -->
<g id="Node000009" class="node">
<title>Node9</title>
<g id="a_Node000009"><a xlink:title=" ">
<polygon fill="#e0e0e0" stroke="#999999" points="332,-74 300,-74 300,-55 332,-55 332,-74"/>
<text text-anchor="middle" x="316" y="-62" font-family="Helvetica,sans-Serif" font-size="10.00">list</text>
</a>
</g>
</g>
<!-- Node4&#45;&gt;Node9 -->
<g id="edge8_Node000004_Node000009" class="edge">
<title>Node4&#45;&gt;Node9</title>
<g id="a_edge8_Node000004_Node000009"><a xlink:title=" ">
<path fill="none" stroke="#63b8ff" d="M416.72,-109.98C396.29,-100.96 363.93,-86.67 341.43,-76.73"/>
<polygon fill="#63b8ff" stroke="#63b8ff" points="342.72,-73.47 332.15,-72.63 339.89,-79.88 342.72,-73.47"/>
</a>
</g>
</g>
<!-- Node10 -->
<g id="Node000010" class="node">
<title>Node10</title>
<g id="a_Node000010"><a xlink:title=" ">
<polygon fill="#e0e0e0" stroke="#999999" points="408,-74 350,-74 350,-55 408,-55 408,-74"/>
<text text-anchor="middle" x="379" y="-62" font-family="Helvetica,sans-Serif" font-size="10.00">memory</text>
</a>
</g>
</g>
<!-- Node4&#45;&gt;Node10 -->
<g id="edge9_Node000004_Node000010" class="edge">
<title>Node4&#45;&gt;Node10</title>
<g id="a_edge9_Node000004_Node000010"><a xlink:title=" ">
<path fill="none" stroke="#63b8ff" d="M426.84,-109.98C418.5,-102.23 405.97,-90.58 395.82,-81.14"/>
<polygon fill="#63b8ff" stroke="#63b8ff" points="398.03,-78.42 388.32,-74.17 393.26,-83.54 398.03,-78.42"/>
</a>
</g>
</g>
<!-- Node11 -->
<g id="Node000011" class="node">
<title>Node11</title>
<g id="a_Node000011"><a xlink:title=" ">
<polygon fill="#e0e0e0" stroke="#999999" points="650,-19 602,-19 602,0 650,0 650,-19"/>
<text text-anchor="middle" x="626" y="-7" font-family="Helvetica,sans-Serif" font-size="10.00">mutex</text>
</a>
</g>
</g>
<!-- Node4&#45;&gt;Node11 -->
<g id="edge10_Node000004_Node000011" class="edge">
<title>Node4&#45;&gt;Node11</title>
<g id="a_edge10_Node000004_Node000011"><a xlink:title=" ">
<path fill="none" stroke="#63b8ff" d="M436.05,-109.74C436.61,-96.07 439.76,-69.7 455,-55 491.83,-19.48 553.27,-11.35 591.61,-10"/>
<polygon fill="#63b8ff" stroke="#63b8ff" points="591.85,-13.5 601.77,-9.79 591.7,-6.5 591.85,-13.5"/>
</a>
</g>
</g>
<!-- Node12 -->
<g id="Node000012" class="node">
<title>Node12</title>
<g id="a_Node000012"><a xlink:title=" ">
<polygon fill="#e0e0e0" stroke="#999999" points="520,-74 464,-74 464,-55 520,-55 520,-74"/>
<text text-anchor="middle" x="492" y="-62" font-family="Helvetica,sans-Serif" font-size="10.00">optional</text>
</a>
</g>
</g>
<!-- Node4&#45;&gt;Node12 -->
<g id="edge11_Node000004_Node000012" class="edge">
<title>Node4&#45;&gt;Node12</title>
<g id="a_edge11_Node000004_Node000012"><a xlink:title=" ">
<path fill="none" stroke="#63b8ff" d="M445,-109.98C453.19,-102.23 465.51,-90.58 475.47,-81.14"/>
<polygon fill="#63b8ff" stroke="#63b8ff" points="477.98,-83.59 482.84,-74.17 473.17,-78.5 477.98,-83.59"/>
</a>
</g>
</g>
<!-- Node13 -->
<g id="Node000013" class="node">
<title>Node13</title>
<g id="a_Node000013"><a xlink:title=" ">
<polygon fill="#e0e0e0" stroke="#999999" points="980.5,-74 915.5,-74 915.5,-55 980.5,-55 980.5,-74"/>
<text text-anchor="middle" x="948" y="-62" font-family="Helvetica,sans-Serif" font-size="10.00">stdexcept</text>
</a>
</g>
</g>
<!-- Node4&#45;&gt;Node13 -->
<g id="edge12_Node000004_Node000013" class="edge">
<title>Node4&#45;&gt;Node13</title>
<g id="a_edge12_Node000004_Node000013"><a xlink:title=" ">
<path fill="none" stroke="#63b8ff" d="M519.52,-113.26C611.54,-106.88 764.06,-94.53 904.92,-74"/>
<polygon fill="#63b8ff" stroke="#63b8ff" points="905.66,-77.43 915.04,-72.51 904.64,-70.51 905.66,-77.43"/>
</a>
</g>
</g>
<!-- Node14 -->
<g id="Node000014" class="node">
<title>Node14</title>
<g id="a_Node000014"><a xlink:title=" ">
<polygon fill="#e0e0e0" stroke="#999999" points="607.5,-74 538.5,-74 538.5,-55 607.5,-55 607.5,-74"/>
<text text-anchor="middle" x="573" y="-62" font-family="Helvetica,sans-Serif" font-size="10.00">type_traits</text>
</a>
</g>
</g>
<!-- Node4&#45;&gt;Node14 -->
<g id="edge13_Node000004_Node000014" class="edge">
<title>Node4&#45;&gt;Node14</title>
<g id="a_edge13_Node000004_Node000014"><a xlink:title=" ">
<path fill="none" stroke="#63b8ff" d="M458.01,-109.98C480.45,-101.3 515.48,-87.75 540.99,-77.88"/>
<polygon fill="#63b8ff" stroke="#63b8ff" points="542.52,-81.04 550.59,-74.17 540,-74.51 542.52,-81.04"/>
</a>
</g>
</g>
<!-- Node15 -->
<g id="Node000015" class="node">
<title>Node15</title>
<g id="a_Node000015"><a xlink:title=" ">
<polygon fill="#e0e0e0" stroke="#999999" points="718.5,-74 625.5,-74 625.5,-55 718.5,-55 718.5,-74"/>
<text text-anchor="middle" x="672" y="-62" font-family="Helvetica,sans-Serif" font-size="10.00">unordered_map</text>
</a>
</g>
</g>
<!-- Node4&#45;&gt;Node15 -->
<g id="edge14_Node000004_Node000015" class="edge">
<title>Node4&#45;&gt;Node15</title>
<g id="a_edge14_Node000004_Node000015"><a xlink:title=" ">
<path fill="none" stroke="#63b8ff" d="M473.92,-109.98C514.65,-100.84 579.5,-86.27 623.82,-76.32"/>
<polygon fill="#63b8ff" stroke="#63b8ff" points="624.8,-79.69 633.79,-74.08 623.26,-72.86 624.8,-79.69"/>
</a>
</g>
</g>
<!-- Node16 -->
<g id="Node000016" class="node">
<title>Node16</title>
<g id="a_Node000016"><a xlink:href="config_8hpp.html" target="_top" xlink:title=" ">
<polygon fill="white" stroke="#666666" points="897,-74 737,-74 737,-55 897,-55 897,-74"/>
<text text-anchor="middle" x="817" y="-62" font-family="Helvetica,sans-Serif" font-size="10.00">cppuddle/common/config.hpp</text>
</a>
</g>
</g>
<!-- Node4&#45;&gt;Node16 -->
<g id="edge15_Node000004_Node000016" class="edge">
<title>Node4&#45;&gt;Node16</title>
<g id="a_edge15_Node000004_Node000016"><a xlink:title=" ">
<path fill="none" stroke="#63b8ff" d="M497.21,-109.98C564.88,-100.57 673.75,-85.43 745.34,-75.47"/>
<polygon fill="#63b8ff" stroke="#63b8ff" points="746.2,-78.88 755.62,-74.04 745.24,-71.95 746.2,-78.88"/>
</a>
</g>
</g>
<!-- Node16&#45;&gt;Node11 -->
<g id="edge16_Node000016_Node000011" class="edge">
<title>Node16&#45;&gt;Node11</title>
<g id="a_edge16_Node000016_Node000011"><a xlink:title=" ">
<path fill="none" stroke="#63b8ff" d="M786.31,-54.98C751.86,-45.42 696.09,-29.95 660.24,-20"/>
<polygon fill="#63b8ff" stroke="#63b8ff" points="660.82,-16.53 650.25,-17.23 658.95,-23.28 660.82,-16.53"/>
</a>
</g>
</g>
<!-- Node17&#45;&gt;Node13 -->
<g id="edge19_Node000017_Node000013" class="edge">
<title>Node17&#45;&gt;Node13</title>
<g id="a_edge19_Node000017_Node000013"><a xlink:title=" ">
<path fill="none" stroke="#63b8ff" d="M607.96,-164.81C598.45,-149.48 587.48,-125.21 601,-110 644.48,-61.08 823.08,-82.79 905.46,-73.7"/>
<polygon fill="#63b8ff" stroke="#63b8ff" points="906.04,-77.15 915.49,-72.35 905.11,-70.21 906.04,-77.15"/>
</a>
</g>
</g>
<!-- Node18 -->
<g id="Node000018" class="node">
<title>Node18</title>
<g id="a_Node000018"><a xlink:title=" ">
<polygon fill="#e0e0e0" stroke="#999999" points="702,-129 610,-129 610,-110 702,-110 702,-129"/>
<text text-anchor="middle" x="656" y="-117" font-family="Helvetica,sans-Serif" font-size="10.00">cuda_runtime.h</text>
</a>
</g>
</g>
<!-- Node17&#45;&gt;Node18 -->
<g id="edge18_Node000017_Node000018" class="edge">
<title>Node17&#45;&gt;Node18</title>
<g id="a_edge18_Node000017_Node000018"><a xlink:title=" ">
<path fill="none" stroke="#63b8ff" d="M627.2,-164.84C632.49,-156.69 639.18,-146.4 644.78,-137.78"/>
<polygon fill="#63b8ff" stroke="#63b8ff" points="647.79,-139.56 650.31,-129.27 641.92,-135.75 647.79,-139.56"/>
</a>
</g>
</g>
<!-- Node19 -->
<g id="Node000019" class="node">
<title>Node19</title>
<g id="a_Node000019"><a xlink:title=" ">
<polygon fill="#e0e0e0" stroke="#999999" points="764,-129 720,-129 720,-110 764,-110 764,-129"/>
<text text-anchor="middle" x="742" y="-117" font-family="Helvetica,sans-Serif" font-size="10.00">string</text>
</a>
</g>
</g>
<!-- Node17&#45;&gt;Node19 -->
<g id="edge20_Node000017_Node000019" class="edge">
<title>Node17&#45;&gt;Node19</title>
<g id="a_edge20_Node000017_Node000019"><a xlink:title=" ">
<path fill="none" stroke="#63b8ff" d="M647.7,-164.99C668.02,-155.4 694.76,-142.79 714.58,-133.44"/>
<polygon fill="#63b8ff" stroke="#63b8ff" points="716.14,-136.57 723.69,-129.14 713.15,-130.24 716.14,-136.57"/>
</a>
</g>
</g>
</g>
</svg>
