<?xml version="1.0" encoding="UTF-8" standalone="no"?>
<!DOCTYPE svg PUBLIC "-//W3C//DTD SVG 1.1//EN"
 "http://www.w3.org/Graphics/SVG/1.1/DTD/svg11.dtd">
<!-- Generated by graphviz version 2.43.0 (0)
 -->
<!-- Title: include/cppuddle/memory_recycling/detail/cuda_underlying_allocators.hpp Pages: 1 -->
<svg width="246pt" height="106pt"
 viewBox="0.00 0.00 246.00 106.00" xmlns="http://www.w3.org/2000/svg" xmlns:xlink="http://www.w3.org/1999/xlink">
<g id="graph0" class="graph" transform="scale(1 1) rotate(0) translate(4 102)">
<title>include/cppuddle/memory_recycling/detail/cuda_underlying_allocators.hpp</title>
<polygon fill="white" stroke="transparent" points="-4,4 -4,-102 242,-102 242,4 -4,4"/>
<!-- Node1 -->
<g id="node1" class="node">
<title>Node1</title>
<g id="a_node1"><a xlink:title=" ">
<polygon fill="#bfbfbf" stroke="black" points="69,-56.5 69,-97.5 217,-97.5 217,-56.5 69,-56.5"/>
<text text-anchor="start" x="77" y="-85.5" font-family="Helvetica,sans-Serif" font-size="10.00">include/cppuddle/memory</text>
<text text-anchor="start" x="77" y="-74.5" font-family="Helvetica,sans-Serif" font-size="10.00">_recycling/detail/cuda</text>
<text text-anchor="middle" x="143" y="-63.5" font-family="Helvetica,sans-Serif" font-size="10.00">_underlying_allocators.hpp</text>
</a>
</g>
</g>
<!-- Node2 -->
<g id="node2" class="node">
<title>Node2</title>
<g id="a_node2"><a xlink:title=" ">
<polygon fill="white" stroke="#bfbfbf" points="0,-0.5 0,-19.5 92,-19.5 92,-0.5 0,-0.5"/>
<text text-anchor="middle" x="46" y="-7.5" font-family="Helvetica,sans-Serif" font-size="10.00">cuda_runtime.h</text>
</a>
</g>
</g>
<!-- Node1&#45;&gt;Node2 -->
<g id="edge1" class="edge">
<title>Node1&#45;&gt;Node2</title>
<path fill="none" stroke="midnightblue" d="M113.9,-56.5C99.02,-46.53 81.24,-34.61 67.6,-25.48"/>
<polygon fill="midnightblue" stroke="midnightblue" points="69.17,-22.31 58.91,-19.65 65.27,-28.13 69.17,-22.31"/>
</g>
<!-- Node3 -->
<g id="node3" class="node">
<title>Node3</title>
<g id="a_node3"><a xlink:title=" ">
<polygon fill="white" stroke="#bfbfbf" points="110.5,-0.5 110.5,-19.5 175.5,-19.5 175.5,-0.5 110.5,-0.5"/>
<text text-anchor="middle" x="143" y="-7.5" font-family="Helvetica,sans-Serif" font-size="10.00">stdexcept</text>
</a>
</g>
</g>
<!-- Node1&#45;&gt;Node3 -->
<g id="edge2" class="edge">
<title>Node1&#45;&gt;Node3</title>
<path fill="none" stroke="midnightblue" d="M143,-56.5C143,-48.07 143,-38.24 143,-29.87"/>
<polygon fill="midnightblue" stroke="midnightblue" points="146.5,-29.65 143,-19.65 139.5,-29.65 146.5,-29.65"/>
</g>
<!-- Node4 -->
<g id="node4" class="node">
<title>Node4</title>
<g id="a_node4"><a xlink:title=" ">
<polygon fill="white" stroke="#bfbfbf" points="194,-0.5 194,-19.5 238,-19.5 238,-0.5 194,-0.5"/>
<text text-anchor="middle" x="216" y="-7.5" font-family="Helvetica,sans-Serif" font-size="10.00">string</text>
</a>
</g>
</g>
<!-- Node1&#45;&gt;Node4 -->
<g id="edge3" class="edge">
<title>Node1&#45;&gt;Node4</title>
<path fill="none" stroke="midnightblue" d="M164.9,-56.5C175.66,-46.92 188.45,-35.53 198.54,-26.54"/>
<polygon fill="midnightblue" stroke="midnightblue" points="201.14,-28.92 206.28,-19.65 196.49,-23.69 201.14,-28.92"/>
</g>
</g>
</svg>
