<?xml version="1.0" encoding="UTF-8" standalone="no"?>
<!DOCTYPE svg PUBLIC "-//W3C//DTD SVG 1.1//EN"
 "http://www.w3.org/Graphics/SVG/1.1/DTD/svg11.dtd">
<!-- Generated by graphviz version 2.43.0 (0)
 -->
<!-- Title: include/cppuddle/memory_recycling/util/cuda_recycling_device_buffer.hpp Pages: 1 -->
<svg width="560pt" height="173pt"
 viewBox="0.00 0.00 559.50 173.00" xmlns="http://www.w3.org/2000/svg" xmlns:xlink="http://www.w3.org/1999/xlink">
<g id="graph0" class="graph" transform="scale(1 1) rotate(0) translate(4 169)">
<title>include/cppuddle/memory_recycling/util/cuda_recycling_device_buffer.hpp</title>
<polygon fill="white" stroke="transparent" points="-4,4 -4,-169 555.5,-169 555.5,4 -4,4"/>
<!-- Node1 -->
<g id="node1" class="node">
<title>Node1</title>
<g id="a_node1"><a xlink:title="Contains a RAII wrappers for CUDA device buffers. Intended to be used with the recycling allocators b...">
<polygon fill="#bfbfbf" stroke="black" points="183.5,-123.5 183.5,-164.5 344.5,-164.5 344.5,-123.5 183.5,-123.5"/>
<text text-anchor="start" x="191.5" y="-152.5" font-family="Helvetica,sans-Serif" font-size="10.00">include/cppuddle/memory</text>
<text text-anchor="start" x="191.5" y="-141.5" font-family="Helvetica,sans-Serif" font-size="10.00">_recycling/util/cuda_recycling</text>
<text text-anchor="middle" x="264" y="-130.5" font-family="Helvetica,sans-Serif" font-size="10.00">_device_buffer.hpp</text>
</a>
</g>
</g>
<!-- Node2 -->
<g id="node2" class="node">
<title>Node2</title>
<g id="a_node2"><a xlink:href="cuda__buffer__util_8hpp.html" target="_top" xlink:title=" ">
<polygon fill="white" stroke="black" points="0,-56.5 0,-86.5 112,-86.5 112,-56.5 0,-56.5"/>
<text text-anchor="start" x="8" y="-74.5" font-family="Helvetica,sans-Serif" font-size="10.00">include/cuda_buffer</text>
<text text-anchor="middle" x="56" y="-63.5" font-family="Helvetica,sans-Serif" font-size="10.00">_util.hpp</text>
</a>
</g>
</g>
<!-- Node1&#45;&gt;Node2 -->
<g id="edge1" class="edge">
<title>Node1&#45;&gt;Node2</title>
<path fill="none" stroke="midnightblue" d="M196.84,-120.24C164.19,-109.17 125.97,-96.22 97.59,-86.6"/>
<polygon fill="midnightblue" stroke="midnightblue" points="195.74,-123.56 206.34,-123.46 197.99,-116.93 195.74,-123.56"/>
</g>
<!-- Node3 -->
<g id="node3" class="node">
<title>Node3</title>
<g id="a_node3"><a xlink:href="stream__test_8hpp.html" target="_top" xlink:title=" ">
<polygon fill="white" stroke="black" points="130.5,-62 130.5,-81 253.5,-81 253.5,-62 130.5,-62"/>
<text text-anchor="middle" x="192" y="-69" font-family="Helvetica,sans-Serif" font-size="10.00">tests/stream_test.hpp</text>
</a>
</g>
</g>
<!-- Node1&#45;&gt;Node3 -->
<g id="edge2" class="edge">
<title>Node1&#45;&gt;Node3</title>
<path fill="none" stroke="midnightblue" d="M236.7,-116.27C224.01,-103.84 209.78,-89.91 200.86,-81.17"/>
<polygon fill="midnightblue" stroke="midnightblue" points="234.35,-118.87 243.94,-123.36 239.25,-113.86 234.35,-118.87"/>
</g>
<!-- Node5 -->
<g id="node5" class="node">
<title>Node5</title>
<g id="a_node5"><a xlink:href="work__aggregation__cuda__triad_8cpp.html" target="_top" xlink:title=" ">
<polygon fill="white" stroke="black" points="271.5,-56.5 271.5,-86.5 402.5,-86.5 402.5,-56.5 271.5,-56.5"/>
<text text-anchor="start" x="279.5" y="-74.5" font-family="Helvetica,sans-Serif" font-size="10.00">tests/work_aggregation</text>
<text text-anchor="middle" x="337" y="-63.5" font-family="Helvetica,sans-Serif" font-size="10.00">_cuda_triad.cpp</text>
</a>
</g>
</g>
<!-- Node1&#45;&gt;Node5 -->
<g id="edge4" class="edge">
<title>Node1&#45;&gt;Node5</title>
<path fill="none" stroke="midnightblue" d="M291.64,-116.31C301.98,-106.32 313.34,-95.35 322.1,-86.89"/>
<polygon fill="midnightblue" stroke="midnightblue" points="289.1,-113.9 284.33,-123.36 293.96,-118.93 289.1,-113.9"/>
</g>
<!-- Node6 -->
<g id="node6" class="node">
<title>Node6</title>
<g id="a_node6"><a xlink:href="work__aggregation__test_8cpp.html" target="_top" xlink:title=" ">
<polygon fill="white" stroke="black" points="420.5,-56.5 420.5,-86.5 551.5,-86.5 551.5,-56.5 420.5,-56.5"/>
<text text-anchor="start" x="428.5" y="-74.5" font-family="Helvetica,sans-Serif" font-size="10.00">tests/work_aggregation</text>
<text text-anchor="middle" x="486" y="-63.5" font-family="Helvetica,sans-Serif" font-size="10.00">_test.cpp</text>
</a>
</g>
</g>
<!-- Node1&#45;&gt;Node6 -->
<g id="edge5" class="edge">
<title>Node1&#45;&gt;Node6</title>
<path fill="none" stroke="midnightblue" d="M335.23,-120.38C370.18,-109.28 411.19,-96.26 441.61,-86.6"/>
<polygon fill="midnightblue" stroke="midnightblue" points="334.02,-117.09 325.54,-123.46 336.13,-123.76 334.02,-117.09"/>
</g>
<!-- Node4 -->
<g id="node4" class="node">
<title>Node4</title>
<g id="a_node4"><a xlink:href="stream__test_8cpp.html" target="_top" xlink:title=" ">
<polygon fill="white" stroke="black" points="131,-0.5 131,-19.5 253,-19.5 253,-0.5 131,-0.5"/>
<text text-anchor="middle" x="192" y="-7.5" font-family="Helvetica,sans-Serif" font-size="10.00">tests/stream_test.cpp</text>
</a>
</g>
</g>
<!-- Node3&#45;&gt;Node4 -->
<g id="edge3" class="edge">
<title>Node3&#45;&gt;Node4</title>
<path fill="none" stroke="midnightblue" d="M192,-51.82C192,-41 192,-27.9 192,-19.51"/>
<polygon fill="midnightblue" stroke="midnightblue" points="188.5,-51.98 192,-61.98 195.5,-51.98 188.5,-51.98"/>
</g>
</g>
</svg>
