<?xml version="1.0" encoding="UTF-8" standalone="no"?>
<!DOCTYPE svg PUBLIC "-//W3C//DTD SVG 1.1//EN"
 "http://www.w3.org/Graphics/SVG/1.1/DTD/svg11.dtd">
<!-- Generated by graphviz version 2.43.0 (0)
 -->
<!-- Title: include/cuda_buffer_util.hpp Pages: 1 -->
<svg width="988pt" height="412pt"
 viewBox="0.00 0.00 987.50 412.00" xmlns="http://www.w3.org/2000/svg" xmlns:xlink="http://www.w3.org/1999/xlink">
<g id="graph0" class="graph" transform="scale(1 1) rotate(0) translate(4 408)">
<title>include/cuda_buffer_util.hpp</title>
<!-- Node1 -->
<g id="Node000001" class="node">
<title>Node1</title>
<g id="a_Node000001"><a xlink:title=" ">
<polygon fill="#999999" stroke="#666666" points="657,-404 545,-404 545,-374 657,-374 657,-404"/>
<text text-anchor="start" x="553" y="-392" font-family="Helvetica,sans-Serif" font-size="10.00">include/cuda_buffer</text>
<text text-anchor="middle" x="601" y="-381" font-family="Helvetica,sans-Serif" font-size="10.00">_util.hpp</text>
</a>
</g>
</g>
<!-- Node2 -->
<g id="Node000002" class="node">
<title>Node2</title>
<g id="a_Node000002"><a xlink:href="buffer__manager_8hpp.html" target="_top" xlink:title=" ">
<polygon fill="white" stroke="#666666" points="477,-327 363,-327 363,-308 477,-308 477,-327"/>
<text text-anchor="middle" x="420" y="-315" font-family="Helvetica,sans-Serif" font-size="10.00">buffer_manager.hpp</text>
</a>
</g>
</g>
<!-- Node1&#45;&gt;Node2 -->
<g id="edge1_Node000001_Node000002" class="edge">
<title>Node1&#45;&gt;Node2</title>
<g id="a_edge1_Node000001_Node000002"><a xlink:title=" ">
<path fill="none" stroke="#63b8ff" d="M564.37,-373.94C531.38,-361.27 483.36,-342.83 451.9,-330.75"/>
<polygon fill="#63b8ff" stroke="#63b8ff" points="452.9,-327.39 442.31,-327.07 450.39,-333.92 452.9,-327.39"/>
</a>
</g>
</g>
<!-- Node18 -->
<g id="Node000018" class="node">
<title>Node18</title>
<g id="a_Node000018"><a xlink:href="cuda__recycling__allocators_8hpp.html" target="_top" xlink:title=" ">
<polygon fill="white" stroke="#666666" points="790.5,-261 623.5,-261 623.5,-231 790.5,-231 790.5,-261"/>
<text text-anchor="start" x="631.5" y="-249" font-family="Helvetica,sans-Serif" font-size="10.00">cppuddle/memory_recycling</text>
<text text-anchor="middle" x="707" y="-238" font-family="Helvetica,sans-Serif" font-size="10.00">/cuda_recycling_allocators.hpp</text>
</a>
</g>
</g>
<!-- Node1&#45;&gt;Node18 -->
<g id="edge21_Node000001_Node000018" class="edge">
<title>Node1&#45;&gt;Node18</title>
<g id="a_edge21_Node000001_Node000018"><a xlink:title=" ">
<path fill="none" stroke="#63b8ff" d="M600.72,-373.96C601.02,-354.78 604.13,-320.13 621,-297 630.6,-283.84 644.81,-273.59 658.92,-265.89"/>
<polygon fill="#63b8ff" stroke="#63b8ff" points="660.81,-268.85 668.12,-261.19 657.63,-262.62 660.81,-268.85"/>
</a>
</g>
</g>
<!-- Node22 -->
<g id="Node000022" class="node">
<title>Node22</title>
<g id="a_Node000022"><a xlink:href="cuda__recycling__device__buffer_8hpp.html" target="_top" xlink:title="Contains a RAII wrappers for CUDA device buffers. Intended to be used with the recycling allocators b...">
<polygon fill="white" stroke="#666666" points="784.5,-338 629.5,-338 629.5,-297 784.5,-297 784.5,-338"/>
<text text-anchor="start" x="637.5" y="-326" font-family="Helvetica,sans-Serif" font-size="10.00">cppuddle/memory_recycling</text>
<text text-anchor="start" x="637.5" y="-315" font-family="Helvetica,sans-Serif" font-size="10.00">/util/cuda_recycling_device</text>
<text text-anchor="middle" x="707" y="-304" font-family="Helvetica,sans-Serif" font-size="10.00">_buffer.hpp</text>
</a>
</g>
</g>
<!-- Node1&#45;&gt;Node22 -->
<g id="edge27_Node000001_Node000022" class="edge">
<title>Node1&#45;&gt;Node22</title>
<g id="a_edge27_Node000001_Node000022"><a xlink:title=" ">
<path fill="none" stroke="#63b8ff" d="M622.45,-373.94C635.72,-365.23 653.14,-353.81 668.72,-343.6"/>
<polygon fill="#63b8ff" stroke="#63b8ff" points="670.7,-346.48 677.15,-338.07 666.86,-340.63 670.7,-346.48"/>
</a>
</g>
</g>
<!-- Node3 -->
<g id="Node000003" class="node">
<title>Node3</title>
<g id="a_Node000003"><a xlink:href="config_8hpp.html" target="_top" xlink:title=" ">
<polygon fill="white" stroke="#666666" points="160,-74 0,-74 0,-55 160,-55 160,-74"/>
<text text-anchor="middle" x="80" y="-62" font-family="Helvetica,sans-Serif" font-size="10.00">cppuddle/common/config.hpp</text>
</a>
</g>
</g>
<!-- Node2&#45;&gt;Node3 -->
<g id="edge2_Node000002_Node000003" class="edge">
<title>Node2&#45;&gt;Node3</title>
<g id="a_edge2_Node000002_Node000003"><a xlink:title=" ">
<path fill="none" stroke="#63b8ff" d="M408.3,-307.86C358.44,-271.05 163.4,-127.07 100.02,-80.28"/>
<polygon fill="#63b8ff" stroke="#63b8ff" points="101.78,-77.23 91.65,-74.1 97.62,-82.86 101.78,-77.23"/>
</a>
</g>
</g>
<!-- Node5 -->
<g id="Node000005" class="node">
<title>Node5</title>
<g id="a_Node000005"><a xlink:href="buffer__management__interface_8hpp.html" target="_top" xlink:title=" ">
<polygon fill="white" stroke="#666666" points="610,-195 422,-195 422,-165 610,-165 610,-195"/>
<text text-anchor="start" x="430" y="-183" font-family="Helvetica,sans-Serif" font-size="10.00">cppuddle/memory_recycling</text>
<text text-anchor="middle" x="516" y="-172" font-family="Helvetica,sans-Serif" font-size="10.00">/buffer_management_interface.hpp</text>
</a>
</g>
</g>
<!-- Node2&#45;&gt;Node5 -->
<g id="edge4_Node000002_Node000005" class="edge">
<title>Node2&#45;&gt;Node5</title>
<g id="a_edge4_Node000002_Node000005"><a xlink:title=" ">
<path fill="none" stroke="#63b8ff" d="M419.85,-307.64C419.99,-291.09 422.35,-254.98 439,-231 447.86,-218.23 461.14,-207.94 474.19,-200.08"/>
<polygon fill="#63b8ff" stroke="#63b8ff" points="476.14,-203 483.13,-195.04 472.7,-196.91 476.14,-203"/>
</a>
</g>
</g>
<!-- Node6 -->
<g id="Node000006" class="node">
<title>Node6</title>
<g id="a_Node000006"><a xlink:href="buffer__management_8hpp.html" target="_top" xlink:title=" ">
<polygon fill="white" stroke="#666666" points="583.5,-129 416.5,-129 416.5,-110 583.5,-110 583.5,-129"/>
<text text-anchor="middle" x="500" y="-117" font-family="Helvetica,sans-Serif" font-size="10.00">detail/buffer_management.hpp</text>
</a>
</g>
</g>
<!-- Node2&#45;&gt;Node6 -->
<g id="edge18_Node000002_Node000006" class="edge">
<title>Node2&#45;&gt;Node6</title>
<g id="a_edge18_Node000002_Node000006"><a xlink:title=" ">
<path fill="none" stroke="#63b8ff" d="M416.47,-307.8C407.12,-283.21 384.28,-211.94 413,-165 422.4,-149.64 438.96,-139.36 455.14,-132.6"/>
<polygon fill="#63b8ff" stroke="#63b8ff" points="456.46,-135.84 464.56,-129.01 453.96,-129.3 456.46,-135.84"/>
</a>
</g>
</g>
<!-- Node17 -->
<g id="Node000017" class="node">
<title>Node17</title>
<g id="a_Node000017"><a xlink:href="std__recycling__allocators_8hpp.html" target="_top" xlink:title=" ">
<polygon fill="white" stroke="#666666" points="606,-261 448,-261 448,-231 606,-231 606,-261"/>
<text text-anchor="start" x="456" y="-249" font-family="Helvetica,sans-Serif" font-size="10.00">cppuddle/memory_recycling</text>
<text text-anchor="middle" x="527" y="-238" font-family="Helvetica,sans-Serif" font-size="10.00">/std_recycling_allocators.hpp</text>
</a>
</g>
</g>
<!-- Node2&#45;&gt;Node17 -->
<g id="edge19_Node000002_Node000017" class="edge">
<title>Node2&#45;&gt;Node17</title>
<g id="a_edge19_Node000002_Node000017"><a xlink:title=" ">
<path fill="none" stroke="#63b8ff" d="M433.12,-307.98C448.84,-297.77 475.69,-280.33 496.66,-266.71"/>
<polygon fill="#63b8ff" stroke="#63b8ff" points="498.75,-269.52 505.23,-261.14 494.94,-263.65 498.75,-269.52"/>
</a>
</g>
</g>
<!-- Node4 -->
<g id="Node000004" class="node">
<title>Node4</title>
<g id="a_Node000004"><a xlink:title=" ">
<polygon fill="#e0e0e0" stroke="#999999" points="158,-19 110,-19 110,0 158,0 158,-19"/>
<text text-anchor="middle" x="134" y="-7" font-family="Helvetica,sans-Serif" font-size="10.00">mutex</text>
</a>
</g>
</g>
<!-- Node3&#45;&gt;Node4 -->
<g id="edge3_Node000003_Node000004" class="edge">
<title>Node3&#45;&gt;Node4</title>
<g id="a_edge3_Node000003_Node000004"><a xlink:title=" ">
<path fill="none" stroke="#63b8ff" d="M88.92,-54.75C96.78,-47.03 108.43,-35.6 117.92,-26.28"/>
<polygon fill="#63b8ff" stroke="#63b8ff" points="120.56,-28.59 125.25,-19.09 115.66,-23.6 120.56,-28.59"/>
</a>
</g>
</g>
<!-- Node5&#45;&gt;Node6 -->
<g id="edge5_Node000005_Node000006" class="edge">
<title>Node5&#45;&gt;Node6</title>
<g id="a_edge5_Node000005_Node000006"><a xlink:title=" ">
<path fill="none" stroke="#63b8ff" d="M512.13,-164.84C510.02,-157.13 507.38,-147.49 505.11,-139.17"/>
<polygon fill="#63b8ff" stroke="#63b8ff" points="508.41,-137.99 502.4,-129.27 501.66,-139.84 508.41,-137.99"/>
</a>
</g>
</g>
<!-- Node6&#45;&gt;Node3 -->
<g id="edge17_Node000006_Node000003" class="edge">
<title>Node6&#45;&gt;Node3</title>
<g id="a_edge17_Node000006_Node000003"><a xlink:title=" ">
<path fill="none" stroke="#63b8ff" d="M432.52,-109.98C357.62,-100.53 236.93,-85.3 158.03,-75.35"/>
<polygon fill="#63b8ff" stroke="#63b8ff" points="158.02,-71.82 147.66,-74.04 157.14,-78.76 158.02,-71.82"/>
</a>
</g>
</g>
<!-- Node6&#45;&gt;Node4 -->
<g id="edge12_Node000006_Node000004" class="edge">
<title>Node6&#45;&gt;Node4</title>
<g id="a_edge12_Node000006_Node000004"><a xlink:title=" ">
<path fill="none" stroke="#63b8ff" d="M416.25,-118.1C355.62,-114.94 273.07,-104.57 207,-74 183.3,-63.03 161.46,-41.96 147.96,-27.11"/>
<polygon fill="#63b8ff" stroke="#63b8ff" points="150.25,-24.41 141.03,-19.2 144.99,-29.03 150.25,-24.41"/>
</a>
</g>
</g>
<!-- Node7 -->
<g id="Node000007" class="node">
<title>Node7</title>
<g id="a_Node000007"><a xlink:title=" ">
<polygon fill="#e0e0e0" stroke="#999999" points="266,-74 216,-74 216,-55 266,-55 266,-74"/>
<text text-anchor="middle" x="241" y="-62" font-family="Helvetica,sans-Serif" font-size="10.00">atomic</text>
</a>
</g>
</g>
<!-- Node6&#45;&gt;Node7 -->
<g id="edge6_Node000006_Node000007" class="edge">
<title>Node6&#45;&gt;Node7</title>
<g id="a_edge6_Node000006_Node000007"><a xlink:title=" ">
<path fill="none" stroke="#63b8ff" d="M453.32,-109.97C409.85,-101.87 343.03,-89.01 276.09,-74.16"/>
<polygon fill="#63b8ff" stroke="#63b8ff" points="276.74,-70.72 266.22,-71.95 275.21,-77.55 276.74,-70.72"/>
</a>
</g>
</g>
<!-- Node8 -->
<g id="Node000008" class="node">
<title>Node8</title>
<g id="a_Node000008"><a xlink:title=" ">
<polygon fill="#e0e0e0" stroke="#999999" points="336,-74 284,-74 284,-55 336,-55 336,-74"/>
<text text-anchor="middle" x="310" y="-62" font-family="Helvetica,sans-Serif" font-size="10.00">cassert</text>
</a>
</g>
</g>
<!-- Node6&#45;&gt;Node8 -->
<g id="edge7_Node000006_Node000008" class="edge">
<title>Node6&#45;&gt;Node8</title>
<g id="a_edge7_Node000006_Node000008"><a xlink:title=" ">
<path fill="none" stroke="#63b8ff" d="M469.47,-109.98C435.87,-100.61 381.88,-85.55 346.17,-75.59"/>
<polygon fill="#63b8ff" stroke="#63b8ff" points="346.74,-72.12 336.17,-72.8 344.86,-78.86 346.74,-72.12"/>
</a>
</g>
</g>
<!-- Node9 -->
<g id="Node000009" class="node">
<title>Node9</title>
<g id="a_Node000009"><a xlink:title=" ">
<polygon fill="#e0e0e0" stroke="#999999" points="419.5,-74 354.5,-74 354.5,-55 419.5,-55 419.5,-74"/>
<text text-anchor="middle" x="387" y="-62" font-family="Helvetica,sans-Serif" font-size="10.00">functional</text>
</a>
</g>
</g>
<!-- Node6&#45;&gt;Node9 -->
<g id="edge8_Node000006_Node000009" class="edge">
<title>Node6&#45;&gt;Node9</title>
<g id="a_edge8_Node000006_Node000009"><a xlink:title=" ">
<path fill="none" stroke="#63b8ff" d="M481.84,-109.98C463.75,-101.5 435.72,-88.35 414.81,-78.54"/>
<polygon fill="#63b8ff" stroke="#63b8ff" points="416.03,-75.25 405.49,-74.17 413.05,-81.59 416.03,-75.25"/>
</a>
</g>
</g>
<!-- Node10 -->
<g id="Node000010" class="node">
<title>Node10</title>
<g id="a_Node000010"><a xlink:title=" ">
<polygon fill="#e0e0e0" stroke="#999999" points="498,-74 438,-74 438,-55 498,-55 498,-74"/>
<text text-anchor="middle" x="468" y="-62" font-family="Helvetica,sans-Serif" font-size="10.00">iostream</text>
</a>
</g>
</g>
<!-- Node6&#45;&gt;Node10 -->
<g id="edge9_Node000006_Node000010" class="edge">
<title>Node6&#45;&gt;Node10</title>
<g id="a_edge9_Node000006_Node000010"><a xlink:title=" ">
<path fill="none" stroke="#63b8ff" d="M494.72,-109.75C490.29,-102.42 483.84,-91.73 478.38,-82.7"/>
<polygon fill="#63b8ff" stroke="#63b8ff" points="481.35,-80.84 473.19,-74.09 475.36,-84.46 481.35,-80.84"/>
</a>
</g>
</g>
<!-- Node11 -->
<g id="Node000011" class="node">
<title>Node11</title>
<g id="a_Node000011"><a xlink:title=" ">
<polygon fill="#e0e0e0" stroke="#999999" points="548,-74 516,-74 516,-55 548,-55 548,-74"/>
<text text-anchor="middle" x="532" y="-62" font-family="Helvetica,sans-Serif" font-size="10.00">list</text>
</a>
</g>
</g>
<!-- Node6&#45;&gt;Node11 -->
<g id="edge10_Node000006_Node000011" class="edge">
<title>Node6&#45;&gt;Node11</title>
<g id="a_edge10_Node000006_Node000011"><a xlink:title=" ">
<path fill="none" stroke="#63b8ff" d="M505.28,-109.75C509.71,-102.42 516.16,-91.73 521.62,-82.7"/>
<polygon fill="#63b8ff" stroke="#63b8ff" points="524.64,-84.46 526.81,-74.09 518.65,-80.84 524.64,-84.46"/>
</a>
</g>
</g>
<!-- Node12 -->
<g id="Node000012" class="node">
<title>Node12</title>
<g id="a_Node000012"><a xlink:title=" ">
<polygon fill="#e0e0e0" stroke="#999999" points="624,-74 566,-74 566,-55 624,-55 624,-74"/>
<text text-anchor="middle" x="595" y="-62" font-family="Helvetica,sans-Serif" font-size="10.00">memory</text>
</a>
</g>
</g>
<!-- Node6&#45;&gt;Node12 -->
<g id="edge11_Node000006_Node000012" class="edge">
<title>Node6&#45;&gt;Node12</title>
<g id="a_edge11_Node000006_Node000012"><a xlink:title=" ">
<path fill="none" stroke="#63b8ff" d="M515.26,-109.98C530.13,-101.69 552.98,-88.94 570.42,-79.22"/>
<polygon fill="#63b8ff" stroke="#63b8ff" points="572.43,-82.1 579.46,-74.17 569.02,-75.99 572.43,-82.1"/>
</a>
</g>
</g>
<!-- Node13 -->
<g id="Node000013" class="node">
<title>Node13</title>
<g id="a_Node000013"><a xlink:title=" ">
<polygon fill="#e0e0e0" stroke="#999999" points="698,-74 642,-74 642,-55 698,-55 698,-74"/>
<text text-anchor="middle" x="670" y="-62" font-family="Helvetica,sans-Serif" font-size="10.00">optional</text>
</a>
</g>
</g>
<!-- Node6&#45;&gt;Node13 -->
<g id="edge13_Node000006_Node000013" class="edge">
<title>Node6&#45;&gt;Node13</title>
<g id="a_edge13_Node000006_Node000013"><a xlink:title=" ">
<path fill="none" stroke="#63b8ff" d="M527.31,-109.98C555.85,-101.09 600.83,-87.07 632.64,-77.15"/>
<polygon fill="#63b8ff" stroke="#63b8ff" points="633.97,-80.4 642.47,-74.08 631.88,-73.72 633.97,-80.4"/>
</a>
</g>
</g>
<!-- Node14 -->
<g id="Node000014" class="node">
<title>Node14</title>
<g id="a_Node000014"><a xlink:title=" ">
<polygon fill="#e0e0e0" stroke="#999999" points="979.5,-74 914.5,-74 914.5,-55 979.5,-55 979.5,-74"/>
<text text-anchor="middle" x="947" y="-62" font-family="Helvetica,sans-Serif" font-size="10.00">stdexcept</text>
</a>
</g>
</g>
<!-- Node6&#45;&gt;Node14 -->
<g id="edge14_Node000006_Node000014" class="edge">
<title>Node6&#45;&gt;Node14</title>
<g id="a_edge14_Node000006_Node000014"><a xlink:title=" ">
<path fill="none" stroke="#63b8ff" d="M583.51,-111.69C663.48,-104.63 787.71,-92.27 904.21,-74.15"/>
<polygon fill="#63b8ff" stroke="#63b8ff" points="905.04,-77.57 914.38,-72.56 903.96,-70.65 905.04,-77.57"/>
</a>
</g>
</g>
<!-- Node15 -->
<g id="Node000015" class="node">
<title>Node15</title>
<g id="a_Node000015"><a xlink:title=" ">
<polygon fill="#e0e0e0" stroke="#999999" points="785.5,-74 716.5,-74 716.5,-55 785.5,-55 785.5,-74"/>
<text text-anchor="middle" x="751" y="-62" font-family="Helvetica,sans-Serif" font-size="10.00">type_traits</text>
</a>
</g>
</g>
<!-- Node6&#45;&gt;Node15 -->
<g id="edge15_Node000006_Node000015" class="edge">
<title>Node6&#45;&gt;Node15</title>
<g id="a_edge15_Node000006_Node000015"><a xlink:title=" ">
<path fill="none" stroke="#63b8ff" d="M540.33,-109.98C585.77,-100.39 659.43,-84.84 706.51,-74.89"/>
<polygon fill="#63b8ff" stroke="#63b8ff" points="707.37,-78.29 716.43,-72.8 705.92,-71.44 707.37,-78.29"/>
</a>
</g>
</g>
<!-- Node16 -->
<g id="Node000016" class="node">
<title>Node16</title>
<g id="a_Node000016"><a xlink:title=" ">
<polygon fill="#e0e0e0" stroke="#999999" points="896.5,-74 803.5,-74 803.5,-55 896.5,-55 896.5,-74"/>
<text text-anchor="middle" x="850" y="-62" font-family="Helvetica,sans-Serif" font-size="10.00">unordered_map</text>
</a>
</g>
</g>
<!-- Node6&#45;&gt;Node16 -->
<g id="edge16_Node000006_Node000016" class="edge">
<title>Node6&#45;&gt;Node16</title>
<g id="a_edge16_Node000006_Node000016"><a xlink:title=" ">
<path fill="none" stroke="#63b8ff" d="M556.84,-109.99C614.1,-101.4 705.3,-87.68 793.58,-74.21"/>
<polygon fill="#63b8ff" stroke="#63b8ff" points="794.13,-77.67 803.49,-72.7 793.08,-70.75 794.13,-77.67"/>
</a>
</g>
</g>
<!-- Node17&#45;&gt;Node5 -->
<g id="edge20_Node000017_Node000005" class="edge">
<title>Node17&#45;&gt;Node5</title>
<g id="a_edge20_Node000017_Node000005"><a xlink:title=" ">
<path fill="none" stroke="#63b8ff" d="M524.56,-230.8C523.26,-223.26 521.63,-213.78 520.15,-205.13"/>
<polygon fill="#63b8ff" stroke="#63b8ff" points="523.58,-204.43 518.43,-195.16 516.68,-205.61 523.58,-204.43"/>
</a>
</g>
</g>
<!-- Node18&#45;&gt;Node5 -->
<g id="edge22_Node000018_Node000005" class="edge">
<title>Node18&#45;&gt;Node5</title>
<g id="a_edge22_Node000018_Node000005"><a xlink:title=" ">
<path fill="none" stroke="#63b8ff" d="M665.08,-230.95C636.35,-221.33 598.04,-208.49 567.46,-198.24"/>
<polygon fill="#63b8ff" stroke="#63b8ff" points="568.41,-194.87 557.82,-195.01 566.19,-201.51 568.41,-194.87"/>
</a>
</g>
</g>
<!-- Node19 -->
<g id="Node000019" class="node">
<title>Node19</title>
<g id="a_Node000019"><a xlink:href="cuda__underlying__allocators_8hpp.html" target="_top" xlink:title=" ">
<polygon fill="white" stroke="#666666" points="787,-195 659,-195 659,-165 787,-165 787,-195"/>
<text text-anchor="start" x="667" y="-183" font-family="Helvetica,sans-Serif" font-size="10.00">detail/cuda_underlying</text>
<text text-anchor="middle" x="723" y="-172" font-family="Helvetica,sans-Serif" font-size="10.00">_allocators.hpp</text>
</a>
</g>
</g>
<!-- Node18&#45;&gt;Node19 -->
<g id="edge23_Node000018_Node000019" class="edge">
<title>Node18&#45;&gt;Node19</title>
<g id="a_edge23_Node000018_Node000019"><a xlink:title=" ">
<path fill="none" stroke="#63b8ff" d="M710.55,-230.8C712.44,-223.26 714.8,-213.78 716.97,-205.13"/>
<polygon fill="#63b8ff" stroke="#63b8ff" points="720.43,-205.71 719.46,-195.16 713.64,-204.02 720.43,-205.71"/>
</a>
</g>
</g>
<!-- Node19&#45;&gt;Node14 -->
<g id="edge25_Node000019_Node000014" class="edge">
<title>Node19&#45;&gt;Node14</title>
<g id="a_edge25_Node000019_Node000014"><a xlink:title=" ">
<path fill="none" stroke="#63b8ff" d="M711.06,-164.81C699.86,-149.71 686.68,-125.85 700,-110 728.2,-76.44 845.9,-81.92 904.47,-73.96"/>
<polygon fill="#63b8ff" stroke="#63b8ff" points="905.03,-77.41 914.34,-72.37 903.92,-70.5 905.03,-77.41"/>
</a>
</g>
</g>
<!-- Node20 -->
<g id="Node000020" class="node">
<title>Node20</title>
<g id="a_Node000020"><a xlink:title=" ">
<polygon fill="#e0e0e0" stroke="#999999" points="801,-129 709,-129 709,-110 801,-110 801,-129"/>
<text text-anchor="middle" x="755" y="-117" font-family="Helvetica,sans-Serif" font-size="10.00">cuda_runtime.h</text>
</a>
</g>
</g>
<!-- Node19&#45;&gt;Node20 -->
<g id="edge24_Node000019_Node000020" class="edge">
<title>Node19&#45;&gt;Node20</title>
<g id="a_edge24_Node000019_Node000020"><a xlink:title=" ">
<path fill="none" stroke="#63b8ff" d="M730.75,-164.84C735.15,-156.78 740.71,-146.62 745.4,-138.06"/>
<polygon fill="#63b8ff" stroke="#63b8ff" points="748.48,-139.72 750.2,-129.27 742.34,-136.36 748.48,-139.72"/>
</a>
</g>
</g>
<!-- Node21 -->
<g id="Node000021" class="node">
<title>Node21</title>
<g id="a_Node000021"><a xlink:title=" ">
<polygon fill="#e0e0e0" stroke="#999999" points="863,-129 819,-129 819,-110 863,-110 863,-129"/>
<text text-anchor="middle" x="841" y="-117" font-family="Helvetica,sans-Serif" font-size="10.00">string</text>
</a>
</g>
</g>
<!-- Node19&#45;&gt;Node21 -->
<g id="edge26_Node000019_Node000021" class="edge">
<title>Node19&#45;&gt;Node21</title>
<g id="a_edge26_Node000019_Node000021"><a xlink:title=" ">
<path fill="none" stroke="#63b8ff" d="M751.26,-164.99C770.42,-155.49 795.58,-143.02 814.39,-133.69"/>
<polygon fill="#63b8ff" stroke="#63b8ff" points="816.17,-136.72 823.57,-129.14 813.06,-130.45 816.17,-136.72"/>
</a>
</g>
</g>
<!-- Node22&#45;&gt;Node18 -->
<g id="edge28_Node000022_Node000018" class="edge">
<title>Node22&#45;&gt;Node18</title>
<g id="a_edge28_Node000022_Node000018"><a xlink:title=" ">
<path fill="none" stroke="#63b8ff" d="M707,-296.77C707,-288.85 707,-279.63 707,-271.3"/>
<polygon fill="#63b8ff" stroke="#63b8ff" points="710.5,-271.04 707,-261.04 703.5,-271.04 710.5,-271.04"/>
</a>
</g>
</g>
</g>
</svg>
