<?xml version="1.0" encoding="UTF-8" standalone="no"?>
<!DOCTYPE svg PUBLIC "-//W3C//DTD SVG 1.1//EN"
 "http://www.w3.org/Graphics/SVG/1.1/DTD/svg11.dtd">
<!-- Generated by graphviz version 2.43.0 (0)
 -->
<!-- Title: include/cppuddle/memory_recycling/detail/cuda_underlying_allocators.hpp Pages: 1 -->
<svg width="744pt" height="324pt"
 viewBox="0.00 0.00 743.50 324.00" xmlns="http://www.w3.org/2000/svg" xmlns:xlink="http://www.w3.org/1999/xlink">
<g id="graph0" class="graph" transform="scale(1 1) rotate(0) translate(4 320)">
<title>include/cppuddle/memory_recycling/detail/cuda_underlying_allocators.hpp</title>
<!-- Node1 -->
<g id="Node000001" class="node">
<title>Node1</title>
<g id="a_Node000001"><a xlink:title=" ">
<polygon fill="#999999" stroke="#666666" points="447,-316 299,-316 299,-275 447,-275 447,-316"/>
<text text-anchor="start" x="307" y="-304" font-family="Helvetica,sans-Serif" font-size="10.00">include/cppuddle/memory</text>
<text text-anchor="start" x="307" y="-293" font-family="Helvetica,sans-Serif" font-size="10.00">_recycling/detail/cuda</text>
<text text-anchor="middle" x="373" y="-282" font-family="Helvetica,sans-Serif" font-size="10.00">_underlying_allocators.hpp</text>
</a>
</g>
</g>
<!-- Node2 -->
<g id="Node000002" class="node">
<title>Node2</title>
<g id="a_Node000002"><a xlink:href="cuda__recycling__allocators_8hpp.html" target="_top" xlink:title=" ">
<polygon fill="white" stroke="#666666" points="444.5,-239 301.5,-239 301.5,-198 444.5,-198 444.5,-239"/>
<text text-anchor="start" x="309.5" y="-227" font-family="Helvetica,sans-Serif" font-size="10.00">include/cppuddle/memory</text>
<text text-anchor="start" x="309.5" y="-216" font-family="Helvetica,sans-Serif" font-size="10.00">_recycling/cuda_recycling</text>
<text text-anchor="middle" x="373" y="-205" font-family="Helvetica,sans-Serif" font-size="10.00">_allocators.hpp</text>
</a>
</g>
</g>
<!-- Node1&#45;&gt;Node2 -->
<g id="edge1_Node000001_Node000002" class="edge">
<title>Node1&#45;&gt;Node2</title>
<g id="a_edge1_Node000001_Node000002"><a xlink:title=" ">
<path fill="none" stroke="#63b8ff" d="M373,-264.69C373,-256.08 373,-246.9 373,-239.07"/>
<polygon fill="#63b8ff" stroke="#63b8ff" points="369.5,-264.79 373,-274.79 376.5,-264.79 369.5,-264.79"/>
</a>
</g>
</g>
<!-- Node3 -->
<g id="Node000003" class="node">
<title>Node3</title>
<g id="a_Node000003"><a xlink:href="cuda__recycling__device__buffer_8hpp.html" target="_top" xlink:title="Contains a RAII wrappers for CUDA device buffers. Intended to be used with the recycling allocators b...">
<polygon fill="white" stroke="#666666" points="344.5,-162 183.5,-162 183.5,-121 344.5,-121 344.5,-162"/>
<text text-anchor="start" x="191.5" y="-150" font-family="Helvetica,sans-Serif" font-size="10.00">include/cppuddle/memory</text>
<text text-anchor="start" x="191.5" y="-139" font-family="Helvetica,sans-Serif" font-size="10.00">_recycling/util/cuda_recycling</text>
<text text-anchor="middle" x="264" y="-128" font-family="Helvetica,sans-Serif" font-size="10.00">_device_buffer.hpp</text>
</a>
</g>
</g>
<!-- Node2&#45;&gt;Node3 -->
<g id="edge2_Node000002_Node000003" class="edge">
<title>Node2&#45;&gt;Node3</title>
<g id="a_edge2_Node000002_Node000003"><a xlink:title=" ">
<path fill="none" stroke="#63b8ff" d="M336.07,-192.09C321.87,-182.32 305.89,-171.32 292.59,-162.17"/>
<polygon fill="#63b8ff" stroke="#63b8ff" points="334.42,-195.21 344.65,-197.99 338.39,-189.44 334.42,-195.21"/>
</a>
</g>
</g>
<!-- Node4 -->
<g id="Node000004" class="node">
<title>Node4</title>
<g id="a_Node000004"><a xlink:href="cuda__buffer__util_8hpp.html" target="_top" xlink:title=" ">
<polygon fill="white" stroke="#666666" points="112,-85 0,-85 0,-55 112,-55 112,-85"/>
<text text-anchor="start" x="8" y="-73" font-family="Helvetica,sans-Serif" font-size="10.00">include/cuda_buffer</text>
<text text-anchor="middle" x="56" y="-62" font-family="Helvetica,sans-Serif" font-size="10.00">_util.hpp</text>
</a>
</g>
</g>
<!-- Node2&#45;&gt;Node4 -->
<g id="edge8_Node000002_Node000004" class="edge">
<title>Node2&#45;&gt;Node4</title>
<g id="a_edge8_Node000002_Node000004"><a xlink:title=" ">
<path fill="none" stroke="#63b8ff" d="M291.04,-204.67C250.88,-196.22 202.75,-182.77 163,-162 124.31,-141.78 87.41,-105.35 68.72,-85.26"/>
<polygon fill="#63b8ff" stroke="#63b8ff" points="290.56,-208.15 301.06,-206.71 291.96,-201.29 290.56,-208.15"/>
</a>
</g>
</g>
<!-- Node5 -->
<g id="Node000005" class="node">
<title>Node5</title>
<g id="a_Node000005"><a xlink:href="stream__test_8hpp.html" target="_top" xlink:title=" ">
<polygon fill="white" stroke="#666666" points="253.5,-79.5 130.5,-79.5 130.5,-60.5 253.5,-60.5 253.5,-79.5"/>
<text text-anchor="middle" x="192" y="-67.5" font-family="Helvetica,sans-Serif" font-size="10.00">tests/stream_test.hpp</text>
</a>
</g>
</g>
<!-- Node2&#45;&gt;Node5 -->
<g id="edge11_Node000002_Node000005" class="edge">
<title>Node2&#45;&gt;Node5</title>
<g id="a_edge11_Node000002_Node000005"><a xlink:title=" ">
<path fill="none" stroke="#63b8ff" d="M291.42,-204.94C243.14,-195.65 188.64,-181.28 174,-162 154.91,-136.86 175.6,-96.87 186.35,-79.51"/>
<polygon fill="#63b8ff" stroke="#63b8ff" points="290.82,-208.39 301.29,-206.78 292.1,-201.51 290.82,-208.39"/>
</a>
</g>
</g>
<!-- Node7 -->
<g id="Node000007" class="node">
<title>Node7</title>
<g id="a_Node000007"><a xlink:href="work__aggregation__cuda__triad_8cpp.html" target="_top" xlink:title=" ">
<polygon fill="white" stroke="#666666" points="402.5,-85 271.5,-85 271.5,-55 402.5,-55 402.5,-85"/>
<text text-anchor="start" x="279.5" y="-73" font-family="Helvetica,sans-Serif" font-size="10.00">tests/work_aggregation</text>
<text text-anchor="middle" x="337" y="-62" font-family="Helvetica,sans-Serif" font-size="10.00">_cuda_triad.cpp</text>
</a>
</g>
</g>
<!-- Node2&#45;&gt;Node7 -->
<g id="edge12_Node000002_Node000007" class="edge">
<title>Node2&#45;&gt;Node7</title>
<g id="a_edge12_Node000002_Node000007"><a xlink:title=" ">
<path fill="none" stroke="#63b8ff" d="M367.69,-187.81C364.05,-168.63 358.84,-143.2 353,-121 349.8,-108.84 345.4,-95.26 342.03,-85.32"/>
<polygon fill="#63b8ff" stroke="#63b8ff" points="364.27,-188.58 369.54,-197.77 371.15,-187.3 364.27,-188.58"/>
</a>
</g>
</g>
<!-- Node8 -->
<g id="Node000008" class="node">
<title>Node8</title>
<g id="a_Node000008"><a xlink:href="work__aggregation__test_8cpp.html" target="_top" xlink:title=" ">
<polygon fill="white" stroke="#666666" points="551.5,-85 420.5,-85 420.5,-55 551.5,-55 551.5,-85"/>
<text text-anchor="start" x="428.5" y="-73" font-family="Helvetica,sans-Serif" font-size="10.00">tests/work_aggregation</text>
<text text-anchor="middle" x="486" y="-62" font-family="Helvetica,sans-Serif" font-size="10.00">_test.cpp</text>
</a>
</g>
</g>
<!-- Node2&#45;&gt;Node8 -->
<g id="edge13_Node000002_Node000008" class="edge">
<title>Node2&#45;&gt;Node8</title>
<g id="a_edge13_Node000002_Node000008"><a xlink:title=" ">
<path fill="none" stroke="#63b8ff" d="M387.28,-188.98C397.96,-168.98 413.66,-142.13 431,-121 441.97,-107.63 456.52,-94.56 467.91,-85.14"/>
<polygon fill="#63b8ff" stroke="#63b8ff" points="384.13,-187.44 382.59,-197.92 390.33,-190.69 384.13,-187.44"/>
</a>
</g>
</g>
<!-- Node9 -->
<g id="Node000009" class="node">
<title>Node9</title>
<g id="a_Node000009"><a xlink:href="allocator__kokkos__executor__for__loop__test_8cpp.html" target="_top" xlink:title=" ">
<polygon fill="white" stroke="#666666" points="592.5,-156.5 439.5,-156.5 439.5,-126.5 592.5,-126.5 592.5,-156.5"/>
<text text-anchor="start" x="447.5" y="-144.5" font-family="Helvetica,sans-Serif" font-size="10.00">tests/allocator_kokkos</text>
<text text-anchor="middle" x="516" y="-133.5" font-family="Helvetica,sans-Serif" font-size="10.00">_executor_for_loop_test.cpp</text>
</a>
</g>
</g>
<!-- Node2&#45;&gt;Node9 -->
<g id="edge9_Node000002_Node000009" class="edge">
<title>Node2&#45;&gt;Node9</title>
<g id="a_edge9_Node000002_Node000009"><a xlink:title=" ">
<path fill="none" stroke="#63b8ff" d="M419.14,-193.3C442.18,-181.22 469.26,-167.01 488.93,-156.7"/>
<polygon fill="#63b8ff" stroke="#63b8ff" points="417.43,-190.25 410.2,-197.99 420.68,-196.45 417.43,-190.25"/>
</a>
</g>
</g>
<!-- Node10 -->
<g id="Node000010" class="node">
<title>Node10</title>
<g id="a_Node000010"><a xlink:href="allocator__kokkos__test_8cpp.html" target="_top" xlink:title=" ">
<polygon fill="white" stroke="#666666" points="735.5,-156.5 610.5,-156.5 610.5,-126.5 735.5,-126.5 735.5,-156.5"/>
<text text-anchor="start" x="618.5" y="-144.5" font-family="Helvetica,sans-Serif" font-size="10.00">tests/allocator_kokkos</text>
<text text-anchor="middle" x="673" y="-133.5" font-family="Helvetica,sans-Serif" font-size="10.00">_test.cpp</text>
</a>
</g>
</g>
<!-- Node2&#45;&gt;Node10 -->
<g id="edge10_Node000002_Node000010" class="edge">
<title>Node2&#45;&gt;Node10</title>
<g id="a_edge10_Node000002_Node000010"><a xlink:title=" ">
<path fill="none" stroke="#63b8ff" d="M454.31,-198.43C498.15,-187.98 553.12,-174.63 602,-162 608.68,-160.27 615.71,-158.41 622.63,-156.54"/>
<polygon fill="#63b8ff" stroke="#63b8ff" points="453.49,-195.02 444.57,-200.74 455.11,-201.83 453.49,-195.02"/>
</a>
</g>
</g>
<!-- Node3&#45;&gt;Node4 -->
<g id="edge3_Node000003_Node000004" class="edge">
<title>Node3&#45;&gt;Node4</title>
<g id="a_edge3_Node000003_Node000004"><a xlink:title=" ">
<path fill="none" stroke="#63b8ff" d="M195.68,-117.67C163.4,-106.89 125.92,-94.36 97.91,-85"/>
<polygon fill="#63b8ff" stroke="#63b8ff" points="194.91,-121.11 205.51,-120.96 197.13,-114.47 194.91,-121.11"/>
</a>
</g>
</g>
<!-- Node3&#45;&gt;Node5 -->
<g id="edge4_Node000003_Node000005" class="edge">
<title>Node3&#45;&gt;Node5</title>
<g id="a_edge4_Node000003_Node000005"><a xlink:title=" ">
<path fill="none" stroke="#63b8ff" d="M236.07,-113.54C223.67,-101.57 209.93,-88.3 201.14,-79.82"/>
<polygon fill="#63b8ff" stroke="#63b8ff" points="233.93,-116.34 243.56,-120.77 238.8,-111.31 233.93,-116.34"/>
</a>
</g>
</g>
<!-- Node3&#45;&gt;Node7 -->
<g id="edge6_Node000003_Node000007" class="edge">
<title>Node3&#45;&gt;Node7</title>
<g id="a_edge6_Node000003_Node000007"><a xlink:title=" ">
<path fill="none" stroke="#63b8ff" d="M292.01,-113.83C302.31,-104.02 313.58,-93.3 322.25,-85.04"/>
<polygon fill="#63b8ff" stroke="#63b8ff" points="289.55,-111.34 284.72,-120.77 294.38,-116.41 289.55,-111.34"/>
</a>
</g>
</g>
<!-- Node3&#45;&gt;Node8 -->
<g id="edge7_Node000003_Node000008" class="edge">
<title>Node3&#45;&gt;Node8</title>
<g id="a_edge7_Node000003_Node000008"><a xlink:title=" ">
<path fill="none" stroke="#63b8ff" d="M336.03,-117.95C370.68,-107.1 411.12,-94.44 441.27,-85"/>
<polygon fill="#63b8ff" stroke="#63b8ff" points="334.93,-114.63 326.43,-120.96 337.02,-121.31 334.93,-114.63"/>
</a>
</g>
</g>
<!-- Node6 -->
<g id="Node000006" class="node">
<title>Node6</title>
<g id="a_Node000006"><a xlink:href="stream__test_8cpp.html" target="_top" xlink:title=" ">
<polygon fill="white" stroke="#666666" points="253,-19 131,-19 131,0 253,0 253,-19"/>
<text text-anchor="middle" x="192" y="-7" font-family="Helvetica,sans-Serif" font-size="10.00">tests/stream_test.cpp</text>
</a>
</g>
</g>
<!-- Node5&#45;&gt;Node6 -->
<g id="edge5_Node000005_Node000006" class="edge">
<title>Node5&#45;&gt;Node6</title>
<g id="a_edge5_Node000005_Node000006"><a xlink:title=" ">
<path fill="none" stroke="#63b8ff" d="M192,-50.16C192,-39.74 192,-27.3 192,-19.17"/>
<polygon fill="#63b8ff" stroke="#63b8ff" points="188.5,-50.37 192,-60.37 195.5,-50.37 188.5,-50.37"/>
</a>
</g>
</g>
</g>
</svg>
