<?xml version="1.0" encoding="UTF-8" standalone="no"?>
<!DOCTYPE svg PUBLIC "-//W3C//DTD SVG 1.1//EN"
 "http://www.w3.org/Graphics/SVG/1.1/DTD/svg11.dtd">
<!-- Generated by graphviz version 2.43.0 (0)
 -->
<!-- Title: include/cppuddle/memory_recycling/cuda_recycling_allocators.hpp Pages: 1 -->
<svg width="744pt" height="251pt"
 viewBox="0.00 0.00 743.50 251.00" xmlns="http://www.w3.org/2000/svg" xmlns:xlink="http://www.w3.org/1999/xlink">
<g id="graph0" class="graph" transform="scale(1 1) rotate(0) translate(4 247)">
<title>include/cppuddle/memory_recycling/cuda_recycling_allocators.hpp</title>
<polygon fill="white" stroke="transparent" points="-4,4 -4,-247 739.5,-247 739.5,4 -4,4"/>
<!-- Node1 -->
<g id="node1" class="node">
<title>Node1</title>
<g id="a_node1"><a xlink:title=" ">
<polygon fill="#bfbfbf" stroke="black" points="301.5,-201.5 301.5,-242.5 444.5,-242.5 444.5,-201.5 301.5,-201.5"/>
<text text-anchor="start" x="309.5" y="-230.5" font-family="Helvetica,sans-Serif" font-size="10.00">include/cppuddle/memory</text>
<text text-anchor="start" x="309.5" y="-219.5" font-family="Helvetica,sans-Serif" font-size="10.00">_recycling/cuda_recycling</text>
<text text-anchor="middle" x="373" y="-208.5" font-family="Helvetica,sans-Serif" font-size="10.00">_allocators.hpp</text>
</a>
</g>
</g>
<!-- Node2 -->
<g id="node2" class="node">
<title>Node2</title>
<g id="a_node2"><a xlink:href="cuda__recycling__device__buffer_8hpp.html" target="_top" xlink:title="Contains a RAII wrappers for CUDA device buffers. Intended to be used with the recycling allocators b...">
<polygon fill="white" stroke="black" points="183.5,-123.5 183.5,-164.5 344.5,-164.5 344.5,-123.5 183.5,-123.5"/>
<text text-anchor="start" x="191.5" y="-152.5" font-family="Helvetica,sans-Serif" font-size="10.00">include/cppuddle/memory</text>
<text text-anchor="start" x="191.5" y="-141.5" font-family="Helvetica,sans-Serif" font-size="10.00">_recycling/util/cuda_recycling</text>
<text text-anchor="middle" x="264" y="-130.5" font-family="Helvetica,sans-Serif" font-size="10.00">_device_buffer.hpp</text>
</a>
</g>
</g>
<!-- Node1&#45;&gt;Node2 -->
<g id="edge1" class="edge">
<title>Node1&#45;&gt;Node2</title>
<path fill="none" stroke="midnightblue" d="M336.62,-195.64C322.07,-185.49 305.57,-173.98 291.98,-164.51"/>
<polygon fill="midnightblue" stroke="midnightblue" points="334.73,-198.58 344.93,-201.43 338.73,-192.84 334.73,-198.58"/>
</g>
<!-- Node3 -->
<g id="node3" class="node">
<title>Node3</title>
<g id="a_node3"><a xlink:href="cuda__buffer__util_8hpp.html" target="_top" xlink:title=" ">
<polygon fill="white" stroke="black" points="0,-56.5 0,-86.5 112,-86.5 112,-56.5 0,-56.5"/>
<text text-anchor="start" x="8" y="-74.5" font-family="Helvetica,sans-Serif" font-size="10.00">include/cuda_buffer</text>
<text text-anchor="middle" x="56" y="-63.5" font-family="Helvetica,sans-Serif" font-size="10.00">_util.hpp</text>
</a>
</g>
</g>
<!-- Node1&#45;&gt;Node3 -->
<g id="edge7" class="edge">
<title>Node1&#45;&gt;Node3</title>
<path fill="none" stroke="midnightblue" d="M291.43,-208.18C251.16,-199.67 202.81,-186.07 163,-165 123.93,-144.33 86.9,-106.99 68.36,-86.65"/>
<polygon fill="midnightblue" stroke="midnightblue" points="290.98,-211.66 301.48,-210.23 292.39,-204.8 290.98,-211.66"/>
</g>
<!-- Node4 -->
<g id="node4" class="node">
<title>Node4</title>
<g id="a_node4"><a xlink:href="stream__test_8hpp.html" target="_top" xlink:title=" ">
<polygon fill="white" stroke="black" points="130.5,-62 130.5,-81 253.5,-81 253.5,-62 130.5,-62"/>
<text text-anchor="middle" x="192" y="-69" font-family="Helvetica,sans-Serif" font-size="10.00">tests/stream_test.hpp</text>
</a>
</g>
</g>
<!-- Node1&#45;&gt;Node4 -->
<g id="edge10" class="edge">
<title>Node1&#45;&gt;Node4</title>
<path fill="none" stroke="midnightblue" d="M291.41,-208.23C243.13,-198.82 188.62,-184.3 174,-165 154.64,-139.44 175.48,-98.8 186.31,-81.15"/>
<polygon fill="midnightblue" stroke="midnightblue" points="290.8,-211.68 301.28,-210.1 292.11,-204.8 290.8,-211.68"/>
</g>
<!-- Node6 -->
<g id="node6" class="node">
<title>Node6</title>
<g id="a_node6"><a xlink:href="work__aggregation__cuda__triad_8cpp.html" target="_top" xlink:title=" ">
<polygon fill="white" stroke="black" points="271.5,-56.5 271.5,-86.5 402.5,-86.5 402.5,-56.5 271.5,-56.5"/>
<text text-anchor="start" x="279.5" y="-74.5" font-family="Helvetica,sans-Serif" font-size="10.00">tests/work_aggregation</text>
<text text-anchor="middle" x="337" y="-63.5" font-family="Helvetica,sans-Serif" font-size="10.00">_cuda_triad.cpp</text>
</a>
</g>
</g>
<!-- Node1&#45;&gt;Node6 -->
<g id="edge11" class="edge">
<title>Node1&#45;&gt;Node6</title>
<path fill="none" stroke="midnightblue" d="M367.82,-191.49C364.18,-171.94 358.92,-145.79 353,-123 349.76,-110.54 345.28,-96.6 341.88,-86.53"/>
<polygon fill="midnightblue" stroke="midnightblue" points="364.38,-192.13 369.62,-201.34 371.26,-190.87 364.38,-192.13"/>
</g>
<!-- Node7 -->
<g id="node7" class="node">
<title>Node7</title>
<g id="a_node7"><a xlink:href="work__aggregation__test_8cpp.html" target="_top" xlink:title=" ">
<polygon fill="white" stroke="black" points="420.5,-56.5 420.5,-86.5 551.5,-86.5 551.5,-56.5 420.5,-56.5"/>
<text text-anchor="start" x="428.5" y="-74.5" font-family="Helvetica,sans-Serif" font-size="10.00">tests/work_aggregation</text>
<text text-anchor="middle" x="486" y="-63.5" font-family="Helvetica,sans-Serif" font-size="10.00">_test.cpp</text>
</a>
</g>
</g>
<!-- Node1&#45;&gt;Node7 -->
<g id="edge12" class="edge">
<title>Node1&#45;&gt;Node7</title>
<path fill="none" stroke="midnightblue" d="M387.23,-192.05C397.89,-171.74 413.59,-144.48 431,-123 442.02,-109.41 456.71,-96.11 468.14,-86.57"/>
<polygon fill="midnightblue" stroke="midnightblue" points="384.02,-190.63 382.56,-201.13 390.25,-193.84 384.02,-190.63"/>
</g>
<!-- Node8 -->
<g id="node8" class="node">
<title>Node8</title>
<g id="a_node8"><a xlink:href="allocator__kokkos__test_8cpp.html" target="_top" xlink:title=" ">
<polygon fill="white" stroke="black" points="439.5,-129 439.5,-159 564.5,-159 564.5,-129 439.5,-129"/>
<text text-anchor="start" x="447.5" y="-147" font-family="Helvetica,sans-Serif" font-size="10.00">tests/allocator_kokkos</text>
<text text-anchor="middle" x="502" y="-136" font-family="Helvetica,sans-Serif" font-size="10.00">_test.cpp</text>
</a>
</g>
</g>
<!-- Node1&#45;&gt;Node8 -->
<g id="edge8" class="edge">
<title>Node1&#45;&gt;Node8</title>
<path fill="none" stroke="midnightblue" d="M414.9,-196.31C435.74,-184.04 460.18,-169.64 477.85,-159.23"/>
<polygon fill="midnightblue" stroke="midnightblue" points="413.06,-193.34 406.22,-201.43 416.61,-199.37 413.06,-193.34"/>
</g>
<!-- Node9 -->
<g id="node9" class="node">
<title>Node9</title>
<g id="a_node9"><a xlink:href="allocator__kokkos__executor__for__loop__test_8cpp.html" target="_top" xlink:title=" ">
<polygon fill="white" stroke="black" points="582.5,-129 582.5,-159 735.5,-159 735.5,-129 582.5,-129"/>
<text text-anchor="start" x="590.5" y="-147" font-family="Helvetica,sans-Serif" font-size="10.00">tests/allocator_kokkos</text>
<text text-anchor="middle" x="659" y="-136" font-family="Helvetica,sans-Serif" font-size="10.00">_executor_for_loop_test.cpp</text>
</a>
</g>
</g>
<!-- Node1&#45;&gt;Node9 -->
<g id="edge9" class="edge">
<title>Node1&#45;&gt;Node9</title>
<path fill="none" stroke="midnightblue" d="M454.68,-199.29C503.34,-186.37 563.67,-170.33 606.13,-159.05"/>
<polygon fill="midnightblue" stroke="midnightblue" points="453.57,-195.97 444.8,-201.92 455.36,-202.73 453.57,-195.97"/>
</g>
<!-- Node2&#45;&gt;Node3 -->
<g id="edge2" class="edge">
<title>Node2&#45;&gt;Node3</title>
<path fill="none" stroke="midnightblue" d="M196.84,-120.24C164.19,-109.17 125.97,-96.22 97.59,-86.6"/>
<polygon fill="midnightblue" stroke="midnightblue" points="195.74,-123.56 206.34,-123.46 197.99,-116.93 195.74,-123.56"/>
</g>
<!-- Node2&#45;&gt;Node4 -->
<g id="edge3" class="edge">
<title>Node2&#45;&gt;Node4</title>
<path fill="none" stroke="midnightblue" d="M236.7,-116.27C224.01,-103.84 209.78,-89.91 200.86,-81.17"/>
<polygon fill="midnightblue" stroke="midnightblue" points="234.35,-118.87 243.94,-123.36 239.25,-113.86 234.35,-118.87"/>
</g>
<!-- Node2&#45;&gt;Node6 -->
<g id="edge5" class="edge">
<title>Node2&#45;&gt;Node6</title>
<path fill="none" stroke="midnightblue" d="M291.64,-116.31C301.98,-106.32 313.34,-95.35 322.1,-86.89"/>
<polygon fill="midnightblue" stroke="midnightblue" points="289.1,-113.9 284.33,-123.36 293.96,-118.93 289.1,-113.9"/>
</g>
<!-- Node2&#45;&gt;Node7 -->
<g id="edge6" class="edge">
<title>Node2&#45;&gt;Node7</title>
<path fill="none" stroke="midnightblue" d="M335.23,-120.38C370.18,-109.28 411.19,-96.26 441.61,-86.6"/>
<polygon fill="midnightblue" stroke="midnightblue" points="334.02,-117.09 325.54,-123.46 336.13,-123.76 334.02,-117.09"/>
</g>
<!-- Node5 -->
<g id="node5" class="node">
<title>Node5</title>
<g id="a_node5"><a xlink:href="stream__test_8cpp.html" target="_top" xlink:title=" ">
<polygon fill="white" stroke="black" points="131,-0.5 131,-19.5 253,-19.5 253,-0.5 131,-0.5"/>
<text text-anchor="middle" x="192" y="-7.5" font-family="Helvetica,sans-Serif" font-size="10.00">tests/stream_test.cpp</text>
</a>
</g>
</g>
<!-- Node4&#45;&gt;Node5 -->
<g id="edge4" class="edge">
<title>Node4&#45;&gt;Node5</title>
<path fill="none" stroke="midnightblue" d="M192,-51.82C192,-41 192,-27.9 192,-19.51"/>
<polygon fill="midnightblue" stroke="midnightblue" points="188.5,-51.98 192,-61.98 195.5,-51.98 188.5,-51.98"/>
</g>
</g>
</svg>
