<?xml version="1.0" encoding="UTF-8" standalone="no"?>
<!DOCTYPE svg PUBLIC "-//W3C//DTD SVG 1.1//EN"
 "http://www.w3.org/Graphics/SVG/1.1/DTD/svg11.dtd">
<!-- Generated by graphviz version 2.43.0 (0)
 -->
<!-- Title: include/cppuddle/kernel_aggregation Pages: 1 -->
<svg width="293pt" height="319pt"
 viewBox="0.00 0.00 293.00 319.00" xmlns="http://www.w3.org/2000/svg" xmlns:xlink="http://www.w3.org/1999/xlink">
<g id="graph0" class="graph" transform="scale(1 1) rotate(0) translate(4 315)">
<title>include/cppuddle/kernel_aggregation</title>
<polygon fill="white" stroke="transparent" points="-4,4 -4,-315 289,-315 289,4 -4,4"/>
<g id="clust1" class="cluster">
<title>clusterdir_5d172fc9597ac0585eab64e12b95f390</title>
<g id="a_clust1"><a xlink:href="dir_5d172fc9597ac0585eab64e12b95f390.html" target="_top" xlink:title="cppuddle">
<polygon fill="#ddddee" stroke="black" points="8,-8 8,-303 277,-303 277,-8 8,-8"/>
<text text-anchor="middle" x="142.5" y="-291" font-family="Helvetica,sans-Serif" font-size="10.00">cppuddle</text>
</a>
</g>
</g>
<g id="clust2" class="cluster">
<title>clusterdir_e79a7c4d1214c17e76a8c70c5270f092</title>
<g id="a_clust2"><a xlink:href="dir_e79a7c4d1214c17e76a8c70c5270f092.html" target="_top">
<polygon fill="#eeeeff" stroke="black" points="80,-152 80,-276 206,-276 206,-152 80,-152"/>
</a>
</g>
</g>
<!-- dir_987eeeb0281bd8ab55a36e97abfb120f -->
<g id="node1" class="node">
<title>dir_987eeeb0281bd8ab55a36e97abfb120f</title>
<g id="a_node1"><a xlink:href="dir_987eeeb0281bd8ab55a36e97abfb120f.html" target="_top" xlink:title="executor_recycling">
<polygon fill="white" stroke="red" points="124,-124 16,-124 16,-88 124,-88 124,-124"/>
<text text-anchor="middle" x="70" y="-103.5" font-family="Helvetica,sans-Serif" font-size="10.00">executor_recycling</text>
</a>
</g>
</g>
<!-- dir_a31e29f658aabd71a86035b64acade04 -->
<g id="node2" class="node">
<title>dir_a31e29f658aabd71a86035b64acade04</title>
<g id="a_node2"><a xlink:href="dir_a31e29f658aabd71a86035b64acade04.html" target="_top" xlink:title="common">
<polygon fill="none" stroke="black" points="172.5,-52 113.5,-52 113.5,-16 172.5,-16 172.5,-52"/>
<text text-anchor="middle" x="143" y="-31.5" font-family="Helvetica,sans-Serif" font-size="10.00">common</text>
</a>
</g>
</g>
<!-- dir_987eeeb0281bd8ab55a36e97abfb120f&#45;&gt;dir_a31e29f658aabd71a86035b64acade04 -->
<g id="edge3" class="edge">
<title>dir_987eeeb0281bd8ab55a36e97abfb120f&#45;&gt;dir_a31e29f658aabd71a86035b64acade04</title>
<path fill="none" stroke="black" d="M88.04,-87.7C97.06,-79.05 108.12,-68.45 117.94,-59.03"/>
<polygon fill="black" stroke="black" points="120.37,-61.55 125.16,-52.1 115.52,-56.5 120.37,-61.55"/>
<g id="a_edge3&#45;headlabel"><a xlink:href="dir_000003_000002.html" target="_top" xlink:title="1">
<text text-anchor="middle" x="119.74" y="-63.59" font-family="Helvetica,sans-Serif" font-size="10.00">1</text>
</a>
</g>
</g>
<!-- dir_b196a508d967b5292215dc75471d5392 -->
<g id="node3" class="node">
<title>dir_b196a508d967b5292215dc75471d5392</title>
<g id="a_node3"><a xlink:href="dir_b196a508d967b5292215dc75471d5392.html" target="_top" xlink:title="memory_recycling">
<polygon fill="white" stroke="red" points="269.5,-124 162.5,-124 162.5,-88 269.5,-88 269.5,-124"/>
<text text-anchor="middle" x="216" y="-103.5" font-family="Helvetica,sans-Serif" font-size="10.00">memory_recycling</text>
</a>
</g>
</g>
<!-- dir_b196a508d967b5292215dc75471d5392&#45;&gt;dir_a31e29f658aabd71a86035b64acade04 -->
<g id="edge2" class="edge">
<title>dir_b196a508d967b5292215dc75471d5392&#45;&gt;dir_a31e29f658aabd71a86035b64acade04</title>
<path fill="none" stroke="black" d="M197.96,-87.7C188.94,-79.05 177.88,-68.45 168.06,-59.03"/>
<polygon fill="black" stroke="black" points="170.48,-56.5 160.84,-52.1 165.63,-61.55 170.48,-56.5"/>
<g id="a_edge2&#45;headlabel"><a xlink:href="dir_000007_000002.html" target="_top" xlink:title="1">
<text text-anchor="middle" x="175.04" y="-54.44" font-family="Helvetica,sans-Serif" font-size="10.00">1</text>
</a>
</g>
</g>
<!-- dir_e79a7c4d1214c17e76a8c70c5270f092 -->
<g id="node4" class="node">
<title>dir_e79a7c4d1214c17e76a8c70c5270f092</title>
<text text-anchor="middle" x="143" y="-247.5" font-family="Helvetica,sans-Serif" font-size="10.00">kernel_aggregation</text>
</g>
<!-- dir_a96a20b290261be0a1a420da40007da3 -->
<g id="node5" class="node">
<title>dir_a96a20b290261be0a1a420da40007da3</title>
<g id="a_node5"><a xlink:href="dir_a96a20b290261be0a1a420da40007da3.html" target="_top" xlink:title="detail">
<polygon fill="white" stroke="black" points="170,-196 116,-196 116,-160 170,-160 170,-196"/>
<text text-anchor="middle" x="143" y="-175.5" font-family="Helvetica,sans-Serif" font-size="10.00">detail</text>
</a>
</g>
</g>
<!-- dir_e79a7c4d1214c17e76a8c70c5270f092&#45;&gt;dir_a96a20b290261be0a1a420da40007da3 -->
<g id="edge1" class="edge">
<title>dir_e79a7c4d1214c17e76a8c70c5270f092&#45;&gt;dir_a96a20b290261be0a1a420da40007da3</title>
<path fill="none" stroke="black" d="M143,-231.7C143,-223.98 143,-214.71 143,-206.11"/>
<polygon fill="black" stroke="black" points="146.5,-206.1 143,-196.1 139.5,-206.1 146.5,-206.1"/>
<g id="a_edge1&#45;headlabel"><a xlink:href="dir_000005_000006.html" target="_top" xlink:title="2">
<text text-anchor="middle" x="149.34" y="-207.2" font-family="Helvetica,sans-Serif" font-size="10.00">2</text>
</a>
</g>
</g>
<!-- dir_a96a20b290261be0a1a420da40007da3&#45;&gt;dir_987eeeb0281bd8ab55a36e97abfb120f -->
<g id="edge4" class="edge">
<title>dir_a96a20b290261be0a1a420da40007da3&#45;&gt;dir_987eeeb0281bd8ab55a36e97abfb120f</title>
<path fill="none" stroke="black" d="M124.96,-159.7C115.94,-151.05 104.88,-140.45 95.06,-131.03"/>
<polygon fill="black" stroke="black" points="97.48,-128.5 87.84,-124.1 92.63,-133.55 97.48,-128.5"/>
<g id="a_edge4&#45;headlabel"><a xlink:href="dir_000006_000003.html" target="_top" xlink:title="1">
<text text-anchor="middle" x="102.04" y="-126.44" font-family="Helvetica,sans-Serif" font-size="10.00">1</text>
</a>
</g>
</g>
<!-- dir_a96a20b290261be0a1a420da40007da3&#45;&gt;dir_a31e29f658aabd71a86035b64acade04 -->
<g id="edge5" class="edge">
<title>dir_a96a20b290261be0a1a420da40007da3&#45;&gt;dir_a31e29f658aabd71a86035b64acade04</title>
<path fill="none" stroke="black" d="M143,-159.87C143,-135.67 143,-91.21 143,-62.39"/>
<polygon fill="black" stroke="black" points="146.5,-62.19 143,-52.19 139.5,-62.19 146.5,-62.19"/>
<g id="a_edge5&#45;headlabel"><a xlink:href="dir_000006_000002.html" target="_top" xlink:title="1">
<text text-anchor="middle" x="149.34" y="-63.28" font-family="Helvetica,sans-Serif" font-size="10.00">1</text>
</a>
</g>
</g>
<!-- dir_a96a20b290261be0a1a420da40007da3&#45;&gt;dir_b196a508d967b5292215dc75471d5392 -->
<g id="edge6" class="edge">
<title>dir_a96a20b290261be0a1a420da40007da3&#45;&gt;dir_b196a508d967b5292215dc75471d5392</title>
<path fill="none" stroke="black" d="M161.04,-159.7C170.06,-151.05 181.12,-140.45 190.94,-131.03"/>
<polygon fill="black" stroke="black" points="193.37,-133.55 198.16,-124.1 188.52,-128.5 193.37,-133.55"/>
<g id="a_edge6&#45;headlabel"><a xlink:href="dir_000006_000007.html" target="_top" xlink:title="1">
<text text-anchor="middle" x="192.74" y="-135.59" font-family="Helvetica,sans-Serif" font-size="10.00">1</text>
</a>
</g>
</g>
</g>
</svg>
