<?xml version="1.0" encoding="UTF-8" standalone="no"?>
<!DOCTYPE svg PUBLIC "-//W3C//DTD SVG 1.1//EN"
 "http://www.w3.org/Graphics/SVG/1.1/DTD/svg11.dtd">
<!-- Generated by graphviz version 2.43.0 (0)
 -->
<!-- Title: include/cppuddle/kernel_aggregation/detail Pages: 1 -->
<svg width="280pt" height="223pt"
 viewBox="0.00 0.00 279.50 223.00" xmlns="http://www.w3.org/2000/svg" xmlns:xlink="http://www.w3.org/1999/xlink">
<g id="graph0" class="graph" transform="scale(1 1) rotate(0) translate(4 219)">
<title>include/cppuddle/kernel_aggregation/detail</title>
<polygon fill="white" stroke="transparent" points="-4,4 -4,-219 275.5,-219 275.5,4 -4,4"/>
<g id="clust1" class="cluster">
<title>clusterdir_e79a7c4d1214c17e76a8c70c5270f092</title>
<g id="a_clust1"><a xlink:href="dir_e79a7c4d1214c17e76a8c70c5270f092.html" target="_top" xlink:title="kernel_aggregation">
<polygon fill="#ddddee" stroke="black" points="81,-136 81,-207 191,-207 191,-136 81,-136"/>
<text text-anchor="middle" x="136" y="-195" font-family="Helvetica,sans-Serif" font-size="10.00">kernel_aggregation</text>
</a>
</g>
</g>
<!-- dir_a96a20b290261be0a1a420da40007da3 -->
<g id="node1" class="node">
<title>dir_a96a20b290261be0a1a420da40007da3</title>
<g id="a_node1"><a xlink:href="dir_a96a20b290261be0a1a420da40007da3.html" target="_top" xlink:title="detail">
<polygon fill="#eeeeff" stroke="black" points="163,-180 109,-180 109,-144 163,-144 163,-180"/>
<text text-anchor="middle" x="136" y="-159.5" font-family="Helvetica,sans-Serif" font-size="10.00">detail</text>
</a>
</g>
</g>
<!-- dir_987eeeb0281bd8ab55a36e97abfb120f -->
<g id="node2" class="node">
<title>dir_987eeeb0281bd8ab55a36e97abfb120f</title>
<g id="a_node2"><a xlink:href="dir_987eeeb0281bd8ab55a36e97abfb120f.html" target="_top" xlink:title="executor_recycling">
<polygon fill="white" stroke="red" points="108,-108 0,-108 0,-72 108,-72 108,-108"/>
<text text-anchor="middle" x="54" y="-87.5" font-family="Helvetica,sans-Serif" font-size="10.00">executor_recycling</text>
</a>
</g>
</g>
<!-- dir_a96a20b290261be0a1a420da40007da3&#45;&gt;dir_987eeeb0281bd8ab55a36e97abfb120f -->
<g id="edge3" class="edge">
<title>dir_a96a20b290261be0a1a420da40007da3&#45;&gt;dir_987eeeb0281bd8ab55a36e97abfb120f</title>
<path fill="none" stroke="black" d="M115.73,-143.7C105.5,-134.97 92.94,-124.24 81.82,-114.75"/>
<polygon fill="black" stroke="black" points="83.91,-111.94 74.04,-108.1 79.37,-117.26 83.91,-111.94"/>
<g id="a_edge3&#45;headlabel"><a xlink:href="dir_000006_000003.html" target="_top" xlink:title="1">
<text text-anchor="middle" x="88.49" y="-109.61" font-family="Helvetica,sans-Serif" font-size="10.00">1</text>
</a>
</g>
</g>
<!-- dir_a31e29f658aabd71a86035b64acade04 -->
<g id="node3" class="node">
<title>dir_a31e29f658aabd71a86035b64acade04</title>
<g id="a_node3"><a xlink:href="dir_a31e29f658aabd71a86035b64acade04.html" target="_top" xlink:title="common">
<polygon fill="none" stroke="black" points="165.5,-36 106.5,-36 106.5,0 165.5,0 165.5,-36"/>
<text text-anchor="middle" x="136" y="-15.5" font-family="Helvetica,sans-Serif" font-size="10.00">common</text>
</a>
</g>
</g>
<!-- dir_a96a20b290261be0a1a420da40007da3&#45;&gt;dir_a31e29f658aabd71a86035b64acade04 -->
<g id="edge4" class="edge">
<title>dir_a96a20b290261be0a1a420da40007da3&#45;&gt;dir_a31e29f658aabd71a86035b64acade04</title>
<path fill="none" stroke="black" d="M136,-143.87C136,-119.67 136,-75.21 136,-46.39"/>
<polygon fill="black" stroke="black" points="139.5,-46.19 136,-36.19 132.5,-46.19 139.5,-46.19"/>
<g id="a_edge4&#45;headlabel"><a xlink:href="dir_000006_000002.html" target="_top" xlink:title="1">
<text text-anchor="middle" x="142.34" y="-47.28" font-family="Helvetica,sans-Serif" font-size="10.00">1</text>
</a>
</g>
</g>
<!-- dir_b196a508d967b5292215dc75471d5392 -->
<g id="node4" class="node">
<title>dir_b196a508d967b5292215dc75471d5392</title>
<g id="a_node4"><a xlink:href="dir_b196a508d967b5292215dc75471d5392.html" target="_top" xlink:title="memory_recycling">
<polygon fill="white" stroke="red" points="271.5,-108 164.5,-108 164.5,-72 271.5,-72 271.5,-108"/>
<text text-anchor="middle" x="218" y="-87.5" font-family="Helvetica,sans-Serif" font-size="10.00">memory_recycling</text>
</a>
</g>
</g>
<!-- dir_a96a20b290261be0a1a420da40007da3&#45;&gt;dir_b196a508d967b5292215dc75471d5392 -->
<g id="edge5" class="edge">
<title>dir_a96a20b290261be0a1a420da40007da3&#45;&gt;dir_b196a508d967b5292215dc75471d5392</title>
<path fill="none" stroke="black" d="M156.27,-143.7C166.5,-134.97 179.06,-124.24 190.18,-114.75"/>
<polygon fill="black" stroke="black" points="192.63,-117.26 197.96,-108.1 188.09,-111.94 192.63,-117.26"/>
<g id="a_edge5&#45;headlabel"><a xlink:href="dir_000006_000008.html" target="_top" xlink:title="1">
<text text-anchor="middle" x="191.74" y="-119.25" font-family="Helvetica,sans-Serif" font-size="10.00">1</text>
</a>
</g>
</g>
<!-- dir_987eeeb0281bd8ab55a36e97abfb120f&#45;&gt;dir_a31e29f658aabd71a86035b64acade04 -->
<g id="edge2" class="edge">
<title>dir_987eeeb0281bd8ab55a36e97abfb120f&#45;&gt;dir_a31e29f658aabd71a86035b64acade04</title>
<path fill="none" stroke="black" d="M74.27,-71.7C84.5,-62.97 97.06,-52.24 108.18,-42.75"/>
<polygon fill="black" stroke="black" points="110.63,-45.26 115.96,-36.1 106.09,-39.94 110.63,-45.26"/>
<g id="a_edge2&#45;headlabel"><a xlink:href="dir_000003_000002.html" target="_top" xlink:title="1">
<text text-anchor="middle" x="109.74" y="-47.25" font-family="Helvetica,sans-Serif" font-size="10.00">1</text>
</a>
</g>
</g>
<!-- dir_b196a508d967b5292215dc75471d5392&#45;&gt;dir_a31e29f658aabd71a86035b64acade04 -->
<g id="edge1" class="edge">
<title>dir_b196a508d967b5292215dc75471d5392&#45;&gt;dir_a31e29f658aabd71a86035b64acade04</title>
<path fill="none" stroke="black" d="M197.73,-71.7C187.5,-62.97 174.94,-52.24 163.82,-42.75"/>
<polygon fill="black" stroke="black" points="165.91,-39.94 156.04,-36.1 161.37,-45.26 165.91,-39.94"/>
<g id="a_edge1&#45;headlabel"><a xlink:href="dir_000008_000002.html" target="_top" xlink:title="1">
<text text-anchor="middle" x="170.49" y="-37.61" font-family="Helvetica,sans-Serif" font-size="10.00">1</text>
</a>
</g>
</g>
</g>
</svg>
