<?xml version="1.0" encoding="UTF-8" standalone="no"?>
<!DOCTYPE svg PUBLIC "-//W3C//DTD SVG 1.1//EN"
 "http://www.w3.org/Graphics/SVG/1.1/DTD/svg11.dtd">
<!-- Generated by graphviz version 2.43.0 (0)
 -->
<!-- Title: include/cppuddle/kernel_aggregation/util Pages: 1 -->
<svg width="134pt" height="151pt"
 viewBox="0.00 0.00 134.00 151.00" xmlns="http://www.w3.org/2000/svg" xmlns:xlink="http://www.w3.org/1999/xlink">
<g id="graph0" class="graph" transform="scale(1 1) rotate(0) translate(4 147)">
<title>include/cppuddle/kernel_aggregation/util</title>
<polygon fill="white" stroke="transparent" points="-4,4 -4,-147 130,-147 130,4 -4,4"/>
<g id="clust1" class="cluster">
<title>clusterdir_e79a7c4d1214c17e76a8c70c5270f092</title>
<g id="a_clust1"><a xlink:href="dir_e79a7c4d1214c17e76a8c70c5270f092.html" target="_top" xlink:title="kernel_aggregation">
<polygon fill="#ddddee" stroke="black" points="8,-64 8,-135 118,-135 118,-64 8,-64"/>
<text text-anchor="middle" x="63" y="-123" font-family="Helvetica,sans-Serif" font-size="10.00">kernel_aggregation</text>
</a>
</g>
</g>
<!-- dir_faf9042eaaf35293b9abc489ad1eecdf -->
<g id="node1" class="node">
<title>dir_faf9042eaaf35293b9abc489ad1eecdf</title>
<g id="a_node1"><a xlink:href="dir_faf9042eaaf35293b9abc489ad1eecdf.html" target="_top" xlink:title="util">
<polygon fill="#eeeeff" stroke="black" points="90,-108 36,-108 36,-72 90,-72 90,-108"/>
<text text-anchor="middle" x="63" y="-87.5" font-family="Helvetica,sans-Serif" font-size="10.00">util</text>
</a>
</g>
</g>
<!-- dir_987eeeb0281bd8ab55a36e97abfb120f -->
<g id="node2" class="node">
<title>dir_987eeeb0281bd8ab55a36e97abfb120f</title>
<g id="a_node2"><a xlink:href="dir_987eeeb0281bd8ab55a36e97abfb120f.html" target="_top" xlink:title="executor_recycling">
<polygon fill="white" stroke="red" points="117,-36 9,-36 9,0 117,0 117,-36"/>
<text text-anchor="middle" x="63" y="-15.5" font-family="Helvetica,sans-Serif" font-size="10.00">executor_recycling</text>
</a>
</g>
</g>
<!-- dir_faf9042eaaf35293b9abc489ad1eecdf&#45;&gt;dir_987eeeb0281bd8ab55a36e97abfb120f -->
<g id="edge1" class="edge">
<title>dir_faf9042eaaf35293b9abc489ad1eecdf&#45;&gt;dir_987eeeb0281bd8ab55a36e97abfb120f</title>
<path fill="none" stroke="black" d="M63,-71.7C63,-63.98 63,-54.71 63,-46.11"/>
<polygon fill="black" stroke="black" points="66.5,-46.1 63,-36.1 59.5,-46.1 66.5,-46.1"/>
<g id="a_edge1&#45;headlabel"><a xlink:href="dir_000007_000003.html" target="_top" xlink:title="1">
<text text-anchor="middle" x="69.34" y="-47.2" font-family="Helvetica,sans-Serif" font-size="10.00">1</text>
</a>
</g>
</g>
</g>
</svg>
