<?xml version="1.0" encoding="UTF-8" standalone="no"?>
<!DOCTYPE svg PUBLIC "-//W3C//DTD SVG 1.1//EN"
 "http://www.w3.org/Graphics/SVG/1.1/DTD/svg11.dtd">
<!-- Generated by graphviz version 2.43.0 (0)
 -->
<!-- Title: include/cppuddle/memory_recycling Pages: 1 -->
<svg width="235pt" height="247pt"
 viewBox="0.00 0.00 235.00 247.00" xmlns="http://www.w3.org/2000/svg" xmlns:xlink="http://www.w3.org/1999/xlink">
<g id="graph0" class="graph" transform="scale(1 1) rotate(0) translate(4 243)">
<title>include/cppuddle/memory_recycling</title>
<polygon fill="white" stroke="transparent" points="-4,4 -4,-243 231,-243 231,4 -4,4"/>
<g id="clust1" class="cluster">
<title>clusterdir_5d172fc9597ac0585eab64e12b95f390</title>
<g id="a_clust1"><a xlink:href="dir_5d172fc9597ac0585eab64e12b95f390.html" target="_top" xlink:title="cppuddle">
<polygon fill="#ddddee" stroke="black" points="8,-8 8,-231 219,-231 219,-8 8,-8"/>
<text text-anchor="middle" x="113.5" y="-219" font-family="Helvetica,sans-Serif" font-size="10.00">cppuddle</text>
</a>
</g>
</g>
<g id="clust2" class="cluster">
<title>clusterdir_b196a508d967b5292215dc75471d5392</title>
<g id="a_clust2"><a xlink:href="dir_b196a508d967b5292215dc75471d5392.html" target="_top">
<polygon fill="#eeeeff" stroke="black" points="16,-80 16,-204 211,-204 211,-80 16,-80"/>
</a>
</g>
</g>
<!-- dir_a31e29f658aabd71a86035b64acade04 -->
<g id="node1" class="node">
<title>dir_a31e29f658aabd71a86035b64acade04</title>
<g id="a_node1"><a xlink:href="dir_a31e29f658aabd71a86035b64acade04.html" target="_top" xlink:title="common">
<polygon fill="none" stroke="black" points="179.5,-52 120.5,-52 120.5,-16 179.5,-16 179.5,-52"/>
<text text-anchor="middle" x="150" y="-31.5" font-family="Helvetica,sans-Serif" font-size="10.00">common</text>
</a>
</g>
</g>
<!-- dir_b196a508d967b5292215dc75471d5392 -->
<g id="node2" class="node">
<title>dir_b196a508d967b5292215dc75471d5392</title>
<text text-anchor="middle" x="150" y="-175.5" font-family="Helvetica,sans-Serif" font-size="10.00">memory_recycling</text>
</g>
<!-- dir_feb8480b3424b4b15b61cd279888be60 -->
<g id="node3" class="node">
<title>dir_feb8480b3424b4b15b61cd279888be60</title>
<g id="a_node3"><a xlink:href="dir_feb8480b3424b4b15b61cd279888be60.html" target="_top" xlink:title="detail">
<polygon fill="white" stroke="black" points="177,-124 123,-124 123,-88 177,-88 177,-124"/>
<text text-anchor="middle" x="150" y="-103.5" font-family="Helvetica,sans-Serif" font-size="10.00">detail</text>
</a>
</g>
</g>
<!-- dir_b196a508d967b5292215dc75471d5392&#45;&gt;dir_feb8480b3424b4b15b61cd279888be60 -->
<g id="edge1" class="edge">
<title>dir_b196a508d967b5292215dc75471d5392&#45;&gt;dir_feb8480b3424b4b15b61cd279888be60</title>
<path fill="none" stroke="black" d="M150,-159.7C150,-151.98 150,-142.71 150,-134.11"/>
<polygon fill="black" stroke="black" points="153.5,-134.1 150,-124.1 146.5,-134.1 153.5,-134.1"/>
<g id="a_edge1&#45;headlabel"><a xlink:href="dir_000007_000008.html" target="_top" xlink:title="4">
<text text-anchor="middle" x="156.34" y="-135.2" font-family="Helvetica,sans-Serif" font-size="10.00">4</text>
</a>
</g>
</g>
<!-- dir_feb8480b3424b4b15b61cd279888be60&#45;&gt;dir_a31e29f658aabd71a86035b64acade04 -->
<g id="edge2" class="edge">
<title>dir_feb8480b3424b4b15b61cd279888be60&#45;&gt;dir_a31e29f658aabd71a86035b64acade04</title>
<path fill="none" stroke="black" d="M150,-87.7C150,-79.98 150,-70.71 150,-62.11"/>
<polygon fill="black" stroke="black" points="153.5,-62.1 150,-52.1 146.5,-62.1 153.5,-62.1"/>
<g id="a_edge2&#45;headlabel"><a xlink:href="dir_000008_000002.html" target="_top" xlink:title="1">
<text text-anchor="middle" x="156.34" y="-63.2" font-family="Helvetica,sans-Serif" font-size="10.00">1</text>
</a>
</g>
</g>
<!-- dir_e547d692ddfbe0f60d25d70a8b1943ad -->
<g id="node4" class="node">
<title>dir_e547d692ddfbe0f60d25d70a8b1943ad</title>
<g id="a_node4"><a xlink:href="dir_e547d692ddfbe0f60d25d70a8b1943ad.html" target="_top" xlink:title="util">
<polygon fill="white" stroke="black" points="78,-196 24,-196 24,-160 78,-160 78,-196"/>
<text text-anchor="middle" x="51" y="-175.5" font-family="Helvetica,sans-Serif" font-size="10.00">util</text>
</a>
</g>
</g>
</g>
</svg>
