<?xml version="1.0" encoding="UTF-8" standalone="no"?>
<!DOCTYPE svg PUBLIC "-//W3C//DTD SVG 1.1//EN"
 "http://www.w3.org/Graphics/SVG/1.1/DTD/svg11.dtd">
<!-- Generated by graphviz version 2.43.0 (0)
 -->
<!-- Title: include/cppuddle/executor_recycling/detail Pages: 1 -->
<svg width="132pt" height="151pt"
 viewBox="0.00 0.00 132.00 151.00" xmlns="http://www.w3.org/2000/svg" xmlns:xlink="http://www.w3.org/1999/xlink">
<g id="graph0" class="graph" transform="scale(1 1) rotate(0) translate(4 147)">
<title>include/cppuddle/executor_recycling/detail</title>
<polygon fill="white" stroke="transparent" points="-4,4 -4,-147 128,-147 128,4 -4,4"/>
<g id="clust1" class="cluster">
<title>clusterdir_987eeeb0281bd8ab55a36e97abfb120f</title>
<g id="a_clust1"><a xlink:href="dir_987eeeb0281bd8ab55a36e97abfb120f.html" target="_top" xlink:title="executor_recycling">
<polygon fill="#ddddee" stroke="black" points="8,-64 8,-135 116,-135 116,-64 8,-64"/>
<text text-anchor="middle" x="62" y="-123" font-family="Helvetica,sans-Serif" font-size="10.00">executor_recycling</text>
</a>
</g>
</g>
<!-- dir_a527677495846f72da591823e2efdf56 -->
<g id="node1" class="node">
<title>dir_a527677495846f72da591823e2efdf56</title>
<g id="a_node1"><a xlink:href="dir_a527677495846f72da591823e2efdf56.html" target="_top" xlink:title="detail">
<polygon fill="#eeeeff" stroke="black" points="89,-108 35,-108 35,-72 89,-72 89,-108"/>
<text text-anchor="middle" x="62" y="-87.5" font-family="Helvetica,sans-Serif" font-size="10.00">detail</text>
</a>
</g>
</g>
<!-- dir_a31e29f658aabd71a86035b64acade04 -->
<g id="node2" class="node">
<title>dir_a31e29f658aabd71a86035b64acade04</title>
<g id="a_node2"><a xlink:href="dir_a31e29f658aabd71a86035b64acade04.html" target="_top" xlink:title="common">
<polygon fill="none" stroke="black" points="91.5,-36 32.5,-36 32.5,0 91.5,0 91.5,-36"/>
<text text-anchor="middle" x="62" y="-15.5" font-family="Helvetica,sans-Serif" font-size="10.00">common</text>
</a>
</g>
</g>
<!-- dir_a527677495846f72da591823e2efdf56&#45;&gt;dir_a31e29f658aabd71a86035b64acade04 -->
<g id="edge1" class="edge">
<title>dir_a527677495846f72da591823e2efdf56&#45;&gt;dir_a31e29f658aabd71a86035b64acade04</title>
<path fill="none" stroke="black" d="M62,-71.7C62,-63.98 62,-54.71 62,-46.11"/>
<polygon fill="black" stroke="black" points="65.5,-46.1 62,-36.1 58.5,-46.1 65.5,-46.1"/>
<g id="a_edge1&#45;headlabel"><a xlink:href="dir_000004_000002.html" target="_top" xlink:title="1">
<text text-anchor="middle" x="68.34" y="-47.2" font-family="Helvetica,sans-Serif" font-size="10.00">1</text>
</a>
</g>
</g>
</g>
</svg>
