<?xml version="1.0" encoding="UTF-8" standalone="no"?>
<!DOCTYPE svg PUBLIC "-//W3C//DTD SVG 1.1//EN"
 "http://www.w3.org/Graphics/SVG/1.1/DTD/svg11.dtd">
<!-- Generated by graphviz version 2.43.0 (0)
 -->
<!-- Title: include/cppuddle/executor_recycling Pages: 1 -->
<svg width="164pt" height="247pt"
 viewBox="0.00 0.00 164.00 247.00" xmlns="http://www.w3.org/2000/svg" xmlns:xlink="http://www.w3.org/1999/xlink">
<g id="graph0" class="graph" transform="scale(1 1) rotate(0) translate(4 243)">
<title>include/cppuddle/executor_recycling</title>
<polygon fill="white" stroke="transparent" points="-4,4 -4,-243 160,-243 160,4 -4,4"/>
<g id="clust1" class="cluster">
<title>clusterdir_5d172fc9597ac0585eab64e12b95f390</title>
<g id="a_clust1"><a xlink:href="dir_5d172fc9597ac0585eab64e12b95f390.html" target="_top" xlink:title="cppuddle">
<polygon fill="#ddddee" stroke="black" points="8,-8 8,-231 148,-231 148,-8 8,-8"/>
<text text-anchor="middle" x="78" y="-219" font-family="Helvetica,sans-Serif" font-size="10.00">cppuddle</text>
</a>
</g>
</g>
<g id="clust2" class="cluster">
<title>clusterdir_987eeeb0281bd8ab55a36e97abfb120f</title>
<g id="a_clust2"><a xlink:href="dir_987eeeb0281bd8ab55a36e97abfb120f.html" target="_top">
<polygon fill="#eeeeff" stroke="black" points="16,-80 16,-204 140,-204 140,-80 16,-80"/>
</a>
</g>
</g>
<!-- dir_a31e29f658aabd71a86035b64acade04 -->
<g id="node1" class="node">
<title>dir_a31e29f658aabd71a86035b64acade04</title>
<g id="a_node1"><a xlink:href="dir_a31e29f658aabd71a86035b64acade04.html" target="_top" xlink:title="common">
<polygon fill="none" stroke="black" points="107.5,-52 48.5,-52 48.5,-16 107.5,-16 107.5,-52"/>
<text text-anchor="middle" x="78" y="-31.5" font-family="Helvetica,sans-Serif" font-size="10.00">common</text>
</a>
</g>
</g>
<!-- dir_987eeeb0281bd8ab55a36e97abfb120f -->
<g id="node2" class="node">
<title>dir_987eeeb0281bd8ab55a36e97abfb120f</title>
<text text-anchor="middle" x="78" y="-175.5" font-family="Helvetica,sans-Serif" font-size="10.00">executor_recycling</text>
</g>
<!-- dir_a527677495846f72da591823e2efdf56 -->
<g id="node3" class="node">
<title>dir_a527677495846f72da591823e2efdf56</title>
<g id="a_node3"><a xlink:href="dir_a527677495846f72da591823e2efdf56.html" target="_top" xlink:title="detail">
<polygon fill="white" stroke="black" points="105,-124 51,-124 51,-88 105,-88 105,-124"/>
<text text-anchor="middle" x="78" y="-103.5" font-family="Helvetica,sans-Serif" font-size="10.00">detail</text>
</a>
</g>
</g>
<!-- dir_987eeeb0281bd8ab55a36e97abfb120f&#45;&gt;dir_a527677495846f72da591823e2efdf56 -->
<g id="edge2" class="edge">
<title>dir_987eeeb0281bd8ab55a36e97abfb120f&#45;&gt;dir_a527677495846f72da591823e2efdf56</title>
<path fill="none" stroke="black" d="M78,-159.7C78,-151.98 78,-142.71 78,-134.11"/>
<polygon fill="black" stroke="black" points="81.5,-134.1 78,-124.1 74.5,-134.1 81.5,-134.1"/>
<g id="a_edge2&#45;headlabel"><a xlink:href="dir_000003_000004.html" target="_top" xlink:title="1">
<text text-anchor="middle" x="84.34" y="-135.2" font-family="Helvetica,sans-Serif" font-size="10.00">1</text>
</a>
</g>
</g>
<!-- dir_a527677495846f72da591823e2efdf56&#45;&gt;dir_a31e29f658aabd71a86035b64acade04 -->
<g id="edge1" class="edge">
<title>dir_a527677495846f72da591823e2efdf56&#45;&gt;dir_a31e29f658aabd71a86035b64acade04</title>
<path fill="none" stroke="black" d="M78,-87.7C78,-79.98 78,-70.71 78,-62.11"/>
<polygon fill="black" stroke="black" points="81.5,-62.1 78,-52.1 74.5,-62.1 81.5,-62.1"/>
<g id="a_edge1&#45;headlabel"><a xlink:href="dir_000004_000002.html" target="_top" xlink:title="1">
<text text-anchor="middle" x="84.34" y="-63.2" font-family="Helvetica,sans-Serif" font-size="10.00">1</text>
</a>
</g>
</g>
</g>
</svg>
