<?xml version="1.0" encoding="UTF-8" standalone="no"?>
<!DOCTYPE svg PUBLIC "-//W3C//DTD SVG 1.1//EN"
 "http://www.w3.org/Graphics/SVG/1.1/DTD/svg11.dtd">
<!-- Generated by graphviz version 2.43.0 (0)
 -->
<!-- Title: include/cppuddle Pages: 1 -->
<svg width="309pt" height="255pt"
 viewBox="0.00 0.00 309.00 255.00" xmlns="http://www.w3.org/2000/svg" xmlns:xlink="http://www.w3.org/1999/xlink">
<g id="graph0" class="graph" transform="scale(1 1) rotate(0) translate(4 251)">
<title>include/cppuddle</title>
<polygon fill="white" stroke="transparent" points="-4,4 -4,-251 305,-251 305,4 -4,4"/>
<g id="clust1" class="cluster">
<title>clusterdir_d44c64559bbebec7f509842c48db8b23</title>
<g id="a_clust1"><a xlink:href="dir_d44c64559bbebec7f509842c48db8b23.html" target="_top" xlink:title="include">
<polygon fill="#ddddee" stroke="black" points="8,-8 8,-239 293,-239 293,-8 8,-8"/>
<text text-anchor="middle" x="150.5" y="-227" font-family="Helvetica,sans-Serif" font-size="10.00">include</text>
</a>
</g>
</g>
<g id="clust2" class="cluster">
<title>clusterdir_5d172fc9597ac0585eab64e12b95f390</title>
<g id="a_clust2"><a xlink:href="dir_5d172fc9597ac0585eab64e12b95f390.html" target="_top">
<polygon fill="#eeeeff" stroke="black" points="16,-16 16,-212 285,-212 285,-16 16,-16"/>
</a>
</g>
</g>
<!-- dir_5d172fc9597ac0585eab64e12b95f390 -->
<g id="node1" class="node">
<title>dir_5d172fc9597ac0585eab64e12b95f390</title>
<text text-anchor="middle" x="224" y="-183.5" font-family="Helvetica,sans-Serif" font-size="10.00">cppuddle</text>
</g>
<!-- dir_a31e29f658aabd71a86035b64acade04 -->
<g id="node2" class="node">
<title>dir_a31e29f658aabd71a86035b64acade04</title>
<g id="a_node2"><a xlink:href="dir_a31e29f658aabd71a86035b64acade04.html" target="_top" xlink:title="common">
<polygon fill="white" stroke="black" points="127.5,-60 68.5,-60 68.5,-24 127.5,-24 127.5,-60"/>
<text text-anchor="middle" x="98" y="-39.5" font-family="Helvetica,sans-Serif" font-size="10.00">common</text>
</a>
</g>
</g>
<!-- dir_987eeeb0281bd8ab55a36e97abfb120f -->
<g id="node3" class="node">
<title>dir_987eeeb0281bd8ab55a36e97abfb120f</title>
<g id="a_node3"><a xlink:href="dir_987eeeb0281bd8ab55a36e97abfb120f.html" target="_top" xlink:title="executor_recycling">
<polygon fill="white" stroke="red" points="152,-132 44,-132 44,-96 152,-96 152,-132"/>
<text text-anchor="middle" x="98" y="-111.5" font-family="Helvetica,sans-Serif" font-size="10.00">executor_recycling</text>
</a>
</g>
</g>
<!-- dir_987eeeb0281bd8ab55a36e97abfb120f&#45;&gt;dir_a31e29f658aabd71a86035b64acade04 -->
<g id="edge5" class="edge">
<title>dir_987eeeb0281bd8ab55a36e97abfb120f&#45;&gt;dir_a31e29f658aabd71a86035b64acade04</title>
<path fill="none" stroke="black" d="M98,-95.7C98,-87.98 98,-78.71 98,-70.11"/>
<polygon fill="black" stroke="black" points="101.5,-70.1 98,-60.1 94.5,-70.1 101.5,-70.1"/>
<g id="a_edge5&#45;headlabel"><a xlink:href="dir_000003_000002.html" target="_top" xlink:title="1">
<text text-anchor="middle" x="104.34" y="-71.2" font-family="Helvetica,sans-Serif" font-size="10.00">1</text>
</a>
</g>
</g>
<!-- dir_e79a7c4d1214c17e76a8c70c5270f092 -->
<g id="node4" class="node">
<title>dir_e79a7c4d1214c17e76a8c70c5270f092</title>
<g id="a_node4"><a xlink:href="dir_e79a7c4d1214c17e76a8c70c5270f092.html" target="_top" xlink:title="kernel_aggregation">
<polygon fill="white" stroke="red" points="153,-204 43,-204 43,-168 153,-168 153,-204"/>
<text text-anchor="middle" x="98" y="-183.5" font-family="Helvetica,sans-Serif" font-size="10.00">kernel_aggregation</text>
</a>
</g>
</g>
<!-- dir_e79a7c4d1214c17e76a8c70c5270f092&#45;&gt;dir_a31e29f658aabd71a86035b64acade04 -->
<g id="edge2" class="edge">
<title>dir_e79a7c4d1214c17e76a8c70c5270f092&#45;&gt;dir_a31e29f658aabd71a86035b64acade04</title>
<path fill="none" stroke="black" d="M67.7,-167.8C55.12,-158.9 41.88,-146.77 35,-132 28.25,-117.49 28.25,-110.51 35,-96 40.52,-84.14 50.15,-73.98 60.24,-65.83"/>
<polygon fill="black" stroke="black" points="62.47,-68.53 68.36,-59.73 58.26,-62.94 62.47,-68.53"/>
<g id="a_edge2&#45;headlabel"><a xlink:href="dir_000005_000002.html" target="_top" xlink:title="1">
<text text-anchor="middle" x="61.3" y="-70.46" font-family="Helvetica,sans-Serif" font-size="10.00">1</text>
</a>
</g>
</g>
<!-- dir_e79a7c4d1214c17e76a8c70c5270f092&#45;&gt;dir_987eeeb0281bd8ab55a36e97abfb120f -->
<g id="edge1" class="edge">
<title>dir_e79a7c4d1214c17e76a8c70c5270f092&#45;&gt;dir_987eeeb0281bd8ab55a36e97abfb120f</title>
<path fill="none" stroke="black" d="M98,-167.7C98,-159.98 98,-150.71 98,-142.11"/>
<polygon fill="black" stroke="black" points="101.5,-142.1 98,-132.1 94.5,-142.1 101.5,-142.1"/>
<g id="a_edge1&#45;headlabel"><a xlink:href="dir_000005_000003.html" target="_top" xlink:title="1">
<text text-anchor="middle" x="104.34" y="-143.2" font-family="Helvetica,sans-Serif" font-size="10.00">1</text>
</a>
</g>
</g>
<!-- dir_b196a508d967b5292215dc75471d5392 -->
<g id="node5" class="node">
<title>dir_b196a508d967b5292215dc75471d5392</title>
<g id="a_node5"><a xlink:href="dir_b196a508d967b5292215dc75471d5392.html" target="_top" xlink:title="memory_recycling">
<polygon fill="white" stroke="red" points="277.5,-132 170.5,-132 170.5,-96 277.5,-96 277.5,-132"/>
<text text-anchor="middle" x="224" y="-111.5" font-family="Helvetica,sans-Serif" font-size="10.00">memory_recycling</text>
</a>
</g>
</g>
<!-- dir_e79a7c4d1214c17e76a8c70c5270f092&#45;&gt;dir_b196a508d967b5292215dc75471d5392 -->
<g id="edge3" class="edge">
<title>dir_e79a7c4d1214c17e76a8c70c5270f092&#45;&gt;dir_b196a508d967b5292215dc75471d5392</title>
<path fill="none" stroke="black" d="M128.82,-167.88C145.45,-158.64 166.16,-147.13 184.02,-137.21"/>
<polygon fill="black" stroke="black" points="186.02,-140.11 193.06,-132.19 182.62,-133.99 186.02,-140.11"/>
<g id="a_edge3&#45;headlabel"><a xlink:href="dir_000005_000007.html" target="_top" xlink:title="1">
<text text-anchor="middle" x="184.25" y="-141.83" font-family="Helvetica,sans-Serif" font-size="10.00">1</text>
</a>
</g>
</g>
<!-- dir_b196a508d967b5292215dc75471d5392&#45;&gt;dir_a31e29f658aabd71a86035b64acade04 -->
<g id="edge4" class="edge">
<title>dir_b196a508d967b5292215dc75471d5392&#45;&gt;dir_a31e29f658aabd71a86035b64acade04</title>
<path fill="none" stroke="black" d="M193.18,-95.88C176.18,-86.43 154.91,-74.61 136.79,-64.55"/>
<polygon fill="black" stroke="black" points="138.08,-61.26 127.64,-59.47 134.68,-67.38 138.08,-61.26"/>
<g id="a_edge4&#45;headlabel"><a xlink:href="dir_000007_000002.html" target="_top" xlink:title="1">
<text text-anchor="middle" x="142.6" y="-58.03" font-family="Helvetica,sans-Serif" font-size="10.00">1</text>
</a>
</g>
</g>
</g>
</svg>
