<?xml version="1.0" encoding="UTF-8" standalone="no"?>
<!DOCTYPE svg PUBLIC "-//W3C//DTD SVG 1.1//EN"
 "http://www.w3.org/Graphics/SVG/1.1/DTD/svg11.dtd">
<!-- Generated by graphviz version 2.43.0 (0)
 -->
<!-- Title: include/cppuddle/memory_recycling/detail Pages: 1 -->
<svg width="131pt" height="151pt"
 viewBox="0.00 0.00 131.00 151.00" xmlns="http://www.w3.org/2000/svg" xmlns:xlink="http://www.w3.org/1999/xlink">
<g id="graph0" class="graph" transform="scale(1 1) rotate(0) translate(4 147)">
<title>include/cppuddle/memory_recycling/detail</title>
<polygon fill="white" stroke="transparent" points="-4,4 -4,-147 127,-147 127,4 -4,4"/>
<g id="clust1" class="cluster">
<title>clusterdir_b196a508d967b5292215dc75471d5392</title>
<g id="a_clust1"><a xlink:href="dir_b196a508d967b5292215dc75471d5392.html" target="_top" xlink:title="memory_recycling">
<polygon fill="#ddddee" stroke="black" points="8,-64 8,-135 115,-135 115,-64 8,-64"/>
<text text-anchor="middle" x="61.5" y="-123" font-family="Helvetica,sans-Serif" font-size="10.00">memory_recycling</text>
</a>
</g>
</g>
<!-- dir_feb8480b3424b4b15b61cd279888be60 -->
<g id="node1" class="node">
<title>dir_feb8480b3424b4b15b61cd279888be60</title>
<g id="a_node1"><a xlink:href="dir_feb8480b3424b4b15b61cd279888be60.html" target="_top" xlink:title="detail">
<polygon fill="#eeeeff" stroke="black" points="88,-108 34,-108 34,-72 88,-72 88,-108"/>
<text text-anchor="middle" x="61" y="-87.5" font-family="Helvetica,sans-Serif" font-size="10.00">detail</text>
</a>
</g>
</g>
<!-- dir_a31e29f658aabd71a86035b64acade04 -->
<g id="node2" class="node">
<title>dir_a31e29f658aabd71a86035b64acade04</title>
<g id="a_node2"><a xlink:href="dir_a31e29f658aabd71a86035b64acade04.html" target="_top" xlink:title="common">
<polygon fill="none" stroke="black" points="90.5,-36 31.5,-36 31.5,0 90.5,0 90.5,-36"/>
<text text-anchor="middle" x="61" y="-15.5" font-family="Helvetica,sans-Serif" font-size="10.00">common</text>
</a>
</g>
</g>
<!-- dir_feb8480b3424b4b15b61cd279888be60&#45;&gt;dir_a31e29f658aabd71a86035b64acade04 -->
<g id="edge1" class="edge">
<title>dir_feb8480b3424b4b15b61cd279888be60&#45;&gt;dir_a31e29f658aabd71a86035b64acade04</title>
<path fill="none" stroke="black" d="M61,-71.7C61,-63.98 61,-54.71 61,-46.11"/>
<polygon fill="black" stroke="black" points="64.5,-46.1 61,-36.1 57.5,-46.1 64.5,-46.1"/>
<g id="a_edge1&#45;headlabel"><a xlink:href="dir_000009_000002.html" target="_top" xlink:title="1">
<text text-anchor="middle" x="67.34" y="-47.2" font-family="Helvetica,sans-Serif" font-size="10.00">1</text>
</a>
</g>
</g>
</g>
</svg>
