<?xml version="1.0" encoding="UTF-8" standalone="no"?>
<!DOCTYPE svg PUBLIC "-//W3C//DTD SVG 1.1//EN"
 "http://www.w3.org/Graphics/SVG/1.1/DTD/svg11.dtd">
<!-- Generated by graphviz version 2.43.0 (0)
 -->
<!-- Title: include/cppuddle/executor_recycling/detail/executor_pools_management.hpp Pages: 1 -->
<svg width="850pt" height="159pt"
 viewBox="0.00 0.00 850.00 159.00" xmlns="http://www.w3.org/2000/svg" xmlns:xlink="http://www.w3.org/1999/xlink">
<g id="graph0" class="graph" transform="scale(1 1) rotate(0) translate(4 155)">
<title>include/cppuddle/executor_recycling/detail/executor_pools_management.hpp</title>
<!-- Node1 -->
<g id="Node000001" class="node">
<title>Node1</title>
<g id="a_Node000001"><a xlink:title=" ">
<polygon fill="#999999" stroke="#666666" points="457,-151 313,-151 313,-110 457,-110 457,-151"/>
<text text-anchor="start" x="321" y="-139" font-family="Helvetica,sans-Serif" font-size="10.00">include/cppuddle/executor</text>
<text text-anchor="start" x="321" y="-128" font-family="Helvetica,sans-Serif" font-size="10.00">_recycling/detail/executor</text>
<text text-anchor="middle" x="385" y="-117" font-family="Helvetica,sans-Serif" font-size="10.00">_pools_management.hpp</text>
</a>
</g>
</g>
<!-- Node2 -->
<g id="Node000002" class="node">
<title>Node2</title>
<g id="a_Node000002"><a xlink:title=" ">
<polygon fill="#e0e0e0" stroke="#999999" points="64,-74 0,-74 0,-55 64,-55 64,-74"/>
<text text-anchor="middle" x="32" y="-62" font-family="Helvetica,sans-Serif" font-size="10.00">algorithm</text>
</a>
</g>
</g>
<!-- Node1&#45;&gt;Node2 -->
<g id="edge1_Node000001_Node000002" class="edge">
<title>Node1&#45;&gt;Node2</title>
<g id="a_edge1_Node000001_Node000002"><a xlink:title=" ">
<path fill="none" stroke="#63b8ff" d="M312.71,-117.24C251.69,-106.75 161.76,-90.98 74.06,-74.16"/>
<polygon fill="#63b8ff" stroke="#63b8ff" points="74.69,-70.72 64.21,-72.27 73.37,-77.59 74.69,-70.72"/>
</a>
</g>
</g>
<!-- Node3 -->
<g id="Node000003" class="node">
<title>Node3</title>
<g id="a_Node000003"><a xlink:title=" ">
<polygon fill="#e0e0e0" stroke="#999999" points="124,-74 82,-74 82,-55 124,-55 124,-74"/>
<text text-anchor="middle" x="103" y="-62" font-family="Helvetica,sans-Serif" font-size="10.00">array</text>
</a>
</g>
</g>
<!-- Node1&#45;&gt;Node3 -->
<g id="edge2_Node000001_Node000003" class="edge">
<title>Node1&#45;&gt;Node3</title>
<g id="a_edge2_Node000001_Node000003"><a xlink:title=" ">
<path fill="none" stroke="#63b8ff" d="M312.77,-114.78C264.61,-104.69 199.7,-90.56 133.97,-74.13"/>
<polygon fill="#63b8ff" stroke="#63b8ff" points="134.82,-70.74 124.26,-71.69 133.11,-77.53 134.82,-70.74"/>
</a>
</g>
</g>
<!-- Node4 -->
<g id="Node000004" class="node">
<title>Node4</title>
<g id="a_Node000004"><a xlink:title=" ">
<polygon fill="#e0e0e0" stroke="#999999" points="194,-74 142,-74 142,-55 194,-55 194,-74"/>
<text text-anchor="middle" x="168" y="-62" font-family="Helvetica,sans-Serif" font-size="10.00">cassert</text>
</a>
</g>
</g>
<!-- Node1&#45;&gt;Node4 -->
<g id="edge3_Node000001_Node000004" class="edge">
<title>Node1&#45;&gt;Node4</title>
<g id="a_edge3_Node000001_Node000004"><a xlink:title=" ">
<path fill="none" stroke="#63b8ff" d="M318.71,-109.95C280.98,-98.82 235.17,-85.31 204.03,-76.13"/>
<polygon fill="#63b8ff" stroke="#63b8ff" points="204.65,-72.66 194.06,-73.19 202.67,-79.37 204.65,-72.66"/>
</a>
</g>
</g>
<!-- Node5 -->
<g id="Node000005" class="node">
<title>Node5</title>
<g id="a_Node000005"><a xlink:title=" ">
<polygon fill="#e0e0e0" stroke="#999999" points="259.5,-74 212.5,-74 212.5,-55 259.5,-55 259.5,-74"/>
<text text-anchor="middle" x="236" y="-62" font-family="Helvetica,sans-Serif" font-size="10.00">deque</text>
</a>
</g>
</g>
<!-- Node1&#45;&gt;Node5 -->
<g id="edge4_Node000001_Node000005" class="edge">
<title>Node1&#45;&gt;Node5</title>
<g id="a_edge4_Node000001_Node000005"><a xlink:title=" ">
<path fill="none" stroke="#63b8ff" d="M339.49,-109.95C315.4,-99.6 286.53,-87.2 265.4,-78.13"/>
<polygon fill="#63b8ff" stroke="#63b8ff" points="266.57,-74.82 256,-74.09 263.81,-81.25 266.57,-74.82"/>
</a>
</g>
</g>
<!-- Node6 -->
<g id="Node000006" class="node">
<title>Node6</title>
<g id="a_Node000006"><a xlink:title=" ">
<polygon fill="#e0e0e0" stroke="#999999" points="338,-74 278,-74 278,-55 338,-55 338,-74"/>
<text text-anchor="middle" x="308" y="-62" font-family="Helvetica,sans-Serif" font-size="10.00">iostream</text>
</a>
</g>
</g>
<!-- Node1&#45;&gt;Node6 -->
<g id="edge5_Node000001_Node000006" class="edge">
<title>Node1&#45;&gt;Node6</title>
<g id="a_edge5_Node000001_Node000006"><a xlink:title=" ">
<path fill="none" stroke="#63b8ff" d="M361.48,-109.95C350.17,-100.55 336.82,-89.46 326.29,-80.7"/>
<polygon fill="#63b8ff" stroke="#63b8ff" points="328.47,-77.96 318.54,-74.26 323.99,-83.34 328.47,-77.96"/>
</a>
</g>
</g>
<!-- Node7 -->
<g id="Node000007" class="node">
<title>Node7</title>
<g id="a_Node000007"><a xlink:title=" ">
<polygon fill="#e0e0e0" stroke="#999999" points="414,-74 356,-74 356,-55 414,-55 414,-74"/>
<text text-anchor="middle" x="385" y="-62" font-family="Helvetica,sans-Serif" font-size="10.00">memory</text>
</a>
</g>
</g>
<!-- Node1&#45;&gt;Node7 -->
<g id="edge6_Node000001_Node000007" class="edge">
<title>Node1&#45;&gt;Node7</title>
<g id="a_edge6_Node000001_Node000007"><a xlink:title=" ">
<path fill="none" stroke="#63b8ff" d="M385,-109.95C385,-101.85 385,-92.5 385,-84.47"/>
<polygon fill="#63b8ff" stroke="#63b8ff" points="388.5,-84.26 385,-74.26 381.5,-84.26 388.5,-84.26"/>
</a>
</g>
</g>
<!-- Node8 -->
<g id="Node000008" class="node">
<title>Node8</title>
<g id="a_Node000008"><a xlink:title=" ">
<polygon fill="#e0e0e0" stroke="#999999" points="626,-19 578,-19 578,0 626,0 626,-19"/>
<text text-anchor="middle" x="602" y="-7" font-family="Helvetica,sans-Serif" font-size="10.00">mutex</text>
</a>
</g>
</g>
<!-- Node1&#45;&gt;Node8 -->
<g id="edge7_Node000001_Node000008" class="edge">
<title>Node1&#45;&gt;Node8</title>
<g id="a_edge7_Node000001_Node000008"><a xlink:title=" ">
<path fill="none" stroke="#63b8ff" d="M400.78,-109.78C415.13,-93.04 437.73,-69.5 462,-55 495.3,-35.12 538.44,-23.15 567.98,-16.72"/>
<polygon fill="#63b8ff" stroke="#63b8ff" points="568.74,-20.13 577.82,-14.67 567.32,-13.28 568.74,-20.13"/>
</a>
</g>
</g>
<!-- Node9 -->
<g id="Node000009" class="node">
<title>Node9</title>
<g id="a_Node000009"><a xlink:title=" ">
<polygon fill="#e0e0e0" stroke="#999999" points="517.5,-74 470.5,-74 470.5,-55 517.5,-55 517.5,-74"/>
<text text-anchor="middle" x="494" y="-62" font-family="Helvetica,sans-Serif" font-size="10.00">queue</text>
</a>
</g>
</g>
<!-- Node1&#45;&gt;Node9 -->
<g id="edge8_Node000001_Node000009" class="edge">
<title>Node1&#45;&gt;Node9</title>
<g id="a_edge8_Node000001_Node000009"><a xlink:title=" ">
<path fill="none" stroke="#63b8ff" d="M418.3,-109.95C435.2,-100.03 455.32,-88.21 470.57,-79.25"/>
<polygon fill="#63b8ff" stroke="#63b8ff" points="472.52,-82.17 479.37,-74.09 468.97,-76.14 472.52,-82.17"/>
</a>
</g>
</g>
<!-- Node10 -->
<g id="Node000010" class="node">
<title>Node10</title>
<g id="a_Node000010"><a xlink:title=" ">
<polygon fill="#e0e0e0" stroke="#999999" points="576.5,-74 535.5,-74 535.5,-55 576.5,-55 576.5,-74"/>
<text text-anchor="middle" x="556" y="-62" font-family="Helvetica,sans-Serif" font-size="10.00">tuple</text>
</a>
</g>
</g>
<!-- Node1&#45;&gt;Node10 -->
<g id="edge9_Node000001_Node000010" class="edge">
<title>Node1&#45;&gt;Node10</title>
<g id="a_edge9_Node000001_Node000010"><a xlink:title=" ">
<path fill="none" stroke="#63b8ff" d="M437.23,-109.95C466.24,-99.09 501.3,-85.97 525.77,-76.81"/>
<polygon fill="#63b8ff" stroke="#63b8ff" points="527.11,-80.05 535.25,-73.27 524.65,-73.5 527.11,-80.05"/>
</a>
</g>
</g>
<!-- Node11 -->
<g id="Node000011" class="node">
<title>Node11</title>
<g id="a_Node000011"><a xlink:title=" ">
<polygon fill="#e0e0e0" stroke="#999999" points="663.5,-74 594.5,-74 594.5,-55 663.5,-55 663.5,-74"/>
<text text-anchor="middle" x="629" y="-62" font-family="Helvetica,sans-Serif" font-size="10.00">type_traits</text>
</a>
</g>
</g>
<!-- Node1&#45;&gt;Node11 -->
<g id="edge10_Node000001_Node000011" class="edge">
<title>Node1&#45;&gt;Node11</title>
<g id="a_edge10_Node000001_Node000011"><a xlink:title=" ">
<path fill="none" stroke="#63b8ff" d="M457.22,-110.56C499.3,-99.52 550.91,-85.98 586.52,-76.64"/>
<polygon fill="#63b8ff" stroke="#63b8ff" points="587.79,-79.93 596.57,-74.01 586.01,-73.16 587.79,-79.93"/>
</a>
</g>
</g>
<!-- Node12 -->
<g id="Node000012" class="node">
<title>Node12</title>
<g id="a_Node000012"><a xlink:href="config_8hpp.html" target="_top" xlink:title=" ">
<polygon fill="white" stroke="#666666" points="842,-74 682,-74 682,-55 842,-55 842,-74"/>
<text text-anchor="middle" x="762" y="-62" font-family="Helvetica,sans-Serif" font-size="10.00">cppuddle/common/config.hpp</text>
</a>
</g>
</g>
<!-- Node1&#45;&gt;Node12 -->
<g id="edge11_Node000001_Node000012" class="edge">
<title>Node1&#45;&gt;Node12</title>
<g id="a_edge11_Node000001_Node000012"><a xlink:title=" ">
<path fill="none" stroke="#63b8ff" d="M457.24,-117.24C528.22,-105.19 635.27,-87.01 701.78,-75.72"/>
<polygon fill="#63b8ff" stroke="#63b8ff" points="702.42,-79.16 711.69,-74.04 701.25,-72.26 702.42,-79.16"/>
</a>
</g>
</g>
<!-- Node12&#45;&gt;Node8 -->
<g id="edge12_Node000012_Node000008" class="edge">
<title>Node12&#45;&gt;Node8</title>
<g id="a_edge12_Node000012_Node000008"><a xlink:title=" ">
<path fill="none" stroke="#63b8ff" d="M736.29,-54.98C708.99,-45.94 665.72,-31.61 635.7,-21.66"/>
<polygon fill="#63b8ff" stroke="#63b8ff" points="636.67,-18.3 626.07,-18.47 634.46,-24.94 636.67,-18.3"/>
</a>
</g>
</g>
</g>
</svg>
