<?xml version="1.0" encoding="UTF-8" standalone="no"?>
<!DOCTYPE svg PUBLIC "-//W3C//DTD SVG 1.1//EN"
 "http://www.w3.org/Graphics/SVG/1.1/DTD/svg11.dtd">
<!-- Generated by graphviz version 2.43.0 (0)
 -->
<!-- Title: include/cppuddle/executor_recycling/detail/executor_pools_management.hpp Pages: 1 -->
<svg width="766pt" height="500pt"
 viewBox="0.00 0.00 766.30 500.00" xmlns="http://www.w3.org/2000/svg" xmlns:xlink="http://www.w3.org/1999/xlink">
<g id="graph0" class="graph" transform="scale(1 1) rotate(0) translate(4 496)">
<title>include/cppuddle/executor_recycling/detail/executor_pools_management.hpp</title>
<!-- Node1 -->
<g id="Node000001" class="node">
<title>Node1</title>
<g id="a_Node000001"><a xlink:title=" ">
<polygon fill="#999999" stroke="#666666" points="483.8,-492 339.8,-492 339.8,-451 483.8,-451 483.8,-492"/>
<text text-anchor="start" x="347.8" y="-480" font-family="Helvetica,sans-Serif" font-size="10.00">include/cppuddle/executor</text>
<text text-anchor="start" x="347.8" y="-469" font-family="Helvetica,sans-Serif" font-size="10.00">_recycling/detail/executor</text>
<text text-anchor="middle" x="411.8" y="-458" font-family="Helvetica,sans-Serif" font-size="10.00">_pools_management.hpp</text>
</a>
</g>
</g>
<!-- Node2 -->
<g id="Node000002" class="node">
<title>Node2</title>
<g id="a_Node000002"><a xlink:href="executor__pools__interface_8hpp.html" target="_top" xlink:title=" ">
<polygon fill="white" stroke="#666666" points="483.8,-415 339.8,-415 339.8,-374 483.8,-374 483.8,-415"/>
<text text-anchor="start" x="347.8" y="-403" font-family="Helvetica,sans-Serif" font-size="10.00">include/cppuddle/executor</text>
<text text-anchor="start" x="347.8" y="-392" font-family="Helvetica,sans-Serif" font-size="10.00">_recycling/executor_pools</text>
<text text-anchor="middle" x="411.8" y="-381" font-family="Helvetica,sans-Serif" font-size="10.00">_interface.hpp</text>
</a>
</g>
</g>
<!-- Node1&#45;&gt;Node2 -->
<g id="edge1_Node000001_Node000002" class="edge">
<title>Node1&#45;&gt;Node2</title>
<g id="a_edge1_Node000001_Node000002"><a xlink:title=" ">
<path fill="none" stroke="#63b8ff" d="M411.8,-440.69C411.8,-432.08 411.8,-422.9 411.8,-415.07"/>
<polygon fill="#63b8ff" stroke="#63b8ff" points="408.3,-440.79 411.8,-450.79 415.3,-440.79 408.3,-440.79"/>
</a>
</g>
</g>
<!-- Node3 -->
<g id="Node000003" class="node">
<title>Node3</title>
<g id="a_Node000003"><a xlink:href="aggregation__executors__and__allocators_8hpp.html" target="_top" xlink:title=" ">
<polygon fill="white" stroke="#666666" points="364.3,-338 191.3,-338 191.3,-297 364.3,-297 364.3,-338"/>
<text text-anchor="start" x="199.3" y="-326" font-family="Helvetica,sans-Serif" font-size="10.00">include/cppuddle/kernel</text>
<text text-anchor="start" x="199.3" y="-315" font-family="Helvetica,sans-Serif" font-size="10.00">_aggregation/detail/aggregation</text>
<text text-anchor="middle" x="277.8" y="-304" font-family="Helvetica,sans-Serif" font-size="10.00">_executors_and_allocators.hpp</text>
</a>
</g>
</g>
<!-- Node2&#45;&gt;Node3 -->
<g id="edge2_Node000002_Node000003" class="edge">
<title>Node2&#45;&gt;Node3</title>
<g id="a_edge2_Node000002_Node000003"><a xlink:title=" ">
<path fill="none" stroke="#63b8ff" d="M367.88,-368.92C350.07,-358.95 329.76,-347.58 312.95,-338.17"/>
<polygon fill="#63b8ff" stroke="#63b8ff" points="366.51,-372.16 376.95,-373.99 369.93,-366.05 366.51,-372.16"/>
</a>
</g>
</g>
<!-- Node5 -->
<g id="Node000005" class="node">
<title>Node5</title>
<g id="a_Node000005"><a xlink:href="kernel__aggregation__interface_8hpp.html" target="_top" xlink:title=" ">
<polygon fill="white" stroke="#666666" points="403.3,-184 226.3,-184 226.3,-143 403.3,-143 403.3,-184"/>
<text text-anchor="start" x="234.3" y="-172" font-family="Helvetica,sans-Serif" font-size="10.00">include/cppuddle/kernel</text>
<text text-anchor="start" x="234.3" y="-161" font-family="Helvetica,sans-Serif" font-size="10.00">_aggregation/kernel_aggregation</text>
<text text-anchor="middle" x="314.8" y="-150" font-family="Helvetica,sans-Serif" font-size="10.00">_interface.hpp</text>
</a>
</g>
</g>
<!-- Node2&#45;&gt;Node5 -->
<g id="edge11_Node000002_Node000005" class="edge">
<title>Node2&#45;&gt;Node5</title>
<g id="a_edge11_Node000002_Node000005"><a xlink:title=" ">
<path fill="none" stroke="#63b8ff" d="M400.31,-364.44C392.65,-345.24 382.29,-319.55 372.8,-297 355.85,-256.73 335.15,-209.99 323.63,-184.18"/>
<polygon fill="#63b8ff" stroke="#63b8ff" points="397.1,-365.84 404.05,-373.84 403.6,-363.26 397.1,-365.84"/>
</a>
</g>
</g>
<!-- Node7 -->
<g id="Node000007" class="node">
<title>Node7</title>
<g id="a_Node000007"><a xlink:href="kokkos__aggregation__util_8hpp.html" target="_top" xlink:title=" ">
<polygon fill="white" stroke="#666666" points="260.8,-41 124.8,-41 124.8,0 260.8,0 260.8,-41"/>
<text text-anchor="start" x="132.8" y="-29" font-family="Helvetica,sans-Serif" font-size="10.00">include/cppuddle/kernel</text>
<text text-anchor="start" x="132.8" y="-18" font-family="Helvetica,sans-Serif" font-size="10.00">_aggregation/util/kokkos</text>
<text text-anchor="middle" x="192.8" y="-7" font-family="Helvetica,sans-Serif" font-size="10.00">_aggregation_util.hpp</text>
</a>
</g>
</g>
<!-- Node2&#45;&gt;Node7 -->
<g id="edge12_Node000002_Node000007" class="edge">
<title>Node2&#45;&gt;Node7</title>
<g id="a_edge12_Node000002_Node000007"><a xlink:title=" ">
<path fill="none" stroke="#63b8ff" d="M329.57,-380.19C209.88,-358.46 1.8,-310.72 1.8,-241.5 1.8,-241.5 1.8,-241.5 1.8,-162.5 1.8,-123.57 -5.41,-105.78 20.8,-77 47.21,-48 88.84,-34.09 124.52,-27.44"/>
<polygon fill="#63b8ff" stroke="#63b8ff" points="328.99,-383.64 339.45,-381.96 330.22,-376.75 328.99,-383.64"/>
</a>
</g>
</g>
<!-- Node10 -->
<g id="Node000010" class="node">
<title>Node10</title>
<g id="a_Node000010"><a xlink:href="work__aggregation__test_8cpp.html" target="_top" xlink:title=" ">
<polygon fill="white" stroke="#666666" points="590.3,-107 459.3,-107 459.3,-77 590.3,-77 590.3,-107"/>
<text text-anchor="start" x="467.3" y="-95" font-family="Helvetica,sans-Serif" font-size="10.00">tests/work_aggregation</text>
<text text-anchor="middle" x="524.8" y="-84" font-family="Helvetica,sans-Serif" font-size="10.00">_test.cpp</text>
</a>
</g>
</g>
<!-- Node2&#45;&gt;Node10 -->
<g id="edge16_Node000002_Node000010" class="edge">
<title>Node2&#45;&gt;Node10</title>
<g id="a_edge16_Node000002_Node000010"><a xlink:title=" ">
<path fill="none" stroke="#63b8ff" d="M422.74,-364.41C446.47,-301.3 501.95,-153.78 519.43,-107.29"/>
<polygon fill="#63b8ff" stroke="#63b8ff" points="419.46,-363.19 419.22,-373.78 426.01,-365.66 419.46,-363.19"/>
</a>
</g>
</g>
<!-- Node11 -->
<g id="Node000011" class="node">
<title>Node11</title>
<g id="a_Node000011"><a xlink:href="stream__manager_8hpp.html" target="_top" xlink:title=" ">
<polygon fill="white" stroke="#666666" points="616.8,-327 458.8,-327 458.8,-308 616.8,-308 616.8,-327"/>
<text text-anchor="middle" x="537.8" y="-315" font-family="Helvetica,sans-Serif" font-size="10.00">include/stream_manager.hpp</text>
</a>
</g>
</g>
<!-- Node2&#45;&gt;Node11 -->
<g id="edge13_Node000002_Node000011" class="edge">
<title>Node2&#45;&gt;Node11</title>
<g id="a_edge13_Node000002_Node000011"><a xlink:title=" ">
<path fill="none" stroke="#63b8ff" d="M453.23,-368.84C477.4,-354.45 506.38,-337.2 523.37,-327.09"/>
<polygon fill="#63b8ff" stroke="#63b8ff" points="451.38,-365.87 444.58,-373.99 454.96,-371.88 451.38,-365.87"/>
</a>
</g>
</g>
<!-- Node12 -->
<g id="Node000012" class="node">
<title>Node12</title>
<g id="a_Node000012"><a xlink:href="stream__test_8hpp.html" target="_top" xlink:title=" ">
<polygon fill="white" stroke="#666666" points="758.3,-327 635.3,-327 635.3,-308 758.3,-308 758.3,-327"/>
<text text-anchor="middle" x="696.8" y="-315" font-family="Helvetica,sans-Serif" font-size="10.00">tests/stream_test.hpp</text>
</a>
</g>
</g>
<!-- Node2&#45;&gt;Node12 -->
<g id="edge14_Node000002_Node000012" class="edge">
<title>Node2&#45;&gt;Node12</title>
<g id="a_edge14_Node000002_Node000012"><a xlink:title=" ">
<path fill="none" stroke="#63b8ff" d="M494.11,-372.45C533.92,-362.19 582.39,-349.59 625.8,-338 639.02,-334.47 653.59,-330.49 666.07,-327.04"/>
<polygon fill="#63b8ff" stroke="#63b8ff" points="492.99,-369.12 484.18,-375 494.74,-375.9 492.99,-369.12"/>
</a>
</g>
</g>
<!-- Node4 -->
<g id="Node000004" class="node">
<title>Node4</title>
<g id="a_Node000004"><a xlink:href="aggregation__executor__pools_8hpp.html" target="_top" xlink:title=" ">
<polygon fill="white" stroke="#666666" points="306.3,-261 133.3,-261 133.3,-220 306.3,-220 306.3,-261"/>
<text text-anchor="start" x="141.3" y="-249" font-family="Helvetica,sans-Serif" font-size="10.00">include/cppuddle/kernel</text>
<text text-anchor="start" x="141.3" y="-238" font-family="Helvetica,sans-Serif" font-size="10.00">_aggregation/detail/aggregation</text>
<text text-anchor="middle" x="219.8" y="-227" font-family="Helvetica,sans-Serif" font-size="10.00">_executor_pools.hpp</text>
</a>
</g>
</g>
<!-- Node3&#45;&gt;Node4 -->
<g id="edge3_Node000003_Node000004" class="edge">
<title>Node3&#45;&gt;Node4</title>
<g id="a_edge3_Node000003_Node000004"><a xlink:title=" ">
<path fill="none" stroke="#63b8ff" d="M256.28,-288.67C249.19,-279.5 241.45,-269.5 234.94,-261.07"/>
<polygon fill="#63b8ff" stroke="#63b8ff" points="253.68,-291.03 262.56,-296.79 259.21,-286.74 253.68,-291.03"/>
</a>
</g>
</g>
<!-- Node3&#45;&gt;Node5 -->
<g id="edge10_Node000003_Node000005" class="edge">
<title>Node3&#45;&gt;Node5</title>
<g id="a_edge10_Node000003_Node000005"><a xlink:title=" ">
<path fill="none" stroke="#63b8ff" d="M300.96,-288.65C306.61,-280.27 311.86,-270.71 314.8,-261 322.57,-235.34 320.63,-204.06 318.08,-184.21"/>
<polygon fill="#63b8ff" stroke="#63b8ff" points="298.01,-286.74 295.01,-296.91 303.7,-290.83 298.01,-286.74"/>
</a>
</g>
</g>
<!-- Node4&#45;&gt;Node5 -->
<g id="edge4_Node000004_Node000005" class="edge">
<title>Node4&#45;&gt;Node5</title>
<g id="a_edge4_Node000004_Node000005"><a xlink:title=" ">
<path fill="none" stroke="#63b8ff" d="M252.93,-213.35C265.11,-203.73 278.69,-193.01 290.01,-184.07"/>
<polygon fill="#63b8ff" stroke="#63b8ff" points="250.44,-210.85 244.76,-219.79 254.78,-216.35 250.44,-210.85"/>
</a>
</g>
</g>
<!-- Node6 -->
<g id="Node000006" class="node">
<title>Node6</title>
<g id="a_Node000006"><a xlink:href="aggregation__manager_8hpp.html" target="_top" xlink:title=" ">
<polygon fill="white" stroke="#666666" points="441.3,-107 328.3,-107 328.3,-77 441.3,-77 441.3,-107"/>
<text text-anchor="start" x="336.3" y="-95" font-family="Helvetica,sans-Serif" font-size="10.00">include/aggregation</text>
<text text-anchor="middle" x="384.8" y="-84" font-family="Helvetica,sans-Serif" font-size="10.00">_manager.hpp</text>
</a>
</g>
</g>
<!-- Node5&#45;&gt;Node6 -->
<g id="edge5_Node000005_Node000006" class="edge">
<title>Node5&#45;&gt;Node6</title>
<g id="a_edge5_Node000005_Node000006"><a xlink:title=" ">
<path fill="none" stroke="#63b8ff" d="M341.95,-135.55C351.75,-125.81 362.42,-115.22 370.66,-107.04"/>
<polygon fill="#63b8ff" stroke="#63b8ff" points="339.3,-133.24 334.67,-142.77 344.24,-138.21 339.3,-133.24"/>
</a>
</g>
</g>
<!-- Node8 -->
<g id="Node000008" class="node">
<title>Node8</title>
<g id="a_Node000008"><a xlink:href="work__aggregation__cpu__triad_8cpp.html" target="_top" xlink:title=" ">
<polygon fill="white" stroke="#666666" points="310.3,-107 179.3,-107 179.3,-77 310.3,-77 310.3,-107"/>
<text text-anchor="start" x="187.3" y="-95" font-family="Helvetica,sans-Serif" font-size="10.00">tests/work_aggregation</text>
<text text-anchor="middle" x="244.8" y="-84" font-family="Helvetica,sans-Serif" font-size="10.00">_cpu_triad.cpp</text>
</a>
</g>
</g>
<!-- Node5&#45;&gt;Node8 -->
<g id="edge7_Node000005_Node000008" class="edge">
<title>Node5&#45;&gt;Node8</title>
<g id="a_edge7_Node000005_Node000008"><a xlink:title=" ">
<path fill="none" stroke="#63b8ff" d="M287.66,-135.55C277.85,-125.81 267.18,-115.22 258.94,-107.04"/>
<polygon fill="#63b8ff" stroke="#63b8ff" points="285.37,-138.21 294.93,-142.77 290.3,-133.24 285.37,-138.21"/>
</a>
</g>
</g>
<!-- Node9 -->
<g id="Node000009" class="node">
<title>Node9</title>
<g id="a_Node000009"><a xlink:href="work__aggregation__cuda__triad_8cpp.html" target="_top" xlink:title=" ">
<polygon fill="white" stroke="#666666" points="161.3,-107 30.3,-107 30.3,-77 161.3,-77 161.3,-107"/>
<text text-anchor="start" x="38.3" y="-95" font-family="Helvetica,sans-Serif" font-size="10.00">tests/work_aggregation</text>
<text text-anchor="middle" x="95.8" y="-84" font-family="Helvetica,sans-Serif" font-size="10.00">_cuda_triad.cpp</text>
</a>
</g>
</g>
<!-- Node5&#45;&gt;Node9 -->
<g id="edge8_Node000005_Node000009" class="edge">
<title>Node5&#45;&gt;Node9</title>
<g id="a_edge8_Node000005_Node000009"><a xlink:title=" ">
<path fill="none" stroke="#63b8ff" d="M243.3,-139.81C209.23,-129 169.55,-116.4 139.93,-107"/>
<polygon fill="#63b8ff" stroke="#63b8ff" points="242.63,-143.27 253.22,-142.96 244.74,-136.59 242.63,-143.27"/>
</a>
</g>
</g>
<!-- Node5&#45;&gt;Node10 -->
<g id="edge9_Node000005_Node000010" class="edge">
<title>Node5&#45;&gt;Node10</title>
<g id="a_edge9_Node000005_Node000010"><a xlink:title=" ">
<path fill="none" stroke="#63b8ff" d="M383.36,-139.81C416.04,-129 454.09,-116.4 482.49,-107"/>
<polygon fill="#63b8ff" stroke="#63b8ff" points="382.25,-136.49 373.86,-142.96 384.45,-143.14 382.25,-136.49"/>
</a>
</g>
</g>
<!-- Node6&#45;&gt;Node7 -->
<g id="edge6_Node000006_Node000007" class="edge">
<title>Node6&#45;&gt;Node7</title>
<g id="a_edge6_Node000006_Node000007"><a xlink:title=" ">
<path fill="none" stroke="#63b8ff" d="M336.24,-73.42C309.01,-63.56 274.96,-51.24 246.88,-41.07"/>
<polygon fill="#63b8ff" stroke="#63b8ff" points="335.35,-76.82 345.95,-76.94 337.74,-70.24 335.35,-76.82"/>
</a>
</g>
</g>
<!-- Node13 -->
<g id="Node000013" class="node">
<title>Node13</title>
<g id="a_Node000013"><a xlink:href="stream__test_8cpp.html" target="_top" xlink:title=" ">
<polygon fill="white" stroke="#666666" points="757.8,-250 635.8,-250 635.8,-231 757.8,-231 757.8,-250"/>
<text text-anchor="middle" x="696.8" y="-238" font-family="Helvetica,sans-Serif" font-size="10.00">tests/stream_test.cpp</text>
</a>
</g>
</g>
<!-- Node12&#45;&gt;Node13 -->
<g id="edge15_Node000012_Node000013" class="edge">
<title>Node12&#45;&gt;Node13</title>
<g id="a_edge15_Node000012_Node000013"><a xlink:title=" ">
<path fill="none" stroke="#63b8ff" d="M696.8,-297.52C696.8,-282.24 696.8,-261.48 696.8,-250"/>
<polygon fill="#63b8ff" stroke="#63b8ff" points="693.3,-297.9 696.8,-307.9 700.3,-297.9 693.3,-297.9"/>
</a>
</g>
</g>
</g>
</svg>
