<?xml version="1.0" encoding="UTF-8" standalone="no"?>
<!DOCTYPE svg PUBLIC "-//W3C//DTD SVG 1.1//EN"
 "http://www.w3.org/Graphics/SVG/1.1/DTD/svg11.dtd">
<!-- Generated by graphviz version 2.43.0 (0)
 -->
<!-- Title: include/cppuddle/executor_recycling/detail/executor_pools_management.hpp Pages: 1 -->
<svg width="830pt" height="429pt"
 viewBox="0.00 0.00 830.00 429.00" xmlns="http://www.w3.org/2000/svg" xmlns:xlink="http://www.w3.org/1999/xlink">
<g id="graph0" class="graph" transform="scale(1 1) rotate(0) translate(4 425)">
<title>include/cppuddle/executor_recycling/detail/executor_pools_management.hpp</title>
<polygon fill="white" stroke="transparent" points="-4,4 -4,-425 826,-425 826,4 -4,4"/>
<!-- Node1 -->
<g id="node1" class="node">
<title>Node1</title>
<g id="a_node1"><a xlink:title=" ">
<polygon fill="#bfbfbf" stroke="black" points="475.5,-379.5 475.5,-420.5 619.5,-420.5 619.5,-379.5 475.5,-379.5"/>
<text text-anchor="start" x="483.5" y="-408.5" font-family="Helvetica,sans-Serif" font-size="10.00">include/cppuddle/executor</text>
<text text-anchor="start" x="483.5" y="-397.5" font-family="Helvetica,sans-Serif" font-size="10.00">_recycling/detail/executor</text>
<text text-anchor="middle" x="547.5" y="-386.5" font-family="Helvetica,sans-Serif" font-size="10.00">_pools_management.hpp</text>
</a>
</g>
</g>
<!-- Node2 -->
<g id="node2" class="node">
<title>Node2</title>
<g id="a_node2"><a xlink:href="executor__pools__interface_8hpp.html" target="_top" xlink:title=" ">
<polygon fill="white" stroke="black" points="475.5,-301.5 475.5,-342.5 619.5,-342.5 619.5,-301.5 475.5,-301.5"/>
<text text-anchor="start" x="483.5" y="-330.5" font-family="Helvetica,sans-Serif" font-size="10.00">include/cppuddle/executor</text>
<text text-anchor="start" x="483.5" y="-319.5" font-family="Helvetica,sans-Serif" font-size="10.00">_recycling/executor_pools</text>
<text text-anchor="middle" x="547.5" y="-308.5" font-family="Helvetica,sans-Serif" font-size="10.00">_interface.hpp</text>
</a>
</g>
</g>
<!-- Node1&#45;&gt;Node2 -->
<g id="edge1" class="edge">
<title>Node1&#45;&gt;Node2</title>
<path fill="none" stroke="midnightblue" d="M547.5,-369.3C547.5,-360.3 547.5,-350.65 547.5,-342.51"/>
<polygon fill="midnightblue" stroke="midnightblue" points="544,-369.43 547.5,-379.43 551,-369.43 544,-369.43"/>
</g>
<!-- Node3 -->
<g id="node3" class="node">
<title>Node3</title>
<g id="a_node3"><a xlink:href="aggregation__executors__and__allocators_8hpp.html" target="_top" xlink:title=" ">
<polygon fill="white" stroke="black" points="293,-223.5 293,-264.5 466,-264.5 466,-223.5 293,-223.5"/>
<text text-anchor="start" x="301" y="-252.5" font-family="Helvetica,sans-Serif" font-size="10.00">include/cppuddle/kernel</text>
<text text-anchor="start" x="301" y="-241.5" font-family="Helvetica,sans-Serif" font-size="10.00">_aggregation/detail/aggregation</text>
<text text-anchor="middle" x="379.5" y="-230.5" font-family="Helvetica,sans-Serif" font-size="10.00">_executors_and_allocators.hpp</text>
</a>
</g>
</g>
<!-- Node2&#45;&gt;Node3 -->
<g id="edge2" class="edge">
<title>Node2&#45;&gt;Node3</title>
<path fill="none" stroke="midnightblue" d="M494.87,-297.19C471.62,-286.67 444.64,-274.47 422.62,-264.51"/>
<polygon fill="midnightblue" stroke="midnightblue" points="493.68,-300.5 504.24,-301.43 496.57,-294.12 493.68,-300.5"/>
</g>
<!-- Node9 -->
<g id="node9" class="node">
<title>Node9</title>
<g id="a_node9"><a xlink:href="work__aggregation__test_8cpp.html" target="_top" xlink:title=" ">
<polygon fill="white" stroke="black" points="429,-0.5 429,-30.5 560,-30.5 560,-0.5 429,-0.5"/>
<text text-anchor="start" x="437" y="-18.5" font-family="Helvetica,sans-Serif" font-size="10.00">tests/work_aggregation</text>
<text text-anchor="middle" x="494.5" y="-7.5" font-family="Helvetica,sans-Serif" font-size="10.00">_test.cpp</text>
</a>
</g>
</g>
<!-- Node2&#45;&gt;Node9 -->
<g id="edge13" class="edge">
<title>Node2&#45;&gt;Node9</title>
<path fill="none" stroke="midnightblue" d="M526.94,-292.92C521.66,-284.36 516.6,-274.64 513.5,-265 486.03,-179.52 490.61,-69.35 493.33,-30.67"/>
<polygon fill="midnightblue" stroke="midnightblue" points="524.05,-294.91 532.44,-301.38 529.92,-291.09 524.05,-294.91"/>
</g>
<!-- Node10 -->
<g id="node10" class="node">
<title>Node10</title>
<g id="a_node10"><a xlink:href="stream__manager_8hpp.html" target="_top" xlink:title=" ">
<polygon fill="white" stroke="black" points="522.5,-234.5 522.5,-253.5 680.5,-253.5 680.5,-234.5 522.5,-234.5"/>
<text text-anchor="middle" x="601.5" y="-241.5" font-family="Helvetica,sans-Serif" font-size="10.00">include/stream_manager.hpp</text>
</a>
</g>
</g>
<!-- Node2&#45;&gt;Node10 -->
<g id="edge10" class="edge">
<title>Node2&#45;&gt;Node10</title>
<path fill="none" stroke="midnightblue" d="M567.36,-293.04C577.31,-279.05 588.64,-263.1 595.42,-253.55"/>
<polygon fill="midnightblue" stroke="midnightblue" points="564.35,-291.25 561.41,-301.43 570.05,-295.3 564.35,-291.25"/>
</g>
<!-- Node11 -->
<g id="node11" class="node">
<title>Node11</title>
<g id="a_node11"><a xlink:href="stream__test_8hpp.html" target="_top" xlink:title=" ">
<polygon fill="white" stroke="black" points="699,-234.5 699,-253.5 822,-253.5 822,-234.5 699,-234.5"/>
<text text-anchor="middle" x="760.5" y="-241.5" font-family="Helvetica,sans-Serif" font-size="10.00">tests/stream_test.hpp</text>
</a>
</g>
</g>
<!-- Node2&#45;&gt;Node11 -->
<g id="edge11" class="edge">
<title>Node2&#45;&gt;Node11</title>
<path fill="none" stroke="midnightblue" d="M611.98,-297.99C654.06,-282.98 706.55,-264.25 736.53,-253.55"/>
<polygon fill="midnightblue" stroke="midnightblue" points="610.59,-294.77 602.35,-301.43 612.95,-301.36 610.59,-294.77"/>
</g>
<!-- Node4 -->
<g id="node4" class="node">
<title>Node4</title>
<g id="a_node4"><a xlink:href="aggregation__executor__pools_8hpp.html" target="_top" xlink:title=" ">
<polygon fill="white" stroke="black" points="198,-145.5 198,-186.5 371,-186.5 371,-145.5 198,-145.5"/>
<text text-anchor="start" x="206" y="-174.5" font-family="Helvetica,sans-Serif" font-size="10.00">include/cppuddle/kernel</text>
<text text-anchor="start" x="206" y="-163.5" font-family="Helvetica,sans-Serif" font-size="10.00">_aggregation/detail/aggregation</text>
<text text-anchor="middle" x="284.5" y="-152.5" font-family="Helvetica,sans-Serif" font-size="10.00">_executor_pools.hpp</text>
</a>
</g>
</g>
<!-- Node3&#45;&gt;Node4 -->
<g id="edge3" class="edge">
<title>Node3&#45;&gt;Node4</title>
<path fill="none" stroke="midnightblue" d="M347.08,-217.06C334.57,-207.06 320.51,-195.8 308.88,-186.51"/>
<polygon fill="midnightblue" stroke="midnightblue" points="345.04,-219.91 355.04,-223.43 349.41,-214.45 345.04,-219.91"/>
</g>
<!-- Node5 -->
<g id="node5" class="node">
<title>Node5</title>
<g id="a_node5"><a xlink:href="kernel__aggregation__interface_8hpp.html" target="_top" xlink:title=" ">
<polygon fill="white" stroke="black" points="236,-67.5 236,-108.5 413,-108.5 413,-67.5 236,-67.5"/>
<text text-anchor="start" x="244" y="-96.5" font-family="Helvetica,sans-Serif" font-size="10.00">include/cppuddle/kernel</text>
<text text-anchor="start" x="244" y="-85.5" font-family="Helvetica,sans-Serif" font-size="10.00">_aggregation/kernel_aggregation</text>
<text text-anchor="middle" x="324.5" y="-74.5" font-family="Helvetica,sans-Serif" font-size="10.00">_interface.hpp</text>
</a>
</g>
</g>
<!-- Node3&#45;&gt;Node5 -->
<g id="edge9" class="edge">
<title>Node3&#45;&gt;Node5</title>
<path fill="none" stroke="midnightblue" d="M385.2,-213.29C387.7,-193.25 388.34,-166.63 379.5,-145 373.67,-130.75 362.27,-118.17 351.36,-108.56"/>
<polygon fill="midnightblue" stroke="midnightblue" points="381.71,-212.98 383.72,-223.38 388.63,-214 381.71,-212.98"/>
</g>
<!-- Node4&#45;&gt;Node5 -->
<g id="edge4" class="edge">
<title>Node4&#45;&gt;Node5</title>
<path fill="none" stroke="midnightblue" d="M299.52,-136.47C304.42,-127.14 309.76,-117.01 314.23,-108.51"/>
<polygon fill="midnightblue" stroke="midnightblue" points="296.36,-134.95 294.8,-145.43 302.56,-138.21 296.36,-134.95"/>
</g>
<!-- Node6 -->
<g id="node6" class="node">
<title>Node6</title>
<g id="a_node6"><a xlink:href="aggregation__manager_8hpp.html" target="_top" xlink:title=" ">
<polygon fill="white" stroke="black" points="0,-0.5 0,-30.5 113,-30.5 113,-0.5 0,-0.5"/>
<text text-anchor="start" x="8" y="-18.5" font-family="Helvetica,sans-Serif" font-size="10.00">include/aggregation</text>
<text text-anchor="middle" x="56.5" y="-7.5" font-family="Helvetica,sans-Serif" font-size="10.00">_manager.hpp</text>
</a>
</g>
</g>
<!-- Node5&#45;&gt;Node6 -->
<g id="edge5" class="edge">
<title>Node5&#45;&gt;Node6</title>
<path fill="none" stroke="midnightblue" d="M240.4,-64.88C197.81,-53.67 147.36,-40.4 110.09,-30.6"/>
<polygon fill="midnightblue" stroke="midnightblue" points="239.64,-68.3 250.2,-67.46 241.42,-61.53 239.64,-68.3"/>
</g>
<!-- Node7 -->
<g id="node7" class="node">
<title>Node7</title>
<g id="a_node7"><a xlink:href="work__aggregation__cpu__triad_8cpp.html" target="_top" xlink:title=" ">
<polygon fill="white" stroke="black" points="131,-0.5 131,-30.5 262,-30.5 262,-0.5 131,-0.5"/>
<text text-anchor="start" x="139" y="-18.5" font-family="Helvetica,sans-Serif" font-size="10.00">tests/work_aggregation</text>
<text text-anchor="middle" x="196.5" y="-7.5" font-family="Helvetica,sans-Serif" font-size="10.00">_cpu_triad.cpp</text>
</a>
</g>
</g>
<!-- Node5&#45;&gt;Node7 -->
<g id="edge6" class="edge">
<title>Node5&#45;&gt;Node7</title>
<path fill="none" stroke="midnightblue" d="M279.91,-62.44C260.62,-51.82 238.74,-39.76 222.23,-30.67"/>
<polygon fill="midnightblue" stroke="midnightblue" points="278.4,-65.6 288.84,-67.36 281.77,-59.47 278.4,-65.6"/>
</g>
<!-- Node8 -->
<g id="node8" class="node">
<title>Node8</title>
<g id="a_node8"><a xlink:href="work__aggregation__cuda__triad_8cpp.html" target="_top" xlink:title=" ">
<polygon fill="white" stroke="black" points="280,-0.5 280,-30.5 411,-30.5 411,-0.5 280,-0.5"/>
<text text-anchor="start" x="288" y="-18.5" font-family="Helvetica,sans-Serif" font-size="10.00">tests/work_aggregation</text>
<text text-anchor="middle" x="345.5" y="-7.5" font-family="Helvetica,sans-Serif" font-size="10.00">_cuda_triad.cpp</text>
</a>
</g>
</g>
<!-- Node5&#45;&gt;Node8 -->
<g id="edge7" class="edge">
<title>Node5&#45;&gt;Node8</title>
<path fill="none" stroke="midnightblue" d="M333.24,-57.67C335.99,-48.42 338.91,-38.61 341.21,-30.89"/>
<polygon fill="midnightblue" stroke="midnightblue" points="329.85,-56.78 330.35,-67.36 336.56,-58.78 329.85,-56.78"/>
</g>
<!-- Node5&#45;&gt;Node9 -->
<g id="edge8" class="edge">
<title>Node5&#45;&gt;Node9</title>
<path fill="none" stroke="midnightblue" d="M381.33,-63.43C407.62,-52.53 437.95,-39.95 460.6,-30.56"/>
<polygon fill="midnightblue" stroke="midnightblue" points="379.75,-60.3 371.85,-67.36 382.43,-66.76 379.75,-60.3"/>
</g>
<!-- Node12 -->
<g id="node12" class="node">
<title>Node12</title>
<g id="a_node12"><a xlink:href="stream__test_8cpp.html" target="_top" xlink:title=" ">
<polygon fill="white" stroke="black" points="699.5,-156.5 699.5,-175.5 821.5,-175.5 821.5,-156.5 699.5,-156.5"/>
<text text-anchor="middle" x="760.5" y="-163.5" font-family="Helvetica,sans-Serif" font-size="10.00">tests/stream_test.cpp</text>
</a>
</g>
</g>
<!-- Node11&#45;&gt;Node12 -->
<g id="edge12" class="edge">
<title>Node11&#45;&gt;Node12</title>
<path fill="none" stroke="midnightblue" d="M760.5,-224.22C760.5,-208.7 760.5,-187.36 760.5,-175.62"/>
<polygon fill="midnightblue" stroke="midnightblue" points="757,-224.28 760.5,-234.28 764,-224.28 757,-224.28"/>
</g>
</g>
</svg>
