<?xml version="1.0" encoding="UTF-8" standalone="no"?>
<!DOCTYPE svg PUBLIC "-//W3C//DTD SVG 1.1//EN"
 "http://www.w3.org/Graphics/SVG/1.1/DTD/svg11.dtd">
<!-- Generated by graphviz version 2.43.0 (0)
 -->
<!-- Title: include/cppuddle/executor_recycling/detail/executor_pools_management.hpp Pages: 1 -->
<!--zoomable 507 -->
<svg id="main" version="1.1" xmlns="http://www.w3.org/2000/svg" xmlns:xlink="http://www.w3.org/1999/xlink" xml:space="preserve" onload="init(evt)">
<style type="text/css"><![CDATA[
.edge:hover path { stroke: red; }
.edge:hover polygon { stroke: red; fill: red; }
]]></style>
<script type="text/javascript"><![CDATA[
var edges = document.getElementsByTagName('g');
if (edges && edges.length) {
  for (var i=0;i<edges.length;i++) {
    if (edges[i].id.substr(0,4)=='edge') {
      edges[i].setAttribute('class','edge');
    }
  }
}
]]></script>
        <defs>
                <circle id="rim" cx="0" cy="0" r="7"/>
                <circle id="rim2" cx="0" cy="0" r="3.5"/>
                <g id="zoomPlus">
                        <use xlink:href="#rim" fill="#404040">
                                <set attributeName="fill" to="#808080" begin="zoomplus.mouseover" end="zoomplus.mouseout"/>
                        </use>
                        <path d="M-4,0h8M0,-4v8" fill="none" stroke="white" stroke-width="1.5" pointer-events="none"/>
                </g>
                <g id="zoomMin">
                        <use xlink:href="#rim" fill="#404040">
                                <set attributeName="fill" to="#808080" begin="zoomminus.mouseover" end="zoomminus.mouseout"/>
                        </use>
                        <path d="M-4,0h8" fill="none" stroke="white" stroke-width="1.5" pointer-events="none"/>
                </g>
                <g id="dirArrow">
                        <path fill="none" stroke="white" stroke-width="1.5" d="M0,-3.0v7 M-2.5,-0.5L0,-3.0L2.5,-0.5"/>
                </g>
               <g id="resetDef">
                       <use xlink:href="#rim2" fill="#404040">
                               <set attributeName="fill" to="#808080" begin="reset.mouseover" end="reset.mouseout"/>
                       </use>
               </g>
        </defs>

<script type="text/javascript">
var viewWidth = 924;
var viewHeight = 507;
var sectionId = 'dynsection-1';
</script>
<script xlink:href="svgpan.js"/>
<svg id="graph" class="graph">
<g id="viewport">
<title>include/cppuddle/executor_recycling/detail/executor_pools_management.hpp</title>
<polygon fill="white" stroke="transparent" points="-4,4 -4,-503 920,-503 920,4 -4,4"/>
<!-- Node1 -->
<g id="node1" class="node">
<title>Node1</title>
<g id="a_node1"><a xlink:title=" ">
<polygon fill="#bfbfbf" stroke="black" points="497.5,-457.5 497.5,-498.5 641.5,-498.5 641.5,-457.5 497.5,-457.5"/>
<text text-anchor="start" x="505.5" y="-486.5" font-family="Helvetica,sans-Serif" font-size="10.00">include/cppuddle/executor</text>
<text text-anchor="start" x="505.5" y="-475.5" font-family="Helvetica,sans-Serif" font-size="10.00">_recycling/detail/executor</text>
<text text-anchor="middle" x="569.5" y="-464.5" font-family="Helvetica,sans-Serif" font-size="10.00">_pools_management.hpp</text>
</a>
</g>
</g>
<!-- Node2 -->
<g id="node2" class="node">
<title>Node2</title>
<g id="a_node2"><a xlink:href="executor__pools__interface_8hpp.html" target="_top" xlink:title=" ">
<polygon fill="white" stroke="black" points="497.5,-379.5 497.5,-420.5 641.5,-420.5 641.5,-379.5 497.5,-379.5"/>
<text text-anchor="start" x="505.5" y="-408.5" font-family="Helvetica,sans-Serif" font-size="10.00">include/cppuddle/executor</text>
<text text-anchor="start" x="505.5" y="-397.5" font-family="Helvetica,sans-Serif" font-size="10.00">_recycling/executor_pools</text>
<text text-anchor="middle" x="569.5" y="-386.5" font-family="Helvetica,sans-Serif" font-size="10.00">_interface.hpp</text>
</a>
</g>
</g>
<!-- Node1&#45;&gt;Node2 -->
<g id="edge1" class="edge">
<title>Node1&#45;&gt;Node2</title>
<path fill="none" stroke="midnightblue" d="M569.5,-447.3C569.5,-438.3 569.5,-428.65 569.5,-420.51"/>
<polygon fill="midnightblue" stroke="midnightblue" points="566,-447.43 569.5,-457.43 573,-447.43 566,-447.43"/>
</g>
<!-- Node3 -->
<g id="node3" class="node">
<title>Node3</title>
<g id="a_node3"><a xlink:href="kernel__aggregation__interface_8hpp.html" target="_top" xlink:title=" ">
<polygon fill="white" stroke="black" points="257,-145.5 257,-186.5 434,-186.5 434,-145.5 257,-145.5"/>
<text text-anchor="start" x="265" y="-174.5" font-family="Helvetica,sans-Serif" font-size="10.00">include/cppuddle/kernel</text>
<text text-anchor="start" x="265" y="-163.5" font-family="Helvetica,sans-Serif" font-size="10.00">_aggregation/kernel_aggregation</text>
<text text-anchor="middle" x="345.5" y="-152.5" font-family="Helvetica,sans-Serif" font-size="10.00">_interface.hpp</text>
</a>
</g>
</g>
<!-- Node2&#45;&gt;Node3 -->
<g id="edge2" class="edge">
<title>Node2&#45;&gt;Node3</title>
<path fill="none" stroke="midnightblue" d="M561.5,-369.71C555.1,-349.34 544.8,-322.15 530.5,-301 494.62,-247.94 430.39,-208.5 387.85,-186.61"/>
<polygon fill="midnightblue" stroke="midnightblue" points="558.18,-370.82 564.42,-379.39 564.89,-368.8 558.18,-370.82"/>
</g>
<!-- Node5 -->
<g id="node5" class="node">
<title>Node5</title>
<g id="a_node5"><a xlink:href="kokkos__aggregation__util_8hpp.html" target="_top" xlink:title=" ">
<polygon fill="white" stroke="black" points="328.5,-0.5 328.5,-41.5 464.5,-41.5 464.5,-0.5 328.5,-0.5"/>
<text text-anchor="start" x="336.5" y="-29.5" font-family="Helvetica,sans-Serif" font-size="10.00">include/cppuddle/kernel</text>
<text text-anchor="start" x="336.5" y="-18.5" font-family="Helvetica,sans-Serif" font-size="10.00">_aggregation/util/kokkos</text>
<text text-anchor="middle" x="396.5" y="-7.5" font-family="Helvetica,sans-Serif" font-size="10.00">_aggregation_util.hpp</text>
</a>
</g>
</g>
<!-- Node2&#45;&gt;Node5 -->
<g id="edge8" class="edge">
<title>Node2&#45;&gt;Node5</title>
<path fill="none" stroke="midnightblue" d="M575.41,-369.04C580.98,-338.11 588.5,-288.38 588.5,-245 588.5,-245 588.5,-245 588.5,-165 588.5,-125.32 595.28,-107.27 568.5,-78 542,-49.04 500.37,-35.01 464.71,-28.23"/>
<polygon fill="midnightblue" stroke="midnightblue" points="571.91,-368.69 573.53,-379.16 578.79,-369.97 571.91,-368.69"/>
</g>
<!-- Node8 -->
<g id="node8" class="node">
<title>Node8</title>
<g id="a_node8"><a xlink:href="work__aggregation__test_8cpp.html" target="_top" xlink:title=" ">
<polygon fill="white" stroke="black" points="0,-78.5 0,-108.5 131,-108.5 131,-78.5 0,-78.5"/>
<text text-anchor="start" x="8" y="-96.5" font-family="Helvetica,sans-Serif" font-size="10.00">tests/work_aggregation</text>
<text text-anchor="middle" x="65.5" y="-85.5" font-family="Helvetica,sans-Serif" font-size="10.00">_test.cpp</text>
</a>
</g>
</g>
<!-- Node2&#45;&gt;Node8 -->
<g id="edge16" class="edge">
<title>Node2&#45;&gt;Node8</title>
<path fill="none" stroke="midnightblue" d="M487.42,-387.52C442.23,-379.14 386.04,-365.24 339.5,-343 216.66,-284.29 109.37,-152.4 76.11,-108.8"/>
<polygon fill="midnightblue" stroke="midnightblue" points="487.01,-391 497.47,-389.33 488.25,-384.11 487.01,-391"/>
</g>
<!-- Node9 -->
<g id="node9" class="node">
<title>Node9</title>
<g id="a_node9"><a xlink:href="aggregation__executors__and__allocators_8hpp.html" target="_top" xlink:title=" ">
<polygon fill="white" stroke="black" points="349,-301.5 349,-342.5 522,-342.5 522,-301.5 349,-301.5"/>
<text text-anchor="start" x="357" y="-330.5" font-family="Helvetica,sans-Serif" font-size="10.00">include/cppuddle/kernel</text>
<text text-anchor="start" x="357" y="-319.5" font-family="Helvetica,sans-Serif" font-size="10.00">_aggregation/detail/aggregation</text>
<text text-anchor="middle" x="435.5" y="-308.5" font-family="Helvetica,sans-Serif" font-size="10.00">_executors_and_allocators.hpp</text>
</a>
</g>
</g>
<!-- Node2&#45;&gt;Node9 -->
<g id="edge9" class="edge">
<title>Node2&#45;&gt;Node9</title>
<path fill="none" stroke="midnightblue" d="M526.28,-374.49C508.02,-364.13 487.07,-352.25 469.89,-342.51"/>
<polygon fill="midnightblue" stroke="midnightblue" points="524.57,-377.54 534.99,-379.43 528.02,-371.45 524.57,-377.54"/>
</g>
<!-- Node11 -->
<g id="node11" class="node">
<title>Node11</title>
<g id="a_node11"><a xlink:href="stream__manager_8hpp.html" target="_top" xlink:title=" ">
<polygon fill="white" stroke="black" points="616.5,-312.5 616.5,-331.5 774.5,-331.5 774.5,-312.5 616.5,-312.5"/>
<text text-anchor="middle" x="695.5" y="-319.5" font-family="Helvetica,sans-Serif" font-size="10.00">include/stream_manager.hpp</text>
</a>
</g>
</g>
<!-- Node2&#45;&gt;Node11 -->
<g id="edge13" class="edge">
<title>Node2&#45;&gt;Node11</title>
<path fill="none" stroke="midnightblue" d="M610.66,-374.17C635,-359.49 664.3,-341.82 681.32,-331.55"/>
<polygon fill="midnightblue" stroke="midnightblue" points="608.7,-371.27 601.95,-379.43 612.32,-377.26 608.7,-371.27"/>
</g>
<!-- Node12 -->
<g id="node12" class="node">
<title>Node12</title>
<g id="a_node12"><a xlink:href="stream__test_8hpp.html" target="_top" xlink:title=" ">
<polygon fill="white" stroke="black" points="793,-312.5 793,-331.5 916,-331.5 916,-312.5 793,-312.5"/>
<text text-anchor="middle" x="854.5" y="-319.5" font-family="Helvetica,sans-Serif" font-size="10.00">tests/stream_test.hpp</text>
</a>
</g>
</g>
<!-- Node2&#45;&gt;Node12 -->
<g id="edge14" class="edge">
<title>Node2&#45;&gt;Node12</title>
<path fill="none" stroke="midnightblue" d="M651.83,-377.84C691.65,-367.51 740.11,-354.79 783.5,-343 796.97,-339.34 811.84,-335.17 824.48,-331.59"/>
<polygon fill="midnightblue" stroke="midnightblue" points="650.7,-374.51 641.9,-380.41 652.46,-381.29 650.7,-374.51"/>
</g>
<!-- Node4 -->
<g id="node4" class="node">
<title>Node4</title>
<g id="a_node4"><a xlink:href="aggregation__manager_8hpp.html" target="_top" xlink:title=" ">
<polygon fill="white" stroke="black" points="149,-78.5 149,-108.5 262,-108.5 262,-78.5 149,-78.5"/>
<text text-anchor="start" x="157" y="-96.5" font-family="Helvetica,sans-Serif" font-size="10.00">include/aggregation</text>
<text text-anchor="middle" x="205.5" y="-85.5" font-family="Helvetica,sans-Serif" font-size="10.00">_manager.hpp</text>
</a>
</g>
</g>
<!-- Node3&#45;&gt;Node4 -->
<g id="edge3" class="edge">
<title>Node3&#45;&gt;Node4</title>
<path fill="none" stroke="midnightblue" d="M297.3,-140.73C276.07,-130.04 251.86,-117.85 233.64,-108.67"/>
<polygon fill="midnightblue" stroke="midnightblue" points="296,-143.99 306.5,-145.36 299.14,-137.74 296,-143.99"/>
</g>
<!-- Node6 -->
<g id="node6" class="node">
<title>Node6</title>
<g id="a_node6"><a xlink:href="work__aggregation__cpu__triad_8cpp.html" target="_top" xlink:title=" ">
<polygon fill="white" stroke="black" points="429,-78.5 429,-108.5 560,-108.5 560,-78.5 429,-78.5"/>
<text text-anchor="start" x="437" y="-96.5" font-family="Helvetica,sans-Serif" font-size="10.00">tests/work_aggregation</text>
<text text-anchor="middle" x="494.5" y="-85.5" font-family="Helvetica,sans-Serif" font-size="10.00">_cpu_triad.cpp</text>
</a>
</g>
</g>
<!-- Node3&#45;&gt;Node6 -->
<g id="edge5" class="edge">
<title>Node3&#45;&gt;Node6</title>
<path fill="none" stroke="midnightblue" d="M396.19,-141.02C418.93,-130.25 444.98,-117.93 464.55,-108.67"/>
<polygon fill="midnightblue" stroke="midnightblue" points="394.55,-137.92 387,-145.36 397.54,-144.25 394.55,-137.92"/>
</g>
<!-- Node7 -->
<g id="node7" class="node">
<title>Node7</title>
<g id="a_node7"><a xlink:href="work__aggregation__cuda__triad_8cpp.html" target="_top" xlink:title=" ">
<polygon fill="white" stroke="black" points="280,-78.5 280,-108.5 411,-108.5 411,-78.5 280,-78.5"/>
<text text-anchor="start" x="288" y="-96.5" font-family="Helvetica,sans-Serif" font-size="10.00">tests/work_aggregation</text>
<text text-anchor="middle" x="345.5" y="-85.5" font-family="Helvetica,sans-Serif" font-size="10.00">_cuda_triad.cpp</text>
</a>
</g>
</g>
<!-- Node3&#45;&gt;Node7 -->
<g id="edge6" class="edge">
<title>Node3&#45;&gt;Node7</title>
<path fill="none" stroke="midnightblue" d="M345.5,-135.08C345.5,-126.01 345.5,-116.45 345.5,-108.89"/>
<polygon fill="midnightblue" stroke="midnightblue" points="342,-135.36 345.5,-145.36 349,-135.36 342,-135.36"/>
</g>
<!-- Node3&#45;&gt;Node8 -->
<g id="edge7" class="edge">
<title>Node3&#45;&gt;Node8</title>
<path fill="none" stroke="midnightblue" d="M257.92,-142.95C213.35,-131.73 160.51,-118.42 121.49,-108.6"/>
<polygon fill="midnightblue" stroke="midnightblue" points="257.32,-146.41 267.88,-145.46 259.03,-139.62 257.32,-146.41"/>
</g>
<!-- Node4&#45;&gt;Node5 -->
<g id="edge4" class="edge">
<title>Node4&#45;&gt;Node5</title>
<path fill="none" stroke="midnightblue" d="M253.09,-74.93C280.58,-64.79 315.2,-52.01 343.54,-41.55"/>
<polygon fill="midnightblue" stroke="midnightblue" points="251.86,-71.66 243.69,-78.4 254.29,-78.22 251.86,-71.66"/>
</g>
<!-- Node9&#45;&gt;Node3 -->
<g id="edge12" class="edge">
<title>Node9&#45;&gt;Node3</title>
<path fill="none" stroke="midnightblue" d="M439.89,-291.08C441.41,-270.58 440.35,-243.5 428.5,-223 419.62,-207.65 404.64,-195.64 389.83,-186.75"/>
<polygon fill="midnightblue" stroke="midnightblue" points="436.4,-290.83 438.91,-301.13 443.37,-291.51 436.4,-290.83"/>
</g>
<!-- Node10 -->
<g id="node10" class="node">
<title>Node10</title>
<g id="a_node10"><a xlink:href="aggregation__executor__pools_8hpp.html" target="_top" xlink:title=" ">
<polygon fill="white" stroke="black" points="247,-223.5 247,-264.5 420,-264.5 420,-223.5 247,-223.5"/>
<text text-anchor="start" x="255" y="-252.5" font-family="Helvetica,sans-Serif" font-size="10.00">include/cppuddle/kernel</text>
<text text-anchor="start" x="255" y="-241.5" font-family="Helvetica,sans-Serif" font-size="10.00">_aggregation/detail/aggregation</text>
<text text-anchor="middle" x="333.5" y="-230.5" font-family="Helvetica,sans-Serif" font-size="10.00">_executor_pools.hpp</text>
</a>
</g>
</g>
<!-- Node9&#45;&gt;Node10 -->
<g id="edge10" class="edge">
<title>Node9&#45;&gt;Node10</title>
<path fill="none" stroke="midnightblue" d="M401.08,-295.35C387.55,-285.27 372.28,-273.89 359.68,-264.51"/>
<polygon fill="midnightblue" stroke="midnightblue" points="399.12,-298.26 409.23,-301.43 403.3,-292.65 399.12,-298.26"/>
</g>
<!-- Node10&#45;&gt;Node3 -->
<g id="edge11" class="edge">
<title>Node10&#45;&gt;Node3</title>
<path fill="none" stroke="midnightblue" d="M338.19,-213.3C339.61,-204.3 341.13,-194.65 342.42,-186.51"/>
<polygon fill="midnightblue" stroke="midnightblue" points="334.69,-213 336.59,-223.43 341.61,-214.1 334.69,-213"/>
</g>
<!-- Node13 -->
<g id="node13" class="node">
<title>Node13</title>
<g id="a_node13"><a xlink:href="stream__test_8cpp.html" target="_top" xlink:title=" ">
<polygon fill="white" stroke="black" points="793.5,-234.5 793.5,-253.5 915.5,-253.5 915.5,-234.5 793.5,-234.5"/>
<text text-anchor="middle" x="854.5" y="-241.5" font-family="Helvetica,sans-Serif" font-size="10.00">tests/stream_test.cpp</text>
</a>
</g>
</g>
<!-- Node12&#45;&gt;Node13 -->
<g id="edge15" class="edge">
<title>Node12&#45;&gt;Node13</title>
<path fill="none" stroke="midnightblue" d="M854.5,-302.22C854.5,-286.7 854.5,-265.36 854.5,-253.62"/>
<polygon fill="midnightblue" stroke="midnightblue" points="851,-302.28 854.5,-312.28 858,-302.28 851,-302.28"/>
</g>
</g>
</svg>
        <g id="navigator" transform="translate(0 0)" fill="#404254">
                <rect fill="#f2f5e9" fill-opacity="0.5" stroke="#606060" stroke-width=".5" x="0" y="0" width="60" height="60"/>
                <use id="zoomplus" xlink:href="#zoomPlus" x="17" y="9" onmousedown="handleZoom(evt,'in')"/>
                <use id="zoomminus" xlink:href="#zoomMin" x="42" y="9" onmousedown="handleZoom(evt,'out')"/>
                <use id="reset" xlink:href="#resetDef" x="30" y="36" onmousedown="handleReset()"/>
                <g id="arrowUp" xlink:href="#dirArrow" transform="translate(30 24)" onmousedown="handlePan(0,-1)">
                  <use xlink:href="#rim" fill="#404040">
                        <set attributeName="fill" to="#808080" begin="arrowUp.mouseover" end="arrowUp.mouseout"/>
                  </use>
                  <path fill="none" stroke="white" stroke-width="1.5" d="M0,-3.0v7 M-2.5,-0.5L0,-3.0L2.5,-0.5"/>
                </g>
                <g id="arrowRight" xlink:href="#dirArrow" transform="rotate(90) translate(36 -43)" onmousedown="handlePan(1,0)">
                  <use xlink:href="#rim" fill="#404040">
                        <set attributeName="fill" to="#808080" begin="arrowRight.mouseover" end="arrowRight.mouseout"/>
                  </use>
                  <path fill="none" stroke="white" stroke-width="1.5" d="M0,-3.0v7 M-2.5,-0.5L0,-3.0L2.5,-0.5"/>
                </g>
                <g id="arrowDown" xlink:href="#dirArrow" transform="rotate(180) translate(-30 -48)" onmousedown="handlePan(0,1)">
                  <use xlink:href="#rim" fill="#404040">
                        <set attributeName="fill" to="#808080" begin="arrowDown.mouseover" end="arrowDown.mouseout"/>
                  </use>
                  <path fill="none" stroke="white" stroke-width="1.5" d="M0,-3.0v7 M-2.5,-0.5L0,-3.0L2.5,-0.5"/>
                </g>
                <g id="arrowLeft" xlink:href="#dirArrow" transform="rotate(270) translate(-36 17)" onmousedown="handlePan(-1,0)">
                  <use xlink:href="#rim" fill="#404040">
                        <set attributeName="fill" to="#808080" begin="arrowLeft.mouseover" end="arrowLeft.mouseout"/>
                  </use>
                  <path fill="none" stroke="white" stroke-width="1.5" d="M0,-3.0v7 M-2.5,-0.5L0,-3.0L2.5,-0.5"/>
                </g>
        </g>
        <svg viewBox="0 0 15 15" width="100%" height="30px" preserveAspectRatio="xMaxYMin meet">
         <g id="arrow_out" transform="scale(0.3 0.3)">
          <a xlink:href="executor__pools__management_8hpp__dep__incl_org.svg" target="_base">
           <rect id="button" ry="5" rx="5" y="6" x="6" height="38" width="38"
                fill="#f2f5e9" fill-opacity="0.5" stroke="#606060" stroke-width="1.0"/>
           <path id="arrow"
             d="M 11.500037,31.436501 C 11.940474,20.09759 22.043105,11.32322 32.158766,21.979434 L 37.068811,17.246167 C 37.068811,17.246167 37.088388,32 37.088388,32 L 22.160133,31.978069 C 22.160133,31.978069 26.997745,27.140456 26.997745,27.140456 C 18.528582,18.264221 13.291696,25.230495 11.500037,31.436501 z"
             style="fill:#404040;"/>
          </a>
         </g>
        </svg>
</svg>
