<?xml version="1.0" encoding="UTF-8" standalone="no"?>
<!DOCTYPE svg PUBLIC "-//W3C//DTD SVG 1.1//EN"
 "http://www.w3.org/Graphics/SVG/1.1/DTD/svg11.dtd">
<!-- Generated by graphviz version 2.43.0 (0)
 -->
<!-- Title: include/cppuddle/executor_recycling/detail/executor_pools_management.hpp Pages: 1 -->
<svg width="850pt" height="162pt"
 viewBox="0.00 0.00 850.00 162.00" xmlns="http://www.w3.org/2000/svg" xmlns:xlink="http://www.w3.org/1999/xlink">
<g id="graph0" class="graph" transform="scale(1 1) rotate(0) translate(4 158)">
<title>include/cppuddle/executor_recycling/detail/executor_pools_management.hpp</title>
<polygon fill="white" stroke="transparent" points="-4,4 -4,-158 846,-158 846,4 -4,4"/>
<!-- Node1 -->
<g id="node1" class="node">
<title>Node1</title>
<g id="a_node1"><a xlink:title=" ">
<polygon fill="#bfbfbf" stroke="black" points="313,-112.5 313,-153.5 457,-153.5 457,-112.5 313,-112.5"/>
<text text-anchor="start" x="321" y="-141.5" font-family="Helvetica,sans-Serif" font-size="10.00">include/cppuddle/executor</text>
<text text-anchor="start" x="321" y="-130.5" font-family="Helvetica,sans-Serif" font-size="10.00">_recycling/detail/executor</text>
<text text-anchor="middle" x="385" y="-119.5" font-family="Helvetica,sans-Serif" font-size="10.00">_pools_management.hpp</text>
</a>
</g>
</g>
<!-- Node2 -->
<g id="node2" class="node">
<title>Node2</title>
<g id="a_node2"><a xlink:title=" ">
<polygon fill="white" stroke="#bfbfbf" points="0,-56.5 0,-75.5 64,-75.5 64,-56.5 0,-56.5"/>
<text text-anchor="middle" x="32" y="-63.5" font-family="Helvetica,sans-Serif" font-size="10.00">algorithm</text>
</a>
</g>
</g>
<!-- Node1&#45;&gt;Node2 -->
<g id="edge1" class="edge">
<title>Node1&#45;&gt;Node2</title>
<path fill="none" stroke="midnightblue" d="M312.98,-119.88C251.93,-109.43 161.83,-93.56 74.06,-76.16"/>
<polygon fill="midnightblue" stroke="midnightblue" points="74.7,-72.71 64.2,-74.19 73.33,-79.58 74.7,-72.71"/>
</g>
<!-- Node3 -->
<g id="node3" class="node">
<title>Node3</title>
<g id="a_node3"><a xlink:title=" ">
<polygon fill="white" stroke="#bfbfbf" points="82,-56.5 82,-75.5 124,-75.5 124,-56.5 82,-56.5"/>
<text text-anchor="middle" x="103" y="-63.5" font-family="Helvetica,sans-Serif" font-size="10.00">array</text>
</a>
</g>
</g>
<!-- Node1&#45;&gt;Node3 -->
<g id="edge2" class="edge">
<title>Node1&#45;&gt;Node3</title>
<path fill="none" stroke="midnightblue" d="M312.98,-117.45C264.76,-107.37 199.72,-93.13 133.96,-76.11"/>
<polygon fill="midnightblue" stroke="midnightblue" points="134.81,-72.72 124.25,-73.58 133.05,-79.49 134.81,-72.72"/>
</g>
<!-- Node4 -->
<g id="node4" class="node">
<title>Node4</title>
<g id="a_node4"><a xlink:title=" ">
<polygon fill="white" stroke="#bfbfbf" points="142,-56.5 142,-75.5 194,-75.5 194,-56.5 142,-56.5"/>
<text text-anchor="middle" x="168" y="-63.5" font-family="Helvetica,sans-Serif" font-size="10.00">cassert</text>
</a>
</g>
</g>
<!-- Node1&#45;&gt;Node4 -->
<g id="edge3" class="edge">
<title>Node1&#45;&gt;Node4</title>
<path fill="none" stroke="midnightblue" d="M319.89,-112.5C281.82,-101.09 235.21,-87.13 203.74,-77.71"/>
<polygon fill="midnightblue" stroke="midnightblue" points="204.67,-74.33 194.08,-74.81 202.66,-81.04 204.67,-74.33"/>
</g>
<!-- Node5 -->
<g id="node5" class="node">
<title>Node5</title>
<g id="a_node5"><a xlink:title=" ">
<polygon fill="white" stroke="#bfbfbf" points="212.5,-56.5 212.5,-75.5 259.5,-75.5 259.5,-56.5 212.5,-56.5"/>
<text text-anchor="middle" x="236" y="-63.5" font-family="Helvetica,sans-Serif" font-size="10.00">deque</text>
</a>
</g>
</g>
<!-- Node1&#45;&gt;Node5 -->
<g id="edge4" class="edge">
<title>Node1&#45;&gt;Node5</title>
<path fill="none" stroke="midnightblue" d="M340.3,-112.5C315.91,-101.86 286.43,-89 265.04,-79.67"/>
<polygon fill="midnightblue" stroke="midnightblue" points="266.4,-76.44 255.83,-75.65 263.6,-82.86 266.4,-76.44"/>
</g>
<!-- Node6 -->
<g id="node6" class="node">
<title>Node6</title>
<g id="a_node6"><a xlink:title=" ">
<polygon fill="white" stroke="#bfbfbf" points="278,-56.5 278,-75.5 338,-75.5 338,-56.5 278,-56.5"/>
<text text-anchor="middle" x="308" y="-63.5" font-family="Helvetica,sans-Serif" font-size="10.00">iostream</text>
</a>
</g>
</g>
<!-- Node1&#45;&gt;Node6 -->
<g id="edge5" class="edge">
<title>Node1&#45;&gt;Node6</title>
<path fill="none" stroke="midnightblue" d="M361.9,-112.5C350.43,-102.82 336.79,-91.3 326.09,-82.27"/>
<polygon fill="midnightblue" stroke="midnightblue" points="328.15,-79.43 318.25,-75.65 323.63,-84.78 328.15,-79.43"/>
</g>
<!-- Node7 -->
<g id="node7" class="node">
<title>Node7</title>
<g id="a_node7"><a xlink:title=" ">
<polygon fill="white" stroke="#bfbfbf" points="356,-56.5 356,-75.5 414,-75.5 414,-56.5 356,-56.5"/>
<text text-anchor="middle" x="385" y="-63.5" font-family="Helvetica,sans-Serif" font-size="10.00">memory</text>
</a>
</g>
</g>
<!-- Node1&#45;&gt;Node7 -->
<g id="edge6" class="edge">
<title>Node1&#45;&gt;Node7</title>
<path fill="none" stroke="midnightblue" d="M385,-112.5C385,-104.07 385,-94.24 385,-85.87"/>
<polygon fill="midnightblue" stroke="midnightblue" points="388.5,-85.65 385,-75.65 381.5,-85.65 388.5,-85.65"/>
</g>
<!-- Node8 -->
<g id="node8" class="node">
<title>Node8</title>
<g id="a_node8"><a xlink:title=" ">
<polygon fill="white" stroke="#bfbfbf" points="578,-0.5 578,-19.5 626,-19.5 626,-0.5 578,-0.5"/>
<text text-anchor="middle" x="602" y="-7.5" font-family="Helvetica,sans-Serif" font-size="10.00">mutex</text>
</a>
</g>
</g>
<!-- Node1&#45;&gt;Node8 -->
<g id="edge7" class="edge">
<title>Node1&#45;&gt;Node8</title>
<path fill="none" stroke="midnightblue" d="M400.43,-112.23C414.72,-95.13 437.42,-70.9 462,-56 495.2,-35.88 538.36,-23.78 567.93,-17.28"/>
<polygon fill="midnightblue" stroke="midnightblue" points="568.72,-20.69 577.78,-15.21 567.28,-13.84 568.72,-20.69"/>
</g>
<!-- Node9 -->
<g id="node9" class="node">
<title>Node9</title>
<g id="a_node9"><a xlink:title=" ">
<polygon fill="white" stroke="#bfbfbf" points="470.5,-56.5 470.5,-75.5 517.5,-75.5 517.5,-56.5 470.5,-56.5"/>
<text text-anchor="middle" x="494" y="-63.5" font-family="Helvetica,sans-Serif" font-size="10.00">queue</text>
</a>
</g>
</g>
<!-- Node1&#45;&gt;Node9 -->
<g id="edge8" class="edge">
<title>Node1&#45;&gt;Node9</title>
<path fill="none" stroke="midnightblue" d="M417.7,-112.5C434.74,-102.34 455.17,-90.16 470.6,-80.95"/>
<polygon fill="midnightblue" stroke="midnightblue" points="472.69,-83.78 479.49,-75.65 469.11,-77.77 472.69,-83.78"/>
</g>
<!-- Node10 -->
<g id="node10" class="node">
<title>Node10</title>
<g id="a_node10"><a xlink:title=" ">
<polygon fill="white" stroke="#bfbfbf" points="535.5,-56.5 535.5,-75.5 576.5,-75.5 576.5,-56.5 535.5,-56.5"/>
<text text-anchor="middle" x="556" y="-63.5" font-family="Helvetica,sans-Serif" font-size="10.00">tuple</text>
</a>
</g>
</g>
<!-- Node1&#45;&gt;Node10 -->
<g id="edge9" class="edge">
<title>Node1&#45;&gt;Node10</title>
<path fill="none" stroke="midnightblue" d="M436.31,-112.5C465.53,-101.39 501.14,-87.85 525.88,-78.45"/>
<polygon fill="midnightblue" stroke="midnightblue" points="527.34,-81.64 535.45,-74.81 524.85,-75.09 527.34,-81.64"/>
</g>
<!-- Node11 -->
<g id="node11" class="node">
<title>Node11</title>
<g id="a_node11"><a xlink:title=" ">
<polygon fill="white" stroke="#bfbfbf" points="594.5,-56.5 594.5,-75.5 663.5,-75.5 663.5,-56.5 594.5,-56.5"/>
<text text-anchor="middle" x="629" y="-63.5" font-family="Helvetica,sans-Serif" font-size="10.00">type_traits</text>
</a>
</g>
</g>
<!-- Node1&#45;&gt;Node11 -->
<g id="edge10" class="edge">
<title>Node1&#45;&gt;Node11</title>
<path fill="none" stroke="midnightblue" d="M457.22,-112.76C499.43,-101.52 551.23,-87.72 586.84,-78.23"/>
<polygon fill="midnightblue" stroke="midnightblue" points="588.13,-81.51 596.89,-75.55 586.33,-74.75 588.13,-81.51"/>
</g>
<!-- Node12 -->
<g id="node12" class="node">
<title>Node12</title>
<g id="a_node12"><a xlink:href="config_8hpp.html" target="_top" xlink:title=" ">
<polygon fill="white" stroke="black" points="682,-56.5 682,-75.5 842,-75.5 842,-56.5 682,-56.5"/>
<text text-anchor="middle" x="762" y="-63.5" font-family="Helvetica,sans-Serif" font-size="10.00">cppuddle/common/config.hpp</text>
</a>
</g>
</g>
<!-- Node1&#45;&gt;Node12 -->
<g id="edge11" class="edge">
<title>Node1&#45;&gt;Node12</title>
<path fill="none" stroke="midnightblue" d="M457.24,-119.54C528.52,-107.25 636.19,-88.69 702.63,-77.24"/>
<polygon fill="midnightblue" stroke="midnightblue" points="703.27,-80.68 712.53,-75.53 702.08,-73.78 703.27,-80.68"/>
</g>
<!-- Node12&#45;&gt;Node8 -->
<g id="edge12" class="edge">
<title>Node12&#45;&gt;Node8</title>
<path fill="none" stroke="midnightblue" d="M736.65,-56.44C709.41,-47.25 666,-32.6 635.86,-22.43"/>
<polygon fill="midnightblue" stroke="midnightblue" points="636.78,-19.04 626.19,-19.16 634.54,-25.68 636.78,-19.04"/>
</g>
</g>
</svg>
