<?xml version="1.0" encoding="UTF-8" standalone="no"?>
<!DOCTYPE svg PUBLIC "-//W3C//DTD SVG 1.1//EN"
 "http://www.w3.org/Graphics/SVG/1.1/DTD/svg11.dtd">
<!-- Generated by graphviz version 2.43.0 (0)
 -->
<!-- Title: include/cppuddle/executor_recycling/executor_pools_interface.hpp Pages: 1 -->
<svg width="812pt" height="429pt"
 viewBox="0.00 0.00 811.50 429.00" xmlns="http://www.w3.org/2000/svg" xmlns:xlink="http://www.w3.org/1999/xlink">
<g id="graph0" class="graph" transform="scale(1 1) rotate(0) translate(4 425)">
<title>include/cppuddle/executor_recycling/executor_pools_interface.hpp</title>
<polygon fill="white" stroke="transparent" points="-4,4 -4,-425 807.5,-425 807.5,4 -4,4"/>
<!-- Node1 -->
<g id="node1" class="node">
<title>Node1</title>
<g id="a_node1"><a xlink:title=" ">
<polygon fill="#bfbfbf" stroke="black" points="404,-379.5 404,-420.5 548,-420.5 548,-379.5 404,-379.5"/>
<text text-anchor="start" x="412" y="-408.5" font-family="Helvetica,sans-Serif" font-size="10.00">include/cppuddle/executor</text>
<text text-anchor="start" x="412" y="-397.5" font-family="Helvetica,sans-Serif" font-size="10.00">_recycling/executor_pools</text>
<text text-anchor="middle" x="476" y="-386.5" font-family="Helvetica,sans-Serif" font-size="10.00">_interface.hpp</text>
</a>
</g>
</g>
<!-- Node2 -->
<g id="node2" class="node">
<title>Node2</title>
<g id="a_node2"><a xlink:href="kokkos__aggregation__util_8hpp.html" target="_top" xlink:title=" ">
<polygon fill="white" stroke="black" points="0,-0.5 0,-41.5 136,-41.5 136,-0.5 0,-0.5"/>
<text text-anchor="start" x="8" y="-29.5" font-family="Helvetica,sans-Serif" font-size="10.00">include/cppuddle/kernel</text>
<text text-anchor="start" x="8" y="-18.5" font-family="Helvetica,sans-Serif" font-size="10.00">_aggregation/util/kokkos</text>
<text text-anchor="middle" x="68" y="-7.5" font-family="Helvetica,sans-Serif" font-size="10.00">_aggregation_util.hpp</text>
</a>
</g>
</g>
<!-- Node1&#45;&gt;Node2 -->
<g id="edge1" class="edge">
<title>Node1&#45;&gt;Node2</title>
<path fill="none" stroke="midnightblue" d="M393.78,-388.03C263.94,-368.37 26,-321.86 26,-245 26,-245 26,-245 26,-165 26,-119.46 45.85,-68.95 58.26,-41.82"/>
<polygon fill="midnightblue" stroke="midnightblue" points="393.29,-391.49 403.7,-389.51 394.33,-384.57 393.29,-391.49"/>
</g>
<!-- Node3 -->
<g id="node3" class="node">
<title>Node3</title>
<g id="a_node3"><a xlink:href="aggregation__executors__and__allocators_8hpp.html" target="_top" xlink:title=" ">
<polygon fill="white" stroke="black" points="274.5,-301.5 274.5,-342.5 447.5,-342.5 447.5,-301.5 274.5,-301.5"/>
<text text-anchor="start" x="282.5" y="-330.5" font-family="Helvetica,sans-Serif" font-size="10.00">include/cppuddle/kernel</text>
<text text-anchor="start" x="282.5" y="-319.5" font-family="Helvetica,sans-Serif" font-size="10.00">_aggregation/detail/aggregation</text>
<text text-anchor="middle" x="361" y="-308.5" font-family="Helvetica,sans-Serif" font-size="10.00">_executors_and_allocators.hpp</text>
</a>
</g>
</g>
<!-- Node1&#45;&gt;Node3 -->
<g id="edge2" class="edge">
<title>Node1&#45;&gt;Node3</title>
<path fill="none" stroke="midnightblue" d="M437.62,-373.64C422.26,-363.49 404.85,-351.98 390.51,-342.51"/>
<polygon fill="midnightblue" stroke="midnightblue" points="436.11,-376.83 446.38,-379.43 439.97,-370.99 436.11,-376.83"/>
</g>
<!-- Node9 -->
<g id="node9" class="node">
<title>Node9</title>
<g id="a_node9"><a xlink:href="work__aggregation__test_8cpp.html" target="_top" xlink:title=" ">
<polygon fill="white" stroke="black" points="483.5,-78.5 483.5,-108.5 614.5,-108.5 614.5,-78.5 483.5,-78.5"/>
<text text-anchor="start" x="491.5" y="-96.5" font-family="Helvetica,sans-Serif" font-size="10.00">tests/work_aggregation</text>
<text text-anchor="middle" x="549" y="-85.5" font-family="Helvetica,sans-Serif" font-size="10.00">_test.cpp</text>
</a>
</g>
</g>
<!-- Node1&#45;&gt;Node9 -->
<g id="edge14" class="edge">
<title>Node1&#45;&gt;Node9</title>
<path fill="none" stroke="midnightblue" d="M481.24,-369.31C484.81,-349.82 489.81,-323.81 495,-301 511.52,-228.37 535.39,-142.49 544.88,-108.94"/>
<polygon fill="midnightblue" stroke="midnightblue" points="477.75,-368.94 479.42,-379.4 484.64,-370.18 477.75,-368.94"/>
</g>
<!-- Node10 -->
<g id="node10" class="node">
<title>Node10</title>
<g id="a_node10"><a xlink:href="stream__manager_8hpp.html" target="_top" xlink:title=" ">
<polygon fill="white" stroke="black" points="504,-312.5 504,-331.5 662,-331.5 662,-312.5 504,-312.5"/>
<text text-anchor="middle" x="583" y="-319.5" font-family="Helvetica,sans-Serif" font-size="10.00">include/stream_manager.hpp</text>
</a>
</g>
</g>
<!-- Node1&#45;&gt;Node10 -->
<g id="edge11" class="edge">
<title>Node1&#45;&gt;Node10</title>
<path fill="none" stroke="midnightblue" d="M511.77,-373.59C532.27,-359.03 556.69,-341.69 570.96,-331.55"/>
<polygon fill="midnightblue" stroke="midnightblue" points="509.68,-370.78 503.56,-379.43 513.73,-376.49 509.68,-370.78"/>
</g>
<!-- Node11 -->
<g id="node11" class="node">
<title>Node11</title>
<g id="a_node11"><a xlink:href="stream__test_8hpp.html" target="_top" xlink:title=" ">
<polygon fill="white" stroke="black" points="680.5,-312.5 680.5,-331.5 803.5,-331.5 803.5,-312.5 680.5,-312.5"/>
<text text-anchor="middle" x="742" y="-319.5" font-family="Helvetica,sans-Serif" font-size="10.00">tests/stream_test.hpp</text>
</a>
</g>
</g>
<!-- Node1&#45;&gt;Node11 -->
<g id="edge12" class="edge">
<title>Node1&#45;&gt;Node11</title>
<path fill="none" stroke="midnightblue" d="M554.21,-376.65C607.13,-361.53 674.08,-342.41 712.07,-331.55"/>
<polygon fill="midnightblue" stroke="midnightblue" points="553.16,-373.32 544.5,-379.43 555.08,-380.05 553.16,-373.32"/>
</g>
<!-- Node4 -->
<g id="node4" class="node">
<title>Node4</title>
<g id="a_node4"><a xlink:href="aggregation__executor__pools_8hpp.html" target="_top" xlink:title=" ">
<polygon fill="white" stroke="black" points="200.5,-223.5 200.5,-264.5 373.5,-264.5 373.5,-223.5 200.5,-223.5"/>
<text text-anchor="start" x="208.5" y="-252.5" font-family="Helvetica,sans-Serif" font-size="10.00">include/cppuddle/kernel</text>
<text text-anchor="start" x="208.5" y="-241.5" font-family="Helvetica,sans-Serif" font-size="10.00">_aggregation/detail/aggregation</text>
<text text-anchor="middle" x="287" y="-230.5" font-family="Helvetica,sans-Serif" font-size="10.00">_executor_pools.hpp</text>
</a>
</g>
</g>
<!-- Node3&#45;&gt;Node4 -->
<g id="edge3" class="edge">
<title>Node3&#45;&gt;Node4</title>
<path fill="none" stroke="midnightblue" d="M334.91,-294.2C325.38,-284.42 314.79,-273.54 305.99,-264.51"/>
<polygon fill="midnightblue" stroke="midnightblue" points="332.46,-296.71 341.94,-301.43 337.47,-291.82 332.46,-296.71"/>
</g>
<!-- Node5 -->
<g id="node5" class="node">
<title>Node5</title>
<g id="a_node5"><a xlink:href="kernel__aggregation__interface_8hpp.html" target="_top" xlink:title=" ">
<polygon fill="white" stroke="black" points="235.5,-145.5 235.5,-186.5 412.5,-186.5 412.5,-145.5 235.5,-145.5"/>
<text text-anchor="start" x="243.5" y="-174.5" font-family="Helvetica,sans-Serif" font-size="10.00">include/cppuddle/kernel</text>
<text text-anchor="start" x="243.5" y="-163.5" font-family="Helvetica,sans-Serif" font-size="10.00">_aggregation/kernel_aggregation</text>
<text text-anchor="middle" x="324" y="-152.5" font-family="Helvetica,sans-Serif" font-size="10.00">_interface.hpp</text>
</a>
</g>
</g>
<!-- Node3&#45;&gt;Node5 -->
<g id="edge10" class="edge">
<title>Node3&#45;&gt;Node5</title>
<path fill="none" stroke="midnightblue" d="M376.19,-291.97C384.51,-271.99 391.41,-245.16 382,-223 375.87,-208.57 364.01,-196.05 352.59,-186.53"/>
<polygon fill="midnightblue" stroke="midnightblue" points="372.96,-290.63 372.05,-301.18 379.34,-293.49 372.96,-290.63"/>
</g>
<!-- Node4&#45;&gt;Node5 -->
<g id="edge4" class="edge">
<title>Node4&#45;&gt;Node5</title>
<path fill="none" stroke="midnightblue" d="M301.03,-214.17C305.53,-204.93 310.41,-194.92 314.5,-186.51"/>
<polygon fill="midnightblue" stroke="midnightblue" points="297.76,-212.9 296.53,-223.43 304.05,-215.97 297.76,-212.9"/>
</g>
<!-- Node6 -->
<g id="node6" class="node">
<title>Node6</title>
<g id="a_node6"><a xlink:href="aggregation__manager_8hpp.html" target="_top" xlink:title=" ">
<polygon fill="white" stroke="black" points="54.5,-78.5 54.5,-108.5 167.5,-108.5 167.5,-78.5 54.5,-78.5"/>
<text text-anchor="start" x="62.5" y="-96.5" font-family="Helvetica,sans-Serif" font-size="10.00">include/aggregation</text>
<text text-anchor="middle" x="111" y="-85.5" font-family="Helvetica,sans-Serif" font-size="10.00">_manager.hpp</text>
</a>
</g>
</g>
<!-- Node5&#45;&gt;Node6 -->
<g id="edge5" class="edge">
<title>Node5&#45;&gt;Node6</title>
<path fill="none" stroke="midnightblue" d="M255.23,-142.24C221.79,-131.17 182.65,-118.22 153.59,-108.6"/>
<polygon fill="midnightblue" stroke="midnightblue" points="254.36,-145.64 264.95,-145.46 256.56,-138.99 254.36,-145.64"/>
</g>
<!-- Node7 -->
<g id="node7" class="node">
<title>Node7</title>
<g id="a_node7"><a xlink:href="work__aggregation__cpu__triad_8cpp.html" target="_top" xlink:title=" ">
<polygon fill="white" stroke="black" points="185.5,-78.5 185.5,-108.5 316.5,-108.5 316.5,-78.5 185.5,-78.5"/>
<text text-anchor="start" x="193.5" y="-96.5" font-family="Helvetica,sans-Serif" font-size="10.00">tests/work_aggregation</text>
<text text-anchor="middle" x="251" y="-85.5" font-family="Helvetica,sans-Serif" font-size="10.00">_cpu_triad.cpp</text>
</a>
</g>
</g>
<!-- Node5&#45;&gt;Node7 -->
<g id="edge7" class="edge">
<title>Node5&#45;&gt;Node7</title>
<path fill="none" stroke="midnightblue" d="M296.36,-138.31C286.02,-128.32 274.66,-117.35 265.9,-108.89"/>
<polygon fill="midnightblue" stroke="midnightblue" points="294.04,-140.93 303.67,-145.36 298.9,-135.9 294.04,-140.93"/>
</g>
<!-- Node8 -->
<g id="node8" class="node">
<title>Node8</title>
<g id="a_node8"><a xlink:href="work__aggregation__cuda__triad_8cpp.html" target="_top" xlink:title=" ">
<polygon fill="white" stroke="black" points="334.5,-78.5 334.5,-108.5 465.5,-108.5 465.5,-78.5 334.5,-78.5"/>
<text text-anchor="start" x="342.5" y="-96.5" font-family="Helvetica,sans-Serif" font-size="10.00">tests/work_aggregation</text>
<text text-anchor="middle" x="400" y="-85.5" font-family="Helvetica,sans-Serif" font-size="10.00">_cuda_triad.cpp</text>
</a>
</g>
</g>
<!-- Node5&#45;&gt;Node8 -->
<g id="edge8" class="edge">
<title>Node5&#45;&gt;Node8</title>
<path fill="none" stroke="midnightblue" d="M352.77,-138.31C363.54,-128.32 375.36,-117.35 384.49,-108.89"/>
<polygon fill="midnightblue" stroke="midnightblue" points="350.12,-135.99 345.17,-145.36 354.88,-141.13 350.12,-135.99"/>
</g>
<!-- Node5&#45;&gt;Node9 -->
<g id="edge9" class="edge">
<title>Node5&#45;&gt;Node9</title>
<path fill="none" stroke="midnightblue" d="M396.19,-142.38C431.61,-131.28 473.18,-118.26 504.01,-108.6"/>
<polygon fill="midnightblue" stroke="midnightblue" points="394.87,-139.13 386.38,-145.46 396.97,-145.81 394.87,-139.13"/>
</g>
<!-- Node6&#45;&gt;Node2 -->
<g id="edge6" class="edge">
<title>Node6&#45;&gt;Node2</title>
<path fill="none" stroke="midnightblue" d="M97.09,-69.7C91.56,-60.63 85.27,-50.31 79.95,-41.59"/>
<polygon fill="midnightblue" stroke="midnightblue" points="94.1,-71.52 102.3,-78.23 100.08,-67.87 94.1,-71.52"/>
</g>
<!-- Node12 -->
<g id="node12" class="node">
<title>Node12</title>
<g id="a_node12"><a xlink:href="stream__test_8cpp.html" target="_top" xlink:title=" ">
<polygon fill="white" stroke="black" points="681,-234.5 681,-253.5 803,-253.5 803,-234.5 681,-234.5"/>
<text text-anchor="middle" x="742" y="-241.5" font-family="Helvetica,sans-Serif" font-size="10.00">tests/stream_test.cpp</text>
</a>
</g>
</g>
<!-- Node11&#45;&gt;Node12 -->
<g id="edge13" class="edge">
<title>Node11&#45;&gt;Node12</title>
<path fill="none" stroke="midnightblue" d="M742,-302.22C742,-286.7 742,-265.36 742,-253.62"/>
<polygon fill="midnightblue" stroke="midnightblue" points="738.5,-302.28 742,-312.28 745.5,-302.28 738.5,-302.28"/>
</g>
</g>
</svg>
