<?xml version="1.0" encoding="UTF-8" standalone="no"?>
<!DOCTYPE svg PUBLIC "-//W3C//DTD SVG 1.1//EN"
 "http://www.w3.org/Graphics/SVG/1.1/DTD/svg11.dtd">
<!-- Generated by graphviz version 2.43.0 (0)
 -->
<!-- Title: include/cppuddle/memory_recycling/detail/hip_underlying_allocators.hpp Pages: 1 -->
<svg width="210pt" height="269pt"
 viewBox="0.00 0.00 210.00 269.00" xmlns="http://www.w3.org/2000/svg" xmlns:xlink="http://www.w3.org/1999/xlink">

<svg id="main" version="1.1" xmlns="http://www.w3.org/2000/svg" xmlns:xlink="http://www.w3.org/1999/xlink" xml:space="preserve" onload="init(evt)">
<style type="text/css"><![CDATA[
.node, .edge {opacity: 0.7;}
.node.selected, .edge.selected {opacity: 1;}
.edge:hover path { stroke: red; }
.edge:hover polygon { stroke: red; fill: red; }
]]></style>
<script type="application/ecmascript" xlink:href="svg.min.js"/>
<svg id="graph" class="graph">
<g id="graph0" class="graph" transform="scale(1 1) rotate(0) translate(4 265)">
<title>include/cppuddle/memory_recycling/detail/hip_underlying_allocators.hpp</title>
<!-- Node1 -->
<g id="Node000001" class="node">
<title>Node1</title>
<g id="a_Node000001"><a xlink:title=" ">
<polygon fill="#999999" stroke="#666666" points="202,-261 54,-261 54,-220 202,-220 202,-261"/>
<text text-anchor="start" x="62" y="-249" font-family="Helvetica,sans-Serif" font-size="10.00">include/cppuddle/memory</text>
<text text-anchor="start" x="62" y="-238" font-family="Helvetica,sans-Serif" font-size="10.00">_recycling/detail/hip</text>
<text text-anchor="middle" x="128" y="-227" font-family="Helvetica,sans-Serif" font-size="10.00">_underlying_allocators.hpp</text>
</a>
</g>
</g>
<!-- Node2 -->
<g id="Node000002" class="node">
<title>Node2</title>
<g id="a_Node000002"><a xlink:href="hip__recycling__allocators_8hpp.html" target="_top" xlink:title=" ">
<polygon fill="white" stroke="#666666" points="199.5,-184 56.5,-184 56.5,-143 199.5,-143 199.5,-184"/>
<text text-anchor="start" x="64.5" y="-172" font-family="Helvetica,sans-Serif" font-size="10.00">include/cppuddle/memory</text>
<text text-anchor="start" x="64.5" y="-161" font-family="Helvetica,sans-Serif" font-size="10.00">_recycling/hip_recycling</text>
<text text-anchor="middle" x="128" y="-150" font-family="Helvetica,sans-Serif" font-size="10.00">_allocators.hpp</text>
</a>
</g>
</g>
<!-- Node1&#45;&gt;Node2 -->
<g id="edge1_Node000001_Node000002" class="edge">
<title>Node1&#45;&gt;Node2</title>
<g id="a_edge1_Node000001_Node000002"><a xlink:title=" ">
<path fill="none" stroke="#63b8ff" d="M128,-209.69C128,-201.08 128,-191.9 128,-184.07"/>
<polygon fill="#63b8ff" stroke="#63b8ff" points="124.5,-209.79 128,-219.79 131.5,-209.79 124.5,-209.79"/>
</a>
</g>
</g>
<!-- Node3 -->
<g id="Node000003" class="node">
<title>Node3</title>
<g id="a_Node000003"><a xlink:href="hip__recycling__device__buffer_8hpp.html" target="_top" xlink:title=" ">
<polygon fill="white" stroke="#666666" points="152,-107 0,-107 0,-66 152,-66 152,-107"/>
<text text-anchor="start" x="8" y="-95" font-family="Helvetica,sans-Serif" font-size="10.00">include/cppuddle/memory</text>
<text text-anchor="start" x="8" y="-84" font-family="Helvetica,sans-Serif" font-size="10.00">_recycling/util/hip_recycling</text>
<text text-anchor="middle" x="76" y="-73" font-family="Helvetica,sans-Serif" font-size="10.00">_device_buffer.hpp</text>
</a>
</g>
</g>
<!-- Node2&#45;&gt;Node3 -->
<g id="edge2_Node000002_Node000003" class="edge">
<title>Node2&#45;&gt;Node3</title>
<g id="a_edge2_Node000002_Node000003"><a xlink:title=" ">
<path fill="none" stroke="#63b8ff" d="M108.51,-134.39C102.2,-125.3 95.35,-115.41 89.57,-107.07"/>
<polygon fill="#63b8ff" stroke="#63b8ff" points="105.76,-136.57 114.34,-142.79 111.52,-132.58 105.76,-136.57"/>
</a>
</g>
</g>
<!-- Node4 -->
<g id="Node000004" class="node">
<title>Node4</title>
<g id="a_Node000004"><a xlink:href="hip__buffer__util_8hpp.html" target="_top" xlink:title=" ">
<polygon fill="white" stroke="#666666" points="180,-30 76,-30 76,0 180,0 180,-30"/>
<text text-anchor="start" x="84" y="-18" font-family="Helvetica,sans-Serif" font-size="10.00">include/hip_buffer</text>
<text text-anchor="middle" x="128" y="-7" font-family="Helvetica,sans-Serif" font-size="10.00">_util.hpp</text>
</a>
</g>
</g>
<!-- Node2&#45;&gt;Node4 -->
<g id="edge4_Node000002_Node000004" class="edge">
<title>Node2&#45;&gt;Node4</title>
<g id="a_edge4_Node000002_Node000004"><a xlink:title=" ">
<path fill="none" stroke="#63b8ff" d="M148.71,-134.28C153.73,-125.91 158.4,-116.45 161,-107 165.83,-89.43 166.24,-83.45 161,-66 156.99,-52.65 148.14,-39.58 140.61,-30.15"/>
<polygon fill="#63b8ff" stroke="#63b8ff" points="145.65,-132.57 143.2,-142.88 151.54,-136.35 145.65,-132.57"/>
</a>
</g>
</g>
<!-- Node3&#45;&gt;Node4 -->
<g id="edge3_Node000003_Node000004" class="edge">
<title>Node3&#45;&gt;Node4</title>
<g id="a_edge3_Node000003_Node000004"><a xlink:title=" ">
<path fill="none" stroke="#63b8ff" d="M96.81,-57.69C103.91,-48.19 111.55,-37.98 117.5,-30.04"/>
<polygon fill="#63b8ff" stroke="#63b8ff" points="93.95,-55.67 90.76,-65.77 99.56,-59.86 93.95,-55.67"/>
</a>
</g>
</g>
</g>
</svg>
</svg>

<style type='text/css'>
<![CDATA[
[data-mouse-over-selected='false'] { opacity: 0.7; }
[data-mouse-over-selected='true']  { opacity: 1.0; }
]]>
</style>
<script type="application/ecmascript"><![CDATA[
document.addEventListener('DOMContentLoaded', (event) => {
  highlightEdges();
  highlightAdjacentNodes();
});
]]></script>
</svg>
