<?xml version="1.0" encoding="UTF-8" standalone="no"?>
<!DOCTYPE svg PUBLIC "-//W3C//DTD SVG 1.1//EN"
 "http://www.w3.org/Graphics/SVG/1.1/DTD/svg11.dtd">
<!-- Generated by graphviz version 2.43.0 (0)
 -->
<!-- Title: include/hip_buffer_util.hpp Pages: 1 -->
<svg width="989pt" height="419pt"
 viewBox="0.00 0.00 988.50 419.00" xmlns="http://www.w3.org/2000/svg" xmlns:xlink="http://www.w3.org/1999/xlink">
<g id="graph0" class="graph" transform="scale(1 1) rotate(0) translate(4 415)">
<title>include/hip_buffer_util.hpp</title>
<polygon fill="white" stroke="transparent" points="-4,4 -4,-415 984.5,-415 984.5,4 -4,4"/>
<!-- Node1 -->
<g id="node1" class="node">
<title>Node1</title>
<g id="a_node1"><a xlink:title=" ">
<polygon fill="#bfbfbf" stroke="black" points="479,-380.5 479,-410.5 583,-410.5 583,-380.5 479,-380.5"/>
<text text-anchor="start" x="487" y="-398.5" font-family="Helvetica,sans-Serif" font-size="10.00">include/hip_buffer</text>
<text text-anchor="middle" x="531" y="-387.5" font-family="Helvetica,sans-Serif" font-size="10.00">_util.hpp</text>
</a>
</g>
</g>
<!-- Node2 -->
<g id="node2" class="node">
<title>Node2</title>
<g id="a_node2"><a xlink:href="hip__recycling__allocators_8hpp.html" target="_top" xlink:title=" ">
<polygon fill="white" stroke="black" points="452,-235.5 452,-265.5 610,-265.5 610,-235.5 452,-235.5"/>
<text text-anchor="start" x="460" y="-253.5" font-family="Helvetica,sans-Serif" font-size="10.00">cppuddle/memory_recycling</text>
<text text-anchor="middle" x="531" y="-242.5" font-family="Helvetica,sans-Serif" font-size="10.00">/hip_recycling_allocators.hpp</text>
</a>
</g>
</g>
<!-- Node1&#45;&gt;Node2 -->
<g id="edge1" class="edge">
<title>Node1&#45;&gt;Node2</title>
<path fill="none" stroke="midnightblue" d="M518.01,-380.25C510.26,-370.75 501.14,-357.55 497,-344 491.55,-326.15 491.55,-319.85 497,-302 500.07,-291.95 505.88,-282.08 511.85,-273.78"/>
<polygon fill="midnightblue" stroke="midnightblue" points="514.7,-275.81 518.01,-265.75 509.15,-271.55 514.7,-275.81"/>
</g>
<!-- Node20 -->
<g id="node20" class="node">
<title>Node20</title>
<g id="a_node20"><a xlink:href="hip__recycling__device__buffer_8hpp.html" target="_top" xlink:title=" ">
<polygon fill="white" stroke="black" points="506.5,-302.5 506.5,-343.5 661.5,-343.5 661.5,-302.5 506.5,-302.5"/>
<text text-anchor="start" x="514.5" y="-331.5" font-family="Helvetica,sans-Serif" font-size="10.00">cppuddle/memory_recycling</text>
<text text-anchor="start" x="514.5" y="-320.5" font-family="Helvetica,sans-Serif" font-size="10.00">/util/hip_recycling_device</text>
<text text-anchor="middle" x="584" y="-309.5" font-family="Helvetica,sans-Serif" font-size="10.00">_buffer.hpp</text>
</a>
</g>
</g>
<!-- Node1&#45;&gt;Node20 -->
<g id="edge21" class="edge">
<title>Node1&#45;&gt;Node20</title>
<path fill="none" stroke="midnightblue" d="M541.73,-380.23C547.85,-372.08 555.75,-361.57 563.06,-351.85"/>
<polygon fill="midnightblue" stroke="midnightblue" points="566.06,-353.68 569.27,-343.59 560.47,-349.48 566.06,-353.68"/>
</g>
<!-- Node3 -->
<g id="node3" class="node">
<title>Node3</title>
<g id="a_node3"><a xlink:href="buffer__management__interface_8hpp.html" target="_top" xlink:title=" ">
<polygon fill="white" stroke="black" points="353.5,-174 353.5,-193 538.5,-193 538.5,-174 353.5,-174"/>
<text text-anchor="middle" x="446" y="-181" font-family="Helvetica,sans-Serif" font-size="10.00">buffer_management_interface.hpp</text>
</a>
</g>
</g>
<!-- Node2&#45;&gt;Node3 -->
<g id="edge2" class="edge">
<title>Node2&#45;&gt;Node3</title>
<path fill="none" stroke="midnightblue" d="M512.56,-235.4C498.65,-224.76 479.61,-210.2 465.46,-199.38"/>
<polygon fill="midnightblue" stroke="midnightblue" points="467.44,-196.49 457.37,-193.19 463.19,-202.05 467.44,-196.49"/>
</g>
<!-- Node17 -->
<g id="node17" class="node">
<title>Node17</title>
<g id="a_node17"><a xlink:href="hip__underlying__allocators_8hpp.html" target="_top" xlink:title=" ">
<polygon fill="white" stroke="black" points="578.5,-168.5 578.5,-198.5 697.5,-198.5 697.5,-168.5 578.5,-168.5"/>
<text text-anchor="start" x="586.5" y="-186.5" font-family="Helvetica,sans-Serif" font-size="10.00">detail/hip_underlying</text>
<text text-anchor="middle" x="638" y="-175.5" font-family="Helvetica,sans-Serif" font-size="10.00">_allocators.hpp</text>
</a>
</g>
</g>
<!-- Node2&#45;&gt;Node17 -->
<g id="edge17" class="edge">
<title>Node2&#45;&gt;Node17</title>
<path fill="none" stroke="midnightblue" d="M554.22,-235.4C569.36,-226.2 589.33,-214.07 605.97,-203.95"/>
<polygon fill="midnightblue" stroke="midnightblue" points="608.1,-206.76 614.83,-198.58 604.46,-200.78 608.1,-206.76"/>
</g>
<!-- Node4 -->
<g id="node4" class="node">
<title>Node4</title>
<g id="a_node4"><a xlink:href="buffer__management_8hpp.html" target="_top" xlink:title=" ">
<polygon fill="white" stroke="black" points="352.5,-112.5 352.5,-131.5 519.5,-131.5 519.5,-112.5 352.5,-112.5"/>
<text text-anchor="middle" x="436" y="-119.5" font-family="Helvetica,sans-Serif" font-size="10.00">detail/buffer_management.hpp</text>
</a>
</g>
</g>
<!-- Node3&#45;&gt;Node4 -->
<g id="edge3" class="edge">
<title>Node3&#45;&gt;Node4</title>
<path fill="none" stroke="midnightblue" d="M444.57,-173.98C443.16,-165.58 440.95,-152.48 439.14,-141.66"/>
<polygon fill="midnightblue" stroke="midnightblue" points="442.54,-140.79 437.43,-131.51 435.64,-141.95 442.54,-140.79"/>
</g>
<!-- Node5 -->
<g id="node5" class="node">
<title>Node5</title>
<g id="a_node5"><a xlink:title=" ">
<polygon fill="white" stroke="#bfbfbf" points="0,-56.5 0,-75.5 50,-75.5 50,-56.5 0,-56.5"/>
<text text-anchor="middle" x="25" y="-63.5" font-family="Helvetica,sans-Serif" font-size="10.00">atomic</text>
</a>
</g>
</g>
<!-- Node4&#45;&gt;Node5 -->
<g id="edge4" class="edge">
<title>Node4&#45;&gt;Node5</title>
<path fill="none" stroke="midnightblue" d="M352.38,-114.4C277.96,-107.75 166.05,-95.86 60.07,-75.97"/>
<polygon fill="midnightblue" stroke="midnightblue" points="60.64,-72.51 50.16,-74.08 59.33,-79.39 60.64,-72.51"/>
</g>
<!-- Node6 -->
<g id="node6" class="node">
<title>Node6</title>
<g id="a_node6"><a xlink:title=" ">
<polygon fill="white" stroke="#bfbfbf" points="68,-56.5 68,-75.5 120,-75.5 120,-56.5 68,-56.5"/>
<text text-anchor="middle" x="94" y="-63.5" font-family="Helvetica,sans-Serif" font-size="10.00">cassert</text>
</a>
</g>
</g>
<!-- Node4&#45;&gt;Node6 -->
<g id="edge5" class="edge">
<title>Node4&#45;&gt;Node6</title>
<path fill="none" stroke="midnightblue" d="M362.74,-112.48C302.62,-104.98 215.13,-92.91 130.12,-76.05"/>
<polygon fill="midnightblue" stroke="midnightblue" points="130.8,-72.62 120.3,-74.08 129.42,-79.48 130.8,-72.62"/>
</g>
<!-- Node7 -->
<g id="node7" class="node">
<title>Node7</title>
<g id="a_node7"><a xlink:title=" ">
<polygon fill="white" stroke="#bfbfbf" points="138.5,-56.5 138.5,-75.5 203.5,-75.5 203.5,-56.5 138.5,-56.5"/>
<text text-anchor="middle" x="171" y="-63.5" font-family="Helvetica,sans-Serif" font-size="10.00">functional</text>
</a>
</g>
</g>
<!-- Node4&#45;&gt;Node7 -->
<g id="edge6" class="edge">
<title>Node4&#45;&gt;Node7</title>
<path fill="none" stroke="midnightblue" d="M392.8,-112.44C349.96,-103.92 282.18,-90.34 213.66,-76.12"/>
<polygon fill="midnightblue" stroke="midnightblue" points="214.05,-72.62 203.55,-74.02 212.63,-79.48 214.05,-72.62"/>
</g>
<!-- Node8 -->
<g id="node8" class="node">
<title>Node8</title>
<g id="a_node8"><a xlink:title=" ">
<polygon fill="white" stroke="#bfbfbf" points="222,-56.5 222,-75.5 282,-75.5 282,-56.5 222,-56.5"/>
<text text-anchor="middle" x="252" y="-63.5" font-family="Helvetica,sans-Serif" font-size="10.00">iostream</text>
</a>
</g>
</g>
<!-- Node4&#45;&gt;Node8 -->
<g id="edge7" class="edge">
<title>Node4&#45;&gt;Node8</title>
<path fill="none" stroke="midnightblue" d="M406.84,-112.44C375.49,-103.24 325.47,-88.56 290.8,-78.39"/>
<polygon fill="midnightblue" stroke="midnightblue" points="291.6,-74.97 281.02,-75.52 289.63,-81.69 291.6,-74.97"/>
</g>
<!-- Node9 -->
<g id="node9" class="node">
<title>Node9</title>
<g id="a_node9"><a xlink:title=" ">
<polygon fill="white" stroke="#bfbfbf" points="300,-56.5 300,-75.5 332,-75.5 332,-56.5 300,-56.5"/>
<text text-anchor="middle" x="316" y="-63.5" font-family="Helvetica,sans-Serif" font-size="10.00">list</text>
</a>
</g>
</g>
<!-- Node4&#45;&gt;Node9 -->
<g id="edge8" class="edge">
<title>Node4&#45;&gt;Node9</title>
<path fill="none" stroke="midnightblue" d="M416.99,-112.44C396.61,-103.27 364.14,-88.66 341.54,-78.5"/>
<polygon fill="midnightblue" stroke="midnightblue" points="342.79,-75.22 332.23,-74.3 339.91,-81.6 342.79,-75.22"/>
</g>
<!-- Node10 -->
<g id="node10" class="node">
<title>Node10</title>
<g id="a_node10"><a xlink:title=" ">
<polygon fill="white" stroke="#bfbfbf" points="350,-56.5 350,-75.5 408,-75.5 408,-56.5 350,-56.5"/>
<text text-anchor="middle" x="379" y="-63.5" font-family="Helvetica,sans-Serif" font-size="10.00">memory</text>
</a>
</g>
</g>
<!-- Node4&#45;&gt;Node10 -->
<g id="edge9" class="edge">
<title>Node4&#45;&gt;Node10</title>
<path fill="none" stroke="midnightblue" d="M426.84,-112.32C418.5,-104.42 405.97,-92.55 395.82,-82.94"/>
<polygon fill="midnightblue" stroke="midnightblue" points="397.99,-80.17 388.32,-75.83 393.18,-85.25 397.99,-80.17"/>
</g>
<!-- Node11 -->
<g id="node11" class="node">
<title>Node11</title>
<g id="a_node11"><a xlink:title=" ">
<polygon fill="white" stroke="#bfbfbf" points="602,-0.5 602,-19.5 650,-19.5 650,-0.5 602,-0.5"/>
<text text-anchor="middle" x="626" y="-7.5" font-family="Helvetica,sans-Serif" font-size="10.00">mutex</text>
</a>
</g>
</g>
<!-- Node4&#45;&gt;Node11 -->
<g id="edge10" class="edge">
<title>Node4&#45;&gt;Node11</title>
<path fill="none" stroke="midnightblue" d="M435.97,-112.5C436.4,-98.65 439.33,-71.25 455,-56 491.7,-20.28 553.18,-12.01 591.56,-10.57"/>
<polygon fill="midnightblue" stroke="midnightblue" points="591.82,-14.07 601.73,-10.34 591.66,-7.07 591.82,-14.07"/>
</g>
<!-- Node12 -->
<g id="node12" class="node">
<title>Node12</title>
<g id="a_node12"><a xlink:title=" ">
<polygon fill="white" stroke="#bfbfbf" points="464,-56.5 464,-75.5 520,-75.5 520,-56.5 464,-56.5"/>
<text text-anchor="middle" x="492" y="-63.5" font-family="Helvetica,sans-Serif" font-size="10.00">optional</text>
</a>
</g>
</g>
<!-- Node4&#45;&gt;Node12 -->
<g id="edge11" class="edge">
<title>Node4&#45;&gt;Node12</title>
<path fill="none" stroke="midnightblue" d="M445,-112.32C453.19,-104.42 465.51,-92.55 475.47,-82.94"/>
<polygon fill="midnightblue" stroke="midnightblue" points="478.07,-85.29 482.84,-75.83 473.21,-80.26 478.07,-85.29"/>
</g>
<!-- Node13 -->
<g id="node13" class="node">
<title>Node13</title>
<g id="a_node13"><a xlink:title=" ">
<polygon fill="white" stroke="#bfbfbf" points="915.5,-56.5 915.5,-75.5 980.5,-75.5 980.5,-56.5 915.5,-56.5"/>
<text text-anchor="middle" x="948" y="-63.5" font-family="Helvetica,sans-Serif" font-size="10.00">stdexcept</text>
</a>
</g>
</g>
<!-- Node4&#45;&gt;Node13 -->
<g id="edge12" class="edge">
<title>Node4&#45;&gt;Node13</title>
<path fill="none" stroke="midnightblue" d="M519.75,-114.16C629.81,-104.97 818.34,-88.5 905,-75.95"/>
<polygon fill="midnightblue" stroke="midnightblue" points="905.68,-79.38 915.05,-74.44 904.64,-72.46 905.68,-79.38"/>
</g>
<!-- Node14 -->
<g id="node14" class="node">
<title>Node14</title>
<g id="a_node14"><a xlink:title=" ">
<polygon fill="white" stroke="#bfbfbf" points="538.5,-56.5 538.5,-75.5 607.5,-75.5 607.5,-56.5 538.5,-56.5"/>
<text text-anchor="middle" x="573" y="-63.5" font-family="Helvetica,sans-Serif" font-size="10.00">type_traits</text>
</a>
</g>
</g>
<!-- Node4&#45;&gt;Node14 -->
<g id="edge13" class="edge">
<title>Node4&#45;&gt;Node14</title>
<path fill="none" stroke="midnightblue" d="M457.71,-112.44C480.35,-103.52 516.07,-89.44 541.75,-79.32"/>
<polygon fill="midnightblue" stroke="midnightblue" points="543.37,-82.44 551.39,-75.52 540.81,-75.93 543.37,-82.44"/>
</g>
<!-- Node15 -->
<g id="node15" class="node">
<title>Node15</title>
<g id="a_node15"><a xlink:title=" ">
<polygon fill="white" stroke="#bfbfbf" points="625.5,-56.5 625.5,-75.5 718.5,-75.5 718.5,-56.5 625.5,-56.5"/>
<text text-anchor="middle" x="672" y="-63.5" font-family="Helvetica,sans-Serif" font-size="10.00">unordered_map</text>
</a>
</g>
</g>
<!-- Node4&#45;&gt;Node15 -->
<g id="edge14" class="edge">
<title>Node4&#45;&gt;Node15</title>
<path fill="none" stroke="midnightblue" d="M473.39,-112.44C514.39,-103.06 580.25,-87.99 624.78,-77.8"/>
<polygon fill="midnightblue" stroke="midnightblue" points="625.81,-81.16 634.78,-75.52 624.25,-74.34 625.81,-81.16"/>
</g>
<!-- Node16 -->
<g id="node16" class="node">
<title>Node16</title>
<g id="a_node16"><a xlink:href="config_8hpp.html" target="_top" xlink:title=" ">
<polygon fill="white" stroke="black" points="737,-56.5 737,-75.5 897,-75.5 897,-56.5 737,-56.5"/>
<text text-anchor="middle" x="817" y="-63.5" font-family="Helvetica,sans-Serif" font-size="10.00">cppuddle/common/config.hpp</text>
</a>
</g>
</g>
<!-- Node4&#45;&gt;Node16 -->
<g id="edge15" class="edge">
<title>Node4&#45;&gt;Node16</title>
<path fill="none" stroke="midnightblue" d="M496.37,-112.44C564.37,-102.81 674.74,-87.16 746.6,-76.98"/>
<polygon fill="midnightblue" stroke="midnightblue" points="747.5,-80.39 756.91,-75.52 746.52,-73.45 747.5,-80.39"/>
</g>
<!-- Node16&#45;&gt;Node11 -->
<g id="edge16" class="edge">
<title>Node16&#45;&gt;Node11</title>
<path fill="none" stroke="midnightblue" d="M786.74,-56.44C752.27,-46.7 696.09,-30.82 660.1,-20.64"/>
<polygon fill="midnightblue" stroke="midnightblue" points="660.65,-17.16 650.08,-17.81 658.75,-23.9 660.65,-17.16"/>
</g>
<!-- Node17&#45;&gt;Node13 -->
<g id="edge19" class="edge">
<title>Node17&#45;&gt;Node13</title>
<path fill="none" stroke="midnightblue" d="M620.93,-168.33C604.7,-153.18 584.85,-129.04 600,-112 643.63,-62.93 822.87,-85.15 905.45,-75.68"/>
<polygon fill="midnightblue" stroke="midnightblue" points="906.08,-79.12 915.5,-74.28 905.11,-72.19 906.08,-79.12"/>
</g>
<!-- Node18 -->
<g id="node18" class="node">
<title>Node18</title>
<g id="a_node18"><a xlink:title=" ">
<polygon fill="white" stroke="#bfbfbf" points="609,-112.5 609,-131.5 711,-131.5 711,-112.5 609,-112.5"/>
<text text-anchor="middle" x="660" y="-119.5" font-family="Helvetica,sans-Serif" font-size="10.00">hip/hip_runtime.h</text>
</a>
</g>
</g>
<!-- Node17&#45;&gt;Node18 -->
<g id="edge18" class="edge">
<title>Node17&#45;&gt;Node18</title>
<path fill="none" stroke="midnightblue" d="M643.21,-168.4C646.21,-160.29 650.01,-150.01 653.24,-141.28"/>
<polygon fill="midnightblue" stroke="midnightblue" points="656.61,-142.25 656.8,-131.66 650.05,-139.82 656.61,-142.25"/>
</g>
<!-- Node19 -->
<g id="node19" class="node">
<title>Node19</title>
<g id="a_node19"><a xlink:title=" ">
<polygon fill="white" stroke="#bfbfbf" points="729,-112.5 729,-131.5 773,-131.5 773,-112.5 729,-112.5"/>
<text text-anchor="middle" x="751" y="-119.5" font-family="Helvetica,sans-Serif" font-size="10.00">string</text>
</a>
</g>
</g>
<!-- Node17&#45;&gt;Node19 -->
<g id="edge20" class="edge">
<title>Node17&#45;&gt;Node19</title>
<path fill="none" stroke="midnightblue" d="M664.78,-168.4C683.06,-158.77 707.15,-146.09 725.21,-136.58"/>
<polygon fill="midnightblue" stroke="midnightblue" points="727.34,-139.41 734.56,-131.66 724.08,-133.22 727.34,-139.41"/>
</g>
<!-- Node20&#45;&gt;Node2 -->
<g id="edge22" class="edge">
<title>Node20&#45;&gt;Node2</title>
<path fill="none" stroke="midnightblue" d="M569.24,-302.36C562.64,-293.59 554.84,-283.21 548,-274.12"/>
<polygon fill="midnightblue" stroke="midnightblue" points="550.63,-271.78 541.82,-265.89 545.03,-275.99 550.63,-271.78"/>
</g>
</g>
</svg>
