<?xml version="1.0" encoding="UTF-8" standalone="no"?>
<!DOCTYPE svg PUBLIC "-//W3C//DTD SVG 1.1//EN"
 "http://www.w3.org/Graphics/SVG/1.1/DTD/svg11.dtd">
<!-- Generated by graphviz version 2.43.0 (0)
 -->
<!-- Title: Graphical Class Hierarchy Pages: 1 -->
<svg width="263pt" height="108pt"
 viewBox="0.00 0.00 263.00 108.00" xmlns="http://www.w3.org/2000/svg" xmlns:xlink="http://www.w3.org/1999/xlink">
<g id="graph0" class="graph" transform="scale(1 1) rotate(0) translate(4 104)">
<title>Graphical Class Hierarchy</title>
<!-- Node0 -->
<g id="Node000000" class="node">
<title>Node0</title>
<g id="a_Node000000"><a xlink:title=" ">
<polygon fill="#e0e0e0" stroke="#999999" points="84,-59 0,-59 0,-40 84,-40 84,-59"/>
<text text-anchor="middle" x="42" y="-47" font-family="Helvetica,sans-Serif" font-size="10.00">std::true_type</text>
</a>
</g>
</g>
<!-- Node1 -->
<g id="Node000001" class="node">
<title>Node1</title>
<g id="a_Node000001"><a xlink:href="structhpx_1_1parallel_1_1execution_1_1is__one__way__executor_3_01Dummy__Executor_01_4.html" target="_top" xlink:title=" ">
<polygon fill="white" stroke="#666666" points="255,-100 120,-100 120,-59 255,-59 255,-100"/>
<text text-anchor="start" x="128" y="-88" font-family="Helvetica,sans-Serif" font-size="10.00">hpx::parallel::execution</text>
<text text-anchor="start" x="128" y="-77" font-family="Helvetica,sans-Serif" font-size="10.00">::is_one_way_executor&lt;</text>
<text text-anchor="middle" x="187.5" y="-66" font-family="Helvetica,sans-Serif" font-size="10.00"> Dummy_Executor &gt;</text>
</a>
</g>
</g>
<!-- Node0&#45;&gt;Node1 -->
<g id="edge3_Node000000_Node000001" class="edge">
<title>Node0&#45;&gt;Node1</title>
<g id="a_edge3_Node000000_Node000001"><a xlink:title=" ">
<path fill="none" stroke="#63b8ff" d="M94.09,-60.18C102.46,-61.93 111.23,-63.76 119.91,-65.58"/>
<polygon fill="#63b8ff" stroke="#63b8ff" points="94.63,-56.72 84.12,-58.1 93.19,-63.57 94.63,-56.72"/>
</a>
</g>
</g>
<!-- Node2 -->
<g id="Node000002" class="node">
<title>Node2</title>
<g id="a_Node000002"><a xlink:href="structhpx_1_1parallel_1_1execution_1_1is__two__way__executor_3_01Dummy__Executor_01_4.html" target="_top" xlink:title=" ">
<polygon fill="white" stroke="#666666" points="255,-41 120,-41 120,0 255,0 255,-41"/>
<text text-anchor="start" x="128" y="-29" font-family="Helvetica,sans-Serif" font-size="10.00">hpx::parallel::execution</text>
<text text-anchor="start" x="128" y="-18" font-family="Helvetica,sans-Serif" font-size="10.00">::is_two_way_executor&lt;</text>
<text text-anchor="middle" x="187.5" y="-7" font-family="Helvetica,sans-Serif" font-size="10.00"> Dummy_Executor &gt;</text>
</a>
</g>
</g>
<!-- Node0&#45;&gt;Node2 -->
<g id="edge4_Node000000_Node000002" class="edge">
<title>Node0&#45;&gt;Node2</title>
<g id="a_edge4_Node000000_Node000002"><a xlink:title=" ">
<path fill="none" stroke="#63b8ff" d="M94.09,-39.18C102.46,-37.48 111.23,-35.71 119.91,-33.96"/>
<polygon fill="#63b8ff" stroke="#63b8ff" points="93.23,-35.78 84.12,-41.19 94.62,-42.64 93.23,-35.78"/>
</a>
</g>
</g>
</g>
</svg>
