<?xml version="1.0" encoding="UTF-8" standalone="no"?>
<!DOCTYPE svg PUBLIC "-//W3C//DTD SVG 1.1//EN"
 "http://www.w3.org/Graphics/SVG/1.1/DTD/svg11.dtd">
<!-- Generated by graphviz version 2.43.0 (0)
 -->
<!-- Title: Graphical Class Hierarchy Pages: 1 -->
<svg width="291pt" height="130pt"
 viewBox="0.00 0.00 291.00 130.00" xmlns="http://www.w3.org/2000/svg" xmlns:xlink="http://www.w3.org/1999/xlink">
<g id="graph0" class="graph" transform="scale(1 1) rotate(0) translate(4 126)">
<title>Graphical Class Hierarchy</title>
<!-- Node0 -->
<g id="Node000000" class="node">
<title>Node0</title>
<g id="a_Node000000"><a xlink:title=" ">
<polygon fill="#e0e0e0" stroke="#999999" points="84,-70.5 0,-70.5 0,-51.5 84,-51.5 84,-70.5"/>
<text text-anchor="middle" x="42" y="-58.5" font-family="Helvetica,sans-Serif" font-size="10.00">std::true_type</text>
</a>
</g>
</g>
<!-- Node1 -->
<g id="Node000001" class="node">
<title>Node1</title>
<g id="a_Node000001"><a xlink:href="structCPPUDDLE__HPX__EXECUTOR__SPECIALIZATION__NS_1_1is__one__way__executor_3_01Dummy__Executor_01_4.html" target="_top" xlink:title=" ">
<polygon fill="white" stroke="#666666" points="283,-122 120,-122 120,-70 283,-70 283,-122"/>
<text text-anchor="start" x="128" y="-110" font-family="Helvetica,sans-Serif" font-size="10.00">CPPUDDLE_HPX_EXECUTOR</text>
<text text-anchor="start" x="128" y="-99" font-family="Helvetica,sans-Serif" font-size="10.00">_SPECIALIZATION_NS::is</text>
<text text-anchor="start" x="128" y="-88" font-family="Helvetica,sans-Serif" font-size="10.00">_one_way_executor&lt; Dummy</text>
<text text-anchor="middle" x="201.5" y="-77" font-family="Helvetica,sans-Serif" font-size="10.00">_Executor &gt;</text>
</a>
</g>
</g>
<!-- Node0&#45;&gt;Node1 -->
<g id="edge3_Node000000_Node000001" class="edge">
<title>Node0&#45;&gt;Node1</title>
<g id="a_edge3_Node000000_Node000001"><a xlink:title=" ">
<path fill="none" stroke="#63b8ff" d="M94.15,-72.37C102.37,-74.19 111.05,-76.12 119.76,-78.06"/>
<polygon fill="#63b8ff" stroke="#63b8ff" points="94.9,-68.95 84.38,-70.2 93.38,-75.78 94.9,-68.95"/>
</a>
</g>
</g>
<!-- Node2 -->
<g id="Node000002" class="node">
<title>Node2</title>
<g id="a_Node000002"><a xlink:href="structCPPUDDLE__HPX__EXECUTOR__SPECIALIZATION__NS_1_1is__two__way__executor_3_01Dummy__Executor_01_4.html" target="_top" xlink:title=" ">
<polygon fill="white" stroke="#666666" points="283,-52 120,-52 120,0 283,0 283,-52"/>
<text text-anchor="start" x="128" y="-40" font-family="Helvetica,sans-Serif" font-size="10.00">CPPUDDLE_HPX_EXECUTOR</text>
<text text-anchor="start" x="128" y="-29" font-family="Helvetica,sans-Serif" font-size="10.00">_SPECIALIZATION_NS::is</text>
<text text-anchor="start" x="128" y="-18" font-family="Helvetica,sans-Serif" font-size="10.00">_two_way_executor&lt; Dummy</text>
<text text-anchor="middle" x="201.5" y="-7" font-family="Helvetica,sans-Serif" font-size="10.00">_Executor &gt;</text>
</a>
</g>
</g>
<!-- Node0&#45;&gt;Node2 -->
<g id="edge4_Node000000_Node000002" class="edge">
<title>Node0&#45;&gt;Node2</title>
<g id="a_edge4_Node000000_Node000002"><a xlink:title=" ">
<path fill="none" stroke="#63b8ff" d="M94.15,-49.63C102.37,-47.81 111.05,-45.88 119.76,-43.94"/>
<polygon fill="#63b8ff" stroke="#63b8ff" points="93.38,-46.22 84.38,-51.8 94.9,-53.05 93.38,-46.22"/>
</a>
</g>
</g>
</g>
</svg>
