<?xml version="1.0" encoding="UTF-8" standalone="no"?>
<!DOCTYPE svg PUBLIC "-//W3C//DTD SVG 1.1//EN"
 "http://www.w3.org/Graphics/SVG/1.1/DTD/svg11.dtd">
<!-- Generated by graphviz version 2.43.0 (0)
 -->
<!-- Title: Graphical Class Hierarchy Pages: 1 -->
<svg width="306pt" height="120pt"
 viewBox="0.00 0.00 306.00 119.50" xmlns="http://www.w3.org/2000/svg" xmlns:xlink="http://www.w3.org/1999/xlink">
<g id="graph0" class="graph" transform="scale(1 1) rotate(0) translate(4 115.5)">
<title>Graphical Class Hierarchy</title>
<!-- Node0 -->
<g id="Node000000" class="node">
<title>Node0</title>
<g id="a_Node000000"><a xlink:title=" ">
<polygon fill="#e0e0e0" stroke="#999999" points="77,-62 0,-62 0,-43 77,-43 77,-62"/>
<text text-anchor="middle" x="38.5" y="-50" font-family="Helvetica,sans-Serif" font-size="10.00">kokkos_type</text>
</a>
</g>
</g>
<!-- Node1 -->
<g id="Node000001" class="node">
<title>Node1</title>
<g id="a_Node000001"><a xlink:href="classcppuddle_1_1memory__recycling_1_1aggregated__recycling__view.html" target="_top" xlink:title=" ">
<polygon fill="white" stroke="#666666" points="284.5,-111.5 126.5,-111.5 126.5,-59.5 284.5,-59.5 284.5,-111.5"/>
<text text-anchor="start" x="134.5" y="-99.5" font-family="Helvetica,sans-Serif" font-size="10.00">cppuddle::memory_recycling</text>
<text text-anchor="start" x="134.5" y="-88.5" font-family="Helvetica,sans-Serif" font-size="10.00">::aggregated_recycling_view</text>
<text text-anchor="start" x="134.5" y="-77.5" font-family="Helvetica,sans-Serif" font-size="10.00">&lt; kokkos_type, alloc_type,</text>
<text text-anchor="middle" x="205.5" y="-66.5" font-family="Helvetica,sans-Serif" font-size="10.00"> element_type &gt;</text>
</a>
</g>
</g>
<!-- Node0&#45;&gt;Node1 -->
<g id="edge1_Node000000_Node000001" class="edge">
<title>Node0&#45;&gt;Node1</title>
<g id="a_edge1_Node000000_Node000001"><a xlink:title=" ">
<path fill="none" stroke="#63b8ff" d="M87.32,-62.06C99.58,-64.52 113.08,-67.22 126.43,-69.89"/>
<polygon fill="#63b8ff" stroke="#63b8ff" points="87.85,-58.6 77.35,-60.07 86.47,-65.46 87.85,-58.6"/>
</a>
</g>
</g>
<!-- Node2 -->
<g id="Node000002" class="node">
<title>Node2</title>
<g id="a_Node000002"><a xlink:href="classcppuddle_1_1memory__recycling_1_1recycling__view.html" target="_top" xlink:title=" ">
<polygon fill="white" stroke="#666666" points="298,-41 113,-41 113,0 298,0 298,-41"/>
<text text-anchor="start" x="121" y="-29" font-family="Helvetica,sans-Serif" font-size="10.00">cppuddle::memory_recycling</text>
<text text-anchor="start" x="121" y="-18" font-family="Helvetica,sans-Serif" font-size="10.00">::recycling_view&lt; kokkos</text>
<text text-anchor="middle" x="205.5" y="-7" font-family="Helvetica,sans-Serif" font-size="10.00">_type, alloc_type, element_type &gt;</text>
</a>
</g>
</g>
<!-- Node0&#45;&gt;Node2 -->
<g id="edge2_Node000000_Node000002" class="edge">
<title>Node0&#45;&gt;Node2</title>
<g id="a_edge2_Node000000_Node000002"><a xlink:title=" ">
<path fill="none" stroke="#63b8ff" d="M87.28,-43.23C95.37,-41.66 104.01,-39.99 112.79,-38.29"/>
<polygon fill="#63b8ff" stroke="#63b8ff" points="86.51,-39.82 77.35,-45.16 87.84,-46.69 86.51,-39.82"/>
</a>
</g>
</g>
</g>
</svg>
