<?xml version="1.0" encoding="UTF-8" standalone="no"?>
<!DOCTYPE svg PUBLIC "-//W3C//DTD SVG 1.1//EN"
 "http://www.w3.org/Graphics/SVG/1.1/DTD/svg11.dtd">
<!-- Generated by graphviz version 2.43.0 (0)
 -->
<!-- Title: Graphical Class Hierarchy Pages: 1 -->
<svg width="306pt" height="122pt"
 viewBox="0.00 0.00 306.00 121.50" xmlns="http://www.w3.org/2000/svg" xmlns:xlink="http://www.w3.org/1999/xlink">
<g id="graph0" class="graph" transform="scale(1 1) rotate(0) translate(4 117.5)">
<title>Graphical Class Hierarchy</title>
<polygon fill="white" stroke="transparent" points="-4,4 -4,-117.5 302,-117.5 302,4 -4,4"/>
<!-- Node19 -->
<g id="node1" class="node">
<title>Node19</title>
<g id="a_node1"><a xlink:title=" ">
<polygon fill="white" stroke="#bfbfbf" points="0,-44.5 0,-63.5 77,-63.5 77,-44.5 0,-44.5"/>
<text text-anchor="middle" x="38.5" y="-51.5" font-family="Helvetica,sans-Serif" font-size="10.00">kokkos_type</text>
</a>
</g>
</g>
<!-- Node0 -->
<g id="node2" class="node">
<title>Node0</title>
<g id="a_node2"><a xlink:href="classcppuddle_1_1memory__recycling_1_1aggregated__recycling__view.html" target="_top" xlink:title=" ">
<polygon fill="white" stroke="black" points="126.5,-61 126.5,-113 284.5,-113 284.5,-61 126.5,-61"/>
<text text-anchor="start" x="134.5" y="-101" font-family="Helvetica,sans-Serif" font-size="10.00">cppuddle::memory_recycling</text>
<text text-anchor="start" x="134.5" y="-90" font-family="Helvetica,sans-Serif" font-size="10.00">::aggregated_recycling_view</text>
<text text-anchor="start" x="134.5" y="-79" font-family="Helvetica,sans-Serif" font-size="10.00">&lt; kokkos_type, alloc_type,</text>
<text text-anchor="middle" x="205.5" y="-68" font-family="Helvetica,sans-Serif" font-size="10.00"> element_type &gt;</text>
</a>
</g>
</g>
<!-- Node19&#45;&gt;Node0 -->
<g id="edge1" class="edge">
<title>Node19&#45;&gt;Node0</title>
<path fill="none" stroke="midnightblue" d="M87.32,-63.56C99.58,-66.02 113.08,-68.72 126.43,-71.39"/>
<polygon fill="midnightblue" stroke="midnightblue" points="87.85,-60.1 77.35,-61.57 86.47,-66.96 87.85,-60.1"/>
</g>
<!-- Node21 -->
<g id="node3" class="node">
<title>Node21</title>
<g id="a_node3"><a xlink:href="classcppuddle_1_1memory__recycling_1_1recycling__view.html" target="_top" xlink:title=" ">
<polygon fill="white" stroke="black" points="113,-0.5 113,-41.5 298,-41.5 298,-0.5 113,-0.5"/>
<text text-anchor="start" x="121" y="-29.5" font-family="Helvetica,sans-Serif" font-size="10.00">cppuddle::memory_recycling</text>
<text text-anchor="start" x="121" y="-18.5" font-family="Helvetica,sans-Serif" font-size="10.00">::recycling_view&lt; kokkos</text>
<text text-anchor="middle" x="205.5" y="-7.5" font-family="Helvetica,sans-Serif" font-size="10.00">_type, alloc_type, element_type &gt;</text>
</a>
</g>
</g>
<!-- Node19&#45;&gt;Node21 -->
<g id="edge2" class="edge">
<title>Node19&#45;&gt;Node21</title>
<path fill="none" stroke="midnightblue" d="M87.28,-44.44C95.37,-42.83 104.01,-41.1 112.79,-39.34"/>
<polygon fill="midnightblue" stroke="midnightblue" points="86.47,-41.04 77.35,-46.43 87.85,-47.9 86.47,-41.04"/>
</g>
</g>
</svg>
