<?xml version="1.0" encoding="UTF-8" standalone="no"?>
<!DOCTYPE svg PUBLIC "-//W3C//DTD SVG 1.1//EN"
 "http://www.w3.org/Graphics/SVG/1.1/DTD/svg11.dtd">
<!-- Generated by graphviz version 2.43.0 (0)
 -->
<!-- Title: Graphical Class Hierarchy Pages: 1 -->
<svg width="263pt" height="110pt"
 viewBox="0.00 0.00 263.00 110.00" xmlns="http://www.w3.org/2000/svg" xmlns:xlink="http://www.w3.org/1999/xlink">
<g id="graph0" class="graph" transform="scale(1 1) rotate(0) translate(4 106)">
<title>Graphical Class Hierarchy</title>
<polygon fill="white" stroke="transparent" points="-4,4 -4,-106 259,-106 259,4 -4,4"/>
<!-- Node35 -->
<g id="node1" class="node">
<title>Node35</title>
<g id="a_node1"><a xlink:title=" ">
<polygon fill="white" stroke="#bfbfbf" points="0,-41.5 0,-60.5 84,-60.5 84,-41.5 0,-41.5"/>
<text text-anchor="middle" x="42" y="-48.5" font-family="Helvetica,sans-Serif" font-size="10.00">std::true_type</text>
</a>
</g>
</g>
<!-- Node0 -->
<g id="node2" class="node">
<title>Node0</title>
<g id="a_node2"><a xlink:href="structhpx_1_1parallel_1_1execution_1_1is__one__way__executor_3_01Dummy__Executor_01_4.html" target="_top" xlink:title=" ">
<polygon fill="white" stroke="black" points="120,-60.5 120,-101.5 255,-101.5 255,-60.5 120,-60.5"/>
<text text-anchor="start" x="128" y="-89.5" font-family="Helvetica,sans-Serif" font-size="10.00">hpx::parallel::execution</text>
<text text-anchor="start" x="128" y="-78.5" font-family="Helvetica,sans-Serif" font-size="10.00">::is_one_way_executor&lt;</text>
<text text-anchor="middle" x="187.5" y="-67.5" font-family="Helvetica,sans-Serif" font-size="10.00"> Dummy_Executor &gt;</text>
</a>
</g>
</g>
<!-- Node35&#45;&gt;Node0 -->
<g id="edge1" class="edge">
<title>Node35&#45;&gt;Node0</title>
<path fill="none" stroke="midnightblue" d="M94.09,-61.68C102.46,-63.43 111.23,-65.26 119.91,-67.08"/>
<polygon fill="midnightblue" stroke="midnightblue" points="94.63,-58.22 84.12,-59.6 93.19,-65.07 94.63,-58.22"/>
</g>
<!-- Node37 -->
<g id="node3" class="node">
<title>Node37</title>
<g id="a_node3"><a xlink:href="structhpx_1_1parallel_1_1execution_1_1is__two__way__executor_3_01Dummy__Executor_01_4.html" target="_top" xlink:title=" ">
<polygon fill="white" stroke="black" points="120,-0.5 120,-41.5 255,-41.5 255,-0.5 120,-0.5"/>
<text text-anchor="start" x="128" y="-29.5" font-family="Helvetica,sans-Serif" font-size="10.00">hpx::parallel::execution</text>
<text text-anchor="start" x="128" y="-18.5" font-family="Helvetica,sans-Serif" font-size="10.00">::is_two_way_executor&lt;</text>
<text text-anchor="middle" x="187.5" y="-7.5" font-family="Helvetica,sans-Serif" font-size="10.00"> Dummy_Executor &gt;</text>
</a>
</g>
</g>
<!-- Node35&#45;&gt;Node37 -->
<g id="edge2" class="edge">
<title>Node35&#45;&gt;Node37</title>
<path fill="none" stroke="midnightblue" d="M94.09,-40.32C102.46,-38.57 111.23,-36.74 119.91,-34.92"/>
<polygon fill="midnightblue" stroke="midnightblue" points="93.19,-36.93 84.12,-42.4 94.63,-43.78 93.19,-36.93"/>
</g>
</g>
</svg>
