<?xml version="1.0" encoding="UTF-8" standalone="no"?>
<!DOCTYPE svg PUBLIC "-//W3C//DTD SVG 1.1//EN"
 "http://www.w3.org/Graphics/SVG/1.1/DTD/svg11.dtd">
<!-- Generated by graphviz version 2.43.0 (0)
 -->
<!-- Title: include/cppuddle/kernel_aggregation/kernel_aggregation_interface.hpp Pages: 1 -->
<svg width="580pt" height="192pt"
 viewBox="0.00 0.00 579.50 192.00" xmlns="http://www.w3.org/2000/svg" xmlns:xlink="http://www.w3.org/1999/xlink">
<g id="graph0" class="graph" transform="scale(1 1) rotate(0) translate(4 188)">
<title>include/cppuddle/kernel_aggregation/kernel_aggregation_interface.hpp</title>
<!-- Node1 -->
<g id="Node000001" class="node">
<title>Node1</title>
<g id="a_Node000001"><a xlink:title=" ">
<polygon fill="#999999" stroke="#666666" points="370.5,-184 193.5,-184 193.5,-143 370.5,-143 370.5,-184"/>
<text text-anchor="start" x="201.5" y="-172" font-family="Helvetica,sans-Serif" font-size="10.00">include/cppuddle/kernel</text>
<text text-anchor="start" x="201.5" y="-161" font-family="Helvetica,sans-Serif" font-size="10.00">_aggregation/kernel_aggregation</text>
<text text-anchor="middle" x="282" y="-150" font-family="Helvetica,sans-Serif" font-size="10.00">_interface.hpp</text>
</a>
</g>
</g>
<!-- Node2 -->
<g id="Node000002" class="node">
<title>Node2</title>
<g id="a_Node000002"><a xlink:href="aggregation__manager_8hpp.html" target="_top" xlink:title=" ">
<polygon fill="white" stroke="#666666" points="124.5,-107 11.5,-107 11.5,-77 124.5,-77 124.5,-107"/>
<text text-anchor="start" x="19.5" y="-95" font-family="Helvetica,sans-Serif" font-size="10.00">include/aggregation</text>
<text text-anchor="middle" x="68" y="-84" font-family="Helvetica,sans-Serif" font-size="10.00">_manager.hpp</text>
</a>
</g>
</g>
<!-- Node1&#45;&gt;Node2 -->
<g id="edge1_Node000001_Node000002" class="edge">
<title>Node1&#45;&gt;Node2</title>
<g id="a_edge1_Node000001_Node000002"><a xlink:title=" ">
<path fill="none" stroke="#63b8ff" d="M212.13,-139.81C178.84,-129 140.06,-116.4 111.12,-107"/>
<polygon fill="#63b8ff" stroke="#63b8ff" points="211.23,-143.2 221.82,-142.96 213.39,-136.54 211.23,-143.2"/>
</a>
</g>
</g>
<!-- Node4 -->
<g id="Node000004" class="node">
<title>Node4</title>
<g id="a_Node000004"><a xlink:href="work__aggregation__cpu__triad_8cpp.html" target="_top" xlink:title=" ">
<polygon fill="white" stroke="#666666" points="273.5,-107 142.5,-107 142.5,-77 273.5,-77 273.5,-107"/>
<text text-anchor="start" x="150.5" y="-95" font-family="Helvetica,sans-Serif" font-size="10.00">tests/work_aggregation</text>
<text text-anchor="middle" x="208" y="-84" font-family="Helvetica,sans-Serif" font-size="10.00">_cpu_triad.cpp</text>
</a>
</g>
</g>
<!-- Node1&#45;&gt;Node4 -->
<g id="edge3_Node000001_Node000004" class="edge">
<title>Node1&#45;&gt;Node4</title>
<g id="a_edge3_Node000001_Node000004"><a xlink:title=" ">
<path fill="none" stroke="#63b8ff" d="M253.61,-135.83C243.16,-126.02 231.74,-115.3 222.95,-107.04"/>
<polygon fill="#63b8ff" stroke="#63b8ff" points="251.31,-138.48 260.99,-142.77 256.1,-133.37 251.31,-138.48"/>
</a>
</g>
</g>
<!-- Node5 -->
<g id="Node000005" class="node">
<title>Node5</title>
<g id="a_Node000005"><a xlink:href="work__aggregation__cuda__triad_8cpp.html" target="_top" xlink:title=" ">
<polygon fill="white" stroke="#666666" points="422.5,-107 291.5,-107 291.5,-77 422.5,-77 422.5,-107"/>
<text text-anchor="start" x="299.5" y="-95" font-family="Helvetica,sans-Serif" font-size="10.00">tests/work_aggregation</text>
<text text-anchor="middle" x="357" y="-84" font-family="Helvetica,sans-Serif" font-size="10.00">_cuda_triad.cpp</text>
</a>
</g>
</g>
<!-- Node1&#45;&gt;Node5 -->
<g id="edge4_Node000001_Node000005" class="edge">
<title>Node1&#45;&gt;Node5</title>
<g id="a_edge4_Node000001_Node000005"><a xlink:title=" ">
<path fill="none" stroke="#63b8ff" d="M310.78,-135.83C321.36,-126.02 332.93,-115.3 341.85,-107.04"/>
<polygon fill="#63b8ff" stroke="#63b8ff" points="308.25,-133.41 303.29,-142.77 313.01,-138.54 308.25,-133.41"/>
</a>
</g>
</g>
<!-- Node6 -->
<g id="Node000006" class="node">
<title>Node6</title>
<g id="a_Node000006"><a xlink:href="work__aggregation__test_8cpp.html" target="_top" xlink:title=" ">
<polygon fill="white" stroke="#666666" points="571.5,-107 440.5,-107 440.5,-77 571.5,-77 571.5,-107"/>
<text text-anchor="start" x="448.5" y="-95" font-family="Helvetica,sans-Serif" font-size="10.00">tests/work_aggregation</text>
<text text-anchor="middle" x="506" y="-84" font-family="Helvetica,sans-Serif" font-size="10.00">_test.cpp</text>
</a>
</g>
</g>
<!-- Node1&#45;&gt;Node6 -->
<g id="edge5_Node000001_Node000006" class="edge">
<title>Node1&#45;&gt;Node6</title>
<g id="a_edge5_Node000001_Node000006"><a xlink:title=" ">
<path fill="none" stroke="#63b8ff" d="M354.68,-139.95C389.64,-129.1 430.44,-116.44 460.87,-107"/>
<polygon fill="#63b8ff" stroke="#63b8ff" points="353.51,-136.65 344.99,-142.96 355.58,-143.33 353.51,-136.65"/>
</a>
</g>
</g>
<!-- Node3 -->
<g id="Node000003" class="node">
<title>Node3</title>
<g id="a_Node000003"><a xlink:href="kokkos__aggregation__util_8hpp.html" target="_top" xlink:title=" ">
<polygon fill="white" stroke="#666666" points="136,-41 0,-41 0,0 136,0 136,-41"/>
<text text-anchor="start" x="8" y="-29" font-family="Helvetica,sans-Serif" font-size="10.00">include/cppuddle/kernel</text>
<text text-anchor="start" x="8" y="-18" font-family="Helvetica,sans-Serif" font-size="10.00">_aggregation/util/kokkos</text>
<text text-anchor="middle" x="68" y="-7" font-family="Helvetica,sans-Serif" font-size="10.00">_aggregation_util.hpp</text>
</a>
</g>
</g>
<!-- Node2&#45;&gt;Node3 -->
<g id="edge2_Node000002_Node000003" class="edge">
<title>Node2&#45;&gt;Node3</title>
<g id="a_edge2_Node000002_Node000003"><a xlink:title=" ">
<path fill="none" stroke="#63b8ff" d="M68,-66.91C68,-58.47 68,-49.1 68,-41.07"/>
<polygon fill="#63b8ff" stroke="#63b8ff" points="64.5,-66.94 68,-76.94 71.5,-66.94 64.5,-66.94"/>
</a>
</g>
</g>
</g>
</svg>
