<?xml version="1.0" encoding="UTF-8" standalone="no"?>
<!DOCTYPE svg PUBLIC "-//W3C//DTD SVG 1.1//EN"
 "http://www.w3.org/Graphics/SVG/1.1/DTD/svg11.dtd">
<!-- Generated by graphviz version 2.43.0 (0)
 -->
<!-- Title: include/cppuddle/kernel_aggregation/kernel_aggregation_interface.hpp Pages: 1 -->
<svg width="2452pt" height="452pt"
 viewBox="0.00 0.00 2451.69 452.00" xmlns="http://www.w3.org/2000/svg" xmlns:xlink="http://www.w3.org/1999/xlink">
<g id="graph0" class="graph" transform="scale(1 1) rotate(0) translate(4 448)">
<title>include/cppuddle/kernel_aggregation/kernel_aggregation_interface.hpp</title>
<polygon fill="white" stroke="transparent" points="-4,4 -4,-448 2447.69,-448 2447.69,4 -4,4"/>
<!-- Node1 -->
<g id="node1" class="node">
<title>Node1</title>
<g id="a_node1"><a xlink:title=" ">
<polygon fill="#bfbfbf" stroke="black" points="798.42,-402.5 798.42,-443.5 975.42,-443.5 975.42,-402.5 798.42,-402.5"/>
<text text-anchor="start" x="806.42" y="-431.5" font-family="Helvetica,sans-Serif" font-size="10.00">include/cppuddle/kernel</text>
<text text-anchor="start" x="806.42" y="-420.5" font-family="Helvetica,sans-Serif" font-size="10.00">_aggregation/kernel_aggregation</text>
<text text-anchor="middle" x="886.92" y="-409.5" font-family="Helvetica,sans-Serif" font-size="10.00">_interface.hpp</text>
</a>
</g>
</g>
<!-- Node2 -->
<g id="node2" class="node">
<title>Node2</title>
<g id="a_node2"><a xlink:href="executor__pools__interface_8hpp.html" target="_top" xlink:title=" ">
<polygon fill="white" stroke="black" points="236.42,-179.5 236.42,-209.5 399.42,-209.5 399.42,-179.5 236.42,-179.5"/>
<text text-anchor="start" x="244.42" y="-197.5" font-family="Helvetica,sans-Serif" font-size="10.00">cppuddle/executor_recycling</text>
<text text-anchor="middle" x="317.92" y="-186.5" font-family="Helvetica,sans-Serif" font-size="10.00">/executor_pools_interface.hpp</text>
</a>
</g>
</g>
<!-- Node1&#45;&gt;Node2 -->
<g id="edge1" class="edge">
<title>Node1&#45;&gt;Node2</title>
<path fill="none" stroke="midnightblue" d="M837.91,-402.49C728.9,-359.1 467.72,-255.13 362.74,-213.34"/>
<polygon fill="midnightblue" stroke="midnightblue" points="363.95,-210.06 353.37,-209.61 361.37,-216.56 363.95,-210.06"/>
</g>
<!-- Node15 -->
<g id="node15" class="node">
<title>Node15</title>
<g id="a_node15"><a xlink:href="aggregation__executors__and__allocators_8hpp.html" target="_top" xlink:title=" ">
<polygon fill="white" stroke="black" points="913.42,-246.5 913.42,-287.5 1074.42,-287.5 1074.42,-246.5 913.42,-246.5"/>
<text text-anchor="start" x="921.42" y="-275.5" font-family="Helvetica,sans-Serif" font-size="10.00">cppuddle/kernel_aggregation</text>
<text text-anchor="start" x="921.42" y="-264.5" font-family="Helvetica,sans-Serif" font-size="10.00">/detail/aggregation_executors</text>
<text text-anchor="middle" x="993.92" y="-253.5" font-family="Helvetica,sans-Serif" font-size="10.00">_and_allocators.hpp</text>
</a>
</g>
</g>
<!-- Node1&#45;&gt;Node15 -->
<g id="edge15" class="edge">
<title>Node1&#45;&gt;Node15</title>
<path fill="none" stroke="midnightblue" d="M932.39,-402.42C948.12,-393.49 964.42,-381.42 974.92,-366 988.54,-345.99 992.95,-318.65 994.15,-297.93"/>
<polygon fill="midnightblue" stroke="midnightblue" points="997.65,-297.89 994.52,-287.77 990.66,-297.64 997.65,-297.89"/>
</g>
<!-- Node40 -->
<g id="node40" class="node">
<title>Node40</title>
<g id="a_node40"><a xlink:href="aggregation__executor__pools_8hpp.html" target="_top" xlink:title=" ">
<polygon fill="white" stroke="black" points="807.92,-324.5 807.92,-365.5 965.92,-365.5 965.92,-324.5 807.92,-324.5"/>
<text text-anchor="start" x="815.92" y="-353.5" font-family="Helvetica,sans-Serif" font-size="10.00">cppuddle/kernel_aggregation</text>
<text text-anchor="start" x="815.92" y="-342.5" font-family="Helvetica,sans-Serif" font-size="10.00">/detail/aggregation_executor</text>
<text text-anchor="middle" x="886.92" y="-331.5" font-family="Helvetica,sans-Serif" font-size="10.00">_pools.hpp</text>
</a>
</g>
</g>
<!-- Node1&#45;&gt;Node40 -->
<g id="edge57" class="edge">
<title>Node1&#45;&gt;Node40</title>
<path fill="none" stroke="midnightblue" d="M886.92,-402.43C886.92,-394.27 886.92,-384.62 886.92,-375.63"/>
<polygon fill="midnightblue" stroke="midnightblue" points="890.42,-375.51 886.92,-365.51 883.42,-375.51 890.42,-375.51"/>
</g>
<!-- Node3 -->
<g id="node3" class="node">
<title>Node3</title>
<g id="a_node3"><a xlink:href="executor__pools__management_8hpp.html" target="_top" xlink:title=" ">
<polygon fill="white" stroke="black" points="184.42,-112.5 184.42,-142.5 399.42,-142.5 399.42,-112.5 184.42,-112.5"/>
<text text-anchor="start" x="192.42" y="-130.5" font-family="Helvetica,sans-Serif" font-size="10.00">cppuddle/executor_recycling</text>
<text text-anchor="middle" x="291.92" y="-119.5" font-family="Helvetica,sans-Serif" font-size="10.00">/detail/executor_pools_management.hpp</text>
</a>
</g>
</g>
<!-- Node2&#45;&gt;Node3 -->
<g id="edge2" class="edge">
<title>Node2&#45;&gt;Node3</title>
<path fill="none" stroke="midnightblue" d="M312.27,-179.4C309.07,-171.39 304.98,-161.16 301.31,-151.98"/>
<polygon fill="midnightblue" stroke="midnightblue" points="304.51,-150.56 297.55,-142.58 298.01,-153.16 304.51,-150.56"/>
</g>
<!-- Node4 -->
<g id="node4" class="node">
<title>Node4</title>
<g id="a_node4"><a xlink:title=" ">
<polygon fill="white" stroke="#bfbfbf" points="72.92,-56.5 72.92,-75.5 136.92,-75.5 136.92,-56.5 72.92,-56.5"/>
<text text-anchor="middle" x="104.92" y="-63.5" font-family="Helvetica,sans-Serif" font-size="10.00">algorithm</text>
</a>
</g>
</g>
<!-- Node3&#45;&gt;Node4 -->
<g id="edge3" class="edge">
<title>Node3&#45;&gt;Node4</title>
<path fill="none" stroke="midnightblue" d="M247.6,-112.4C215.29,-102.12 172.02,-88.35 141.63,-78.68"/>
<polygon fill="midnightblue" stroke="midnightblue" points="142.44,-75.27 131.85,-75.57 140.32,-81.94 142.44,-75.27"/>
</g>
<!-- Node5 -->
<g id="node5" class="node">
<title>Node5</title>
<g id="a_node5"><a xlink:title=" ">
<polygon fill="white" stroke="#bfbfbf" points="285.92,-56.5 285.92,-75.5 327.92,-75.5 327.92,-56.5 285.92,-56.5"/>
<text text-anchor="middle" x="306.92" y="-63.5" font-family="Helvetica,sans-Serif" font-size="10.00">array</text>
</a>
</g>
</g>
<!-- Node3&#45;&gt;Node5 -->
<g id="edge4" class="edge">
<title>Node3&#45;&gt;Node5</title>
<path fill="none" stroke="midnightblue" d="M295.47,-112.4C297.49,-104.38 300.05,-94.23 302.23,-85.57"/>
<polygon fill="midnightblue" stroke="midnightblue" points="305.68,-86.21 304.73,-75.66 298.89,-84.5 305.68,-86.21"/>
</g>
<!-- Node6 -->
<g id="node6" class="node">
<title>Node6</title>
<g id="a_node6"><a xlink:title=" ">
<polygon fill="white" stroke="#bfbfbf" points="461.92,-56.5 461.92,-75.5 513.92,-75.5 513.92,-56.5 461.92,-56.5"/>
<text text-anchor="middle" x="487.92" y="-63.5" font-family="Helvetica,sans-Serif" font-size="10.00">cassert</text>
</a>
</g>
</g>
<!-- Node3&#45;&gt;Node6 -->
<g id="edge5" class="edge">
<title>Node3&#45;&gt;Node6</title>
<path fill="none" stroke="midnightblue" d="M338.36,-112.4C373.1,-101.86 419.9,-87.65 451.84,-77.95"/>
<polygon fill="midnightblue" stroke="midnightblue" points="453.1,-81.23 461.65,-74.97 451.07,-74.53 453.1,-81.23"/>
</g>
<!-- Node7 -->
<g id="node7" class="node">
<title>Node7</title>
<g id="a_node7"><a xlink:title=" ">
<polygon fill="white" stroke="#bfbfbf" points="155.42,-56.5 155.42,-75.5 202.42,-75.5 202.42,-56.5 155.42,-56.5"/>
<text text-anchor="middle" x="178.92" y="-63.5" font-family="Helvetica,sans-Serif" font-size="10.00">deque</text>
</a>
</g>
</g>
<!-- Node3&#45;&gt;Node7 -->
<g id="edge6" class="edge">
<title>Node3&#45;&gt;Node7</title>
<path fill="none" stroke="midnightblue" d="M265.14,-112.4C246.85,-102.77 222.77,-90.09 204.7,-80.58"/>
<polygon fill="midnightblue" stroke="midnightblue" points="205.84,-77.22 195.36,-75.66 202.58,-83.41 205.84,-77.22"/>
</g>
<!-- Node8 -->
<g id="node8" class="node">
<title>Node8</title>
<g id="a_node8"><a xlink:title=" ">
<polygon fill="white" stroke="#bfbfbf" points="383.92,-56.5 383.92,-75.5 443.92,-75.5 443.92,-56.5 383.92,-56.5"/>
<text text-anchor="middle" x="413.92" y="-63.5" font-family="Helvetica,sans-Serif" font-size="10.00">iostream</text>
</a>
</g>
</g>
<!-- Node3&#45;&gt;Node8 -->
<g id="edge7" class="edge">
<title>Node3&#45;&gt;Node8</title>
<path fill="none" stroke="midnightblue" d="M320.83,-112.4C340.93,-102.59 367.54,-89.62 387.15,-80.05"/>
<polygon fill="midnightblue" stroke="midnightblue" points="388.71,-83.19 396.16,-75.66 385.64,-76.9 388.71,-83.19"/>
</g>
<!-- Node9 -->
<g id="node9" class="node">
<title>Node9</title>
<g id="a_node9"><a xlink:title=" ">
<polygon fill="white" stroke="#bfbfbf" points="619.92,-56.5 619.92,-75.5 677.92,-75.5 677.92,-56.5 619.92,-56.5"/>
<text text-anchor="middle" x="648.92" y="-63.5" font-family="Helvetica,sans-Serif" font-size="10.00">memory</text>
</a>
</g>
</g>
<!-- Node3&#45;&gt;Node9 -->
<g id="edge8" class="edge">
<title>Node3&#45;&gt;Node9</title>
<path fill="none" stroke="midnightblue" d="M391.77,-112.46C452,-103.56 530.47,-91.21 609.44,-75.97"/>
<polygon fill="midnightblue" stroke="midnightblue" points="610.43,-79.34 619.57,-74 609.09,-72.47 610.43,-79.34"/>
</g>
<!-- Node10 -->
<g id="node10" class="node">
<title>Node10</title>
<g id="a_node10"><a xlink:title=" ">
<polygon fill="white" stroke="#bfbfbf" points="541.92,-0.5 541.92,-19.5 589.92,-19.5 589.92,-0.5 541.92,-0.5"/>
<text text-anchor="middle" x="565.92" y="-7.5" font-family="Helvetica,sans-Serif" font-size="10.00">mutex</text>
</a>
</g>
</g>
<!-- Node3&#45;&gt;Node10 -->
<g id="edge9" class="edge">
<title>Node3&#45;&gt;Node10</title>
<path fill="none" stroke="midnightblue" d="M304.55,-112.31C319.68,-96.21 346.57,-70.32 374.92,-56 425.89,-30.25 492,-18.93 531.57,-14.18"/>
<polygon fill="midnightblue" stroke="midnightblue" points="532.21,-17.63 541.75,-13.03 531.43,-10.67 532.21,-17.63"/>
</g>
<!-- Node11 -->
<g id="node11" class="node">
<title>Node11</title>
<g id="a_node11"><a xlink:title=" ">
<polygon fill="white" stroke="#bfbfbf" points="220.42,-56.5 220.42,-75.5 267.42,-75.5 267.42,-56.5 220.42,-56.5"/>
<text text-anchor="middle" x="243.92" y="-63.5" font-family="Helvetica,sans-Serif" font-size="10.00">queue</text>
</a>
</g>
</g>
<!-- Node3&#45;&gt;Node11 -->
<g id="edge10" class="edge">
<title>Node3&#45;&gt;Node11</title>
<path fill="none" stroke="midnightblue" d="M280.54,-112.4C273.57,-103.75 264.6,-92.64 257.29,-83.58"/>
<polygon fill="midnightblue" stroke="midnightblue" points="259.9,-81.24 250.9,-75.66 254.45,-85.64 259.9,-81.24"/>
</g>
<!-- Node12 -->
<g id="node12" class="node">
<title>Node12</title>
<g id="a_node12"><a xlink:title=" ">
<polygon fill="white" stroke="#bfbfbf" points="13.42,-56.5 13.42,-75.5 54.42,-75.5 54.42,-56.5 13.42,-56.5"/>
<text text-anchor="middle" x="33.92" y="-63.5" font-family="Helvetica,sans-Serif" font-size="10.00">tuple</text>
</a>
</g>
</g>
<!-- Node3&#45;&gt;Node12 -->
<g id="edge11" class="edge">
<title>Node3&#45;&gt;Node12</title>
<path fill="none" stroke="midnightblue" d="M222.25,-112.46C179.33,-103.48 123,-91.13 64.33,-75.96"/>
<polygon fill="midnightblue" stroke="midnightblue" points="65.08,-72.53 54.52,-73.4 63.31,-79.31 65.08,-72.53"/>
</g>
<!-- Node13 -->
<g id="node13" class="node">
<title>Node13</title>
<g id="a_node13"><a xlink:title=" ">
<polygon fill="white" stroke="#bfbfbf" points="532.42,-56.5 532.42,-75.5 601.42,-75.5 601.42,-56.5 532.42,-56.5"/>
<text text-anchor="middle" x="566.92" y="-63.5" font-family="Helvetica,sans-Serif" font-size="10.00">type_traits</text>
</a>
</g>
</g>
<!-- Node3&#45;&gt;Node13 -->
<g id="edge12" class="edge">
<title>Node3&#45;&gt;Node13</title>
<path fill="none" stroke="midnightblue" d="M356.74,-112.47C407.71,-101.45 477.38,-86.37 522.27,-76.66"/>
<polygon fill="midnightblue" stroke="midnightblue" points="523.25,-80.03 532.29,-74.49 521.77,-73.19 523.25,-80.03"/>
</g>
<!-- Node14 -->
<g id="node14" class="node">
<title>Node14</title>
<g id="a_node14"><a xlink:href="config_8hpp.html" target="_top" xlink:title=" ">
<polygon fill="white" stroke="black" points="695.92,-56.5 695.92,-75.5 855.92,-75.5 855.92,-56.5 695.92,-56.5"/>
<text text-anchor="middle" x="775.92" y="-63.5" font-family="Helvetica,sans-Serif" font-size="10.00">cppuddle/common/config.hpp</text>
</a>
</g>
</g>
<!-- Node3&#45;&gt;Node14 -->
<g id="edge13" class="edge">
<title>Node3&#45;&gt;Node14</title>
<path fill="none" stroke="midnightblue" d="M399.63,-113.26C489.52,-102.21 615.58,-86.71 696.5,-76.76"/>
<polygon fill="midnightblue" stroke="midnightblue" points="697.13,-80.21 706.63,-75.52 696.28,-73.26 697.13,-80.21"/>
</g>
<!-- Node14&#45;&gt;Node10 -->
<g id="edge14" class="edge">
<title>Node14&#45;&gt;Node10</title>
<path fill="none" stroke="midnightblue" d="M742.64,-56.44C703.68,-46.42 639.47,-29.92 600.12,-19.79"/>
<polygon fill="midnightblue" stroke="midnightblue" points="600.75,-16.34 590.2,-17.24 599.01,-23.12 600.75,-16.34"/>
</g>
<!-- Node15&#45;&gt;Node2 -->
<g id="edge56" class="edge">
<title>Node15&#45;&gt;Node2</title>
<path fill="none" stroke="midnightblue" d="M913.07,-259.57C800.86,-250.34 591.62,-231.98 413.92,-210 412.45,-209.82 410.98,-209.63 409.49,-209.44"/>
<polygon fill="midnightblue" stroke="midnightblue" points="409.95,-205.97 399.58,-208.14 409.03,-212.91 409.95,-205.97"/>
</g>
<!-- Node15&#45;&gt;Node8 -->
<g id="edge22" class="edge">
<title>Node15&#45;&gt;Node8</title>
<path fill="none" stroke="midnightblue" d="M913.4,-265.75C789.87,-263.93 560.86,-254.45 493.92,-210 449.38,-180.43 427.12,-117.22 418.43,-85.69"/>
<polygon fill="midnightblue" stroke="midnightblue" points="421.72,-84.43 415.83,-75.62 414.94,-86.18 421.72,-84.43"/>
</g>
<!-- Node15&#45;&gt;Node9 -->
<g id="edge23" class="edge">
<title>Node15&#45;&gt;Node9</title>
<path fill="none" stroke="midnightblue" d="M913.23,-262.15C785.46,-255.22 548.34,-238.63 522.92,-210 480.58,-162.34 573.33,-105.42 621.82,-80.18"/>
<polygon fill="midnightblue" stroke="midnightblue" points="623.55,-83.22 630.87,-75.56 620.37,-76.99 623.55,-83.22"/>
</g>
<!-- Node15&#45;&gt;Node10 -->
<g id="edge24" class="edge">
<title>Node15&#45;&gt;Node10</title>
<path fill="none" stroke="midnightblue" d="M913.33,-266.46C732.61,-266.55 300.25,-261.23 164.92,-210 77.85,-177.04 41.66,-161.1 3.92,-76 0.31,-67.87 -2.11,-62.53 3.92,-56 39.77,-17.16 415.24,-11.83 531.68,-11.11"/>
<polygon fill="midnightblue" stroke="midnightblue" points="531.83,-14.61 541.81,-11.05 531.79,-7.61 531.83,-14.61"/>
</g>
<!-- Node15&#45;&gt;Node12 -->
<g id="edge28" class="edge">
<title>Node15&#45;&gt;Node12</title>
<path fill="none" stroke="midnightblue" d="M913.37,-265.76C742.88,-264.35 351,-256.04 226.92,-210 151.19,-181.9 79.57,-114.46 49.19,-83.3"/>
<polygon fill="midnightblue" stroke="midnightblue" points="51.51,-80.66 42.06,-75.87 46.46,-85.5 51.51,-80.66"/>
</g>
<!-- Node15&#45;&gt;Node13 -->
<g id="edge29" class="edge">
<title>Node15&#45;&gt;Node13</title>
<path fill="none" stroke="midnightblue" d="M913.22,-262.45C782.25,-255.85 535.3,-239.6 508.92,-210 475.03,-171.97 523.47,-111.56 550.64,-82.98"/>
<polygon fill="midnightblue" stroke="midnightblue" points="553.16,-85.41 557.65,-75.81 548.16,-80.51 553.16,-85.41"/>
</g>
<!-- Node15&#45;&gt;Node14 -->
<g id="edge42" class="edge">
<title>Node15&#45;&gt;Node14</title>
<path fill="none" stroke="midnightblue" d="M913.09,-262.85C830.93,-257.75 711.73,-244.46 682.92,-210 646.51,-166.46 716.73,-107.97 754.33,-81.32"/>
<polygon fill="midnightblue" stroke="midnightblue" points="756.44,-84.11 762.68,-75.54 752.46,-78.35 756.44,-84.11"/>
</g>
<!-- Node16 -->
<g id="node16" class="node">
<title>Node16</title>
<g id="a_node16"><a xlink:title=" ">
<polygon fill="white" stroke="#bfbfbf" points="1081.42,-56.5 1081.42,-75.5 1146.42,-75.5 1146.42,-56.5 1081.42,-56.5"/>
<text text-anchor="middle" x="1113.92" y="-63.5" font-family="Helvetica,sans-Serif" font-size="10.00">stdexcept</text>
</a>
</g>
</g>
<!-- Node15&#45;&gt;Node16 -->
<g id="edge16" class="edge">
<title>Node15&#45;&gt;Node16</title>
<path fill="none" stroke="midnightblue" d="M1074.47,-250.26C1096.06,-241.96 1116.99,-229.31 1129.92,-210 1155.67,-171.55 1135.77,-113.87 1122.81,-84.92"/>
<polygon fill="midnightblue" stroke="midnightblue" points="1125.87,-83.2 1118.44,-75.64 1119.53,-86.18 1125.87,-83.2"/>
</g>
<!-- Node17 -->
<g id="node17" class="node">
<title>Node17</title>
<g id="a_node17"><a xlink:title=" ">
<polygon fill="white" stroke="#bfbfbf" points="531.92,-185 531.92,-204 581.92,-204 581.92,-185 531.92,-185"/>
<text text-anchor="middle" x="556.92" y="-192" font-family="Helvetica,sans-Serif" font-size="10.00">stdio.h</text>
</a>
</g>
</g>
<!-- Node15&#45;&gt;Node17 -->
<g id="edge17" class="edge">
<title>Node15&#45;&gt;Node17</title>
<path fill="none" stroke="midnightblue" d="M913.12,-261.09C830.83,-254.62 700.16,-240.31 590.92,-210 588.62,-209.36 586.28,-208.61 583.94,-207.78"/>
<polygon fill="midnightblue" stroke="midnightblue" points="585.18,-204.5 574.59,-204.09 582.61,-211.01 585.18,-204.5"/>
</g>
<!-- Node18 -->
<g id="node18" class="node">
<title>Node18</title>
<g id="a_node18"><a xlink:title=" ">
<polygon fill="white" stroke="#bfbfbf" points="600.42,-185 600.42,-204 635.42,-204 635.42,-185 600.42,-185"/>
<text text-anchor="middle" x="617.92" y="-192" font-family="Helvetica,sans-Serif" font-size="10.00">any</text>
</a>
</g>
</g>
<!-- Node15&#45;&gt;Node18 -->
<g id="edge18" class="edge">
<title>Node15&#45;&gt;Node18</title>
<path fill="none" stroke="midnightblue" d="M913.31,-258.95C842.72,-251.36 737.96,-236.6 649.92,-210 647.99,-209.42 646.03,-208.74 644.07,-208.01"/>
<polygon fill="midnightblue" stroke="midnightblue" points="645.11,-204.65 634.53,-204.03 642.41,-211.11 645.11,-204.65"/>
</g>
<!-- Node19 -->
<g id="node19" class="node">
<title>Node19</title>
<g id="a_node19"><a xlink:title=" ">
<polygon fill="white" stroke="#bfbfbf" points="1320.92,-56.5 1320.92,-75.5 1370.92,-75.5 1370.92,-56.5 1320.92,-56.5"/>
<text text-anchor="middle" x="1345.92" y="-63.5" font-family="Helvetica,sans-Serif" font-size="10.00">atomic</text>
</a>
</g>
</g>
<!-- Node15&#45;&gt;Node19 -->
<g id="edge19" class="edge">
<title>Node15&#45;&gt;Node19</title>
<path fill="none" stroke="midnightblue" d="M1074.63,-265.83C1366.15,-264.81 2349.94,-257.85 2395.92,-210 2405.46,-200.07 2405.13,-189.25 2395.92,-179 2326.44,-101.72 1556.26,-73.47 1381.18,-68.03"/>
<polygon fill="midnightblue" stroke="midnightblue" points="1381.08,-64.52 1370.98,-67.71 1380.87,-71.52 1381.08,-64.52"/>
</g>
<!-- Node20 -->
<g id="node20" class="node">
<title>Node20</title>
<g id="a_node20"><a xlink:title=" ">
<polygon fill="white" stroke="#bfbfbf" points="691.92,-185 691.92,-204 741.92,-204 741.92,-185 691.92,-185"/>
<text text-anchor="middle" x="716.92" y="-192" font-family="Helvetica,sans-Serif" font-size="10.00">chrono</text>
</a>
</g>
</g>
<!-- Node15&#45;&gt;Node20 -->
<g id="edge20" class="edge">
<title>Node15&#45;&gt;Node20</title>
<path fill="none" stroke="midnightblue" d="M913.32,-251.15C865.55,-241.43 804.12,-227.33 750.92,-210 748.99,-209.37 747.03,-208.68 745.06,-207.95"/>
<polygon fill="midnightblue" stroke="midnightblue" points="745.98,-204.55 735.39,-204.08 743.38,-211.05 745.98,-204.55"/>
</g>
<!-- Node21 -->
<g id="node21" class="node">
<title>Node21</title>
<g id="a_node21"><a xlink:title=" ">
<polygon fill="white" stroke="#bfbfbf" points="759.92,-185 759.92,-204 805.92,-204 805.92,-185 759.92,-185"/>
<text text-anchor="middle" x="782.92" y="-192" font-family="Helvetica,sans-Serif" font-size="10.00">cstdio</text>
</a>
</g>
</g>
<!-- Node15&#45;&gt;Node21 -->
<g id="edge21" class="edge">
<title>Node15&#45;&gt;Node21</title>
<path fill="none" stroke="midnightblue" d="M929.96,-246.46C896.94,-236.11 856.08,-222.89 819.92,-210 817.8,-209.25 815.63,-208.45 813.45,-207.64"/>
<polygon fill="midnightblue" stroke="midnightblue" points="814.55,-204.31 803.96,-204.01 812.05,-210.85 814.55,-204.31"/>
</g>
<!-- Node22 -->
<g id="node22" class="node">
<title>Node22</title>
<g id="a_node22"><a xlink:title=" ">
<polygon fill="white" stroke="#bfbfbf" points="1939.92,-56.5 1939.92,-75.5 1995.92,-75.5 1995.92,-56.5 1939.92,-56.5"/>
<text text-anchor="middle" x="1967.92" y="-63.5" font-family="Helvetica,sans-Serif" font-size="10.00">optional</text>
</a>
</g>
</g>
<!-- Node15&#45;&gt;Node22 -->
<g id="edge25" class="edge">
<title>Node15&#45;&gt;Node22</title>
<path fill="none" stroke="midnightblue" d="M1074.59,-265.87C1368.38,-265 2366.32,-258.48 2412.92,-210 2534.35,-83.68 2134.33,-68.72 2006.14,-67.13"/>
<polygon fill="midnightblue" stroke="midnightblue" points="2006.02,-63.63 1995.99,-67.02 2005.95,-70.63 2006.02,-63.63"/>
</g>
<!-- Node23 -->
<g id="node23" class="node">
<title>Node23</title>
<g id="a_node23"><a xlink:title=" ">
<polygon fill="white" stroke="#bfbfbf" points="862.42,-185 862.42,-204 919.42,-204 919.42,-185 862.42,-185"/>
<text text-anchor="middle" x="890.92" y="-192" font-family="Helvetica,sans-Serif" font-size="10.00">ostream</text>
</a>
</g>
</g>
<!-- Node15&#45;&gt;Node23 -->
<g id="edge26" class="edge">
<title>Node15&#45;&gt;Node23</title>
<path fill="none" stroke="midnightblue" d="M965.22,-246.36C948.31,-234.78 927.27,-220.39 911.91,-209.87"/>
<polygon fill="midnightblue" stroke="midnightblue" points="913.82,-206.93 903.59,-204.17 909.86,-212.71 913.82,-206.93"/>
</g>
<!-- Node24 -->
<g id="node24" class="node">
<title>Node24</title>
<g id="a_node24"><a xlink:title=" ">
<polygon fill="white" stroke="#bfbfbf" points="937.92,-185 937.92,-204 981.92,-204 981.92,-185 937.92,-185"/>
<text text-anchor="middle" x="959.92" y="-192" font-family="Helvetica,sans-Serif" font-size="10.00">string</text>
</a>
</g>
</g>
<!-- Node15&#45;&gt;Node24 -->
<g id="edge27" class="edge">
<title>Node15&#45;&gt;Node24</title>
<path fill="none" stroke="midnightblue" d="M984.44,-246.36C979.43,-235.97 973.33,-223.32 968.46,-213.23"/>
<polygon fill="midnightblue" stroke="midnightblue" points="971.6,-211.66 964.1,-204.17 965.29,-214.7 971.6,-211.66"/>
</g>
<!-- Node25 -->
<g id="node25" class="node">
<title>Node25</title>
<g id="a_node25"><a xlink:title=" ">
<polygon fill="white" stroke="#bfbfbf" points="1000.42,-185 1000.42,-204 1057.42,-204 1057.42,-185 1000.42,-185"/>
<text text-anchor="middle" x="1028.92" y="-192" font-family="Helvetica,sans-Serif" font-size="10.00">typeinfo</text>
</a>
</g>
</g>
<!-- Node15&#45;&gt;Node25 -->
<g id="edge30" class="edge">
<title>Node15&#45;&gt;Node25</title>
<path fill="none" stroke="midnightblue" d="M1003.67,-246.36C1008.82,-235.97 1015.11,-223.32 1020.12,-213.23"/>
<polygon fill="midnightblue" stroke="midnightblue" points="1023.3,-214.69 1024.61,-204.17 1017.03,-211.57 1023.3,-214.69"/>
</g>
<!-- Node26 -->
<g id="node26" class="node">
<title>Node26</title>
<g id="a_node26"><a xlink:title=" ">
<polygon fill="white" stroke="#bfbfbf" points="1075.42,-185 1075.42,-204 1120.42,-204 1120.42,-185 1075.42,-185"/>
<text text-anchor="middle" x="1097.92" y="-192" font-family="Helvetica,sans-Serif" font-size="10.00">utility</text>
</a>
</g>
</g>
<!-- Node15&#45;&gt;Node26 -->
<g id="edge31" class="edge">
<title>Node15&#45;&gt;Node26</title>
<path fill="none" stroke="midnightblue" d="M1022.89,-246.36C1039.97,-234.78 1061.21,-220.39 1076.72,-209.87"/>
<polygon fill="midnightblue" stroke="midnightblue" points="1078.81,-212.68 1085.12,-204.17 1074.88,-206.89 1078.81,-212.68"/>
</g>
<!-- Node27 -->
<g id="node27" class="node">
<title>Node27</title>
<g id="a_node27"><a xlink:title=" ">
<polygon fill="white" stroke="#bfbfbf" points="2289.42,-56.5 2289.42,-75.5 2382.42,-75.5 2382.42,-56.5 2289.42,-56.5"/>
<text text-anchor="middle" x="2335.92" y="-63.5" font-family="Helvetica,sans-Serif" font-size="10.00">unordered_map</text>
</a>
</g>
</g>
<!-- Node15&#45;&gt;Node27 -->
<g id="edge32" class="edge">
<title>Node15&#45;&gt;Node27</title>
<path fill="none" stroke="midnightblue" d="M1074.42,-265.92C1371.22,-265.26 2389.43,-259.36 2436.92,-210 2456.11,-190.05 2429.6,-127.78 2416.92,-112 2405.23,-97.46 2387.52,-86.86 2371.63,-79.62"/>
<polygon fill="midnightblue" stroke="midnightblue" points="2372.62,-76.23 2362.05,-75.53 2369.88,-82.67 2372.62,-76.23"/>
</g>
<!-- Node28 -->
<g id="node28" class="node">
<title>Node28</title>
<g id="a_node28"><a xlink:title=" ">
<polygon fill="white" stroke="#bfbfbf" points="1177.42,-185 1177.42,-204 1302.42,-204 1302.42,-185 1177.42,-185"/>
<text text-anchor="middle" x="1239.92" y="-192" font-family="Helvetica,sans-Serif" font-size="10.00">hpx/futures/future.hpp</text>
</a>
</g>
</g>
<!-- Node15&#45;&gt;Node28 -->
<g id="edge33" class="edge">
<title>Node15&#45;&gt;Node28</title>
<path fill="none" stroke="midnightblue" d="M1062.11,-246.46C1106.56,-233.72 1163.02,-217.54 1200.25,-206.87"/>
<polygon fill="midnightblue" stroke="midnightblue" points="1201.56,-210.13 1210.21,-204.01 1199.63,-203.4 1201.56,-210.13"/>
</g>
<!-- Node29 -->
<g id="node29" class="node">
<title>Node29</title>
<g id="a_node29"><a xlink:title=" ">
<polygon fill="white" stroke="#bfbfbf" points="1320.92,-185 1320.92,-204 1418.92,-204 1418.92,-185 1320.92,-185"/>
<text text-anchor="middle" x="1369.92" y="-192" font-family="Helvetica,sans-Serif" font-size="10.00">hpx/hpx_init.hpp</text>
</a>
</g>
</g>
<!-- Node15&#45;&gt;Node29 -->
<g id="edge34" class="edge">
<title>Node15&#45;&gt;Node29</title>
<path fill="none" stroke="midnightblue" d="M1074.6,-253.41C1139.06,-242.96 1231.59,-227.09 1311.92,-210 1316.99,-208.92 1322.29,-207.71 1327.54,-206.46"/>
<polygon fill="midnightblue" stroke="midnightblue" points="1328.61,-209.8 1337.49,-204.04 1326.95,-203 1328.61,-209.8"/>
</g>
<!-- Node30 -->
<g id="node30" class="node">
<title>Node30</title>
<g id="a_node30"><a xlink:title=" ">
<polygon fill="white" stroke="#bfbfbf" points="1437.42,-185 1437.42,-204 1562.42,-204 1562.42,-185 1437.42,-185"/>
<text text-anchor="middle" x="1499.92" y="-192" font-family="Helvetica,sans-Serif" font-size="10.00">hpx/include/async.hpp</text>
</a>
</g>
</g>
<!-- Node15&#45;&gt;Node30 -->
<g id="edge35" class="edge">
<title>Node15&#45;&gt;Node30</title>
<path fill="none" stroke="midnightblue" d="M1074.55,-257.32C1161.88,-247.51 1305.17,-230.25 1427.92,-210 1435.09,-208.82 1442.65,-207.44 1450.06,-206.01"/>
<polygon fill="midnightblue" stroke="midnightblue" points="1450.88,-209.42 1460.02,-204.06 1449.53,-202.55 1450.88,-209.42"/>
</g>
<!-- Node31 -->
<g id="node31" class="node">
<title>Node31</title>
<g id="a_node31"><a xlink:title=" ">
<polygon fill="white" stroke="#bfbfbf" points="1580.92,-185 1580.92,-204 1726.92,-204 1726.92,-185 1580.92,-185"/>
<text text-anchor="middle" x="1653.92" y="-192" font-family="Helvetica,sans-Serif" font-size="10.00">hpx/include/iostreams.hpp</text>
</a>
</g>
</g>
<!-- Node15&#45;&gt;Node31 -->
<g id="edge36" class="edge">
<title>Node15&#45;&gt;Node31</title>
<path fill="none" stroke="midnightblue" d="M1074.56,-260.19C1186.49,-251.68 1395.11,-234.16 1571.92,-210 1580.76,-208.79 1590.11,-207.32 1599.21,-205.79"/>
<polygon fill="midnightblue" stroke="midnightblue" points="1600.07,-209.19 1609.33,-204.04 1598.88,-202.29 1600.07,-209.19"/>
</g>
<!-- Node32 -->
<g id="node32" class="node">
<title>Node32</title>
<g id="a_node32"><a xlink:title=" ">
<polygon fill="white" stroke="#bfbfbf" points="1744.92,-185 1744.92,-204 1860.92,-204 1860.92,-185 1744.92,-185"/>
<text text-anchor="middle" x="1802.92" y="-192" font-family="Helvetica,sans-Serif" font-size="10.00">hpx/include/lcos.hpp</text>
</a>
</g>
</g>
<!-- Node15&#45;&gt;Node32 -->
<g id="edge37" class="edge">
<title>Node15&#45;&gt;Node32</title>
<path fill="none" stroke="midnightblue" d="M1074.47,-263.56C1211.12,-258.6 1496.85,-244.72 1735.92,-210 1743.12,-208.95 1750.71,-207.58 1758.09,-206.09"/>
<polygon fill="midnightblue" stroke="midnightblue" points="1758.89,-209.5 1767.96,-204.02 1757.45,-202.65 1758.89,-209.5"/>
</g>
<!-- Node33 -->
<g id="node33" class="node">
<title>Node33</title>
<g id="a_node33"><a xlink:title=" ">
<polygon fill="white" stroke="#bfbfbf" points="1879.42,-185 1879.42,-204 2000.42,-204 2000.42,-185 1879.42,-185"/>
<text text-anchor="middle" x="1939.92" y="-192" font-family="Helvetica,sans-Serif" font-size="10.00">hpx/lcos/promise.hpp</text>
</a>
</g>
</g>
<!-- Node15&#45;&gt;Node33 -->
<g id="edge38" class="edge">
<title>Node15&#45;&gt;Node33</title>
<path fill="none" stroke="midnightblue" d="M1074.6,-264.62C1229.46,-261.15 1578.81,-249.26 1869.92,-210 1877.7,-208.95 1885.91,-207.53 1893.87,-206"/>
<polygon fill="midnightblue" stroke="midnightblue" points="1894.64,-209.41 1903.75,-204 1893.26,-202.55 1894.64,-209.41"/>
</g>
<!-- Node34 -->
<g id="node34" class="node">
<title>Node34</title>
<g id="a_node34"><a xlink:title=" ">
<polygon fill="white" stroke="#bfbfbf" points="2018.92,-185 2018.92,-204 2108.92,-204 2108.92,-185 2018.92,-185"/>
<text text-anchor="middle" x="2063.92" y="-192" font-family="Helvetica,sans-Serif" font-size="10.00">hpx/mutex.hpp</text>
</a>
</g>
</g>
<!-- Node15&#45;&gt;Node34 -->
<g id="edge39" class="edge">
<title>Node15&#45;&gt;Node34</title>
<path fill="none" stroke="midnightblue" d="M1074.49,-263.72C1281.85,-257.49 1830.25,-238.75 2009.92,-210 2015.37,-209.13 2021.06,-207.93 2026.62,-206.59"/>
<polygon fill="midnightblue" stroke="midnightblue" points="2027.6,-209.95 2036.41,-204.07 2025.85,-203.17 2027.6,-209.95"/>
</g>
<!-- Node35 -->
<g id="node35" class="node">
<title>Node35</title>
<g id="a_node35"><a xlink:title=" ">
<polygon fill="white" stroke="#bfbfbf" points="2126.92,-185 2126.92,-204 2266.92,-204 2266.92,-185 2126.92,-185"/>
<text text-anchor="middle" x="2196.92" y="-192" font-family="Helvetica,sans-Serif" font-size="10.00">boost/core/demangle.hpp</text>
</a>
</g>
</g>
<!-- Node15&#45;&gt;Node35 -->
<g id="edge40" class="edge">
<title>Node15&#45;&gt;Node35</title>
<path fill="none" stroke="midnightblue" d="M1074.63,-265.62C1259.73,-263.95 1728.79,-255.2 2117.92,-210 2127.07,-208.94 2136.76,-207.46 2146.11,-205.84"/>
<polygon fill="midnightblue" stroke="midnightblue" points="2146.84,-209.27 2156.07,-204.06 2145.61,-202.38 2146.84,-209.27"/>
</g>
<!-- Node36 -->
<g id="node36" class="node">
<title>Node36</title>
<g id="a_node36"><a xlink:title=" ">
<polygon fill="white" stroke="#bfbfbf" points="2285.42,-185 2285.42,-204 2386.42,-204 2386.42,-185 2285.42,-185"/>
<text text-anchor="middle" x="2335.92" y="-192" font-family="Helvetica,sans-Serif" font-size="10.00">boost/format.hpp</text>
</a>
</g>
</g>
<!-- Node15&#45;&gt;Node36 -->
<g id="edge41" class="edge">
<title>Node15&#45;&gt;Node36</title>
<path fill="none" stroke="midnightblue" d="M1074.65,-264.52C1318.07,-259.72 2042.37,-243 2275.92,-210 2282.32,-209.09 2289.04,-207.81 2295.58,-206.37"/>
<polygon fill="midnightblue" stroke="midnightblue" points="2296.67,-209.71 2305.61,-204.03 2295.08,-202.9 2296.67,-209.71"/>
</g>
<!-- Node37 -->
<g id="node37" class="node">
<title>Node37</title>
<g id="a_node37"><a xlink:href="buffer__management_8hpp.html" target="_top" xlink:title=" ">
<polygon fill="white" stroke="black" points="804.92,-112.5 804.92,-142.5 974.92,-142.5 974.92,-112.5 804.92,-112.5"/>
<text text-anchor="start" x="812.92" y="-130.5" font-family="Helvetica,sans-Serif" font-size="10.00">cppuddle/memory_recycling</text>
<text text-anchor="middle" x="889.92" y="-119.5" font-family="Helvetica,sans-Serif" font-size="10.00">/detail/buffer_management.hpp</text>
</a>
</g>
</g>
<!-- Node15&#45;&gt;Node37 -->
<g id="edge43" class="edge">
<title>Node15&#45;&gt;Node37</title>
<path fill="none" stroke="midnightblue" d="M913.06,-251.85C889.77,-243.61 866.9,-230.59 852.92,-210 840.17,-191.22 854.02,-167.33 868.26,-150.28"/>
<polygon fill="midnightblue" stroke="midnightblue" points="871.14,-152.31 875.17,-142.51 865.91,-147.66 871.14,-152.31"/>
</g>
<!-- Node37&#45;&gt;Node6 -->
<g id="edge45" class="edge">
<title>Node37&#45;&gt;Node6</title>
<path fill="none" stroke="midnightblue" d="M804.91,-117.61C732.57,-109.4 625.76,-95.75 524.04,-76.04"/>
<polygon fill="midnightblue" stroke="midnightblue" points="524.7,-72.6 514.21,-74.11 523.35,-79.47 524.7,-72.6"/>
</g>
<!-- Node37&#45;&gt;Node8 -->
<g id="edge47" class="edge">
<title>Node37&#45;&gt;Node8</title>
<path fill="none" stroke="midnightblue" d="M804.51,-119.48C718.37,-111.74 581.44,-97.68 454.02,-76.02"/>
<polygon fill="midnightblue" stroke="midnightblue" points="454.53,-72.56 444.08,-74.31 453.34,-79.46 454.53,-72.56"/>
</g>
<!-- Node37&#45;&gt;Node9 -->
<g id="edge49" class="edge">
<title>Node37&#45;&gt;Node9</title>
<path fill="none" stroke="midnightblue" d="M833.11,-112.47C788.3,-101.41 727.01,-86.28 687.68,-76.57"/>
<polygon fill="midnightblue" stroke="midnightblue" points="688.49,-73.16 677.94,-74.17 686.81,-79.96 688.49,-73.16"/>
</g>
<!-- Node37&#45;&gt;Node10 -->
<g id="edge50" class="edge">
<title>Node37&#45;&gt;Node10</title>
<path fill="none" stroke="midnightblue" d="M944.43,-112.42C981.86,-100.2 1021.1,-80.61 998.92,-56 972.36,-26.55 698.3,-15.14 600.42,-11.99"/>
<polygon fill="midnightblue" stroke="midnightblue" points="600.29,-8.48 590.18,-11.67 600.07,-15.48 600.29,-8.48"/>
</g>
<!-- Node37&#45;&gt;Node13 -->
<g id="edge53" class="edge">
<title>Node37&#45;&gt;Node13</title>
<path fill="none" stroke="midnightblue" d="M809.55,-112.45C756.15,-103 684.23,-90.05 611.31,-76.04"/>
<polygon fill="midnightblue" stroke="midnightblue" points="611.97,-72.6 601.49,-74.15 610.65,-79.48 611.97,-72.6"/>
</g>
<!-- Node37&#45;&gt;Node14 -->
<g id="edge55" class="edge">
<title>Node37&#45;&gt;Node14</title>
<path fill="none" stroke="midnightblue" d="M862.9,-112.4C844.28,-102.68 819.71,-89.86 801.42,-80.31"/>
<polygon fill="midnightblue" stroke="midnightblue" points="802.99,-77.18 792.5,-75.66 799.75,-83.39 802.99,-77.18"/>
</g>
<!-- Node37&#45;&gt;Node16 -->
<g id="edge52" class="edge">
<title>Node37&#45;&gt;Node16</title>
<path fill="none" stroke="midnightblue" d="M942.72,-112.47C982.21,-101.99 1035.47,-87.84 1072.04,-78.12"/>
<polygon fill="midnightblue" stroke="midnightblue" points="1073.13,-81.46 1081.89,-75.51 1071.33,-74.69 1073.13,-81.46"/>
</g>
<!-- Node37&#45;&gt;Node19 -->
<g id="edge44" class="edge">
<title>Node37&#45;&gt;Node19</title>
<path fill="none" stroke="midnightblue" d="M975.15,-115.38C1075.92,-102.23 1238.96,-80.96 1310.43,-71.63"/>
<polygon fill="midnightblue" stroke="midnightblue" points="1311.23,-75.06 1320.69,-70.29 1310.32,-68.11 1311.23,-75.06"/>
</g>
<!-- Node37&#45;&gt;Node22 -->
<g id="edge51" class="edge">
<title>Node37&#45;&gt;Node22</title>
<path fill="none" stroke="midnightblue" d="M974.95,-121.81C1194.63,-109.68 1774.65,-77.67 1929.47,-69.12"/>
<polygon fill="midnightblue" stroke="midnightblue" points="1929.67,-72.62 1939.46,-68.57 1929.28,-65.63 1929.67,-72.62"/>
</g>
<!-- Node37&#45;&gt;Node27 -->
<g id="edge54" class="edge">
<title>Node37&#45;&gt;Node27</title>
<path fill="none" stroke="midnightblue" d="M974.97,-123C1241.5,-112.03 2055.95,-78.52 2278.95,-69.34"/>
<polygon fill="midnightblue" stroke="midnightblue" points="2279.27,-72.83 2289.11,-68.93 2278.98,-65.84 2279.27,-72.83"/>
</g>
<!-- Node38 -->
<g id="node38" class="node">
<title>Node38</title>
<g id="a_node38"><a xlink:title=" ">
<polygon fill="white" stroke="#bfbfbf" points="924.42,-56.5 924.42,-75.5 989.42,-75.5 989.42,-56.5 924.42,-56.5"/>
<text text-anchor="middle" x="956.92" y="-63.5" font-family="Helvetica,sans-Serif" font-size="10.00">functional</text>
</a>
</g>
</g>
<!-- Node37&#45;&gt;Node38 -->
<g id="edge46" class="edge">
<title>Node37&#45;&gt;Node38</title>
<path fill="none" stroke="midnightblue" d="M905.79,-112.4C915.93,-103.4 929.08,-91.72 939.5,-82.47"/>
<polygon fill="midnightblue" stroke="midnightblue" points="942.01,-84.92 947.17,-75.66 937.37,-79.68 942.01,-84.92"/>
</g>
<!-- Node39 -->
<g id="node39" class="node">
<title>Node39</title>
<g id="a_node39"><a xlink:title=" ">
<polygon fill="white" stroke="#bfbfbf" points="873.92,-56.5 873.92,-75.5 905.92,-75.5 905.92,-56.5 873.92,-56.5"/>
<text text-anchor="middle" x="889.92" y="-63.5" font-family="Helvetica,sans-Serif" font-size="10.00">list</text>
</a>
</g>
</g>
<!-- Node37&#45;&gt;Node39 -->
<g id="edge48" class="edge">
<title>Node37&#45;&gt;Node39</title>
<path fill="none" stroke="midnightblue" d="M889.92,-112.4C889.92,-104.47 889.92,-94.46 889.92,-85.86"/>
<polygon fill="midnightblue" stroke="midnightblue" points="893.42,-85.66 889.92,-75.66 886.42,-85.66 893.42,-85.66"/>
</g>
<!-- Node40&#45;&gt;Node15 -->
<g id="edge58" class="edge">
<title>Node40&#45;&gt;Node15</title>
<path fill="none" stroke="midnightblue" d="M914.47,-324.43C927.7,-315.03 943.72,-303.65 957.9,-293.58"/>
<polygon fill="midnightblue" stroke="midnightblue" points="960.33,-296.15 966.45,-287.51 956.27,-290.44 960.33,-296.15"/>
</g>
</g>
</svg>
