<?xml version="1.0" encoding="UTF-8" standalone="no"?>
<!DOCTYPE svg PUBLIC "-//W3C//DTD SVG 1.1//EN"
 "http://www.w3.org/Graphics/SVG/1.1/DTD/svg11.dtd">
<!-- Generated by graphviz version 2.43.0 (0)
 -->
<!-- Title: include/cppuddle/kernel_aggregation/util/kokkos_aggregation_util.hpp Pages: 1 -->
<svg width="2690pt" height="566pt"
 viewBox="0.00 0.00 2690.00 566.00" xmlns="http://www.w3.org/2000/svg" xmlns:xlink="http://www.w3.org/1999/xlink">
<g id="graph0" class="graph" transform="scale(1 1) rotate(0) translate(4 562)">
<title>include/cppuddle/kernel_aggregation/util/kokkos_aggregation_util.hpp</title>
<!-- Node1 -->
<g id="Node000001" class="node">
<title>Node1</title>
<g id="a_Node000001"><a xlink:title=" ">
<polygon fill="#999999" stroke="#666666" points="473.5,-558 337.5,-558 337.5,-517 473.5,-517 473.5,-558"/>
<text text-anchor="start" x="345.5" y="-546" font-family="Helvetica,sans-Serif" font-size="10.00">include/cppuddle/kernel</text>
<text text-anchor="start" x="345.5" y="-535" font-family="Helvetica,sans-Serif" font-size="10.00">_aggregation/util/kokkos</text>
<text text-anchor="middle" x="405.5" y="-524" font-family="Helvetica,sans-Serif" font-size="10.00">_aggregation_util.hpp</text>
</a>
</g>
</g>
<!-- Node2 -->
<g id="Node000002" class="node">
<title>Node2</title>
<g id="a_Node000002"><a xlink:title=" ">
<polygon fill="#e0e0e0" stroke="#999999" points="125,-200.5 0,-200.5 0,-181.5 125,-181.5 125,-200.5"/>
<text text-anchor="middle" x="62.5" y="-188.5" font-family="Helvetica,sans-Serif" font-size="10.00">hpx/futures/future.hpp</text>
</a>
</g>
</g>
<!-- Node1&#45;&gt;Node2 -->
<g id="edge1_Node000001_Node000002" class="edge">
<title>Node1&#45;&gt;Node2</title>
<g id="a_edge1_Node000001_Node000002"><a xlink:title=" ">
<path fill="none" stroke="#63b8ff" d="M337.48,-534.94C254.32,-528.99 124.5,-504.84 124.5,-412 124.5,-412 124.5,-412 124.5,-338.5 124.5,-288.32 93.27,-235.58 75.14,-209.18"/>
<polygon fill="#63b8ff" stroke="#63b8ff" points="77.77,-206.84 69.14,-200.7 72.06,-210.89 77.77,-206.84"/>
</a>
</g>
</g>
<!-- Node3 -->
<g id="Node000003" class="node">
<title>Node3</title>
<g id="a_Node000003"><a xlink:title=" ">
<polygon fill="#e0e0e0" stroke="#999999" points="558,-481 415,-481 415,-462 558,-462 558,-481"/>
<text text-anchor="middle" x="486.5" y="-469" font-family="Helvetica,sans-Serif" font-size="10.00">hpx/kokkos/executors.hpp</text>
</a>
</g>
</g>
<!-- Node1&#45;&gt;Node3 -->
<g id="edge2_Node000001_Node000003" class="edge">
<title>Node1&#45;&gt;Node3</title>
<g id="a_edge2_Node000001_Node000003"><a xlink:title=" ">
<path fill="none" stroke="#63b8ff" d="M430.24,-516.95C442.14,-507.55 456.18,-496.46 467.26,-487.7"/>
<polygon fill="#63b8ff" stroke="#63b8ff" points="469.74,-490.21 475.41,-481.26 465.4,-484.71 469.74,-490.21"/>
</a>
</g>
</g>
<!-- Node4 -->
<g id="Node000004" class="node">
<title>Node4</title>
<g id="a_Node000004"><a xlink:title=" ">
<polygon fill="#e0e0e0" stroke="#999999" points="676.5,-481 576.5,-481 576.5,-462 676.5,-462 676.5,-481"/>
<text text-anchor="middle" x="626.5" y="-469" font-family="Helvetica,sans-Serif" font-size="10.00">Kokkos_Core.hpp</text>
</a>
</g>
</g>
<!-- Node1&#45;&gt;Node4 -->
<g id="edge3_Node000001_Node000004" class="edge">
<title>Node1&#45;&gt;Node4</title>
<g id="a_edge3_Node000001_Node000004"><a xlink:title=" ">
<path fill="none" stroke="#63b8ff" d="M473.01,-516.95C510.46,-506.1 555.73,-493 587.36,-483.84"/>
<polygon fill="#63b8ff" stroke="#63b8ff" points="588.49,-487.15 597.12,-481.01 586.54,-480.43 588.49,-487.15"/>
</a>
</g>
</g>
<!-- Node5 -->
<g id="Node000005" class="node">
<title>Node5</title>
<g id="a_Node000005"><a xlink:title=" ">
<polygon fill="#e0e0e0" stroke="#999999" points="786.5,-481 694.5,-481 694.5,-462 786.5,-462 786.5,-481"/>
<text text-anchor="middle" x="740.5" y="-469" font-family="Helvetica,sans-Serif" font-size="10.00">hpx/kokkos.hpp</text>
</a>
</g>
</g>
<!-- Node1&#45;&gt;Node5 -->
<g id="edge4_Node000001_Node000005" class="edge">
<title>Node1&#45;&gt;Node5</title>
<g id="a_edge4_Node000001_Node000005"><a xlink:title=" ">
<path fill="none" stroke="#63b8ff" d="M473.7,-523.47C536.32,-511.51 627.93,-494.01 685.86,-482.94"/>
<polygon fill="#63b8ff" stroke="#63b8ff" points="686.75,-486.33 695.92,-481.02 685.44,-479.46 686.75,-486.33"/>
</a>
</g>
</g>
<!-- Node6 -->
<g id="Node000006" class="node">
<title>Node6</title>
<g id="a_Node000006"><a xlink:href="executor__pools__interface_8hpp.html" target="_top" xlink:title=" ">
<polygon fill="white" stroke="#666666" points="306,-206 143,-206 143,-176 306,-176 306,-206"/>
<text text-anchor="start" x="151" y="-194" font-family="Helvetica,sans-Serif" font-size="10.00">cppuddle/executor_recycling</text>
<text text-anchor="middle" x="224.5" y="-183" font-family="Helvetica,sans-Serif" font-size="10.00">/executor_pools_interface.hpp</text>
</a>
</g>
</g>
<!-- Node1&#45;&gt;Node6 -->
<g id="edge5_Node000001_Node000006" class="edge">
<title>Node1&#45;&gt;Node6</title>
<g id="a_edge5_Node000001_Node000006"><a xlink:title=" ">
<path fill="none" stroke="#63b8ff" d="M337.2,-528.06C304.75,-520.69 267.84,-506.88 243.5,-481 221.71,-457.83 224.5,-443.81 224.5,-412 224.5,-412 224.5,-412 224.5,-338.5 224.5,-295.42 224.5,-245.22 224.5,-216.18"/>
<polygon fill="#63b8ff" stroke="#63b8ff" points="228,-216.14 224.5,-206.14 221,-216.14 228,-216.14"/>
</a>
</g>
</g>
<!-- Node19 -->
<g id="Node000019" class="node">
<title>Node19</title>
<g id="a_Node000019"><a xlink:href="aggregation__manager_8hpp.html" target="_top" xlink:title=" ">
<polygon fill="white" stroke="#666666" points="396.5,-481 252.5,-481 252.5,-462 396.5,-462 396.5,-481"/>
<text text-anchor="middle" x="324.5" y="-469" font-family="Helvetica,sans-Serif" font-size="10.00">aggregation_manager.hpp</text>
</a>
</g>
</g>
<!-- Node1&#45;&gt;Node19 -->
<g id="edge19_Node000001_Node000019" class="edge">
<title>Node1&#45;&gt;Node19</title>
<g id="a_edge19_Node000001_Node000019"><a xlink:title=" ">
<path fill="none" stroke="#63b8ff" d="M380.76,-516.95C368.86,-507.55 354.82,-496.46 343.74,-487.7"/>
<polygon fill="#63b8ff" stroke="#63b8ff" points="345.6,-484.71 335.59,-481.26 341.26,-490.21 345.6,-484.71"/>
</a>
</g>
</g>
<!-- Node7 -->
<g id="Node000007" class="node">
<title>Node7</title>
<g id="a_Node000007"><a xlink:href="executor__pools__management_8hpp.html" target="_top" xlink:title=" ">
<polygon fill="white" stroke="#666666" points="605,-140 390,-140 390,-110 605,-110 605,-140"/>
<text text-anchor="start" x="398" y="-128" font-family="Helvetica,sans-Serif" font-size="10.00">cppuddle/executor_recycling</text>
<text text-anchor="middle" x="497.5" y="-117" font-family="Helvetica,sans-Serif" font-size="10.00">/detail/executor_pools_management.hpp</text>
</a>
</g>
</g>
<!-- Node6&#45;&gt;Node7 -->
<g id="edge6_Node000006_Node000007" class="edge">
<title>Node6&#45;&gt;Node7</title>
<g id="a_edge6_Node000006_Node000007"><a xlink:title=" ">
<path fill="none" stroke="#63b8ff" d="M284.41,-175.95C326.73,-166.03 383.57,-152.71 427.9,-142.32"/>
<polygon fill="#63b8ff" stroke="#63b8ff" points="428.79,-145.7 437.73,-140.01 427.19,-138.89 428.79,-145.7"/>
</a>
</g>
</g>
<!-- Node8 -->
<g id="Node000008" class="node">
<title>Node8</title>
<g id="a_Node000008"><a xlink:title=" ">
<polygon fill="#e0e0e0" stroke="#999999" points="557.5,-74 493.5,-74 493.5,-55 557.5,-55 557.5,-74"/>
<text text-anchor="middle" x="525.5" y="-62" font-family="Helvetica,sans-Serif" font-size="10.00">algorithm</text>
</a>
</g>
</g>
<!-- Node7&#45;&gt;Node8 -->
<g id="edge7_Node000007_Node000008" class="edge">
<title>Node7&#45;&gt;Node8</title>
<g id="a_edge7_Node000007_Node000008"><a xlink:title=" ">
<path fill="none" stroke="#63b8ff" d="M504.28,-109.84C508.09,-101.87 512.89,-91.84 516.96,-83.33"/>
<polygon fill="#63b8ff" stroke="#63b8ff" points="520.14,-84.8 521.3,-74.27 513.83,-81.77 520.14,-84.8"/>
</a>
</g>
</g>
<!-- Node9 -->
<g id="Node000009" class="node">
<title>Node9</title>
<g id="a_Node000009"><a xlink:title=" ">
<polygon fill="#e0e0e0" stroke="#999999" points="617.5,-74 575.5,-74 575.5,-55 617.5,-55 617.5,-74"/>
<text text-anchor="middle" x="596.5" y="-62" font-family="Helvetica,sans-Serif" font-size="10.00">array</text>
</a>
</g>
</g>
<!-- Node7&#45;&gt;Node9 -->
<g id="edge8_Node000007_Node000009" class="edge">
<title>Node7&#45;&gt;Node9</title>
<g id="a_edge8_Node000007_Node000009"><a xlink:title=" ">
<path fill="none" stroke="#63b8ff" d="M521.21,-109.99C536.85,-100.75 557.24,-88.7 572.86,-79.47"/>
<polygon fill="#63b8ff" stroke="#63b8ff" points="575.05,-82.24 581.88,-74.14 571.49,-76.21 575.05,-82.24"/>
</a>
</g>
</g>
<!-- Node10 -->
<g id="Node000010" class="node">
<title>Node10</title>
<g id="a_Node000010"><a xlink:title=" ">
<polygon fill="#e0e0e0" stroke="#999999" points="1916.5,-74 1864.5,-74 1864.5,-55 1916.5,-55 1916.5,-74"/>
<text text-anchor="middle" x="1890.5" y="-62" font-family="Helvetica,sans-Serif" font-size="10.00">cassert</text>
</a>
</g>
</g>
<!-- Node7&#45;&gt;Node10 -->
<g id="edge9_Node000007_Node000010" class="edge">
<title>Node7&#45;&gt;Node10</title>
<g id="a_edge9_Node000007_Node000010"><a xlink:title=" ">
<path fill="none" stroke="#63b8ff" d="M605.13,-122.84C878.49,-119.43 1595.55,-107.63 1854.12,-73.85"/>
<polygon fill="#63b8ff" stroke="#63b8ff" points="1854.79,-77.29 1864.24,-72.48 1853.86,-70.35 1854.79,-77.29"/>
</a>
</g>
</g>
<!-- Node11 -->
<g id="Node000011" class="node">
<title>Node11</title>
<g id="a_Node000011"><a xlink:title=" ">
<polygon fill="#e0e0e0" stroke="#999999" points="410,-74 363,-74 363,-55 410,-55 410,-74"/>
<text text-anchor="middle" x="386.5" y="-62" font-family="Helvetica,sans-Serif" font-size="10.00">deque</text>
</a>
</g>
</g>
<!-- Node7&#45;&gt;Node11 -->
<g id="edge10_Node000007_Node000011" class="edge">
<title>Node7&#45;&gt;Node11</title>
<g id="a_edge10_Node000007_Node000011"><a xlink:title=" ">
<path fill="none" stroke="#63b8ff" d="M470.91,-109.99C453.05,-100.58 429.66,-88.24 412.02,-78.95"/>
<polygon fill="#63b8ff" stroke="#63b8ff" points="413.37,-75.71 402.89,-74.14 410.11,-81.9 413.37,-75.71"/>
</a>
</g>
</g>
<!-- Node12 -->
<g id="Node000012" class="node">
<title>Node12</title>
<g id="a_Node000012"><a xlink:title=" ">
<polygon fill="#e0e0e0" stroke="#999999" points="1994.5,-74 1934.5,-74 1934.5,-55 1994.5,-55 1994.5,-74"/>
<text text-anchor="middle" x="1964.5" y="-62" font-family="Helvetica,sans-Serif" font-size="10.00">iostream</text>
</a>
</g>
</g>
<!-- Node7&#45;&gt;Node12 -->
<g id="edge11_Node000007_Node000012" class="edge">
<title>Node7&#45;&gt;Node12</title>
<g id="a_edge11_Node000007_Node000012"><a xlink:title=" ">
<path fill="none" stroke="#63b8ff" d="M605.12,-122.74C888.33,-119.01 1650.68,-106.33 1924.06,-73.89"/>
<polygon fill="#63b8ff" stroke="#63b8ff" points="1924.86,-77.32 1934.36,-72.63 1924.01,-70.37 1924.86,-77.32"/>
</a>
</g>
</g>
<!-- Node13 -->
<g id="Node000013" class="node">
<title>Node13</title>
<g id="a_Node000013"><a xlink:title=" ">
<polygon fill="#e0e0e0" stroke="#999999" points="791.5,-74 733.5,-74 733.5,-55 791.5,-55 791.5,-74"/>
<text text-anchor="middle" x="762.5" y="-62" font-family="Helvetica,sans-Serif" font-size="10.00">memory</text>
</a>
</g>
</g>
<!-- Node7&#45;&gt;Node13 -->
<g id="edge12_Node000007_Node000013" class="edge">
<title>Node7&#45;&gt;Node13</title>
<g id="a_edge12_Node000007_Node000013"><a xlink:title=" ">
<path fill="none" stroke="#63b8ff" d="M561.6,-109.94C604.68,-100.48 663,-87.64 723.36,-74.25"/>
<polygon fill="#63b8ff" stroke="#63b8ff" points="724.45,-77.59 733.46,-72.01 722.94,-70.76 724.45,-77.59"/>
</a>
</g>
</g>
<!-- Node14 -->
<g id="Node000014" class="node">
<title>Node14</title>
<g id="a_Node000014"><a xlink:title=" ">
<polygon fill="#e0e0e0" stroke="#999999" points="1452.5,-19 1404.5,-19 1404.5,0 1452.5,0 1452.5,-19"/>
<text text-anchor="middle" x="1428.5" y="-7" font-family="Helvetica,sans-Serif" font-size="10.00">mutex</text>
</a>
</g>
</g>
<!-- Node7&#45;&gt;Node14 -->
<g id="edge13_Node000007_Node000014" class="edge">
<title>Node7&#45;&gt;Node14</title>
<g id="a_edge13_Node000007_Node000014"><a xlink:title=" ">
<path fill="none" stroke="#63b8ff" d="M536.23,-109.95C562.03,-100.36 596.56,-87.07 626.5,-74 644.17,-66.29 646.85,-59.88 665.5,-55 806.13,-18.22 1264.9,-11.8 1394.26,-10.71"/>
<polygon fill="#63b8ff" stroke="#63b8ff" points="1394.4,-14.21 1404.38,-10.64 1394.35,-7.21 1394.4,-14.21"/>
</a>
</g>
</g>
<!-- Node15 -->
<g id="Node000015" class="node">
<title>Node15</title>
<g id="a_Node000015"><a xlink:title=" ">
<polygon fill="#e0e0e0" stroke="#999999" points="475,-74 428,-74 428,-55 475,-55 475,-74"/>
<text text-anchor="middle" x="451.5" y="-62" font-family="Helvetica,sans-Serif" font-size="10.00">queue</text>
</a>
</g>
</g>
<!-- Node7&#45;&gt;Node15 -->
<g id="edge14_Node000007_Node000015" class="edge">
<title>Node7&#45;&gt;Node15</title>
<g id="a_edge14_Node000007_Node000015"><a xlink:title=" ">
<path fill="none" stroke="#63b8ff" d="M486.36,-109.84C479.82,-101.52 471.52,-90.96 464.66,-82.23"/>
<polygon fill="#63b8ff" stroke="#63b8ff" points="467.33,-79.96 458.39,-74.27 461.82,-84.29 467.33,-79.96"/>
</a>
</g>
</g>
<!-- Node16 -->
<g id="Node000016" class="node">
<title>Node16</title>
<g id="a_Node000016"><a xlink:title=" ">
<polygon fill="#e0e0e0" stroke="#999999" points="715,-74 674,-74 674,-55 715,-55 715,-74"/>
<text text-anchor="middle" x="694.5" y="-62" font-family="Helvetica,sans-Serif" font-size="10.00">tuple</text>
</a>
</g>
</g>
<!-- Node7&#45;&gt;Node16 -->
<g id="edge15_Node000007_Node000016" class="edge">
<title>Node7&#45;&gt;Node16</title>
<g id="a_edge15_Node000007_Node000016"><a xlink:title=" ">
<path fill="none" stroke="#63b8ff" d="M544.69,-109.99C581.77,-98.98 632.31,-83.97 664.17,-74.51"/>
<polygon fill="#63b8ff" stroke="#63b8ff" points="665.23,-77.84 673.82,-71.64 663.23,-71.13 665.23,-77.84"/>
</a>
</g>
</g>
<!-- Node17 -->
<g id="Node000017" class="node">
<title>Node17</title>
<g id="a_Node000017"><a xlink:title=" ">
<polygon fill="#e0e0e0" stroke="#999999" points="1846,-74 1777,-74 1777,-55 1846,-55 1846,-74"/>
<text text-anchor="middle" x="1811.5" y="-62" font-family="Helvetica,sans-Serif" font-size="10.00">type_traits</text>
</a>
</g>
</g>
<!-- Node7&#45;&gt;Node17 -->
<g id="edge16_Node000007_Node000017" class="edge">
<title>Node7&#45;&gt;Node17</title>
<g id="a_edge16_Node000007_Node000017"><a xlink:title=" ">
<path fill="none" stroke="#63b8ff" d="M605.03,-119.21C876.65,-107.12 1581.88,-75.72 1766.65,-67.5"/>
<polygon fill="#63b8ff" stroke="#63b8ff" points="1766.98,-70.99 1776.81,-67.04 1766.67,-63.99 1766.98,-70.99"/>
</a>
</g>
</g>
<!-- Node18 -->
<g id="Node000018" class="node">
<title>Node18</title>
<g id="a_Node000018"><a xlink:href="config_8hpp.html" target="_top" xlink:title=" ">
<polygon fill="white" stroke="#666666" points="2496.5,-74 2336.5,-74 2336.5,-55 2496.5,-55 2496.5,-74"/>
<text text-anchor="middle" x="2416.5" y="-62" font-family="Helvetica,sans-Serif" font-size="10.00">cppuddle/common/config.hpp</text>
</a>
</g>
</g>
<!-- Node7&#45;&gt;Node18 -->
<g id="edge17_Node000007_Node000018" class="edge">
<title>Node7&#45;&gt;Node18</title>
<g id="a_edge17_Node000007_Node000018"><a xlink:title=" ">
<path fill="none" stroke="#63b8ff" d="M605.13,-123.61C886.29,-122.04 1666.15,-114.16 2326.27,-74.03"/>
<polygon fill="#63b8ff" stroke="#63b8ff" points="2326.7,-77.51 2336.47,-73.4 2326.27,-70.52 2326.7,-77.51"/>
</a>
</g>
</g>
<!-- Node18&#45;&gt;Node14 -->
<g id="edge18_Node000018_Node000014" class="edge">
<title>Node18&#45;&gt;Node14</title>
<g id="a_edge18_Node000018_Node000014"><a xlink:title=" ">
<path fill="none" stroke="#63b8ff" d="M2336.46,-55.68C2333.44,-55.44 2330.44,-55.21 2327.5,-55 1990.87,-30.61 1582.35,-15.7 1462.86,-11.63"/>
<polygon fill="#63b8ff" stroke="#63b8ff" points="1462.95,-8.14 1452.84,-11.3 1462.72,-15.13 1462.95,-8.14"/>
</a>
</g>
</g>
<!-- Node20 -->
<g id="Node000020" class="node">
<title>Node20</title>
<g id="a_Node000020"><a xlink:href="kernel__aggregation__interface_8hpp.html" target="_top" xlink:title=" ">
<polygon fill="white" stroke="#666666" points="719,-426 536,-426 536,-396 719,-396 719,-426"/>
<text text-anchor="start" x="544" y="-414" font-family="Helvetica,sans-Serif" font-size="10.00">cppuddle/kernel_aggregation</text>
<text text-anchor="middle" x="627.5" y="-403" font-family="Helvetica,sans-Serif" font-size="10.00">/kernel_aggregation_interface.hpp</text>
</a>
</g>
</g>
<!-- Node19&#45;&gt;Node20 -->
<g id="edge20_Node000019_Node000020" class="edge">
<title>Node19&#45;&gt;Node20</title>
<g id="a_edge20_Node000019_Node000020"><a xlink:title=" ">
<path fill="none" stroke="#63b8ff" d="M368.56,-461.99C414.62,-453.1 487.99,-438.94 544.89,-427.95"/>
<polygon fill="#63b8ff" stroke="#63b8ff" points="545.79,-431.34 554.95,-426.01 544.47,-424.47 545.79,-431.34"/>
</a>
</g>
</g>
<!-- Node20&#45;&gt;Node6 -->
<g id="edge21_Node000020_Node000006" class="edge">
<title>Node20&#45;&gt;Node6</title>
<g id="a_edge21_Node000020_Node000006"><a xlink:title=" ">
<path fill="none" stroke="#63b8ff" d="M601.37,-395.86C531.31,-357.97 339.23,-254.06 259.7,-211.04"/>
<polygon fill="#63b8ff" stroke="#63b8ff" points="261.03,-207.78 250.57,-206.1 257.7,-213.94 261.03,-207.78"/>
</a>
</g>
</g>
<!-- Node21 -->
<g id="Node000021" class="node">
<title>Node21</title>
<g id="a_Node000021"><a xlink:href="aggregation__executors__and__allocators_8hpp.html" target="_top" xlink:title=" ">
<polygon fill="white" stroke="#666666" points="1099,-283 938,-283 938,-242 1099,-242 1099,-283"/>
<text text-anchor="start" x="946" y="-271" font-family="Helvetica,sans-Serif" font-size="10.00">cppuddle/kernel_aggregation</text>
<text text-anchor="start" x="946" y="-260" font-family="Helvetica,sans-Serif" font-size="10.00">/detail/aggregation_executors</text>
<text text-anchor="middle" x="1018.5" y="-249" font-family="Helvetica,sans-Serif" font-size="10.00">_and_allocators.hpp</text>
</a>
</g>
</g>
<!-- Node20&#45;&gt;Node21 -->
<g id="edge22_Node000020_Node000021" class="edge">
<title>Node20&#45;&gt;Node21</title>
<g id="a_edge22_Node000020_Node000021"><a xlink:title=" ">
<path fill="none" stroke="#63b8ff" d="M676.24,-395.91C707.9,-386.45 749.93,-373.32 786.5,-360 848.81,-337.3 918.93,-307.53 965.61,-287.09"/>
<polygon fill="#63b8ff" stroke="#63b8ff" points="967.17,-290.23 974.92,-283 964.35,-283.82 967.17,-290.23"/>
</a>
</g>
</g>
<!-- Node45 -->
<g id="Node000045" class="node">
<title>Node45</title>
<g id="a_Node000045"><a xlink:href="aggregation__executor__pools_8hpp.html" target="_top" xlink:title=" ">
<polygon fill="white" stroke="#666666" points="777.5,-360 619.5,-360 619.5,-319 777.5,-319 777.5,-360"/>
<text text-anchor="start" x="627.5" y="-348" font-family="Helvetica,sans-Serif" font-size="10.00">cppuddle/kernel_aggregation</text>
<text text-anchor="start" x="627.5" y="-337" font-family="Helvetica,sans-Serif" font-size="10.00">/detail/aggregation_executor</text>
<text text-anchor="middle" x="698.5" y="-326" font-family="Helvetica,sans-Serif" font-size="10.00">_pools.hpp</text>
</a>
</g>
</g>
<!-- Node20&#45;&gt;Node45 -->
<g id="edge64_Node000020_Node000045" class="edge">
<title>Node20&#45;&gt;Node45</title>
<g id="a_edge64_Node000020_Node000045"><a xlink:title=" ">
<path fill="none" stroke="#63b8ff" d="M641.87,-395.94C650.26,-387.72 661.14,-377.07 671.11,-367.31"/>
<polygon fill="#63b8ff" stroke="#63b8ff" points="673.81,-369.57 678.5,-360.07 668.91,-364.57 673.81,-369.57"/>
</a>
</g>
</g>
<!-- Node21&#45;&gt;Node2 -->
<g id="edge40_Node000021_Node000002" class="edge">
<title>Node21&#45;&gt;Node2</title>
<g id="a_edge40_Node000021_Node000002"><a xlink:title=" ">
<path fill="none" stroke="#63b8ff" d="M937.93,-260C782,-256.32 428.35,-244.15 133.5,-206 126.22,-205.06 118.56,-203.82 111.08,-202.46"/>
<polygon fill="#63b8ff" stroke="#63b8ff" points="111.52,-198.98 101.04,-200.56 110.21,-205.86 111.52,-198.98"/>
</a>
</g>
</g>
<!-- Node21&#45;&gt;Node6 -->
<g id="edge63_Node000021_Node000006" class="edge">
<title>Node21&#45;&gt;Node6</title>
<g id="a_edge63_Node000021_Node000006"><a xlink:title=" ">
<path fill="none" stroke="#63b8ff" d="M937.99,-256.82C807.91,-248.86 543.53,-231.1 320.5,-206 319.18,-205.85 317.85,-205.7 316.52,-205.54"/>
<polygon fill="#63b8ff" stroke="#63b8ff" points="316.5,-202.02 306.15,-204.28 315.66,-208.96 316.5,-202.02"/>
</a>
</g>
</g>
<!-- Node21&#45;&gt;Node12 -->
<g id="edge29_Node000021_Node000012" class="edge">
<title>Node21&#45;&gt;Node12</title>
<g id="a_edge29_Node000021_Node000012"><a xlink:title=" ">
<path fill="none" stroke="#63b8ff" d="M1099.33,-260.21C1339.04,-256.01 2031.42,-240.88 2064.5,-206 2104.15,-164.19 2027.67,-105.84 1987.26,-79.45"/>
<polygon fill="#63b8ff" stroke="#63b8ff" points="1989.09,-76.46 1978.78,-74.03 1985.32,-82.36 1989.09,-76.46"/>
</a>
</g>
</g>
<!-- Node21&#45;&gt;Node13 -->
<g id="edge30_Node000021_Node000013" class="edge">
<title>Node21&#45;&gt;Node13</title>
<g id="a_edge30_Node000021_Node000013"><a xlink:title=" ">
<path fill="none" stroke="#63b8ff" d="M937.79,-259.8C784.41,-255.73 463.05,-242.86 429.5,-206 420.53,-196.14 420.87,-186.17 429.5,-176 493.03,-101.12 555.92,-175.44 647.5,-140 684.94,-125.51 722.99,-97.75 744.58,-80.51"/>
<polygon fill="#63b8ff" stroke="#63b8ff" points="746.97,-83.08 752.52,-74.05 742.55,-77.65 746.97,-83.08"/>
</a>
</g>
</g>
<!-- Node21&#45;&gt;Node14 -->
<g id="edge31_Node000021_Node000014" class="edge">
<title>Node21&#45;&gt;Node14</title>
<g id="a_edge31_Node000021_Node000014"><a xlink:title=" ">
<path fill="none" stroke="#63b8ff" d="M937.77,-258.79C781.48,-252.89 449.23,-236.85 407.5,-206 350.18,-163.63 304.16,-106.43 353.5,-55 390.37,-16.57 1214.92,-11.29 1394.27,-10.6"/>
<polygon fill="#63b8ff" stroke="#63b8ff" points="1394.45,-14.1 1404.44,-10.56 1394.43,-7.1 1394.45,-14.1"/>
</a>
</g>
</g>
<!-- Node21&#45;&gt;Node16 -->
<g id="edge35_Node000021_Node000016" class="edge">
<title>Node21&#45;&gt;Node16</title>
<g id="a_edge35_Node000021_Node000016"><a xlink:title=" ">
<path fill="none" stroke="#63b8ff" d="M937.79,-259.95C782.16,-256.13 452.82,-243.64 418.5,-206 409.52,-196.15 409.97,-186.24 418.5,-176 475.19,-107.95 535.36,-179.77 614.5,-140 616.41,-139.04 655.1,-102.68 677.96,-81.12"/>
<polygon fill="#63b8ff" stroke="#63b8ff" points="680.43,-83.6 685.3,-74.19 675.63,-78.51 680.43,-83.6"/>
</a>
</g>
</g>
<!-- Node21&#45;&gt;Node17 -->
<g id="edge36_Node000021_Node000017" class="edge">
<title>Node21&#45;&gt;Node17</title>
<g id="a_edge36_Node000021_Node000017"><a xlink:title=" ">
<path fill="none" stroke="#63b8ff" d="M1099.04,-260.13C1335.32,-255.73 2012.12,-240.18 2044.5,-206 2107.79,-139.19 1939.79,-92.69 1855.89,-74.29"/>
<polygon fill="#63b8ff" stroke="#63b8ff" points="1856.61,-70.86 1846.1,-72.18 1855.14,-77.71 1856.61,-70.86"/>
</a>
</g>
</g>
<!-- Node21&#45;&gt;Node18 -->
<g id="edge49_Node000021_Node000018" class="edge">
<title>Node21&#45;&gt;Node18</title>
<g id="a_edge49_Node000021_Node000018"><a xlink:title=" ">
<path fill="none" stroke="#63b8ff" d="M1099.13,-261.5C1333.67,-260.93 2012.65,-254.96 2228.5,-206 2301.92,-189.35 2331.12,-193.09 2384.5,-140 2399.91,-124.68 2408.37,-100.74 2412.66,-84.16"/>
<polygon fill="#63b8ff" stroke="#63b8ff" points="2416.16,-84.57 2415,-74.04 2409.34,-83 2416.16,-84.57"/>
</a>
</g>
</g>
<!-- Node22 -->
<g id="Node000022" class="node">
<title>Node22</title>
<g id="a_Node000022"><a xlink:title=" ">
<polygon fill="#e0e0e0" stroke="#999999" points="2078,-74 2013,-74 2013,-55 2078,-55 2078,-74"/>
<text text-anchor="middle" x="2045.5" y="-62" font-family="Helvetica,sans-Serif" font-size="10.00">stdexcept</text>
</a>
</g>
</g>
<!-- Node21&#45;&gt;Node22 -->
<g id="edge23_Node000021_Node000022" class="edge">
<title>Node21&#45;&gt;Node22</title>
<g id="a_edge23_Node000021_Node000022"><a xlink:title=" ">
<path fill="none" stroke="#63b8ff" d="M1099.08,-260.3C1341.52,-256.29 2049.72,-241.58 2083.5,-206 2116.31,-171.44 2080.16,-111.55 2058.84,-82.41"/>
<polygon fill="#63b8ff" stroke="#63b8ff" points="2061.38,-79.95 2052.55,-74.1 2055.8,-84.18 2061.38,-79.95"/>
</a>
</g>
</g>
<!-- Node23 -->
<g id="Node000023" class="node">
<title>Node23</title>
<g id="a_Node000023"><a xlink:title=" ">
<polygon fill="#e0e0e0" stroke="#999999" points="488.5,-200.5 438.5,-200.5 438.5,-181.5 488.5,-181.5 488.5,-200.5"/>
<text text-anchor="middle" x="463.5" y="-188.5" font-family="Helvetica,sans-Serif" font-size="10.00">stdio.h</text>
</a>
</g>
</g>
<!-- Node21&#45;&gt;Node23 -->
<g id="edge24_Node000021_Node000023" class="edge">
<title>Node21&#45;&gt;Node23</title>
<g id="a_edge24_Node000021_Node000023"><a xlink:title=" ">
<path fill="none" stroke="#63b8ff" d="M937.58,-259.7C834.29,-255.86 650.72,-243.8 498.5,-206 496.2,-205.43 493.84,-204.74 491.5,-203.97"/>
<polygon fill="#63b8ff" stroke="#63b8ff" points="492.67,-200.67 482.08,-200.53 490.27,-207.25 492.67,-200.67"/>
</a>
</g>
</g>
<!-- Node24 -->
<g id="Node000024" class="node">
<title>Node24</title>
<g id="a_Node000024"><a xlink:title=" ">
<polygon fill="#e0e0e0" stroke="#999999" points="542,-200.5 507,-200.5 507,-181.5 542,-181.5 542,-200.5"/>
<text text-anchor="middle" x="524.5" y="-188.5" font-family="Helvetica,sans-Serif" font-size="10.00">any</text>
</a>
</g>
</g>
<!-- Node21&#45;&gt;Node24 -->
<g id="edge25_Node000021_Node000024" class="edge">
<title>Node21&#45;&gt;Node24</title>
<g id="a_edge25_Node000021_Node000024"><a xlink:title=" ">
<path fill="none" stroke="#63b8ff" d="M937.79,-260.64C843.23,-257.65 682.8,-246.38 551.5,-206 550.28,-205.62 549.05,-205.2 547.82,-204.73"/>
<polygon fill="#63b8ff" stroke="#63b8ff" points="549.22,-201.52 538.66,-200.56 546.31,-207.89 549.22,-201.52"/>
</a>
</g>
</g>
<!-- Node25 -->
<g id="Node000025" class="node">
<title>Node25</title>
<g id="a_Node000025"><a xlink:title=" ">
<polygon fill="#e0e0e0" stroke="#999999" points="2146.5,-74 2096.5,-74 2096.5,-55 2146.5,-55 2146.5,-74"/>
<text text-anchor="middle" x="2121.5" y="-62" font-family="Helvetica,sans-Serif" font-size="10.00">atomic</text>
</a>
</g>
</g>
<!-- Node21&#45;&gt;Node25 -->
<g id="edge26_Node000021_Node000025" class="edge">
<title>Node21&#45;&gt;Node25</title>
<g id="a_edge26_Node000021_Node000025"><a xlink:title=" ">
<path fill="none" stroke="#63b8ff" d="M1099.09,-260.18C1344.26,-255.79 2066.77,-240.03 2103.5,-206 2137.09,-174.88 2131.34,-114.69 2125.71,-84.19"/>
<polygon fill="#63b8ff" stroke="#63b8ff" points="2129.07,-83.17 2123.63,-74.08 2122.21,-84.58 2129.07,-83.17"/>
</a>
</g>
</g>
<!-- Node26 -->
<g id="Node000026" class="node">
<title>Node26</title>
<g id="a_Node000026"><a xlink:title=" ">
<polygon fill="#e0e0e0" stroke="#999999" points="610.5,-200.5 560.5,-200.5 560.5,-181.5 610.5,-181.5 610.5,-200.5"/>
<text text-anchor="middle" x="585.5" y="-188.5" font-family="Helvetica,sans-Serif" font-size="10.00">chrono</text>
</a>
</g>
</g>
<!-- Node21&#45;&gt;Node26 -->
<g id="edge27_Node000021_Node000026" class="edge">
<title>Node21&#45;&gt;Node26</title>
<g id="a_edge27_Node000021_Node000026"><a xlink:title=" ">
<path fill="none" stroke="#63b8ff" d="M937.82,-256.28C856.37,-249.61 727.51,-235.24 619.5,-206 617.56,-205.47 615.58,-204.87 613.6,-204.2"/>
<polygon fill="#63b8ff" stroke="#63b8ff" points="614.5,-200.8 603.91,-200.57 612.05,-207.36 614.5,-200.8"/>
</a>
</g>
</g>
<!-- Node27 -->
<g id="Node000027" class="node">
<title>Node27</title>
<g id="a_Node000027"><a xlink:title=" ">
<polygon fill="#e0e0e0" stroke="#999999" points="674.5,-200.5 628.5,-200.5 628.5,-181.5 674.5,-181.5 674.5,-200.5"/>
<text text-anchor="middle" x="651.5" y="-188.5" font-family="Helvetica,sans-Serif" font-size="10.00">cstdio</text>
</a>
</g>
</g>
<!-- Node21&#45;&gt;Node27 -->
<g id="edge28_Node000021_Node000027" class="edge">
<title>Node21&#45;&gt;Node27</title>
<g id="a_edge28_Node000021_Node000027"><a xlink:title=" ">
<path fill="none" stroke="#63b8ff" d="M937.68,-253.5C869.28,-245.44 769.17,-230.62 684.5,-206 682.82,-205.51 681.1,-204.96 679.39,-204.36"/>
<polygon fill="#63b8ff" stroke="#63b8ff" points="680.31,-200.97 669.72,-200.64 677.79,-207.5 680.31,-200.97"/>
</a>
</g>
</g>
<!-- Node28 -->
<g id="Node000028" class="node">
<title>Node28</title>
<g id="a_Node000028"><a xlink:title=" ">
<polygon fill="#e0e0e0" stroke="#999999" points="2570.5,-74 2514.5,-74 2514.5,-55 2570.5,-55 2570.5,-74"/>
<text text-anchor="middle" x="2542.5" y="-62" font-family="Helvetica,sans-Serif" font-size="10.00">optional</text>
</a>
</g>
</g>
<!-- Node21&#45;&gt;Node28 -->
<g id="edge32_Node000021_Node000028" class="edge">
<title>Node21&#45;&gt;Node28</title>
<g id="a_edge32_Node000021_Node000028"><a xlink:title=" ">
<path fill="none" stroke="#63b8ff" d="M1099.35,-260.2C1362.17,-255.68 2182.08,-239.05 2296.5,-206 2389.19,-179.23 2484.27,-110.99 2523.66,-80.55"/>
<polygon fill="#63b8ff" stroke="#63b8ff" points="2525.89,-83.25 2531.61,-74.33 2521.58,-77.73 2525.89,-83.25"/>
</a>
</g>
</g>
<!-- Node29 -->
<g id="Node000029" class="node">
<title>Node29</title>
<g id="a_Node000029"><a xlink:title=" ">
<polygon fill="#e0e0e0" stroke="#999999" points="750,-200.5 693,-200.5 693,-181.5 750,-181.5 750,-200.5"/>
<text text-anchor="middle" x="721.5" y="-188.5" font-family="Helvetica,sans-Serif" font-size="10.00">ostream</text>
</a>
</g>
</g>
<!-- Node21&#45;&gt;Node29 -->
<g id="edge33_Node000021_Node000029" class="edge">
<title>Node21&#45;&gt;Node29</title>
<g id="a_edge33_Node000021_Node000029"><a xlink:title=" ">
<path fill="none" stroke="#63b8ff" d="M937.85,-247.27C886.37,-237.45 818.47,-223.09 759.5,-206 757.22,-205.34 754.88,-204.61 752.54,-203.84"/>
<polygon fill="#63b8ff" stroke="#63b8ff" points="753.62,-200.51 743.03,-200.53 751.32,-207.12 753.62,-200.51"/>
</a>
</g>
</g>
<!-- Node30 -->
<g id="Node000030" class="node">
<title>Node30</title>
<g id="a_Node000030"><a xlink:title=" ">
<polygon fill="#e0e0e0" stroke="#999999" points="812.5,-200.5 768.5,-200.5 768.5,-181.5 812.5,-181.5 812.5,-200.5"/>
<text text-anchor="middle" x="790.5" y="-188.5" font-family="Helvetica,sans-Serif" font-size="10.00">string</text>
</a>
</g>
</g>
<!-- Node21&#45;&gt;Node30 -->
<g id="edge34_Node000021_Node000030" class="edge">
<title>Node21&#45;&gt;Node30</title>
<g id="a_edge34_Node000021_Node000030"><a xlink:title=" ">
<path fill="none" stroke="#63b8ff" d="M939.99,-241.9C903.85,-232.21 860.62,-219.66 822.5,-206 821.11,-205.5 819.69,-204.97 818.27,-204.42"/>
<polygon fill="#63b8ff" stroke="#63b8ff" points="819.52,-201.15 808.94,-200.58 816.85,-207.62 819.52,-201.15"/>
</a>
</g>
</g>
<!-- Node31 -->
<g id="Node000031" class="node">
<title>Node31</title>
<g id="a_Node000031"><a xlink:title=" ">
<polygon fill="#e0e0e0" stroke="#999999" points="888,-200.5 831,-200.5 831,-181.5 888,-181.5 888,-200.5"/>
<text text-anchor="middle" x="859.5" y="-188.5" font-family="Helvetica,sans-Serif" font-size="10.00">typeinfo</text>
</a>
</g>
</g>
<!-- Node21&#45;&gt;Node31 -->
<g id="edge37_Node000021_Node000031" class="edge">
<title>Node21&#45;&gt;Node31</title>
<g id="a_edge37_Node000021_Node000031"><a xlink:title=" ">
<path fill="none" stroke="#63b8ff" d="M973.79,-241.96C946.34,-229.96 912,-214.95 888.16,-204.53"/>
<polygon fill="#63b8ff" stroke="#63b8ff" points="889.52,-201.3 878.95,-200.5 886.72,-207.72 889.52,-201.3"/>
</a>
</g>
</g>
<!-- Node32 -->
<g id="Node000032" class="node">
<title>Node32</title>
<g id="a_Node000032"><a xlink:title=" ">
<polygon fill="#e0e0e0" stroke="#999999" points="951,-200.5 906,-200.5 906,-181.5 951,-181.5 951,-200.5"/>
<text text-anchor="middle" x="928.5" y="-188.5" font-family="Helvetica,sans-Serif" font-size="10.00">utility</text>
</a>
</g>
</g>
<!-- Node21&#45;&gt;Node32 -->
<g id="edge38_Node000021_Node000032" class="edge">
<title>Node21&#45;&gt;Node32</title>
<g id="a_edge38_Node000021_Node000032"><a xlink:title=" ">
<path fill="none" stroke="#63b8ff" d="M992.95,-241.77C978.63,-230.71 961.05,-217.13 947.87,-206.96"/>
<polygon fill="#63b8ff" stroke="#63b8ff" points="949.98,-204.16 939.92,-200.82 945.7,-209.7 949.98,-204.16"/>
</a>
</g>
</g>
<!-- Node33 -->
<g id="Node000033" class="node">
<title>Node33</title>
<g id="a_Node000033"><a xlink:title=" ">
<polygon fill="#e0e0e0" stroke="#999999" points="2682,-74 2589,-74 2589,-55 2682,-55 2682,-74"/>
<text text-anchor="middle" x="2635.5" y="-62" font-family="Helvetica,sans-Serif" font-size="10.00">unordered_map</text>
</a>
</g>
</g>
<!-- Node21&#45;&gt;Node33 -->
<g id="edge39_Node000021_Node000033" class="edge">
<title>Node21&#45;&gt;Node33</title>
<g id="a_edge39_Node000021_Node000033"><a xlink:title=" ">
<path fill="none" stroke="#63b8ff" d="M1099.11,-260.05C1368.31,-254.93 2226.03,-236.4 2346.5,-206 2453.53,-179 2567.76,-109.8 2614.12,-79.77"/>
<polygon fill="#63b8ff" stroke="#63b8ff" points="2616.26,-82.55 2622.71,-74.14 2612.43,-76.69 2616.26,-82.55"/>
</a>
</g>
</g>
<!-- Node34 -->
<g id="Node000034" class="node">
<title>Node34</title>
<g id="a_Node000034"><a xlink:title=" ">
<polygon fill="#e0e0e0" stroke="#999999" points="1067.5,-200.5 969.5,-200.5 969.5,-181.5 1067.5,-181.5 1067.5,-200.5"/>
<text text-anchor="middle" x="1018.5" y="-188.5" font-family="Helvetica,sans-Serif" font-size="10.00">hpx/hpx_init.hpp</text>
</a>
</g>
</g>
<!-- Node21&#45;&gt;Node34 -->
<g id="edge41_Node000021_Node000034" class="edge">
<title>Node21&#45;&gt;Node34</title>
<g id="a_edge41_Node000021_Node000034"><a xlink:title=" ">
<path fill="none" stroke="#63b8ff" d="M1018.5,-241.77C1018.5,-232.08 1018.5,-220.46 1018.5,-210.88"/>
<polygon fill="#63b8ff" stroke="#63b8ff" points="1022,-210.82 1018.5,-200.82 1015,-210.82 1022,-210.82"/>
</a>
</g>
</g>
<!-- Node35 -->
<g id="Node000035" class="node">
<title>Node35</title>
<g id="a_Node000035"><a xlink:title=" ">
<polygon fill="#e0e0e0" stroke="#999999" points="1211,-200.5 1086,-200.5 1086,-181.5 1211,-181.5 1211,-200.5"/>
<text text-anchor="middle" x="1148.5" y="-188.5" font-family="Helvetica,sans-Serif" font-size="10.00">hpx/include/async.hpp</text>
</a>
</g>
</g>
<!-- Node21&#45;&gt;Node35 -->
<g id="edge42_Node000021_Node000035" class="edge">
<title>Node21&#45;&gt;Node35</title>
<g id="a_edge42_Node000021_Node000035"><a xlink:title=" ">
<path fill="none" stroke="#63b8ff" d="M1055.06,-241.96C1077,-230.22 1104.33,-215.61 1123.75,-205.23"/>
<polygon fill="#63b8ff" stroke="#63b8ff" points="1125.43,-208.3 1132.59,-200.5 1122.13,-202.13 1125.43,-208.3"/>
</a>
</g>
</g>
<!-- Node36 -->
<g id="Node000036" class="node">
<title>Node36</title>
<g id="a_Node000036"><a xlink:title=" ">
<polygon fill="#e0e0e0" stroke="#999999" points="1375.5,-200.5 1229.5,-200.5 1229.5,-181.5 1375.5,-181.5 1375.5,-200.5"/>
<text text-anchor="middle" x="1302.5" y="-188.5" font-family="Helvetica,sans-Serif" font-size="10.00">hpx/include/iostreams.hpp</text>
</a>
</g>
</g>
<!-- Node21&#45;&gt;Node36 -->
<g id="edge43_Node000021_Node000036" class="edge">
<title>Node21&#45;&gt;Node36</title>
<g id="a_edge43_Node000021_Node000036"><a xlink:title=" ">
<path fill="none" stroke="#63b8ff" d="M1098.37,-241.96C1150.01,-229.32 1215.31,-213.34 1257.95,-202.9"/>
<polygon fill="#63b8ff" stroke="#63b8ff" points="1258.87,-206.28 1267.75,-200.5 1257.21,-199.48 1258.87,-206.28"/>
</a>
</g>
</g>
<!-- Node37 -->
<g id="Node000037" class="node">
<title>Node37</title>
<g id="a_Node000037"><a xlink:title=" ">
<polygon fill="#e0e0e0" stroke="#999999" points="1509.5,-200.5 1393.5,-200.5 1393.5,-181.5 1509.5,-181.5 1509.5,-200.5"/>
<text text-anchor="middle" x="1451.5" y="-188.5" font-family="Helvetica,sans-Serif" font-size="10.00">hpx/include/lcos.hpp</text>
</a>
</g>
</g>
<!-- Node21&#45;&gt;Node37 -->
<g id="edge44_Node000021_Node000037" class="edge">
<title>Node21&#45;&gt;Node37</title>
<g id="a_edge44_Node000021_Node000037"><a xlink:title=" ">
<path fill="none" stroke="#63b8ff" d="M1099.04,-250.6C1173.34,-240.23 1286.62,-223.63 1384.5,-206 1390.34,-204.95 1396.46,-203.77 1402.52,-202.56"/>
<polygon fill="#63b8ff" stroke="#63b8ff" points="1403.5,-205.93 1412.6,-200.51 1402.1,-199.07 1403.5,-205.93"/>
</a>
</g>
</g>
<!-- Node38 -->
<g id="Node000038" class="node">
<title>Node38</title>
<g id="a_Node000038"><a xlink:title=" ">
<polygon fill="#e0e0e0" stroke="#999999" points="1649,-200.5 1528,-200.5 1528,-181.5 1649,-181.5 1649,-200.5"/>
<text text-anchor="middle" x="1588.5" y="-188.5" font-family="Helvetica,sans-Serif" font-size="10.00">hpx/lcos/promise.hpp</text>
</a>
</g>
</g>
<!-- Node21&#45;&gt;Node38 -->
<g id="edge45_Node000021_Node000038" class="edge">
<title>Node21&#45;&gt;Node38</title>
<g id="a_edge45_Node000021_Node000038"><a xlink:title=" ">
<path fill="none" stroke="#63b8ff" d="M1099.32,-254.71C1198.42,-245.87 1371.35,-228.84 1518.5,-206 1525.16,-204.97 1532.16,-203.74 1539.04,-202.45"/>
<polygon fill="#63b8ff" stroke="#63b8ff" points="1539.84,-205.86 1549,-200.52 1538.51,-198.98 1539.84,-205.86"/>
</a>
</g>
</g>
<!-- Node39 -->
<g id="Node000039" class="node">
<title>Node39</title>
<g id="a_Node000039"><a xlink:title=" ">
<polygon fill="#e0e0e0" stroke="#999999" points="1757.5,-200.5 1667.5,-200.5 1667.5,-181.5 1757.5,-181.5 1757.5,-200.5"/>
<text text-anchor="middle" x="1712.5" y="-188.5" font-family="Helvetica,sans-Serif" font-size="10.00">hpx/mutex.hpp</text>
</a>
</g>
</g>
<!-- Node21&#45;&gt;Node39 -->
<g id="edge46_Node000021_Node000039" class="edge">
<title>Node21&#45;&gt;Node39</title>
<g id="a_edge46_Node000021_Node000039"><a xlink:title=" ">
<path fill="none" stroke="#63b8ff" d="M1099.12,-258.83C1221.01,-253.82 1459.13,-240.24 1658.5,-206 1663.32,-205.17 1668.33,-204.13 1673.28,-202.98"/>
<polygon fill="#63b8ff" stroke="#63b8ff" points="1674.39,-206.31 1683.27,-200.53 1672.72,-199.52 1674.39,-206.31"/>
</a>
</g>
</g>
<!-- Node40 -->
<g id="Node000040" class="node">
<title>Node40</title>
<g id="a_Node000040"><a xlink:title=" ">
<polygon fill="#e0e0e0" stroke="#999999" points="1915.5,-200.5 1775.5,-200.5 1775.5,-181.5 1915.5,-181.5 1915.5,-200.5"/>
<text text-anchor="middle" x="1845.5" y="-188.5" font-family="Helvetica,sans-Serif" font-size="10.00">boost/core/demangle.hpp</text>
</a>
</g>
</g>
<!-- Node21&#45;&gt;Node40 -->
<g id="edge47_Node000021_Node000040" class="edge">
<title>Node21&#45;&gt;Node40</title>
<g id="a_edge47_Node000021_Node000040"><a xlink:title=" ">
<path fill="none" stroke="#63b8ff" d="M1099.02,-258.2C1236.36,-251.99 1524.56,-236.33 1766.5,-206 1774.66,-204.98 1783.25,-203.68 1791.64,-202.3"/>
<polygon fill="#63b8ff" stroke="#63b8ff" points="1792.48,-205.7 1801.74,-200.57 1791.3,-198.8 1792.48,-205.7"/>
</a>
</g>
</g>
<!-- Node41 -->
<g id="Node000041" class="node">
<title>Node41</title>
<g id="a_Node000041"><a xlink:title=" ">
<polygon fill="#e0e0e0" stroke="#999999" points="2035,-200.5 1934,-200.5 1934,-181.5 2035,-181.5 2035,-200.5"/>
<text text-anchor="middle" x="1984.5" y="-188.5" font-family="Helvetica,sans-Serif" font-size="10.00">boost/format.hpp</text>
</a>
</g>
</g>
<!-- Node21&#45;&gt;Node41 -->
<g id="edge48_Node000021_Node000041" class="edge">
<title>Node21&#45;&gt;Node41</title>
<g id="a_edge48_Node000021_Node000041"><a xlink:title=" ">
<path fill="none" stroke="#63b8ff" d="M1099.26,-261.09C1258.15,-259.29 1622.19,-250.21 1924.5,-206 1930.33,-205.15 1936.43,-204.01 1942.41,-202.76"/>
<polygon fill="#63b8ff" stroke="#63b8ff" points="1943.3,-206.15 1952.31,-200.56 1941.78,-199.31 1943.3,-206.15"/>
</a>
</g>
</g>
<!-- Node42 -->
<g id="Node000042" class="node">
<title>Node42</title>
<g id="a_Node000042"><a xlink:href="buffer__management_8hpp.html" target="_top" xlink:title=" ">
<polygon fill="white" stroke="#666666" points="2375.5,-140 2205.5,-140 2205.5,-110 2375.5,-110 2375.5,-140"/>
<text text-anchor="start" x="2213.5" y="-128" font-family="Helvetica,sans-Serif" font-size="10.00">cppuddle/memory_recycling</text>
<text text-anchor="middle" x="2290.5" y="-117" font-family="Helvetica,sans-Serif" font-size="10.00">/detail/buffer_management.hpp</text>
</a>
</g>
</g>
<!-- Node21&#45;&gt;Node42 -->
<g id="edge50_Node000021_Node000042" class="edge">
<title>Node21&#45;&gt;Node42</title>
<g id="a_edge50_Node000021_Node000042"><a xlink:title=" ">
<path fill="none" stroke="#63b8ff" d="M1099.39,-260.58C1347.99,-257.34 2090.21,-244.53 2191.5,-206 2223.63,-193.78 2253.27,-166.87 2271.58,-147.63"/>
<polygon fill="#63b8ff" stroke="#63b8ff" points="2274.26,-149.9 2278.48,-140.18 2269.12,-145.14 2274.26,-149.9"/>
</a>
</g>
</g>
<!-- Node42&#45;&gt;Node10 -->
<g id="edge52_Node000042_Node000010" class="edge">
<title>Node42&#45;&gt;Node10</title>
<g id="a_edge52_Node000042_Node000010"><a xlink:title=" ">
<path fill="none" stroke="#63b8ff" d="M2205.29,-114.82C2133.45,-106.51 2027.78,-92.94 1926.87,-74.1"/>
<polygon fill="#63b8ff" stroke="#63b8ff" points="1927.29,-70.61 1916.81,-72.19 1925.99,-77.49 1927.29,-70.61"/>
</a>
</g>
</g>
<!-- Node42&#45;&gt;Node12 -->
<g id="edge54_Node000042_Node000012" class="edge">
<title>Node42&#45;&gt;Node12</title>
<g id="a_edge54_Node000042_Node000012"><a xlink:title=" ">
<path fill="none" stroke="#63b8ff" d="M2205.57,-109.98C2148.59,-100.38 2071.93,-87.05 2004.5,-74 2004.4,-73.98 2004.3,-73.96 2004.2,-73.94"/>
<polygon fill="#63b8ff" stroke="#63b8ff" points="2005.11,-70.55 1994.62,-72.02 2003.73,-77.42 2005.11,-70.55"/>
</a>
</g>
</g>
<!-- Node42&#45;&gt;Node13 -->
<g id="edge56_Node000042_Node000013" class="edge">
<title>Node42&#45;&gt;Node13</title>
<g id="a_edge56_Node000042_Node000013"><a xlink:title=" ">
<path fill="none" stroke="#63b8ff" d="M2205.35,-120.74C1919.8,-109.81 1002.84,-74.7 801.73,-67"/>
<polygon fill="#63b8ff" stroke="#63b8ff" points="801.76,-63.5 791.63,-66.62 801.49,-70.5 801.76,-63.5"/>
</a>
</g>
</g>
<!-- Node42&#45;&gt;Node14 -->
<g id="edge57_Node000042_Node000014" class="edge">
<title>Node42&#45;&gt;Node14</title>
<g id="a_edge57_Node000042_Node000014"><a xlink:title=" ">
<path fill="none" stroke="#63b8ff" d="M2278.37,-109.82C2263.23,-93.27 2235.63,-66.67 2205.5,-55 2135.66,-27.95 1603.94,-14.37 1462.8,-11.22"/>
<polygon fill="#63b8ff" stroke="#63b8ff" points="1462.66,-7.72 1452.58,-11 1462.5,-14.72 1462.66,-7.72"/>
</a>
</g>
</g>
<!-- Node42&#45;&gt;Node17 -->
<g id="edge60_Node000042_Node000017" class="edge">
<title>Node42&#45;&gt;Node17</title>
<g id="a_edge60_Node000042_Node000017"><a xlink:title=" ">
<path fill="none" stroke="#63b8ff" d="M2205.22,-116.14C2119.56,-107.8 1983.59,-93.36 1856,-73.96"/>
<polygon fill="#63b8ff" stroke="#63b8ff" points="1856.46,-70.49 1846.04,-72.43 1855.4,-77.41 1856.46,-70.49"/>
</a>
</g>
</g>
<!-- Node42&#45;&gt;Node18 -->
<g id="edge62_Node000042_Node000018" class="edge">
<title>Node42&#45;&gt;Node18</title>
<g id="a_edge62_Node000042_Node000018"><a xlink:title=" ">
<path fill="none" stroke="#63b8ff" d="M2320.68,-109.99C2341.33,-100.4 2368.5,-87.79 2388.63,-78.44"/>
<polygon fill="#63b8ff" stroke="#63b8ff" points="2390.3,-81.52 2397.89,-74.14 2387.35,-75.18 2390.3,-81.52"/>
</a>
</g>
</g>
<!-- Node42&#45;&gt;Node22 -->
<g id="edge59_Node000042_Node000022" class="edge">
<title>Node42&#45;&gt;Node22</title>
<g id="a_edge59_Node000042_Node000022"><a xlink:title=" ">
<path fill="none" stroke="#63b8ff" d="M2231.82,-109.99C2187.54,-99.42 2127.83,-85.16 2088.06,-75.66"/>
<polygon fill="#63b8ff" stroke="#63b8ff" points="2088.7,-72.22 2078.16,-73.3 2087.07,-79.02 2088.7,-72.22"/>
</a>
</g>
</g>
<!-- Node42&#45;&gt;Node25 -->
<g id="edge51_Node000042_Node000025" class="edge">
<title>Node42&#45;&gt;Node25</title>
<g id="a_edge51_Node000042_Node000025"><a xlink:title=" ">
<path fill="none" stroke="#63b8ff" d="M2250.02,-109.99C2221.32,-100.05 2183.22,-86.86 2155.97,-77.43"/>
<polygon fill="#63b8ff" stroke="#63b8ff" points="2157.05,-74.1 2146.46,-74.14 2154.76,-80.72 2157.05,-74.1"/>
</a>
</g>
</g>
<!-- Node42&#45;&gt;Node28 -->
<g id="edge58_Node000042_Node000028" class="edge">
<title>Node42&#45;&gt;Node28</title>
<g id="a_edge58_Node000042_Node000028"><a xlink:title=" ">
<path fill="none" stroke="#63b8ff" d="M2350.86,-109.99C2398.65,-98.89 2463.91,-83.74 2504.61,-74.3"/>
<polygon fill="#63b8ff" stroke="#63b8ff" points="2505.46,-77.69 2514.41,-72.02 2503.87,-70.87 2505.46,-77.69"/>
</a>
</g>
</g>
<!-- Node42&#45;&gt;Node33 -->
<g id="edge61_Node000042_Node000033" class="edge">
<title>Node42&#45;&gt;Node33</title>
<g id="a_edge61_Node000042_Node000033"><a xlink:title=" ">
<path fill="none" stroke="#63b8ff" d="M2373.14,-109.99C2436.57,-99.23 2522.49,-84.66 2578.45,-75.17"/>
<polygon fill="#63b8ff" stroke="#63b8ff" points="2579.26,-78.59 2588.54,-73.46 2578.09,-71.68 2579.26,-78.59"/>
</a>
</g>
</g>
<!-- Node43 -->
<g id="Node000043" class="node">
<title>Node43</title>
<g id="a_Node000043"><a xlink:title=" ">
<polygon fill="#e0e0e0" stroke="#999999" points="2318,-74 2253,-74 2253,-55 2318,-55 2318,-74"/>
<text text-anchor="middle" x="2285.5" y="-62" font-family="Helvetica,sans-Serif" font-size="10.00">functional</text>
</a>
</g>
</g>
<!-- Node42&#45;&gt;Node43 -->
<g id="edge53_Node000042_Node000043" class="edge">
<title>Node42&#45;&gt;Node43</title>
<g id="a_edge53_Node000042_Node000043"><a xlink:title=" ">
<path fill="none" stroke="#63b8ff" d="M2289.29,-109.84C2288.64,-102.21 2287.83,-92.7 2287.12,-84.45"/>
<polygon fill="#63b8ff" stroke="#63b8ff" points="2290.59,-83.93 2286.25,-74.27 2283.61,-84.53 2290.59,-83.93"/>
</a>
</g>
</g>
<!-- Node44 -->
<g id="Node000044" class="node">
<title>Node44</title>
<g id="a_Node000044"><a xlink:title=" ">
<polygon fill="#e0e0e0" stroke="#999999" points="2196.5,-74 2164.5,-74 2164.5,-55 2196.5,-55 2196.5,-74"/>
<text text-anchor="middle" x="2180.5" y="-62" font-family="Helvetica,sans-Serif" font-size="10.00">list</text>
</a>
</g>
</g>
<!-- Node42&#45;&gt;Node44 -->
<g id="edge55_Node000042_Node000044" class="edge">
<title>Node42&#45;&gt;Node44</title>
<g id="a_edge55_Node000042_Node000044"><a xlink:title=" ">
<path fill="none" stroke="#63b8ff" d="M2264.15,-109.99C2246.45,-100.58 2223.27,-88.24 2205.79,-78.95"/>
<polygon fill="#63b8ff" stroke="#63b8ff" points="2207.22,-75.74 2196.74,-74.14 2203.93,-81.92 2207.22,-75.74"/>
</a>
</g>
</g>
<!-- Node45&#45;&gt;Node21 -->
<g id="edge65_Node000045_Node000021" class="edge">
<title>Node45&#45;&gt;Node21</title>
<g id="a_edge65_Node000045_Node000021"><a xlink:title=" ">
<path fill="none" stroke="#63b8ff" d="M777.6,-319.96C823.13,-309.29 880.52,-295.84 927.86,-284.74"/>
<polygon fill="#63b8ff" stroke="#63b8ff" points="928.87,-288.1 937.81,-282.41 927.27,-281.29 928.87,-288.1"/>
</a>
</g>
</g>
</g>
</svg>
