<?xml version="1.0" encoding="UTF-8" standalone="no"?>
<!DOCTYPE svg PUBLIC "-//W3C//DTD SVG 1.1//EN"
 "http://www.w3.org/Graphics/SVG/1.1/DTD/svg11.dtd">
<!-- Generated by graphviz version 2.43.0 (0)
 -->
<!-- Title: include/kokkos_buffer_util.hpp Pages: 1 -->
<svg width="1019pt" height="352pt"
 viewBox="0.00 0.00 1019.43 352.00" xmlns="http://www.w3.org/2000/svg" xmlns:xlink="http://www.w3.org/1999/xlink">
<g id="graph0" class="graph" transform="scale(1 1) rotate(0) translate(4 348)">
<title>include/kokkos_buffer_util.hpp</title>
<polygon fill="white" stroke="transparent" points="-4,4 -4,-348 1015.43,-348 1015.43,4 -4,4"/>
<!-- Node1 -->
<g id="node1" class="node">
<title>Node1</title>
<g id="a_node1"><a xlink:title=" ">
<polygon fill="#bfbfbf" stroke="black" points="86,-313.5 86,-343.5 208,-343.5 208,-313.5 86,-313.5"/>
<text text-anchor="start" x="94" y="-331.5" font-family="Helvetica,sans-Serif" font-size="10.00">include/kokkos_buffer</text>
<text text-anchor="middle" x="147" y="-320.5" font-family="Helvetica,sans-Serif" font-size="10.00">_util.hpp</text>
</a>
</g>
</g>
<!-- Node2 -->
<g id="node2" class="node">
<title>Node2</title>
<g id="a_node2"><a xlink:href="recycling__kokkos__view_8hpp.html" target="_top" xlink:title=" ">
<polygon fill="white" stroke="black" points="69.5,-235.5 69.5,-276.5 224.5,-276.5 224.5,-235.5 69.5,-235.5"/>
<text text-anchor="start" x="77.5" y="-264.5" font-family="Helvetica,sans-Serif" font-size="10.00">cppuddle/memory_recycling</text>
<text text-anchor="start" x="77.5" y="-253.5" font-family="Helvetica,sans-Serif" font-size="10.00">/util/recycling_kokkos</text>
<text text-anchor="middle" x="147" y="-242.5" font-family="Helvetica,sans-Serif" font-size="10.00">_view.hpp</text>
</a>
</g>
</g>
<!-- Node1&#45;&gt;Node2 -->
<g id="edge1" class="edge">
<title>Node1&#45;&gt;Node2</title>
<path fill="none" stroke="midnightblue" d="M147,-313.23C147,-305.57 147,-295.84 147,-286.63"/>
<polygon fill="midnightblue" stroke="midnightblue" points="150.5,-286.59 147,-276.59 143.5,-286.59 150.5,-286.59"/>
</g>
<!-- Node3 -->
<g id="node3" class="node">
<title>Node3</title>
<g id="a_node3"><a xlink:title=" ">
<polygon fill="white" stroke="#bfbfbf" points="0,-174 0,-193 100,-193 100,-174 0,-174"/>
<text text-anchor="middle" x="50" y="-181" font-family="Helvetica,sans-Serif" font-size="10.00">Kokkos_Core.hpp</text>
</a>
</g>
</g>
<!-- Node2&#45;&gt;Node3 -->
<g id="edge2" class="edge">
<title>Node2&#45;&gt;Node3</title>
<path fill="none" stroke="midnightblue" d="M119.98,-235.36C104.2,-223.89 84.61,-209.65 70.17,-199.16"/>
<polygon fill="midnightblue" stroke="midnightblue" points="72.08,-196.22 61.93,-193.17 67.97,-201.88 72.08,-196.22"/>
</g>
<!-- Node4 -->
<g id="node4" class="node">
<title>Node4</title>
<g id="a_node4"><a xlink:title=" ">
<polygon fill="white" stroke="#bfbfbf" points="55,-56.5 55,-75.5 113,-75.5 113,-56.5 55,-56.5"/>
<text text-anchor="middle" x="84" y="-63.5" font-family="Helvetica,sans-Serif" font-size="10.00">memory</text>
</a>
</g>
</g>
<!-- Node2&#45;&gt;Node4 -->
<g id="edge3" class="edge">
<title>Node2&#45;&gt;Node4</title>
<path fill="none" stroke="midnightblue" d="M140.38,-235.24C128.12,-198.67 102.08,-120.95 90.17,-85.42"/>
<polygon fill="midnightblue" stroke="midnightblue" points="93.46,-84.21 86.96,-75.84 86.82,-86.43 93.46,-84.21"/>
</g>
<!-- Node5 -->
<g id="node5" class="node">
<title>Node5</title>
<g id="a_node5"><a xlink:title=" ">
<polygon fill="white" stroke="#bfbfbf" points="131.5,-56.5 131.5,-75.5 200.5,-75.5 200.5,-56.5 131.5,-56.5"/>
<text text-anchor="middle" x="166" y="-63.5" font-family="Helvetica,sans-Serif" font-size="10.00">type_traits</text>
</a>
</g>
</g>
<!-- Node2&#45;&gt;Node5 -->
<g id="edge4" class="edge">
<title>Node2&#45;&gt;Node5</title>
<path fill="none" stroke="midnightblue" d="M149,-235.24C152.68,-198.83 160.48,-121.62 164.09,-85.88"/>
<polygon fill="midnightblue" stroke="midnightblue" points="167.58,-86.14 165.11,-75.84 160.62,-85.44 167.58,-86.14"/>
</g>
<!-- Node6 -->
<g id="node6" class="node">
<title>Node6</title>
<g id="a_node6"><a xlink:href="buffer__management__interface_8hpp.html" target="_top" xlink:title=" ">
<polygon fill="white" stroke="black" points="351,-168.5 351,-198.5 539,-198.5 539,-168.5 351,-168.5"/>
<text text-anchor="start" x="359" y="-186.5" font-family="Helvetica,sans-Serif" font-size="10.00">cppuddle/memory_recycling</text>
<text text-anchor="middle" x="445" y="-175.5" font-family="Helvetica,sans-Serif" font-size="10.00">/buffer_management_interface.hpp</text>
</a>
</g>
</g>
<!-- Node2&#45;&gt;Node6 -->
<g id="edge5" class="edge">
<title>Node2&#45;&gt;Node6</title>
<path fill="none" stroke="midnightblue" d="M224.52,-236.66C271.33,-225.59 330.49,-211.59 375.74,-200.89"/>
<polygon fill="midnightblue" stroke="midnightblue" points="376.83,-204.23 385.75,-198.52 375.21,-197.41 376.83,-204.23"/>
</g>
<!-- Node7 -->
<g id="node7" class="node">
<title>Node7</title>
<g id="a_node7"><a xlink:href="buffer__management_8hpp.html" target="_top" xlink:title=" ">
<polygon fill="white" stroke="black" points="517.5,-112.5 517.5,-131.5 684.5,-131.5 684.5,-112.5 517.5,-112.5"/>
<text text-anchor="middle" x="601" y="-119.5" font-family="Helvetica,sans-Serif" font-size="10.00">detail/buffer_management.hpp</text>
</a>
</g>
</g>
<!-- Node6&#45;&gt;Node7 -->
<g id="edge6" class="edge">
<title>Node6&#45;&gt;Node7</title>
<path fill="none" stroke="midnightblue" d="M481.97,-168.4C508.38,-158.33 543.56,-144.91 568.81,-135.28"/>
<polygon fill="midnightblue" stroke="midnightblue" points="570.2,-138.49 578.3,-131.66 567.71,-131.95 570.2,-138.49"/>
</g>
<!-- Node7&#45;&gt;Node4 -->
<g id="edge12" class="edge">
<title>Node7&#45;&gt;Node4</title>
<path fill="none" stroke="midnightblue" d="M517.48,-116.68C423.69,-111.03 266.88,-99.2 123.26,-76"/>
<polygon fill="midnightblue" stroke="midnightblue" points="123.81,-72.55 113.38,-74.38 122.68,-79.45 123.81,-72.55"/>
</g>
<!-- Node7&#45;&gt;Node5 -->
<g id="edge16" class="edge">
<title>Node7&#45;&gt;Node5</title>
<path fill="none" stroke="midnightblue" d="M517.19,-113.49C440.15,-106.09 322.57,-93.58 210.65,-75.97"/>
<polygon fill="midnightblue" stroke="midnightblue" points="210.96,-72.47 200.54,-74.36 209.86,-79.39 210.96,-72.47"/>
</g>
<!-- Node8 -->
<g id="node8" class="node">
<title>Node8</title>
<g id="a_node8"><a xlink:title=" ">
<polygon fill="white" stroke="#bfbfbf" points="666,-56.5 666,-75.5 716,-75.5 716,-56.5 666,-56.5"/>
<text text-anchor="middle" x="691" y="-63.5" font-family="Helvetica,sans-Serif" font-size="10.00">atomic</text>
</a>
</g>
</g>
<!-- Node7&#45;&gt;Node8 -->
<g id="edge7" class="edge">
<title>Node7&#45;&gt;Node8</title>
<path fill="none" stroke="midnightblue" d="M615.46,-112.32C629.5,-103.9 651.05,-90.97 667.54,-81.07"/>
<polygon fill="midnightblue" stroke="midnightblue" points="669.8,-83.8 676.58,-75.65 666.2,-77.8 669.8,-83.8"/>
</g>
<!-- Node9 -->
<g id="node9" class="node">
<title>Node9</title>
<g id="a_node9"><a xlink:title=" ">
<polygon fill="white" stroke="#bfbfbf" points="734,-56.5 734,-75.5 786,-75.5 786,-56.5 734,-56.5"/>
<text text-anchor="middle" x="760" y="-63.5" font-family="Helvetica,sans-Serif" font-size="10.00">cassert</text>
</a>
</g>
</g>
<!-- Node7&#45;&gt;Node9 -->
<g id="edge8" class="edge">
<title>Node7&#45;&gt;Node9</title>
<path fill="none" stroke="midnightblue" d="M626.19,-112.44C652.94,-103.36 695.4,-88.94 725.31,-78.78"/>
<polygon fill="midnightblue" stroke="midnightblue" points="726.58,-82.05 734.92,-75.52 724.33,-75.42 726.58,-82.05"/>
</g>
<!-- Node10 -->
<g id="node10" class="node">
<title>Node10</title>
<g id="a_node10"><a xlink:title=" ">
<polygon fill="white" stroke="#bfbfbf" points="804.5,-56.5 804.5,-75.5 869.5,-75.5 869.5,-56.5 804.5,-56.5"/>
<text text-anchor="middle" x="837" y="-63.5" font-family="Helvetica,sans-Serif" font-size="10.00">functional</text>
</a>
</g>
</g>
<!-- Node7&#45;&gt;Node10 -->
<g id="edge9" class="edge">
<title>Node7&#45;&gt;Node10</title>
<path fill="none" stroke="midnightblue" d="M638.39,-112.44C680.84,-102.73 749.93,-86.92 794.42,-76.74"/>
<polygon fill="midnightblue" stroke="midnightblue" points="795.37,-80.12 804.34,-74.47 793.81,-73.29 795.37,-80.12"/>
</g>
<!-- Node11 -->
<g id="node11" class="node">
<title>Node11</title>
<g id="a_node11"><a xlink:title=" ">
<polygon fill="white" stroke="#bfbfbf" points="888,-56.5 888,-75.5 948,-75.5 948,-56.5 888,-56.5"/>
<text text-anchor="middle" x="918" y="-63.5" font-family="Helvetica,sans-Serif" font-size="10.00">iostream</text>
</a>
</g>
</g>
<!-- Node7&#45;&gt;Node11 -->
<g id="edge10" class="edge">
<title>Node7&#45;&gt;Node11</title>
<path fill="none" stroke="midnightblue" d="M660.86,-112.48C715.09,-104.5 797.41,-91.72 877.99,-76.1"/>
<polygon fill="midnightblue" stroke="midnightblue" points="878.67,-79.53 887.81,-74.18 877.32,-72.66 878.67,-79.53"/>
</g>
<!-- Node12 -->
<g id="node12" class="node">
<title>Node12</title>
<g id="a_node12"><a xlink:title=" ">
<polygon fill="white" stroke="#bfbfbf" points="966,-56.5 966,-75.5 998,-75.5 998,-56.5 966,-56.5"/>
<text text-anchor="middle" x="982" y="-63.5" font-family="Helvetica,sans-Serif" font-size="10.00">list</text>
</a>
</g>
</g>
<!-- Node7&#45;&gt;Node12 -->
<g id="edge11" class="edge">
<title>Node7&#45;&gt;Node12</title>
<path fill="none" stroke="midnightblue" d="M684.66,-115.64C755.05,-109.94 858.31,-98.78 956.01,-75.77"/>
<polygon fill="midnightblue" stroke="midnightblue" points="956.84,-79.17 965.75,-73.43 955.21,-72.36 956.84,-79.17"/>
</g>
<!-- Node13 -->
<g id="node13" class="node">
<title>Node13</title>
<g id="a_node13"><a xlink:title=" ">
<polygon fill="white" stroke="#bfbfbf" points="638,-0.5 638,-19.5 686,-19.5 686,-0.5 638,-0.5"/>
<text text-anchor="middle" x="662" y="-7.5" font-family="Helvetica,sans-Serif" font-size="10.00">mutex</text>
</a>
</g>
</g>
<!-- Node7&#45;&gt;Node13 -->
<g id="edge13" class="edge">
<title>Node7&#45;&gt;Node13</title>
<path fill="none" stroke="midnightblue" d="M684.77,-117.58C797.36,-112.12 985.92,-99.55 1007,-76 1012.93,-69.38 1012.86,-62.68 1007,-56 986.67,-32.84 779.55,-18.01 696.34,-12.95"/>
<polygon fill="midnightblue" stroke="midnightblue" points="696.33,-9.44 686.13,-12.34 695.91,-16.43 696.33,-9.44"/>
</g>
<!-- Node14 -->
<g id="node14" class="node">
<title>Node14</title>
<g id="a_node14"><a xlink:title=" ">
<polygon fill="white" stroke="#bfbfbf" points="397,-56.5 397,-75.5 453,-75.5 453,-56.5 397,-56.5"/>
<text text-anchor="middle" x="425" y="-63.5" font-family="Helvetica,sans-Serif" font-size="10.00">optional</text>
</a>
</g>
</g>
<!-- Node7&#45;&gt;Node14 -->
<g id="edge14" class="edge">
<title>Node7&#45;&gt;Node14</title>
<path fill="none" stroke="midnightblue" d="M573.11,-112.44C543.25,-103.28 495.69,-88.69 462.54,-78.52"/>
<polygon fill="midnightblue" stroke="midnightblue" points="463.34,-75.1 452.76,-75.52 461.29,-81.8 463.34,-75.1"/>
</g>
<!-- Node15 -->
<g id="node15" class="node">
<title>Node15</title>
<g id="a_node15"><a xlink:title=" ">
<polygon fill="white" stroke="#bfbfbf" points="471.5,-56.5 471.5,-75.5 536.5,-75.5 536.5,-56.5 471.5,-56.5"/>
<text text-anchor="middle" x="504" y="-63.5" font-family="Helvetica,sans-Serif" font-size="10.00">stdexcept</text>
</a>
</g>
</g>
<!-- Node7&#45;&gt;Node15 -->
<g id="edge15" class="edge">
<title>Node7&#45;&gt;Node15</title>
<path fill="none" stroke="midnightblue" d="M585.42,-112.32C570,-103.74 546.19,-90.49 528.29,-80.52"/>
<polygon fill="midnightblue" stroke="midnightblue" points="529.99,-77.46 519.55,-75.65 526.58,-83.58 529.99,-77.46"/>
</g>
<!-- Node16 -->
<g id="node16" class="node">
<title>Node16</title>
<g id="a_node16"><a xlink:title=" ">
<polygon fill="white" stroke="#bfbfbf" points="554.5,-56.5 554.5,-75.5 647.5,-75.5 647.5,-56.5 554.5,-56.5"/>
<text text-anchor="middle" x="601" y="-63.5" font-family="Helvetica,sans-Serif" font-size="10.00">unordered_map</text>
</a>
</g>
</g>
<!-- Node7&#45;&gt;Node16 -->
<g id="edge17" class="edge">
<title>Node7&#45;&gt;Node16</title>
<path fill="none" stroke="midnightblue" d="M601,-112.08C601,-105.01 601,-94.86 601,-85.99"/>
<polygon fill="midnightblue" stroke="midnightblue" points="604.5,-85.75 601,-75.75 597.5,-85.75 604.5,-85.75"/>
</g>
<!-- Node17 -->
<g id="node17" class="node">
<title>Node17</title>
<g id="a_node17"><a xlink:href="config_8hpp.html" target="_top" xlink:title=" ">
<polygon fill="white" stroke="black" points="219,-56.5 219,-75.5 379,-75.5 379,-56.5 219,-56.5"/>
<text text-anchor="middle" x="299" y="-63.5" font-family="Helvetica,sans-Serif" font-size="10.00">cppuddle/common/config.hpp</text>
</a>
</g>
</g>
<!-- Node7&#45;&gt;Node17 -->
<g id="edge18" class="edge">
<title>Node7&#45;&gt;Node17</title>
<path fill="none" stroke="midnightblue" d="M553.15,-112.44C499.8,-102.9 413.56,-87.48 356.56,-77.29"/>
<polygon fill="midnightblue" stroke="midnightblue" points="357.09,-73.83 346.63,-75.52 355.86,-80.72 357.09,-73.83"/>
</g>
<!-- Node17&#45;&gt;Node13 -->
<g id="edge19" class="edge">
<title>Node17&#45;&gt;Node13</title>
<path fill="none" stroke="midnightblue" d="M356.52,-56.44C432.87,-45.09 565.28,-25.39 627.64,-16.11"/>
<polygon fill="midnightblue" stroke="midnightblue" points="628.36,-19.54 637.74,-14.61 627.33,-12.62 628.36,-19.54"/>
</g>
</g>
</svg>
