<?xml version="1.0" encoding="UTF-8" standalone="no"?>
<!DOCTYPE svg PUBLIC "-//W3C//DTD SVG 1.1//EN"
 "http://www.w3.org/Graphics/SVG/1.1/DTD/svg11.dtd">
<!-- Generated by graphviz version 2.43.0 (0)
 -->
<!-- Title: include/cppuddle/kernel_aggregation/util/kokkos_aggregation_util.hpp Pages: 1 -->
<!--zoomable 575 -->
<svg id="main" version="1.1" xmlns="http://www.w3.org/2000/svg" xmlns:xlink="http://www.w3.org/1999/xlink" xml:space="preserve" onload="init(evt)">
<style type="text/css"><![CDATA[
.edge:hover path { stroke: red; }
.edge:hover polygon { stroke: red; fill: red; }
]]></style>
<script type="text/javascript"><![CDATA[
var edges = document.getElementsByTagName('g');
if (edges && edges.length) {
  for (var i=0;i<edges.length;i++) {
    if (edges[i].id.substr(0,4)=='edge') {
      edges[i].setAttribute('class','edge');
    }
  }
}
]]></script>
        <defs>
                <circle id="rim" cx="0" cy="0" r="7"/>
                <circle id="rim2" cx="0" cy="0" r="3.5"/>
                <g id="zoomPlus">
                        <use xlink:href="#rim" fill="#404040">
                                <set attributeName="fill" to="#808080" begin="zoomplus.mouseover" end="zoomplus.mouseout"/>
                        </use>
                        <path d="M-4,0h8M0,-4v8" fill="none" stroke="white" stroke-width="1.5" pointer-events="none"/>
                </g>
                <g id="zoomMin">
                        <use xlink:href="#rim" fill="#404040">
                                <set attributeName="fill" to="#808080" begin="zoomminus.mouseover" end="zoomminus.mouseout"/>
                        </use>
                        <path d="M-4,0h8" fill="none" stroke="white" stroke-width="1.5" pointer-events="none"/>
                </g>
                <g id="dirArrow">
                        <path fill="none" stroke="white" stroke-width="1.5" d="M0,-3.0v7 M-2.5,-0.5L0,-3.0L2.5,-0.5"/>
                </g>
               <g id="resetDef">
                       <use xlink:href="#rim2" fill="#404040">
                               <set attributeName="fill" to="#808080" begin="reset.mouseover" end="reset.mouseout"/>
                       </use>
               </g>
        </defs>

<script type="text/javascript">
var viewWidth = 2690;
var viewHeight = 575;
var sectionId = 'dynsection-0';
</script>
<script xlink:href="svgpan.js"/>
<svg id="graph" class="graph">
<g id="viewport">
<title>include/cppuddle/kernel_aggregation/util/kokkos_aggregation_util.hpp</title>
<polygon fill="white" stroke="transparent" points="-4,4 -4,-571 2686,-571 2686,4 -4,4"/>
<!-- Node1 -->
<g id="node1" class="node">
<title>Node1</title>
<g id="a_node1"><a xlink:title=" ">
<polygon fill="#bfbfbf" stroke="black" points="337.5,-525.5 337.5,-566.5 473.5,-566.5 473.5,-525.5 337.5,-525.5"/>
<text text-anchor="start" x="345.5" y="-554.5" font-family="Helvetica,sans-Serif" font-size="10.00">include/cppuddle/kernel</text>
<text text-anchor="start" x="345.5" y="-543.5" font-family="Helvetica,sans-Serif" font-size="10.00">_aggregation/util/kokkos</text>
<text text-anchor="middle" x="405.5" y="-532.5" font-family="Helvetica,sans-Serif" font-size="10.00">_aggregation_util.hpp</text>
</a>
</g>
</g>
<!-- Node2 -->
<g id="node2" class="node">
<title>Node2</title>
<g id="a_node2"><a xlink:title=" ">
<polygon fill="white" stroke="#bfbfbf" points="0,-185 0,-204 125,-204 125,-185 0,-185"/>
<text text-anchor="middle" x="62.5" y="-192" font-family="Helvetica,sans-Serif" font-size="10.00">hpx/futures/future.hpp</text>
</a>
</g>
</g>
<!-- Node1&#45;&gt;Node2 -->
<g id="edge1" class="edge">
<title>Node1&#45;&gt;Node2</title>
<path fill="none" stroke="midnightblue" d="M337.48,-543.03C254.32,-536.58 124.5,-511.59 124.5,-418.5 124.5,-418.5 124.5,-418.5 124.5,-344 124.5,-292.99 92.96,-239.21 74.87,-212.55"/>
<polygon fill="midnightblue" stroke="midnightblue" points="77.5,-210.2 68.9,-204.01 71.77,-214.21 77.5,-210.2"/>
</g>
<!-- Node3 -->
<g id="node3" class="node">
<title>Node3</title>
<g id="a_node3"><a xlink:title=" ">
<polygon fill="white" stroke="#bfbfbf" points="415,-469.5 415,-488.5 558,-488.5 558,-469.5 415,-469.5"/>
<text text-anchor="middle" x="486.5" y="-476.5" font-family="Helvetica,sans-Serif" font-size="10.00">hpx/kokkos/executors.hpp</text>
</a>
</g>
</g>
<!-- Node1&#45;&gt;Node3 -->
<g id="edge2" class="edge">
<title>Node1&#45;&gt;Node3</title>
<path fill="none" stroke="midnightblue" d="M429.8,-525.5C441.98,-515.72 456.5,-504.07 467.8,-495.01"/>
<polygon fill="midnightblue" stroke="midnightblue" points="470.11,-497.64 475.72,-488.65 465.73,-492.18 470.11,-497.64"/>
</g>
<!-- Node4 -->
<g id="node4" class="node">
<title>Node4</title>
<g id="a_node4"><a xlink:title=" ">
<polygon fill="white" stroke="#bfbfbf" points="576.5,-469.5 576.5,-488.5 676.5,-488.5 676.5,-469.5 576.5,-469.5"/>
<text text-anchor="middle" x="626.5" y="-476.5" font-family="Helvetica,sans-Serif" font-size="10.00">Kokkos_Core.hpp</text>
</a>
</g>
</g>
<!-- Node1&#45;&gt;Node4 -->
<g id="edge3" class="edge">
<title>Node1&#45;&gt;Node4</title>
<path fill="none" stroke="midnightblue" d="M471.81,-525.5C509.55,-514.4 555.53,-500.87 587.51,-491.47"/>
<polygon fill="midnightblue" stroke="midnightblue" points="588.77,-494.75 597.37,-488.57 586.79,-488.03 588.77,-494.75"/>
</g>
<!-- Node5 -->
<g id="node5" class="node">
<title>Node5</title>
<g id="a_node5"><a xlink:title=" ">
<polygon fill="white" stroke="#bfbfbf" points="694.5,-469.5 694.5,-488.5 786.5,-488.5 786.5,-469.5 694.5,-469.5"/>
<text text-anchor="middle" x="740.5" y="-476.5" font-family="Helvetica,sans-Serif" font-size="10.00">hpx/kokkos.hpp</text>
</a>
</g>
</g>
<!-- Node1&#45;&gt;Node5 -->
<g id="edge4" class="edge">
<title>Node1&#45;&gt;Node5</title>
<path fill="none" stroke="midnightblue" d="M473.7,-531.77C536.5,-519.58 628.45,-501.74 686.36,-490.51"/>
<polygon fill="midnightblue" stroke="midnightblue" points="687.26,-493.9 696.41,-488.56 685.92,-487.02 687.26,-493.9"/>
</g>
<!-- Node6 -->
<g id="node6" class="node">
<title>Node6</title>
<g id="a_node6"><a xlink:href="executor__pools__interface_8hpp.html" target="_top" xlink:title=" ">
<polygon fill="white" stroke="black" points="143,-179.5 143,-209.5 306,-209.5 306,-179.5 143,-179.5"/>
<text text-anchor="start" x="151" y="-197.5" font-family="Helvetica,sans-Serif" font-size="10.00">cppuddle/executor_recycling</text>
<text text-anchor="middle" x="224.5" y="-186.5" font-family="Helvetica,sans-Serif" font-size="10.00">/executor_pools_interface.hpp</text>
</a>
</g>
</g>
<!-- Node1&#45;&gt;Node6 -->
<g id="edge5" class="edge">
<title>Node1&#45;&gt;Node6</title>
<path fill="none" stroke="midnightblue" d="M337.13,-536.39C304.67,-528.93 267.76,-515 243.5,-489 221.37,-465.27 224.5,-450.95 224.5,-418.5 224.5,-418.5 224.5,-418.5 224.5,-344 224.5,-300.34 224.5,-249.45 224.5,-220.01"/>
<polygon fill="midnightblue" stroke="midnightblue" points="228,-219.84 224.5,-209.84 221,-219.84 228,-219.84"/>
</g>
<!-- Node19 -->
<g id="node19" class="node">
<title>Node19</title>
<g id="a_node19"><a xlink:href="aggregation__manager_8hpp.html" target="_top" xlink:title=" ">
<polygon fill="white" stroke="black" points="252.5,-469.5 252.5,-488.5 396.5,-488.5 396.5,-469.5 252.5,-469.5"/>
<text text-anchor="middle" x="324.5" y="-476.5" font-family="Helvetica,sans-Serif" font-size="10.00">aggregation_manager.hpp</text>
</a>
</g>
</g>
<!-- Node1&#45;&gt;Node19 -->
<g id="edge19" class="edge">
<title>Node1&#45;&gt;Node19</title>
<path fill="none" stroke="midnightblue" d="M381.2,-525.5C369.02,-515.72 354.5,-504.07 343.2,-495.01"/>
<polygon fill="midnightblue" stroke="midnightblue" points="345.27,-492.18 335.28,-488.65 340.89,-497.64 345.27,-492.18"/>
</g>
<!-- Node7 -->
<g id="node7" class="node">
<title>Node7</title>
<g id="a_node7"><a xlink:href="executor__pools__management_8hpp.html" target="_top" xlink:title=" ">
<polygon fill="white" stroke="black" points="390,-112.5 390,-142.5 605,-142.5 605,-112.5 390,-112.5"/>
<text text-anchor="start" x="398" y="-130.5" font-family="Helvetica,sans-Serif" font-size="10.00">cppuddle/executor_recycling</text>
<text text-anchor="middle" x="497.5" y="-119.5" font-family="Helvetica,sans-Serif" font-size="10.00">/detail/executor_pools_management.hpp</text>
</a>
</g>
</g>
<!-- Node6&#45;&gt;Node7 -->
<g id="edge6" class="edge">
<title>Node6&#45;&gt;Node7</title>
<path fill="none" stroke="midnightblue" d="M283.4,-179.48C325.95,-169.34 383.57,-155.63 428.31,-144.97"/>
<polygon fill="midnightblue" stroke="midnightblue" points="429.32,-148.33 438.23,-142.61 427.7,-141.52 429.32,-148.33"/>
</g>
<!-- Node8 -->
<g id="node8" class="node">
<title>Node8</title>
<g id="a_node8"><a xlink:title=" ">
<polygon fill="white" stroke="#bfbfbf" points="493.5,-56.5 493.5,-75.5 557.5,-75.5 557.5,-56.5 493.5,-56.5"/>
<text text-anchor="middle" x="525.5" y="-63.5" font-family="Helvetica,sans-Serif" font-size="10.00">algorithm</text>
</a>
</g>
</g>
<!-- Node7&#45;&gt;Node8 -->
<g id="edge7" class="edge">
<title>Node7&#45;&gt;Node8</title>
<path fill="none" stroke="midnightblue" d="M504.14,-112.4C508.04,-104.11 513,-93.55 517.17,-84.71"/>
<polygon fill="midnightblue" stroke="midnightblue" points="520.33,-86.2 521.43,-75.66 514,-83.22 520.33,-86.2"/>
</g>
<!-- Node9 -->
<g id="node9" class="node">
<title>Node9</title>
<g id="a_node9"><a xlink:title=" ">
<polygon fill="white" stroke="#bfbfbf" points="575.5,-56.5 575.5,-75.5 617.5,-75.5 617.5,-56.5 575.5,-56.5"/>
<text text-anchor="middle" x="596.5" y="-63.5" font-family="Helvetica,sans-Serif" font-size="10.00">array</text>
</a>
</g>
</g>
<!-- Node7&#45;&gt;Node9 -->
<g id="edge8" class="edge">
<title>Node7&#45;&gt;Node9</title>
<path fill="none" stroke="midnightblue" d="M520.96,-112.4C536.83,-102.86 557.69,-90.32 573.47,-80.84"/>
<polygon fill="midnightblue" stroke="midnightblue" points="575.33,-83.81 582.09,-75.66 571.72,-77.81 575.33,-83.81"/>
</g>
<!-- Node10 -->
<g id="node10" class="node">
<title>Node10</title>
<g id="a_node10"><a xlink:title=" ">
<polygon fill="white" stroke="#bfbfbf" points="1864.5,-56.5 1864.5,-75.5 1916.5,-75.5 1916.5,-56.5 1864.5,-56.5"/>
<text text-anchor="middle" x="1890.5" y="-63.5" font-family="Helvetica,sans-Serif" font-size="10.00">cassert</text>
</a>
</g>
</g>
<!-- Node7&#45;&gt;Node10 -->
<g id="edge9" class="edge">
<title>Node7&#45;&gt;Node10</title>
<path fill="none" stroke="midnightblue" d="M605.15,-125.48C878.58,-122.4 1595.78,-111.27 1854.14,-75.83"/>
<polygon fill="midnightblue" stroke="midnightblue" points="1854.84,-79.26 1864.25,-74.39 1853.86,-72.33 1854.84,-79.26"/>
</g>
<!-- Node11 -->
<g id="node11" class="node">
<title>Node11</title>
<g id="a_node11"><a xlink:title=" ">
<polygon fill="white" stroke="#bfbfbf" points="363,-56.5 363,-75.5 410,-75.5 410,-56.5 363,-56.5"/>
<text text-anchor="middle" x="386.5" y="-63.5" font-family="Helvetica,sans-Serif" font-size="10.00">deque</text>
</a>
</g>
</g>
<!-- Node7&#45;&gt;Node11 -->
<g id="edge10" class="edge">
<title>Node7&#45;&gt;Node11</title>
<path fill="none" stroke="midnightblue" d="M471.19,-112.4C453.24,-102.77 429.58,-90.09 411.83,-80.58"/>
<polygon fill="midnightblue" stroke="midnightblue" points="413.12,-77.3 402.65,-75.66 409.81,-83.47 413.12,-77.3"/>
</g>
<!-- Node12 -->
<g id="node12" class="node">
<title>Node12</title>
<g id="a_node12"><a xlink:title=" ">
<polygon fill="white" stroke="#bfbfbf" points="1934.5,-56.5 1934.5,-75.5 1994.5,-75.5 1994.5,-56.5 1934.5,-56.5"/>
<text text-anchor="middle" x="1964.5" y="-63.5" font-family="Helvetica,sans-Serif" font-size="10.00">iostream</text>
</a>
</g>
</g>
<!-- Node7&#45;&gt;Node12 -->
<g id="edge11" class="edge">
<title>Node7&#45;&gt;Node12</title>
<path fill="none" stroke="midnightblue" d="M605.14,-125.36C888.41,-121.95 1650.88,-109.92 1924.08,-75.88"/>
<polygon fill="midnightblue" stroke="midnightblue" points="1924.9,-79.3 1934.37,-74.55 1924.01,-72.36 1924.9,-79.3"/>
</g>
<!-- Node13 -->
<g id="node13" class="node">
<title>Node13</title>
<g id="a_node13"><a xlink:title=" ">
<polygon fill="white" stroke="#bfbfbf" points="733.5,-56.5 733.5,-75.5 791.5,-75.5 791.5,-56.5 733.5,-56.5"/>
<text text-anchor="middle" x="762.5" y="-63.5" font-family="Helvetica,sans-Serif" font-size="10.00">memory</text>
</a>
</g>
</g>
<!-- Node7&#45;&gt;Node13 -->
<g id="edge12" class="edge">
<title>Node7&#45;&gt;Node13</title>
<path fill="none" stroke="midnightblue" d="M561.64,-112.48C604.74,-103 663.07,-90.06 723.38,-76.24"/>
<polygon fill="midnightblue" stroke="midnightblue" points="724.5,-79.57 733.46,-73.92 722.93,-72.75 724.5,-79.57"/>
</g>
<!-- Node14 -->
<g id="node14" class="node">
<title>Node14</title>
<g id="a_node14"><a xlink:title=" ">
<polygon fill="white" stroke="#bfbfbf" points="1404.5,-0.5 1404.5,-19.5 1452.5,-19.5 1452.5,-0.5 1404.5,-0.5"/>
<text text-anchor="middle" x="1428.5" y="-7.5" font-family="Helvetica,sans-Serif" font-size="10.00">mutex</text>
</a>
</g>
</g>
<!-- Node7&#45;&gt;Node14 -->
<g id="edge13" class="edge">
<title>Node7&#45;&gt;Node14</title>
<path fill="none" stroke="midnightblue" d="M536.3,-112.47C562.14,-102.85 596.68,-89.44 626.5,-76 644.26,-67.99 646.71,-61.13 665.5,-56 805.73,-17.73 1264.78,-12.01 1394.24,-11.15"/>
<polygon fill="midnightblue" stroke="midnightblue" points="1394.38,-14.65 1404.36,-11.09 1394.34,-7.65 1394.38,-14.65"/>
</g>
<!-- Node15 -->
<g id="node15" class="node">
<title>Node15</title>
<g id="a_node15"><a xlink:title=" ">
<polygon fill="white" stroke="#bfbfbf" points="428,-56.5 428,-75.5 475,-75.5 475,-56.5 428,-56.5"/>
<text text-anchor="middle" x="451.5" y="-63.5" font-family="Helvetica,sans-Serif" font-size="10.00">queue</text>
</a>
</g>
</g>
<!-- Node7&#45;&gt;Node15 -->
<g id="edge14" class="edge">
<title>Node7&#45;&gt;Node15</title>
<path fill="none" stroke="midnightblue" d="M486.6,-112.4C479.91,-103.75 471.32,-92.64 464.32,-83.58"/>
<polygon fill="midnightblue" stroke="midnightblue" points="467.08,-81.43 458.19,-75.66 461.54,-85.71 467.08,-81.43"/>
</g>
<!-- Node16 -->
<g id="node16" class="node">
<title>Node16</title>
<g id="a_node16"><a xlink:title=" ">
<polygon fill="white" stroke="#bfbfbf" points="674,-56.5 674,-75.5 715,-75.5 715,-56.5 674,-56.5"/>
<text text-anchor="middle" x="694.5" y="-63.5" font-family="Helvetica,sans-Serif" font-size="10.00">tuple</text>
</a>
</g>
</g>
<!-- Node7&#45;&gt;Node16 -->
<g id="edge15" class="edge">
<title>Node7&#45;&gt;Node16</title>
<path fill="none" stroke="midnightblue" d="M544.19,-112.4C581.35,-101.17 632.28,-85.79 664.28,-76.13"/>
<polygon fill="midnightblue" stroke="midnightblue" points="665.4,-79.45 673.96,-73.2 663.38,-72.74 665.4,-79.45"/>
</g>
<!-- Node17 -->
<g id="node17" class="node">
<title>Node17</title>
<g id="a_node17"><a xlink:title=" ">
<polygon fill="white" stroke="#bfbfbf" points="1777,-56.5 1777,-75.5 1846,-75.5 1846,-56.5 1777,-56.5"/>
<text text-anchor="middle" x="1811.5" y="-63.5" font-family="Helvetica,sans-Serif" font-size="10.00">type_traits</text>
</a>
</g>
</g>
<!-- Node7&#45;&gt;Node17 -->
<g id="edge16" class="edge">
<title>Node7&#45;&gt;Node17</title>
<path fill="none" stroke="midnightblue" d="M605.03,-121.63C876.65,-109.33 1581.88,-77.4 1766.65,-69.03"/>
<polygon fill="midnightblue" stroke="midnightblue" points="1766.98,-72.52 1776.81,-68.57 1766.67,-65.53 1766.98,-72.52"/>
</g>
<!-- Node18 -->
<g id="node18" class="node">
<title>Node18</title>
<g id="a_node18"><a xlink:href="config_8hpp.html" target="_top" xlink:title=" ">
<polygon fill="white" stroke="black" points="2336.5,-56.5 2336.5,-75.5 2496.5,-75.5 2496.5,-56.5 2336.5,-56.5"/>
<text text-anchor="middle" x="2416.5" y="-63.5" font-family="Helvetica,sans-Serif" font-size="10.00">cppuddle/common/config.hpp</text>
</a>
</g>
</g>
<!-- Node7&#45;&gt;Node18 -->
<g id="edge17" class="edge">
<title>Node7&#45;&gt;Node18</title>
<path fill="none" stroke="midnightblue" d="M605.14,-126.28C886.34,-125.11 1666.27,-118.05 2326.28,-76.02"/>
<polygon fill="midnightblue" stroke="midnightblue" points="2326.71,-79.5 2336.47,-75.37 2326.27,-72.52 2326.71,-79.5"/>
</g>
<!-- Node18&#45;&gt;Node14 -->
<g id="edge18" class="edge">
<title>Node18&#45;&gt;Node14</title>
<path fill="none" stroke="midnightblue" d="M2336.46,-56.71C2333.44,-56.46 2330.44,-56.22 2327.5,-56 1990.94,-30.58 1582.38,-16.02 1462.86,-12.09"/>
<polygon fill="midnightblue" stroke="midnightblue" points="1462.95,-8.59 1452.84,-11.76 1462.72,-15.59 1462.95,-8.59"/>
</g>
<!-- Node20 -->
<g id="node20" class="node">
<title>Node20</title>
<g id="a_node20"><a xlink:href="kernel__aggregation__interface_8hpp.html" target="_top" xlink:title=" ">
<polygon fill="white" stroke="black" points="536,-402.5 536,-432.5 719,-432.5 719,-402.5 536,-402.5"/>
<text text-anchor="start" x="544" y="-420.5" font-family="Helvetica,sans-Serif" font-size="10.00">cppuddle/kernel_aggregation</text>
<text text-anchor="middle" x="627.5" y="-409.5" font-family="Helvetica,sans-Serif" font-size="10.00">/kernel_aggregation_interface.hpp</text>
</a>
</g>
</g>
<!-- Node19&#45;&gt;Node20 -->
<g id="edge20" class="edge">
<title>Node19&#45;&gt;Node20</title>
<path fill="none" stroke="midnightblue" d="M367.91,-469.48C414.22,-460.38 488.65,-445.77 545.96,-434.51"/>
<polygon fill="midnightblue" stroke="midnightblue" points="546.95,-437.88 556.09,-432.52 545.6,-431.02 546.95,-437.88"/>
</g>
<!-- Node20&#45;&gt;Node6 -->
<g id="edge21" class="edge">
<title>Node20&#45;&gt;Node6</title>
<path fill="none" stroke="midnightblue" d="M601.68,-402.34C531.73,-363.98 338.54,-258.04 259.2,-214.53"/>
<polygon fill="midnightblue" stroke="midnightblue" points="260.56,-211.28 250.11,-209.54 257.19,-217.42 260.56,-211.28"/>
</g>
<!-- Node21 -->
<g id="node21" class="node">
<title>Node21</title>
<g id="a_node21"><a xlink:href="aggregation__executors__and__allocators_8hpp.html" target="_top" xlink:title=" ">
<polygon fill="white" stroke="black" points="938,-246.5 938,-287.5 1099,-287.5 1099,-246.5 938,-246.5"/>
<text text-anchor="start" x="946" y="-275.5" font-family="Helvetica,sans-Serif" font-size="10.00">cppuddle/kernel_aggregation</text>
<text text-anchor="start" x="946" y="-264.5" font-family="Helvetica,sans-Serif" font-size="10.00">/detail/aggregation_executors</text>
<text text-anchor="middle" x="1018.5" y="-253.5" font-family="Helvetica,sans-Serif" font-size="10.00">_and_allocators.hpp</text>
</a>
</g>
</g>
<!-- Node20&#45;&gt;Node21 -->
<g id="edge22" class="edge">
<title>Node20&#45;&gt;Node21</title>
<path fill="none" stroke="midnightblue" d="M675.55,-402.5C707.3,-392.94 749.68,-379.59 786.5,-366 849.05,-342.91 919.4,-312.56 966.07,-291.78"/>
<polygon fill="midnightblue" stroke="midnightblue" points="967.66,-294.91 975.36,-287.63 964.81,-288.51 967.66,-294.91"/>
</g>
<!-- Node45 -->
<g id="node45" class="node">
<title>Node45</title>
<g id="a_node45"><a xlink:href="aggregation__executor__pools_8hpp.html" target="_top" xlink:title=" ">
<polygon fill="white" stroke="black" points="619.5,-324.5 619.5,-365.5 777.5,-365.5 777.5,-324.5 619.5,-324.5"/>
<text text-anchor="start" x="627.5" y="-353.5" font-family="Helvetica,sans-Serif" font-size="10.00">cppuddle/kernel_aggregation</text>
<text text-anchor="start" x="627.5" y="-342.5" font-family="Helvetica,sans-Serif" font-size="10.00">/detail/aggregation_executor</text>
<text text-anchor="middle" x="698.5" y="-331.5" font-family="Helvetica,sans-Serif" font-size="10.00">_pools.hpp</text>
</a>
</g>
</g>
<!-- Node20&#45;&gt;Node45 -->
<g id="edge64" class="edge">
<title>Node20&#45;&gt;Node45</title>
<path fill="none" stroke="midnightblue" d="M641.87,-402.23C650.41,-393.75 661.52,-382.72 671.63,-372.68"/>
<polygon fill="midnightblue" stroke="midnightblue" points="674.14,-375.12 678.77,-365.59 669.21,-370.15 674.14,-375.12"/>
</g>
<!-- Node21&#45;&gt;Node2 -->
<g id="edge40" class="edge">
<title>Node21&#45;&gt;Node2</title>
<path fill="none" stroke="midnightblue" d="M937.9,-264.62C781.93,-261.14 428.22,-249.23 133.5,-210 125.7,-208.96 117.46,-207.56 109.48,-206.05"/>
<polygon fill="midnightblue" stroke="midnightblue" points="110.04,-202.59 99.55,-204.07 108.68,-209.45 110.04,-202.59"/>
</g>
<!-- Node21&#45;&gt;Node6 -->
<g id="edge63" class="edge">
<title>Node21&#45;&gt;Node6</title>
<path fill="none" stroke="midnightblue" d="M937.98,-261.37C807.87,-253.49 543.47,-235.75 320.5,-210 319.03,-209.83 317.56,-209.66 316.07,-209.48"/>
<polygon fill="midnightblue" stroke="midnightblue" points="316.51,-206 306.15,-208.23 315.63,-212.95 316.51,-206"/>
</g>
<!-- Node21&#45;&gt;Node12 -->
<g id="edge29" class="edge">
<title>Node21&#45;&gt;Node12</title>
<path fill="none" stroke="midnightblue" d="M1099.1,-264.67C1338.12,-260.32 2028.52,-244.8 2061.5,-210 2101.14,-168.17 2026.67,-108.6 1987.02,-81.46"/>
<polygon fill="midnightblue" stroke="midnightblue" points="1988.49,-78.24 1978.24,-75.59 1984.6,-84.06 1988.49,-78.24"/>
</g>
<!-- Node21&#45;&gt;Node13 -->
<g id="edge30" class="edge">
<title>Node21&#45;&gt;Node13</title>
<path fill="none" stroke="midnightblue" d="M937.79,-264.23C784.4,-260.03 463.04,-246.88 429.5,-210 420.23,-199.81 420.59,-189.51 429.5,-179 493.03,-104.12 556.08,-178.86 647.5,-143 685.1,-128.25 723.1,-99.92 744.63,-82.33"/>
<polygon fill="midnightblue" stroke="midnightblue" points="747.11,-84.82 752.55,-75.73 742.63,-79.44 747.11,-84.82"/>
</g>
<!-- Node21&#45;&gt;Node14 -->
<g id="edge31" class="edge">
<title>Node21&#45;&gt;Node14</title>
<path fill="none" stroke="midnightblue" d="M937.76,-263.24C781.44,-257.24 449.14,-240.97 407.5,-210 349.3,-166.71 303.3,-108.35 353.5,-56 390.36,-17.56 1214.92,-11.9 1394.27,-11.12"/>
<polygon fill="midnightblue" stroke="midnightblue" points="1394.46,-14.62 1404.44,-11.08 1394.43,-7.62 1394.46,-14.62"/>
</g>
<!-- Node21&#45;&gt;Node16 -->
<g id="edge35" class="edge">
<title>Node21&#45;&gt;Node16</title>
<path fill="none" stroke="midnightblue" d="M937.79,-264.38C782.15,-260.43 452.8,-247.65 418.5,-210 409.22,-199.82 409.68,-189.59 418.5,-179 475.19,-110.95 535.56,-183.17 614.5,-143 615.46,-142.51 654.92,-104.85 678.06,-82.73"/>
<polygon fill="midnightblue" stroke="midnightblue" points="680.66,-85.09 685.47,-75.64 675.82,-80.03 680.66,-85.09"/>
</g>
<!-- Node21&#45;&gt;Node17 -->
<g id="edge36" class="edge">
<title>Node21&#45;&gt;Node17</title>
<path fill="none" stroke="midnightblue" d="M1099.04,-264.59C1335.33,-260.07 2012.13,-244.18 2044.5,-210 2053.97,-200 2051.83,-190.66 2044.5,-179 2022.03,-143.26 1906.77,-99.57 1847.22,-78.91"/>
<polygon fill="midnightblue" stroke="midnightblue" points="1848.07,-75.5 1837.47,-75.56 1845.79,-82.12 1848.07,-75.5"/>
</g>
<!-- Node21&#45;&gt;Node18 -->
<g id="edge49" class="edge">
<title>Node21&#45;&gt;Node18</title>
<path fill="none" stroke="midnightblue" d="M1099.28,-266.08C1334.28,-265.7 2014.55,-260.17 2230.5,-210 2303.21,-193.11 2332.03,-196.09 2384.5,-143 2400.18,-127.13 2408.63,-102.41 2412.84,-85.5"/>
<polygon fill="midnightblue" stroke="midnightblue" points="2416.27,-86.21 2415.03,-75.69 2409.44,-84.69 2416.27,-86.21"/>
</g>
<!-- Node22 -->
<g id="node22" class="node">
<title>Node22</title>
<g id="a_node22"><a xlink:title=" ">
<polygon fill="white" stroke="#bfbfbf" points="2013,-56.5 2013,-75.5 2078,-75.5 2078,-56.5 2013,-56.5"/>
<text text-anchor="middle" x="2045.5" y="-63.5" font-family="Helvetica,sans-Serif" font-size="10.00">stdexcept</text>
</a>
</g>
</g>
<!-- Node21&#45;&gt;Node22 -->
<g id="edge23" class="edge">
<title>Node21&#45;&gt;Node22</title>
<path fill="none" stroke="midnightblue" d="M1099.28,-264.74C1341.45,-260.59 2046.85,-245.48 2080.5,-210 2113.67,-175.03 2078.98,-113.98 2058.4,-84.25"/>
<polygon fill="midnightblue" stroke="midnightblue" points="2061,-81.86 2052.32,-75.77 2055.31,-85.94 2061,-81.86"/>
</g>
<!-- Node23 -->
<g id="node23" class="node">
<title>Node23</title>
<g id="a_node23"><a xlink:title=" ">
<polygon fill="white" stroke="#bfbfbf" points="438.5,-185 438.5,-204 488.5,-204 488.5,-185 438.5,-185"/>
<text text-anchor="middle" x="463.5" y="-192" font-family="Helvetica,sans-Serif" font-size="10.00">stdio.h</text>
</a>
</g>
</g>
<!-- Node21&#45;&gt;Node23 -->
<g id="edge24" class="edge">
<title>Node21&#45;&gt;Node23</title>
<path fill="none" stroke="midnightblue" d="M937.96,-264.41C834.67,-260.78 650.7,-248.87 498.5,-210 495.99,-209.36 493.43,-208.57 490.88,-207.7"/>
<polygon fill="midnightblue" stroke="midnightblue" points="491.92,-204.35 481.33,-204.04 489.41,-210.89 491.92,-204.35"/>
</g>
<!-- Node24 -->
<g id="node24" class="node">
<title>Node24</title>
<g id="a_node24"><a xlink:title=" ">
<polygon fill="white" stroke="#bfbfbf" points="507,-185 507,-204 542,-204 542,-185 507,-185"/>
<text text-anchor="middle" x="524.5" y="-192" font-family="Helvetica,sans-Serif" font-size="10.00">any</text>
</a>
</g>
</g>
<!-- Node21&#45;&gt;Node24 -->
<g id="edge25" class="edge">
<title>Node21&#45;&gt;Node24</title>
<path fill="none" stroke="midnightblue" d="M937.68,-265.36C843.03,-262.57 682.5,-251.4 551.5,-210 550.07,-209.55 548.63,-209.02 547.2,-208.44"/>
<polygon fill="midnightblue" stroke="midnightblue" points="548.61,-205.23 538.08,-204.06 545.58,-211.54 548.61,-205.23"/>
</g>
<!-- Node25 -->
<g id="node25" class="node">
<title>Node25</title>
<g id="a_node25"><a xlink:title=" ">
<polygon fill="white" stroke="#bfbfbf" points="2096.5,-56.5 2096.5,-75.5 2146.5,-75.5 2146.5,-56.5 2096.5,-56.5"/>
<text text-anchor="middle" x="2121.5" y="-63.5" font-family="Helvetica,sans-Serif" font-size="10.00">atomic</text>
</a>
</g>
</g>
<!-- Node21&#45;&gt;Node25 -->
<g id="edge26" class="edge">
<title>Node21&#45;&gt;Node25</title>
<path fill="none" stroke="midnightblue" d="M1099.27,-264.6C1344.11,-259.98 2063.59,-243.59 2100.5,-210 2135.21,-178.41 2130.41,-116.65 2125.31,-85.67"/>
<polygon fill="midnightblue" stroke="midnightblue" points="2128.74,-84.96 2123.48,-75.76 2121.85,-86.22 2128.74,-84.96"/>
</g>
<!-- Node26 -->
<g id="node26" class="node">
<title>Node26</title>
<g id="a_node26"><a xlink:title=" ">
<polygon fill="white" stroke="#bfbfbf" points="560.5,-185 560.5,-204 610.5,-204 610.5,-185 560.5,-185"/>
<text text-anchor="middle" x="585.5" y="-192" font-family="Helvetica,sans-Serif" font-size="10.00">chrono</text>
</a>
</g>
</g>
<!-- Node21&#45;&gt;Node26 -->
<g id="edge27" class="edge">
<title>Node21&#45;&gt;Node26</title>
<path fill="none" stroke="midnightblue" d="M937.74,-260.93C856.23,-254.37 727.33,-239.99 619.5,-210 617.2,-209.36 614.86,-208.6 612.53,-207.77"/>
<polygon fill="midnightblue" stroke="midnightblue" points="613.77,-204.5 603.18,-204.08 611.2,-211.01 613.77,-204.5"/>
</g>
<!-- Node27 -->
<g id="node27" class="node">
<title>Node27</title>
<g id="a_node27"><a xlink:title=" ">
<polygon fill="white" stroke="#bfbfbf" points="628.5,-185 628.5,-204 674.5,-204 674.5,-185 628.5,-185"/>
<text text-anchor="middle" x="651.5" y="-192" font-family="Helvetica,sans-Serif" font-size="10.00">cstdio</text>
</a>
</g>
</g>
<!-- Node21&#45;&gt;Node27 -->
<g id="edge28" class="edge">
<title>Node21&#45;&gt;Node27</title>
<path fill="none" stroke="midnightblue" d="M937.94,-258.16C869.49,-250.16 769.15,-235.27 684.5,-210 682.36,-209.36 680.17,-208.62 677.99,-207.81"/>
<polygon fill="midnightblue" stroke="midnightblue" points="679.25,-204.54 668.66,-204 676.6,-211.02 679.25,-204.54"/>
</g>
<!-- Node28 -->
<g id="node28" class="node">
<title>Node28</title>
<g id="a_node28"><a xlink:title=" ">
<polygon fill="white" stroke="#bfbfbf" points="2514.5,-56.5 2514.5,-75.5 2570.5,-75.5 2570.5,-56.5 2514.5,-56.5"/>
<text text-anchor="middle" x="2542.5" y="-63.5" font-family="Helvetica,sans-Serif" font-size="10.00">optional</text>
</a>
</g>
</g>
<!-- Node21&#45;&gt;Node28 -->
<g id="edge32" class="edge">
<title>Node21&#45;&gt;Node28</title>
<path fill="none" stroke="midnightblue" d="M1099.42,-264.71C1362.49,-260.22 2183.16,-243.63 2297.5,-210 2390.62,-182.61 2485.58,-112.63 2524.35,-81.88"/>
<polygon fill="midnightblue" stroke="midnightblue" points="2526.55,-84.6 2532.15,-75.61 2522.16,-79.14 2526.55,-84.6"/>
</g>
<!-- Node29 -->
<g id="node29" class="node">
<title>Node29</title>
<g id="a_node29"><a xlink:title=" ">
<polygon fill="white" stroke="#bfbfbf" points="693,-185 693,-204 750,-204 750,-185 693,-185"/>
<text text-anchor="middle" x="721.5" y="-192" font-family="Helvetica,sans-Serif" font-size="10.00">ostream</text>
</a>
</g>
</g>
<!-- Node21&#45;&gt;Node29 -->
<g id="edge33" class="edge">
<title>Node21&#45;&gt;Node29</title>
<path fill="none" stroke="midnightblue" d="M937.78,-251.82C886.28,-241.96 818.37,-227.49 759.5,-210 756.92,-209.23 754.27,-208.38 751.63,-207.47"/>
<polygon fill="midnightblue" stroke="midnightblue" points="752.81,-204.17 742.21,-204.05 750.42,-210.75 752.81,-204.17"/>
</g>
<!-- Node30 -->
<g id="node30" class="node">
<title>Node30</title>
<g id="a_node30"><a xlink:title=" ">
<polygon fill="white" stroke="#bfbfbf" points="768.5,-185 768.5,-204 812.5,-204 812.5,-185 768.5,-185"/>
<text text-anchor="middle" x="790.5" y="-192" font-family="Helvetica,sans-Serif" font-size="10.00">string</text>
</a>
</g>
</g>
<!-- Node21&#45;&gt;Node30 -->
<g id="edge34" class="edge">
<title>Node21&#45;&gt;Node30</title>
<path fill="none" stroke="midnightblue" d="M939.92,-246.39C903.76,-236.64 860.54,-223.97 822.5,-210 820.89,-209.41 819.24,-208.77 817.59,-208.1"/>
<polygon fill="midnightblue" stroke="midnightblue" points="818.82,-204.82 808.25,-204.1 816.06,-211.26 818.82,-204.82"/>
</g>
<!-- Node31 -->
<g id="node31" class="node">
<title>Node31</title>
<g id="a_node31"><a xlink:title=" ">
<polygon fill="white" stroke="#bfbfbf" points="831,-185 831,-204 888,-204 888,-185 831,-185"/>
<text text-anchor="middle" x="859.5" y="-192" font-family="Helvetica,sans-Serif" font-size="10.00">typeinfo</text>
</a>
</g>
</g>
<!-- Node21&#45;&gt;Node31 -->
<g id="edge37" class="edge">
<title>Node21&#45;&gt;Node31</title>
<path fill="none" stroke="midnightblue" d="M974.21,-246.36C946.75,-234.19 912.27,-218.9 888.32,-208.28"/>
<polygon fill="midnightblue" stroke="midnightblue" points="889.62,-205.03 879.06,-204.17 886.78,-211.43 889.62,-205.03"/>
</g>
<!-- Node32 -->
<g id="node32" class="node">
<title>Node32</title>
<g id="a_node32"><a xlink:title=" ">
<polygon fill="white" stroke="#bfbfbf" points="906,-185 906,-204 951,-204 951,-185 906,-185"/>
<text text-anchor="middle" x="928.5" y="-192" font-family="Helvetica,sans-Serif" font-size="10.00">utility</text>
</a>
</g>
</g>
<!-- Node21&#45;&gt;Node32 -->
<g id="edge38" class="edge">
<title>Node21&#45;&gt;Node32</title>
<path fill="none" stroke="midnightblue" d="M993.43,-246.36C978.92,-235 960.95,-220.92 947.6,-210.46"/>
<polygon fill="midnightblue" stroke="midnightblue" points="949.6,-207.58 939.57,-204.17 945.29,-213.1 949.6,-207.58"/>
</g>
<!-- Node33 -->
<g id="node33" class="node">
<title>Node33</title>
<g id="a_node33"><a xlink:title=" ">
<polygon fill="white" stroke="#bfbfbf" points="2589,-56.5 2589,-75.5 2682,-75.5 2682,-56.5 2589,-56.5"/>
<text text-anchor="middle" x="2635.5" y="-63.5" font-family="Helvetica,sans-Serif" font-size="10.00">unordered_map</text>
</a>
</g>
</g>
<!-- Node21&#45;&gt;Node33 -->
<g id="edge39" class="edge">
<title>Node21&#45;&gt;Node33</title>
<path fill="none" stroke="midnightblue" d="M1099.12,-264.55C1368.34,-259.42 2226.14,-240.84 2346.5,-210 2454.05,-182.44 2568.42,-111.75 2614.49,-81.3"/>
<polygon fill="midnightblue" stroke="midnightblue" points="2616.64,-84.08 2623.01,-75.61 2612.75,-78.25 2616.64,-84.08"/>
</g>
<!-- Node34 -->
<g id="node34" class="node">
<title>Node34</title>
<g id="a_node34"><a xlink:title=" ">
<polygon fill="white" stroke="#bfbfbf" points="969.5,-185 969.5,-204 1067.5,-204 1067.5,-185 969.5,-185"/>
<text text-anchor="middle" x="1018.5" y="-192" font-family="Helvetica,sans-Serif" font-size="10.00">hpx/hpx_init.hpp</text>
</a>
</g>
</g>
<!-- Node21&#45;&gt;Node34 -->
<g id="edge41" class="edge">
<title>Node21&#45;&gt;Node34</title>
<path fill="none" stroke="midnightblue" d="M1018.5,-246.36C1018.5,-236.3 1018.5,-224.1 1018.5,-214.18"/>
<polygon fill="midnightblue" stroke="midnightblue" points="1022,-214.17 1018.5,-204.17 1015,-214.17 1022,-214.17"/>
</g>
<!-- Node35 -->
<g id="node35" class="node">
<title>Node35</title>
<g id="a_node35"><a xlink:title=" ">
<polygon fill="white" stroke="#bfbfbf" points="1086,-185 1086,-204 1211,-204 1211,-185 1086,-185"/>
<text text-anchor="middle" x="1148.5" y="-192" font-family="Helvetica,sans-Serif" font-size="10.00">hpx/include/async.hpp</text>
</a>
</g>
</g>
<!-- Node21&#45;&gt;Node35 -->
<g id="edge42" class="edge">
<title>Node21&#45;&gt;Node35</title>
<path fill="none" stroke="midnightblue" d="M1054.71,-246.36C1076.66,-234.46 1104.11,-219.58 1123.62,-208.99"/>
<polygon fill="midnightblue" stroke="midnightblue" points="1125.38,-212.02 1132.51,-204.17 1122.05,-205.86 1125.38,-212.02"/>
</g>
<!-- Node36 -->
<g id="node36" class="node">
<title>Node36</title>
<g id="a_node36"><a xlink:title=" ">
<polygon fill="white" stroke="#bfbfbf" points="1229.5,-185 1229.5,-204 1375.5,-204 1375.5,-185 1229.5,-185"/>
<text text-anchor="middle" x="1302.5" y="-192" font-family="Helvetica,sans-Serif" font-size="10.00">hpx/include/iostreams.hpp</text>
</a>
</g>
</g>
<!-- Node21&#45;&gt;Node36 -->
<g id="edge43" class="edge">
<title>Node21&#45;&gt;Node36</title>
<path fill="none" stroke="midnightblue" d="M1097.23,-246.46C1149.21,-233.55 1215.4,-217.12 1258.34,-206.46"/>
<polygon fill="midnightblue" stroke="midnightblue" points="1259.34,-209.82 1268.21,-204.01 1257.66,-203.03 1259.34,-209.82"/>
</g>
<!-- Node37 -->
<g id="node37" class="node">
<title>Node37</title>
<g id="a_node37"><a xlink:title=" ">
<polygon fill="white" stroke="#bfbfbf" points="1393.5,-185 1393.5,-204 1509.5,-204 1509.5,-185 1393.5,-185"/>
<text text-anchor="middle" x="1451.5" y="-192" font-family="Helvetica,sans-Serif" font-size="10.00">hpx/include/lcos.hpp</text>
</a>
</g>
</g>
<!-- Node21&#45;&gt;Node37 -->
<g id="edge44" class="edge">
<title>Node21&#45;&gt;Node37</title>
<path fill="none" stroke="midnightblue" d="M1099.06,-255.12C1173.38,-244.74 1286.68,-228.05 1384.5,-210 1390.8,-208.84 1397.41,-207.52 1403.92,-206.17"/>
<polygon fill="midnightblue" stroke="midnightblue" points="1404.96,-209.53 1414.02,-204.04 1403.51,-202.68 1404.96,-209.53"/>
</g>
<!-- Node38 -->
<g id="node38" class="node">
<title>Node38</title>
<g id="a_node38"><a xlink:title=" ">
<polygon fill="white" stroke="#bfbfbf" points="1528,-185 1528,-204 1649,-204 1649,-185 1528,-185"/>
<text text-anchor="middle" x="1588.5" y="-192" font-family="Helvetica,sans-Serif" font-size="10.00">hpx/lcos/promise.hpp</text>
</a>
</g>
</g>
<!-- Node21&#45;&gt;Node38 -->
<g id="edge45" class="edge">
<title>Node21&#45;&gt;Node38</title>
<path fill="none" stroke="midnightblue" d="M1099.35,-259.27C1198.47,-250.48 1371.42,-233.42 1518.5,-210 1525.66,-208.86 1533.2,-207.48 1540.57,-206.04"/>
<polygon fill="midnightblue" stroke="midnightblue" points="1541.36,-209.45 1550.47,-204.05 1539.98,-202.59 1541.36,-209.45"/>
</g>
<!-- Node39 -->
<g id="node39" class="node">
<title>Node39</title>
<g id="a_node39"><a xlink:title=" ">
<polygon fill="white" stroke="#bfbfbf" points="1667.5,-185 1667.5,-204 1757.5,-204 1757.5,-185 1667.5,-185"/>
<text text-anchor="middle" x="1712.5" y="-192" font-family="Helvetica,sans-Serif" font-size="10.00">hpx/mutex.hpp</text>
</a>
</g>
</g>
<!-- Node21&#45;&gt;Node39 -->
<g id="edge46" class="edge">
<title>Node21&#45;&gt;Node39</title>
<path fill="none" stroke="midnightblue" d="M1099.16,-263.47C1221.1,-258.62 1459.29,-245.18 1658.5,-210 1663.68,-209.08 1669.1,-207.91 1674.41,-206.62"/>
<polygon fill="midnightblue" stroke="midnightblue" points="1675.59,-209.93 1684.4,-204.04 1673.85,-203.15 1675.59,-209.93"/>
</g>
<!-- Node40 -->
<g id="node40" class="node">
<title>Node40</title>
<g id="a_node40"><a xlink:title=" ">
<polygon fill="white" stroke="#bfbfbf" points="1775.5,-185 1775.5,-204 1915.5,-204 1915.5,-185 1775.5,-185"/>
<text text-anchor="middle" x="1845.5" y="-192" font-family="Helvetica,sans-Serif" font-size="10.00">boost/core/demangle.hpp</text>
</a>
</g>
</g>
<!-- Node21&#45;&gt;Node40 -->
<g id="edge47" class="edge">
<title>Node21&#45;&gt;Node40</title>
<path fill="none" stroke="midnightblue" d="M1099.04,-262.79C1236.41,-256.7 1524.65,-241.16 1766.5,-210 1775.34,-208.86 1784.7,-207.39 1793.75,-205.81"/>
<polygon fill="midnightblue" stroke="midnightblue" points="1794.59,-209.22 1803.81,-204.01 1793.35,-202.33 1794.59,-209.22"/>
</g>
<!-- Node41 -->
<g id="node41" class="node">
<title>Node41</title>
<g id="a_node41"><a xlink:title=" ">
<polygon fill="white" stroke="#bfbfbf" points="1934,-185 1934,-204 2035,-204 2035,-185 1934,-185"/>
<text text-anchor="middle" x="1984.5" y="-192" font-family="Helvetica,sans-Serif" font-size="10.00">boost/format.hpp</text>
</a>
</g>
</g>
<!-- Node21&#45;&gt;Node41 -->
<g id="edge48" class="edge">
<title>Node21&#45;&gt;Node41</title>
<path fill="none" stroke="midnightblue" d="M1099.29,-265.74C1258.24,-264.19 1622.37,-255.48 1924.5,-210 1930.76,-209.06 1937.32,-207.78 1943.72,-206.37"/>
<polygon fill="midnightblue" stroke="midnightblue" points="1944.62,-209.75 1953.56,-204.07 1943.03,-202.93 1944.62,-209.75"/>
</g>
<!-- Node42 -->
<g id="node42" class="node">
<title>Node42</title>
<g id="a_node42"><a xlink:href="buffer__management_8hpp.html" target="_top" xlink:title=" ">
<polygon fill="white" stroke="black" points="2205.5,-112.5 2205.5,-142.5 2375.5,-142.5 2375.5,-112.5 2205.5,-112.5"/>
<text text-anchor="start" x="2213.5" y="-130.5" font-family="Helvetica,sans-Serif" font-size="10.00">cppuddle/memory_recycling</text>
<text text-anchor="middle" x="2290.5" y="-119.5" font-family="Helvetica,sans-Serif" font-size="10.00">/detail/buffer_management.hpp</text>
</a>
</g>
</g>
<!-- Node21&#45;&gt;Node42 -->
<g id="edge50" class="edge">
<title>Node21&#45;&gt;Node42</title>
<path fill="none" stroke="midnightblue" d="M1099.4,-265.08C1348.05,-261.85 2090.39,-249.01 2191.5,-210 2223.99,-197.46 2253.75,-169.81 2271.97,-150.2"/>
<polygon fill="midnightblue" stroke="midnightblue" points="2274.72,-152.38 2278.83,-142.61 2269.52,-147.69 2274.72,-152.38"/>
</g>
<!-- Node42&#45;&gt;Node10 -->
<g id="edge52" class="edge">
<title>Node42&#45;&gt;Node10</title>
<path fill="none" stroke="midnightblue" d="M2205.23,-117.49C2133.36,-109.26 2027.66,-95.65 1926.85,-76.08"/>
<polygon fill="midnightblue" stroke="midnightblue" points="1927.29,-72.6 1916.8,-74.11 1925.94,-79.47 1927.29,-72.6"/>
</g>
<!-- Node42&#45;&gt;Node12 -->
<g id="edge54" class="edge">
<title>Node42&#45;&gt;Node12</title>
<path fill="none" stroke="midnightblue" d="M2205.21,-112.51C2148.25,-102.9 2071.73,-89.49 2004.5,-76 2004.4,-75.98 2004.3,-75.96 2004.2,-75.94"/>
<polygon fill="midnightblue" stroke="midnightblue" points="2005.11,-72.56 1994.61,-73.93 2003.68,-79.41 2005.11,-72.56"/>
</g>
<!-- Node42&#45;&gt;Node13 -->
<g id="edge56" class="edge">
<title>Node42&#45;&gt;Node13</title>
<path fill="none" stroke="midnightblue" d="M2205.35,-123.18C1919.8,-112.06 1002.84,-76.36 801.73,-68.53"/>
<polygon fill="midnightblue" stroke="midnightblue" points="801.76,-65.03 791.63,-68.13 801.49,-72.02 801.76,-65.03"/>
</g>
<!-- Node42&#45;&gt;Node14 -->
<g id="edge57" class="edge">
<title>Node42&#45;&gt;Node14</title>
<path fill="none" stroke="midnightblue" d="M2278.7,-112.32C2263.68,-95.43 2236,-68.01 2205.5,-56 2135.81,-28.56 1603.98,-14.89 1462.81,-11.73"/>
<polygon fill="midnightblue" stroke="midnightblue" points="1462.66,-8.22 1452.59,-11.5 1462.51,-15.22 1462.66,-8.22"/>
</g>
<!-- Node42&#45;&gt;Node17 -->
<g id="edge60" class="edge">
<title>Node42&#45;&gt;Node17</title>
<path fill="none" stroke="midnightblue" d="M2205.18,-118.79C2119.49,-110.54 1983.49,-96.1 1855.98,-75.94"/>
<polygon fill="midnightblue" stroke="midnightblue" points="1856.46,-72.48 1846.04,-74.36 1855.36,-79.39 1856.46,-72.48"/>
</g>
<!-- Node42&#45;&gt;Node18 -->
<g id="edge62" class="edge">
<title>Node42&#45;&gt;Node18</title>
<path fill="none" stroke="midnightblue" d="M2320.36,-112.4C2341.12,-102.59 2368.6,-89.62 2388.86,-80.05"/>
<polygon fill="midnightblue" stroke="midnightblue" points="2390.62,-83.09 2398.17,-75.66 2387.63,-76.76 2390.62,-83.09"/>
</g>
<!-- Node42&#45;&gt;Node22 -->
<g id="edge59" class="edge">
<title>Node42&#45;&gt;Node22</title>
<path fill="none" stroke="midnightblue" d="M2232.75,-112.47C2188.28,-101.67 2127.83,-86.99 2087.78,-77.27"/>
<polygon fill="midnightblue" stroke="midnightblue" points="2088.61,-73.87 2078.07,-74.91 2086.96,-80.67 2088.61,-73.87"/>
</g>
<!-- Node42&#45;&gt;Node25 -->
<g id="edge51" class="edge">
<title>Node42&#45;&gt;Node25</title>
<path fill="none" stroke="midnightblue" d="M2250.45,-112.4C2221.59,-102.24 2183.05,-88.67 2155.65,-79.02"/>
<polygon fill="midnightblue" stroke="midnightblue" points="2156.69,-75.68 2146.09,-75.66 2154.36,-82.28 2156.69,-75.68"/>
</g>
<!-- Node42&#45;&gt;Node28 -->
<g id="edge58" class="edge">
<title>Node42&#45;&gt;Node28</title>
<path fill="none" stroke="midnightblue" d="M2350.77,-112.48C2391.53,-102.96 2446.84,-89.99 2504.24,-76.29"/>
<polygon fill="midnightblue" stroke="midnightblue" points="2505.31,-79.63 2514.22,-73.9 2503.68,-72.82 2505.31,-79.63"/>
</g>
<!-- Node42&#45;&gt;Node33 -->
<g id="edge61" class="edge">
<title>Node42&#45;&gt;Node33</title>
<path fill="none" stroke="midnightblue" d="M2371.82,-112.47C2435.4,-101.51 2522.16,-86.55 2578.51,-76.83"/>
<polygon fill="midnightblue" stroke="midnightblue" points="2579.4,-80.23 2588.66,-75.08 2578.21,-73.33 2579.4,-80.23"/>
</g>
<!-- Node43 -->
<g id="node43" class="node">
<title>Node43</title>
<g id="a_node43"><a xlink:title=" ">
<polygon fill="white" stroke="#bfbfbf" points="2253,-56.5 2253,-75.5 2318,-75.5 2318,-56.5 2253,-56.5"/>
<text text-anchor="middle" x="2285.5" y="-63.5" font-family="Helvetica,sans-Serif" font-size="10.00">functional</text>
</a>
</g>
</g>
<!-- Node42&#45;&gt;Node43 -->
<g id="edge53" class="edge">
<title>Node42&#45;&gt;Node43</title>
<path fill="none" stroke="midnightblue" d="M2289.32,-112.4C2288.65,-104.47 2287.81,-94.46 2287.08,-85.86"/>
<polygon fill="midnightblue" stroke="midnightblue" points="2290.55,-85.33 2286.23,-75.66 2283.58,-85.92 2290.55,-85.33"/>
</g>
<!-- Node44 -->
<g id="node44" class="node">
<title>Node44</title>
<g id="a_node44"><a xlink:title=" ">
<polygon fill="white" stroke="#bfbfbf" points="2164.5,-56.5 2164.5,-75.5 2196.5,-75.5 2196.5,-56.5 2164.5,-56.5"/>
<text text-anchor="middle" x="2180.5" y="-63.5" font-family="Helvetica,sans-Serif" font-size="10.00">list</text>
</a>
</g>
</g>
<!-- Node42&#45;&gt;Node44 -->
<g id="edge55" class="edge">
<title>Node42&#45;&gt;Node44</title>
<path fill="none" stroke="midnightblue" d="M2264.43,-112.4C2246.63,-102.77 2223.19,-90.09 2205.6,-80.58"/>
<polygon fill="midnightblue" stroke="midnightblue" points="2206.97,-77.34 2196.51,-75.66 2203.64,-83.49 2206.97,-77.34"/>
</g>
<!-- Node45&#45;&gt;Node21 -->
<g id="edge65" class="edge">
<title>Node45&#45;&gt;Node21</title>
<path fill="none" stroke="midnightblue" d="M777.6,-325.21C823.13,-314.4 880.52,-300.77 927.86,-289.53"/>
<polygon fill="midnightblue" stroke="midnightblue" points="928.89,-292.88 937.81,-287.16 927.27,-286.07 928.89,-292.88"/>
</g>
</g>
</svg>
        <g id="navigator" transform="translate(0 0)" fill="#404254">
                <rect fill="#f2f5e9" fill-opacity="0.5" stroke="#606060" stroke-width=".5" x="0" y="0" width="60" height="60"/>
                <use id="zoomplus" xlink:href="#zoomPlus" x="17" y="9" onmousedown="handleZoom(evt,'in')"/>
                <use id="zoomminus" xlink:href="#zoomMin" x="42" y="9" onmousedown="handleZoom(evt,'out')"/>
                <use id="reset" xlink:href="#resetDef" x="30" y="36" onmousedown="handleReset()"/>
                <g id="arrowUp" xlink:href="#dirArrow" transform="translate(30 24)" onmousedown="handlePan(0,-1)">
                  <use xlink:href="#rim" fill="#404040">
                        <set attributeName="fill" to="#808080" begin="arrowUp.mouseover" end="arrowUp.mouseout"/>
                  </use>
                  <path fill="none" stroke="white" stroke-width="1.5" d="M0,-3.0v7 M-2.5,-0.5L0,-3.0L2.5,-0.5"/>
                </g>
                <g id="arrowRight" xlink:href="#dirArrow" transform="rotate(90) translate(36 -43)" onmousedown="handlePan(1,0)">
                  <use xlink:href="#rim" fill="#404040">
                        <set attributeName="fill" to="#808080" begin="arrowRight.mouseover" end="arrowRight.mouseout"/>
                  </use>
                  <path fill="none" stroke="white" stroke-width="1.5" d="M0,-3.0v7 M-2.5,-0.5L0,-3.0L2.5,-0.5"/>
                </g>
                <g id="arrowDown" xlink:href="#dirArrow" transform="rotate(180) translate(-30 -48)" onmousedown="handlePan(0,1)">
                  <use xlink:href="#rim" fill="#404040">
                        <set attributeName="fill" to="#808080" begin="arrowDown.mouseover" end="arrowDown.mouseout"/>
                  </use>
                  <path fill="none" stroke="white" stroke-width="1.5" d="M0,-3.0v7 M-2.5,-0.5L0,-3.0L2.5,-0.5"/>
                </g>
                <g id="arrowLeft" xlink:href="#dirArrow" transform="rotate(270) translate(-36 17)" onmousedown="handlePan(-1,0)">
                  <use xlink:href="#rim" fill="#404040">
                        <set attributeName="fill" to="#808080" begin="arrowLeft.mouseover" end="arrowLeft.mouseout"/>
                  </use>
                  <path fill="none" stroke="white" stroke-width="1.5" d="M0,-3.0v7 M-2.5,-0.5L0,-3.0L2.5,-0.5"/>
                </g>
        </g>
        <svg viewBox="0 0 15 15" width="100%" height="30px" preserveAspectRatio="xMaxYMin meet">
         <g id="arrow_out" transform="scale(0.3 0.3)">
          <a xlink:href="kokkos__aggregation__util_8hpp__incl_org.svg" target="_base">
           <rect id="button" ry="5" rx="5" y="6" x="6" height="38" width="38"
                fill="#f2f5e9" fill-opacity="0.5" stroke="#606060" stroke-width="1.0"/>
           <path id="arrow"
             d="M 11.500037,31.436501 C 11.940474,20.09759 22.043105,11.32322 32.158766,21.979434 L 37.068811,17.246167 C 37.068811,17.246167 37.088388,32 37.088388,32 L 22.160133,31.978069 C 22.160133,31.978069 26.997745,27.140456 26.997745,27.140456 C 18.528582,18.264221 13.291696,25.230495 11.500037,31.436501 z"
             style="fill:#404040;"/>
          </a>
         </g>
        </svg>
</svg>
