<?xml version="1.0" encoding="UTF-8" standalone="no"?>
<!DOCTYPE svg PUBLIC "-//W3C//DTD SVG 1.1//EN"
 "http://www.w3.org/Graphics/SVG/1.1/DTD/svg11.dtd">
<!-- Generated by graphviz version 2.43.0 (0)
 -->
<!-- Title: include/cppuddle/kernel_aggregation/util/kokkos_aggregation_util.hpp Pages: 1 -->
<!--zoomable 575 -->
<svg id="main" version="1.1" xmlns="http://www.w3.org/2000/svg" xmlns:xlink="http://www.w3.org/1999/xlink" xml:space="preserve" onload="init(evt)">
<style type="text/css"><![CDATA[
.edge:hover path { stroke: red; }
.edge:hover polygon { stroke: red; fill: red; }
]]></style>
<script type="text/javascript"><![CDATA[
var edges = document.getElementsByTagName('g');
if (edges && edges.length) {
  for (var i=0;i<edges.length;i++) {
    if (edges[i].id.substr(0,4)=='edge') {
      edges[i].setAttribute('class','edge');
    }
  }
}
]]></script>
        <defs>
                <circle id="rim" cx="0" cy="0" r="7"/>
                <circle id="rim2" cx="0" cy="0" r="3.5"/>
                <g id="zoomPlus">
                        <use xlink:href="#rim" fill="#404040">
                                <set attributeName="fill" to="#808080" begin="zoomplus.mouseover" end="zoomplus.mouseout"/>
                        </use>
                        <path d="M-4,0h8M0,-4v8" fill="none" stroke="white" stroke-width="1.5" pointer-events="none"/>
                </g>
                <g id="zoomMin">
                        <use xlink:href="#rim" fill="#404040">
                                <set attributeName="fill" to="#808080" begin="zoomminus.mouseover" end="zoomminus.mouseout"/>
                        </use>
                        <path d="M-4,0h8" fill="none" stroke="white" stroke-width="1.5" pointer-events="none"/>
                </g>
                <g id="dirArrow">
                        <path fill="none" stroke="white" stroke-width="1.5" d="M0,-3.0v7 M-2.5,-0.5L0,-3.0L2.5,-0.5"/>
                </g>
               <g id="resetDef">
                       <use xlink:href="#rim2" fill="#404040">
                               <set attributeName="fill" to="#808080" begin="reset.mouseover" end="reset.mouseout"/>
                       </use>
               </g>
        </defs>

<script type="text/javascript">
var viewWidth = 2675;
var viewHeight = 575;
var sectionId = 'dynsection-0';
</script>
<script xlink:href="svgpan.js"/>
<svg id="graph" class="graph">
<g id="viewport">
<title>include/cppuddle/kernel_aggregation/util/kokkos_aggregation_util.hpp</title>
<polygon fill="white" stroke="transparent" points="-4,4 -4,-571 2671,-571 2671,4 -4,4"/>
<!-- Node1 -->
<g id="node1" class="node">
<title>Node1</title>
<g id="a_node1"><a xlink:title=" ">
<polygon fill="#bfbfbf" stroke="black" points="337.5,-525.5 337.5,-566.5 473.5,-566.5 473.5,-525.5 337.5,-525.5"/>
<text text-anchor="start" x="345.5" y="-554.5" font-family="Helvetica,sans-Serif" font-size="10.00">include/cppuddle/kernel</text>
<text text-anchor="start" x="345.5" y="-543.5" font-family="Helvetica,sans-Serif" font-size="10.00">_aggregation/util/kokkos</text>
<text text-anchor="middle" x="405.5" y="-532.5" font-family="Helvetica,sans-Serif" font-size="10.00">_aggregation_util.hpp</text>
</a>
</g>
</g>
<!-- Node2 -->
<g id="node2" class="node">
<title>Node2</title>
<g id="a_node2"><a xlink:title=" ">
<polygon fill="white" stroke="#bfbfbf" points="0,-185 0,-204 125,-204 125,-185 0,-185"/>
<text text-anchor="middle" x="62.5" y="-192" font-family="Helvetica,sans-Serif" font-size="10.00">hpx/futures/future.hpp</text>
</a>
</g>
</g>
<!-- Node1&#45;&gt;Node2 -->
<g id="edge1" class="edge">
<title>Node1&#45;&gt;Node2</title>
<path fill="none" stroke="midnightblue" d="M337.48,-543.03C254.32,-536.58 124.5,-511.59 124.5,-418.5 124.5,-418.5 124.5,-418.5 124.5,-344 124.5,-292.99 92.96,-239.21 74.87,-212.55"/>
<polygon fill="midnightblue" stroke="midnightblue" points="77.5,-210.2 68.9,-204.01 71.77,-214.21 77.5,-210.2"/>
</g>
<!-- Node3 -->
<g id="node3" class="node">
<title>Node3</title>
<g id="a_node3"><a xlink:title=" ">
<polygon fill="white" stroke="#bfbfbf" points="415,-469.5 415,-488.5 558,-488.5 558,-469.5 415,-469.5"/>
<text text-anchor="middle" x="486.5" y="-476.5" font-family="Helvetica,sans-Serif" font-size="10.00">hpx/kokkos/executors.hpp</text>
</a>
</g>
</g>
<!-- Node1&#45;&gt;Node3 -->
<g id="edge2" class="edge">
<title>Node1&#45;&gt;Node3</title>
<path fill="none" stroke="midnightblue" d="M429.8,-525.5C441.98,-515.72 456.5,-504.07 467.8,-495.01"/>
<polygon fill="midnightblue" stroke="midnightblue" points="470.11,-497.64 475.72,-488.65 465.73,-492.18 470.11,-497.64"/>
</g>
<!-- Node4 -->
<g id="node4" class="node">
<title>Node4</title>
<g id="a_node4"><a xlink:title=" ">
<polygon fill="white" stroke="#bfbfbf" points="576.5,-469.5 576.5,-488.5 676.5,-488.5 676.5,-469.5 576.5,-469.5"/>
<text text-anchor="middle" x="626.5" y="-476.5" font-family="Helvetica,sans-Serif" font-size="10.00">Kokkos_Core.hpp</text>
</a>
</g>
</g>
<!-- Node1&#45;&gt;Node4 -->
<g id="edge3" class="edge">
<title>Node1&#45;&gt;Node4</title>
<path fill="none" stroke="midnightblue" d="M471.81,-525.5C509.55,-514.4 555.53,-500.87 587.51,-491.47"/>
<polygon fill="midnightblue" stroke="midnightblue" points="588.77,-494.75 597.37,-488.57 586.79,-488.03 588.77,-494.75"/>
</g>
<!-- Node5 -->
<g id="node5" class="node">
<title>Node5</title>
<g id="a_node5"><a xlink:title=" ">
<polygon fill="white" stroke="#bfbfbf" points="694.5,-469.5 694.5,-488.5 786.5,-488.5 786.5,-469.5 694.5,-469.5"/>
<text text-anchor="middle" x="740.5" y="-476.5" font-family="Helvetica,sans-Serif" font-size="10.00">hpx/kokkos.hpp</text>
</a>
</g>
</g>
<!-- Node1&#45;&gt;Node5 -->
<g id="edge4" class="edge">
<title>Node1&#45;&gt;Node5</title>
<path fill="none" stroke="midnightblue" d="M473.7,-531.77C536.5,-519.58 628.45,-501.74 686.36,-490.51"/>
<polygon fill="midnightblue" stroke="midnightblue" points="687.26,-493.9 696.41,-488.56 685.92,-487.02 687.26,-493.9"/>
</g>
<!-- Node6 -->
<g id="node6" class="node">
<title>Node6</title>
<g id="a_node6"><a xlink:href="executor__pools__interface_8hpp.html" target="_top" xlink:title=" ">
<polygon fill="white" stroke="black" points="143,-179.5 143,-209.5 306,-209.5 306,-179.5 143,-179.5"/>
<text text-anchor="start" x="151" y="-197.5" font-family="Helvetica,sans-Serif" font-size="10.00">cppuddle/executor_recycling</text>
<text text-anchor="middle" x="224.5" y="-186.5" font-family="Helvetica,sans-Serif" font-size="10.00">/executor_pools_interface.hpp</text>
</a>
</g>
</g>
<!-- Node1&#45;&gt;Node6 -->
<g id="edge5" class="edge">
<title>Node1&#45;&gt;Node6</title>
<path fill="none" stroke="midnightblue" d="M337.13,-536.39C304.67,-528.93 267.76,-515 243.5,-489 221.37,-465.27 224.5,-450.95 224.5,-418.5 224.5,-418.5 224.5,-418.5 224.5,-344 224.5,-300.34 224.5,-249.45 224.5,-220.01"/>
<polygon fill="midnightblue" stroke="midnightblue" points="228,-219.84 224.5,-209.84 221,-219.84 228,-219.84"/>
</g>
<!-- Node19 -->
<g id="node19" class="node">
<title>Node19</title>
<g id="a_node19"><a xlink:href="aggregation__manager_8hpp.html" target="_top" xlink:title=" ">
<polygon fill="white" stroke="black" points="252.5,-469.5 252.5,-488.5 396.5,-488.5 396.5,-469.5 252.5,-469.5"/>
<text text-anchor="middle" x="324.5" y="-476.5" font-family="Helvetica,sans-Serif" font-size="10.00">aggregation_manager.hpp</text>
</a>
</g>
</g>
<!-- Node1&#45;&gt;Node19 -->
<g id="edge19" class="edge">
<title>Node1&#45;&gt;Node19</title>
<path fill="none" stroke="midnightblue" d="M381.2,-525.5C369.02,-515.72 354.5,-504.07 343.2,-495.01"/>
<polygon fill="midnightblue" stroke="midnightblue" points="345.27,-492.18 335.28,-488.65 340.89,-497.64 345.27,-492.18"/>
</g>
<!-- Node7 -->
<g id="node7" class="node">
<title>Node7</title>
<g id="a_node7"><a xlink:href="executor__pools__management_8hpp.html" target="_top" xlink:title=" ">
<polygon fill="white" stroke="black" points="390,-112.5 390,-142.5 605,-142.5 605,-112.5 390,-112.5"/>
<text text-anchor="start" x="398" y="-130.5" font-family="Helvetica,sans-Serif" font-size="10.00">cppuddle/executor_recycling</text>
<text text-anchor="middle" x="497.5" y="-119.5" font-family="Helvetica,sans-Serif" font-size="10.00">/detail/executor_pools_management.hpp</text>
</a>
</g>
</g>
<!-- Node6&#45;&gt;Node7 -->
<g id="edge6" class="edge">
<title>Node6&#45;&gt;Node7</title>
<path fill="none" stroke="midnightblue" d="M283.4,-179.48C325.95,-169.34 383.57,-155.63 428.31,-144.97"/>
<polygon fill="midnightblue" stroke="midnightblue" points="429.32,-148.33 438.23,-142.61 427.7,-141.52 429.32,-148.33"/>
</g>
<!-- Node8 -->
<g id="node8" class="node">
<title>Node8</title>
<g id="a_node8"><a xlink:title=" ">
<polygon fill="white" stroke="#bfbfbf" points="493.5,-56.5 493.5,-75.5 557.5,-75.5 557.5,-56.5 493.5,-56.5"/>
<text text-anchor="middle" x="525.5" y="-63.5" font-family="Helvetica,sans-Serif" font-size="10.00">algorithm</text>
</a>
</g>
</g>
<!-- Node7&#45;&gt;Node8 -->
<g id="edge7" class="edge">
<title>Node7&#45;&gt;Node8</title>
<path fill="none" stroke="midnightblue" d="M504.14,-112.4C508.04,-104.11 513,-93.55 517.17,-84.71"/>
<polygon fill="midnightblue" stroke="midnightblue" points="520.33,-86.2 521.43,-75.66 514,-83.22 520.33,-86.2"/>
</g>
<!-- Node9 -->
<g id="node9" class="node">
<title>Node9</title>
<g id="a_node9"><a xlink:title=" ">
<polygon fill="white" stroke="#bfbfbf" points="575.5,-56.5 575.5,-75.5 617.5,-75.5 617.5,-56.5 575.5,-56.5"/>
<text text-anchor="middle" x="596.5" y="-63.5" font-family="Helvetica,sans-Serif" font-size="10.00">array</text>
</a>
</g>
</g>
<!-- Node7&#45;&gt;Node9 -->
<g id="edge8" class="edge">
<title>Node7&#45;&gt;Node9</title>
<path fill="none" stroke="midnightblue" d="M520.96,-112.4C536.83,-102.86 557.69,-90.32 573.47,-80.84"/>
<polygon fill="midnightblue" stroke="midnightblue" points="575.33,-83.81 582.09,-75.66 571.72,-77.81 575.33,-83.81"/>
</g>
<!-- Node10 -->
<g id="node10" class="node">
<title>Node10</title>
<g id="a_node10"><a xlink:title=" ">
<polygon fill="white" stroke="#bfbfbf" points="1927.5,-56.5 1927.5,-75.5 1979.5,-75.5 1979.5,-56.5 1927.5,-56.5"/>
<text text-anchor="middle" x="1953.5" y="-63.5" font-family="Helvetica,sans-Serif" font-size="10.00">cassert</text>
</a>
</g>
</g>
<!-- Node7&#45;&gt;Node10 -->
<g id="edge9" class="edge">
<title>Node7&#45;&gt;Node10</title>
<path fill="none" stroke="midnightblue" d="M605.18,-125.68C887.58,-123.07 1645.83,-112.86 1917.03,-75.84"/>
<polygon fill="midnightblue" stroke="midnightblue" points="1917.84,-79.26 1927.25,-74.4 1916.86,-72.33 1917.84,-79.26"/>
</g>
<!-- Node11 -->
<g id="node11" class="node">
<title>Node11</title>
<g id="a_node11"><a xlink:title=" ">
<polygon fill="white" stroke="#bfbfbf" points="363,-56.5 363,-75.5 410,-75.5 410,-56.5 363,-56.5"/>
<text text-anchor="middle" x="386.5" y="-63.5" font-family="Helvetica,sans-Serif" font-size="10.00">deque</text>
</a>
</g>
</g>
<!-- Node7&#45;&gt;Node11 -->
<g id="edge10" class="edge">
<title>Node7&#45;&gt;Node11</title>
<path fill="none" stroke="midnightblue" d="M471.19,-112.4C453.24,-102.77 429.58,-90.09 411.83,-80.58"/>
<polygon fill="midnightblue" stroke="midnightblue" points="413.12,-77.3 402.65,-75.66 409.81,-83.47 413.12,-77.3"/>
</g>
<!-- Node12 -->
<g id="node12" class="node">
<title>Node12</title>
<g id="a_node12"><a xlink:title=" ">
<polygon fill="white" stroke="#bfbfbf" points="1849.5,-56.5 1849.5,-75.5 1909.5,-75.5 1909.5,-56.5 1849.5,-56.5"/>
<text text-anchor="middle" x="1879.5" y="-63.5" font-family="Helvetica,sans-Serif" font-size="10.00">iostream</text>
</a>
</g>
</g>
<!-- Node7&#45;&gt;Node12 -->
<g id="edge11" class="edge">
<title>Node7&#45;&gt;Node12</title>
<path fill="none" stroke="midnightblue" d="M605.17,-125.08C876.39,-121.09 1583.66,-107.98 1839.37,-75.84"/>
<polygon fill="midnightblue" stroke="midnightblue" points="1839.9,-79.3 1849.37,-74.55 1839,-72.36 1839.9,-79.3"/>
</g>
<!-- Node13 -->
<g id="node13" class="node">
<title>Node13</title>
<g id="a_node13"><a xlink:title=" ">
<polygon fill="white" stroke="#bfbfbf" points="733.5,-56.5 733.5,-75.5 791.5,-75.5 791.5,-56.5 733.5,-56.5"/>
<text text-anchor="middle" x="762.5" y="-63.5" font-family="Helvetica,sans-Serif" font-size="10.00">memory</text>
</a>
</g>
</g>
<!-- Node7&#45;&gt;Node13 -->
<g id="edge12" class="edge">
<title>Node7&#45;&gt;Node13</title>
<path fill="none" stroke="midnightblue" d="M561.64,-112.48C604.74,-103 663.07,-90.06 723.38,-76.24"/>
<polygon fill="midnightblue" stroke="midnightblue" points="724.5,-79.57 733.46,-73.92 722.93,-72.75 724.5,-79.57"/>
</g>
<!-- Node14 -->
<g id="node14" class="node">
<title>Node14</title>
<g id="a_node14"><a xlink:title=" ">
<polygon fill="white" stroke="#bfbfbf" points="1446.5,-0.5 1446.5,-19.5 1494.5,-19.5 1494.5,-0.5 1446.5,-0.5"/>
<text text-anchor="middle" x="1470.5" y="-7.5" font-family="Helvetica,sans-Serif" font-size="10.00">mutex</text>
</a>
</g>
</g>
<!-- Node7&#45;&gt;Node14 -->
<g id="edge13" class="edge">
<title>Node7&#45;&gt;Node14</title>
<path fill="none" stroke="midnightblue" d="M536.3,-112.47C562.14,-102.85 596.68,-89.44 626.5,-76 644.26,-67.99 646.7,-61.1 665.5,-56 814.13,-15.69 1301.99,-11.43 1436.11,-11.03"/>
<polygon fill="midnightblue" stroke="midnightblue" points="1436.22,-14.53 1446.22,-11 1436.21,-7.53 1436.22,-14.53"/>
</g>
<!-- Node15 -->
<g id="node15" class="node">
<title>Node15</title>
<g id="a_node15"><a xlink:title=" ">
<polygon fill="white" stroke="#bfbfbf" points="428,-56.5 428,-75.5 475,-75.5 475,-56.5 428,-56.5"/>
<text text-anchor="middle" x="451.5" y="-63.5" font-family="Helvetica,sans-Serif" font-size="10.00">queue</text>
</a>
</g>
</g>
<!-- Node7&#45;&gt;Node15 -->
<g id="edge14" class="edge">
<title>Node7&#45;&gt;Node15</title>
<path fill="none" stroke="midnightblue" d="M486.6,-112.4C479.91,-103.75 471.32,-92.64 464.32,-83.58"/>
<polygon fill="midnightblue" stroke="midnightblue" points="467.08,-81.43 458.19,-75.66 461.54,-85.71 467.08,-81.43"/>
</g>
<!-- Node16 -->
<g id="node16" class="node">
<title>Node16</title>
<g id="a_node16"><a xlink:title=" ">
<polygon fill="white" stroke="#bfbfbf" points="674,-56.5 674,-75.5 715,-75.5 715,-56.5 674,-56.5"/>
<text text-anchor="middle" x="694.5" y="-63.5" font-family="Helvetica,sans-Serif" font-size="10.00">tuple</text>
</a>
</g>
</g>
<!-- Node7&#45;&gt;Node16 -->
<g id="edge15" class="edge">
<title>Node7&#45;&gt;Node16</title>
<path fill="none" stroke="midnightblue" d="M544.19,-112.4C581.35,-101.17 632.28,-85.79 664.28,-76.13"/>
<polygon fill="midnightblue" stroke="midnightblue" points="665.4,-79.45 673.96,-73.2 663.38,-72.74 665.4,-79.45"/>
</g>
<!-- Node17 -->
<g id="node17" class="node">
<title>Node17</title>
<g id="a_node17"><a xlink:title=" ">
<polygon fill="white" stroke="#bfbfbf" points="1762,-56.5 1762,-75.5 1831,-75.5 1831,-56.5 1762,-56.5"/>
<text text-anchor="middle" x="1796.5" y="-63.5" font-family="Helvetica,sans-Serif" font-size="10.00">type_traits</text>
</a>
</g>
</g>
<!-- Node7&#45;&gt;Node17 -->
<g id="edge16" class="edge">
<title>Node7&#45;&gt;Node17</title>
<path fill="none" stroke="midnightblue" d="M605.18,-121.57C874.47,-109.23 1568.6,-77.44 1751.68,-69.05"/>
<polygon fill="midnightblue" stroke="midnightblue" points="1751.93,-72.55 1761.76,-68.59 1751.61,-65.55 1751.93,-72.55"/>
</g>
<!-- Node18 -->
<g id="node18" class="node">
<title>Node18</title>
<g id="a_node18"><a xlink:href="config_8hpp.html" target="_top" xlink:title=" ">
<polygon fill="white" stroke="black" points="2321.5,-56.5 2321.5,-75.5 2481.5,-75.5 2481.5,-56.5 2321.5,-56.5"/>
<text text-anchor="middle" x="2401.5" y="-63.5" font-family="Helvetica,sans-Serif" font-size="10.00">cppuddle/common/config.hpp</text>
</a>
</g>
</g>
<!-- Node7&#45;&gt;Node18 -->
<g id="edge17" class="edge">
<title>Node7&#45;&gt;Node18</title>
<path fill="none" stroke="midnightblue" d="M605.23,-125.03C882.29,-120.89 1642.2,-107.37 2274.5,-76 2286.31,-75.41 2298.74,-74.68 2311,-73.88"/>
<polygon fill="midnightblue" stroke="midnightblue" points="2311.5,-77.36 2321.25,-73.2 2311.04,-70.37 2311.5,-77.36"/>
</g>
<!-- Node18&#45;&gt;Node14 -->
<g id="edge18" class="edge">
<title>Node18&#45;&gt;Node14</title>
<path fill="none" stroke="midnightblue" d="M2321.27,-57.09C2316.61,-56.7 2312,-56.34 2307.5,-56 1996.46,-32.76 1619.53,-16.89 1505.08,-12.34"/>
<polygon fill="midnightblue" stroke="midnightblue" points="1504.96,-8.83 1494.83,-11.94 1504.69,-15.83 1504.96,-8.83"/>
</g>
<!-- Node20 -->
<g id="node20" class="node">
<title>Node20</title>
<g id="a_node20"><a xlink:href="kernel__aggregation__interface_8hpp.html" target="_top" xlink:title=" ">
<polygon fill="white" stroke="black" points="885,-402.5 885,-432.5 1068,-432.5 1068,-402.5 885,-402.5"/>
<text text-anchor="start" x="893" y="-420.5" font-family="Helvetica,sans-Serif" font-size="10.00">cppuddle/kernel_aggregation</text>
<text text-anchor="middle" x="976.5" y="-409.5" font-family="Helvetica,sans-Serif" font-size="10.00">/kernel_aggregation_interface.hpp</text>
</a>
</g>
</g>
<!-- Node19&#45;&gt;Node20 -->
<g id="edge20" class="edge">
<title>Node19&#45;&gt;Node20</title>
<path fill="none" stroke="midnightblue" d="M396.93,-469.97C400.16,-469.63 403.36,-469.31 406.5,-469 570.12,-452.77 760.42,-436.42 874.51,-426.89"/>
<polygon fill="midnightblue" stroke="midnightblue" points="874.96,-430.36 884.63,-426.04 874.38,-423.39 874.96,-430.36"/>
</g>
<!-- Node21 -->
<g id="node21" class="node">
<title>Node21</title>
<g id="a_node21"><a xlink:href="aggregation__executors__and__allocators_8hpp.html" target="_top" xlink:title=" ">
<polygon fill="white" stroke="black" points="1003,-246.5 1003,-287.5 1164,-287.5 1164,-246.5 1003,-246.5"/>
<text text-anchor="start" x="1011" y="-275.5" font-family="Helvetica,sans-Serif" font-size="10.00">cppuddle/kernel_aggregation</text>
<text text-anchor="start" x="1011" y="-264.5" font-family="Helvetica,sans-Serif" font-size="10.00">/detail/aggregation_executors</text>
<text text-anchor="middle" x="1083.5" y="-253.5" font-family="Helvetica,sans-Serif" font-size="10.00">_and_allocators.hpp</text>
</a>
</g>
</g>
<!-- Node20&#45;&gt;Node21 -->
<g id="edge21" class="edge">
<title>Node20&#45;&gt;Node21</title>
<path fill="none" stroke="midnightblue" d="M976.11,-402.34C976.26,-382.97 979.04,-347.89 995.5,-324 1004.1,-311.52 1016.48,-301.22 1029.25,-293"/>
<polygon fill="midnightblue" stroke="midnightblue" points="1031.37,-295.81 1038.11,-287.64 1027.75,-289.82 1031.37,-295.81"/>
</g>
<!-- Node45 -->
<g id="node45" class="node">
<title>Node45</title>
<g id="a_node45"><a xlink:href="aggregation__executor__pools_8hpp.html" target="_top" xlink:title=" ">
<polygon fill="white" stroke="black" points="1004.5,-324.5 1004.5,-365.5 1162.5,-365.5 1162.5,-324.5 1004.5,-324.5"/>
<text text-anchor="start" x="1012.5" y="-353.5" font-family="Helvetica,sans-Serif" font-size="10.00">cppuddle/kernel_aggregation</text>
<text text-anchor="start" x="1012.5" y="-342.5" font-family="Helvetica,sans-Serif" font-size="10.00">/detail/aggregation_executor</text>
<text text-anchor="middle" x="1083.5" y="-331.5" font-family="Helvetica,sans-Serif" font-size="10.00">_pools.hpp</text>
</a>
</g>
</g>
<!-- Node20&#45;&gt;Node45 -->
<g id="edge63" class="edge">
<title>Node20&#45;&gt;Node45</title>
<path fill="none" stroke="midnightblue" d="M997.9,-402.4C1011.38,-393.52 1029.18,-381.79 1045.05,-371.33"/>
<polygon fill="midnightblue" stroke="midnightblue" points="1047.21,-374.1 1053.63,-365.68 1043.36,-368.26 1047.21,-374.1"/>
</g>
<!-- Node21&#45;&gt;Node2 -->
<g id="edge39" class="edge">
<title>Node21&#45;&gt;Node2</title>
<path fill="none" stroke="midnightblue" d="M1002.75,-265.11C838.42,-262.46 453.56,-251.9 133.5,-210 125.61,-208.97 117.28,-207.56 109.21,-206.02"/>
<polygon fill="midnightblue" stroke="midnightblue" points="109.67,-202.55 99.18,-204.03 108.31,-209.41 109.67,-202.55"/>
</g>
<!-- Node21&#45;&gt;Node6 -->
<g id="edge62" class="edge">
<title>Node21&#45;&gt;Node6</title>
<path fill="none" stroke="midnightblue" d="M1002.84,-262.12C863.43,-254.95 568.49,-237.79 320.5,-210 319.18,-209.85 317.85,-209.7 316.52,-209.54"/>
<polygon fill="midnightblue" stroke="midnightblue" points="316.5,-206.01 306.14,-208.27 315.64,-212.96 316.5,-206.01"/>
</g>
<!-- Node21&#45;&gt;Node12 -->
<g id="edge28" class="edge">
<title>Node21&#45;&gt;Node12</title>
<path fill="none" stroke="midnightblue" d="M1164.32,-264.36C1393.14,-259.33 2030.87,-242.44 2061.5,-210 2114.51,-153.87 1985.43,-101.44 1917.73,-78.78"/>
<polygon fill="midnightblue" stroke="midnightblue" points="1918.41,-75.32 1907.82,-75.53 1916.23,-81.97 1918.41,-75.32"/>
</g>
<!-- Node21&#45;&gt;Node13 -->
<g id="edge29" class="edge">
<title>Node21&#45;&gt;Node13</title>
<path fill="none" stroke="midnightblue" d="M1002.93,-265.06C836.61,-262.29 467.58,-251.47 429.5,-210 420.18,-199.85 420.59,-189.51 429.5,-179 493.03,-104.12 556.08,-178.86 647.5,-143 685.1,-128.25 723.1,-99.92 744.63,-82.33"/>
<polygon fill="midnightblue" stroke="midnightblue" points="747.11,-84.82 752.55,-75.73 742.63,-79.44 747.11,-84.82"/>
</g>
<!-- Node21&#45;&gt;Node14 -->
<g id="edge30" class="edge">
<title>Node21&#45;&gt;Node14</title>
<path fill="none" stroke="midnightblue" d="M1002.97,-264.05C834.06,-259.28 454.37,-244.78 407.5,-210 349.37,-166.87 304.36,-108.2 354.5,-56 392.88,-16.04 1252.39,-11.56 1436.13,-11.06"/>
<polygon fill="midnightblue" stroke="midnightblue" points="1436.31,-14.56 1446.3,-11.04 1436.29,-7.56 1436.31,-14.56"/>
</g>
<!-- Node21&#45;&gt;Node16 -->
<g id="edge34" class="edge">
<title>Node21&#45;&gt;Node16</title>
<path fill="none" stroke="midnightblue" d="M1002.86,-265.19C834.37,-262.64 457.34,-252.25 418.5,-210 409.18,-199.86 409.68,-189.59 418.5,-179 475.19,-110.95 535.56,-183.17 614.5,-143 615.46,-142.51 654.92,-104.85 678.06,-82.73"/>
<polygon fill="midnightblue" stroke="midnightblue" points="680.66,-85.09 685.47,-75.64 675.82,-80.03 680.66,-85.09"/>
</g>
<!-- Node21&#45;&gt;Node17 -->
<g id="edge35" class="edge">
<title>Node21&#45;&gt;Node17</title>
<path fill="none" stroke="midnightblue" d="M1164.13,-264.28C1390,-259.07 2014.47,-241.83 2044.5,-210 2053.95,-199.98 2051.97,-190.57 2044.5,-179 2020.42,-141.7 1898.03,-98.8 1834.66,-78.63"/>
<polygon fill="midnightblue" stroke="midnightblue" points="1835.6,-75.26 1825.02,-75.59 1833.5,-81.94 1835.6,-75.26"/>
</g>
<!-- Node21&#45;&gt;Node18 -->
<g id="edge48" class="edge">
<title>Node21&#45;&gt;Node18</title>
<path fill="none" stroke="midnightblue" d="M1164.22,-265.77C1390.17,-264.54 2025.75,-256.89 2228.5,-210 2302.02,-193 2336.32,-201.07 2384.5,-143 2397.83,-126.94 2401.26,-102.61 2401.89,-85.83"/>
<polygon fill="midnightblue" stroke="midnightblue" points="2405.39,-85.63 2401.96,-75.61 2398.39,-85.58 2405.39,-85.63"/>
</g>
<!-- Node22 -->
<g id="node22" class="node">
<title>Node22</title>
<g id="a_node22"><a xlink:title=" ">
<polygon fill="white" stroke="#bfbfbf" points="1998,-56.5 1998,-75.5 2063,-75.5 2063,-56.5 1998,-56.5"/>
<text text-anchor="middle" x="2030.5" y="-63.5" font-family="Helvetica,sans-Serif" font-size="10.00">stdexcept</text>
</a>
</g>
</g>
<!-- Node21&#45;&gt;Node22 -->
<g id="edge22" class="edge">
<title>Node21&#45;&gt;Node22</title>
<path fill="none" stroke="midnightblue" d="M1164.31,-264.46C1396.36,-259.64 2050.15,-243.16 2081.5,-210 2115.95,-173.57 2071.04,-112.32 2045.69,-83.25"/>
<polygon fill="midnightblue" stroke="midnightblue" points="2048.14,-80.74 2038.85,-75.64 2042.93,-85.42 2048.14,-80.74"/>
</g>
<!-- Node23 -->
<g id="node23" class="node">
<title>Node23</title>
<g id="a_node23"><a xlink:title=" ">
<polygon fill="white" stroke="#bfbfbf" points="438.5,-185 438.5,-204 488.5,-204 488.5,-185 438.5,-185"/>
<text text-anchor="middle" x="463.5" y="-192" font-family="Helvetica,sans-Serif" font-size="10.00">stdio.h</text>
</a>
</g>
</g>
<!-- Node21&#45;&gt;Node23 -->
<g id="edge23" class="edge">
<title>Node21&#45;&gt;Node23</title>
<path fill="none" stroke="midnightblue" d="M1002.75,-265.8C888.71,-263.82 674.72,-253.89 498.5,-210 495.99,-209.37 493.42,-208.6 490.87,-207.73"/>
<polygon fill="midnightblue" stroke="midnightblue" points="491.91,-204.38 481.32,-204.08 489.41,-210.92 491.91,-204.38"/>
</g>
<!-- Node24 -->
<g id="node24" class="node">
<title>Node24</title>
<g id="a_node24"><a xlink:title=" ">
<polygon fill="white" stroke="#bfbfbf" points="507,-185 507,-204 542,-204 542,-185 507,-185"/>
<text text-anchor="middle" x="524.5" y="-192" font-family="Helvetica,sans-Serif" font-size="10.00">any</text>
</a>
</g>
</g>
<!-- Node21&#45;&gt;Node24 -->
<g id="edge24" class="edge">
<title>Node21&#45;&gt;Node24</title>
<path fill="none" stroke="midnightblue" d="M1002.9,-261.34C875.52,-253.32 633.71,-235.33 551.5,-210 550.07,-209.56 548.63,-209.04 547.19,-208.47"/>
<polygon fill="midnightblue" stroke="midnightblue" points="548.59,-205.26 538.06,-204.11 545.58,-211.57 548.59,-205.26"/>
</g>
<!-- Node25 -->
<g id="node25" class="node">
<title>Node25</title>
<g id="a_node25"><a xlink:title=" ">
<polygon fill="white" stroke="#bfbfbf" points="2081.5,-56.5 2081.5,-75.5 2131.5,-75.5 2131.5,-56.5 2081.5,-56.5"/>
<text text-anchor="middle" x="2106.5" y="-63.5" font-family="Helvetica,sans-Serif" font-size="10.00">atomic</text>
</a>
</g>
</g>
<!-- Node21&#45;&gt;Node25 -->
<g id="edge25" class="edge">
<title>Node21&#45;&gt;Node25</title>
<path fill="none" stroke="midnightblue" d="M1164.2,-264.5C1399.24,-259.74 2068.84,-243.32 2101.5,-210 2134.02,-176.82 2121.69,-115.79 2112.69,-85.32"/>
<polygon fill="midnightblue" stroke="midnightblue" points="2115.96,-84.06 2109.61,-75.58 2109.29,-86.17 2115.96,-84.06"/>
</g>
<!-- Node26 -->
<g id="node26" class="node">
<title>Node26</title>
<g id="a_node26"><a xlink:title=" ">
<polygon fill="white" stroke="#bfbfbf" points="560.5,-185 560.5,-204 610.5,-204 610.5,-185 560.5,-185"/>
<text text-anchor="middle" x="585.5" y="-192" font-family="Helvetica,sans-Serif" font-size="10.00">chrono</text>
</a>
</g>
</g>
<!-- Node21&#45;&gt;Node26 -->
<g id="edge26" class="edge">
<title>Node21&#45;&gt;Node26</title>
<path fill="none" stroke="midnightblue" d="M1002.97,-263.17C909.38,-258.32 750.98,-245.2 619.5,-210 617.2,-209.38 614.85,-208.64 612.52,-207.82"/>
<polygon fill="midnightblue" stroke="midnightblue" points="613.75,-204.55 603.16,-204.15 611.19,-211.06 613.75,-204.55"/>
</g>
<!-- Node27 -->
<g id="node27" class="node">
<title>Node27</title>
<g id="a_node27"><a xlink:title=" ">
<polygon fill="white" stroke="#bfbfbf" points="628.5,-185 628.5,-204 674.5,-204 674.5,-185 628.5,-185"/>
<text text-anchor="middle" x="651.5" y="-192" font-family="Helvetica,sans-Serif" font-size="10.00">cstdio</text>
</a>
</g>
</g>
<!-- Node21&#45;&gt;Node27 -->
<g id="edge27" class="edge">
<title>Node21&#45;&gt;Node27</title>
<path fill="none" stroke="midnightblue" d="M1002.67,-261.18C921.11,-254.81 792.16,-240.58 684.5,-210 682.35,-209.39 680.15,-208.67 677.97,-207.87"/>
<polygon fill="midnightblue" stroke="midnightblue" points="679.22,-204.6 668.64,-204.09 676.59,-211.09 679.22,-204.6"/>
</g>
<!-- Node28 -->
<g id="node28" class="node">
<title>Node28</title>
<g id="a_node28"><a xlink:title=" ">
<polygon fill="white" stroke="#bfbfbf" points="2499.5,-56.5 2499.5,-75.5 2555.5,-75.5 2555.5,-56.5 2499.5,-56.5"/>
<text text-anchor="middle" x="2527.5" y="-63.5" font-family="Helvetica,sans-Serif" font-size="10.00">optional</text>
</a>
</g>
</g>
<!-- Node21&#45;&gt;Node28 -->
<g id="edge31" class="edge">
<title>Node21&#45;&gt;Node28</title>
<path fill="none" stroke="midnightblue" d="M1164.01,-264.67C1417.99,-260.13 2191.84,-243.67 2299.5,-210 2387.02,-182.63 2474.36,-113.17 2510.35,-82.25"/>
<polygon fill="midnightblue" stroke="midnightblue" points="2512.74,-84.81 2517.99,-75.6 2508.15,-79.53 2512.74,-84.81"/>
</g>
<!-- Node29 -->
<g id="node29" class="node">
<title>Node29</title>
<g id="a_node29"><a xlink:title=" ">
<polygon fill="white" stroke="#bfbfbf" points="693,-185 693,-204 750,-204 750,-185 693,-185"/>
<text text-anchor="middle" x="721.5" y="-192" font-family="Helvetica,sans-Serif" font-size="10.00">ostream</text>
</a>
</g>
</g>
<!-- Node21&#45;&gt;Node29 -->
<g id="edge32" class="edge">
<title>Node21&#45;&gt;Node29</title>
<path fill="none" stroke="midnightblue" d="M1003,-256.49C936.85,-247.63 841.11,-232.4 759.5,-210 756.85,-209.27 754.12,-208.43 751.4,-207.52"/>
<polygon fill="midnightblue" stroke="midnightblue" points="752.36,-204.15 741.77,-204.06 750,-210.74 752.36,-204.15"/>
</g>
<!-- Node30 -->
<g id="node30" class="node">
<title>Node30</title>
<g id="a_node30"><a xlink:title=" ">
<polygon fill="white" stroke="#bfbfbf" points="768.5,-185 768.5,-204 812.5,-204 812.5,-185 768.5,-185"/>
<text text-anchor="middle" x="790.5" y="-192" font-family="Helvetica,sans-Serif" font-size="10.00">string</text>
</a>
</g>
</g>
<!-- Node21&#45;&gt;Node30 -->
<g id="edge33" class="edge">
<title>Node21&#45;&gt;Node30</title>
<path fill="none" stroke="midnightblue" d="M1002.94,-253.32C950.74,-243.98 881.7,-229.51 822.5,-210 820.63,-209.38 818.73,-208.69 816.82,-207.96"/>
<polygon fill="midnightblue" stroke="midnightblue" points="818.08,-204.69 807.5,-204.02 815.35,-211.13 818.08,-204.69"/>
</g>
<!-- Node31 -->
<g id="node31" class="node">
<title>Node31</title>
<g id="a_node31"><a xlink:title=" ">
<polygon fill="white" stroke="#bfbfbf" points="831,-185 831,-204 888,-204 888,-185 831,-185"/>
<text text-anchor="middle" x="859.5" y="-192" font-family="Helvetica,sans-Serif" font-size="10.00">typeinfo</text>
</a>
</g>
</g>
<!-- Node21&#45;&gt;Node31 -->
<g id="edge36" class="edge">
<title>Node21&#45;&gt;Node31</title>
<path fill="none" stroke="midnightblue" d="M1014.22,-246.43C979.07,-236.18 935.8,-223.06 897.5,-210 895.24,-209.23 892.92,-208.41 890.59,-207.57"/>
<polygon fill="midnightblue" stroke="midnightblue" points="891.7,-204.25 881.1,-204.05 889.26,-210.81 891.7,-204.25"/>
</g>
<!-- Node32 -->
<g id="node32" class="node">
<title>Node32</title>
<g id="a_node32"><a xlink:title=" ">
<polygon fill="white" stroke="#bfbfbf" points="906,-185 906,-204 951,-204 951,-185 906,-185"/>
<text text-anchor="middle" x="928.5" y="-192" font-family="Helvetica,sans-Serif" font-size="10.00">utility</text>
</a>
</g>
</g>
<!-- Node21&#45;&gt;Node32 -->
<g id="edge37" class="edge">
<title>Node21&#45;&gt;Node32</title>
<path fill="none" stroke="midnightblue" d="M1040.32,-246.36C1013.67,-234.24 980.24,-219.03 956.9,-208.42"/>
<polygon fill="midnightblue" stroke="midnightblue" points="958.12,-205.13 947.57,-204.17 955.22,-211.5 958.12,-205.13"/>
</g>
<!-- Node33 -->
<g id="node33" class="node">
<title>Node33</title>
<g id="a_node33"><a xlink:title=" ">
<polygon fill="white" stroke="#bfbfbf" points="2574,-56.5 2574,-75.5 2667,-75.5 2667,-56.5 2574,-56.5"/>
<text text-anchor="middle" x="2620.5" y="-63.5" font-family="Helvetica,sans-Serif" font-size="10.00">unordered_map</text>
</a>
</g>
</g>
<!-- Node21&#45;&gt;Node33 -->
<g id="edge38" class="edge">
<title>Node21&#45;&gt;Node33</title>
<path fill="none" stroke="midnightblue" d="M1164.26,-264.45C1424.83,-259.18 2232.97,-240.53 2346.5,-210 2449.06,-182.42 2556.81,-112.01 2600.43,-81.48"/>
<polygon fill="midnightblue" stroke="midnightblue" points="2602.59,-84.24 2608.74,-75.6 2598.55,-78.52 2602.59,-84.24"/>
</g>
<!-- Node34 -->
<g id="node34" class="node">
<title>Node34</title>
<g id="a_node34"><a xlink:title=" ">
<polygon fill="white" stroke="#bfbfbf" points="969.5,-185 969.5,-204 1067.5,-204 1067.5,-185 969.5,-185"/>
<text text-anchor="middle" x="1018.5" y="-192" font-family="Helvetica,sans-Serif" font-size="10.00">hpx/hpx_init.hpp</text>
</a>
</g>
</g>
<!-- Node21&#45;&gt;Node34 -->
<g id="edge40" class="edge">
<title>Node21&#45;&gt;Node34</title>
<path fill="none" stroke="midnightblue" d="M1065.39,-246.36C1055.32,-235.43 1042.92,-221.99 1033.41,-211.67"/>
<polygon fill="midnightblue" stroke="midnightblue" points="1035.85,-209.15 1026.5,-204.17 1030.7,-213.9 1035.85,-209.15"/>
</g>
<!-- Node35 -->
<g id="node35" class="node">
<title>Node35</title>
<g id="a_node35"><a xlink:title=" ">
<polygon fill="white" stroke="#bfbfbf" points="1086,-185 1086,-204 1211,-204 1211,-185 1086,-185"/>
<text text-anchor="middle" x="1148.5" y="-192" font-family="Helvetica,sans-Serif" font-size="10.00">hpx/include/async.hpp</text>
</a>
</g>
</g>
<!-- Node21&#45;&gt;Node35 -->
<g id="edge41" class="edge">
<title>Node21&#45;&gt;Node35</title>
<path fill="none" stroke="midnightblue" d="M1101.61,-246.36C1111.68,-235.43 1124.08,-221.99 1133.59,-211.67"/>
<polygon fill="midnightblue" stroke="midnightblue" points="1136.3,-213.9 1140.5,-204.17 1131.15,-209.15 1136.3,-213.9"/>
</g>
<!-- Node36 -->
<g id="node36" class="node">
<title>Node36</title>
<g id="a_node36"><a xlink:title=" ">
<polygon fill="white" stroke="#bfbfbf" points="1229.5,-185 1229.5,-204 1375.5,-204 1375.5,-185 1229.5,-185"/>
<text text-anchor="middle" x="1302.5" y="-192" font-family="Helvetica,sans-Serif" font-size="10.00">hpx/include/iostreams.hpp</text>
</a>
</g>
</g>
<!-- Node21&#45;&gt;Node36 -->
<g id="edge42" class="edge">
<title>Node21&#45;&gt;Node36</title>
<path fill="none" stroke="midnightblue" d="M1144.21,-246.46C1183.45,-233.83 1233.18,-217.81 1266.33,-207.14"/>
<polygon fill="midnightblue" stroke="midnightblue" points="1267.61,-210.41 1276.06,-204.01 1265.46,-203.75 1267.61,-210.41"/>
</g>
<!-- Node37 -->
<g id="node37" class="node">
<title>Node37</title>
<g id="a_node37"><a xlink:title=" ">
<polygon fill="white" stroke="#bfbfbf" points="1393.5,-185 1393.5,-204 1509.5,-204 1509.5,-185 1393.5,-185"/>
<text text-anchor="middle" x="1451.5" y="-192" font-family="Helvetica,sans-Serif" font-size="10.00">hpx/include/lcos.hpp</text>
</a>
</g>
</g>
<!-- Node21&#45;&gt;Node37 -->
<g id="edge43" class="edge">
<title>Node21&#45;&gt;Node37</title>
<path fill="none" stroke="midnightblue" d="M1164.11,-251.66C1224.8,-240.71 1309.98,-224.99 1384.5,-210 1390.4,-208.81 1396.59,-207.53 1402.72,-206.23"/>
<polygon fill="midnightblue" stroke="midnightblue" points="1403.87,-209.56 1412.92,-204.05 1402.41,-202.72 1403.87,-209.56"/>
</g>
<!-- Node38 -->
<g id="node38" class="node">
<title>Node38</title>
<g id="a_node38"><a xlink:title=" ">
<polygon fill="white" stroke="#bfbfbf" points="1528,-185 1528,-204 1649,-204 1649,-185 1528,-185"/>
<text text-anchor="middle" x="1588.5" y="-192" font-family="Helvetica,sans-Serif" font-size="10.00">hpx/lcos/promise.hpp</text>
</a>
</g>
</g>
<!-- Node21&#45;&gt;Node38 -->
<g id="edge44" class="edge">
<title>Node21&#45;&gt;Node38</title>
<path fill="none" stroke="midnightblue" d="M1164.34,-257.46C1251.9,-247.77 1395.53,-230.62 1518.5,-210 1525.41,-208.84 1532.67,-207.49 1539.8,-206.08"/>
<polygon fill="midnightblue" stroke="midnightblue" points="1540.98,-209.42 1550.09,-204.01 1539.59,-202.56 1540.98,-209.42"/>
</g>
<!-- Node39 -->
<g id="node39" class="node">
<title>Node39</title>
<g id="a_node39"><a xlink:title=" ">
<polygon fill="white" stroke="#bfbfbf" points="1667.5,-185 1667.5,-204 1757.5,-204 1757.5,-185 1667.5,-185"/>
<text text-anchor="middle" x="1712.5" y="-192" font-family="Helvetica,sans-Serif" font-size="10.00">hpx/mutex.hpp</text>
</a>
</g>
</g>
<!-- Node21&#45;&gt;Node39 -->
<g id="edge45" class="edge">
<title>Node21&#45;&gt;Node39</title>
<path fill="none" stroke="midnightblue" d="M1164.07,-262.36C1275.82,-256.35 1483.83,-241.73 1658.5,-210 1663.62,-209.07 1668.97,-207.89 1674.22,-206.61"/>
<polygon fill="midnightblue" stroke="midnightblue" points="1675.3,-209.95 1684.11,-204.07 1673.56,-203.17 1675.3,-209.95"/>
</g>
<!-- Node40 -->
<g id="node40" class="node">
<title>Node40</title>
<g id="a_node40"><a xlink:title=" ">
<polygon fill="white" stroke="#bfbfbf" points="1775.5,-185 1775.5,-204 1915.5,-204 1915.5,-185 1775.5,-185"/>
<text text-anchor="middle" x="1845.5" y="-192" font-family="Helvetica,sans-Serif" font-size="10.00">boost/core/demangle.hpp</text>
</a>
</g>
</g>
<!-- Node21&#45;&gt;Node40 -->
<g id="edge46" class="edge">
<title>Node21&#45;&gt;Node40</title>
<path fill="none" stroke="midnightblue" d="M1164.21,-261.99C1292.29,-255.05 1549.78,-238.7 1766.5,-210 1775.24,-208.84 1784.48,-207.37 1793.44,-205.82"/>
<polygon fill="midnightblue" stroke="midnightblue" points="1794.17,-209.24 1803.39,-204.03 1792.93,-202.35 1794.17,-209.24"/>
</g>
<!-- Node41 -->
<g id="node41" class="node">
<title>Node41</title>
<g id="a_node41"><a xlink:title=" ">
<polygon fill="white" stroke="#bfbfbf" points="1934,-185 1934,-204 2035,-204 2035,-185 1934,-185"/>
<text text-anchor="middle" x="1984.5" y="-192" font-family="Helvetica,sans-Serif" font-size="10.00">boost/format.hpp</text>
</a>
</g>
</g>
<!-- Node21&#45;&gt;Node41 -->
<g id="edge47" class="edge">
<title>Node21&#45;&gt;Node41</title>
<path fill="none" stroke="midnightblue" d="M1164.01,-265.2C1314.32,-262.69 1647.5,-252.38 1924.5,-210 1930.76,-209.04 1937.32,-207.76 1943.72,-206.34"/>
<polygon fill="midnightblue" stroke="midnightblue" points="1944.62,-209.73 1953.56,-204.04 1943.03,-202.91 1944.62,-209.73"/>
</g>
<!-- Node42 -->
<g id="node42" class="node">
<title>Node42</title>
<g id="a_node42"><a xlink:href="buffer__management_8hpp.html" target="_top" xlink:title=" ">
<polygon fill="white" stroke="black" points="2205.5,-112.5 2205.5,-142.5 2375.5,-142.5 2375.5,-112.5 2205.5,-112.5"/>
<text text-anchor="start" x="2213.5" y="-130.5" font-family="Helvetica,sans-Serif" font-size="10.00">cppuddle/memory_recycling</text>
<text text-anchor="middle" x="2290.5" y="-119.5" font-family="Helvetica,sans-Serif" font-size="10.00">/detail/buffer_management.hpp</text>
</a>
</g>
</g>
<!-- Node21&#45;&gt;Node42 -->
<g id="edge49" class="edge">
<title>Node21&#45;&gt;Node42</title>
<path fill="none" stroke="midnightblue" d="M1164.11,-264.84C1403.03,-261 2096.59,-246.77 2191.5,-210 2223.98,-197.42 2253.73,-169.78 2271.96,-150.18"/>
<polygon fill="midnightblue" stroke="midnightblue" points="2274.71,-152.36 2278.82,-142.6 2269.52,-147.67 2274.71,-152.36"/>
</g>
<!-- Node42&#45;&gt;Node10 -->
<g id="edge51" class="edge">
<title>Node42&#45;&gt;Node10</title>
<path fill="none" stroke="midnightblue" d="M2205.18,-114.02C2147.22,-105.11 2068.62,-92.2 1989.89,-75.93"/>
<polygon fill="midnightblue" stroke="midnightblue" points="1990.29,-72.44 1979.79,-73.83 1988.87,-79.29 1990.29,-72.44"/>
</g>
<!-- Node42&#45;&gt;Node12 -->
<g id="edge53" class="edge">
<title>Node42&#45;&gt;Node12</title>
<path fill="none" stroke="midnightblue" d="M2205.19,-117.18C2131.93,-108.65 2023.32,-94.78 1919.69,-76.08"/>
<polygon fill="midnightblue" stroke="midnightblue" points="1920.14,-72.6 1909.68,-74.25 1918.89,-79.49 1920.14,-72.6"/>
</g>
<!-- Node42&#45;&gt;Node13 -->
<g id="edge55" class="edge">
<title>Node42&#45;&gt;Node13</title>
<path fill="none" stroke="midnightblue" d="M2205.35,-123.18C1919.8,-112.06 1002.84,-76.36 801.73,-68.53"/>
<polygon fill="midnightblue" stroke="midnightblue" points="801.76,-65.03 791.63,-68.13 801.49,-72.02 801.76,-65.03"/>
</g>
<!-- Node42&#45;&gt;Node14 -->
<g id="edge56" class="edge">
<title>Node42&#45;&gt;Node14</title>
<path fill="none" stroke="midnightblue" d="M2291.82,-112.35C2292.48,-96.03 2290.7,-69.69 2274.5,-56 2244.69,-30.8 1654.7,-15.31 1504.87,-11.78"/>
<polygon fill="midnightblue" stroke="midnightblue" points="1504.93,-8.28 1494.85,-11.54 1504.77,-15.28 1504.93,-8.28"/>
</g>
<!-- Node42&#45;&gt;Node17 -->
<g id="edge59" class="edge">
<title>Node42&#45;&gt;Node17</title>
<path fill="none" stroke="midnightblue" d="M2205.18,-119.23C2116.66,-111.16 1974.05,-96.7 1841,-75.94"/>
<polygon fill="midnightblue" stroke="midnightblue" points="1841.46,-72.47 1831.03,-74.37 1840.37,-79.38 1841.46,-72.47"/>
</g>
<!-- Node42&#45;&gt;Node18 -->
<g id="edge61" class="edge">
<title>Node42&#45;&gt;Node18</title>
<path fill="none" stroke="midnightblue" d="M2316.81,-112.4C2334.76,-102.77 2358.42,-90.09 2376.17,-80.58"/>
<polygon fill="midnightblue" stroke="midnightblue" points="2378.19,-83.47 2385.35,-75.66 2374.88,-77.3 2378.19,-83.47"/>
</g>
<!-- Node42&#45;&gt;Node22 -->
<g id="edge58" class="edge">
<title>Node42&#45;&gt;Node22</title>
<path fill="none" stroke="midnightblue" d="M2229.21,-112.47C2181.22,-101.49 2115.7,-86.5 2073.25,-76.78"/>
<polygon fill="midnightblue" stroke="midnightblue" points="2073.77,-73.31 2063.24,-74.49 2072.21,-80.13 2073.77,-73.31"/>
</g>
<!-- Node42&#45;&gt;Node25 -->
<g id="edge50" class="edge">
<title>Node42&#45;&gt;Node25</title>
<path fill="none" stroke="midnightblue" d="M2246.89,-112.4C2214.62,-101.96 2171.24,-87.94 2141.29,-78.25"/>
<polygon fill="midnightblue" stroke="midnightblue" points="2142.27,-74.89 2131.68,-75.14 2140.12,-81.55 2142.27,-74.89"/>
</g>
<!-- Node42&#45;&gt;Node28 -->
<g id="edge57" class="edge">
<title>Node42&#45;&gt;Node28</title>
<path fill="none" stroke="midnightblue" d="M2346.37,-112.47C2390.46,-101.4 2450.79,-86.26 2489.46,-76.55"/>
<polygon fill="midnightblue" stroke="midnightblue" points="2490.43,-79.91 2499.28,-74.08 2488.73,-73.12 2490.43,-79.91"/>
</g>
<!-- Node42&#45;&gt;Node33 -->
<g id="edge60" class="edge">
<title>Node42&#45;&gt;Node33</title>
<path fill="none" stroke="midnightblue" d="M2368.29,-112.47C2428.26,-101.66 2509.8,-86.96 2563.73,-77.24"/>
<polygon fill="midnightblue" stroke="midnightblue" points="2564.58,-80.64 2573.8,-75.42 2563.34,-73.75 2564.58,-80.64"/>
</g>
<!-- Node43 -->
<g id="node43" class="node">
<title>Node43</title>
<g id="a_node43"><a xlink:title=" ">
<polygon fill="white" stroke="#bfbfbf" points="2150,-56.5 2150,-75.5 2215,-75.5 2215,-56.5 2150,-56.5"/>
<text text-anchor="middle" x="2182.5" y="-63.5" font-family="Helvetica,sans-Serif" font-size="10.00">functional</text>
</a>
</g>
</g>
<!-- Node42&#45;&gt;Node43 -->
<g id="edge52" class="edge">
<title>Node42&#45;&gt;Node43</title>
<path fill="none" stroke="midnightblue" d="M2264.91,-112.4C2247.43,-102.77 2224.41,-90.09 2207.14,-80.58"/>
<polygon fill="midnightblue" stroke="midnightblue" points="2208.66,-77.42 2198.21,-75.66 2205.28,-83.55 2208.66,-77.42"/>
</g>
<!-- Node44 -->
<g id="node44" class="node">
<title>Node44</title>
<g id="a_node44"><a xlink:title=" ">
<polygon fill="white" stroke="#bfbfbf" points="2233.5,-56.5 2233.5,-75.5 2265.5,-75.5 2265.5,-56.5 2233.5,-56.5"/>
<text text-anchor="middle" x="2249.5" y="-63.5" font-family="Helvetica,sans-Serif" font-size="10.00">list</text>
</a>
</g>
</g>
<!-- Node42&#45;&gt;Node44 -->
<g id="edge54" class="edge">
<title>Node42&#45;&gt;Node44</title>
<path fill="none" stroke="midnightblue" d="M2280.78,-112.4C2274.95,-103.93 2267.48,-93.1 2261.31,-84.14"/>
<polygon fill="midnightblue" stroke="midnightblue" points="2264.02,-81.91 2255.47,-75.66 2258.26,-85.88 2264.02,-81.91"/>
</g>
<!-- Node45&#45;&gt;Node21 -->
<g id="edge64" class="edge">
<title>Node45&#45;&gt;Node21</title>
<path fill="none" stroke="midnightblue" d="M1083.5,-324.43C1083.5,-316.27 1083.5,-306.62 1083.5,-297.63"/>
<polygon fill="midnightblue" stroke="midnightblue" points="1087,-297.51 1083.5,-287.51 1080,-297.51 1087,-297.51"/>
</g>
</g>
</svg>
        <g id="navigator" transform="translate(0 0)" fill="#404254">
                <rect fill="#f2f5e9" fill-opacity="0.5" stroke="#606060" stroke-width=".5" x="0" y="0" width="60" height="60"/>
                <use id="zoomplus" xlink:href="#zoomPlus" x="17" y="9" onmousedown="handleZoom(evt,'in')"/>
                <use id="zoomminus" xlink:href="#zoomMin" x="42" y="9" onmousedown="handleZoom(evt,'out')"/>
                <use id="reset" xlink:href="#resetDef" x="30" y="36" onmousedown="handleReset()"/>
                <g id="arrowUp" xlink:href="#dirArrow" transform="translate(30 24)" onmousedown="handlePan(0,-1)">
                  <use xlink:href="#rim" fill="#404040">
                        <set attributeName="fill" to="#808080" begin="arrowUp.mouseover" end="arrowUp.mouseout"/>
                  </use>
                  <path fill="none" stroke="white" stroke-width="1.5" d="M0,-3.0v7 M-2.5,-0.5L0,-3.0L2.5,-0.5"/>
                </g>
                <g id="arrowRight" xlink:href="#dirArrow" transform="rotate(90) translate(36 -43)" onmousedown="handlePan(1,0)">
                  <use xlink:href="#rim" fill="#404040">
                        <set attributeName="fill" to="#808080" begin="arrowRight.mouseover" end="arrowRight.mouseout"/>
                  </use>
                  <path fill="none" stroke="white" stroke-width="1.5" d="M0,-3.0v7 M-2.5,-0.5L0,-3.0L2.5,-0.5"/>
                </g>
                <g id="arrowDown" xlink:href="#dirArrow" transform="rotate(180) translate(-30 -48)" onmousedown="handlePan(0,1)">
                  <use xlink:href="#rim" fill="#404040">
                        <set attributeName="fill" to="#808080" begin="arrowDown.mouseover" end="arrowDown.mouseout"/>
                  </use>
                  <path fill="none" stroke="white" stroke-width="1.5" d="M0,-3.0v7 M-2.5,-0.5L0,-3.0L2.5,-0.5"/>
                </g>
                <g id="arrowLeft" xlink:href="#dirArrow" transform="rotate(270) translate(-36 17)" onmousedown="handlePan(-1,0)">
                  <use xlink:href="#rim" fill="#404040">
                        <set attributeName="fill" to="#808080" begin="arrowLeft.mouseover" end="arrowLeft.mouseout"/>
                  </use>
                  <path fill="none" stroke="white" stroke-width="1.5" d="M0,-3.0v7 M-2.5,-0.5L0,-3.0L2.5,-0.5"/>
                </g>
        </g>
        <svg viewBox="0 0 15 15" width="100%" height="30px" preserveAspectRatio="xMaxYMin meet">
         <g id="arrow_out" transform="scale(0.3 0.3)">
          <a xlink:href="kokkos__aggregation__util_8hpp__incl_org.svg" target="_base">
           <rect id="button" ry="5" rx="5" y="6" x="6" height="38" width="38"
                fill="#f2f5e9" fill-opacity="0.5" stroke="#606060" stroke-width="1.0"/>
           <path id="arrow"
             d="M 11.500037,31.436501 C 11.940474,20.09759 22.043105,11.32322 32.158766,21.979434 L 37.068811,17.246167 C 37.068811,17.246167 37.088388,32 37.088388,32 L 22.160133,31.978069 C 22.160133,31.978069 26.997745,27.140456 26.997745,27.140456 C 18.528582,18.264221 13.291696,25.230495 11.500037,31.436501 z"
             style="fill:#404040;"/>
          </a>
         </g>
        </svg>
</svg>
