<?xml version="1.0" encoding="UTF-8" standalone="no"?>
<!DOCTYPE svg PUBLIC "-//W3C//DTD SVG 1.1//EN"
 "http://www.w3.org/Graphics/SVG/1.1/DTD/svg11.dtd">
<!-- Generated by graphviz version 2.43.0 (0)
 -->
<!-- Title: include/cppuddle/memory_recycling/util/recycling_kokkos_view.hpp Pages: 1 -->
<svg width="445pt" height="117pt"
 viewBox="0.00 0.00 444.50 117.00" xmlns="http://www.w3.org/2000/svg" xmlns:xlink="http://www.w3.org/1999/xlink">
<g id="graph0" class="graph" transform="scale(1 1) rotate(0) translate(4 113)">
<title>include/cppuddle/memory_recycling/util/recycling_kokkos_view.hpp</title>
<polygon fill="white" stroke="transparent" points="-4,4 -4,-113 440.5,-113 440.5,4 -4,4"/>
<!-- Node1 -->
<g id="node1" class="node">
<title>Node1</title>
<g id="a_node1"><a xlink:title=" ">
<polygon fill="#bfbfbf" stroke="black" points="131.5,-67.5 131.5,-108.5 274.5,-108.5 274.5,-67.5 131.5,-67.5"/>
<text text-anchor="start" x="139.5" y="-96.5" font-family="Helvetica,sans-Serif" font-size="10.00">include/cppuddle/memory</text>
<text text-anchor="start" x="139.5" y="-85.5" font-family="Helvetica,sans-Serif" font-size="10.00">_recycling/util/recycling</text>
<text text-anchor="middle" x="203" y="-74.5" font-family="Helvetica,sans-Serif" font-size="10.00">_kokkos_view.hpp</text>
</a>
</g>
</g>
<!-- Node2 -->
<g id="node2" class="node">
<title>Node2</title>
<g id="a_node2"><a xlink:href="kokkos__buffer__util_8hpp.html" target="_top" xlink:title=" ">
<polygon fill="white" stroke="black" points="0,-0.5 0,-30.5 122,-30.5 122,-0.5 0,-0.5"/>
<text text-anchor="start" x="8" y="-18.5" font-family="Helvetica,sans-Serif" font-size="10.00">include/kokkos_buffer</text>
<text text-anchor="middle" x="61" y="-7.5" font-family="Helvetica,sans-Serif" font-size="10.00">_util.hpp</text>
</a>
</g>
</g>
<!-- Node1&#45;&gt;Node2 -->
<g id="edge1" class="edge">
<title>Node1&#45;&gt;Node2</title>
<path fill="none" stroke="midnightblue" d="M154.4,-62.87C132.8,-52.15 108.11,-39.89 89.54,-30.67"/>
<polygon fill="midnightblue" stroke="midnightblue" points="152.93,-66.05 163.45,-67.36 156.04,-59.78 152.93,-66.05"/>
</g>
<!-- Node3 -->
<g id="node3" class="node">
<title>Node3</title>
<g id="a_node3"><a xlink:href="allocator__kokkos__test_8cpp.html" target="_top" xlink:title=" ">
<polygon fill="white" stroke="black" points="140.5,-0.5 140.5,-30.5 265.5,-30.5 265.5,-0.5 140.5,-0.5"/>
<text text-anchor="start" x="148.5" y="-18.5" font-family="Helvetica,sans-Serif" font-size="10.00">tests/allocator_kokkos</text>
<text text-anchor="middle" x="203" y="-7.5" font-family="Helvetica,sans-Serif" font-size="10.00">_test.cpp</text>
</a>
</g>
</g>
<!-- Node1&#45;&gt;Node3 -->
<g id="edge2" class="edge">
<title>Node1&#45;&gt;Node3</title>
<path fill="none" stroke="midnightblue" d="M203,-57.08C203,-48.01 203,-38.45 203,-30.89"/>
<polygon fill="midnightblue" stroke="midnightblue" points="199.5,-57.36 203,-67.36 206.5,-57.36 199.5,-57.36"/>
</g>
<!-- Node4 -->
<g id="node4" class="node">
<title>Node4</title>
<g id="a_node4"><a xlink:href="allocator__kokkos__executor__for__loop__test_8cpp.html" target="_top" xlink:title=" ">
<polygon fill="white" stroke="black" points="283.5,-0.5 283.5,-30.5 436.5,-30.5 436.5,-0.5 283.5,-0.5"/>
<text text-anchor="start" x="291.5" y="-18.5" font-family="Helvetica,sans-Serif" font-size="10.00">tests/allocator_kokkos</text>
<text text-anchor="middle" x="360" y="-7.5" font-family="Helvetica,sans-Serif" font-size="10.00">_executor_for_loop_test.cpp</text>
</a>
</g>
</g>
<!-- Node1&#45;&gt;Node4 -->
<g id="edge3" class="edge">
<title>Node1&#45;&gt;Node4</title>
<path fill="none" stroke="midnightblue" d="M256.09,-63.16C280.13,-52.36 307.73,-39.97 328.44,-30.67"/>
<polygon fill="midnightblue" stroke="midnightblue" points="254.42,-60.07 246.73,-67.36 257.29,-66.46 254.42,-60.07"/>
</g>
</g>
</svg>
