<?xml version="1.0" encoding="UTF-8" standalone="no"?>
<!DOCTYPE svg PUBLIC "-//W3C//DTD SVG 1.1//EN"
 "http://www.w3.org/Graphics/SVG/1.1/DTD/svg11.dtd">
<!-- Generated by graphviz version 2.43.0 (0)
 -->
<!-- Title: include/cppuddle/memory_recycling/std_recycling_allocators.hpp Pages: 1 -->
<!--zoomable 184 -->
<svg id="main" version="1.1" xmlns="http://www.w3.org/2000/svg" xmlns:xlink="http://www.w3.org/1999/xlink" xml:space="preserve" onload="init(evt)">
<style type="text/css"><![CDATA[
.edge:hover path { stroke: red; }
.edge:hover polygon { stroke: red; fill: red; }
]]></style>
<script type="text/javascript"><![CDATA[
var edges = document.getElementsByTagName('g');
if (edges && edges.length) {
  for (var i=0;i<edges.length;i++) {
    if (edges[i].id.substr(0,4)=='edge') {
      edges[i].setAttribute('class','edge');
    }
  }
}
]]></script>
        <defs>
                <circle id="rim" cx="0" cy="0" r="7"/>
                <circle id="rim2" cx="0" cy="0" r="3.5"/>
                <g id="zoomPlus">
                        <use xlink:href="#rim" fill="#404040">
                                <set attributeName="fill" to="#808080" begin="zoomplus.mouseover" end="zoomplus.mouseout"/>
                        </use>
                        <path d="M-4,0h8M0,-4v8" fill="none" stroke="white" stroke-width="1.5" pointer-events="none"/>
                </g>
                <g id="zoomMin">
                        <use xlink:href="#rim" fill="#404040">
                                <set attributeName="fill" to="#808080" begin="zoomminus.mouseover" end="zoomminus.mouseout"/>
                        </use>
                        <path d="M-4,0h8" fill="none" stroke="white" stroke-width="1.5" pointer-events="none"/>
                </g>
                <g id="dirArrow">
                        <path fill="none" stroke="white" stroke-width="1.5" d="M0,-3.0v7 M-2.5,-0.5L0,-3.0L2.5,-0.5"/>
                </g>
               <g id="resetDef">
                       <use xlink:href="#rim2" fill="#404040">
                               <set attributeName="fill" to="#808080" begin="reset.mouseover" end="reset.mouseout"/>
                       </use>
               </g>
        </defs>

<script type="text/javascript">
var viewWidth = 901;
var viewHeight = 184;
var sectionId = 'dynsection-1';
</script>
<script xlink:href="svgpan.js"/>
<svg id="graph" class="graph">
<g id="viewport">
<title>include/cppuddle/memory_recycling/std_recycling_allocators.hpp</title>
<polygon fill="white" stroke="transparent" points="-4,4 -4,-180 896.5,-180 896.5,4 -4,4"/>
<!-- Node1 -->
<g id="node1" class="node">
<title>Node1</title>
<g id="a_node1"><a xlink:title=" ">
<polygon fill="#bfbfbf" stroke="black" points="383.5,-134.5 383.5,-175.5 526.5,-175.5 526.5,-134.5 383.5,-134.5"/>
<text text-anchor="start" x="391.5" y="-163.5" font-family="Helvetica,sans-Serif" font-size="10.00">include/cppuddle/memory</text>
<text text-anchor="start" x="391.5" y="-152.5" font-family="Helvetica,sans-Serif" font-size="10.00">_recycling/std_recycling</text>
<text text-anchor="middle" x="455" y="-141.5" font-family="Helvetica,sans-Serif" font-size="10.00">_allocators.hpp</text>
</a>
</g>
</g>
<!-- Node2 -->
<g id="node2" class="node">
<title>Node2</title>
<g id="a_node2"><a xlink:href="buffer__manager_8hpp.html" target="_top" xlink:title=" ">
<polygon fill="white" stroke="black" points="0,-73 0,-92 152,-92 152,-73 0,-73"/>
<text text-anchor="middle" x="76" y="-80" font-family="Helvetica,sans-Serif" font-size="10.00">include/buffer_manager.hpp</text>
</a>
</g>
</g>
<!-- Node1&#45;&gt;Node2 -->
<g id="edge1" class="edge">
<title>Node1&#45;&gt;Node2</title>
<path fill="none" stroke="midnightblue" d="M373.13,-138.77C296.26,-124.47 184.03,-103.6 121.82,-92.02"/>
<polygon fill="midnightblue" stroke="midnightblue" points="372.8,-142.27 383.27,-140.66 374.08,-135.39 372.8,-142.27"/>
</g>
<!-- Node4 -->
<g id="node4" class="node">
<title>Node4</title>
<g id="a_node4"><a xlink:href="allocator__hpx__test_8cpp.html" target="_top" xlink:title=" ">
<polygon fill="white" stroke="black" points="170,-67.5 170,-97.5 280,-97.5 280,-67.5 170,-67.5"/>
<text text-anchor="start" x="178" y="-85.5" font-family="Helvetica,sans-Serif" font-size="10.00">tests/allocator_hpx</text>
<text text-anchor="middle" x="225" y="-74.5" font-family="Helvetica,sans-Serif" font-size="10.00">_test.cpp</text>
</a>
</g>
</g>
<!-- Node1&#45;&gt;Node4 -->
<g id="edge3" class="edge">
<title>Node1&#45;&gt;Node4</title>
<path fill="none" stroke="midnightblue" d="M381.67,-131.52C345.36,-120.39 302.64,-107.3 270.99,-97.6"/>
<polygon fill="midnightblue" stroke="midnightblue" points="380.65,-134.87 391.24,-134.46 382.7,-128.18 380.65,-134.87"/>
</g>
<!-- Node5 -->
<g id="node5" class="node">
<title>Node5</title>
<g id="a_node5"><a xlink:href="allocator__kokkos__executor__for__loop__test_8cpp.html" target="_top" xlink:title=" ">
<polygon fill="white" stroke="black" points="298.5,-67.5 298.5,-97.5 451.5,-97.5 451.5,-67.5 298.5,-67.5"/>
<text text-anchor="start" x="306.5" y="-85.5" font-family="Helvetica,sans-Serif" font-size="10.00">tests/allocator_kokkos</text>
<text text-anchor="middle" x="375" y="-74.5" font-family="Helvetica,sans-Serif" font-size="10.00">_executor_for_loop_test.cpp</text>
</a>
</g>
</g>
<!-- Node1&#45;&gt;Node5 -->
<g id="edge4" class="edge">
<title>Node1&#45;&gt;Node5</title>
<path fill="none" stroke="midnightblue" d="M424.99,-127.55C413.48,-117.41 400.79,-106.23 391.08,-97.67"/>
<polygon fill="midnightblue" stroke="midnightblue" points="422.9,-130.38 432.72,-134.36 427.53,-125.12 422.9,-130.38"/>
</g>
<!-- Node6 -->
<g id="node6" class="node">
<title>Node6</title>
<g id="a_node6"><a xlink:href="allocator__test_8cpp.html" target="_top" xlink:title=" ">
<polygon fill="white" stroke="black" points="469.5,-73 469.5,-92 600.5,-92 600.5,-73 469.5,-73"/>
<text text-anchor="middle" x="535" y="-80" font-family="Helvetica,sans-Serif" font-size="10.00">tests/allocator_test.cpp</text>
</a>
</g>
</g>
<!-- Node1&#45;&gt;Node6 -->
<g id="edge5" class="edge">
<title>Node1&#45;&gt;Node6</title>
<path fill="none" stroke="midnightblue" d="M484.94,-127.62C499.14,-115.1 515.15,-100.99 525.16,-92.17"/>
<polygon fill="midnightblue" stroke="midnightblue" points="482.47,-125.12 477.28,-134.36 487.1,-130.38 482.47,-125.12"/>
</g>
<!-- Node7 -->
<g id="node7" class="node">
<title>Node7</title>
<g id="a_node7"><a xlink:href="allocator__kokkos__test_8cpp.html" target="_top" xlink:title=" ">
<polygon fill="white" stroke="black" points="618.5,-67.5 618.5,-97.5 743.5,-97.5 743.5,-67.5 618.5,-67.5"/>
<text text-anchor="start" x="626.5" y="-85.5" font-family="Helvetica,sans-Serif" font-size="10.00">tests/allocator_kokkos</text>
<text text-anchor="middle" x="681" y="-74.5" font-family="Helvetica,sans-Serif" font-size="10.00">_test.cpp</text>
</a>
</g>
</g>
<!-- Node1&#45;&gt;Node7 -->
<g id="edge6" class="edge">
<title>Node1&#45;&gt;Node7</title>
<path fill="none" stroke="midnightblue" d="M527.51,-131.38C563.09,-120.28 604.84,-107.26 635.81,-97.6"/>
<polygon fill="midnightblue" stroke="midnightblue" points="526.16,-128.14 517.65,-134.46 528.24,-134.82 526.16,-128.14"/>
</g>
<!-- Node8 -->
<g id="node8" class="node">
<title>Node8</title>
<g id="a_node8"><a xlink:href="work__aggregation__cpu__triad_8cpp.html" target="_top" xlink:title=" ">
<polygon fill="white" stroke="black" points="761.5,-67.5 761.5,-97.5 892.5,-97.5 892.5,-67.5 761.5,-67.5"/>
<text text-anchor="start" x="769.5" y="-85.5" font-family="Helvetica,sans-Serif" font-size="10.00">tests/work_aggregation</text>
<text text-anchor="middle" x="827" y="-74.5" font-family="Helvetica,sans-Serif" font-size="10.00">_cpu_triad.cpp</text>
</a>
</g>
</g>
<!-- Node1&#45;&gt;Node8 -->
<g id="edge7" class="edge">
<title>Node1&#45;&gt;Node8</title>
<path fill="none" stroke="midnightblue" d="M536.84,-138.8C596.73,-127.63 679.94,-112.02 753,-98 755.7,-97.48 758.45,-96.95 761.24,-96.41"/>
<polygon fill="midnightblue" stroke="midnightblue" points="535.87,-135.42 526.68,-140.69 537.16,-142.3 535.87,-135.42"/>
</g>
<!-- Node3 -->
<g id="node3" class="node">
<title>Node3</title>
<g id="a_node3"><a xlink:href="cuda__buffer__util_8hpp.html" target="_top" xlink:title=" ">
<polygon fill="white" stroke="black" points="20,-0.5 20,-30.5 132,-30.5 132,-0.5 20,-0.5"/>
<text text-anchor="start" x="28" y="-18.5" font-family="Helvetica,sans-Serif" font-size="10.00">include/cuda_buffer</text>
<text text-anchor="middle" x="76" y="-7.5" font-family="Helvetica,sans-Serif" font-size="10.00">_util.hpp</text>
</a>
</g>
</g>
<!-- Node2&#45;&gt;Node3 -->
<g id="edge2" class="edge">
<title>Node2&#45;&gt;Node3</title>
<path fill="none" stroke="midnightblue" d="M76,-62.41C76,-52.22 76,-39.9 76,-30.59"/>
<polygon fill="midnightblue" stroke="midnightblue" points="72.5,-62.73 76,-72.73 79.5,-62.73 72.5,-62.73"/>
</g>
</g>
</svg>
        <g id="navigator" transform="translate(0 0)" fill="#404254">
                <rect fill="#f2f5e9" fill-opacity="0.5" stroke="#606060" stroke-width=".5" x="0" y="0" width="60" height="60"/>
                <use id="zoomplus" xlink:href="#zoomPlus" x="17" y="9" onmousedown="handleZoom(evt,'in')"/>
                <use id="zoomminus" xlink:href="#zoomMin" x="42" y="9" onmousedown="handleZoom(evt,'out')"/>
                <use id="reset" xlink:href="#resetDef" x="30" y="36" onmousedown="handleReset()"/>
                <g id="arrowUp" xlink:href="#dirArrow" transform="translate(30 24)" onmousedown="handlePan(0,-1)">
                  <use xlink:href="#rim" fill="#404040">
                        <set attributeName="fill" to="#808080" begin="arrowUp.mouseover" end="arrowUp.mouseout"/>
                  </use>
                  <path fill="none" stroke="white" stroke-width="1.5" d="M0,-3.0v7 M-2.5,-0.5L0,-3.0L2.5,-0.5"/>
                </g>
                <g id="arrowRight" xlink:href="#dirArrow" transform="rotate(90) translate(36 -43)" onmousedown="handlePan(1,0)">
                  <use xlink:href="#rim" fill="#404040">
                        <set attributeName="fill" to="#808080" begin="arrowRight.mouseover" end="arrowRight.mouseout"/>
                  </use>
                  <path fill="none" stroke="white" stroke-width="1.5" d="M0,-3.0v7 M-2.5,-0.5L0,-3.0L2.5,-0.5"/>
                </g>
                <g id="arrowDown" xlink:href="#dirArrow" transform="rotate(180) translate(-30 -48)" onmousedown="handlePan(0,1)">
                  <use xlink:href="#rim" fill="#404040">
                        <set attributeName="fill" to="#808080" begin="arrowDown.mouseover" end="arrowDown.mouseout"/>
                  </use>
                  <path fill="none" stroke="white" stroke-width="1.5" d="M0,-3.0v7 M-2.5,-0.5L0,-3.0L2.5,-0.5"/>
                </g>
                <g id="arrowLeft" xlink:href="#dirArrow" transform="rotate(270) translate(-36 17)" onmousedown="handlePan(-1,0)">
                  <use xlink:href="#rim" fill="#404040">
                        <set attributeName="fill" to="#808080" begin="arrowLeft.mouseover" end="arrowLeft.mouseout"/>
                  </use>
                  <path fill="none" stroke="white" stroke-width="1.5" d="M0,-3.0v7 M-2.5,-0.5L0,-3.0L2.5,-0.5"/>
                </g>
        </g>
        <svg viewBox="0 0 15 15" width="100%" height="30px" preserveAspectRatio="xMaxYMin meet">
         <g id="arrow_out" transform="scale(0.3 0.3)">
          <a xlink:href="std__recycling__allocators_8hpp__dep__incl_org.svg" target="_base">
           <rect id="button" ry="5" rx="5" y="6" x="6" height="38" width="38"
                fill="#f2f5e9" fill-opacity="0.5" stroke="#606060" stroke-width="1.0"/>
           <path id="arrow"
             d="M 11.500037,31.436501 C 11.940474,20.09759 22.043105,11.32322 32.158766,21.979434 L 37.068811,17.246167 C 37.068811,17.246167 37.088388,32 37.088388,32 L 22.160133,31.978069 C 22.160133,31.978069 26.997745,27.140456 26.997745,27.140456 C 18.528582,18.264221 13.291696,25.230495 11.500037,31.436501 z"
             style="fill:#404040;"/>
          </a>
         </g>
        </svg>
</svg>
