<?xml version="1.0" encoding="UTF-8" standalone="no"?>
<!DOCTYPE svg PUBLIC "-//W3C//DTD SVG 1.1//EN"
 "http://www.w3.org/Graphics/SVG/1.1/DTD/svg11.dtd">
<!-- Generated by graphviz version 2.43.0 (0)
 -->
<!-- Title: include/cppuddle/memory_recycling/std_recycling_allocators.hpp Pages: 1 -->
<svg width="901pt" height="184pt"
 viewBox="0.00 0.00 900.50 184.00" xmlns="http://www.w3.org/2000/svg" xmlns:xlink="http://www.w3.org/1999/xlink">
<g id="graph0" class="graph" transform="scale(1 1) rotate(0) translate(4 180)">
<title>include/cppuddle/memory_recycling/std_recycling_allocators.hpp</title>
<polygon fill="white" stroke="transparent" points="-4,4 -4,-180 896.5,-180 896.5,4 -4,4"/>
<!-- Node1 -->
<g id="node1" class="node">
<title>Node1</title>
<g id="a_node1"><a xlink:title=" ">
<polygon fill="#bfbfbf" stroke="black" points="383.5,-134.5 383.5,-175.5 526.5,-175.5 526.5,-134.5 383.5,-134.5"/>
<text text-anchor="start" x="391.5" y="-163.5" font-family="Helvetica,sans-Serif" font-size="10.00">include/cppuddle/memory</text>
<text text-anchor="start" x="391.5" y="-152.5" font-family="Helvetica,sans-Serif" font-size="10.00">_recycling/std_recycling</text>
<text text-anchor="middle" x="455" y="-141.5" font-family="Helvetica,sans-Serif" font-size="10.00">_allocators.hpp</text>
</a>
</g>
</g>
<!-- Node2 -->
<g id="node2" class="node">
<title>Node2</title>
<g id="a_node2"><a xlink:href="buffer__manager_8hpp.html" target="_top" xlink:title=" ">
<polygon fill="white" stroke="black" points="0,-73 0,-92 152,-92 152,-73 0,-73"/>
<text text-anchor="middle" x="76" y="-80" font-family="Helvetica,sans-Serif" font-size="10.00">include/buffer_manager.hpp</text>
</a>
</g>
</g>
<!-- Node1&#45;&gt;Node2 -->
<g id="edge1" class="edge">
<title>Node1&#45;&gt;Node2</title>
<path fill="none" stroke="midnightblue" d="M373.13,-138.77C296.26,-124.47 184.03,-103.6 121.82,-92.02"/>
<polygon fill="midnightblue" stroke="midnightblue" points="372.8,-142.27 383.27,-140.66 374.08,-135.39 372.8,-142.27"/>
</g>
<!-- Node4 -->
<g id="node4" class="node">
<title>Node4</title>
<g id="a_node4"><a xlink:href="allocator__hpx__test_8cpp.html" target="_top" xlink:title=" ">
<polygon fill="white" stroke="black" points="170,-67.5 170,-97.5 280,-97.5 280,-67.5 170,-67.5"/>
<text text-anchor="start" x="178" y="-85.5" font-family="Helvetica,sans-Serif" font-size="10.00">tests/allocator_hpx</text>
<text text-anchor="middle" x="225" y="-74.5" font-family="Helvetica,sans-Serif" font-size="10.00">_test.cpp</text>
</a>
</g>
</g>
<!-- Node1&#45;&gt;Node4 -->
<g id="edge3" class="edge">
<title>Node1&#45;&gt;Node4</title>
<path fill="none" stroke="midnightblue" d="M381.67,-131.52C345.36,-120.39 302.64,-107.3 270.99,-97.6"/>
<polygon fill="midnightblue" stroke="midnightblue" points="380.65,-134.87 391.24,-134.46 382.7,-128.18 380.65,-134.87"/>
</g>
<!-- Node5 -->
<g id="node5" class="node">
<title>Node5</title>
<g id="a_node5"><a xlink:href="allocator__kokkos__executor__for__loop__test_8cpp.html" target="_top" xlink:title=" ">
<polygon fill="white" stroke="black" points="298.5,-67.5 298.5,-97.5 451.5,-97.5 451.5,-67.5 298.5,-67.5"/>
<text text-anchor="start" x="306.5" y="-85.5" font-family="Helvetica,sans-Serif" font-size="10.00">tests/allocator_kokkos</text>
<text text-anchor="middle" x="375" y="-74.5" font-family="Helvetica,sans-Serif" font-size="10.00">_executor_for_loop_test.cpp</text>
</a>
</g>
</g>
<!-- Node1&#45;&gt;Node5 -->
<g id="edge4" class="edge">
<title>Node1&#45;&gt;Node5</title>
<path fill="none" stroke="midnightblue" d="M424.99,-127.55C413.48,-117.41 400.79,-106.23 391.08,-97.67"/>
<polygon fill="midnightblue" stroke="midnightblue" points="422.9,-130.38 432.72,-134.36 427.53,-125.12 422.9,-130.38"/>
</g>
<!-- Node6 -->
<g id="node6" class="node">
<title>Node6</title>
<g id="a_node6"><a xlink:href="allocator__test_8cpp.html" target="_top" xlink:title=" ">
<polygon fill="white" stroke="black" points="469.5,-73 469.5,-92 600.5,-92 600.5,-73 469.5,-73"/>
<text text-anchor="middle" x="535" y="-80" font-family="Helvetica,sans-Serif" font-size="10.00">tests/allocator_test.cpp</text>
</a>
</g>
</g>
<!-- Node1&#45;&gt;Node6 -->
<g id="edge5" class="edge">
<title>Node1&#45;&gt;Node6</title>
<path fill="none" stroke="midnightblue" d="M484.94,-127.62C499.14,-115.1 515.15,-100.99 525.16,-92.17"/>
<polygon fill="midnightblue" stroke="midnightblue" points="482.47,-125.12 477.28,-134.36 487.1,-130.38 482.47,-125.12"/>
</g>
<!-- Node7 -->
<g id="node7" class="node">
<title>Node7</title>
<g id="a_node7"><a xlink:href="allocator__kokkos__test_8cpp.html" target="_top" xlink:title=" ">
<polygon fill="white" stroke="black" points="618.5,-67.5 618.5,-97.5 743.5,-97.5 743.5,-67.5 618.5,-67.5"/>
<text text-anchor="start" x="626.5" y="-85.5" font-family="Helvetica,sans-Serif" font-size="10.00">tests/allocator_kokkos</text>
<text text-anchor="middle" x="681" y="-74.5" font-family="Helvetica,sans-Serif" font-size="10.00">_test.cpp</text>
</a>
</g>
</g>
<!-- Node1&#45;&gt;Node7 -->
<g id="edge6" class="edge">
<title>Node1&#45;&gt;Node7</title>
<path fill="none" stroke="midnightblue" d="M527.51,-131.38C563.09,-120.28 604.84,-107.26 635.81,-97.6"/>
<polygon fill="midnightblue" stroke="midnightblue" points="526.16,-128.14 517.65,-134.46 528.24,-134.82 526.16,-128.14"/>
</g>
<!-- Node8 -->
<g id="node8" class="node">
<title>Node8</title>
<g id="a_node8"><a xlink:href="work__aggregation__cpu__triad_8cpp.html" target="_top" xlink:title=" ">
<polygon fill="white" stroke="black" points="761.5,-67.5 761.5,-97.5 892.5,-97.5 892.5,-67.5 761.5,-67.5"/>
<text text-anchor="start" x="769.5" y="-85.5" font-family="Helvetica,sans-Serif" font-size="10.00">tests/work_aggregation</text>
<text text-anchor="middle" x="827" y="-74.5" font-family="Helvetica,sans-Serif" font-size="10.00">_cpu_triad.cpp</text>
</a>
</g>
</g>
<!-- Node1&#45;&gt;Node8 -->
<g id="edge7" class="edge">
<title>Node1&#45;&gt;Node8</title>
<path fill="none" stroke="midnightblue" d="M536.84,-138.8C596.73,-127.63 679.94,-112.02 753,-98 755.7,-97.48 758.45,-96.95 761.24,-96.41"/>
<polygon fill="midnightblue" stroke="midnightblue" points="535.87,-135.42 526.68,-140.69 537.16,-142.3 535.87,-135.42"/>
</g>
<!-- Node3 -->
<g id="node3" class="node">
<title>Node3</title>
<g id="a_node3"><a xlink:href="cuda__buffer__util_8hpp.html" target="_top" xlink:title=" ">
<polygon fill="white" stroke="black" points="20,-0.5 20,-30.5 132,-30.5 132,-0.5 20,-0.5"/>
<text text-anchor="start" x="28" y="-18.5" font-family="Helvetica,sans-Serif" font-size="10.00">include/cuda_buffer</text>
<text text-anchor="middle" x="76" y="-7.5" font-family="Helvetica,sans-Serif" font-size="10.00">_util.hpp</text>
</a>
</g>
</g>
<!-- Node2&#45;&gt;Node3 -->
<g id="edge2" class="edge">
<title>Node2&#45;&gt;Node3</title>
<path fill="none" stroke="midnightblue" d="M76,-62.41C76,-52.22 76,-39.9 76,-30.59"/>
<polygon fill="midnightblue" stroke="midnightblue" points="72.5,-62.73 76,-72.73 79.5,-62.73 72.5,-62.73"/>
</g>
</g>
</svg>
