<?xml version="1.0" encoding="UTF-8" standalone="no"?>
<!DOCTYPE svg PUBLIC "-//W3C//DTD SVG 1.1//EN"
 "http://www.w3.org/Graphics/SVG/1.1/DTD/svg11.dtd">
<!-- Generated by graphviz version 2.43.0 (0)
 -->
<!-- Title: include/cppuddle/memory_recycling/std_recycling_allocators.hpp Pages: 1 -->
<!--zoomable 181 -->

<svg id="main" version="1.1" xmlns="http://www.w3.org/2000/svg" xmlns:xlink="http://www.w3.org/1999/xlink" xml:space="preserve" onload="init(evt)">
<style type="text/css"><![CDATA[
.node, .edge {opacity: 0.7;}
.node.selected, .edge.selected {opacity: 1;}
.edge:hover path { stroke: red; }
.edge:hover polygon { stroke: red; fill: red; }
]]></style>

<defs>
  <circle id="rim" cx="0" cy="0" r="7"/>
  <circle id="rim2" cx="0" cy="0" r="3.5"/>
  <g id="zoomPlus">
    <use xlink:href="#rim" fill="#404040"><set attributeName="fill" to="#808080" begin="zoomplus.mouseover" end="zoomplus.mouseout"/></use>
    <path d="M-4,0h8M0,-4v8" fill="none" stroke="white" stroke-width="1.5" pointer-events="none"/>
  </g>
  <g id="zoomMin">
    <use xlink:href="#rim" fill="#404040"><set attributeName="fill" to="#808080" begin="zoomminus.mouseover" end="zoomminus.mouseout"/></use>
    <path d="M-4,0h8" fill="none" stroke="white" stroke-width="1.5" pointer-events="none"/>
  </g>
  <g id="arrowUp" transform="translate(30 24)">
    <use xlink:href="#rim"/>
    <path pointer-events="none" fill="none" stroke="white" stroke-width="1.5" d="M0,-3.0v7 M-2.5,-0.5L0,-3.0L2.5,-0.5"/>
  </g>
  <g id="arrowRight" transform="rotate(90) translate(36 -43)">
    <use xlink:href="#rim"/>
    <path pointer-events="none" fill="none" stroke="white" stroke-width="1.5" d="M0,-3.0v7 M-2.5,-0.5L0,-3.0L2.5,-0.5"/>
  </g>
  <g id="arrowDown" transform="rotate(180) translate(-30 -48)">
    <use xlink:href="#rim"/>
    <path pointer-events="none" fill="none" stroke="white" stroke-width="1.5" d="M0,-3.0v7 M-2.5,-0.5L0,-3.0L2.5,-0.5"/>
  </g>
  <g id="arrowLeft" transform="rotate(270) translate(-36 17)">
    <use xlink:href="#rim"/>
    <path pointer-events="none" fill="none" stroke="white" stroke-width="1.5" d="M0,-3.0v7 M-2.5,-0.5L0,-3.0L2.5,-0.5"/>
  </g>
  <g id="resetDef">
    <use xlink:href="#rim2" fill="#404040"><set attributeName="fill" to="#808080" begin="reset.mouseover" end="reset.mouseout"/></use>
  </g>
</defs>
<script type="application/ecmascript">
var viewWidth = 901;
var viewHeight = 181;
var sectionId = 'dynsection-1';
</script>
<script type="application/ecmascript" xlink:href="svg.min.js"/>
<svg id="graph" class="graph">
<g id="viewport">
<title>include/cppuddle/memory_recycling/std_recycling_allocators.hpp</title>
<!-- Node1 -->
<g id="Node000001" class="node">
<title>Node1</title>
<g id="a_Node000001"><a xlink:title=" ">
<polygon fill="#999999" stroke="#666666" points="524.5,-173 381.5,-173 381.5,-132 524.5,-132 524.5,-173"/>
<text text-anchor="start" x="389.5" y="-161" font-family="Helvetica,sans-Serif" font-size="10.00">include/cppuddle/memory</text>
<text text-anchor="start" x="389.5" y="-150" font-family="Helvetica,sans-Serif" font-size="10.00">_recycling/std_recycling</text>
<text text-anchor="middle" x="453" y="-139" font-family="Helvetica,sans-Serif" font-size="10.00">_allocators.hpp</text>
</a>
</g>
</g>
<!-- Node2 -->
<g id="Node000002" class="node">
<title>Node2</title>
<g id="a_Node000002"><a xlink:href="buffer__manager_8hpp.html" target="_top" xlink:title=" ">
<polygon fill="white" stroke="#666666" points="152,-90.5 0,-90.5 0,-71.5 152,-71.5 152,-90.5"/>
<text text-anchor="middle" x="76" y="-78.5" font-family="Helvetica,sans-Serif" font-size="10.00">include/buffer_manager.hpp</text>
</a>
</g>
</g>
<!-- Node1&#45;&gt;Node2 -->
<g id="edge1_Node000001_Node000002" class="edge">
<title>Node1&#45;&gt;Node2</title>
<g id="a_edge1_Node000001_Node000002"><a xlink:title=" ">
<path fill="none" stroke="#63b8ff" d="M371.16,-136.41C294.99,-122.37 184.19,-101.95 122.28,-90.53"/>
<polygon fill="#63b8ff" stroke="#63b8ff" points="370.73,-139.89 381.2,-138.26 372,-133.01 370.73,-139.89"/>
</a>
</g>
</g>
<!-- Node4 -->
<g id="Node000004" class="node">
<title>Node4</title>
<g id="a_Node000004"><a xlink:href="allocator__hpx__test_8cpp.html" target="_top" xlink:title=" ">
<polygon fill="white" stroke="#666666" points="280,-96 170,-96 170,-66 280,-66 280,-96"/>
<text text-anchor="start" x="178" y="-84" font-family="Helvetica,sans-Serif" font-size="10.00">tests/allocator_hpx</text>
<text text-anchor="middle" x="225" y="-73" font-family="Helvetica,sans-Serif" font-size="10.00">_test.cpp</text>
</a>
</g>
</g>
<!-- Node1&#45;&gt;Node4 -->
<g id="edge3_Node000001_Node000004" class="edge">
<title>Node1&#45;&gt;Node4</title>
<g id="a_edge3_Node000001_Node000004"><a xlink:title=" ">
<path fill="none" stroke="#63b8ff" d="M379.02,-128.95C343.44,-118.1 301.91,-105.44 270.94,-96"/>
<polygon fill="#63b8ff" stroke="#63b8ff" points="378.3,-132.39 388.88,-131.96 380.34,-125.69 378.3,-132.39"/>
</a>
</g>
</g>
<!-- Node5 -->
<g id="Node000005" class="node">
<title>Node5</title>
<g id="a_Node000005"><a xlink:href="allocator__kokkos__executor__for__loop__test_8cpp.html" target="_top" xlink:title=" ">
<polygon fill="white" stroke="#666666" points="451.5,-96 298.5,-96 298.5,-66 451.5,-66 451.5,-96"/>
<text text-anchor="start" x="306.5" y="-84" font-family="Helvetica,sans-Serif" font-size="10.00">tests/allocator_kokkos</text>
<text text-anchor="middle" x="375" y="-73" font-family="Helvetica,sans-Serif" font-size="10.00">_executor_for_loop_test.cpp</text>
</a>
</g>
</g>
<!-- Node1&#45;&gt;Node5 -->
<g id="edge4_Node000001_Node000005" class="edge">
<title>Node1&#45;&gt;Node5</title>
<g id="a_edge4_Node000001_Node000005"><a xlink:title=" ">
<path fill="none" stroke="#63b8ff" d="M423.07,-124.83C412.06,-115.02 400.03,-104.3 390.76,-96.04"/>
<polygon fill="#63b8ff" stroke="#63b8ff" points="421.06,-127.73 430.86,-131.77 425.72,-122.5 421.06,-127.73"/>
</a>
</g>
</g>
<!-- Node6 -->
<g id="Node000006" class="node">
<title>Node6</title>
<g id="a_Node000006"><a xlink:href="allocator__kokkos__test_8cpp.html" target="_top" xlink:title=" ">
<polygon fill="white" stroke="#666666" points="594.5,-96 469.5,-96 469.5,-66 594.5,-66 594.5,-96"/>
<text text-anchor="start" x="477.5" y="-84" font-family="Helvetica,sans-Serif" font-size="10.00">tests/allocator_kokkos</text>
<text text-anchor="middle" x="532" y="-73" font-family="Helvetica,sans-Serif" font-size="10.00">_test.cpp</text>
</a>
</g>
</g>
<!-- Node1&#45;&gt;Node6 -->
<g id="edge5_Node000001_Node000006" class="edge">
<title>Node1&#45;&gt;Node6</title>
<g id="a_edge5_Node000001_Node000006"><a xlink:title=" ">
<path fill="none" stroke="#63b8ff" d="M482.99,-125.12C494.23,-115.23 506.56,-104.38 516.04,-96.04"/>
<polygon fill="#63b8ff" stroke="#63b8ff" points="480.62,-122.54 475.43,-131.77 485.25,-127.79 480.62,-122.54"/>
</a>
</g>
</g>
<!-- Node7 -->
<g id="Node000007" class="node">
<title>Node7</title>
<g id="a_Node000007"><a xlink:href="allocator__test_8cpp.html" target="_top" xlink:title=" ">
<polygon fill="white" stroke="#666666" points="743.5,-90.5 612.5,-90.5 612.5,-71.5 743.5,-71.5 743.5,-90.5"/>
<text text-anchor="middle" x="678" y="-78.5" font-family="Helvetica,sans-Serif" font-size="10.00">tests/allocator_test.cpp</text>
</a>
</g>
</g>
<!-- Node1&#45;&gt;Node7 -->
<g id="edge6_Node000001_Node000007" class="edge">
<title>Node1&#45;&gt;Node7</title>
<g id="a_edge6_Node000001_Node000007"><a xlink:title=" ">
<path fill="none" stroke="#63b8ff" d="M526.04,-128.94C568.56,-115.81 619.68,-100.01 650.47,-90.5"/>
<polygon fill="#63b8ff" stroke="#63b8ff" points="524.8,-125.66 516.27,-131.96 526.86,-132.35 524.8,-125.66"/>
</a>
</g>
</g>
<!-- Node8 -->
<g id="Node000008" class="node">
<title>Node8</title>
<g id="a_Node000008"><a xlink:href="work__aggregation__cpu__triad_8cpp.html" target="_top" xlink:title=" ">
<polygon fill="white" stroke="#666666" points="892.5,-96 761.5,-96 761.5,-66 892.5,-66 892.5,-96"/>
<text text-anchor="start" x="769.5" y="-84" font-family="Helvetica,sans-Serif" font-size="10.00">tests/work_aggregation</text>
<text text-anchor="middle" x="827" y="-73" font-family="Helvetica,sans-Serif" font-size="10.00">_cpu_triad.cpp</text>
</a>
</g>
</g>
<!-- Node1&#45;&gt;Node8 -->
<g id="edge7_Node000001_Node000008" class="edge">
<title>Node1&#45;&gt;Node8</title>
<g id="a_edge7_Node000001_Node000008"><a xlink:title=" ">
<path fill="none" stroke="#63b8ff" d="M534.39,-136.53C594.75,-125.41 679.02,-109.84 753,-96 755.7,-95.5 758.45,-94.98 761.24,-94.46"/>
<polygon fill="#63b8ff" stroke="#63b8ff" points="533.74,-133.1 524.54,-138.35 535.01,-139.98 533.74,-133.1"/>
</a>
</g>
</g>
<!-- Node3 -->
<g id="Node000003" class="node">
<title>Node3</title>
<g id="a_Node000003"><a xlink:href="cuda__buffer__util_8hpp.html" target="_top" xlink:title=" ">
<polygon fill="white" stroke="#666666" points="132,-30 20,-30 20,0 132,0 132,-30"/>
<text text-anchor="start" x="28" y="-18" font-family="Helvetica,sans-Serif" font-size="10.00">include/cuda_buffer</text>
<text text-anchor="middle" x="76" y="-7" font-family="Helvetica,sans-Serif" font-size="10.00">_util.hpp</text>
</a>
</g>
</g>
<!-- Node2&#45;&gt;Node3 -->
<g id="edge2_Node000002_Node000003" class="edge">
<title>Node2&#45;&gt;Node3</title>
<g id="a_edge2_Node000002_Node000003"><a xlink:title=" ">
<path fill="none" stroke="#63b8ff" d="M76,-61.35C76,-51.47 76,-39.51 76,-30.36"/>
<polygon fill="#63b8ff" stroke="#63b8ff" points="72.5,-61.37 76,-71.37 79.5,-61.37 72.5,-61.37"/>
</a>
</g>
</g>
</g>
</svg>

<g id="navigator" transform="translate(0 0)" fill="#404254">
  <rect fill="#f2f5e9" fill-opacity="0.5" stroke="#606060" stroke-width=".5" x="0" y="0" width="60" height="60"/>
  <use id="zoomplus" xlink:href="#zoomPlus" x="17" y="9" onmousedown="handleZoom(evt,'in')"/>
  <use id="zoomminus" xlink:href="#zoomMin" x="42" y="9" onmousedown="handleZoom(evt,'out')"/>
  <use id="reset" xlink:href="#resetDef" x="30" y="36" onmousedown="handleReset()"/>
   <use id="arrowup" xlink:href="#arrowUp" x="0" y="0" onmousedown="handlePan(0,-1)"/>
  <use id="arrowright" xlink:href="#arrowRight" x="0" y="0" onmousedown="handlePan(1,0)"/>
  <use id="arrowdown" xlink:href="#arrowDown" x="0" y="0" onmousedown="handlePan(0,1)"/>
  <use id="arrowleft" xlink:href="#arrowLeft" x="0" y="0" onmousedown="handlePan(-1,0)"/>
</g>
<svg viewBox="0 0 15 15" width="100%" height="30px" preserveAspectRatio="xMaxYMin meet">
 <g id="arrow_out" transform="scale(0.3 0.3)">
  <a xlink:href="std__recycling__allocators_8hpp__dep__incl_org.svg" target="_base">
   <rect id="button" ry="5" rx="5" y="6" x="6" height="38" width="38"
        fill="#f2f5e9" fill-opacity="0.5" stroke="#606060" stroke-width="1.0"/>
   <path id="arrow"
     d="M 11.500037,31.436501 C 11.940474,20.09759 22.043105,11.32322 32.158766,21.979434 L 37.068811,17.246167 C 37.068811,17.246167 37.088388,32 37.088388,32 L 22.160133,31.978069 C 22.160133,31.978069 26.997745,27.140456 26.997745,27.140456 C 18.528582,18.264221 13.291696,25.230495 11.500037,31.436501 z"
     style="fill:#404040;"/>
  </a>
 </g>
</svg>

<style type='text/css'>
<![CDATA[
[data-mouse-over-selected='false'] { opacity: 0.7; }
[data-mouse-over-selected='true']  { opacity: 1.0; }
]]>
</style>
<script type="application/ecmascript"><![CDATA[
document.addEventListener('DOMContentLoaded', (event) => {
  highlightEdges();
  highlightAdjacentNodes();
});
]]></script>
</svg>
