<?xml version="1.0" encoding="UTF-8" standalone="no"?>
<!DOCTYPE svg PUBLIC "-//W3C//DTD SVG 1.1//EN"
 "http://www.w3.org/Graphics/SVG/1.1/DTD/svg11.dtd">
<!-- Generated by graphviz version 2.43.0 (0)
 -->
<!-- Title: include/cppuddle/memory_recycling/std_recycling_allocators.hpp Pages: 1 -->
<svg width="901pt" height="184pt"
 viewBox="0.00 0.00 900.50 184.00" xmlns="http://www.w3.org/2000/svg" xmlns:xlink="http://www.w3.org/1999/xlink">
<g id="graph0" class="graph" transform="scale(1 1) rotate(0) translate(4 180)">
<title>include/cppuddle/memory_recycling/std_recycling_allocators.hpp</title>
<polygon fill="white" stroke="transparent" points="-4,4 -4,-180 896.5,-180 896.5,4 -4,4"/>
<!-- Node1 -->
<g id="node1" class="node">
<title>Node1</title>
<g id="a_node1"><a xlink:title=" ">
<polygon fill="#bfbfbf" stroke="black" points="367.5,-134.5 367.5,-175.5 510.5,-175.5 510.5,-134.5 367.5,-134.5"/>
<text text-anchor="start" x="375.5" y="-163.5" font-family="Helvetica,sans-Serif" font-size="10.00">include/cppuddle/memory</text>
<text text-anchor="start" x="375.5" y="-152.5" font-family="Helvetica,sans-Serif" font-size="10.00">_recycling/std_recycling</text>
<text text-anchor="middle" x="439" y="-141.5" font-family="Helvetica,sans-Serif" font-size="10.00">_allocators.hpp</text>
</a>
</g>
</g>
<!-- Node2 -->
<g id="node2" class="node">
<title>Node2</title>
<g id="a_node2"><a xlink:href="buffer__manager_8hpp.html" target="_top" xlink:title=" ">
<polygon fill="white" stroke="black" points="0,-73 0,-92 152,-92 152,-73 0,-73"/>
<text text-anchor="middle" x="76" y="-80" font-family="Helvetica,sans-Serif" font-size="10.00">include/buffer_manager.hpp</text>
</a>
</g>
</g>
<!-- Node1&#45;&gt;Node2 -->
<g id="edge1" class="edge">
<title>Node1&#45;&gt;Node2</title>
<path fill="none" stroke="midnightblue" d="M357.13,-138.1C283.64,-123.83 178.56,-103.42 119.9,-92.03"/>
<polygon fill="midnightblue" stroke="midnightblue" points="356.8,-141.6 367.28,-140.07 358.13,-134.73 356.8,-141.6"/>
</g>
<!-- Node4 -->
<g id="node4" class="node">
<title>Node4</title>
<g id="a_node4"><a xlink:href="allocator__hpx__test_8cpp.html" target="_top" xlink:title=" ">
<polygon fill="white" stroke="black" points="170,-67.5 170,-97.5 280,-97.5 280,-67.5 170,-67.5"/>
<text text-anchor="start" x="178" y="-85.5" font-family="Helvetica,sans-Serif" font-size="10.00">tests/allocator_hpx</text>
<text text-anchor="middle" x="225" y="-74.5" font-family="Helvetica,sans-Serif" font-size="10.00">_test.cpp</text>
</a>
</g>
</g>
<!-- Node1&#45;&gt;Node4 -->
<g id="edge3" class="edge">
<title>Node1&#45;&gt;Node4</title>
<path fill="none" stroke="midnightblue" d="M369.91,-131.24C336.31,-120.17 296.99,-107.22 267.79,-97.6"/>
<polygon fill="midnightblue" stroke="midnightblue" points="369.08,-134.65 379.67,-134.46 371.27,-128 369.08,-134.65"/>
</g>
<!-- Node5 -->
<g id="node5" class="node">
<title>Node5</title>
<g id="a_node5"><a xlink:href="allocator__kokkos__test_8cpp.html" target="_top" xlink:title=" ">
<polygon fill="white" stroke="black" points="298.5,-67.5 298.5,-97.5 423.5,-97.5 423.5,-67.5 298.5,-67.5"/>
<text text-anchor="start" x="306.5" y="-85.5" font-family="Helvetica,sans-Serif" font-size="10.00">tests/allocator_kokkos</text>
<text text-anchor="middle" x="361" y="-74.5" font-family="Helvetica,sans-Serif" font-size="10.00">_test.cpp</text>
</a>
</g>
</g>
<!-- Node1&#45;&gt;Node5 -->
<g id="edge4" class="edge">
<title>Node1&#45;&gt;Node5</title>
<path fill="none" stroke="midnightblue" d="M409.79,-127.6C398.65,-117.53 386.38,-106.44 376.92,-97.89"/>
<polygon fill="midnightblue" stroke="midnightblue" points="407.51,-130.25 417.27,-134.36 412.2,-125.06 407.51,-130.25"/>
</g>
<!-- Node6 -->
<g id="node6" class="node">
<title>Node6</title>
<g id="a_node6"><a xlink:href="allocator__kokkos__executor__for__loop__test_8cpp.html" target="_top" xlink:title=" ">
<polygon fill="white" stroke="black" points="441.5,-67.5 441.5,-97.5 594.5,-97.5 594.5,-67.5 441.5,-67.5"/>
<text text-anchor="start" x="449.5" y="-85.5" font-family="Helvetica,sans-Serif" font-size="10.00">tests/allocator_kokkos</text>
<text text-anchor="middle" x="518" y="-74.5" font-family="Helvetica,sans-Serif" font-size="10.00">_executor_for_loop_test.cpp</text>
</a>
</g>
</g>
<!-- Node1&#45;&gt;Node6 -->
<g id="edge5" class="edge">
<title>Node1&#45;&gt;Node6</title>
<path fill="none" stroke="midnightblue" d="M468.64,-127.55C480,-117.41 492.53,-106.23 502.12,-97.67"/>
<polygon fill="midnightblue" stroke="midnightblue" points="466.14,-125.09 461.01,-134.36 470.8,-130.31 466.14,-125.09"/>
</g>
<!-- Node7 -->
<g id="node7" class="node">
<title>Node7</title>
<g id="a_node7"><a xlink:href="allocator__test_8cpp.html" target="_top" xlink:title=" ">
<polygon fill="white" stroke="black" points="612.5,-73 612.5,-92 743.5,-92 743.5,-73 612.5,-73"/>
<text text-anchor="middle" x="678" y="-80" font-family="Helvetica,sans-Serif" font-size="10.00">tests/allocator_test.cpp</text>
</a>
</g>
</g>
<!-- Node1&#45;&gt;Node7 -->
<g id="edge6" class="edge">
<title>Node1&#45;&gt;Node7</title>
<path fill="none" stroke="midnightblue" d="M515.13,-131.54C560.75,-118.09 616.13,-101.75 649.14,-92.01"/>
<polygon fill="midnightblue" stroke="midnightblue" points="513.86,-128.27 505.26,-134.46 515.84,-134.98 513.86,-128.27"/>
</g>
<!-- Node8 -->
<g id="node8" class="node">
<title>Node8</title>
<g id="a_node8"><a xlink:href="work__aggregation__cpu__triad_8cpp.html" target="_top" xlink:title=" ">
<polygon fill="white" stroke="black" points="761.5,-67.5 761.5,-97.5 892.5,-97.5 892.5,-67.5 761.5,-67.5"/>
<text text-anchor="start" x="769.5" y="-85.5" font-family="Helvetica,sans-Serif" font-size="10.00">tests/work_aggregation</text>
<text text-anchor="middle" x="827" y="-74.5" font-family="Helvetica,sans-Serif" font-size="10.00">_cpu_triad.cpp</text>
</a>
</g>
</g>
<!-- Node1&#45;&gt;Node8 -->
<g id="edge7" class="edge">
<title>Node1&#45;&gt;Node8</title>
<path fill="none" stroke="midnightblue" d="M520.71,-139.82C584.13,-128.72 674.21,-112.74 753,-98 755.7,-97.49 758.46,-96.97 761.24,-96.44"/>
<polygon fill="midnightblue" stroke="midnightblue" points="520.02,-136.39 510.77,-141.56 521.22,-143.28 520.02,-136.39"/>
</g>
<!-- Node3 -->
<g id="node3" class="node">
<title>Node3</title>
<g id="a_node3"><a xlink:href="cuda__buffer__util_8hpp.html" target="_top" xlink:title=" ">
<polygon fill="white" stroke="black" points="20,-0.5 20,-30.5 132,-30.5 132,-0.5 20,-0.5"/>
<text text-anchor="start" x="28" y="-18.5" font-family="Helvetica,sans-Serif" font-size="10.00">include/cuda_buffer</text>
<text text-anchor="middle" x="76" y="-7.5" font-family="Helvetica,sans-Serif" font-size="10.00">_util.hpp</text>
</a>
</g>
</g>
<!-- Node2&#45;&gt;Node3 -->
<g id="edge2" class="edge">
<title>Node2&#45;&gt;Node3</title>
<path fill="none" stroke="midnightblue" d="M76,-62.41C76,-52.22 76,-39.9 76,-30.59"/>
<polygon fill="midnightblue" stroke="midnightblue" points="72.5,-62.73 76,-72.73 79.5,-62.73 72.5,-62.73"/>
</g>
</g>
</svg>
