<?xml version="1.0" encoding="UTF-8" standalone="no"?>
<!DOCTYPE svg PUBLIC "-//W3C//DTD SVG 1.1//EN"
 "http://www.w3.org/Graphics/SVG/1.1/DTD/svg11.dtd">
<!-- Generated by graphviz version 2.43.0 (0)
 -->
<!-- Title: include/stream_manager.hpp Pages: 1 -->
<svg width="850pt" height="274pt"
 viewBox="0.00 0.00 850.00 274.00" xmlns="http://www.w3.org/2000/svg" xmlns:xlink="http://www.w3.org/1999/xlink">
<g id="graph0" class="graph" transform="scale(1 1) rotate(0) translate(4 270)">
<title>include/stream_manager.hpp</title>
<polygon fill="white" stroke="transparent" points="-4,4 -4,-270 846,-270 846,4 -4,4"/>
<!-- Node1 -->
<g id="node1" class="node">
<title>Node1</title>
<g id="a_node1"><a xlink:title=" ">
<polygon fill="#bfbfbf" stroke="black" points="306,-246.5 306,-265.5 464,-265.5 464,-246.5 306,-246.5"/>
<text text-anchor="middle" x="385" y="-253.5" font-family="Helvetica,sans-Serif" font-size="10.00">include/stream_manager.hpp</text>
</a>
</g>
</g>
<!-- Node2 -->
<g id="node2" class="node">
<title>Node2</title>
<g id="a_node2"><a xlink:href="executor__pools__interface_8hpp.html" target="_top" xlink:title=" ">
<polygon fill="white" stroke="black" points="303.5,-179.5 303.5,-209.5 466.5,-209.5 466.5,-179.5 303.5,-179.5"/>
<text text-anchor="start" x="311.5" y="-197.5" font-family="Helvetica,sans-Serif" font-size="10.00">cppuddle/executor_recycling</text>
<text text-anchor="middle" x="385" y="-186.5" font-family="Helvetica,sans-Serif" font-size="10.00">/executor_pools_interface.hpp</text>
</a>
</g>
</g>
<!-- Node1&#45;&gt;Node2 -->
<g id="edge1" class="edge">
<title>Node1&#45;&gt;Node2</title>
<path fill="none" stroke="midnightblue" d="M385,-246.48C385,-239.47 385,-229.19 385,-219.7"/>
<polygon fill="midnightblue" stroke="midnightblue" points="388.5,-219.52 385,-209.52 381.5,-219.52 388.5,-219.52"/>
</g>
<!-- Node3 -->
<g id="node3" class="node">
<title>Node3</title>
<g id="a_node3"><a xlink:href="executor__pools__management_8hpp.html" target="_top" xlink:title=" ">
<polygon fill="white" stroke="black" points="277.5,-112.5 277.5,-142.5 492.5,-142.5 492.5,-112.5 277.5,-112.5"/>
<text text-anchor="start" x="285.5" y="-130.5" font-family="Helvetica,sans-Serif" font-size="10.00">cppuddle/executor_recycling</text>
<text text-anchor="middle" x="385" y="-119.5" font-family="Helvetica,sans-Serif" font-size="10.00">/detail/executor_pools_management.hpp</text>
</a>
</g>
</g>
<!-- Node2&#45;&gt;Node3 -->
<g id="edge2" class="edge">
<title>Node2&#45;&gt;Node3</title>
<path fill="none" stroke="midnightblue" d="M385,-179.4C385,-171.64 385,-161.81 385,-152.86"/>
<polygon fill="midnightblue" stroke="midnightblue" points="388.5,-152.58 385,-142.58 381.5,-152.58 388.5,-152.58"/>
</g>
<!-- Node4 -->
<g id="node4" class="node">
<title>Node4</title>
<g id="a_node4"><a xlink:title=" ">
<polygon fill="white" stroke="#bfbfbf" points="0,-56.5 0,-75.5 64,-75.5 64,-56.5 0,-56.5"/>
<text text-anchor="middle" x="32" y="-63.5" font-family="Helvetica,sans-Serif" font-size="10.00">algorithm</text>
</a>
</g>
</g>
<!-- Node3&#45;&gt;Node4 -->
<g id="edge3" class="edge">
<title>Node3&#45;&gt;Node4</title>
<path fill="none" stroke="midnightblue" d="M289.52,-112.45C230.17,-103.39 152.08,-90.87 74.19,-76.14"/>
<polygon fill="midnightblue" stroke="midnightblue" points="74.67,-72.67 64.19,-74.24 73.36,-79.55 74.67,-72.67"/>
</g>
<!-- Node5 -->
<g id="node5" class="node">
<title>Node5</title>
<g id="a_node5"><a xlink:title=" ">
<polygon fill="white" stroke="#bfbfbf" points="82,-56.5 82,-75.5 124,-75.5 124,-56.5 82,-56.5"/>
<text text-anchor="middle" x="103" y="-63.5" font-family="Helvetica,sans-Serif" font-size="10.00">array</text>
</a>
</g>
</g>
<!-- Node3&#45;&gt;Node5 -->
<g id="edge4" class="edge">
<title>Node3&#45;&gt;Node5</title>
<path fill="none" stroke="midnightblue" d="M305.13,-112.47C257.89,-103.71 196.73,-91.57 134.27,-76.14"/>
<polygon fill="midnightblue" stroke="midnightblue" points="134.79,-72.67 124.24,-73.64 133.09,-79.46 134.79,-72.67"/>
</g>
<!-- Node6 -->
<g id="node6" class="node">
<title>Node6</title>
<g id="a_node6"><a xlink:title=" ">
<polygon fill="white" stroke="#bfbfbf" points="142,-56.5 142,-75.5 194,-75.5 194,-56.5 142,-56.5"/>
<text text-anchor="middle" x="168" y="-63.5" font-family="Helvetica,sans-Serif" font-size="10.00">cassert</text>
</a>
</g>
</g>
<!-- Node3&#45;&gt;Node6 -->
<g id="edge5" class="edge">
<title>Node3&#45;&gt;Node6</title>
<path fill="none" stroke="midnightblue" d="M333.85,-112.47C293.93,-101.53 239.49,-86.6 204.04,-76.88"/>
<polygon fill="midnightblue" stroke="midnightblue" points="204.7,-73.43 194.13,-74.17 202.85,-80.19 204.7,-73.43"/>
</g>
<!-- Node7 -->
<g id="node7" class="node">
<title>Node7</title>
<g id="a_node7"><a xlink:title=" ">
<polygon fill="white" stroke="#bfbfbf" points="212.5,-56.5 212.5,-75.5 259.5,-75.5 259.5,-56.5 212.5,-56.5"/>
<text text-anchor="middle" x="236" y="-63.5" font-family="Helvetica,sans-Serif" font-size="10.00">deque</text>
</a>
</g>
</g>
<!-- Node3&#45;&gt;Node7 -->
<g id="edge6" class="edge">
<title>Node3&#45;&gt;Node7</title>
<path fill="none" stroke="midnightblue" d="M349.69,-112.4C324.58,-102.37 291.16,-89.03 267.06,-79.4"/>
<polygon fill="midnightblue" stroke="midnightblue" points="268.27,-76.12 257.68,-75.66 265.67,-82.62 268.27,-76.12"/>
</g>
<!-- Node8 -->
<g id="node8" class="node">
<title>Node8</title>
<g id="a_node8"><a xlink:title=" ">
<polygon fill="white" stroke="#bfbfbf" points="278,-56.5 278,-75.5 338,-75.5 338,-56.5 278,-56.5"/>
<text text-anchor="middle" x="308" y="-63.5" font-family="Helvetica,sans-Serif" font-size="10.00">iostream</text>
</a>
</g>
</g>
<!-- Node3&#45;&gt;Node8 -->
<g id="edge7" class="edge">
<title>Node3&#45;&gt;Node8</title>
<path fill="none" stroke="midnightblue" d="M366.75,-112.4C354.87,-103.22 339.39,-91.26 327.31,-81.92"/>
<polygon fill="midnightblue" stroke="midnightblue" points="329.26,-79 319.2,-75.66 324.98,-84.54 329.26,-79"/>
</g>
<!-- Node9 -->
<g id="node9" class="node">
<title>Node9</title>
<g id="a_node9"><a xlink:title=" ">
<polygon fill="white" stroke="#bfbfbf" points="356,-56.5 356,-75.5 414,-75.5 414,-56.5 356,-56.5"/>
<text text-anchor="middle" x="385" y="-63.5" font-family="Helvetica,sans-Serif" font-size="10.00">memory</text>
</a>
</g>
</g>
<!-- Node3&#45;&gt;Node9 -->
<g id="edge8" class="edge">
<title>Node3&#45;&gt;Node9</title>
<path fill="none" stroke="midnightblue" d="M385,-112.4C385,-104.47 385,-94.46 385,-85.86"/>
<polygon fill="midnightblue" stroke="midnightblue" points="388.5,-85.66 385,-75.66 381.5,-85.66 388.5,-85.66"/>
</g>
<!-- Node10 -->
<g id="node10" class="node">
<title>Node10</title>
<g id="a_node10"><a xlink:title=" ">
<polygon fill="white" stroke="#bfbfbf" points="578,-0.5 578,-19.5 626,-19.5 626,-0.5 578,-0.5"/>
<text text-anchor="middle" x="602" y="-7.5" font-family="Helvetica,sans-Serif" font-size="10.00">mutex</text>
</a>
</g>
</g>
<!-- Node3&#45;&gt;Node10 -->
<g id="edge9" class="edge">
<title>Node3&#45;&gt;Node10</title>
<path fill="none" stroke="midnightblue" d="M396.96,-112.37C411.03,-96.57 435.83,-71.2 462,-56 495.57,-36.5 538.66,-24.29 568.11,-17.59"/>
<polygon fill="midnightblue" stroke="midnightblue" points="568.9,-21 577.92,-15.44 567.41,-14.16 568.9,-21"/>
</g>
<!-- Node11 -->
<g id="node11" class="node">
<title>Node11</title>
<g id="a_node11"><a xlink:title=" ">
<polygon fill="white" stroke="#bfbfbf" points="470.5,-56.5 470.5,-75.5 517.5,-75.5 517.5,-56.5 470.5,-56.5"/>
<text text-anchor="middle" x="494" y="-63.5" font-family="Helvetica,sans-Serif" font-size="10.00">queue</text>
</a>
</g>
</g>
<!-- Node3&#45;&gt;Node11 -->
<g id="edge10" class="edge">
<title>Node3&#45;&gt;Node11</title>
<path fill="none" stroke="midnightblue" d="M410.83,-112.4C428.47,-102.77 451.7,-90.09 469.13,-80.58"/>
<polygon fill="midnightblue" stroke="midnightblue" points="471.04,-83.52 478.14,-75.66 467.69,-77.38 471.04,-83.52"/>
</g>
<!-- Node12 -->
<g id="node12" class="node">
<title>Node12</title>
<g id="a_node12"><a xlink:title=" ">
<polygon fill="white" stroke="#bfbfbf" points="535.5,-56.5 535.5,-75.5 576.5,-75.5 576.5,-56.5 535.5,-56.5"/>
<text text-anchor="middle" x="556" y="-63.5" font-family="Helvetica,sans-Serif" font-size="10.00">tuple</text>
</a>
</g>
</g>
<!-- Node3&#45;&gt;Node12 -->
<g id="edge11" class="edge">
<title>Node3&#45;&gt;Node12</title>
<path fill="none" stroke="midnightblue" d="M425.52,-112.4C456.31,-101.69 497.97,-87.19 525.86,-77.49"/>
<polygon fill="midnightblue" stroke="midnightblue" points="527.17,-80.74 535.46,-74.15 524.87,-74.13 527.17,-80.74"/>
</g>
<!-- Node13 -->
<g id="node13" class="node">
<title>Node13</title>
<g id="a_node13"><a xlink:title=" ">
<polygon fill="white" stroke="#bfbfbf" points="594.5,-56.5 594.5,-75.5 663.5,-75.5 663.5,-56.5 594.5,-56.5"/>
<text text-anchor="middle" x="629" y="-63.5" font-family="Helvetica,sans-Serif" font-size="10.00">type_traits</text>
</a>
</g>
</g>
<!-- Node3&#45;&gt;Node13 -->
<g id="edge12" class="edge">
<title>Node3&#45;&gt;Node13</title>
<path fill="none" stroke="midnightblue" d="M442.52,-112.47C485.94,-101.89 544.65,-87.57 584.51,-77.85"/>
<polygon fill="midnightblue" stroke="midnightblue" points="585.58,-81.19 594.47,-75.42 583.93,-74.39 585.58,-81.19"/>
</g>
<!-- Node14 -->
<g id="node14" class="node">
<title>Node14</title>
<g id="a_node14"><a xlink:href="config_8hpp.html" target="_top" xlink:title=" ">
<polygon fill="white" stroke="black" points="682,-56.5 682,-75.5 842,-75.5 842,-56.5 682,-56.5"/>
<text text-anchor="middle" x="762" y="-63.5" font-family="Helvetica,sans-Serif" font-size="10.00">cppuddle/common/config.hpp</text>
</a>
</g>
</g>
<!-- Node3&#45;&gt;Node14 -->
<g id="edge13" class="edge">
<title>Node3&#45;&gt;Node14</title>
<path fill="none" stroke="midnightblue" d="M473.87,-112.47C542.74,-101.6 636.52,-86.8 698.12,-77.08"/>
<polygon fill="midnightblue" stroke="midnightblue" points="698.77,-80.52 708.1,-75.51 697.68,-73.61 698.77,-80.52"/>
</g>
<!-- Node14&#45;&gt;Node10 -->
<g id="edge14" class="edge">
<title>Node14&#45;&gt;Node10</title>
<path fill="none" stroke="midnightblue" d="M736.65,-56.44C709.41,-47.25 666,-32.6 635.86,-22.43"/>
<polygon fill="midnightblue" stroke="midnightblue" points="636.78,-19.04 626.19,-19.16 634.54,-25.68 636.78,-19.04"/>
</g>
</g>
</svg>
