<?xml version="1.0" encoding="UTF-8" standalone="no"?>
<!DOCTYPE svg PUBLIC "-//W3C//DTD SVG 1.1//EN"
 "http://www.w3.org/Graphics/SVG/1.1/DTD/svg11.dtd">
<!-- Generated by graphviz version 2.43.0 (0)
 -->
<!-- Title: hpx::parallel::execution::is_one_way_executor&lt; Dummy_Executor &gt; Pages: 1 -->
<svg width="143pt" height="104pt"
 viewBox="0.00 0.00 143.00 104.00" xmlns="http://www.w3.org/2000/svg" xmlns:xlink="http://www.w3.org/1999/xlink">
<g id="graph0" class="graph" transform="scale(1 1) rotate(0) translate(4 100)">
<title>hpx::parallel::execution::is_one_way_executor&lt; Dummy_Executor &gt;</title>
<!-- Node1 -->
<g id="Node000001" class="node">
<title>Node1</title>
<g id="a_Node000001"><a xlink:title=" ">
<polygon fill="#999999" stroke="#666666" points="135,-41 0,-41 0,0 135,0 135,-41"/>
<text text-anchor="start" x="8" y="-29" font-family="Helvetica,sans-Serif" font-size="10.00">hpx::parallel::execution</text>
<text text-anchor="start" x="8" y="-18" font-family="Helvetica,sans-Serif" font-size="10.00">::is_one_way_executor&lt;</text>
<text text-anchor="middle" x="67.5" y="-7" font-family="Helvetica,sans-Serif" font-size="10.00"> Dummy_Executor &gt;</text>
</a>
</g>
</g>
<!-- Node2 -->
<g id="Node000002" class="node">
<title>Node2</title>
<g id="a_Node000002"><a xlink:title=" ">
<polygon fill="white" stroke="#666666" points="109.5,-96 25.5,-96 25.5,-77 109.5,-77 109.5,-96"/>
<text text-anchor="middle" x="67.5" y="-84" font-family="Helvetica,sans-Serif" font-size="10.00">std::true_type</text>
</a>
</g>
</g>
<!-- Node2&#45;&gt;Node1 -->
<g id="edge1_Node000001_Node000002" class="edge">
<title>Node2&#45;&gt;Node1</title>
<g id="a_edge1_Node000001_Node000002"><a xlink:title=" ">
<path fill="none" stroke="#63b8ff" d="M61.31,-66.91C60.59,-58.78 60.57,-49.24 61.23,-41.01"/>
<polygon fill="#63b8ff" stroke="#63b8ff" points="57.85,-67.46 62.71,-76.87 64.78,-66.48 57.85,-67.46"/>
</a>
</g>
</g>
<!-- Node2&#45;&gt;Node1 -->
<g id="edge2_Node000001_Node000002" class="edge">
<title>Node2&#45;&gt;Node1</title>
<g id="a_edge2_Node000001_Node000002"><a xlink:title=" ">
<path fill="none" stroke="#63b8ff" d="M73.69,-66.91C74.41,-58.78 74.43,-49.24 73.77,-41.01"/>
<polygon fill="#63b8ff" stroke="#63b8ff" points="70.22,-66.48 72.29,-76.87 77.15,-67.46 70.22,-66.48"/>
</a>
</g>
</g>
</g>
</svg>
