<?xml version="1.0" encoding="UTF-8" standalone="no"?>
<!DOCTYPE svg PUBLIC "-//W3C//DTD SVG 1.1//EN"
 "http://www.w3.org/Graphics/SVG/1.1/DTD/svg11.dtd">
<!-- Generated by graphviz version 2.43.0 (0)
 -->
<!-- Title: include/cppuddle/memory_recycling/detail/sycl_underlying_allocators.hpp Pages: 1 -->
<svg width="156pt" height="195pt"
 viewBox="0.00 0.00 156.00 195.00" xmlns="http://www.w3.org/2000/svg" xmlns:xlink="http://www.w3.org/1999/xlink">
<g id="graph0" class="graph" transform="scale(1 1) rotate(0) translate(4 191)">
<title>include/cppuddle/memory_recycling/detail/sycl_underlying_allocators.hpp</title>
<polygon fill="white" stroke="transparent" points="-4,4 -4,-191 152,-191 152,4 -4,4"/>
<!-- Node1 -->
<g id="node1" class="node">
<title>Node1</title>
<g id="a_node1"><a xlink:title=" ">
<polygon fill="#bfbfbf" stroke="black" points="0,-145.5 0,-186.5 148,-186.5 148,-145.5 0,-145.5"/>
<text text-anchor="start" x="8" y="-174.5" font-family="Helvetica,sans-Serif" font-size="10.00">include/cppuddle/memory</text>
<text text-anchor="start" x="8" y="-163.5" font-family="Helvetica,sans-Serif" font-size="10.00">_recycling/detail/sycl</text>
<text text-anchor="middle" x="74" y="-152.5" font-family="Helvetica,sans-Serif" font-size="10.00">_underlying_allocators.hpp</text>
</a>
</g>
</g>
<!-- Node2 -->
<g id="node2" class="node">
<title>Node2</title>
<g id="a_node2"><a xlink:href="sycl__recycling__allocators_8hpp.html" target="_top" xlink:title=" ">
<polygon fill="white" stroke="black" points="2.5,-67.5 2.5,-108.5 145.5,-108.5 145.5,-67.5 2.5,-67.5"/>
<text text-anchor="start" x="10.5" y="-96.5" font-family="Helvetica,sans-Serif" font-size="10.00">include/cppuddle/memory</text>
<text text-anchor="start" x="10.5" y="-85.5" font-family="Helvetica,sans-Serif" font-size="10.00">_recycling/sycl_recycling</text>
<text text-anchor="middle" x="74" y="-74.5" font-family="Helvetica,sans-Serif" font-size="10.00">_allocators.hpp</text>
</a>
</g>
</g>
<!-- Node1&#45;&gt;Node2 -->
<g id="edge1" class="edge">
<title>Node1&#45;&gt;Node2</title>
<path fill="none" stroke="midnightblue" d="M74,-135.3C74,-126.3 74,-116.65 74,-108.51"/>
<polygon fill="midnightblue" stroke="midnightblue" points="70.5,-135.43 74,-145.43 77.5,-135.43 70.5,-135.43"/>
</g>
<!-- Node3 -->
<g id="node3" class="node">
<title>Node3</title>
<g id="a_node3"><a xlink:href="sycl__buffer__util_8hpp.html" target="_top" xlink:title=" ">
<polygon fill="white" stroke="black" points="20,-0.5 20,-30.5 128,-30.5 128,-0.5 20,-0.5"/>
<text text-anchor="start" x="28" y="-18.5" font-family="Helvetica,sans-Serif" font-size="10.00">include/sycl_buffer</text>
<text text-anchor="middle" x="74" y="-7.5" font-family="Helvetica,sans-Serif" font-size="10.00">_util.hpp</text>
</a>
</g>
</g>
<!-- Node2&#45;&gt;Node3 -->
<g id="edge2" class="edge">
<title>Node2&#45;&gt;Node3</title>
<path fill="none" stroke="midnightblue" d="M74,-57.08C74,-48.01 74,-38.45 74,-30.89"/>
<polygon fill="midnightblue" stroke="midnightblue" points="70.5,-57.36 74,-67.36 77.5,-57.36 70.5,-57.36"/>
</g>
</g>
</svg>
