<?xml version="1.0" encoding="UTF-8" standalone="no"?>
<!DOCTYPE svg PUBLIC "-//W3C//DTD SVG 1.1//EN"
 "http://www.w3.org/Graphics/SVG/1.1/DTD/svg11.dtd">
<!-- Generated by graphviz version 2.43.0 (0)
 -->
<!-- Title: include/cppuddle/memory_recycling/detail/sycl_underlying_allocators.hpp Pages: 1 -->
<svg width="156pt" height="192pt"
 viewBox="0.00 0.00 156.00 192.00" xmlns="http://www.w3.org/2000/svg" xmlns:xlink="http://www.w3.org/1999/xlink">
<g id="graph0" class="graph" transform="scale(1 1) rotate(0) translate(4 188)">
<title>include/cppuddle/memory_recycling/detail/sycl_underlying_allocators.hpp</title>
<!-- Node1 -->
<g id="Node000001" class="node">
<title>Node1</title>
<g id="a_Node000001"><a xlink:title=" ">
<polygon fill="#999999" stroke="#666666" points="148,-184 0,-184 0,-143 148,-143 148,-184"/>
<text text-anchor="start" x="8" y="-172" font-family="Helvetica,sans-Serif" font-size="10.00">include/cppuddle/memory</text>
<text text-anchor="start" x="8" y="-161" font-family="Helvetica,sans-Serif" font-size="10.00">_recycling/detail/sycl</text>
<text text-anchor="middle" x="74" y="-150" font-family="Helvetica,sans-Serif" font-size="10.00">_underlying_allocators.hpp</text>
</a>
</g>
</g>
<!-- Node2 -->
<g id="Node000002" class="node">
<title>Node2</title>
<g id="a_Node000002"><a xlink:href="sycl__recycling__allocators_8hpp.html" target="_top" xlink:title=" ">
<polygon fill="white" stroke="#666666" points="145.5,-107 2.5,-107 2.5,-66 145.5,-66 145.5,-107"/>
<text text-anchor="start" x="10.5" y="-95" font-family="Helvetica,sans-Serif" font-size="10.00">include/cppuddle/memory</text>
<text text-anchor="start" x="10.5" y="-84" font-family="Helvetica,sans-Serif" font-size="10.00">_recycling/sycl_recycling</text>
<text text-anchor="middle" x="74" y="-73" font-family="Helvetica,sans-Serif" font-size="10.00">_allocators.hpp</text>
</a>
</g>
</g>
<!-- Node1&#45;&gt;Node2 -->
<g id="edge1_Node000001_Node000002" class="edge">
<title>Node1&#45;&gt;Node2</title>
<g id="a_edge1_Node000001_Node000002"><a xlink:title=" ">
<path fill="none" stroke="#63b8ff" d="M74,-132.69C74,-124.08 74,-114.9 74,-107.07"/>
<polygon fill="#63b8ff" stroke="#63b8ff" points="70.5,-132.79 74,-142.79 77.5,-132.79 70.5,-132.79"/>
</a>
</g>
</g>
<!-- Node3 -->
<g id="Node000003" class="node">
<title>Node3</title>
<g id="a_Node000003"><a xlink:href="sycl__buffer__util_8hpp.html" target="_top" xlink:title=" ">
<polygon fill="white" stroke="#666666" points="128,-30 20,-30 20,0 128,0 128,-30"/>
<text text-anchor="start" x="28" y="-18" font-family="Helvetica,sans-Serif" font-size="10.00">include/sycl_buffer</text>
<text text-anchor="middle" x="74" y="-7" font-family="Helvetica,sans-Serif" font-size="10.00">_util.hpp</text>
</a>
</g>
</g>
<!-- Node2&#45;&gt;Node3 -->
<g id="edge2_Node000002_Node000003" class="edge">
<title>Node2&#45;&gt;Node3</title>
<g id="a_edge2_Node000002_Node000003"><a xlink:title=" ">
<path fill="none" stroke="#63b8ff" d="M74,-55.66C74,-46.76 74,-37.42 74,-30.04"/>
<polygon fill="#63b8ff" stroke="#63b8ff" points="70.5,-55.77 74,-65.77 77.5,-55.77 70.5,-55.77"/>
</a>
</g>
</g>
</g>
</svg>
