<?xml version="1.0" encoding="UTF-8" standalone="no"?>
<!DOCTYPE svg PUBLIC "-//W3C//DTD SVG 1.1//EN"
 "http://www.w3.org/Graphics/SVG/1.1/DTD/svg11.dtd">
<!-- Generated by graphviz version 2.43.0 (0)
 -->
<!-- Title: tests/work_aggregation_cuda_triad.cpp Pages: 1 -->
<svg width="2643pt" height="519pt"
 viewBox="0.00 0.00 2643.00 519.00" xmlns="http://www.w3.org/2000/svg" xmlns:xlink="http://www.w3.org/1999/xlink">
<g id="graph0" class="graph" transform="scale(1 1) rotate(0) translate(4 515)">
<title>tests/work_aggregation_cuda_triad.cpp</title>
<polygon fill="white" stroke="transparent" points="-4,4 -4,-515 2639,-515 2639,4 -4,4"/>
<!-- Node1 -->
<g id="node1" class="node">
<title>Node1</title>
<g id="a_node1"><a xlink:title=" ">
<polygon fill="#bfbfbf" stroke="black" points="2138.5,-480.5 2138.5,-510.5 2269.5,-510.5 2269.5,-480.5 2138.5,-480.5"/>
<text text-anchor="start" x="2146.5" y="-498.5" font-family="Helvetica,sans-Serif" font-size="10.00">tests/work_aggregation</text>
<text text-anchor="middle" x="2204" y="-487.5" font-family="Helvetica,sans-Serif" font-size="10.00">_cuda_triad.cpp</text>
</a>
</g>
</g>
<!-- Node2 -->
<g id="node2" class="node">
<title>Node2</title>
<g id="a_node2"><a xlink:title=" ">
<polygon fill="white" stroke="#bfbfbf" points="0,-185 0,-204 50,-204 50,-185 0,-185"/>
<text text-anchor="middle" x="25" y="-192" font-family="Helvetica,sans-Serif" font-size="10.00">chrono</text>
</a>
</g>
</g>
<!-- Node1&#45;&gt;Node2 -->
<g id="edge1" class="edge">
<title>Node1&#45;&gt;Node2</title>
<path fill="none" stroke="midnightblue" d="M2138.29,-494.48C1979.63,-493.69 1563.24,-487.3 1219,-444 697.17,-378.36 561.28,-365.97 59,-210 56.86,-209.34 54.67,-208.58 52.48,-207.78"/>
<polygon fill="midnightblue" stroke="midnightblue" points="53.68,-204.49 43.09,-204.03 51.08,-210.99 53.68,-204.49"/>
</g>
<!-- Node3 -->
<g id="node3" class="node">
<title>Node3</title>
<g id="a_node3"><a xlink:title=" ">
<polygon fill="white" stroke="#bfbfbf" points="2299.5,-185 2299.5,-204 2424.5,-204 2424.5,-185 2299.5,-185"/>
<text text-anchor="middle" x="2362" y="-192" font-family="Helvetica,sans-Serif" font-size="10.00">hpx/futures/future.hpp</text>
</a>
</g>
</g>
<!-- Node1&#45;&gt;Node3 -->
<g id="edge2" class="edge">
<title>Node1&#45;&gt;Node3</title>
<path fill="none" stroke="midnightblue" d="M2211.41,-480.48C2237.32,-431.45 2323.83,-267.73 2352.6,-213.28"/>
<polygon fill="midnightblue" stroke="midnightblue" points="2355.84,-214.65 2357.42,-204.17 2349.65,-211.38 2355.84,-214.65"/>
</g>
<!-- Node4 -->
<g id="node4" class="node">
<title>Node4</title>
<g id="a_node4"><a xlink:title=" ">
<polygon fill="white" stroke="#bfbfbf" points="2270.5,-408 2270.5,-438 2391.5,-438 2391.5,-408 2270.5,-408"/>
<text text-anchor="start" x="2278.5" y="-426" font-family="Helvetica,sans-Serif" font-size="10.00">hpx/async_cuda/cuda</text>
<text text-anchor="middle" x="2331" y="-415" font-family="Helvetica,sans-Serif" font-size="10.00">_executor.hpp</text>
</a>
</g>
</g>
<!-- Node1&#45;&gt;Node4 -->
<g id="edge3" class="edge">
<title>Node1&#45;&gt;Node4</title>
<path fill="none" stroke="midnightblue" d="M2229.4,-480.4C2248.69,-469.69 2275.43,-454.85 2296.64,-443.07"/>
<polygon fill="midnightblue" stroke="midnightblue" points="2298.6,-445.99 2305.65,-438.07 2295.21,-439.87 2298.6,-445.99"/>
</g>
<!-- Node5 -->
<g id="node5" class="node">
<title>Node5</title>
<g id="a_node5"><a xlink:title=" ">
<polygon fill="white" stroke="#bfbfbf" points="2410,-413.5 2410,-432.5 2560,-432.5 2560,-413.5 2410,-413.5"/>
<text text-anchor="middle" x="2485" y="-420.5" font-family="Helvetica,sans-Serif" font-size="10.00">boost/program_options.hpp</text>
</a>
</g>
</g>
<!-- Node1&#45;&gt;Node5 -->
<g id="edge4" class="edge">
<title>Node1&#45;&gt;Node5</title>
<path fill="none" stroke="midnightblue" d="M2259.85,-480.49C2313.05,-467.14 2392.05,-447.32 2440.95,-435.05"/>
<polygon fill="midnightblue" stroke="midnightblue" points="2442.05,-438.38 2450.9,-432.55 2440.35,-431.59 2442.05,-438.38"/>
</g>
<!-- Node6 -->
<g id="node6" class="node">
<title>Node6</title>
<g id="a_node6"><a xlink:href="cuda__recycling__allocators_8hpp.html" target="_top" xlink:title=" ">
<polygon fill="white" stroke="black" points="2043.5,-330 2043.5,-360 2210.5,-360 2210.5,-330 2043.5,-330"/>
<text text-anchor="start" x="2051.5" y="-348" font-family="Helvetica,sans-Serif" font-size="10.00">cppuddle/memory_recycling</text>
<text text-anchor="middle" x="2127" y="-337" font-family="Helvetica,sans-Serif" font-size="10.00">/cuda_recycling_allocators.hpp</text>
</a>
</g>
</g>
<!-- Node1&#45;&gt;Node6 -->
<g id="edge5" class="edge">
<title>Node1&#45;&gt;Node6</title>
<path fill="none" stroke="midnightblue" d="M2203.67,-480.45C2202.67,-461.52 2198.9,-427.28 2185,-402 2177.56,-388.48 2165.78,-376.22 2154.77,-366.64"/>
<polygon fill="midnightblue" stroke="midnightblue" points="2156.89,-363.85 2146.96,-360.16 2152.42,-369.24 2156.89,-363.85"/>
</g>
<!-- Node24 -->
<g id="node24" class="node">
<title>Node24</title>
<g id="a_node24"><a xlink:href="cuda__recycling__device__buffer_8hpp.html" target="_top" xlink:title="Contains a RAII wrappers for CUDA device buffers. Intended to be used with the recycling allocators b...">
<polygon fill="white" stroke="black" points="2020.5,-402.5 2020.5,-443.5 2175.5,-443.5 2175.5,-402.5 2020.5,-402.5"/>
<text text-anchor="start" x="2028.5" y="-431.5" font-family="Helvetica,sans-Serif" font-size="10.00">cppuddle/memory_recycling</text>
<text text-anchor="start" x="2028.5" y="-420.5" font-family="Helvetica,sans-Serif" font-size="10.00">/util/cuda_recycling_device</text>
<text text-anchor="middle" x="2098" y="-409.5" font-family="Helvetica,sans-Serif" font-size="10.00">_buffer.hpp</text>
</a>
</g>
</g>
<!-- Node1&#45;&gt;Node24 -->
<g id="edge25" class="edge">
<title>Node1&#45;&gt;Node24</title>
<path fill="none" stroke="midnightblue" d="M2182.8,-480.4C2169.45,-471.52 2151.82,-459.79 2136.09,-449.33"/>
<polygon fill="midnightblue" stroke="midnightblue" points="2137.85,-446.3 2127.59,-443.68 2133.98,-452.13 2137.85,-446.3"/>
</g>
<!-- Node25 -->
<g id="node25" class="node">
<title>Node25</title>
<g id="a_node25"><a xlink:href="kernel__aggregation__interface_8hpp.html" target="_top" xlink:title=" ">
<polygon fill="white" stroke="black" points="1228.5,-408 1228.5,-438 1411.5,-438 1411.5,-408 1228.5,-408"/>
<text text-anchor="start" x="1236.5" y="-426" font-family="Helvetica,sans-Serif" font-size="10.00">cppuddle/kernel_aggregation</text>
<text text-anchor="middle" x="1320" y="-415" font-family="Helvetica,sans-Serif" font-size="10.00">/kernel_aggregation_interface.hpp</text>
</a>
</g>
</g>
<!-- Node1&#45;&gt;Node25 -->
<g id="edge27" class="edge">
<title>Node1&#45;&gt;Node25</title>
<path fill="none" stroke="midnightblue" d="M2138.28,-489.26C1985.42,-477.07 1605.1,-446.74 1421.87,-432.12"/>
<polygon fill="midnightblue" stroke="midnightblue" points="1421.94,-428.62 1411.69,-431.31 1421.38,-435.6 1421.94,-428.62"/>
</g>
<!-- Node7 -->
<g id="node7" class="node">
<title>Node7</title>
<g id="a_node7"><a xlink:href="buffer__management__interface_8hpp.html" target="_top" xlink:title=" ">
<polygon fill="white" stroke="black" points="2029.5,-257.5 2029.5,-276.5 2214.5,-276.5 2214.5,-257.5 2029.5,-257.5"/>
<text text-anchor="middle" x="2122" y="-264.5" font-family="Helvetica,sans-Serif" font-size="10.00">buffer_management_interface.hpp</text>
</a>
</g>
</g>
<!-- Node6&#45;&gt;Node7 -->
<g id="edge6" class="edge">
<title>Node6&#45;&gt;Node7</title>
<path fill="none" stroke="midnightblue" d="M2126.06,-329.7C2125.26,-317.6 2124.12,-300.15 2123.24,-286.89"/>
<polygon fill="midnightblue" stroke="midnightblue" points="2126.71,-286.31 2122.56,-276.56 2119.73,-286.77 2126.71,-286.31"/>
</g>
<!-- Node21 -->
<g id="node21" class="node">
<title>Node21</title>
<g id="a_node21"><a xlink:href="cuda__underlying__allocators_8hpp.html" target="_top" xlink:title=" ">
<polygon fill="white" stroke="black" points="2426,-252 2426,-282 2554,-282 2554,-252 2426,-252"/>
<text text-anchor="start" x="2434" y="-270" font-family="Helvetica,sans-Serif" font-size="10.00">detail/cuda_underlying</text>
<text text-anchor="middle" x="2490" y="-259" font-family="Helvetica,sans-Serif" font-size="10.00">_allocators.hpp</text>
</a>
</g>
</g>
<!-- Node6&#45;&gt;Node21 -->
<g id="edge21" class="edge">
<title>Node6&#45;&gt;Node21</title>
<path fill="none" stroke="midnightblue" d="M2194,-329.97C2256.94,-316.79 2350.92,-297.12 2416.03,-283.49"/>
<polygon fill="midnightblue" stroke="midnightblue" points="2416.75,-286.91 2425.83,-281.44 2415.32,-280.06 2416.75,-286.91"/>
</g>
<!-- Node8 -->
<g id="node8" class="node">
<title>Node8</title>
<g id="a_node8"><a xlink:href="buffer__management_8hpp.html" target="_top" xlink:title=" ">
<polygon fill="white" stroke="black" points="2038.5,-185 2038.5,-204 2205.5,-204 2205.5,-185 2038.5,-185"/>
<text text-anchor="middle" x="2122" y="-192" font-family="Helvetica,sans-Serif" font-size="10.00">detail/buffer_management.hpp</text>
</a>
</g>
</g>
<!-- Node7&#45;&gt;Node8 -->
<g id="edge7" class="edge">
<title>Node7&#45;&gt;Node8</title>
<path fill="none" stroke="midnightblue" d="M2122,-257.36C2122,-246.68 2122,-228.22 2122,-214.23"/>
<polygon fill="midnightblue" stroke="midnightblue" points="2125.5,-214.22 2122,-204.22 2118.5,-214.22 2125.5,-214.22"/>
</g>
<!-- Node9 -->
<g id="node9" class="node">
<title>Node9</title>
<g id="a_node9"><a xlink:title=" ">
<polygon fill="white" stroke="#bfbfbf" points="1648,-118 1648,-137 1698,-137 1698,-118 1648,-118"/>
<text text-anchor="middle" x="1673" y="-125" font-family="Helvetica,sans-Serif" font-size="10.00">atomic</text>
</a>
</g>
</g>
<!-- Node8&#45;&gt;Node9 -->
<g id="edge8" class="edge">
<title>Node8&#45;&gt;Node9</title>
<path fill="none" stroke="midnightblue" d="M2068.42,-184.96C2055.52,-182.95 2041.77,-180.86 2029,-179 1910.94,-161.81 1881.01,-160.49 1763,-143 1745.02,-140.34 1725.06,-137.14 1708.51,-134.43"/>
<polygon fill="midnightblue" stroke="midnightblue" points="1708.63,-130.9 1698.19,-132.73 1707.49,-137.81 1708.63,-130.9"/>
</g>
<!-- Node10 -->
<g id="node10" class="node">
<title>Node10</title>
<g id="a_node10"><a xlink:title=" ">
<polygon fill="white" stroke="#bfbfbf" points="1669,-56.5 1669,-75.5 1721,-75.5 1721,-56.5 1669,-56.5"/>
<text text-anchor="middle" x="1695" y="-63.5" font-family="Helvetica,sans-Serif" font-size="10.00">cassert</text>
</a>
</g>
</g>
<!-- Node8&#45;&gt;Node10 -->
<g id="edge9" class="edge">
<title>Node8&#45;&gt;Node10</title>
<path fill="none" stroke="midnightblue" d="M2095.58,-184.98C2066.35,-175.39 2017.95,-159.04 1977,-143 1944.94,-130.44 1938.78,-122.53 1906,-112 1846,-92.72 1773.73,-79.35 1731.24,-72.44"/>
<polygon fill="midnightblue" stroke="midnightblue" points="1731.52,-68.94 1721.1,-70.83 1730.42,-75.86 1731.52,-68.94"/>
</g>
<!-- Node11 -->
<g id="node11" class="node">
<title>Node11</title>
<g id="a_node11"><a xlink:title=" ">
<polygon fill="white" stroke="#bfbfbf" points="2005.5,-118 2005.5,-137 2070.5,-137 2070.5,-118 2005.5,-118"/>
<text text-anchor="middle" x="2038" y="-125" font-family="Helvetica,sans-Serif" font-size="10.00">functional</text>
</a>
</g>
</g>
<!-- Node8&#45;&gt;Node11 -->
<g id="edge10" class="edge">
<title>Node8&#45;&gt;Node11</title>
<path fill="none" stroke="midnightblue" d="M2110.67,-184.73C2096.94,-174.11 2073.6,-156.05 2057.08,-143.26"/>
<polygon fill="midnightblue" stroke="midnightblue" points="2059.2,-140.48 2049.15,-137.13 2054.92,-146.02 2059.2,-140.48"/>
</g>
<!-- Node12 -->
<g id="node12" class="node">
<title>Node12</title>
<g id="a_node12"><a xlink:title=" ">
<polygon fill="white" stroke="#bfbfbf" points="1312,-56.5 1312,-75.5 1372,-75.5 1372,-56.5 1312,-56.5"/>
<text text-anchor="middle" x="1342" y="-63.5" font-family="Helvetica,sans-Serif" font-size="10.00">iostream</text>
</a>
</g>
</g>
<!-- Node8&#45;&gt;Node12 -->
<g id="edge11" class="edge">
<title>Node8&#45;&gt;Node12</title>
<path fill="none" stroke="midnightblue" d="M2067.64,-184.96C2001.43,-174.25 1893.64,-155.76 1855,-143 1824.99,-133.09 1821.47,-120.41 1791,-112 1617.86,-64.21 1563.62,-103.17 1382.29,-75.96"/>
<polygon fill="midnightblue" stroke="midnightblue" points="1382.57,-72.47 1372.15,-74.39 1381.5,-79.38 1382.57,-72.47"/>
</g>
<!-- Node13 -->
<g id="node13" class="node">
<title>Node13</title>
<g id="a_node13"><a xlink:title=" ">
<polygon fill="white" stroke="#bfbfbf" points="2089,-118 2089,-137 2121,-137 2121,-118 2089,-118"/>
<text text-anchor="middle" x="2105" y="-125" font-family="Helvetica,sans-Serif" font-size="10.00">list</text>
</a>
</g>
</g>
<!-- Node8&#45;&gt;Node13 -->
<g id="edge12" class="edge">
<title>Node8&#45;&gt;Node13</title>
<path fill="none" stroke="midnightblue" d="M2119.71,-184.73C2117.18,-175.09 2113.06,-159.3 2109.81,-146.91"/>
<polygon fill="midnightblue" stroke="midnightblue" points="2113.17,-145.92 2107.26,-137.13 2106.4,-147.69 2113.17,-145.92"/>
</g>
<!-- Node14 -->
<g id="node14" class="node">
<title>Node14</title>
<g id="a_node14"><a xlink:title=" ">
<polygon fill="white" stroke="#bfbfbf" points="1390,-56.5 1390,-75.5 1448,-75.5 1448,-56.5 1390,-56.5"/>
<text text-anchor="middle" x="1419" y="-63.5" font-family="Helvetica,sans-Serif" font-size="10.00">memory</text>
</a>
</g>
</g>
<!-- Node8&#45;&gt;Node14 -->
<g id="edge13" class="edge">
<title>Node8&#45;&gt;Node14</title>
<path fill="none" stroke="midnightblue" d="M2063.16,-184.92C2018.83,-177.24 1957.16,-163.9 1906,-143 1881.45,-132.97 1880.14,-120.46 1855,-112 1781.91,-87.41 1551.24,-73.55 1458.34,-68.84"/>
<polygon fill="midnightblue" stroke="midnightblue" points="1458.39,-65.34 1448.23,-68.34 1458.04,-72.33 1458.39,-65.34"/>
</g>
<!-- Node15 -->
<g id="node15" class="node">
<title>Node15</title>
<g id="a_node15"><a xlink:title=" ">
<polygon fill="white" stroke="#bfbfbf" points="1136,-0.5 1136,-19.5 1184,-19.5 1184,-0.5 1136,-0.5"/>
<text text-anchor="middle" x="1160" y="-7.5" font-family="Helvetica,sans-Serif" font-size="10.00">mutex</text>
</a>
</g>
</g>
<!-- Node8&#45;&gt;Node15 -->
<g id="edge14" class="edge">
<title>Node8&#45;&gt;Node15</title>
<path fill="none" stroke="midnightblue" d="M2126.02,-184.89C2132.73,-169.14 2144.15,-135.18 2130,-112 2101.62,-65.51 2073.59,-70.18 2021,-56 1861.13,-12.89 1334.54,-10.68 1194.48,-10.88"/>
<polygon fill="midnightblue" stroke="midnightblue" points="1194.32,-7.38 1184.33,-10.9 1194.34,-14.38 1194.32,-7.38"/>
</g>
<!-- Node16 -->
<g id="node16" class="node">
<title>Node16</title>
<g id="a_node16"><a xlink:title=" ">
<polygon fill="white" stroke="#bfbfbf" points="1472,-118 1472,-137 1528,-137 1528,-118 1472,-118"/>
<text text-anchor="middle" x="1500" y="-125" font-family="Helvetica,sans-Serif" font-size="10.00">optional</text>
</a>
</g>
</g>
<!-- Node8&#45;&gt;Node16 -->
<g id="edge15" class="edge">
<title>Node8&#45;&gt;Node16</title>
<path fill="none" stroke="midnightblue" d="M2070.92,-184.95C2057.32,-182.83 2042.62,-180.69 2029,-179 1856.25,-157.58 1812.24,-160.03 1639,-143 1604.96,-139.65 1566.25,-135.59 1538.34,-132.62"/>
<polygon fill="midnightblue" stroke="midnightblue" points="1538.52,-129.12 1528.21,-131.54 1537.78,-136.08 1538.52,-129.12"/>
</g>
<!-- Node17 -->
<g id="node17" class="node">
<title>Node17</title>
<g id="a_node17"><a xlink:title=" ">
<polygon fill="white" stroke="#bfbfbf" points="2177.5,-118 2177.5,-137 2242.5,-137 2242.5,-118 2177.5,-118"/>
<text text-anchor="middle" x="2210" y="-125" font-family="Helvetica,sans-Serif" font-size="10.00">stdexcept</text>
</a>
</g>
</g>
<!-- Node8&#45;&gt;Node17 -->
<g id="edge16" class="edge">
<title>Node8&#45;&gt;Node17</title>
<path fill="none" stroke="midnightblue" d="M2133.87,-184.73C2148.25,-174.11 2172.7,-156.05 2190.01,-143.26"/>
<polygon fill="midnightblue" stroke="midnightblue" points="2192.36,-145.88 2198.32,-137.13 2188.2,-140.25 2192.36,-145.88"/>
</g>
<!-- Node18 -->
<g id="node18" class="node">
<title>Node18</title>
<g id="a_node18"><a xlink:title=" ">
<polygon fill="white" stroke="#bfbfbf" points="1942.5,-56.5 1942.5,-75.5 2011.5,-75.5 2011.5,-56.5 1942.5,-56.5"/>
<text text-anchor="middle" x="1977" y="-63.5" font-family="Helvetica,sans-Serif" font-size="10.00">type_traits</text>
</a>
</g>
</g>
<!-- Node8&#45;&gt;Node18 -->
<g id="edge17" class="edge">
<title>Node8&#45;&gt;Node18</title>
<path fill="none" stroke="midnightblue" d="M2073.73,-184.95C2047.56,-177.91 2016.65,-165.31 1997,-143 1983.08,-127.19 1978.67,-102.81 1977.37,-85.95"/>
<polygon fill="midnightblue" stroke="midnightblue" points="1980.85,-85.49 1976.89,-75.67 1973.86,-85.82 1980.85,-85.49"/>
</g>
<!-- Node19 -->
<g id="node19" class="node">
<title>Node19</title>
<g id="a_node19"><a xlink:title=" ">
<polygon fill="white" stroke="#bfbfbf" points="1156.5,-118 1156.5,-137 1249.5,-137 1249.5,-118 1156.5,-118"/>
<text text-anchor="middle" x="1203" y="-125" font-family="Helvetica,sans-Serif" font-size="10.00">unordered_map</text>
</a>
</g>
</g>
<!-- Node8&#45;&gt;Node19 -->
<g id="edge18" class="edge">
<title>Node8&#45;&gt;Node19</title>
<path fill="none" stroke="midnightblue" d="M2072.88,-184.96C2058.75,-182.75 2043.3,-180.55 2029,-179 1953.11,-170.78 1433.91,-141.4 1259.79,-131.66"/>
<polygon fill="midnightblue" stroke="midnightblue" points="1259.74,-128.15 1249.56,-131.09 1259.35,-135.14 1259.74,-128.15"/>
</g>
<!-- Node20 -->
<g id="node20" class="node">
<title>Node20</title>
<g id="a_node20"><a xlink:href="config_8hpp.html" target="_top" xlink:title=" ">
<polygon fill="white" stroke="black" points="1134,-56.5 1134,-75.5 1294,-75.5 1294,-56.5 1134,-56.5"/>
<text text-anchor="middle" x="1214" y="-63.5" font-family="Helvetica,sans-Serif" font-size="10.00">cppuddle/common/config.hpp</text>
</a>
</g>
</g>
<!-- Node8&#45;&gt;Node20 -->
<g id="edge19" class="edge">
<title>Node8&#45;&gt;Node20</title>
<path fill="none" stroke="midnightblue" d="M2067.42,-184.95C2054.81,-182.98 2041.44,-180.91 2029,-179 1923.26,-162.76 1894.61,-169.66 1791,-143 1752.46,-133.08 1745.82,-120.73 1707,-112 1534.3,-73.16 1484.26,-92.34 1304.13,-76.07"/>
<polygon fill="midnightblue" stroke="midnightblue" points="1304.33,-72.58 1294.05,-75.14 1303.68,-79.55 1304.33,-72.58"/>
</g>
<!-- Node20&#45;&gt;Node15 -->
<g id="edge20" class="edge">
<title>Node20&#45;&gt;Node15</title>
<path fill="none" stroke="midnightblue" d="M1205.08,-56.08C1197.22,-48.22 1185.57,-36.57 1176.08,-27.08"/>
<polygon fill="midnightblue" stroke="midnightblue" points="1178.3,-24.35 1168.75,-19.75 1173.35,-29.3 1178.3,-24.35"/>
</g>
<!-- Node21&#45;&gt;Node17 -->
<g id="edge23" class="edge">
<title>Node21&#45;&gt;Node17</title>
<path fill="none" stroke="midnightblue" d="M2496.41,-251.8C2503.87,-232.88 2513.13,-199.41 2496,-179 2465.46,-142.6 2324.86,-132.42 2252.82,-129.59"/>
<polygon fill="midnightblue" stroke="midnightblue" points="2252.83,-126.09 2242.71,-129.22 2252.57,-133.08 2252.83,-126.09"/>
</g>
<!-- Node22 -->
<g id="node22" class="node">
<title>Node22</title>
<g id="a_node22"><a xlink:title=" ">
<polygon fill="white" stroke="#bfbfbf" points="2543,-185 2543,-204 2635,-204 2635,-185 2543,-185"/>
<text text-anchor="middle" x="2589" y="-192" font-family="Helvetica,sans-Serif" font-size="10.00">cuda_runtime.h</text>
</a>
</g>
</g>
<!-- Node21&#45;&gt;Node22 -->
<g id="edge22" class="edge">
<title>Node21&#45;&gt;Node22</title>
<path fill="none" stroke="midnightblue" d="M2510.03,-251.73C2527.07,-239.6 2551.42,-222.26 2568.56,-210.05"/>
<polygon fill="midnightblue" stroke="midnightblue" points="2570.68,-212.84 2576.8,-204.19 2566.62,-207.14 2570.68,-212.84"/>
</g>
<!-- Node23 -->
<g id="node23" class="node">
<title>Node23</title>
<g id="a_node23"><a xlink:title=" ">
<polygon fill="white" stroke="#bfbfbf" points="2443,-185 2443,-204 2487,-204 2487,-185 2443,-185"/>
<text text-anchor="middle" x="2465" y="-192" font-family="Helvetica,sans-Serif" font-size="10.00">string</text>
</a>
</g>
</g>
<!-- Node21&#45;&gt;Node23 -->
<g id="edge24" class="edge">
<title>Node21&#45;&gt;Node23</title>
<path fill="none" stroke="midnightblue" d="M2484.94,-251.73C2481.1,-240.89 2475.77,-225.88 2471.59,-214.1"/>
<polygon fill="midnightblue" stroke="midnightblue" points="2474.79,-212.65 2468.15,-204.39 2468.2,-214.99 2474.79,-212.65"/>
</g>
<!-- Node24&#45;&gt;Node6 -->
<g id="edge26" class="edge">
<title>Node24&#45;&gt;Node6</title>
<path fill="none" stroke="midnightblue" d="M2105.47,-402.43C2109.28,-392.43 2113.96,-380.18 2117.97,-369.66"/>
<polygon fill="midnightblue" stroke="midnightblue" points="2121.28,-370.82 2121.57,-360.23 2114.74,-368.32 2121.28,-370.82"/>
</g>
<!-- Node26 -->
<g id="node26" class="node">
<title>Node26</title>
<g id="a_node26"><a xlink:href="aggregation__executors__and__allocators_8hpp.html" target="_top" xlink:title=" ">
<polygon fill="white" stroke="black" points="1132.5,-246.5 1132.5,-287.5 1293.5,-287.5 1293.5,-246.5 1132.5,-246.5"/>
<text text-anchor="start" x="1140.5" y="-275.5" font-family="Helvetica,sans-Serif" font-size="10.00">cppuddle/kernel_aggregation</text>
<text text-anchor="start" x="1140.5" y="-264.5" font-family="Helvetica,sans-Serif" font-size="10.00">/detail/aggregation_executors</text>
<text text-anchor="middle" x="1213" y="-253.5" font-family="Helvetica,sans-Serif" font-size="10.00">_and_allocators.hpp</text>
</a>
</g>
</g>
<!-- Node25&#45;&gt;Node26 -->
<g id="edge28" class="edge">
<title>Node25&#45;&gt;Node26</title>
<path fill="none" stroke="midnightblue" d="M1284.9,-407.93C1266.36,-398.72 1244.84,-384.86 1232,-366 1218.38,-345.99 1213.96,-318.65 1212.77,-297.93"/>
<polygon fill="midnightblue" stroke="midnightblue" points="1216.26,-297.64 1212.4,-287.77 1209.26,-297.89 1216.26,-297.64"/>
</g>
<!-- Node48 -->
<g id="node48" class="node">
<title>Node48</title>
<g id="a_node48"><a xlink:href="aggregation__executor__pools_8hpp.html" target="_top" xlink:title=" ">
<polygon fill="white" stroke="black" points="1241,-324.5 1241,-365.5 1399,-365.5 1399,-324.5 1241,-324.5"/>
<text text-anchor="start" x="1249" y="-353.5" font-family="Helvetica,sans-Serif" font-size="10.00">cppuddle/kernel_aggregation</text>
<text text-anchor="start" x="1249" y="-342.5" font-family="Helvetica,sans-Serif" font-size="10.00">/detail/aggregation_executor</text>
<text text-anchor="middle" x="1320" y="-331.5" font-family="Helvetica,sans-Serif" font-size="10.00">_pools.hpp</text>
</a>
</g>
</g>
<!-- Node25&#45;&gt;Node48 -->
<g id="edge70" class="edge">
<title>Node25&#45;&gt;Node48</title>
<path fill="none" stroke="midnightblue" d="M1320,-407.7C1320,-398.71 1320,-386.77 1320,-375.79"/>
<polygon fill="midnightblue" stroke="midnightblue" points="1323.5,-375.68 1320,-365.68 1316.5,-375.68 1323.5,-375.68"/>
</g>
<!-- Node26&#45;&gt;Node2 -->
<g id="edge33" class="edge">
<title>Node26&#45;&gt;Node2</title>
<path fill="none" stroke="midnightblue" d="M1132.5,-263.74C887.73,-256.64 162.73,-233.83 59,-210 56.48,-209.42 53.92,-208.67 51.38,-207.81"/>
<polygon fill="midnightblue" stroke="midnightblue" points="52.49,-204.48 41.9,-204.1 49.94,-211 52.49,-204.48"/>
</g>
<!-- Node26&#45;&gt;Node3 -->
<g id="edge46" class="edge">
<title>Node26&#45;&gt;Node3</title>
<path fill="none" stroke="midnightblue" d="M1293.67,-265.47C1472.69,-263.48 1916.53,-254.12 2285,-210 2293.83,-208.94 2303.18,-207.48 2312.19,-205.89"/>
<polygon fill="midnightblue" stroke="midnightblue" points="2312.99,-209.3 2322.19,-204.05 2311.72,-202.41 2312.99,-209.3"/>
</g>
<!-- Node26&#45;&gt;Node8 -->
<g id="edge56" class="edge">
<title>Node26&#45;&gt;Node8</title>
<path fill="none" stroke="midnightblue" d="M1293.7,-262.77C1440.42,-256.38 1760.53,-240.09 2029,-210 2039.82,-208.79 2051.3,-207.22 2062.37,-205.58"/>
<polygon fill="midnightblue" stroke="midnightblue" points="2063.04,-209.01 2072.39,-204.04 2061.98,-202.1 2063.04,-209.01"/>
</g>
<!-- Node26&#45;&gt;Node9 -->
<g id="edge32" class="edge">
<title>Node26&#45;&gt;Node9</title>
<path fill="none" stroke="midnightblue" d="M1203.77,-246.46C1196.06,-226.9 1188.68,-197.17 1205,-179 1205.45,-178.49 1528.86,-143.9 1637.72,-132.27"/>
<polygon fill="midnightblue" stroke="midnightblue" points="1638.29,-135.73 1647.87,-131.18 1637.55,-128.77 1638.29,-135.73"/>
</g>
<!-- Node26&#45;&gt;Node12 -->
<g id="edge35" class="edge">
<title>Node26&#45;&gt;Node12</title>
<path fill="none" stroke="midnightblue" d="M1132.45,-256.09C1104.16,-248.3 1075.18,-234.47 1058,-210 1050.08,-198.72 1053.54,-192.03 1058,-179 1070.21,-143.34 1077.82,-131.62 1110,-112 1181.81,-68.21 1215.14,-91.94 1301.82,-76.06"/>
<polygon fill="midnightblue" stroke="midnightblue" points="1302.66,-79.46 1311.79,-74.1 1301.31,-72.6 1302.66,-79.46"/>
</g>
<!-- Node26&#45;&gt;Node14 -->
<g id="edge36" class="edge">
<title>Node26&#45;&gt;Node14</title>
<path fill="none" stroke="midnightblue" d="M1164.58,-246.26C1149.46,-237.52 1134.52,-225.61 1126,-210 1111.34,-183.12 1145.91,-112.94 1147,-112 1184.8,-79.52 1314.62,-85.31 1379.4,-75.93"/>
<polygon fill="midnightblue" stroke="midnightblue" points="1380.31,-79.32 1389.59,-74.21 1379.15,-72.42 1380.31,-79.32"/>
</g>
<!-- Node26&#45;&gt;Node15 -->
<g id="edge37" class="edge">
<title>Node26&#45;&gt;Node15</title>
<path fill="none" stroke="midnightblue" d="M1132.45,-266.96C1019.72,-266.49 823.17,-258.49 774,-210 731.17,-167.76 759.23,-136 755,-76 754.37,-67.13 749.07,-62.62 755,-56 779.59,-28.53 1032.69,-15.96 1125.84,-12.24"/>
<polygon fill="midnightblue" stroke="midnightblue" points="1126.02,-15.73 1135.87,-11.85 1125.74,-8.74 1126.02,-15.73"/>
</g>
<!-- Node26&#45;&gt;Node16 -->
<g id="edge38" class="edge">
<title>Node26&#45;&gt;Node16</title>
<path fill="none" stroke="midnightblue" d="M1192.02,-246.32C1174.47,-227.47 1154.82,-199.02 1172,-179 1208.9,-135.98 1382.82,-129.26 1461.35,-128.45"/>
<polygon fill="midnightblue" stroke="midnightblue" points="1461.8,-131.95 1471.77,-128.37 1461.75,-124.95 1461.8,-131.95"/>
</g>
<!-- Node26&#45;&gt;Node17 -->
<g id="edge29" class="edge">
<title>Node26&#45;&gt;Node17</title>
<path fill="none" stroke="midnightblue" d="M1293.72,-264.48C1526.33,-259.7 2183.5,-243.31 2215,-210 2230.87,-193.22 2224.51,-164.79 2217.79,-146.33"/>
<polygon fill="midnightblue" stroke="midnightblue" points="2221.03,-144.99 2214.06,-137.01 2214.53,-147.59 2221.03,-144.99"/>
</g>
<!-- Node26&#45;&gt;Node18 -->
<g id="edge42" class="edge">
<title>Node26&#45;&gt;Node18</title>
<path fill="none" stroke="midnightblue" d="M1293.5,-264.12C1528.03,-258.29 2196.49,-239.2 2233,-210 2267.65,-182.29 2280.73,-145.81 2252,-112 2223.02,-77.9 2092.31,-69.58 2022.04,-67.59"/>
<polygon fill="midnightblue" stroke="midnightblue" points="2021.8,-64.09 2011.71,-67.34 2021.62,-71.09 2021.8,-64.09"/>
</g>
<!-- Node26&#45;&gt;Node19 -->
<g id="edge45" class="edge">
<title>Node26&#45;&gt;Node19</title>
<path fill="none" stroke="midnightblue" d="M1170.6,-246.38C1156.29,-237.45 1141.95,-225.38 1134,-210 1127.67,-197.76 1127.77,-191.29 1134,-179 1142.34,-162.56 1158.84,-150.18 1173.6,-141.8"/>
<polygon fill="midnightblue" stroke="midnightblue" points="1175.29,-144.86 1182.49,-137.09 1172.01,-138.68 1175.29,-144.86"/>
</g>
<!-- Node26&#45;&gt;Node20 -->
<g id="edge55" class="edge">
<title>Node26&#45;&gt;Node20</title>
<path fill="none" stroke="midnightblue" d="M1132.32,-252.59C1085.87,-243.05 1033.99,-228.62 1020,-210 989.33,-169.17 1065.87,-116.27 1072,-112 1095.8,-95.41 1126,-84.72 1152.43,-77.94"/>
<polygon fill="midnightblue" stroke="midnightblue" points="1153.46,-81.29 1162.35,-75.53 1151.81,-74.49 1153.46,-81.29"/>
</g>
<!-- Node26&#45;&gt;Node23 -->
<g id="edge40" class="edge">
<title>Node26&#45;&gt;Node23</title>
<path fill="none" stroke="midnightblue" d="M1293.69,-264.12C1548.24,-257.95 2324.03,-237.11 2434,-210 2435.99,-209.51 2438.01,-208.89 2440.01,-208.18"/>
<polygon fill="midnightblue" stroke="midnightblue" points="2441.81,-211.22 2449.67,-204.12 2439.09,-204.77 2441.81,-211.22"/>
</g>
<!-- Node27 -->
<g id="node27" class="node">
<title>Node27</title>
<g id="a_node27"><a xlink:title=" ">
<polygon fill="white" stroke="#bfbfbf" points="1214,-185 1214,-204 1264,-204 1264,-185 1214,-185"/>
<text text-anchor="middle" x="1239" y="-192" font-family="Helvetica,sans-Serif" font-size="10.00">stdio.h</text>
</a>
</g>
</g>
<!-- Node26&#45;&gt;Node27 -->
<g id="edge30" class="edge">
<title>Node26&#45;&gt;Node27</title>
<path fill="none" stroke="midnightblue" d="M1220.24,-246.36C1223.99,-236.19 1228.55,-223.84 1232.23,-213.86"/>
<polygon fill="midnightblue" stroke="midnightblue" points="1235.62,-214.77 1235.8,-204.17 1229.06,-212.34 1235.62,-214.77"/>
</g>
<!-- Node28 -->
<g id="node28" class="node">
<title>Node28</title>
<g id="a_node28"><a xlink:title=" ">
<polygon fill="white" stroke="#bfbfbf" points="1282.5,-185 1282.5,-204 1317.5,-204 1317.5,-185 1282.5,-185"/>
<text text-anchor="middle" x="1300" y="-192" font-family="Helvetica,sans-Serif" font-size="10.00">any</text>
</a>
</g>
</g>
<!-- Node26&#45;&gt;Node28 -->
<g id="edge31" class="edge">
<title>Node26&#45;&gt;Node28</title>
<path fill="none" stroke="midnightblue" d="M1237.23,-246.36C1251.12,-235.11 1268.3,-221.19 1281.17,-210.76"/>
<polygon fill="midnightblue" stroke="midnightblue" points="1283.73,-213.19 1289.3,-204.17 1279.32,-207.75 1283.73,-213.19"/>
</g>
<!-- Node29 -->
<g id="node29" class="node">
<title>Node29</title>
<g id="a_node29"><a xlink:title=" ">
<polygon fill="white" stroke="#bfbfbf" points="1336,-185 1336,-204 1382,-204 1382,-185 1336,-185"/>
<text text-anchor="middle" x="1359" y="-192" font-family="Helvetica,sans-Serif" font-size="10.00">cstdio</text>
</a>
</g>
</g>
<!-- Node26&#45;&gt;Node29 -->
<g id="edge34" class="edge">
<title>Node26&#45;&gt;Node29</title>
<path fill="none" stroke="midnightblue" d="M1253.67,-246.36C1278.66,-234.29 1309.98,-219.17 1331.95,-208.56"/>
<polygon fill="midnightblue" stroke="midnightblue" points="1333.55,-211.67 1341.04,-204.17 1330.51,-205.37 1333.55,-211.67"/>
</g>
<!-- Node30 -->
<g id="node30" class="node">
<title>Node30</title>
<g id="a_node30"><a xlink:title=" ">
<polygon fill="white" stroke="#bfbfbf" points="1400.5,-185 1400.5,-204 1457.5,-204 1457.5,-185 1400.5,-185"/>
<text text-anchor="middle" x="1429" y="-192" font-family="Helvetica,sans-Serif" font-size="10.00">ostream</text>
</a>
</g>
</g>
<!-- Node26&#45;&gt;Node30 -->
<g id="edge39" class="edge">
<title>Node26&#45;&gt;Node30</title>
<path fill="none" stroke="midnightblue" d="M1278.4,-246.45C1312.18,-236.09 1353.98,-222.88 1391,-210 1393.25,-209.22 1395.57,-208.39 1397.9,-207.54"/>
<polygon fill="midnightblue" stroke="midnightblue" points="1399.23,-210.78 1407.38,-204.01 1396.79,-204.22 1399.23,-210.78"/>
</g>
<!-- Node31 -->
<g id="node31" class="node">
<title>Node31</title>
<g id="a_node31"><a xlink:title=" ">
<polygon fill="white" stroke="#bfbfbf" points="764.5,-56.5 764.5,-75.5 805.5,-75.5 805.5,-56.5 764.5,-56.5"/>
<text text-anchor="middle" x="785" y="-63.5" font-family="Helvetica,sans-Serif" font-size="10.00">tuple</text>
</a>
</g>
</g>
<!-- Node26&#45;&gt;Node31 -->
<g id="edge41" class="edge">
<title>Node26&#45;&gt;Node31</title>
<path fill="none" stroke="midnightblue" d="M1132.19,-266.8C1023.74,-266 839.53,-257.45 795,-210 763.29,-176.21 772.42,-115.92 779.75,-85.55"/>
<polygon fill="midnightblue" stroke="midnightblue" points="783.24,-86.06 782.39,-75.5 776.47,-84.29 783.24,-86.06"/>
</g>
<!-- Node32 -->
<g id="node32" class="node">
<title>Node32</title>
<g id="a_node32"><a xlink:title=" ">
<polygon fill="white" stroke="#bfbfbf" points="1475.5,-185 1475.5,-204 1532.5,-204 1532.5,-185 1475.5,-185"/>
<text text-anchor="middle" x="1504" y="-192" font-family="Helvetica,sans-Serif" font-size="10.00">typeinfo</text>
</a>
</g>
</g>
<!-- Node26&#45;&gt;Node32 -->
<g id="edge43" class="edge">
<title>Node26&#45;&gt;Node32</title>
<path fill="none" stroke="midnightblue" d="M1293.62,-251.58C1343.98,-241.75 1409.86,-227.38 1467,-210 1469.43,-209.26 1471.92,-208.44 1474.41,-207.57"/>
<polygon fill="midnightblue" stroke="midnightblue" points="1475.69,-210.82 1483.85,-204.06 1473.25,-204.26 1475.69,-210.82"/>
</g>
<!-- Node33 -->
<g id="node33" class="node">
<title>Node33</title>
<g id="a_node33"><a xlink:title=" ">
<polygon fill="white" stroke="#bfbfbf" points="1550.5,-185 1550.5,-204 1595.5,-204 1595.5,-185 1550.5,-185"/>
<text text-anchor="middle" x="1573" y="-192" font-family="Helvetica,sans-Serif" font-size="10.00">utility</text>
</a>
</g>
</g>
<!-- Node26&#45;&gt;Node33 -->
<g id="edge44" class="edge">
<title>Node26&#45;&gt;Node33</title>
<path fill="none" stroke="midnightblue" d="M1293.52,-258.41C1361.01,-250.61 1459.33,-235.85 1542,-210 1543.87,-209.41 1545.78,-208.74 1547.67,-208.01"/>
<polygon fill="midnightblue" stroke="midnightblue" points="1549.12,-211.19 1556.92,-204.02 1546.35,-204.77 1549.12,-211.19"/>
</g>
<!-- Node34 -->
<g id="node34" class="node">
<title>Node34</title>
<g id="a_node34"><a xlink:title=" ">
<polygon fill="white" stroke="#bfbfbf" points="1614,-185 1614,-204 1712,-204 1712,-185 1614,-185"/>
<text text-anchor="middle" x="1663" y="-192" font-family="Helvetica,sans-Serif" font-size="10.00">hpx/hpx_init.hpp</text>
</a>
</g>
</g>
<!-- Node26&#45;&gt;Node34 -->
<g id="edge47" class="edge">
<title>Node26&#45;&gt;Node34</title>
<path fill="none" stroke="midnightblue" d="M1293.74,-256.93C1373.28,-247.42 1498.07,-230.95 1605,-210 1610.35,-208.95 1615.94,-207.72 1621.45,-206.43"/>
<polygon fill="midnightblue" stroke="midnightblue" points="1622.33,-209.83 1631.22,-204.07 1620.68,-203.02 1622.33,-209.83"/>
</g>
<!-- Node35 -->
<g id="node35" class="node">
<title>Node35</title>
<g id="a_node35"><a xlink:title=" ">
<polygon fill="white" stroke="#bfbfbf" points="1730.5,-185 1730.5,-204 1855.5,-204 1855.5,-185 1730.5,-185"/>
<text text-anchor="middle" x="1793" y="-192" font-family="Helvetica,sans-Serif" font-size="10.00">hpx/include/async.hpp</text>
</a>
</g>
</g>
<!-- Node26&#45;&gt;Node35 -->
<g id="edge48" class="edge">
<title>Node26&#45;&gt;Node35</title>
<path fill="none" stroke="midnightblue" d="M1293.8,-259.33C1394.26,-250.52 1570.86,-233.35 1721,-210 1728.45,-208.84 1736.29,-207.45 1743.96,-205.98"/>
<polygon fill="midnightblue" stroke="midnightblue" points="1744.74,-209.4 1753.88,-204.04 1743.39,-202.53 1744.74,-209.4"/>
</g>
<!-- Node36 -->
<g id="node36" class="node">
<title>Node36</title>
<g id="a_node36"><a xlink:title=" ">
<polygon fill="white" stroke="#bfbfbf" points="1874,-185 1874,-204 2020,-204 2020,-185 1874,-185"/>
<text text-anchor="middle" x="1947" y="-192" font-family="Helvetica,sans-Serif" font-size="10.00">hpx/include/iostreams.hpp</text>
</a>
</g>
</g>
<!-- Node26&#45;&gt;Node36 -->
<g id="edge49" class="edge">
<title>Node26&#45;&gt;Node36</title>
<path fill="none" stroke="midnightblue" d="M1293.55,-261.4C1416.93,-253.84 1659.98,-236.88 1865,-210 1874.05,-208.81 1883.63,-207.33 1892.92,-205.77"/>
<polygon fill="midnightblue" stroke="midnightblue" points="1893.59,-209.2 1902.85,-204.05 1892.4,-202.31 1893.59,-209.2"/>
</g>
<!-- Node37 -->
<g id="node37" class="node">
<title>Node37</title>
<g id="a_node37"><a xlink:title=" ">
<polygon fill="white" stroke="#bfbfbf" points="68,-185 68,-204 184,-204 184,-185 68,-185"/>
<text text-anchor="middle" x="126" y="-192" font-family="Helvetica,sans-Serif" font-size="10.00">hpx/include/lcos.hpp</text>
</a>
</g>
</g>
<!-- Node26&#45;&gt;Node37 -->
<g id="edge50" class="edge">
<title>Node26&#45;&gt;Node37</title>
<path fill="none" stroke="midnightblue" d="M1132.26,-265.9C959.27,-264.73 540.35,-256.82 193,-210 185.54,-208.99 177.67,-207.6 170.06,-206.07"/>
<polygon fill="midnightblue" stroke="midnightblue" points="170.75,-202.64 160.24,-204 169.31,-209.49 170.75,-202.64"/>
</g>
<!-- Node38 -->
<g id="node38" class="node">
<title>Node38</title>
<g id="a_node38"><a xlink:title=" ">
<polygon fill="white" stroke="#bfbfbf" points="202.5,-185 202.5,-204 323.5,-204 323.5,-185 202.5,-185"/>
<text text-anchor="middle" x="263" y="-192" font-family="Helvetica,sans-Serif" font-size="10.00">hpx/lcos/promise.hpp</text>
</a>
</g>
</g>
<!-- Node26&#45;&gt;Node38 -->
<g id="edge51" class="edge">
<title>Node26&#45;&gt;Node38</title>
<path fill="none" stroke="midnightblue" d="M1132.25,-264.65C976.83,-261.23 625.62,-249.42 333,-210 325.22,-208.95 317,-207.54 309.05,-206"/>
<polygon fill="midnightblue" stroke="midnightblue" points="309.66,-202.55 299.16,-204 308.27,-209.41 309.66,-202.55"/>
</g>
<!-- Node39 -->
<g id="node39" class="node">
<title>Node39</title>
<g id="a_node39"><a xlink:title=" ">
<polygon fill="white" stroke="#bfbfbf" points="342,-185 342,-204 432,-204 432,-185 342,-185"/>
<text text-anchor="middle" x="387" y="-192" font-family="Helvetica,sans-Serif" font-size="10.00">hpx/mutex.hpp</text>
</a>
</g>
</g>
<!-- Node26&#45;&gt;Node39 -->
<g id="edge52" class="edge">
<title>Node26&#45;&gt;Node39</title>
<path fill="none" stroke="midnightblue" d="M1132.38,-265.17C991.28,-262.62 690.77,-252.2 441,-210 435.62,-209.09 429.99,-207.88 424.49,-206.55"/>
<polygon fill="midnightblue" stroke="midnightblue" points="425.36,-203.16 414.8,-204.05 423.61,-209.93 425.36,-203.16"/>
</g>
<!-- Node40 -->
<g id="node40" class="node">
<title>Node40</title>
<g id="a_node40"><a xlink:title=" ">
<polygon fill="white" stroke="#bfbfbf" points="450,-185 450,-204 590,-204 590,-185 450,-185"/>
<text text-anchor="middle" x="520" y="-192" font-family="Helvetica,sans-Serif" font-size="10.00">boost/core/demangle.hpp</text>
</a>
</g>
</g>
<!-- Node26&#45;&gt;Node40 -->
<g id="edge53" class="edge">
<title>Node26&#45;&gt;Node40</title>
<path fill="none" stroke="midnightblue" d="M1132.28,-260.98C1014.64,-253.13 789.36,-236.1 599,-210 590.37,-208.82 581.24,-207.35 572.38,-205.8"/>
<polygon fill="midnightblue" stroke="midnightblue" points="572.99,-202.35 562.53,-204.04 571.75,-209.24 572.99,-202.35"/>
</g>
<!-- Node41 -->
<g id="node41" class="node">
<title>Node41</title>
<g id="a_node41"><a xlink:title=" ">
<polygon fill="white" stroke="#bfbfbf" points="608.5,-185 608.5,-204 709.5,-204 709.5,-185 608.5,-185"/>
<text text-anchor="middle" x="659" y="-192" font-family="Helvetica,sans-Serif" font-size="10.00">boost/format.hpp</text>
</a>
</g>
</g>
<!-- Node26&#45;&gt;Node41 -->
<g id="edge54" class="edge">
<title>Node26&#45;&gt;Node41</title>
<path fill="none" stroke="midnightblue" d="M1132.16,-259.37C1034.89,-250.8 866.83,-234.04 724,-210 717.57,-208.92 710.81,-207.61 704.18,-206.22"/>
<polygon fill="midnightblue" stroke="midnightblue" points="704.46,-202.7 693.95,-204.01 702.98,-209.54 704.46,-202.7"/>
</g>
<!-- Node42 -->
<g id="node42" class="node">
<title>Node42</title>
<g id="a_node42"><a xlink:href="executor__pools__interface_8hpp.html" target="_top" xlink:title=" ">
<polygon fill="white" stroke="black" points="804.5,-179.5 804.5,-209.5 967.5,-209.5 967.5,-179.5 804.5,-179.5"/>
<text text-anchor="start" x="812.5" y="-197.5" font-family="Helvetica,sans-Serif" font-size="10.00">cppuddle/executor_recycling</text>
<text text-anchor="middle" x="886" y="-186.5" font-family="Helvetica,sans-Serif" font-size="10.00">/executor_pools_interface.hpp</text>
</a>
</g>
</g>
<!-- Node26&#45;&gt;Node42 -->
<g id="edge57" class="edge">
<title>Node26&#45;&gt;Node42</title>
<path fill="none" stroke="midnightblue" d="M1132.17,-248.57C1079.86,-237.3 1012.24,-222.72 961.11,-211.69"/>
<polygon fill="midnightblue" stroke="midnightblue" points="961.62,-208.22 951.11,-209.54 960.15,-215.07 961.62,-208.22"/>
</g>
<!-- Node43 -->
<g id="node43" class="node">
<title>Node43</title>
<g id="a_node43"><a xlink:href="executor__pools__management_8hpp.html" target="_top" xlink:title=" ">
<polygon fill="white" stroke="black" points="804.5,-112.5 804.5,-142.5 1019.5,-142.5 1019.5,-112.5 804.5,-112.5"/>
<text text-anchor="start" x="812.5" y="-130.5" font-family="Helvetica,sans-Serif" font-size="10.00">cppuddle/executor_recycling</text>
<text text-anchor="middle" x="912" y="-119.5" font-family="Helvetica,sans-Serif" font-size="10.00">/detail/executor_pools_management.hpp</text>
</a>
</g>
</g>
<!-- Node42&#45;&gt;Node43 -->
<g id="edge58" class="edge">
<title>Node42&#45;&gt;Node43</title>
<path fill="none" stroke="midnightblue" d="M891.64,-179.4C894.84,-171.39 898.94,-161.16 902.61,-151.98"/>
<polygon fill="midnightblue" stroke="midnightblue" points="905.91,-153.16 906.37,-142.58 899.41,-150.56 905.91,-153.16"/>
</g>
<!-- Node43&#45;&gt;Node10 -->
<g id="edge61" class="edge">
<title>Node43&#45;&gt;Node10</title>
<path fill="none" stroke="midnightblue" d="M1019.64,-118.32C1197.91,-104.77 1545.99,-78.32 1658.78,-69.75"/>
<polygon fill="midnightblue" stroke="midnightblue" points="1659.24,-73.23 1668.95,-68.98 1658.71,-66.25 1659.24,-73.23"/>
</g>
<!-- Node43&#45;&gt;Node12 -->
<g id="edge63" class="edge">
<title>Node43&#45;&gt;Node12</title>
<path fill="none" stroke="midnightblue" d="M1019.89,-115.45C1096.12,-106.97 1200.84,-93.95 1301.76,-76.07"/>
<polygon fill="midnightblue" stroke="midnightblue" points="1302.6,-79.48 1311.83,-74.27 1301.37,-72.59 1302.6,-79.48"/>
</g>
<!-- Node43&#45;&gt;Node14 -->
<g id="edge64" class="edge">
<title>Node43&#45;&gt;Node14</title>
<path fill="none" stroke="midnightblue" d="M1019.64,-118.77C1112.62,-111.19 1250.69,-97.82 1379.56,-76.06"/>
<polygon fill="midnightblue" stroke="midnightblue" points="1380.35,-79.48 1389.62,-74.34 1379.17,-72.58 1380.35,-79.48"/>
</g>
<!-- Node43&#45;&gt;Node15 -->
<g id="edge65" class="edge">
<title>Node43&#45;&gt;Node15</title>
<path fill="none" stroke="midnightblue" d="M987.68,-112.46C1019.62,-104.6 1056.41,-92.88 1087,-76 1110.1,-63.25 1132.07,-42.01 1145.76,-27.3"/>
<polygon fill="midnightblue" stroke="midnightblue" points="1148.7,-29.27 1152.81,-19.5 1143.51,-24.57 1148.7,-29.27"/>
</g>
<!-- Node43&#45;&gt;Node18 -->
<g id="edge68" class="edge">
<title>Node43&#45;&gt;Node18</title>
<path fill="none" stroke="midnightblue" d="M1019.62,-119.69C1059.61,-117.2 1105.38,-114.41 1147,-112 1446.57,-94.64 1807.09,-75.79 1931.9,-69.33"/>
<polygon fill="midnightblue" stroke="midnightblue" points="1932.4,-72.81 1942.2,-68.79 1932.04,-65.82 1932.4,-72.81"/>
</g>
<!-- Node43&#45;&gt;Node20 -->
<g id="edge69" class="edge">
<title>Node43&#45;&gt;Node20</title>
<path fill="none" stroke="midnightblue" d="M983.19,-112.47C1037.68,-101.74 1111.63,-87.17 1160.99,-77.44"/>
<polygon fill="midnightblue" stroke="midnightblue" points="1161.69,-80.87 1170.82,-75.51 1160.34,-74.01 1161.69,-80.87"/>
</g>
<!-- Node43&#45;&gt;Node31 -->
<g id="edge67" class="edge">
<title>Node43&#45;&gt;Node31</title>
<path fill="none" stroke="midnightblue" d="M881.9,-112.4C860.88,-102.55 833.03,-89.5 812.58,-79.92"/>
<polygon fill="midnightblue" stroke="midnightblue" points="814.02,-76.73 803.48,-75.66 811.05,-83.07 814.02,-76.73"/>
</g>
<!-- Node44 -->
<g id="node44" class="node">
<title>Node44</title>
<g id="a_node44"><a xlink:title=" ">
<polygon fill="white" stroke="#bfbfbf" points="954,-56.5 954,-75.5 1018,-75.5 1018,-56.5 954,-56.5"/>
<text text-anchor="middle" x="986" y="-63.5" font-family="Helvetica,sans-Serif" font-size="10.00">algorithm</text>
</a>
</g>
</g>
<!-- Node43&#45;&gt;Node44 -->
<g id="edge59" class="edge">
<title>Node43&#45;&gt;Node44</title>
<path fill="none" stroke="midnightblue" d="M929.54,-112.4C940.84,-103.31 955.54,-91.49 967.11,-82.19"/>
<polygon fill="midnightblue" stroke="midnightblue" points="969.63,-84.65 975.23,-75.66 965.25,-79.2 969.63,-84.65"/>
</g>
<!-- Node45 -->
<g id="node45" class="node">
<title>Node45</title>
<g id="a_node45"><a xlink:title=" ">
<polygon fill="white" stroke="#bfbfbf" points="1036,-56.5 1036,-75.5 1078,-75.5 1078,-56.5 1036,-56.5"/>
<text text-anchor="middle" x="1057" y="-63.5" font-family="Helvetica,sans-Serif" font-size="10.00">array</text>
</a>
</g>
</g>
<!-- Node43&#45;&gt;Node45 -->
<g id="edge60" class="edge">
<title>Node43&#45;&gt;Node45</title>
<path fill="none" stroke="midnightblue" d="M946.36,-112.4C970.69,-102.42 1003.03,-89.15 1026.46,-79.53"/>
<polygon fill="midnightblue" stroke="midnightblue" points="1027.98,-82.69 1035.9,-75.66 1025.32,-76.22 1027.98,-82.69"/>
</g>
<!-- Node46 -->
<g id="node46" class="node">
<title>Node46</title>
<g id="a_node46"><a xlink:title=" ">
<polygon fill="white" stroke="#bfbfbf" points="823.5,-56.5 823.5,-75.5 870.5,-75.5 870.5,-56.5 823.5,-56.5"/>
<text text-anchor="middle" x="847" y="-63.5" font-family="Helvetica,sans-Serif" font-size="10.00">deque</text>
</a>
</g>
</g>
<!-- Node43&#45;&gt;Node46 -->
<g id="edge62" class="edge">
<title>Node43&#45;&gt;Node46</title>
<path fill="none" stroke="midnightblue" d="M896.6,-112.4C886.76,-103.4 874.01,-91.72 863.89,-82.47"/>
<polygon fill="midnightblue" stroke="midnightblue" points="866.2,-79.83 856.46,-75.66 861.47,-84.99 866.2,-79.83"/>
</g>
<!-- Node47 -->
<g id="node47" class="node">
<title>Node47</title>
<g id="a_node47"><a xlink:title=" ">
<polygon fill="white" stroke="#bfbfbf" points="888.5,-56.5 888.5,-75.5 935.5,-75.5 935.5,-56.5 888.5,-56.5"/>
<text text-anchor="middle" x="912" y="-63.5" font-family="Helvetica,sans-Serif" font-size="10.00">queue</text>
</a>
</g>
</g>
<!-- Node43&#45;&gt;Node47 -->
<g id="edge66" class="edge">
<title>Node43&#45;&gt;Node47</title>
<path fill="none" stroke="midnightblue" d="M912,-112.4C912,-104.47 912,-94.46 912,-85.86"/>
<polygon fill="midnightblue" stroke="midnightblue" points="915.5,-85.66 912,-75.66 908.5,-85.66 915.5,-85.66"/>
</g>
<!-- Node48&#45;&gt;Node26 -->
<g id="edge71" class="edge">
<title>Node48&#45;&gt;Node26</title>
<path fill="none" stroke="midnightblue" d="M1292.44,-324.43C1279.22,-315.03 1263.19,-303.65 1249.01,-293.58"/>
<polygon fill="midnightblue" stroke="midnightblue" points="1250.64,-290.44 1240.46,-287.51 1246.59,-296.15 1250.64,-290.44"/>
</g>
</g>
</svg>
