<?xml version="1.0" encoding="UTF-8" standalone="no"?>
<!DOCTYPE svg PUBLIC "-//W3C//DTD SVG 1.1//EN"
 "http://www.w3.org/Graphics/SVG/1.1/DTD/svg11.dtd">
<!-- Generated by graphviz version 2.43.0 (0)
 -->
<!-- Title: tests/work_aggregation_cpu_triad.cpp Pages: 1 -->
<svg width="2720pt" height="508pt"
 viewBox="0.00 0.00 2719.90 508.00" xmlns="http://www.w3.org/2000/svg" xmlns:xlink="http://www.w3.org/1999/xlink">
<g id="graph0" class="graph" transform="scale(1 1) rotate(0) translate(4 504)">
<title>tests/work_aggregation_cpu_triad.cpp</title>
<polygon fill="white" stroke="transparent" points="-4,4 -4,-504 2715.9,-504 2715.9,4 -4,4"/>
<!-- Node1 -->
<g id="node1" class="node">
<title>Node1</title>
<g id="a_node1"><a xlink:title=" ">
<polygon fill="#bfbfbf" stroke="black" points="688,-469.5 688,-499.5 819,-499.5 819,-469.5 688,-469.5"/>
<text text-anchor="start" x="696" y="-487.5" font-family="Helvetica,sans-Serif" font-size="10.00">tests/work_aggregation</text>
<text text-anchor="middle" x="753.5" y="-476.5" font-family="Helvetica,sans-Serif" font-size="10.00">_cpu_triad.cpp</text>
</a>
</g>
</g>
<!-- Node2 -->
<g id="node2" class="node">
<title>Node2</title>
<g id="a_node2"><a xlink:title=" ">
<polygon fill="white" stroke="#bfbfbf" points="0,-185 0,-204 125,-204 125,-185 0,-185"/>
<text text-anchor="middle" x="62.5" y="-192" font-family="Helvetica,sans-Serif" font-size="10.00">hpx/futures/future.hpp</text>
</a>
</g>
</g>
<!-- Node1&#45;&gt;Node2 -->
<g id="edge1" class="edge">
<title>Node1&#45;&gt;Node2</title>
<path fill="none" stroke="midnightblue" d="M693.28,-469.47C657.44,-460.46 611.34,-447.71 571.5,-433 379.33,-362.06 159.81,-247.62 87.22,-208.84"/>
<polygon fill="midnightblue" stroke="midnightblue" points="88.81,-205.73 78.35,-204.09 85.51,-211.9 88.81,-205.73"/>
</g>
<!-- Node3 -->
<g id="node3" class="node">
<title>Node3</title>
<g id="a_node3"><a xlink:href="std__recycling__allocators_8hpp.html" target="_top" xlink:title=" ">
<polygon fill="white" stroke="black" points="580.5,-402.5 580.5,-432.5 738.5,-432.5 738.5,-402.5 580.5,-402.5"/>
<text text-anchor="start" x="588.5" y="-420.5" font-family="Helvetica,sans-Serif" font-size="10.00">cppuddle/memory_recycling</text>
<text text-anchor="middle" x="659.5" y="-409.5" font-family="Helvetica,sans-Serif" font-size="10.00">/std_recycling_allocators.hpp</text>
</a>
</g>
</g>
<!-- Node1&#45;&gt;Node3 -->
<g id="edge2" class="edge">
<title>Node1&#45;&gt;Node3</title>
<path fill="none" stroke="midnightblue" d="M733.1,-469.4C720.05,-460.37 702.9,-448.51 688.45,-438.52"/>
<polygon fill="midnightblue" stroke="midnightblue" points="690.07,-435.39 679.86,-432.58 686.09,-441.14 690.07,-435.39"/>
</g>
<!-- Node18 -->
<g id="node18" class="node">
<title>Node18</title>
<g id="a_node18"><a xlink:href="kernel__aggregation__interface_8hpp.html" target="_top" xlink:title=" ">
<polygon fill="white" stroke="black" points="965,-402.5 965,-432.5 1148,-432.5 1148,-402.5 965,-402.5"/>
<text text-anchor="start" x="973" y="-420.5" font-family="Helvetica,sans-Serif" font-size="10.00">cppuddle/kernel_aggregation</text>
<text text-anchor="middle" x="1056.5" y="-409.5" font-family="Helvetica,sans-Serif" font-size="10.00">/kernel_aggregation_interface.hpp</text>
</a>
</g>
</g>
<!-- Node1&#45;&gt;Node18 -->
<g id="edge18" class="edge">
<title>Node1&#45;&gt;Node18</title>
<path fill="none" stroke="midnightblue" d="M818.87,-469.48C866.48,-459.26 931.08,-445.41 980.91,-434.72"/>
<polygon fill="midnightblue" stroke="midnightblue" points="981.94,-438.07 990.98,-432.55 980.47,-431.23 981.94,-438.07"/>
</g>
<!-- Node44 -->
<g id="node44" class="node">
<title>Node44</title>
<g id="a_node44"><a xlink:title=" ">
<polygon fill="white" stroke="#bfbfbf" points="1166.5,-408 1166.5,-427 1316.5,-427 1316.5,-408 1166.5,-408"/>
<text text-anchor="middle" x="1241.5" y="-415" font-family="Helvetica,sans-Serif" font-size="10.00">boost/program_options.hpp</text>
</a>
</g>
</g>
<!-- Node1&#45;&gt;Node44 -->
<g id="edge63" class="edge">
<title>Node1&#45;&gt;Node44</title>
<path fill="none" stroke="midnightblue" d="M819.24,-476.17C899.11,-467.05 1037.92,-450.54 1156.5,-433 1165.32,-431.7 1174.64,-430.21 1183.75,-428.71"/>
<polygon fill="midnightblue" stroke="midnightblue" points="1184.62,-432.11 1193.91,-427 1183.46,-425.2 1184.62,-432.11"/>
</g>
<!-- Node4 -->
<g id="node4" class="node">
<title>Node4</title>
<g id="a_node4"><a xlink:href="buffer__management__interface_8hpp.html" target="_top" xlink:title=" ">
<polygon fill="white" stroke="black" points="437,-257.5 437,-276.5 622,-276.5 622,-257.5 437,-257.5"/>
<text text-anchor="middle" x="529.5" y="-264.5" font-family="Helvetica,sans-Serif" font-size="10.00">buffer_management_interface.hpp</text>
</a>
</g>
</g>
<!-- Node3&#45;&gt;Node4 -->
<g id="edge3" class="edge">
<title>Node3&#45;&gt;Node4</title>
<path fill="none" stroke="midnightblue" d="M647.04,-402.26C622.86,-374.64 569.72,-313.94 544,-284.57"/>
<polygon fill="midnightblue" stroke="midnightblue" points="546.46,-282.07 537.24,-276.85 541.2,-286.68 546.46,-282.07"/>
</g>
<!-- Node5 -->
<g id="node5" class="node">
<title>Node5</title>
<g id="a_node5"><a xlink:href="buffer__management_8hpp.html" target="_top" xlink:title=" ">
<polygon fill="white" stroke="black" points="435,-185 435,-204 602,-204 602,-185 435,-185"/>
<text text-anchor="middle" x="518.5" y="-192" font-family="Helvetica,sans-Serif" font-size="10.00">detail/buffer_management.hpp</text>
</a>
</g>
</g>
<!-- Node4&#45;&gt;Node5 -->
<g id="edge4" class="edge">
<title>Node4&#45;&gt;Node5</title>
<path fill="none" stroke="midnightblue" d="M528.15,-257.36C526.49,-246.68 523.6,-228.22 521.42,-214.23"/>
<polygon fill="midnightblue" stroke="midnightblue" points="524.86,-213.56 519.86,-204.22 517.94,-214.64 524.86,-213.56"/>
</g>
<!-- Node6 -->
<g id="node6" class="node">
<title>Node6</title>
<g id="a_node6"><a xlink:title=" ">
<polygon fill="white" stroke="#bfbfbf" points="581.5,-118 581.5,-137 631.5,-137 631.5,-118 581.5,-118"/>
<text text-anchor="middle" x="606.5" y="-125" font-family="Helvetica,sans-Serif" font-size="10.00">atomic</text>
</a>
</g>
</g>
<!-- Node5&#45;&gt;Node6 -->
<g id="edge5" class="edge">
<title>Node5&#45;&gt;Node6</title>
<path fill="none" stroke="midnightblue" d="M530.37,-184.73C544.75,-174.11 569.2,-156.05 586.51,-143.26"/>
<polygon fill="midnightblue" stroke="midnightblue" points="588.86,-145.88 594.82,-137.13 584.7,-140.25 588.86,-145.88"/>
</g>
<!-- Node7 -->
<g id="node7" class="node">
<title>Node7</title>
<g id="a_node7"><a xlink:title=" ">
<polygon fill="white" stroke="#bfbfbf" points="618.5,-56.5 618.5,-75.5 670.5,-75.5 670.5,-56.5 618.5,-56.5"/>
<text text-anchor="middle" x="644.5" y="-63.5" font-family="Helvetica,sans-Serif" font-size="10.00">cassert</text>
</a>
</g>
</g>
<!-- Node5&#45;&gt;Node7 -->
<g id="edge6" class="edge">
<title>Node5&#45;&gt;Node7</title>
<path fill="none" stroke="midnightblue" d="M512.77,-184.96C502.85,-169.03 485.08,-134.38 501.5,-112 525.74,-78.96 574.26,-69.54 608.02,-67.18"/>
<polygon fill="midnightblue" stroke="midnightblue" points="608.61,-70.66 618.42,-66.64 608.25,-63.67 608.61,-70.66"/>
</g>
<!-- Node8 -->
<g id="node8" class="node">
<title>Node8</title>
<g id="a_node8"><a xlink:title=" ">
<polygon fill="white" stroke="#bfbfbf" points="334,-118 334,-137 399,-137 399,-118 334,-118"/>
<text text-anchor="middle" x="366.5" y="-125" font-family="Helvetica,sans-Serif" font-size="10.00">functional</text>
</a>
</g>
</g>
<!-- Node5&#45;&gt;Node8 -->
<g id="edge7" class="edge">
<title>Node5&#45;&gt;Node8</title>
<path fill="none" stroke="midnightblue" d="M498.32,-184.87C472.2,-173.7 426.47,-154.15 396.34,-141.26"/>
<polygon fill="midnightblue" stroke="midnightblue" points="397.34,-137.88 386.77,-137.17 394.59,-144.32 397.34,-137.88"/>
</g>
<!-- Node9 -->
<g id="node9" class="node">
<title>Node9</title>
<g id="a_node9"><a xlink:title=" ">
<polygon fill="white" stroke="#bfbfbf" points="889.5,-56.5 889.5,-75.5 949.5,-75.5 949.5,-56.5 889.5,-56.5"/>
<text text-anchor="middle" x="919.5" y="-63.5" font-family="Helvetica,sans-Serif" font-size="10.00">iostream</text>
</a>
</g>
</g>
<!-- Node5&#45;&gt;Node9 -->
<g id="edge8" class="edge">
<title>Node5&#45;&gt;Node9</title>
<path fill="none" stroke="midnightblue" d="M521.43,-184.78C527.73,-167.55 544.3,-129.33 572.5,-112 631.02,-76.03 811.79,-87.55 879.5,-76 879.6,-75.98 879.7,-75.97 879.8,-75.95"/>
<polygon fill="midnightblue" stroke="midnightblue" points="880.25,-79.42 889.43,-74.12 878.95,-72.55 880.25,-79.42"/>
</g>
<!-- Node10 -->
<g id="node10" class="node">
<title>Node10</title>
<g id="a_node10"><a xlink:title=" ">
<polygon fill="white" stroke="#bfbfbf" points="417.5,-118 417.5,-137 449.5,-137 449.5,-118 417.5,-118"/>
<text text-anchor="middle" x="433.5" y="-125" font-family="Helvetica,sans-Serif" font-size="10.00">list</text>
</a>
</g>
</g>
<!-- Node5&#45;&gt;Node10 -->
<g id="edge9" class="edge">
<title>Node5&#45;&gt;Node10</title>
<path fill="none" stroke="midnightblue" d="M507.04,-184.73C493.14,-174.11 469.52,-156.05 452.81,-143.26"/>
<polygon fill="midnightblue" stroke="midnightblue" points="454.85,-140.42 444.78,-137.13 450.6,-145.98 454.85,-140.42"/>
</g>
<!-- Node11 -->
<g id="node11" class="node">
<title>Node11</title>
<g id="a_node11"><a xlink:title=" ">
<polygon fill="white" stroke="#bfbfbf" points="397.5,-56.5 397.5,-75.5 455.5,-75.5 455.5,-56.5 397.5,-56.5"/>
<text text-anchor="middle" x="426.5" y="-63.5" font-family="Helvetica,sans-Serif" font-size="10.00">memory</text>
</a>
</g>
</g>
<!-- Node5&#45;&gt;Node11 -->
<g id="edge10" class="edge">
<title>Node5&#45;&gt;Node11</title>
<path fill="none" stroke="midnightblue" d="M452.46,-185C402.63,-177.07 340.25,-163.38 324.5,-143 316.07,-132.1 316.98,-123.54 324.5,-112 332.07,-100.39 363.09,-87.69 388.95,-78.75"/>
<polygon fill="midnightblue" stroke="midnightblue" points="390.19,-82.02 398.55,-75.52 387.96,-75.39 390.19,-82.02"/>
</g>
<!-- Node12 -->
<g id="node12" class="node">
<title>Node12</title>
<g id="a_node12"><a xlink:title=" ">
<polygon fill="white" stroke="#bfbfbf" points="735.5,-0.5 735.5,-19.5 783.5,-19.5 783.5,-0.5 735.5,-0.5"/>
<text text-anchor="middle" x="759.5" y="-7.5" font-family="Helvetica,sans-Serif" font-size="10.00">mutex</text>
</a>
</g>
</g>
<!-- Node5&#45;&gt;Node12 -->
<g id="edge11" class="edge">
<title>Node5&#45;&gt;Node12</title>
<path fill="none" stroke="midnightblue" d="M435.24,-184.96C321.37,-170.21 138.88,-133.73 210.5,-56 245.38,-18.14 609.92,-12.13 724.94,-11.18"/>
<polygon fill="midnightblue" stroke="midnightblue" points="725.29,-14.68 735.27,-11.1 725.24,-7.68 725.29,-14.68"/>
</g>
<!-- Node13 -->
<g id="node13" class="node">
<title>Node13</title>
<g id="a_node13"><a xlink:title=" ">
<polygon fill="white" stroke="#bfbfbf" points="649.5,-118 649.5,-137 705.5,-137 705.5,-118 649.5,-118"/>
<text text-anchor="middle" x="677.5" y="-125" font-family="Helvetica,sans-Serif" font-size="10.00">optional</text>
</a>
</g>
</g>
<!-- Node5&#45;&gt;Node13 -->
<g id="edge12" class="edge">
<title>Node5&#45;&gt;Node13</title>
<path fill="none" stroke="midnightblue" d="M539.61,-184.87C567.13,-173.62 615.45,-153.87 646.96,-140.99"/>
<polygon fill="midnightblue" stroke="midnightblue" points="648.62,-144.09 656.55,-137.06 645.97,-137.61 648.62,-144.09"/>
</g>
<!-- Node14 -->
<g id="node14" class="node">
<title>Node14</title>
<g id="a_node14"><a xlink:title=" ">
<polygon fill="white" stroke="#bfbfbf" points="724,-118 724,-137 789,-137 789,-118 724,-118"/>
<text text-anchor="middle" x="756.5" y="-125" font-family="Helvetica,sans-Serif" font-size="10.00">stdexcept</text>
</a>
</g>
</g>
<!-- Node5&#45;&gt;Node14 -->
<g id="edge13" class="edge">
<title>Node5&#45;&gt;Node14</title>
<path fill="none" stroke="midnightblue" d="M555.23,-184.97C594.79,-175.56 659.48,-159.56 714.5,-143 717.27,-142.17 720.13,-141.27 722.99,-140.34"/>
<polygon fill="midnightblue" stroke="midnightblue" points="724.25,-143.61 732.62,-137.12 722.03,-136.97 724.25,-143.61"/>
</g>
<!-- Node15 -->
<g id="node15" class="node">
<title>Node15</title>
<g id="a_node15"><a xlink:title=" ">
<polygon fill="white" stroke="#bfbfbf" points="802,-56.5 802,-75.5 871,-75.5 871,-56.5 802,-56.5"/>
<text text-anchor="middle" x="836.5" y="-63.5" font-family="Helvetica,sans-Serif" font-size="10.00">type_traits</text>
</a>
</g>
</g>
<!-- Node5&#45;&gt;Node15 -->
<g id="edge14" class="edge">
<title>Node5&#45;&gt;Node15</title>
<path fill="none" stroke="midnightblue" d="M517.9,-184.82C517.25,-168.01 518.46,-131 539.5,-112 557.93,-95.36 713.31,-78.57 791.68,-71.07"/>
<polygon fill="midnightblue" stroke="midnightblue" points="792.12,-74.54 801.75,-70.11 791.46,-67.57 792.12,-74.54"/>
</g>
<!-- Node16 -->
<g id="node16" class="node">
<title>Node16</title>
<g id="a_node16"><a xlink:title=" ">
<polygon fill="white" stroke="#bfbfbf" points="807,-118 807,-137 900,-137 900,-118 807,-118"/>
<text text-anchor="middle" x="853.5" y="-125" font-family="Helvetica,sans-Serif" font-size="10.00">unordered_map</text>
</a>
</g>
</g>
<!-- Node5&#45;&gt;Node16 -->
<g id="edge15" class="edge">
<title>Node5&#45;&gt;Node16</title>
<path fill="none" stroke="midnightblue" d="M572.22,-184.99C628.58,-175.79 719.61,-160.11 797.5,-143 802.28,-141.95 807.26,-140.78 812.2,-139.56"/>
<polygon fill="midnightblue" stroke="midnightblue" points="813.36,-142.88 822.2,-137.04 811.65,-136.09 813.36,-142.88"/>
</g>
<!-- Node17 -->
<g id="node17" class="node">
<title>Node17</title>
<g id="a_node17"><a xlink:href="config_8hpp.html" target="_top" xlink:title=" ">
<polygon fill="white" stroke="black" points="219.5,-56.5 219.5,-75.5 379.5,-75.5 379.5,-56.5 219.5,-56.5"/>
<text text-anchor="middle" x="299.5" y="-63.5" font-family="Helvetica,sans-Serif" font-size="10.00">cppuddle/common/config.hpp</text>
</a>
</g>
</g>
<!-- Node5&#45;&gt;Node17 -->
<g id="edge16" class="edge">
<title>Node5&#45;&gt;Node17</title>
<path fill="none" stroke="midnightblue" d="M453.93,-184.98C401.96,-176.81 334.56,-162.77 315.5,-143 300.97,-127.94 298.18,-103.21 298.23,-86.07"/>
<polygon fill="midnightblue" stroke="midnightblue" points="301.75,-85.75 298.61,-75.63 294.75,-85.49 301.75,-85.75"/>
</g>
<!-- Node17&#45;&gt;Node12 -->
<g id="edge17" class="edge">
<title>Node17&#45;&gt;Node12</title>
<path fill="none" stroke="midnightblue" d="M372.13,-56.47C472.76,-44.66 650.59,-23.79 725.12,-15.04"/>
<polygon fill="midnightblue" stroke="midnightblue" points="725.82,-18.48 735.34,-13.84 725,-11.53 725.82,-18.48"/>
</g>
<!-- Node19 -->
<g id="node19" class="node">
<title>Node19</title>
<g id="a_node19"><a xlink:href="aggregation__executors__and__allocators_8hpp.html" target="_top" xlink:title=" ">
<polygon fill="white" stroke="black" points="1147,-246.5 1147,-287.5 1308,-287.5 1308,-246.5 1147,-246.5"/>
<text text-anchor="start" x="1155" y="-275.5" font-family="Helvetica,sans-Serif" font-size="10.00">cppuddle/kernel_aggregation</text>
<text text-anchor="start" x="1155" y="-264.5" font-family="Helvetica,sans-Serif" font-size="10.00">/detail/aggregation_executors</text>
<text text-anchor="middle" x="1227.5" y="-253.5" font-family="Helvetica,sans-Serif" font-size="10.00">_and_allocators.hpp</text>
</a>
</g>
</g>
<!-- Node18&#45;&gt;Node19 -->
<g id="edge19" class="edge">
<title>Node18&#45;&gt;Node19</title>
<path fill="none" stroke="midnightblue" d="M1065.94,-402.37C1079.33,-383.04 1105.38,-348.02 1133.5,-324 1147.26,-312.24 1163.81,-301.48 1179.15,-292.6"/>
<polygon fill="midnightblue" stroke="midnightblue" points="1181.03,-295.56 1188.02,-287.59 1177.59,-289.46 1181.03,-295.56"/>
</g>
<!-- Node43 -->
<g id="node43" class="node">
<title>Node43</title>
<g id="a_node43"><a xlink:href="aggregation__executor__pools_8hpp.html" target="_top" xlink:title=" ">
<polygon fill="white" stroke="black" points="1142.5,-324.5 1142.5,-365.5 1300.5,-365.5 1300.5,-324.5 1142.5,-324.5"/>
<text text-anchor="start" x="1150.5" y="-353.5" font-family="Helvetica,sans-Serif" font-size="10.00">cppuddle/kernel_aggregation</text>
<text text-anchor="start" x="1150.5" y="-342.5" font-family="Helvetica,sans-Serif" font-size="10.00">/detail/aggregation_executor</text>
<text text-anchor="middle" x="1221.5" y="-331.5" font-family="Helvetica,sans-Serif" font-size="10.00">_pools.hpp</text>
</a>
</g>
</g>
<!-- Node18&#45;&gt;Node43 -->
<g id="edge61" class="edge">
<title>Node18&#45;&gt;Node43</title>
<path fill="none" stroke="midnightblue" d="M1089.49,-402.4C1111.52,-392.99 1141.02,-380.39 1166.55,-369.48"/>
<polygon fill="midnightblue" stroke="midnightblue" points="1167.93,-372.69 1175.75,-365.55 1165.18,-366.26 1167.93,-372.69"/>
</g>
<!-- Node19&#45;&gt;Node2 -->
<g id="edge37" class="edge">
<title>Node19&#45;&gt;Node2</title>
<path fill="none" stroke="midnightblue" d="M1146.91,-263.26C929.56,-255.66 334.58,-233.28 139.5,-210 130.67,-208.95 121.32,-207.48 112.31,-205.89"/>
<polygon fill="midnightblue" stroke="midnightblue" points="112.77,-202.42 102.31,-204.05 111.51,-209.3 112.77,-202.42"/>
</g>
<!-- Node19&#45;&gt;Node5 -->
<g id="edge47" class="edge">
<title>Node19&#45;&gt;Node5</title>
<path fill="none" stroke="midnightblue" d="M1146.99,-259.79C1030.78,-250.55 809.35,-231.89 621.5,-210 609.8,-208.64 597.37,-207.03 585.35,-205.38"/>
<polygon fill="midnightblue" stroke="midnightblue" points="585.76,-201.91 575.37,-204 584.8,-208.84 585.76,-201.91"/>
</g>
<!-- Node19&#45;&gt;Node6 -->
<g id="edge23" class="edge">
<title>Node19&#45;&gt;Node6</title>
<path fill="none" stroke="midnightblue" d="M1146.67,-261.75C1024.92,-254.56 800.71,-237.95 725.5,-210 684.89,-194.91 644.81,-162.98 623.1,-143.88"/>
<polygon fill="midnightblue" stroke="midnightblue" points="625.24,-141.1 615.46,-137.01 620.56,-146.3 625.24,-141.1"/>
</g>
<!-- Node19&#45;&gt;Node9 -->
<g id="edge26" class="edge">
<title>Node19&#45;&gt;Node9</title>
<path fill="none" stroke="midnightblue" d="M1146.99,-264.22C1057.68,-260.35 921.86,-248.16 889.5,-210 880.59,-199.49 883.05,-191.18 889.5,-179 902.83,-153.84 929.17,-168.16 942.5,-143 952.53,-124.06 941.89,-100.09 931.99,-84.19"/>
<polygon fill="midnightblue" stroke="midnightblue" points="934.88,-82.22 926.41,-75.86 929.07,-86.11 934.88,-82.22"/>
</g>
<!-- Node19&#45;&gt;Node11 -->
<g id="edge27" class="edge">
<title>Node19&#45;&gt;Node11</title>
<path fill="none" stroke="midnightblue" d="M1146.93,-265.2C971.11,-262.66 558.16,-252.26 425.5,-210 363.11,-190.13 278.92,-166.3 315.5,-112 324.02,-99.35 359.23,-86.42 387.74,-77.69"/>
<polygon fill="midnightblue" stroke="midnightblue" points="388.9,-80.99 397.49,-74.78 386.9,-74.28 388.9,-80.99"/>
</g>
<!-- Node19&#45;&gt;Node12 -->
<g id="edge28" class="edge">
<title>Node19&#45;&gt;Node12</title>
<path fill="none" stroke="midnightblue" d="M1308.14,-266C1609.77,-265.62 2656.74,-260.64 2705.5,-210 2715.06,-200.07 2712.62,-190.8 2705.5,-179 2672.54,-124.35 2639.62,-130.37 2578.5,-112 2226.45,-6.2 1013.99,-9.26 793.91,-10.72"/>
<polygon fill="midnightblue" stroke="midnightblue" points="793.59,-7.22 783.62,-10.79 793.64,-14.22 793.59,-7.22"/>
</g>
<!-- Node19&#45;&gt;Node13 -->
<g id="edge29" class="edge">
<title>Node19&#45;&gt;Node13</title>
<path fill="none" stroke="midnightblue" d="M1146.78,-261.39C1035.48,-254.12 841.28,-237.86 776.5,-210 741.76,-195.06 709.54,-164.06 691.78,-144.9"/>
<polygon fill="midnightblue" stroke="midnightblue" points="694.19,-142.34 684.89,-137.26 688.99,-147.03 694.19,-142.34"/>
</g>
<!-- Node19&#45;&gt;Node14 -->
<g id="edge20" class="edge">
<title>Node19&#45;&gt;Node14</title>
<path fill="none" stroke="midnightblue" d="M1146.72,-263.21C1041.08,-258.22 863.02,-244.78 808.5,-210 785.22,-195.15 770.38,-165.72 762.76,-146.59"/>
<polygon fill="midnightblue" stroke="midnightblue" points="766.02,-145.33 759.25,-137.18 759.46,-147.77 766.02,-145.33"/>
</g>
<!-- Node19&#45;&gt;Node15 -->
<g id="edge33" class="edge">
<title>Node19&#45;&gt;Node15</title>
<path fill="none" stroke="midnightblue" d="M1146.91,-264.63C1055.28,-261.16 914.03,-249.37 880.5,-210 871.57,-199.51 876.03,-192.03 880.5,-179 887.08,-159.83 901.92,-162.17 908.5,-143 912.97,-129.97 915.18,-124.05 908.5,-112 900.41,-97.41 885.4,-86.92 871.16,-79.76"/>
<polygon fill="midnightblue" stroke="midnightblue" points="872.55,-76.55 862,-75.53 869.61,-82.9 872.55,-76.55"/>
</g>
<!-- Node19&#45;&gt;Node16 -->
<g id="edge36" class="edge">
<title>Node19&#45;&gt;Node16</title>
<path fill="none" stroke="midnightblue" d="M1146.6,-266.95C1039.75,-266.27 860.2,-257.8 818.5,-210 801.64,-190.68 821.52,-162.02 837.48,-144.33"/>
<polygon fill="midnightblue" stroke="midnightblue" points="840.04,-146.72 844.39,-137.06 834.96,-141.9 840.04,-146.72"/>
</g>
<!-- Node19&#45;&gt;Node17 -->
<g id="edge46" class="edge">
<title>Node19&#45;&gt;Node17</title>
<path fill="none" stroke="midnightblue" d="M1146.93,-263.01C934.7,-254.85 374.27,-231.39 340.5,-210 299.31,-183.91 296.57,-118.51 297.98,-85.99"/>
<polygon fill="midnightblue" stroke="midnightblue" points="301.49,-85.82 298.62,-75.62 294.51,-85.39 301.49,-85.82"/>
</g>
<!-- Node20 -->
<g id="node20" class="node">
<title>Node20</title>
<g id="a_node20"><a xlink:title=" ">
<polygon fill="white" stroke="#bfbfbf" points="1080.5,-185 1080.5,-204 1130.5,-204 1130.5,-185 1080.5,-185"/>
<text text-anchor="middle" x="1105.5" y="-192" font-family="Helvetica,sans-Serif" font-size="10.00">stdio.h</text>
</a>
</g>
</g>
<!-- Node19&#45;&gt;Node20 -->
<g id="edge21" class="edge">
<title>Node19&#45;&gt;Node20</title>
<path fill="none" stroke="midnightblue" d="M1193.52,-246.36C1173.1,-234.57 1147.63,-219.85 1129.35,-209.28"/>
<polygon fill="midnightblue" stroke="midnightblue" points="1130.92,-206.15 1120.51,-204.17 1127.42,-212.21 1130.92,-206.15"/>
</g>
<!-- Node21 -->
<g id="node21" class="node">
<title>Node21</title>
<g id="a_node21"><a xlink:title=" ">
<polygon fill="white" stroke="#bfbfbf" points="1149,-185 1149,-204 1184,-204 1184,-185 1149,-185"/>
<text text-anchor="middle" x="1166.5" y="-192" font-family="Helvetica,sans-Serif" font-size="10.00">any</text>
</a>
</g>
</g>
<!-- Node19&#45;&gt;Node21 -->
<g id="edge22" class="edge">
<title>Node19&#45;&gt;Node21</title>
<path fill="none" stroke="midnightblue" d="M1210.51,-246.36C1201.14,-235.54 1189.65,-222.26 1180.76,-211.98"/>
<polygon fill="midnightblue" stroke="midnightblue" points="1183.19,-209.45 1174,-204.17 1177.9,-214.03 1183.19,-209.45"/>
</g>
<!-- Node22 -->
<g id="node22" class="node">
<title>Node22</title>
<g id="a_node22"><a xlink:title=" ">
<polygon fill="white" stroke="#bfbfbf" points="1202.5,-185 1202.5,-204 1252.5,-204 1252.5,-185 1202.5,-185"/>
<text text-anchor="middle" x="1227.5" y="-192" font-family="Helvetica,sans-Serif" font-size="10.00">chrono</text>
</a>
</g>
</g>
<!-- Node19&#45;&gt;Node22 -->
<g id="edge24" class="edge">
<title>Node19&#45;&gt;Node22</title>
<path fill="none" stroke="midnightblue" d="M1227.5,-246.36C1227.5,-236.3 1227.5,-224.1 1227.5,-214.18"/>
<polygon fill="midnightblue" stroke="midnightblue" points="1231,-214.17 1227.5,-204.17 1224,-214.17 1231,-214.17"/>
</g>
<!-- Node23 -->
<g id="node23" class="node">
<title>Node23</title>
<g id="a_node23"><a xlink:title=" ">
<polygon fill="white" stroke="#bfbfbf" points="1270.5,-185 1270.5,-204 1316.5,-204 1316.5,-185 1270.5,-185"/>
<text text-anchor="middle" x="1293.5" y="-192" font-family="Helvetica,sans-Serif" font-size="10.00">cstdio</text>
</a>
</g>
</g>
<!-- Node19&#45;&gt;Node23 -->
<g id="edge25" class="edge">
<title>Node19&#45;&gt;Node23</title>
<path fill="none" stroke="midnightblue" d="M1245.88,-246.36C1256.12,-235.43 1268.7,-221.99 1278.36,-211.67"/>
<polygon fill="midnightblue" stroke="midnightblue" points="1281.1,-213.87 1285.38,-204.17 1275.99,-209.08 1281.1,-213.87"/>
</g>
<!-- Node24 -->
<g id="node24" class="node">
<title>Node24</title>
<g id="a_node24"><a xlink:title=" ">
<polygon fill="white" stroke="#bfbfbf" points="1335,-185 1335,-204 1392,-204 1392,-185 1335,-185"/>
<text text-anchor="middle" x="1363.5" y="-192" font-family="Helvetica,sans-Serif" font-size="10.00">ostream</text>
</a>
</g>
</g>
<!-- Node19&#45;&gt;Node24 -->
<g id="edge30" class="edge">
<title>Node19&#45;&gt;Node24</title>
<path fill="none" stroke="midnightblue" d="M1265.38,-246.36C1288.45,-234.4 1317.32,-219.44 1337.75,-208.85"/>
<polygon fill="midnightblue" stroke="midnightblue" points="1339.5,-211.88 1346.77,-204.17 1336.28,-205.67 1339.5,-211.88"/>
</g>
<!-- Node25 -->
<g id="node25" class="node">
<title>Node25</title>
<g id="a_node25"><a xlink:title=" ">
<polygon fill="white" stroke="#bfbfbf" points="1410.5,-185 1410.5,-204 1454.5,-204 1454.5,-185 1410.5,-185"/>
<text text-anchor="middle" x="1432.5" y="-192" font-family="Helvetica,sans-Serif" font-size="10.00">string</text>
</a>
</g>
</g>
<!-- Node19&#45;&gt;Node25 -->
<g id="edge31" class="edge">
<title>Node19&#45;&gt;Node25</title>
<path fill="none" stroke="midnightblue" d="M1295.12,-246.41C1327.63,-236.44 1366.94,-223.58 1401.5,-210 1402.92,-209.44 1404.36,-208.85 1405.81,-208.24"/>
<polygon fill="midnightblue" stroke="midnightblue" points="1407.58,-211.29 1415.29,-204.02 1404.73,-204.89 1407.58,-211.29"/>
</g>
<!-- Node26 -->
<g id="node26" class="node">
<title>Node26</title>
<g id="a_node26"><a xlink:title=" ">
<polygon fill="white" stroke="#bfbfbf" points="1961,-56.5 1961,-75.5 2002,-75.5 2002,-56.5 1961,-56.5"/>
<text text-anchor="middle" x="1981.5" y="-63.5" font-family="Helvetica,sans-Serif" font-size="10.00">tuple</text>
</a>
</g>
</g>
<!-- Node19&#45;&gt;Node26 -->
<g id="edge32" class="edge">
<title>Node19&#45;&gt;Node26</title>
<path fill="none" stroke="midnightblue" d="M1308.13,-265.96C1607.21,-265.42 2638.44,-259.94 2686.5,-210 2784.29,-108.38 2160.83,-74.76 2012.61,-68.25"/>
<polygon fill="midnightblue" stroke="midnightblue" points="2012.53,-64.75 2002.39,-67.82 2012.23,-71.74 2012.53,-64.75"/>
</g>
<!-- Node27 -->
<g id="node27" class="node">
<title>Node27</title>
<g id="a_node27"><a xlink:title=" ">
<polygon fill="white" stroke="#bfbfbf" points="1473,-185 1473,-204 1530,-204 1530,-185 1473,-185"/>
<text text-anchor="middle" x="1501.5" y="-192" font-family="Helvetica,sans-Serif" font-size="10.00">typeinfo</text>
</a>
</g>
</g>
<!-- Node19&#45;&gt;Node27 -->
<g id="edge34" class="edge">
<title>Node19&#45;&gt;Node27</title>
<path fill="none" stroke="midnightblue" d="M1308.22,-249.6C1354.14,-239.59 1412.49,-225.71 1463.5,-210 1465.92,-209.25 1468.41,-208.43 1470.9,-207.57"/>
<polygon fill="midnightblue" stroke="midnightblue" points="1472.17,-210.84 1480.37,-204.13 1469.77,-204.26 1472.17,-210.84"/>
</g>
<!-- Node28 -->
<g id="node28" class="node">
<title>Node28</title>
<g id="a_node28"><a xlink:title=" ">
<polygon fill="white" stroke="#bfbfbf" points="1548,-185 1548,-204 1593,-204 1593,-185 1548,-185"/>
<text text-anchor="middle" x="1570.5" y="-192" font-family="Helvetica,sans-Serif" font-size="10.00">utility</text>
</a>
</g>
</g>
<!-- Node19&#45;&gt;Node28 -->
<g id="edge35" class="edge">
<title>Node19&#45;&gt;Node28</title>
<path fill="none" stroke="midnightblue" d="M1308.07,-257.38C1371.9,-249.17 1462.79,-234.36 1539.5,-210 1541.17,-209.47 1542.87,-208.87 1544.57,-208.22"/>
<polygon fill="midnightblue" stroke="midnightblue" points="1546.27,-211.3 1554.09,-204.14 1543.52,-204.86 1546.27,-211.3"/>
</g>
<!-- Node29 -->
<g id="node29" class="node">
<title>Node29</title>
<g id="a_node29"><a xlink:title=" ">
<polygon fill="white" stroke="#bfbfbf" points="1611.5,-185 1611.5,-204 1709.5,-204 1709.5,-185 1611.5,-185"/>
<text text-anchor="middle" x="1660.5" y="-192" font-family="Helvetica,sans-Serif" font-size="10.00">hpx/hpx_init.hpp</text>
</a>
</g>
</g>
<!-- Node19&#45;&gt;Node29 -->
<g id="edge38" class="edge">
<title>Node19&#45;&gt;Node29</title>
<path fill="none" stroke="midnightblue" d="M1308.36,-256.22C1384.57,-246.47 1501.79,-230.06 1602.5,-210 1607.84,-208.94 1613.44,-207.7 1618.95,-206.4"/>
<polygon fill="midnightblue" stroke="midnightblue" points="1619.82,-209.79 1628.72,-204.03 1618.17,-202.99 1619.82,-209.79"/>
</g>
<!-- Node30 -->
<g id="node30" class="node">
<title>Node30</title>
<g id="a_node30"><a xlink:title=" ">
<polygon fill="white" stroke="#bfbfbf" points="1728,-185 1728,-204 1853,-204 1853,-185 1728,-185"/>
<text text-anchor="middle" x="1790.5" y="-192" font-family="Helvetica,sans-Serif" font-size="10.00">hpx/include/async.hpp</text>
</a>
</g>
</g>
<!-- Node19&#45;&gt;Node30 -->
<g id="edge39" class="edge">
<title>Node19&#45;&gt;Node30</title>
<path fill="none" stroke="midnightblue" d="M1308.16,-258.93C1405.67,-249.88 1574.63,-232.65 1718.5,-210 1725.94,-208.83 1733.79,-207.42 1741.45,-205.96"/>
<polygon fill="midnightblue" stroke="midnightblue" points="1742.24,-209.37 1751.37,-204.01 1740.89,-202.5 1742.24,-209.37"/>
</g>
<!-- Node31 -->
<g id="node31" class="node">
<title>Node31</title>
<g id="a_node31"><a xlink:title=" ">
<polygon fill="white" stroke="#bfbfbf" points="1871.5,-185 1871.5,-204 2017.5,-204 2017.5,-185 1871.5,-185"/>
<text text-anchor="middle" x="1944.5" y="-192" font-family="Helvetica,sans-Serif" font-size="10.00">hpx/include/iostreams.hpp</text>
</a>
</g>
</g>
<!-- Node19&#45;&gt;Node31 -->
<g id="edge40" class="edge">
<title>Node19&#45;&gt;Node31</title>
<path fill="none" stroke="midnightblue" d="M1308.19,-261.14C1429.03,-253.36 1664.05,-236.25 1862.5,-210 1871.55,-208.8 1881.13,-207.31 1890.42,-205.75"/>
<polygon fill="midnightblue" stroke="midnightblue" points="1891.09,-209.19 1900.35,-204.03 1889.9,-202.29 1891.09,-209.19"/>
</g>
<!-- Node32 -->
<g id="node32" class="node">
<title>Node32</title>
<g id="a_node32"><a xlink:title=" ">
<polygon fill="white" stroke="#bfbfbf" points="2035.5,-185 2035.5,-204 2151.5,-204 2151.5,-185 2035.5,-185"/>
<text text-anchor="middle" x="2093.5" y="-192" font-family="Helvetica,sans-Serif" font-size="10.00">hpx/include/lcos.hpp</text>
</a>
</g>
</g>
<!-- Node19&#45;&gt;Node32 -->
<g id="edge41" class="edge">
<title>Node19&#45;&gt;Node32</title>
<path fill="none" stroke="midnightblue" d="M1308.14,-264.16C1452.75,-260.02 1765.45,-247.2 2026.5,-210 2033.71,-208.97 2041.3,-207.61 2048.68,-206.13"/>
<polygon fill="midnightblue" stroke="midnightblue" points="2049.48,-209.53 2058.55,-204.05 2048.04,-202.68 2049.48,-209.53"/>
</g>
<!-- Node33 -->
<g id="node33" class="node">
<title>Node33</title>
<g id="a_node33"><a xlink:title=" ">
<polygon fill="white" stroke="#bfbfbf" points="2170,-185 2170,-204 2291,-204 2291,-185 2170,-185"/>
<text text-anchor="middle" x="2230.5" y="-192" font-family="Helvetica,sans-Serif" font-size="10.00">hpx/lcos/promise.hpp</text>
</a>
</g>
</g>
<!-- Node19&#45;&gt;Node33 -->
<g id="edge42" class="edge">
<title>Node19&#45;&gt;Node33</title>
<path fill="none" stroke="midnightblue" d="M1308.06,-265.07C1470.16,-262.34 1847.03,-251.65 2160.5,-210 2168.29,-208.97 2176.5,-207.56 2184.45,-206.02"/>
<polygon fill="midnightblue" stroke="midnightblue" points="2185.23,-209.44 2194.34,-204.03 2183.84,-202.57 2185.23,-209.44"/>
</g>
<!-- Node34 -->
<g id="node34" class="node">
<title>Node34</title>
<g id="a_node34"><a xlink:title=" ">
<polygon fill="white" stroke="#bfbfbf" points="2309.5,-185 2309.5,-204 2399.5,-204 2399.5,-185 2309.5,-185"/>
<text text-anchor="middle" x="2354.5" y="-192" font-family="Helvetica,sans-Serif" font-size="10.00">hpx/mutex.hpp</text>
</a>
</g>
</g>
<!-- Node19&#45;&gt;Node34 -->
<g id="edge43" class="edge">
<title>Node19&#45;&gt;Node34</title>
<path fill="none" stroke="midnightblue" d="M1308.25,-263.98C1523.83,-258.25 2109.47,-240.29 2300.5,-210 2306.01,-209.13 2311.77,-207.91 2317.39,-206.56"/>
<polygon fill="midnightblue" stroke="midnightblue" points="2318.46,-209.9 2327.27,-204.01 2316.71,-203.12 2318.46,-209.9"/>
</g>
<!-- Node35 -->
<g id="node35" class="node">
<title>Node35</title>
<g id="a_node35"><a xlink:title=" ">
<polygon fill="white" stroke="#bfbfbf" points="2417.5,-185 2417.5,-204 2557.5,-204 2557.5,-185 2417.5,-185"/>
<text text-anchor="middle" x="2487.5" y="-192" font-family="Helvetica,sans-Serif" font-size="10.00">boost/core/demangle.hpp</text>
</a>
</g>
</g>
<!-- Node19&#45;&gt;Node35 -->
<g id="edge44" class="edge">
<title>Node19&#45;&gt;Node35</title>
<path fill="none" stroke="midnightblue" d="M1308.35,-265.89C1500.02,-264.83 1996.83,-257.32 2408.5,-210 2417.66,-208.95 2427.35,-207.47 2436.69,-205.86"/>
<polygon fill="midnightblue" stroke="midnightblue" points="2437.43,-209.29 2446.65,-204.08 2436.19,-202.4 2437.43,-209.29"/>
</g>
<!-- Node36 -->
<g id="node36" class="node">
<title>Node36</title>
<g id="a_node36"><a xlink:title=" ">
<polygon fill="white" stroke="#bfbfbf" points="2576,-185 2576,-204 2677,-204 2677,-185 2576,-185"/>
<text text-anchor="middle" x="2626.5" y="-192" font-family="Helvetica,sans-Serif" font-size="10.00">boost/format.hpp</text>
</a>
</g>
</g>
<!-- Node19&#45;&gt;Node36 -->
<g id="edge45" class="edge">
<title>Node19&#45;&gt;Node36</title>
<path fill="none" stroke="midnightblue" d="M1308.25,-264.69C1558.9,-260.3 2321.4,-244.4 2566.5,-210 2572.91,-209.1 2579.63,-207.82 2586.16,-206.39"/>
<polygon fill="midnightblue" stroke="midnightblue" points="2587.26,-209.72 2596.2,-204.04 2585.66,-202.91 2587.26,-209.72"/>
</g>
<!-- Node37 -->
<g id="node37" class="node">
<title>Node37</title>
<g id="a_node37"><a xlink:href="executor__pools__interface_8hpp.html" target="_top" xlink:title=" ">
<polygon fill="white" stroke="black" points="899,-179.5 899,-209.5 1062,-209.5 1062,-179.5 899,-179.5"/>
<text text-anchor="start" x="907" y="-197.5" font-family="Helvetica,sans-Serif" font-size="10.00">cppuddle/executor_recycling</text>
<text text-anchor="middle" x="980.5" y="-186.5" font-family="Helvetica,sans-Serif" font-size="10.00">/executor_pools_interface.hpp</text>
</a>
</g>
</g>
<!-- Node19&#45;&gt;Node37 -->
<g id="edge48" class="edge">
<title>Node19&#45;&gt;Node37</title>
<path fill="none" stroke="midnightblue" d="M1159.02,-246.46C1121.57,-235.77 1075.63,-222.65 1039.73,-212.41"/>
<polygon fill="midnightblue" stroke="midnightblue" points="1040.47,-208.98 1029.89,-209.6 1038.54,-215.71 1040.47,-208.98"/>
</g>
<!-- Node38 -->
<g id="node38" class="node">
<title>Node38</title>
<g id="a_node38"><a xlink:href="executor__pools__management_8hpp.html" target="_top" xlink:title=" ">
<polygon fill="white" stroke="black" points="995,-112.5 995,-142.5 1210,-142.5 1210,-112.5 995,-112.5"/>
<text text-anchor="start" x="1003" y="-130.5" font-family="Helvetica,sans-Serif" font-size="10.00">cppuddle/executor_recycling</text>
<text text-anchor="middle" x="1102.5" y="-119.5" font-family="Helvetica,sans-Serif" font-size="10.00">/detail/executor_pools_management.hpp</text>
</a>
</g>
</g>
<!-- Node37&#45;&gt;Node38 -->
<g id="edge49" class="edge">
<title>Node37&#45;&gt;Node38</title>
<path fill="none" stroke="midnightblue" d="M1006.97,-179.4C1024.56,-170.03 1047.85,-157.62 1067.04,-147.39"/>
<polygon fill="midnightblue" stroke="midnightblue" points="1068.9,-150.37 1076.08,-142.58 1065.61,-144.19 1068.9,-150.37"/>
</g>
<!-- Node38&#45;&gt;Node7 -->
<g id="edge52" class="edge">
<title>Node38&#45;&gt;Node7</title>
<path fill="none" stroke="midnightblue" d="M994.83,-112.51C893.68,-99.37 748.11,-80.46 680.97,-71.74"/>
<polygon fill="midnightblue" stroke="midnightblue" points="681.25,-68.25 670.88,-70.43 680.35,-75.19 681.25,-68.25"/>
</g>
<!-- Node38&#45;&gt;Node9 -->
<g id="edge54" class="edge">
<title>Node38&#45;&gt;Node9</title>
<path fill="none" stroke="midnightblue" d="M1059.13,-112.4C1027.51,-102.12 985.17,-88.35 955.43,-78.68"/>
<polygon fill="midnightblue" stroke="midnightblue" points="956.45,-75.33 945.86,-75.57 954.29,-81.99 956.45,-75.33"/>
</g>
<!-- Node38&#45;&gt;Node11 -->
<g id="edge55" class="edge">
<title>Node38&#45;&gt;Node11</title>
<path fill="none" stroke="midnightblue" d="M994.64,-117.01C841.27,-103.51 567.51,-79.41 465.89,-70.47"/>
<polygon fill="midnightblue" stroke="midnightblue" points="466.03,-66.97 455.76,-69.58 465.42,-73.94 466.03,-66.97"/>
</g>
<!-- Node38&#45;&gt;Node12 -->
<g id="edge56" class="edge">
<title>Node38&#45;&gt;Node12</title>
<path fill="none" stroke="midnightblue" d="M1172.76,-112.48C1214.7,-101.04 1255.54,-82.44 1231.5,-56 1202.15,-23.72 897.72,-14.04 793.94,-11.67"/>
<polygon fill="midnightblue" stroke="midnightblue" points="793.77,-8.17 783.7,-11.45 793.62,-15.16 793.77,-8.17"/>
</g>
<!-- Node38&#45;&gt;Node15 -->
<g id="edge59" class="edge">
<title>Node38&#45;&gt;Node15</title>
<path fill="none" stroke="midnightblue" d="M1039.8,-112.47C991.03,-101.56 924.55,-86.7 881.09,-76.97"/>
<polygon fill="midnightblue" stroke="midnightblue" points="881.63,-73.51 871.11,-74.74 880.1,-80.34 881.63,-73.51"/>
</g>
<!-- Node38&#45;&gt;Node17 -->
<g id="edge60" class="edge">
<title>Node38&#45;&gt;Node17</title>
<path fill="none" stroke="midnightblue" d="M994.76,-118.34C966.68,-116.24 936.46,-114.01 908.5,-112 680.71,-95.6 621.01,-95.65 389.62,-76.07"/>
<polygon fill="midnightblue" stroke="midnightblue" points="389.8,-72.57 379.54,-75.21 389.21,-79.55 389.8,-72.57"/>
</g>
<!-- Node38&#45;&gt;Node26 -->
<g id="edge58" class="edge">
<title>Node38&#45;&gt;Node26</title>
<path fill="none" stroke="midnightblue" d="M1210.28,-119.2C1411.22,-105.6 1833.33,-77.03 1950.66,-69.09"/>
<polygon fill="midnightblue" stroke="midnightblue" points="1951.01,-72.57 1960.75,-68.4 1950.53,-65.59 1951.01,-72.57"/>
</g>
<!-- Node39 -->
<g id="node39" class="node">
<title>Node39</title>
<g id="a_node39"><a xlink:title=" ">
<polygon fill="white" stroke="#bfbfbf" points="967.5,-56.5 967.5,-75.5 1031.5,-75.5 1031.5,-56.5 967.5,-56.5"/>
<text text-anchor="middle" x="999.5" y="-63.5" font-family="Helvetica,sans-Serif" font-size="10.00">algorithm</text>
</a>
</g>
</g>
<!-- Node38&#45;&gt;Node39 -->
<g id="edge50" class="edge">
<title>Node38&#45;&gt;Node39</title>
<path fill="none" stroke="midnightblue" d="M1078.09,-112.4C1061.58,-102.86 1039.88,-90.32 1023.46,-80.84"/>
<polygon fill="midnightblue" stroke="midnightblue" points="1024.9,-77.63 1014.49,-75.66 1021.4,-83.69 1024.9,-77.63"/>
</g>
<!-- Node40 -->
<g id="node40" class="node">
<title>Node40</title>
<g id="a_node40"><a xlink:title=" ">
<polygon fill="white" stroke="#bfbfbf" points="1049.5,-56.5 1049.5,-75.5 1091.5,-75.5 1091.5,-56.5 1049.5,-56.5"/>
<text text-anchor="middle" x="1070.5" y="-63.5" font-family="Helvetica,sans-Serif" font-size="10.00">array</text>
</a>
</g>
</g>
<!-- Node38&#45;&gt;Node40 -->
<g id="edge51" class="edge">
<title>Node38&#45;&gt;Node40</title>
<path fill="none" stroke="midnightblue" d="M1094.92,-112.4C1090.46,-104.11 1084.78,-93.55 1080.02,-84.71"/>
<polygon fill="midnightblue" stroke="midnightblue" points="1082.98,-82.81 1075.16,-75.66 1076.81,-86.12 1082.98,-82.81"/>
</g>
<!-- Node41 -->
<g id="node41" class="node">
<title>Node41</title>
<g id="a_node41"><a xlink:title=" ">
<polygon fill="white" stroke="#bfbfbf" points="1110,-56.5 1110,-75.5 1157,-75.5 1157,-56.5 1110,-56.5"/>
<text text-anchor="middle" x="1133.5" y="-63.5" font-family="Helvetica,sans-Serif" font-size="10.00">deque</text>
</a>
</g>
</g>
<!-- Node38&#45;&gt;Node41 -->
<g id="edge53" class="edge">
<title>Node38&#45;&gt;Node41</title>
<path fill="none" stroke="midnightblue" d="M1109.85,-112.4C1114.17,-104.11 1119.67,-93.55 1124.27,-84.71"/>
<polygon fill="midnightblue" stroke="midnightblue" points="1127.47,-86.14 1128.99,-75.66 1121.26,-82.91 1127.47,-86.14"/>
</g>
<!-- Node42 -->
<g id="node42" class="node">
<title>Node42</title>
<g id="a_node42"><a xlink:title=" ">
<polygon fill="white" stroke="#bfbfbf" points="1175,-56.5 1175,-75.5 1222,-75.5 1222,-56.5 1175,-56.5"/>
<text text-anchor="middle" x="1198.5" y="-63.5" font-family="Helvetica,sans-Serif" font-size="10.00">queue</text>
</a>
</g>
</g>
<!-- Node38&#45;&gt;Node42 -->
<g id="edge57" class="edge">
<title>Node38&#45;&gt;Node42</title>
<path fill="none" stroke="midnightblue" d="M1125.25,-112.4C1140.49,-102.95 1160.49,-90.56 1175.74,-81.11"/>
<polygon fill="midnightblue" stroke="midnightblue" points="1177.88,-83.9 1184.53,-75.66 1174.19,-77.95 1177.88,-83.9"/>
</g>
<!-- Node43&#45;&gt;Node19 -->
<g id="edge62" class="edge">
<title>Node43&#45;&gt;Node19</title>
<path fill="none" stroke="midnightblue" d="M1223.05,-324.43C1223.69,-316.27 1224.45,-306.62 1225.16,-297.63"/>
<polygon fill="midnightblue" stroke="midnightblue" points="1228.66,-297.75 1225.96,-287.51 1221.68,-297.2 1228.66,-297.75"/>
</g>
</g>
</svg>
