<?xml version="1.0" encoding="UTF-8" standalone="no"?>
<!DOCTYPE svg PUBLIC "-//W3C//DTD SVG 1.1//EN"
 "http://www.w3.org/Graphics/SVG/1.1/DTD/svg11.dtd">
<!-- Generated by graphviz version 2.43.0 (0)
 -->
<!-- Title: tests/work_aggregation_cpu_triad.cpp Pages: 1 -->
<svg width="2751pt" height="500pt"
 viewBox="0.00 0.00 2750.54 500.00" xmlns="http://www.w3.org/2000/svg" xmlns:xlink="http://www.w3.org/1999/xlink">
<g id="graph0" class="graph" transform="scale(1 1) rotate(0) translate(4 496)">
<title>tests/work_aggregation_cpu_triad.cpp</title>
<!-- Node1 -->
<g id="Node000001" class="node">
<title>Node1</title>
<g id="a_Node000001"><a xlink:title=" ">
<polygon fill="#999999" stroke="#666666" points="871,-492 740,-492 740,-462 871,-462 871,-492"/>
<text text-anchor="start" x="748" y="-480" font-family="Helvetica,sans-Serif" font-size="10.00">tests/work_aggregation</text>
<text text-anchor="middle" x="805.5" y="-469" font-family="Helvetica,sans-Serif" font-size="10.00">_cpu_triad.cpp</text>
</a>
</g>
</g>
<!-- Node2 -->
<g id="Node000002" class="node">
<title>Node2</title>
<g id="a_Node000002"><a xlink:title=" ">
<polygon fill="#e0e0e0" stroke="#999999" points="125,-200.5 0,-200.5 0,-181.5 125,-181.5 125,-200.5"/>
<text text-anchor="middle" x="62.5" y="-188.5" font-family="Helvetica,sans-Serif" font-size="10.00">hpx/futures/future.hpp</text>
</a>
</g>
</g>
<!-- Node1&#45;&gt;Node2 -->
<g id="edge1_Node000001_Node000002" class="edge">
<title>Node1&#45;&gt;Node2</title>
<g id="a_edge1_Node000001_Node000002"><a xlink:title=" ">
<path fill="none" stroke="#63b8ff" d="M747.14,-461.98C711.15,-452.84 664.24,-440.03 623.5,-426 413.95,-353.84 170.65,-242.59 90.01,-204.95"/>
<polygon fill="#63b8ff" stroke="#63b8ff" points="91.12,-201.6 80.58,-200.54 88.15,-207.94 91.12,-201.6"/>
</a>
</g>
</g>
<!-- Node3 -->
<g id="Node000003" class="node">
<title>Node3</title>
<g id="a_Node000003"><a xlink:href="std__recycling__allocators_8hpp.html" target="_top" xlink:title=" ">
<polygon fill="white" stroke="#666666" points="790.5,-426 632.5,-426 632.5,-396 790.5,-396 790.5,-426"/>
<text text-anchor="start" x="640.5" y="-414" font-family="Helvetica,sans-Serif" font-size="10.00">cppuddle/memory_recycling</text>
<text text-anchor="middle" x="711.5" y="-403" font-family="Helvetica,sans-Serif" font-size="10.00">/std_recycling_allocators.hpp</text>
</a>
</g>
</g>
<!-- Node1&#45;&gt;Node3 -->
<g id="edge2_Node000001_Node000003" class="edge">
<title>Node1&#45;&gt;Node3</title>
<g id="a_edge2_Node000001_Node000003"><a xlink:title=" ">
<path fill="none" stroke="#63b8ff" d="M784.64,-461.8C771.74,-453.01 754.99,-441.61 740.77,-431.93"/>
<polygon fill="#63b8ff" stroke="#63b8ff" points="742.54,-428.9 732.3,-426.16 738.6,-434.69 742.54,-428.9"/>
</a>
</g>
</g>
<!-- Node18 -->
<g id="Node000018" class="node">
<title>Node18</title>
<g id="a_Node000018"><a xlink:href="kernel__aggregation__interface_8hpp.html" target="_top" xlink:title=" ">
<polygon fill="white" stroke="#666666" points="992,-426 809,-426 809,-396 992,-396 992,-426"/>
<text text-anchor="start" x="817" y="-414" font-family="Helvetica,sans-Serif" font-size="10.00">cppuddle/kernel_aggregation</text>
<text text-anchor="middle" x="900.5" y="-403" font-family="Helvetica,sans-Serif" font-size="10.00">/kernel_aggregation_interface.hpp</text>
</a>
</g>
</g>
<!-- Node1&#45;&gt;Node18 -->
<g id="edge18_Node000001_Node000018" class="edge">
<title>Node1&#45;&gt;Node18</title>
<g id="a_edge18_Node000001_Node000018"><a xlink:title=" ">
<path fill="none" stroke="#63b8ff" d="M826.58,-461.8C839.62,-453.01 856.55,-441.61 870.92,-431.93"/>
<polygon fill="#63b8ff" stroke="#63b8ff" points="873.14,-434.65 879.48,-426.16 869.23,-428.85 873.14,-434.65"/>
</a>
</g>
</g>
<!-- Node44 -->
<g id="Node000044" class="node">
<title>Node44</title>
<g id="a_Node000044"><a xlink:title=" ">
<polygon fill="#e0e0e0" stroke="#999999" points="1160.5,-420.5 1010.5,-420.5 1010.5,-401.5 1160.5,-401.5 1160.5,-420.5"/>
<text text-anchor="middle" x="1085.5" y="-408.5" font-family="Helvetica,sans-Serif" font-size="10.00">boost/program_options.hpp</text>
</a>
</g>
</g>
<!-- Node1&#45;&gt;Node44 -->
<g id="edge64_Node000001_Node000044" class="edge">
<title>Node1&#45;&gt;Node44</title>
<g id="a_edge64_Node000001_Node000044"><a xlink:title=" ">
<path fill="none" stroke="#63b8ff" d="M866.95,-461.95C918.54,-450.16 991.17,-433.56 1038.29,-422.79"/>
<polygon fill="#63b8ff" stroke="#63b8ff" points="1039.27,-426.16 1048.24,-420.52 1037.71,-419.33 1039.27,-426.16"/>
</a>
</g>
</g>
<!-- Node4 -->
<g id="Node000004" class="node">
<title>Node4</title>
<g id="a_Node000004"><a xlink:href="buffer__management__interface_8hpp.html" target="_top" xlink:title=" ">
<polygon fill="white" stroke="#666666" points="804,-272 619,-272 619,-253 804,-253 804,-272"/>
<text text-anchor="middle" x="711.5" y="-260" font-family="Helvetica,sans-Serif" font-size="10.00">buffer_management_interface.hpp</text>
</a>
</g>
</g>
<!-- Node3&#45;&gt;Node4 -->
<g id="edge3_Node000003_Node000004" class="edge">
<title>Node3&#45;&gt;Node4</title>
<g id="a_edge3_Node000003_Node000004"><a xlink:title=" ">
<path fill="none" stroke="#63b8ff" d="M711.5,-395.95C711.5,-369.53 711.5,-312.39 711.5,-282.54"/>
<polygon fill="#63b8ff" stroke="#63b8ff" points="715,-282.23 711.5,-272.23 708,-282.23 715,-282.23"/>
</a>
</g>
</g>
<!-- Node5 -->
<g id="Node000005" class="node">
<title>Node5</title>
<g id="a_Node000005"><a xlink:href="buffer__management_8hpp.html" target="_top" xlink:title=" ">
<polygon fill="white" stroke="#666666" points="795,-200.5 628,-200.5 628,-181.5 795,-181.5 795,-200.5"/>
<text text-anchor="middle" x="711.5" y="-188.5" font-family="Helvetica,sans-Serif" font-size="10.00">detail/buffer_management.hpp</text>
</a>
</g>
</g>
<!-- Node4&#45;&gt;Node5 -->
<g id="edge4_Node000004_Node000005" class="edge">
<title>Node4&#45;&gt;Node5</title>
<g id="a_edge4_Node000004_Node000005"><a xlink:title=" ">
<path fill="none" stroke="#63b8ff" d="M711.5,-252.98C711.5,-242.56 711.5,-224.61 711.5,-210.88"/>
<polygon fill="#63b8ff" stroke="#63b8ff" points="715,-210.59 711.5,-200.59 708,-210.59 715,-210.59"/>
</a>
</g>
</g>
<!-- Node6 -->
<g id="Node000006" class="node">
<title>Node6</title>
<g id="a_Node000006"><a xlink:title=" ">
<polygon fill="#e0e0e0" stroke="#999999" points="938.5,-134.5 888.5,-134.5 888.5,-115.5 938.5,-115.5 938.5,-134.5"/>
<text text-anchor="middle" x="913.5" y="-122.5" font-family="Helvetica,sans-Serif" font-size="10.00">atomic</text>
</a>
</g>
</g>
<!-- Node5&#45;&gt;Node6 -->
<g id="edge5_Node000005_Node000006" class="edge">
<title>Node5&#45;&gt;Node6</title>
<g id="a_edge5_Node000005_Node000006"><a xlink:title=" ">
<path fill="none" stroke="#63b8ff" d="M743.7,-181.46C777.75,-172.19 832.88,-156.49 879.5,-140 880.93,-139.49 882.39,-138.96 883.85,-138.41"/>
<polygon fill="#63b8ff" stroke="#63b8ff" points="885.46,-141.54 893.49,-134.63 882.91,-135.02 885.46,-141.54"/>
</a>
</g>
</g>
<!-- Node7 -->
<g id="Node000007" class="node">
<title>Node7</title>
<g id="a_Node000007"><a xlink:title=" ">
<polygon fill="#e0e0e0" stroke="#999999" points="395.5,-74 343.5,-74 343.5,-55 395.5,-55 395.5,-74"/>
<text text-anchor="middle" x="369.5" y="-62" font-family="Helvetica,sans-Serif" font-size="10.00">cassert</text>
</a>
</g>
</g>
<!-- Node5&#45;&gt;Node7 -->
<g id="edge6_Node000005_Node000007" class="edge">
<title>Node5&#45;&gt;Node7</title>
<g id="a_edge6_Node000005_Node000007"><a xlink:title=" ">
<path fill="none" stroke="#63b8ff" d="M655.96,-181.43C643.63,-179.59 630.63,-177.69 618.5,-176 555.93,-167.3 378.25,-187.42 336.5,-140 321.53,-123 338.19,-98.13 352.77,-81.88"/>
<polygon fill="#63b8ff" stroke="#63b8ff" points="355.67,-83.91 360.03,-74.25 350.6,-79.08 355.67,-83.91"/>
</a>
</g>
</g>
<!-- Node8 -->
<g id="Node000008" class="node">
<title>Node8</title>
<g id="a_Node000008"><a xlink:title=" ">
<polygon fill="#e0e0e0" stroke="#999999" points="644,-134.5 579,-134.5 579,-115.5 644,-115.5 644,-134.5"/>
<text text-anchor="middle" x="611.5" y="-122.5" font-family="Helvetica,sans-Serif" font-size="10.00">functional</text>
</a>
</g>
</g>
<!-- Node5&#45;&gt;Node8 -->
<g id="edge7_Node000005_Node000008" class="edge">
<title>Node5&#45;&gt;Node8</title>
<g id="a_edge7_Node000005_Node000008"><a xlink:title=" ">
<path fill="none" stroke="#63b8ff" d="M698.01,-181.37C681.54,-170.82 653.43,-152.84 633.74,-140.23"/>
<polygon fill="#63b8ff" stroke="#63b8ff" points="635.4,-137.14 625.09,-134.7 631.63,-143.04 635.4,-137.14"/>
</a>
</g>
</g>
<!-- Node9 -->
<g id="Node000009" class="node">
<title>Node9</title>
<g id="a_Node000009"><a xlink:title=" ">
<polygon fill="#e0e0e0" stroke="#999999" points="784.5,-74 724.5,-74 724.5,-55 784.5,-55 784.5,-74"/>
<text text-anchor="middle" x="754.5" y="-62" font-family="Helvetica,sans-Serif" font-size="10.00">iostream</text>
</a>
</g>
</g>
<!-- Node5&#45;&gt;Node9 -->
<g id="edge8_Node000005_Node000009" class="edge">
<title>Node5&#45;&gt;Node9</title>
<g id="a_edge8_Node000005_Node000009"><a xlink:title=" ">
<path fill="none" stroke="#63b8ff" d="M706.4,-181.11C698.35,-165.8 684.75,-133.83 696.5,-110 702.99,-96.85 715.43,-86.5 727.14,-79.11"/>
<polygon fill="#63b8ff" stroke="#63b8ff" points="728.96,-82.1 735.83,-74.03 725.43,-76.05 728.96,-82.1"/>
</a>
</g>
</g>
<!-- Node10 -->
<g id="Node000010" class="node">
<title>Node10</title>
<g id="a_Node000010"><a xlink:title=" ">
<polygon fill="#e0e0e0" stroke="#999999" points="213.5,-134.5 181.5,-134.5 181.5,-115.5 213.5,-115.5 213.5,-134.5"/>
<text text-anchor="middle" x="197.5" y="-122.5" font-family="Helvetica,sans-Serif" font-size="10.00">list</text>
</a>
</g>
</g>
<!-- Node5&#45;&gt;Node10 -->
<g id="edge9_Node000005_Node000010" class="edge">
<title>Node5&#45;&gt;Node10</title>
<g id="a_edge9_Node000005_Node000010"><a xlink:title=" ">
<path fill="none" stroke="#63b8ff" d="M658.46,-181.48C645.41,-179.53 631.47,-177.57 618.5,-176 445.26,-155 395.96,-185.58 227.5,-140 226.01,-139.6 224.5,-139.12 222.99,-138.6"/>
<polygon fill="#63b8ff" stroke="#63b8ff" points="223.89,-135.18 213.31,-134.61 221.22,-141.66 223.89,-135.18"/>
</a>
</g>
</g>
<!-- Node11 -->
<g id="Node000011" class="node">
<title>Node11</title>
<g id="a_Node000011"><a xlink:title=" ">
<polygon fill="#e0e0e0" stroke="#999999" points="860.5,-74 802.5,-74 802.5,-55 860.5,-55 860.5,-74"/>
<text text-anchor="middle" x="831.5" y="-62" font-family="Helvetica,sans-Serif" font-size="10.00">memory</text>
</a>
</g>
</g>
<!-- Node5&#45;&gt;Node11 -->
<g id="edge10_Node000005_Node000011" class="edge">
<title>Node5&#45;&gt;Node11</title>
<g id="a_edge10_Node000005_Node000011"><a xlink:title=" ">
<path fill="none" stroke="#63b8ff" d="M711.7,-181.44C712.52,-165.52 716.41,-131.04 734.5,-110 749.49,-92.58 772.72,-81.59 792.7,-74.89"/>
<polygon fill="#63b8ff" stroke="#63b8ff" points="793.97,-78.16 802.49,-71.86 791.9,-71.48 793.97,-78.16"/>
</a>
</g>
</g>
<!-- Node12 -->
<g id="Node000012" class="node">
<title>Node12</title>
<g id="a_Node000012"><a xlink:title=" ">
<polygon fill="#e0e0e0" stroke="#999999" points="358.5,-19 310.5,-19 310.5,0 358.5,0 358.5,-19"/>
<text text-anchor="middle" x="334.5" y="-7" font-family="Helvetica,sans-Serif" font-size="10.00">mutex</text>
</a>
</g>
</g>
<!-- Node5&#45;&gt;Node12 -->
<g id="edge11_Node000005_Node000012" class="edge">
<title>Node5&#45;&gt;Node12</title>
<g id="a_edge11_Node000005_Node000012"><a xlink:title=" ">
<path fill="none" stroke="#63b8ff" d="M657.46,-181.47C644.7,-179.56 631.13,-177.63 618.5,-176 469.54,-156.82 426.22,-183.61 282.5,-140 278.72,-138.85 158.55,-77.38 156.5,-74 123.97,-20.24 239.72,-11.38 300.1,-10.32"/>
<polygon fill="#63b8ff" stroke="#63b8ff" points="300.38,-13.82 310.34,-10.21 300.3,-6.82 300.38,-13.82"/>
</a>
</g>
</g>
<!-- Node13 -->
<g id="Node000013" class="node">
<title>Node13</title>
<g id="a_Node000013"><a xlink:title=" ">
<polygon fill="#e0e0e0" stroke="#999999" points="1012.5,-134.5 956.5,-134.5 956.5,-115.5 1012.5,-115.5 1012.5,-134.5"/>
<text text-anchor="middle" x="984.5" y="-122.5" font-family="Helvetica,sans-Serif" font-size="10.00">optional</text>
</a>
</g>
</g>
<!-- Node5&#45;&gt;Node13 -->
<g id="edge12_Node000005_Node000013" class="edge">
<title>Node5&#45;&gt;Node13</title>
<g id="a_edge12_Node000005_Node000013"><a xlink:title=" ">
<path fill="none" stroke="#63b8ff" d="M762.7,-181.49C810.88,-172.93 884.8,-158.39 947.5,-140 949.64,-139.37 951.84,-138.68 954.04,-137.94"/>
<polygon fill="#63b8ff" stroke="#63b8ff" points="955.31,-141.21 963.56,-134.56 952.96,-134.61 955.31,-141.21"/>
</a>
</g>
</g>
<!-- Node14 -->
<g id="Node000014" class="node">
<title>Node14</title>
<g id="a_Node000014"><a xlink:title=" ">
<polygon fill="#e0e0e0" stroke="#999999" points="1096,-134.5 1031,-134.5 1031,-115.5 1096,-115.5 1096,-134.5"/>
<text text-anchor="middle" x="1063.5" y="-122.5" font-family="Helvetica,sans-Serif" font-size="10.00">stdexcept</text>
</a>
</g>
</g>
<!-- Node5&#45;&gt;Node14 -->
<g id="edge13_Node000005_Node000014" class="edge">
<title>Node5&#45;&gt;Node14</title>
<g id="a_edge13_Node000005_Node000014"><a xlink:title=" ">
<path fill="none" stroke="#63b8ff" d="M785.46,-181.49C848.69,-173.41 941.82,-159.57 1021.5,-140 1024.46,-139.27 1027.52,-138.43 1030.57,-137.53"/>
<polygon fill="#63b8ff" stroke="#63b8ff" points="1031.66,-140.86 1040.15,-134.53 1029.56,-134.18 1031.66,-140.86"/>
</a>
</g>
</g>
<!-- Node15 -->
<g id="Node000015" class="node">
<title>Node15</title>
<g id="a_Node000015"><a xlink:title=" ">
<polygon fill="#e0e0e0" stroke="#999999" points="948,-74 879,-74 879,-55 948,-55 948,-74"/>
<text text-anchor="middle" x="913.5" y="-62" font-family="Helvetica,sans-Serif" font-size="10.00">type_traits</text>
</a>
</g>
</g>
<!-- Node5&#45;&gt;Node15 -->
<g id="edge14_Node000005_Node000015" class="edge">
<title>Node5&#45;&gt;Node15</title>
<g id="a_edge14_Node000005_Node000015"><a xlink:title=" ">
<path fill="none" stroke="#63b8ff" d="M715.43,-181.09C723.16,-164.58 741.94,-129.15 768.5,-110 784.7,-98.32 832.64,-84.85 869,-75.82"/>
<polygon fill="#63b8ff" stroke="#63b8ff" points="870.03,-79.17 878.91,-73.39 868.36,-72.37 870.03,-79.17"/>
</a>
</g>
</g>
<!-- Node16 -->
<g id="Node000016" class="node">
<title>Node16</title>
<g id="a_Node000016"><a xlink:title=" ">
<polygon fill="#e0e0e0" stroke="#999999" points="870,-134.5 777,-134.5 777,-115.5 870,-115.5 870,-134.5"/>
<text text-anchor="middle" x="823.5" y="-122.5" font-family="Helvetica,sans-Serif" font-size="10.00">unordered_map</text>
</a>
</g>
</g>
<!-- Node5&#45;&gt;Node16 -->
<g id="edge15_Node000005_Node000016" class="edge">
<title>Node5&#45;&gt;Node16</title>
<g id="a_edge15_Node000005_Node000016"><a xlink:title=" ">
<path fill="none" stroke="#63b8ff" d="M726.6,-181.37C745.31,-170.68 777.4,-152.35 799.49,-139.72"/>
<polygon fill="#63b8ff" stroke="#63b8ff" points="801.33,-142.7 808.28,-134.7 797.86,-136.62 801.33,-142.7"/>
</a>
</g>
</g>
<!-- Node17 -->
<g id="Node000017" class="node">
<title>Node17</title>
<g id="a_Node000017"><a xlink:href="config_8hpp.html" target="_top" xlink:title=" ">
<polygon fill="white" stroke="#666666" points="325.5,-74 165.5,-74 165.5,-55 325.5,-55 325.5,-74"/>
<text text-anchor="middle" x="245.5" y="-62" font-family="Helvetica,sans-Serif" font-size="10.00">cppuddle/common/config.hpp</text>
</a>
</g>
</g>
<!-- Node5&#45;&gt;Node17 -->
<g id="edge16_Node000005_Node000017" class="edge">
<title>Node5&#45;&gt;Node17</title>
<g id="a_edge16_Node000005_Node000017"><a xlink:title=" ">
<path fill="none" stroke="#63b8ff" d="M656.46,-181.47C643.99,-179.6 630.79,-177.69 618.5,-176 489.39,-158.3 445.94,-194.36 327.5,-140 298.92,-126.88 273.4,-100.13 258.69,-82.51"/>
<polygon fill="#63b8ff" stroke="#63b8ff" points="261.02,-79.84 252.02,-74.25 255.58,-84.23 261.02,-79.84"/>
</a>
</g>
</g>
<!-- Node17&#45;&gt;Node12 -->
<g id="edge17_Node000017_Node000012" class="edge">
<title>Node17&#45;&gt;Node12</title>
<g id="a_edge17_Node000017_Node000012"><a xlink:title=" ">
<path fill="none" stroke="#63b8ff" d="M259.8,-54.98C273.6,-46.77 294.74,-34.18 311.01,-24.49"/>
<polygon fill="#63b8ff" stroke="#63b8ff" points="313.14,-27.29 319.94,-19.17 309.56,-21.28 313.14,-27.29"/>
</a>
</g>
</g>
<!-- Node19 -->
<g id="Node000019" class="node">
<title>Node19</title>
<g id="a_Node000019"><a xlink:href="executor__pools__interface_8hpp.html" target="_top" xlink:title=" ">
<polygon fill="white" stroke="#666666" points="610,-206 447,-206 447,-176 610,-176 610,-206"/>
<text text-anchor="start" x="455" y="-194" font-family="Helvetica,sans-Serif" font-size="10.00">cppuddle/executor_recycling</text>
<text text-anchor="middle" x="528.5" y="-183" font-family="Helvetica,sans-Serif" font-size="10.00">/executor_pools_interface.hpp</text>
</a>
</g>
</g>
<!-- Node18&#45;&gt;Node19 -->
<g id="edge19_Node000018_Node000019" class="edge">
<title>Node18&#45;&gt;Node19</title>
<g id="a_edge19_Node000018_Node000019"><a xlink:title=" ">
<path fill="none" stroke="#63b8ff" d="M852.61,-395.99C792.33,-376.86 687.38,-338.48 610.5,-283 583.76,-263.7 559.33,-234.4 544.22,-214.29"/>
<polygon fill="#63b8ff" stroke="#63b8ff" points="546.89,-212.01 538.15,-206.03 541.25,-216.16 546.89,-212.01"/>
</a>
</g>
</g>
<!-- Node26 -->
<g id="Node000026" class="node">
<title>Node26</title>
<g id="a_Node000026"><a xlink:href="aggregation__executors__and__allocators_8hpp.html" target="_top" xlink:title=" ">
<polygon fill="white" stroke="#666666" points="1387,-283 1226,-283 1226,-242 1387,-242 1387,-283"/>
<text text-anchor="start" x="1234" y="-271" font-family="Helvetica,sans-Serif" font-size="10.00">cppuddle/kernel_aggregation</text>
<text text-anchor="start" x="1234" y="-260" font-family="Helvetica,sans-Serif" font-size="10.00">/detail/aggregation_executors</text>
<text text-anchor="middle" x="1306.5" y="-249" font-family="Helvetica,sans-Serif" font-size="10.00">_and_allocators.hpp</text>
</a>
</g>
</g>
<!-- Node18&#45;&gt;Node26 -->
<g id="edge32_Node000018_Node000026" class="edge">
<title>Node18&#45;&gt;Node26</title>
<g id="a_edge32_Node000018_Node000026"><a xlink:title=" ">
<path fill="none" stroke="#63b8ff" d="M937.01,-395.93C984.45,-377.75 1069.9,-345.3 1143.5,-319 1174.36,-307.97 1208.67,-296.21 1237.83,-286.37"/>
<polygon fill="#63b8ff" stroke="#63b8ff" points="1239.14,-289.62 1247.5,-283.11 1236.91,-282.99 1239.14,-289.62"/>
</a>
</g>
</g>
<!-- Node43 -->
<g id="Node000043" class="node">
<title>Node43</title>
<g id="a_Node000043"><a xlink:href="aggregation__executor__pools_8hpp.html" target="_top" xlink:title=" ">
<polygon fill="white" stroke="#666666" points="1310.5,-360 1152.5,-360 1152.5,-319 1310.5,-319 1310.5,-360"/>
<text text-anchor="start" x="1160.5" y="-348" font-family="Helvetica,sans-Serif" font-size="10.00">cppuddle/kernel_aggregation</text>
<text text-anchor="start" x="1160.5" y="-337" font-family="Helvetica,sans-Serif" font-size="10.00">/detail/aggregation_executor</text>
<text text-anchor="middle" x="1231.5" y="-326" font-family="Helvetica,sans-Serif" font-size="10.00">_pools.hpp</text>
</a>
</g>
</g>
<!-- Node18&#45;&gt;Node43 -->
<g id="edge62_Node000018_Node000043" class="edge">
<title>Node18&#45;&gt;Node43</title>
<g id="a_edge62_Node000018_Node000043"><a xlink:title=" ">
<path fill="none" stroke="#63b8ff" d="M967.48,-395.94C1017.81,-385.37 1087.25,-370.79 1142.28,-359.23"/>
<polygon fill="#63b8ff" stroke="#63b8ff" points="1143.31,-362.59 1152.38,-357.11 1141.88,-355.74 1143.31,-362.59"/>
</a>
</g>
</g>
<!-- Node20 -->
<g id="Node000020" class="node">
<title>Node20</title>
<g id="a_Node000020"><a xlink:href="executor__pools__management_8hpp.html" target="_top" xlink:title=" ">
<polygon fill="white" stroke="#666666" points="561,-140 346,-140 346,-110 561,-110 561,-140"/>
<text text-anchor="start" x="354" y="-128" font-family="Helvetica,sans-Serif" font-size="10.00">cppuddle/executor_recycling</text>
<text text-anchor="middle" x="453.5" y="-117" font-family="Helvetica,sans-Serif" font-size="10.00">/detail/executor_pools_management.hpp</text>
</a>
</g>
</g>
<!-- Node19&#45;&gt;Node20 -->
<g id="edge20_Node000019_Node000020" class="edge">
<title>Node19&#45;&gt;Node20</title>
<g id="a_edge20_Node000019_Node000020"><a xlink:title=" ">
<path fill="none" stroke="#63b8ff" d="M511.86,-175.8C501.85,-167.26 488.95,-156.25 477.82,-146.75"/>
<polygon fill="#63b8ff" stroke="#63b8ff" points="479.98,-143.99 470.1,-140.16 475.43,-149.32 479.98,-143.99"/>
</a>
</g>
</g>
<!-- Node20&#45;&gt;Node7 -->
<g id="edge23_Node000020_Node000007" class="edge">
<title>Node20&#45;&gt;Node7</title>
<g id="a_edge23_Node000020_Node000007"><a xlink:title=" ">
<path fill="none" stroke="#63b8ff" d="M433.17,-109.84C420.23,-100.83 403.51,-89.18 390.45,-80.09"/>
<polygon fill="#63b8ff" stroke="#63b8ff" points="392.29,-77.11 382.09,-74.27 388.29,-82.85 392.29,-77.11"/>
</a>
</g>
</g>
<!-- Node20&#45;&gt;Node9 -->
<g id="edge25_Node000020_Node000009" class="edge">
<title>Node20&#45;&gt;Node9</title>
<g id="a_edge25_Node000020_Node000009"><a xlink:title=" ">
<path fill="none" stroke="#63b8ff" d="M529.84,-109.97C579.71,-100.68 646.51,-88 714.28,-74.21"/>
<polygon fill="#63b8ff" stroke="#63b8ff" points="715.19,-77.6 724.28,-72.17 713.78,-70.74 715.19,-77.6"/>
</a>
</g>
</g>
<!-- Node20&#45;&gt;Node11 -->
<g id="edge26_Node000020_Node000011" class="edge">
<title>Node20&#45;&gt;Node11</title>
<g id="a_edge26_Node000020_Node000011"><a xlink:title=" ">
<path fill="none" stroke="#63b8ff" d="M561.03,-110.26C625.53,-101.53 709.39,-89.31 792.62,-74.05"/>
<polygon fill="#63b8ff" stroke="#63b8ff" points="793.3,-77.48 802.5,-72.22 792.03,-70.6 793.3,-77.48"/>
</a>
</g>
</g>
<!-- Node20&#45;&gt;Node12 -->
<g id="edge27_Node000020_Node000012" class="edge">
<title>Node20&#45;&gt;Node12</title>
<g id="a_edge27_Node000020_Node000012"><a xlink:title=" ">
<path fill="none" stroke="#63b8ff" d="M445.67,-109.83C436.98,-94.96 421.86,-71.49 404.5,-55 391.61,-42.75 374.86,-31.96 360.98,-24.08"/>
<polygon fill="#63b8ff" stroke="#63b8ff" points="362.36,-20.84 351.91,-19.1 359,-26.98 362.36,-20.84"/>
</a>
</g>
</g>
<!-- Node20&#45;&gt;Node15 -->
<g id="edge30_Node000020_Node000015" class="edge">
<title>Node20&#45;&gt;Node15</title>
<g id="a_edge30_Node000020_Node000015"><a xlink:title=" ">
<path fill="none" stroke="#63b8ff" d="M561.25,-110.99C564.03,-110.66 566.78,-110.33 569.5,-110 699.57,-94.35 735.1,-94.72 868.73,-74.01"/>
<polygon fill="#63b8ff" stroke="#63b8ff" points="869.61,-77.42 878.95,-72.42 868.53,-70.5 869.61,-77.42"/>
</a>
</g>
</g>
<!-- Node20&#45;&gt;Node17 -->
<g id="edge31_Node000020_Node000017" class="edge">
<title>Node20&#45;&gt;Node17</title>
<g id="a_edge31_Node000020_Node000017"><a xlink:title=" ">
<path fill="none" stroke="#63b8ff" d="M403.68,-109.99C367.63,-99.85 319.52,-86.32 285.87,-76.85"/>
<polygon fill="#63b8ff" stroke="#63b8ff" points="286.49,-73.39 275.91,-74.05 284.59,-80.13 286.49,-73.39"/>
</a>
</g>
</g>
<!-- Node21 -->
<g id="Node000021" class="node">
<title>Node21</title>
<g id="a_Node000021"><a xlink:title=" ">
<polygon fill="#e0e0e0" stroke="#999999" points="515.5,-74 451.5,-74 451.5,-55 515.5,-55 515.5,-74"/>
<text text-anchor="middle" x="483.5" y="-62" font-family="Helvetica,sans-Serif" font-size="10.00">algorithm</text>
</a>
</g>
</g>
<!-- Node20&#45;&gt;Node21 -->
<g id="edge21_Node000020_Node000021" class="edge">
<title>Node20&#45;&gt;Node21</title>
<g id="a_edge21_Node000020_Node000021"><a xlink:title=" ">
<path fill="none" stroke="#63b8ff" d="M460.76,-109.84C464.85,-101.87 469.99,-91.84 474.36,-83.33"/>
<polygon fill="#63b8ff" stroke="#63b8ff" points="477.56,-84.76 479,-74.27 471.33,-81.57 477.56,-84.76"/>
</a>
</g>
</g>
<!-- Node22 -->
<g id="Node000022" class="node">
<title>Node22</title>
<g id="a_Node000022"><a xlink:title=" ">
<polygon fill="#e0e0e0" stroke="#999999" points="575.5,-74 533.5,-74 533.5,-55 575.5,-55 575.5,-74"/>
<text text-anchor="middle" x="554.5" y="-62" font-family="Helvetica,sans-Serif" font-size="10.00">array</text>
</a>
</g>
</g>
<!-- Node20&#45;&gt;Node22 -->
<g id="edge22_Node000020_Node000022" class="edge">
<title>Node20&#45;&gt;Node22</title>
<g id="a_edge22_Node000020_Node000022"><a xlink:title=" ">
<path fill="none" stroke="#63b8ff" d="M477.69,-109.99C493.79,-100.66 514.84,-88.47 530.83,-79.21"/>
<polygon fill="#63b8ff" stroke="#63b8ff" points="532.69,-82.18 539.58,-74.14 529.18,-76.12 532.69,-82.18"/>
</a>
</g>
</g>
<!-- Node23 -->
<g id="Node000023" class="node">
<title>Node23</title>
<g id="a_Node000023"><a xlink:title=" ">
<polygon fill="#e0e0e0" stroke="#999999" points="641,-74 594,-74 594,-55 641,-55 641,-74"/>
<text text-anchor="middle" x="617.5" y="-62" font-family="Helvetica,sans-Serif" font-size="10.00">deque</text>
</a>
</g>
</g>
<!-- Node20&#45;&gt;Node23 -->
<g id="edge24_Node000020_Node000023" class="edge">
<title>Node20&#45;&gt;Node23</title>
<g id="a_edge24_Node000020_Node000023"><a xlink:title=" ">
<path fill="none" stroke="#63b8ff" d="M492.78,-109.99C520.68,-100.04 557.73,-86.82 584.18,-77.39"/>
<polygon fill="#63b8ff" stroke="#63b8ff" points="585.52,-80.62 593.76,-73.97 583.17,-74.03 585.52,-80.62"/>
</a>
</g>
</g>
<!-- Node24 -->
<g id="Node000024" class="node">
<title>Node24</title>
<g id="a_Node000024"><a xlink:title=" ">
<polygon fill="#e0e0e0" stroke="#999999" points="706,-74 659,-74 659,-55 706,-55 706,-74"/>
<text text-anchor="middle" x="682.5" y="-62" font-family="Helvetica,sans-Serif" font-size="10.00">queue</text>
</a>
</g>
</g>
<!-- Node20&#45;&gt;Node24 -->
<g id="edge28_Node000020_Node000024" class="edge">
<title>Node20&#45;&gt;Node24</title>
<g id="a_edge28_Node000020_Node000024"><a xlink:title=" ">
<path fill="none" stroke="#63b8ff" d="M508.85,-109.92C545.81,-100.5 595.78,-87.76 648.78,-74.18"/>
<polygon fill="#63b8ff" stroke="#63b8ff" points="649.89,-77.51 658.71,-71.64 648.15,-70.73 649.89,-77.51"/>
</a>
</g>
</g>
<!-- Node25 -->
<g id="Node000025" class="node">
<title>Node25</title>
<g id="a_Node000025"><a xlink:title=" ">
<polygon fill="#e0e0e0" stroke="#999999" points="1902,-74 1861,-74 1861,-55 1902,-55 1902,-74"/>
<text text-anchor="middle" x="1881.5" y="-62" font-family="Helvetica,sans-Serif" font-size="10.00">tuple</text>
</a>
</g>
</g>
<!-- Node20&#45;&gt;Node25 -->
<g id="edge29_Node000020_Node000025" class="edge">
<title>Node20&#45;&gt;Node25</title>
<g id="a_edge29_Node000020_Node000025"><a xlink:title=" ">
<path fill="none" stroke="#63b8ff" d="M561.22,-110.68C564,-110.44 566.77,-110.21 569.5,-110 1079.97,-70.61 1704.85,-66.08 1850.25,-65.57"/>
<polygon fill="#63b8ff" stroke="#63b8ff" points="1850.64,-69.07 1860.63,-65.53 1850.62,-62.07 1850.64,-69.07"/>
</a>
</g>
</g>
<!-- Node26&#45;&gt;Node2 -->
<g id="edge50_Node000026_Node000002" class="edge">
<title>Node26&#45;&gt;Node2</title>
<g id="a_edge50_Node000026_Node000002"><a xlink:title=" ">
<path fill="none" stroke="#63b8ff" d="M1225.7,-258.28C979.12,-248.36 246.5,-218.22 139.5,-206 131.16,-205.05 122.35,-203.74 113.8,-202.3"/>
<polygon fill="#63b8ff" stroke="#63b8ff" points="114.36,-198.85 103.91,-200.57 113.16,-205.74 114.36,-198.85"/>
</a>
</g>
</g>
<!-- Node26&#45;&gt;Node5 -->
<g id="edge60_Node000026_Node000005" class="edge">
<title>Node26&#45;&gt;Node5</title>
<g id="a_edge60_Node000026_Node000005"><a xlink:title=" ">
<path fill="none" stroke="#63b8ff" d="M1225.95,-252.09C1113,-238.9 908.63,-215.03 794.42,-201.69"/>
<polygon fill="#63b8ff" stroke="#63b8ff" points="794.67,-198.19 784.33,-200.51 793.86,-205.14 794.67,-198.19"/>
</a>
</g>
</g>
<!-- Node26&#45;&gt;Node6 -->
<g id="edge36_Node000026_Node000006" class="edge">
<title>Node26&#45;&gt;Node6</title>
<g id="a_edge36_Node000026_Node000006"><a xlink:title=" ">
<path fill="none" stroke="#63b8ff" d="M1225.98,-253.87C1144.2,-245.03 1024.01,-228.72 983.5,-206 956.91,-191.09 935.49,-162.11 923.63,-143.42"/>
<polygon fill="#63b8ff" stroke="#63b8ff" points="926.53,-141.44 918.33,-134.72 920.55,-145.08 926.53,-141.44"/>
</a>
</g>
</g>
<!-- Node26&#45;&gt;Node9 -->
<g id="edge39_Node000026_Node000009" class="edge">
<title>Node26&#45;&gt;Node9</title>
<g id="a_edge39_Node000026_Node000009"><a xlink:title=" ">
<path fill="none" stroke="#63b8ff" d="M1225.79,-252.8C1166.55,-244.55 1093.29,-229.82 1074.5,-206 1066.24,-195.53 1069.86,-188.5 1074.5,-176 1081.85,-156.21 1098.15,-159.79 1105.5,-140 1110.14,-127.5 1114.37,-119.95 1105.5,-110 1060.97,-60.03 878.23,-83.32 794.82,-73.8"/>
<polygon fill="#63b8ff" stroke="#63b8ff" points="795.06,-70.3 784.68,-72.39 794.1,-77.23 795.06,-70.3"/>
</a>
</g>
</g>
<!-- Node26&#45;&gt;Node11 -->
<g id="edge40_Node000026_Node000011" class="edge">
<title>Node26&#45;&gt;Node11</title>
<g id="a_edge40_Node000026_Node000011"><a xlink:title=" ">
<path fill="none" stroke="#63b8ff" d="M1225.73,-251.78C1169.67,-243.19 1102.04,-228.47 1084.5,-206 1076.29,-195.49 1078.21,-187.76 1084.5,-176 1098.11,-150.57 1124.89,-165.43 1138.5,-140 1144.79,-128.24 1147.28,-120.04 1138.5,-110 1100.79,-66.89 945.27,-82.71 871.16,-73.68"/>
<polygon fill="#63b8ff" stroke="#63b8ff" points="871.24,-70.16 860.84,-72.16 870.22,-77.08 871.24,-70.16"/>
</a>
</g>
</g>
<!-- Node26&#45;&gt;Node12 -->
<g id="edge41_Node000026_Node000012" class="edge">
<title>Node26&#45;&gt;Node12</title>
<g id="a_edge41_Node000026_Node000012"><a xlink:title=" ">
<path fill="none" stroke="#63b8ff" d="M1387.04,-261.42C1682.13,-260.75 2689.48,-254.88 2736.5,-206 2745.74,-196.39 2742.87,-187.71 2736.5,-176 2603.36,68.73 2525.5,-87 1911.5,-55 1293.24,-22.78 537.32,-12.76 368.84,-10.86"/>
<polygon fill="#63b8ff" stroke="#63b8ff" points="368.64,-7.36 358.6,-10.75 368.56,-14.36 368.64,-7.36"/>
</a>
</g>
</g>
<!-- Node26&#45;&gt;Node13 -->
<g id="edge42_Node000026_Node000013" class="edge">
<title>Node26&#45;&gt;Node13</title>
<g id="a_edge42_Node000026_Node000013"><a xlink:title=" ">
<path fill="none" stroke="#63b8ff" d="M1225.92,-256.55C1147.21,-250.04 1034.82,-235.73 1003.5,-206 986.95,-190.29 983.66,-163.01 983.52,-144.74"/>
<polygon fill="#63b8ff" stroke="#63b8ff" points="987.02,-144.78 983.76,-134.7 980.03,-144.62 987.02,-144.78"/>
</a>
</g>
</g>
<!-- Node26&#45;&gt;Node14 -->
<g id="edge33_Node000026_Node000014" class="edge">
<title>Node26&#45;&gt;Node14</title>
<g id="a_edge33_Node000026_Node000014"><a xlink:title=" ">
<path fill="none" stroke="#63b8ff" d="M1225.66,-257.45C1148.44,-251.69 1040,-238 1013.5,-206 996.14,-185.05 1022.36,-157.6 1042.92,-140.91"/>
<polygon fill="#63b8ff" stroke="#63b8ff" points="1045.21,-143.57 1050.96,-134.67 1040.91,-138.04 1045.21,-143.57"/>
</a>
</g>
</g>
<!-- Node26&#45;&gt;Node15 -->
<g id="edge46_Node000026_Node000015" class="edge">
<title>Node26&#45;&gt;Node15</title>
<g id="a_edge46_Node000026_Node000015"><a xlink:title=" ">
<path fill="none" stroke="#63b8ff" d="M1387.44,-261.33C1678.03,-260.35 2653.85,-253.5 2699.5,-206 2708.74,-196.39 2708.63,-185.71 2699.5,-176 2637.98,-110.56 1229.83,-73.17 958.5,-66.56"/>
<polygon fill="#63b8ff" stroke="#63b8ff" points="958.33,-63.06 948.25,-66.31 958.16,-70.05 958.33,-63.06"/>
</a>
</g>
</g>
<!-- Node26&#45;&gt;Node16 -->
<g id="edge49_Node000026_Node000016" class="edge">
<title>Node26&#45;&gt;Node16</title>
<g id="a_edge49_Node000026_Node000016"><a xlink:title=" ">
<path fill="none" stroke="#63b8ff" d="M1225.69,-259.15C1150.37,-254.66 1036.08,-241.89 943.5,-206 903.52,-190.5 863.32,-159.93 841.1,-141.4"/>
<polygon fill="#63b8ff" stroke="#63b8ff" points="843.12,-138.53 833.24,-134.71 838.59,-143.86 843.12,-138.53"/>
</a>
</g>
</g>
<!-- Node26&#45;&gt;Node17 -->
<g id="edge59_Node000026_Node000017" class="edge">
<title>Node26&#45;&gt;Node17</title>
<g id="a_edge59_Node000026_Node000017"><a xlink:title=" ">
<path fill="none" stroke="#63b8ff" d="M1225.89,-259.37C977.61,-251.95 237.35,-222.98 172.5,-140 164.29,-129.49 165.97,-121.63 172.5,-110 180.61,-95.56 195.51,-85.26 209.75,-78.22"/>
<polygon fill="#63b8ff" stroke="#63b8ff" points="211.27,-81.38 218.93,-74.06 208.38,-75 211.27,-81.38"/>
</a>
</g>
</g>
<!-- Node26&#45;&gt;Node19 -->
<g id="edge61_Node000026_Node000019" class="edge">
<title>Node26&#45;&gt;Node19</title>
<g id="a_edge61_Node000026_Node000019"><a xlink:title=" ">
<path fill="none" stroke="#63b8ff" d="M1225.93,-256.88C1099.29,-249.2 845.74,-232.13 620.35,-206.04"/>
<polygon fill="#63b8ff" stroke="#63b8ff" points="620.65,-202.55 610.31,-204.87 619.84,-209.51 620.65,-202.55"/>
</a>
</g>
</g>
<!-- Node26&#45;&gt;Node25 -->
<g id="edge45_Node000026_Node000025" class="edge">
<title>Node26&#45;&gt;Node25</title>
<g id="a_edge45_Node000026_Node000025"><a xlink:title=" ">
<path fill="none" stroke="#63b8ff" d="M1387.17,-261.38C1679.72,-260.54 2670.22,-254.14 2716.5,-206 2832.9,-84.93 2076.27,-68.05 1912.37,-65.82"/>
<polygon fill="#63b8ff" stroke="#63b8ff" points="1912.07,-62.32 1902.02,-65.69 1911.98,-69.32 1912.07,-62.32"/>
</a>
</g>
</g>
<!-- Node27 -->
<g id="Node000027" class="node">
<title>Node27</title>
<g id="a_Node000027"><a xlink:title=" ">
<polygon fill="#e0e0e0" stroke="#999999" points="1143.5,-200.5 1093.5,-200.5 1093.5,-181.5 1143.5,-181.5 1143.5,-200.5"/>
<text text-anchor="middle" x="1118.5" y="-188.5" font-family="Helvetica,sans-Serif" font-size="10.00">stdio.h</text>
</a>
</g>
</g>
<!-- Node26&#45;&gt;Node27 -->
<g id="edge34_Node000026_Node000027" class="edge">
<title>Node26&#45;&gt;Node27</title>
<g id="a_edge34_Node000026_Node000027"><a xlink:title=" ">
<path fill="none" stroke="#63b8ff" d="M1251.1,-241.89C1221.97,-231.46 1185.71,-218.28 1153.5,-206 1152.09,-205.46 1150.64,-204.9 1149.18,-204.34"/>
<polygon fill="#63b8ff" stroke="#63b8ff" points="1150.14,-200.96 1139.56,-200.55 1147.58,-207.47 1150.14,-200.96"/>
</a>
</g>
</g>
<!-- Node28 -->
<g id="Node000028" class="node">
<title>Node28</title>
<g id="a_Node000028"><a xlink:title=" ">
<polygon fill="#e0e0e0" stroke="#999999" points="1197,-200.5 1162,-200.5 1162,-181.5 1197,-181.5 1197,-200.5"/>
<text text-anchor="middle" x="1179.5" y="-188.5" font-family="Helvetica,sans-Serif" font-size="10.00">any</text>
</a>
</g>
</g>
<!-- Node26&#45;&gt;Node28 -->
<g id="edge35_Node000026_Node000028" class="edge">
<title>Node26&#45;&gt;Node28</title>
<g id="a_edge35_Node000026_Node000028"><a xlink:title=" ">
<path fill="none" stroke="#63b8ff" d="M1270.79,-241.96C1249.45,-230.28 1222.89,-215.75 1203.94,-205.37"/>
<polygon fill="#63b8ff" stroke="#63b8ff" points="1205.49,-202.23 1195.04,-200.5 1202.13,-208.37 1205.49,-202.23"/>
</a>
</g>
</g>
<!-- Node29 -->
<g id="Node000029" class="node">
<title>Node29</title>
<g id="a_Node000029"><a xlink:title=" ">
<polygon fill="#e0e0e0" stroke="#999999" points="1265.5,-200.5 1215.5,-200.5 1215.5,-181.5 1265.5,-181.5 1265.5,-200.5"/>
<text text-anchor="middle" x="1240.5" y="-188.5" font-family="Helvetica,sans-Serif" font-size="10.00">chrono</text>
</a>
</g>
</g>
<!-- Node26&#45;&gt;Node29 -->
<g id="edge37_Node000026_Node000029" class="edge">
<title>Node26&#45;&gt;Node29</title>
<g id="a_edge37_Node000026_Node000029"><a xlink:title=" ">
<path fill="none" stroke="#63b8ff" d="M1287.76,-241.77C1277.66,-231.13 1265.35,-218.16 1255.82,-208.13"/>
<polygon fill="#63b8ff" stroke="#63b8ff" points="1258.3,-205.66 1248.88,-200.82 1253.22,-210.48 1258.3,-205.66"/>
</a>
</g>
</g>
<!-- Node30 -->
<g id="Node000030" class="node">
<title>Node30</title>
<g id="a_Node000030"><a xlink:title=" ">
<polygon fill="#e0e0e0" stroke="#999999" points="1329.5,-200.5 1283.5,-200.5 1283.5,-181.5 1329.5,-181.5 1329.5,-200.5"/>
<text text-anchor="middle" x="1306.5" y="-188.5" font-family="Helvetica,sans-Serif" font-size="10.00">cstdio</text>
</a>
</g>
</g>
<!-- Node26&#45;&gt;Node30 -->
<g id="edge38_Node000026_Node000030" class="edge">
<title>Node26&#45;&gt;Node30</title>
<g id="a_edge38_Node000026_Node000030"><a xlink:title=" ">
<path fill="none" stroke="#63b8ff" d="M1306.5,-241.77C1306.5,-232.08 1306.5,-220.46 1306.5,-210.88"/>
<polygon fill="#63b8ff" stroke="#63b8ff" points="1310,-210.82 1306.5,-200.82 1303,-210.82 1310,-210.82"/>
</a>
</g>
</g>
<!-- Node31 -->
<g id="Node000031" class="node">
<title>Node31</title>
<g id="a_Node000031"><a xlink:title=" ">
<polygon fill="#e0e0e0" stroke="#999999" points="1405,-200.5 1348,-200.5 1348,-181.5 1405,-181.5 1405,-200.5"/>
<text text-anchor="middle" x="1376.5" y="-188.5" font-family="Helvetica,sans-Serif" font-size="10.00">ostream</text>
</a>
</g>
</g>
<!-- Node26&#45;&gt;Node31 -->
<g id="edge43_Node000026_Node000031" class="edge">
<title>Node26&#45;&gt;Node31</title>
<g id="a_edge43_Node000026_Node000031"><a xlink:title=" ">
<path fill="none" stroke="#63b8ff" d="M1326.37,-241.77C1337.09,-231.13 1350.15,-218.16 1360.25,-208.13"/>
<polygon fill="#63b8ff" stroke="#63b8ff" points="1362.99,-210.35 1367.62,-200.82 1358.05,-205.38 1362.99,-210.35"/>
</a>
</g>
</g>
<!-- Node32 -->
<g id="Node000032" class="node">
<title>Node32</title>
<g id="a_Node000032"><a xlink:title=" ">
<polygon fill="#e0e0e0" stroke="#999999" points="1467.5,-200.5 1423.5,-200.5 1423.5,-181.5 1467.5,-181.5 1467.5,-200.5"/>
<text text-anchor="middle" x="1445.5" y="-188.5" font-family="Helvetica,sans-Serif" font-size="10.00">string</text>
</a>
</g>
</g>
<!-- Node26&#45;&gt;Node32 -->
<g id="edge44_Node000026_Node000032" class="edge">
<title>Node26&#45;&gt;Node32</title>
<g id="a_edge44_Node000026_Node000032"><a xlink:title=" ">
<path fill="none" stroke="#63b8ff" d="M1345.59,-241.96C1369.16,-230.17 1398.54,-215.48 1419.32,-205.09"/>
<polygon fill="#63b8ff" stroke="#63b8ff" points="1421.11,-208.11 1428.49,-200.5 1417.98,-201.85 1421.11,-208.11"/>
</a>
</g>
</g>
<!-- Node33 -->
<g id="Node000033" class="node">
<title>Node33</title>
<g id="a_Node000033"><a xlink:title=" ">
<polygon fill="#e0e0e0" stroke="#999999" points="1543,-200.5 1486,-200.5 1486,-181.5 1543,-181.5 1543,-200.5"/>
<text text-anchor="middle" x="1514.5" y="-188.5" font-family="Helvetica,sans-Serif" font-size="10.00">typeinfo</text>
</a>
</g>
</g>
<!-- Node26&#45;&gt;Node33 -->
<g id="edge47_Node000026_Node000033" class="edge">
<title>Node26&#45;&gt;Node33</title>
<g id="a_edge47_Node000026_Node000033"><a xlink:title=" ">
<path fill="none" stroke="#63b8ff" d="M1368.46,-241.89C1400.76,-231.51 1440.87,-218.38 1476.5,-206 1478.34,-205.36 1480.23,-204.69 1482.14,-204.02"/>
<polygon fill="#63b8ff" stroke="#63b8ff" points="1483.43,-207.27 1491.64,-200.58 1481.05,-200.69 1483.43,-207.27"/>
</a>
</g>
</g>
<!-- Node34 -->
<g id="Node000034" class="node">
<title>Node34</title>
<g id="a_Node000034"><a xlink:title=" ">
<polygon fill="#e0e0e0" stroke="#999999" points="1606,-200.5 1561,-200.5 1561,-181.5 1606,-181.5 1606,-200.5"/>
<text text-anchor="middle" x="1583.5" y="-188.5" font-family="Helvetica,sans-Serif" font-size="10.00">utility</text>
</a>
</g>
</g>
<!-- Node26&#45;&gt;Node34 -->
<g id="edge48_Node000026_Node000034" class="edge">
<title>Node26&#45;&gt;Node34</title>
<g id="a_edge48_Node000026_Node000034"><a xlink:title=" ">
<path fill="none" stroke="#63b8ff" d="M1387.11,-247.59C1435.69,-238.15 1498.42,-224.1 1552.5,-206 1553.9,-205.53 1555.32,-205.02 1556.75,-204.48"/>
<polygon fill="#63b8ff" stroke="#63b8ff" points="1558.15,-207.69 1566.04,-200.63 1555.46,-201.22 1558.15,-207.69"/>
</a>
</g>
</g>
<!-- Node35 -->
<g id="Node000035" class="node">
<title>Node35</title>
<g id="a_Node000035"><a xlink:title=" ">
<polygon fill="#e0e0e0" stroke="#999999" points="1722.5,-200.5 1624.5,-200.5 1624.5,-181.5 1722.5,-181.5 1722.5,-200.5"/>
<text text-anchor="middle" x="1673.5" y="-188.5" font-family="Helvetica,sans-Serif" font-size="10.00">hpx/hpx_init.hpp</text>
</a>
</g>
</g>
<!-- Node26&#45;&gt;Node35 -->
<g id="edge51_Node000026_Node000035" class="edge">
<title>Node26&#45;&gt;Node35</title>
<g id="a_edge51_Node000026_Node000035"><a xlink:title=" ">
<path fill="none" stroke="#63b8ff" d="M1387.11,-248.36C1449.61,-237.86 1538.29,-222.24 1615.5,-206 1620.13,-205.03 1624.96,-203.95 1629.77,-202.85"/>
<polygon fill="#63b8ff" stroke="#63b8ff" points="1630.6,-206.25 1639.53,-200.55 1629,-199.43 1630.6,-206.25"/>
</a>
</g>
</g>
<!-- Node36 -->
<g id="Node000036" class="node">
<title>Node36</title>
<g id="a_Node000036"><a xlink:title=" ">
<polygon fill="#e0e0e0" stroke="#999999" points="1866,-200.5 1741,-200.5 1741,-181.5 1866,-181.5 1866,-200.5"/>
<text text-anchor="middle" x="1803.5" y="-188.5" font-family="Helvetica,sans-Serif" font-size="10.00">hpx/include/async.hpp</text>
</a>
</g>
</g>
<!-- Node26&#45;&gt;Node36 -->
<g id="edge52_Node000026_Node000036" class="edge">
<title>Node26&#45;&gt;Node36</title>
<g id="a_edge52_Node000026_Node000036"><a xlink:title=" ">
<path fill="none" stroke="#63b8ff" d="M1387.01,-252.5C1472.64,-242.57 1611.96,-225.41 1731.5,-206 1738.17,-204.92 1745.17,-203.68 1752.08,-202.4"/>
<polygon fill="#63b8ff" stroke="#63b8ff" points="1752.9,-205.81 1762.08,-200.51 1751.6,-198.93 1752.9,-205.81"/>
</a>
</g>
</g>
<!-- Node37 -->
<g id="Node000037" class="node">
<title>Node37</title>
<g id="a_Node000037"><a xlink:title=" ">
<polygon fill="#e0e0e0" stroke="#999999" points="2030.5,-200.5 1884.5,-200.5 1884.5,-181.5 2030.5,-181.5 2030.5,-200.5"/>
<text text-anchor="middle" x="1957.5" y="-188.5" font-family="Helvetica,sans-Serif" font-size="10.00">hpx/include/iostreams.hpp</text>
</a>
</g>
</g>
<!-- Node26&#45;&gt;Node37 -->
<g id="edge53_Node000026_Node000037" class="edge">
<title>Node26&#45;&gt;Node37</title>
<g id="a_edge53_Node000026_Node000037"><a xlink:title=" ">
<path fill="none" stroke="#63b8ff" d="M1387.27,-255.46C1497.77,-246.78 1702.11,-229.23 1875.5,-206 1883.83,-204.88 1892.62,-203.55 1901.22,-202.16"/>
<polygon fill="#63b8ff" stroke="#63b8ff" points="1901.89,-205.59 1911.19,-200.5 1900.75,-198.69 1901.89,-205.59"/>
</a>
</g>
</g>
<!-- Node38 -->
<g id="Node000038" class="node">
<title>Node38</title>
<g id="a_Node000038"><a xlink:title=" ">
<polygon fill="#e0e0e0" stroke="#999999" points="2164.5,-200.5 2048.5,-200.5 2048.5,-181.5 2164.5,-181.5 2164.5,-200.5"/>
<text text-anchor="middle" x="2106.5" y="-188.5" font-family="Helvetica,sans-Serif" font-size="10.00">hpx/include/lcos.hpp</text>
</a>
</g>
</g>
<!-- Node26&#45;&gt;Node38 -->
<g id="edge54_Node000026_Node000038" class="edge">
<title>Node26&#45;&gt;Node38</title>
<g id="a_edge54_Node000026_Node000038"><a xlink:title=" ">
<path fill="none" stroke="#63b8ff" d="M1387.13,-258.83C1522.52,-253.59 1803.84,-239.4 2039.5,-206 2046.14,-205.06 2053.11,-203.85 2059.94,-202.54"/>
<polygon fill="#63b8ff" stroke="#63b8ff" points="2060.67,-205.97 2069.79,-200.57 2059.3,-199.1 2060.67,-205.97"/>
</a>
</g>
</g>
<!-- Node39 -->
<g id="Node000039" class="node">
<title>Node39</title>
<g id="a_Node000039"><a xlink:title=" ">
<polygon fill="#e0e0e0" stroke="#999999" points="2304,-200.5 2183,-200.5 2183,-181.5 2304,-181.5 2304,-200.5"/>
<text text-anchor="middle" x="2243.5" y="-188.5" font-family="Helvetica,sans-Serif" font-size="10.00">hpx/lcos/promise.hpp</text>
</a>
</g>
</g>
<!-- Node26&#45;&gt;Node39 -->
<g id="edge55_Node000026_Node000039" class="edge">
<title>Node26&#45;&gt;Node39</title>
<g id="a_edge55_Node000026_Node000039"><a xlink:title=" ">
<path fill="none" stroke="#63b8ff" d="M1387.23,-259.92C1540.91,-256.13 1885.82,-243.8 2173.5,-206 2180.68,-205.06 2188.23,-203.81 2195.61,-202.46"/>
<polygon fill="#63b8ff" stroke="#63b8ff" points="2196.35,-205.88 2205.51,-200.56 2195.03,-199.01 2196.35,-205.88"/>
</a>
</g>
</g>
<!-- Node40 -->
<g id="Node000040" class="node">
<title>Node40</title>
<g id="a_Node000040"><a xlink:title=" ">
<polygon fill="#e0e0e0" stroke="#999999" points="2412.5,-200.5 2322.5,-200.5 2322.5,-181.5 2412.5,-181.5 2412.5,-200.5"/>
<text text-anchor="middle" x="2367.5" y="-188.5" font-family="Helvetica,sans-Serif" font-size="10.00">hpx/mutex.hpp</text>
</a>
</g>
</g>
<!-- Node26&#45;&gt;Node40 -->
<g id="edge56_Node000026_Node000040" class="edge">
<title>Node26&#45;&gt;Node40</title>
<g id="a_edge56_Node000026_Node000040"><a xlink:title=" ">
<path fill="none" stroke="#63b8ff" d="M1387.09,-259.13C1593.15,-252.72 2135.52,-233.7 2313.5,-206 2318.57,-205.21 2323.86,-204.15 2329.06,-202.96"/>
<polygon fill="#63b8ff" stroke="#63b8ff" points="2329.98,-206.34 2338.86,-200.55 2328.31,-199.54 2329.98,-206.34"/>
</a>
</g>
</g>
<!-- Node41 -->
<g id="Node000041" class="node">
<title>Node41</title>
<g id="a_Node000041"><a xlink:title=" ">
<polygon fill="#e0e0e0" stroke="#999999" points="2570.5,-200.5 2430.5,-200.5 2430.5,-181.5 2570.5,-181.5 2570.5,-200.5"/>
<text text-anchor="middle" x="2500.5" y="-188.5" font-family="Helvetica,sans-Serif" font-size="10.00">boost/core/demangle.hpp</text>
</a>
</g>
</g>
<!-- Node26&#45;&gt;Node41 -->
<g id="edge57_Node000026_Node000041" class="edge">
<title>Node26&#45;&gt;Node41</title>
<g id="a_edge57_Node000026_Node000041"><a xlink:title=" ">
<path fill="none" stroke="#63b8ff" d="M1387.24,-260.95C1571.28,-258.95 2035.84,-249.6 2421.5,-206 2430.06,-205.03 2439.08,-203.72 2447.86,-202.28"/>
<polygon fill="#63b8ff" stroke="#63b8ff" points="2448.74,-205.68 2458,-200.54 2447.56,-198.78 2448.74,-205.68"/>
</a>
</g>
</g>
<!-- Node42 -->
<g id="Node000042" class="node">
<title>Node42</title>
<g id="a_Node000042"><a xlink:title=" ">
<polygon fill="#e0e0e0" stroke="#999999" points="2690,-200.5 2589,-200.5 2589,-181.5 2690,-181.5 2690,-200.5"/>
<text text-anchor="middle" x="2639.5" y="-188.5" font-family="Helvetica,sans-Serif" font-size="10.00">boost/format.hpp</text>
</a>
</g>
</g>
<!-- Node26&#45;&gt;Node42 -->
<g id="edge58_Node000026_Node000042" class="edge">
<title>Node26&#45;&gt;Node42</title>
<g id="a_edge58_Node000026_Node000042"><a xlink:title=" ">
<path fill="none" stroke="#63b8ff" d="M1387.08,-259.94C1629.18,-254.96 2347.6,-237.83 2579.5,-206 2585.47,-205.18 2591.73,-204.04 2597.85,-202.77"/>
<polygon fill="#63b8ff" stroke="#63b8ff" points="2598.94,-206.11 2607.94,-200.52 2597.42,-199.28 2598.94,-206.11"/>
</a>
</g>
</g>
<!-- Node43&#45;&gt;Node26 -->
<g id="edge63_Node000043_Node000026" class="edge">
<title>Node43&#45;&gt;Node26</title>
<g id="a_edge63_Node000043_Node000026"><a xlink:title=" ">
<path fill="none" stroke="#63b8ff" d="M1251.21,-318.79C1259.9,-310.1 1270.27,-299.73 1279.65,-290.35"/>
<polygon fill="#63b8ff" stroke="#63b8ff" points="1282.33,-292.62 1286.93,-283.07 1277.38,-287.67 1282.33,-292.62"/>
</a>
</g>
</g>
</g>
</svg>
