<?xml version="1.0" encoding="UTF-8" standalone="no"?>
<!DOCTYPE svg PUBLIC "-//W3C//DTD SVG 1.1//EN"
 "http://www.w3.org/Graphics/SVG/1.1/DTD/svg11.dtd">
<!-- Generated by graphviz version 2.43.0 (0)
 -->
<!-- Title: tests/work_aggregation_cpu_triad.cpp Pages: 1 -->
<svg width="2959pt" height="500pt"
 viewBox="0.00 0.00 2958.50 500.00" xmlns="http://www.w3.org/2000/svg" xmlns:xlink="http://www.w3.org/1999/xlink">
<g id="graph0" class="graph" transform="scale(1 1) rotate(0) translate(4 496)">
<title>tests/work_aggregation_cpu_triad.cpp</title>
<!-- Node1 -->
<g id="Node000001" class="node">
<title>Node1</title>
<g id="a_Node000001"><a xlink:title=" ">
<polygon fill="#999999" stroke="#666666" points="2393,-492 2262,-492 2262,-462 2393,-462 2393,-492"/>
<text text-anchor="start" x="2270" y="-480" font-family="Helvetica,sans-Serif" font-size="10.00">tests/work_aggregation</text>
<text text-anchor="middle" x="2327.5" y="-469" font-family="Helvetica,sans-Serif" font-size="10.00">_cpu_triad.cpp</text>
</a>
</g>
</g>
<!-- Node2 -->
<g id="Node000002" class="node">
<title>Node2</title>
<g id="a_Node000002"><a xlink:title=" ">
<polygon fill="#e0e0e0" stroke="#999999" points="125,-200.5 0,-200.5 0,-181.5 125,-181.5 125,-200.5"/>
<text text-anchor="middle" x="62.5" y="-188.5" font-family="Helvetica,sans-Serif" font-size="10.00">hpx/futures/future.hpp</text>
</a>
</g>
</g>
<!-- Node1&#45;&gt;Node2 -->
<g id="edge1_Node000001_Node000002" class="edge">
<title>Node1&#45;&gt;Node2</title>
<g id="a_edge1_Node000001_Node000002"><a xlink:title=" ">
<path fill="none" stroke="#63b8ff" d="M2261.85,-467.77C1934.25,-426.69 478.44,-244.15 135.18,-201.11"/>
<polygon fill="#63b8ff" stroke="#63b8ff" points="135.47,-197.62 125.11,-199.85 134.6,-204.57 135.47,-197.62"/>
</a>
</g>
</g>
<!-- Node3 -->
<g id="Node000003" class="node">
<title>Node3</title>
<g id="a_Node000003"><a xlink:href="config_8hpp.html" target="_top" xlink:title=" ">
<polygon fill="white" stroke="#666666" points="2808.5,-74 2648.5,-74 2648.5,-55 2808.5,-55 2808.5,-74"/>
<text text-anchor="middle" x="2728.5" y="-62" font-family="Helvetica,sans-Serif" font-size="10.00">cppuddle/common/config.hpp</text>
</a>
</g>
</g>
<!-- Node1&#45;&gt;Node3 -->
<g id="edge2_Node000001_Node000003" class="edge">
<title>Node1&#45;&gt;Node3</title>
<g id="a_edge2_Node000001_Node000003"><a xlink:title=" ">
<path fill="none" stroke="#63b8ff" d="M2393.16,-469.79C2516.95,-456.26 2772.5,-418.84 2772.5,-340.5 2772.5,-340.5 2772.5,-340.5 2772.5,-190 2772.5,-149.88 2751.94,-106.43 2738.93,-82.96"/>
<polygon fill="#63b8ff" stroke="#63b8ff" points="2741.91,-81.12 2733.9,-74.18 2735.84,-84.6 2741.91,-81.12"/>
</a>
</g>
</g>
<!-- Node5 -->
<g id="Node000005" class="node">
<title>Node5</title>
<g id="a_Node000005"><a xlink:href="std__recycling__allocators_8hpp.html" target="_top" xlink:title=" ">
<polygon fill="white" stroke="#666666" points="2406.5,-426 2248.5,-426 2248.5,-396 2406.5,-396 2406.5,-426"/>
<text text-anchor="start" x="2256.5" y="-414" font-family="Helvetica,sans-Serif" font-size="10.00">cppuddle/memory_recycling</text>
<text text-anchor="middle" x="2327.5" y="-403" font-family="Helvetica,sans-Serif" font-size="10.00">/std_recycling_allocators.hpp</text>
</a>
</g>
</g>
<!-- Node1&#45;&gt;Node5 -->
<g id="edge4_Node000001_Node000005" class="edge">
<title>Node1&#45;&gt;Node5</title>
<g id="a_edge4_Node000001_Node000005"><a xlink:title=" ">
<path fill="none" stroke="#63b8ff" d="M2327.5,-461.8C2327.5,-454.34 2327.5,-444.99 2327.5,-436.41"/>
<polygon fill="#63b8ff" stroke="#63b8ff" points="2331,-436.16 2327.5,-426.16 2324,-436.16 2331,-436.16"/>
</a>
</g>
</g>
<!-- Node18 -->
<g id="Node000018" class="node">
<title>Node18</title>
<g id="a_Node000018"><a xlink:href="kernel__aggregation__interface_8hpp.html" target="_top" xlink:title=" ">
<polygon fill="white" stroke="#666666" points="2214,-426 2031,-426 2031,-396 2214,-396 2214,-426"/>
<text text-anchor="start" x="2039" y="-414" font-family="Helvetica,sans-Serif" font-size="10.00">cppuddle/kernel_aggregation</text>
<text text-anchor="middle" x="2122.5" y="-403" font-family="Helvetica,sans-Serif" font-size="10.00">/kernel_aggregation_interface.hpp</text>
</a>
</g>
</g>
<!-- Node1&#45;&gt;Node18 -->
<g id="edge19_Node000001_Node000018" class="edge">
<title>Node1&#45;&gt;Node18</title>
<g id="a_edge19_Node000001_Node000018"><a xlink:title=" ">
<path fill="none" stroke="#63b8ff" d="M2282.51,-461.95C2251.54,-452.28 2210.2,-439.38 2177.3,-429.11"/>
<polygon fill="#63b8ff" stroke="#63b8ff" points="2177.97,-425.65 2167.38,-426.01 2175.89,-432.33 2177.97,-425.65"/>
</a>
</g>
</g>
<!-- Node44 -->
<g id="Node000044" class="node">
<title>Node44</title>
<g id="a_Node000044"><a xlink:title=" ">
<polygon fill="#e0e0e0" stroke="#999999" points="2950.5,-420.5 2800.5,-420.5 2800.5,-401.5 2950.5,-401.5 2950.5,-420.5"/>
<text text-anchor="middle" x="2875.5" y="-408.5" font-family="Helvetica,sans-Serif" font-size="10.00">boost/program_options.hpp</text>
</a>
</g>
</g>
<!-- Node1&#45;&gt;Node44 -->
<g id="edge65_Node000001_Node000044" class="edge">
<title>Node1&#45;&gt;Node44</title>
<g id="a_edge65_Node000001_Node000044"><a xlink:title=" ">
<path fill="none" stroke="#63b8ff" d="M2393.37,-469.82C2482.61,-461.21 2646.85,-444.58 2786.5,-426 2795.29,-424.83 2804.54,-423.49 2813.63,-422.12"/>
<polygon fill="#63b8ff" stroke="#63b8ff" points="2814.44,-425.54 2823.79,-420.56 2813.38,-418.62 2814.44,-425.54"/>
</a>
</g>
</g>
<!-- Node4 -->
<g id="Node000004" class="node">
<title>Node4</title>
<g id="a_Node000004"><a xlink:title=" ">
<polygon fill="#e0e0e0" stroke="#999999" points="2415.5,-19 2367.5,-19 2367.5,0 2415.5,0 2415.5,-19"/>
<text text-anchor="middle" x="2391.5" y="-7" font-family="Helvetica,sans-Serif" font-size="10.00">mutex</text>
</a>
</g>
</g>
<!-- Node3&#45;&gt;Node4 -->
<g id="edge3_Node000003_Node000004" class="edge">
<title>Node3&#45;&gt;Node4</title>
<g id="a_edge3_Node000003_Node000004"><a xlink:title=" ">
<path fill="none" stroke="#63b8ff" d="M2674.36,-54.98C2604.47,-43.99 2484.89,-25.19 2426.14,-15.95"/>
<polygon fill="#63b8ff" stroke="#63b8ff" points="2426.33,-12.43 2415.9,-14.34 2425.24,-19.35 2426.33,-12.43"/>
</a>
</g>
</g>
<!-- Node6 -->
<g id="Node000006" class="node">
<title>Node6</title>
<g id="a_Node000006"><a xlink:href="buffer__management__interface_8hpp.html" target="_top" xlink:title=" ">
<polygon fill="white" stroke="#666666" points="2420,-272 2235,-272 2235,-253 2420,-253 2420,-272"/>
<text text-anchor="middle" x="2327.5" y="-260" font-family="Helvetica,sans-Serif" font-size="10.00">buffer_management_interface.hpp</text>
</a>
</g>
</g>
<!-- Node5&#45;&gt;Node6 -->
<g id="edge5_Node000005_Node000006" class="edge">
<title>Node5&#45;&gt;Node6</title>
<g id="a_edge5_Node000005_Node000006"><a xlink:title=" ">
<path fill="none" stroke="#63b8ff" d="M2327.5,-395.95C2327.5,-369.53 2327.5,-312.39 2327.5,-282.54"/>
<polygon fill="#63b8ff" stroke="#63b8ff" points="2331,-282.23 2327.5,-272.23 2324,-282.23 2331,-282.23"/>
</a>
</g>
</g>
<!-- Node7 -->
<g id="Node000007" class="node">
<title>Node7</title>
<g id="a_Node000007"><a xlink:href="buffer__management_8hpp.html" target="_top" xlink:title=" ">
<polygon fill="white" stroke="#666666" points="2411,-200.5 2244,-200.5 2244,-181.5 2411,-181.5 2411,-200.5"/>
<text text-anchor="middle" x="2327.5" y="-188.5" font-family="Helvetica,sans-Serif" font-size="10.00">detail/buffer_management.hpp</text>
</a>
</g>
</g>
<!-- Node6&#45;&gt;Node7 -->
<g id="edge6_Node000006_Node000007" class="edge">
<title>Node6&#45;&gt;Node7</title>
<g id="a_edge6_Node000006_Node000007"><a xlink:title=" ">
<path fill="none" stroke="#63b8ff" d="M2327.5,-252.98C2327.5,-242.56 2327.5,-224.61 2327.5,-210.88"/>
<polygon fill="#63b8ff" stroke="#63b8ff" points="2331,-210.59 2327.5,-200.59 2324,-210.59 2331,-210.59"/>
</a>
</g>
</g>
<!-- Node7&#45;&gt;Node3 -->
<g id="edge18_Node000007_Node000003" class="edge">
<title>Node7&#45;&gt;Node3</title>
<g id="a_edge18_Node000007_Node000003"><a xlink:title=" ">
<path fill="none" stroke="#63b8ff" d="M2411.19,-187.72C2474.81,-183.35 2563.24,-171.47 2634.5,-140 2666.22,-126 2696.44,-98.69 2713.7,-81.32"/>
<polygon fill="#63b8ff" stroke="#63b8ff" points="2716.23,-83.73 2720.67,-74.11 2711.2,-78.86 2716.23,-83.73"/>
</a>
</g>
</g>
<!-- Node7&#45;&gt;Node4 -->
<g id="edge13_Node000007_Node000004" class="edge">
<title>Node7&#45;&gt;Node4</title>
<g id="a_edge13_Node000007_Node000004"><a xlink:title=" ">
<path fill="none" stroke="#63b8ff" d="M2400.38,-181.47C2460.41,-173.23 2539.71,-159.18 2565.5,-140 2592.32,-120.07 2593.24,-106.38 2601.5,-74 2603.59,-65.82 2606.82,-61.56 2601.5,-55 2579.78,-28.19 2479.62,-16.89 2425.86,-12.68"/>
<polygon fill="#63b8ff" stroke="#63b8ff" points="2425.99,-9.18 2415.76,-11.93 2425.47,-16.16 2425.99,-9.18"/>
</a>
</g>
</g>
<!-- Node8 -->
<g id="Node000008" class="node">
<title>Node8</title>
<g id="a_Node000008"><a xlink:title=" ">
<polygon fill="#e0e0e0" stroke="#999999" points="1915.5,-134.5 1865.5,-134.5 1865.5,-115.5 1915.5,-115.5 1915.5,-134.5"/>
<text text-anchor="middle" x="1890.5" y="-122.5" font-family="Helvetica,sans-Serif" font-size="10.00">atomic</text>
</a>
</g>
</g>
<!-- Node7&#45;&gt;Node8 -->
<g id="edge7_Node000007_Node000008" class="edge">
<title>Node7&#45;&gt;Node8</title>
<g id="a_edge7_Node000007_Node000008"><a xlink:title=" ">
<path fill="none" stroke="#63b8ff" d="M2272.96,-181.47C2260.34,-179.59 2246.96,-177.66 2234.5,-176 2097.01,-157.67 2058.78,-174.73 1924.5,-140 1922.34,-139.44 1920.14,-138.77 1917.94,-138.04"/>
<polygon fill="#63b8ff" stroke="#63b8ff" points="1919.13,-134.75 1908.54,-134.5 1916.66,-141.3 1919.13,-134.75"/>
</a>
</g>
</g>
<!-- Node9 -->
<g id="Node000009" class="node">
<title>Node9</title>
<g id="a_Node000009"><a xlink:title=" ">
<polygon fill="#e0e0e0" stroke="#999999" points="2516.5,-74 2464.5,-74 2464.5,-55 2516.5,-55 2516.5,-74"/>
<text text-anchor="middle" x="2490.5" y="-62" font-family="Helvetica,sans-Serif" font-size="10.00">cassert</text>
</a>
</g>
</g>
<!-- Node7&#45;&gt;Node9 -->
<g id="edge8_Node000007_Node000009" class="edge">
<title>Node7&#45;&gt;Node9</title>
<g id="a_edge8_Node000007_Node000009"><a xlink:title=" ">
<path fill="none" stroke="#63b8ff" d="M2397.47,-181.47C2447.86,-173.72 2509.65,-160.35 2525.5,-140 2539.41,-122.14 2522.71,-97.86 2507.95,-81.94"/>
<polygon fill="#63b8ff" stroke="#63b8ff" points="2510.09,-79.13 2500.58,-74.46 2505.1,-84.04 2510.09,-79.13"/>
</a>
</g>
</g>
<!-- Node10 -->
<g id="Node000010" class="node">
<title>Node10</title>
<g id="a_Node000010"><a xlink:title=" ">
<polygon fill="#e0e0e0" stroke="#999999" points="2466,-134.5 2401,-134.5 2401,-115.5 2466,-115.5 2466,-134.5"/>
<text text-anchor="middle" x="2433.5" y="-122.5" font-family="Helvetica,sans-Serif" font-size="10.00">functional</text>
</a>
</g>
</g>
<!-- Node7&#45;&gt;Node10 -->
<g id="edge9_Node000007_Node000010" class="edge">
<title>Node7&#45;&gt;Node10</title>
<g id="a_edge9_Node000007_Node000010"><a xlink:title=" ">
<path fill="none" stroke="#63b8ff" d="M2341.8,-181.37C2359.42,-170.73 2389.59,-152.51 2410.49,-139.89"/>
<polygon fill="#63b8ff" stroke="#63b8ff" points="2412.34,-142.86 2419.09,-134.7 2408.72,-136.87 2412.34,-142.86"/>
</a>
</g>
</g>
<!-- Node11 -->
<g id="Node000011" class="node">
<title>Node11</title>
<g id="a_Node000011"><a xlink:title=" ">
<polygon fill="#e0e0e0" stroke="#999999" points="2134.5,-74 2074.5,-74 2074.5,-55 2134.5,-55 2134.5,-74"/>
<text text-anchor="middle" x="2104.5" y="-62" font-family="Helvetica,sans-Serif" font-size="10.00">iostream</text>
</a>
</g>
</g>
<!-- Node7&#45;&gt;Node11 -->
<g id="edge10_Node000007_Node000011" class="edge">
<title>Node7&#45;&gt;Node11</title>
<g id="a_edge10_Node000007_Node000011"><a xlink:title=" ">
<path fill="none" stroke="#63b8ff" d="M2264.56,-181.47C2230.75,-174.52 2189.73,-162.09 2158.5,-140 2137.98,-125.49 2122.28,-100.67 2113.24,-83.7"/>
<polygon fill="#63b8ff" stroke="#63b8ff" points="2116.12,-81.64 2108.48,-74.31 2109.87,-84.81 2116.12,-81.64"/>
</a>
</g>
</g>
<!-- Node12 -->
<g id="Node000012" class="node">
<title>Node12</title>
<g id="a_Node000012"><a xlink:title=" ">
<polygon fill="#e0e0e0" stroke="#999999" points="2516.5,-134.5 2484.5,-134.5 2484.5,-115.5 2516.5,-115.5 2516.5,-134.5"/>
<text text-anchor="middle" x="2500.5" y="-122.5" font-family="Helvetica,sans-Serif" font-size="10.00">list</text>
</a>
</g>
</g>
<!-- Node7&#45;&gt;Node12 -->
<g id="edge11_Node000007_Node000012" class="edge">
<title>Node7&#45;&gt;Node12</title>
<g id="a_edge11_Node000007_Node000012"><a xlink:title=" ">
<path fill="none" stroke="#63b8ff" d="M2357.33,-181.45C2387.42,-172.45 2434.96,-157.23 2474.5,-140 2475.19,-139.7 2475.88,-139.39 2476.58,-139.07"/>
<polygon fill="#63b8ff" stroke="#63b8ff" points="2478.2,-142.17 2485.59,-134.58 2475.08,-135.91 2478.2,-142.17"/>
</a>
</g>
</g>
<!-- Node13 -->
<g id="Node000013" class="node">
<title>Node13</title>
<g id="a_Node000013"><a xlink:title=" ">
<polygon fill="#e0e0e0" stroke="#999999" points="2592.5,-74 2534.5,-74 2534.5,-55 2592.5,-55 2592.5,-74"/>
<text text-anchor="middle" x="2563.5" y="-62" font-family="Helvetica,sans-Serif" font-size="10.00">memory</text>
</a>
</g>
</g>
<!-- Node7&#45;&gt;Node13 -->
<g id="edge12_Node000007_Node000013" class="edge">
<title>Node7&#45;&gt;Node13</title>
<g id="a_edge12_Node000007_Node000013"><a xlink:title=" ">
<path fill="none" stroke="#63b8ff" d="M2397.69,-181.47C2452.17,-173.47 2521.82,-159.75 2542.5,-140 2557.5,-125.67 2562.05,-101.53 2563.29,-84.63"/>
<polygon fill="#63b8ff" stroke="#63b8ff" points="2566.8,-84.42 2563.71,-74.29 2559.81,-84.14 2566.8,-84.42"/>
</a>
</g>
</g>
<!-- Node14 -->
<g id="Node000014" class="node">
<title>Node14</title>
<g id="a_Node000014"><a xlink:title=" ">
<polygon fill="#e0e0e0" stroke="#999999" points="1989.5,-134.5 1933.5,-134.5 1933.5,-115.5 1989.5,-115.5 1989.5,-134.5"/>
<text text-anchor="middle" x="1961.5" y="-122.5" font-family="Helvetica,sans-Serif" font-size="10.00">optional</text>
</a>
</g>
</g>
<!-- Node7&#45;&gt;Node14 -->
<g id="edge14_Node000007_Node000014" class="edge">
<title>Node7&#45;&gt;Node14</title>
<g id="a_edge14_Node000007_Node000014"><a xlink:title=" ">
<path fill="none" stroke="#63b8ff" d="M2270.89,-181.47C2177.68,-167.42 2001.78,-140.86 1998.5,-140 1996.2,-139.4 1993.85,-138.7 1991.5,-137.95"/>
<polygon fill="#63b8ff" stroke="#63b8ff" points="1992.59,-134.62 1981.99,-134.63 1990.28,-141.23 1992.59,-134.62"/>
</a>
</g>
</g>
<!-- Node15 -->
<g id="Node000015" class="node">
<title>Node15</title>
<g id="a_Node000015"><a xlink:title=" ">
<polygon fill="#e0e0e0" stroke="#999999" points="2073,-134.5 2008,-134.5 2008,-115.5 2073,-115.5 2073,-134.5"/>
<text text-anchor="middle" x="2040.5" y="-122.5" font-family="Helvetica,sans-Serif" font-size="10.00">stdexcept</text>
</a>
</g>
</g>
<!-- Node7&#45;&gt;Node15 -->
<g id="edge15_Node000007_Node000015" class="edge">
<title>Node7&#45;&gt;Node15</title>
<g id="a_edge15_Node000007_Node000015"><a xlink:title=" ">
<path fill="none" stroke="#63b8ff" d="M2280.78,-181.47C2232.22,-172.33 2154.14,-156.84 2087.5,-140 2084.28,-139.19 2080.95,-138.3 2077.62,-137.37"/>
<polygon fill="#63b8ff" stroke="#63b8ff" points="2078.31,-133.93 2067.73,-134.53 2076.38,-140.66 2078.31,-133.93"/>
</a>
</g>
</g>
<!-- Node16 -->
<g id="Node000016" class="node">
<title>Node16</title>
<g id="a_Node000016"><a xlink:title=" ">
<polygon fill="#e0e0e0" stroke="#999999" points="2056,-74 1987,-74 1987,-55 2056,-55 2056,-74"/>
<text text-anchor="middle" x="2021.5" y="-62" font-family="Helvetica,sans-Serif" font-size="10.00">type_traits</text>
</a>
</g>
</g>
<!-- Node7&#45;&gt;Node16 -->
<g id="edge16_Node000007_Node000016" class="edge">
<title>Node7&#45;&gt;Node16</title>
<g id="a_edge16_Node000007_Node000016"><a xlink:title=" ">
<path fill="none" stroke="#63b8ff" d="M2270.47,-181.5C2229.41,-174.02 2173.4,-160.98 2127.5,-140 2118.32,-135.8 2069.86,-100.84 2041.75,-80.34"/>
<polygon fill="#63b8ff" stroke="#63b8ff" points="2043.55,-77.32 2033.41,-74.24 2039.42,-82.97 2043.55,-77.32"/>
</a>
</g>
</g>
<!-- Node17 -->
<g id="Node000017" class="node">
<title>Node17</title>
<g id="a_Node000017"><a xlink:title=" ">
<polygon fill="#e0e0e0" stroke="#999999" points="1847,-134.5 1754,-134.5 1754,-115.5 1847,-115.5 1847,-134.5"/>
<text text-anchor="middle" x="1800.5" y="-122.5" font-family="Helvetica,sans-Serif" font-size="10.00">unordered_map</text>
</a>
</g>
</g>
<!-- Node7&#45;&gt;Node17 -->
<g id="edge17_Node000007_Node000017" class="edge">
<title>Node7&#45;&gt;Node17</title>
<g id="a_edge17_Node000007_Node000017"><a xlink:title=" ">
<path fill="none" stroke="#63b8ff" d="M2273.96,-181.43C2261.06,-179.51 2247.3,-177.57 2234.5,-176 2067,-155.43 2022.83,-168.55 1856.5,-140 1851.44,-139.13 1846.17,-138.05 1840.97,-136.88"/>
<polygon fill="#63b8ff" stroke="#63b8ff" points="1841.67,-133.45 1831.13,-134.54 1840.05,-140.26 1841.67,-133.45"/>
</a>
</g>
</g>
<!-- Node19 -->
<g id="Node000019" class="node">
<title>Node19</title>
<g id="a_Node000019"><a xlink:href="executor__pools__interface_8hpp.html" target="_top" xlink:title=" ">
<polygon fill="white" stroke="#666666" points="2226,-206 2063,-206 2063,-176 2226,-176 2226,-206"/>
<text text-anchor="start" x="2071" y="-194" font-family="Helvetica,sans-Serif" font-size="10.00">cppuddle/executor_recycling</text>
<text text-anchor="middle" x="2144.5" y="-183" font-family="Helvetica,sans-Serif" font-size="10.00">/executor_pools_interface.hpp</text>
</a>
</g>
</g>
<!-- Node18&#45;&gt;Node19 -->
<g id="edge20_Node000018_Node000019" class="edge">
<title>Node18&#45;&gt;Node19</title>
<g id="a_edge20_Node000018_Node000019"><a xlink:title=" ">
<path fill="none" stroke="#63b8ff" d="M2123.94,-395.7C2127.63,-359.12 2137.45,-261.84 2142.05,-216.24"/>
<polygon fill="#63b8ff" stroke="#63b8ff" points="2145.56,-216.37 2143.08,-206.07 2138.59,-215.67 2145.56,-216.37"/>
</a>
</g>
</g>
<!-- Node26 -->
<g id="Node000026" class="node">
<title>Node26</title>
<g id="a_Node000026"><a xlink:href="aggregation__executors__and__allocators_8hpp.html" target="_top" xlink:title=" ">
<polygon fill="white" stroke="#666666" points="1506,-283 1345,-283 1345,-242 1506,-242 1506,-283"/>
<text text-anchor="start" x="1353" y="-271" font-family="Helvetica,sans-Serif" font-size="10.00">cppuddle/kernel_aggregation</text>
<text text-anchor="start" x="1353" y="-260" font-family="Helvetica,sans-Serif" font-size="10.00">/detail/aggregation_executors</text>
<text text-anchor="middle" x="1425.5" y="-249" font-family="Helvetica,sans-Serif" font-size="10.00">_and_allocators.hpp</text>
</a>
</g>
</g>
<!-- Node18&#45;&gt;Node26 -->
<g id="edge33_Node000018_Node000026" class="edge">
<title>Node18&#45;&gt;Node26</title>
<g id="a_edge33_Node000018_Node000026"><a xlink:title=" ">
<path fill="none" stroke="#63b8ff" d="M2055.67,-395.95C1929.97,-369.53 1658.27,-312.43 1516.21,-282.57"/>
<polygon fill="#63b8ff" stroke="#63b8ff" points="1516.72,-279.1 1506.21,-280.46 1515.28,-285.95 1516.72,-279.1"/>
</a>
</g>
</g>
<!-- Node43 -->
<g id="Node000043" class="node">
<title>Node43</title>
<g id="a_Node000043"><a xlink:href="aggregation__executor__pools_8hpp.html" target="_top" xlink:title=" ">
<polygon fill="white" stroke="#666666" points="1645.5,-360 1487.5,-360 1487.5,-319 1645.5,-319 1645.5,-360"/>
<text text-anchor="start" x="1495.5" y="-348" font-family="Helvetica,sans-Serif" font-size="10.00">cppuddle/kernel_aggregation</text>
<text text-anchor="start" x="1495.5" y="-337" font-family="Helvetica,sans-Serif" font-size="10.00">/detail/aggregation_executor</text>
<text text-anchor="middle" x="1566.5" y="-326" font-family="Helvetica,sans-Serif" font-size="10.00">_pools.hpp</text>
</a>
</g>
</g>
<!-- Node18&#45;&gt;Node43 -->
<g id="edge63_Node000018_Node000043" class="edge">
<title>Node18&#45;&gt;Node43</title>
<g id="a_edge63_Node000018_Node000043"><a xlink:title=" ">
<path fill="none" stroke="#63b8ff" d="M2031,-398.56C1927.18,-385.59 1758.96,-364.56 1655.99,-351.69"/>
<polygon fill="#63b8ff" stroke="#63b8ff" points="1656.28,-348.2 1645.92,-350.43 1655.41,-355.14 1656.28,-348.2"/>
</a>
</g>
</g>
<!-- Node20 -->
<g id="Node000020" class="node">
<title>Node20</title>
<g id="a_Node000020"><a xlink:href="executor__pools__management_8hpp.html" target="_top" xlink:title=" ">
<polygon fill="white" stroke="#666666" points="2383,-140 2168,-140 2168,-110 2383,-110 2383,-140"/>
<text text-anchor="start" x="2176" y="-128" font-family="Helvetica,sans-Serif" font-size="10.00">cppuddle/executor_recycling</text>
<text text-anchor="middle" x="2275.5" y="-117" font-family="Helvetica,sans-Serif" font-size="10.00">/detail/executor_pools_management.hpp</text>
</a>
</g>
</g>
<!-- Node19&#45;&gt;Node20 -->
<g id="edge21_Node000019_Node000020" class="edge">
<title>Node19&#45;&gt;Node20</title>
<g id="a_edge21_Node000019_Node000020"><a xlink:title=" ">
<path fill="none" stroke="#63b8ff" d="M2173.25,-175.95C2192.19,-166.7 2217.19,-154.49 2237.73,-144.45"/>
<polygon fill="#63b8ff" stroke="#63b8ff" points="2239.37,-147.55 2246.82,-140.01 2236.3,-141.26 2239.37,-147.55"/>
</a>
</g>
</g>
<!-- Node20&#45;&gt;Node3 -->
<g id="edge32_Node000020_Node000003" class="edge">
<title>Node20&#45;&gt;Node3</title>
<g id="a_edge32_Node000020_Node000003"><a xlink:title=" ">
<path fill="none" stroke="#63b8ff" d="M2383.14,-110.1C2466.11,-99.38 2578.77,-84.84 2652.53,-75.31"/>
<polygon fill="#63b8ff" stroke="#63b8ff" points="2653.2,-78.75 2662.67,-74 2652.3,-71.81 2653.2,-78.75"/>
</a>
</g>
</g>
<!-- Node20&#45;&gt;Node4 -->
<g id="edge28_Node000020_Node000004" class="edge">
<title>Node20&#45;&gt;Node4</title>
<g id="a_edge28_Node000020_Node000004"><a xlink:title=" ">
<path fill="none" stroke="#63b8ff" d="M2229.35,-109.95C2197,-97.7 2162.64,-78.28 2181.5,-55 2203.22,-28.19 2303.38,-16.89 2357.14,-12.68"/>
<polygon fill="#63b8ff" stroke="#63b8ff" points="2357.53,-16.16 2367.24,-11.93 2357.01,-9.18 2357.53,-16.16"/>
</a>
</g>
</g>
<!-- Node20&#45;&gt;Node9 -->
<g id="edge24_Node000020_Node000009" class="edge">
<title>Node20&#45;&gt;Node9</title>
<g id="a_edge24_Node000020_Node000009"><a xlink:title=" ">
<path fill="none" stroke="#63b8ff" d="M2327,-109.99C2366.35,-99.28 2419.58,-84.8 2454.46,-75.3"/>
<polygon fill="#63b8ff" stroke="#63b8ff" points="2455.5,-78.65 2464.23,-72.65 2453.66,-71.9 2455.5,-78.65"/>
</a>
</g>
</g>
<!-- Node20&#45;&gt;Node11 -->
<g id="edge26_Node000020_Node000011" class="edge">
<title>Node20&#45;&gt;Node11</title>
<g id="a_edge26_Node000020_Node000011"><a xlink:title=" ">
<path fill="none" stroke="#63b8ff" d="M2234.54,-109.99C2205.5,-100.05 2166.95,-86.86 2139.38,-77.43"/>
<polygon fill="#63b8ff" stroke="#63b8ff" points="2140.35,-74.06 2129.75,-74.14 2138.08,-80.69 2140.35,-74.06"/>
</a>
</g>
</g>
<!-- Node20&#45;&gt;Node13 -->
<g id="edge27_Node000020_Node000013" class="edge">
<title>Node20&#45;&gt;Node13</title>
<g id="a_edge27_Node000020_Node000013"><a xlink:title=" ">
<path fill="none" stroke="#63b8ff" d="M2347.79,-109.99C2395.33,-100.68 2459.15,-87.97 2524.41,-74.19"/>
<polygon fill="#63b8ff" stroke="#63b8ff" points="2525.41,-77.56 2534.47,-72.06 2523.96,-70.71 2525.41,-77.56"/>
</a>
</g>
</g>
<!-- Node20&#45;&gt;Node16 -->
<g id="edge31_Node000020_Node000016" class="edge">
<title>Node20&#45;&gt;Node16</title>
<g id="a_edge31_Node000020_Node000016"><a xlink:title=" ">
<path fill="none" stroke="#63b8ff" d="M2214.66,-109.99C2168.83,-99.43 2107.06,-85.21 2065.83,-75.71"/>
<polygon fill="#63b8ff" stroke="#63b8ff" points="2066.61,-72.3 2056.08,-73.46 2065.04,-79.12 2066.61,-72.3"/>
</a>
</g>
</g>
<!-- Node21 -->
<g id="Node000021" class="node">
<title>Node21</title>
<g id="a_Node000021"><a xlink:title=" ">
<polygon fill="#e0e0e0" stroke="#999999" points="2320.5,-74 2256.5,-74 2256.5,-55 2320.5,-55 2320.5,-74"/>
<text text-anchor="middle" x="2288.5" y="-62" font-family="Helvetica,sans-Serif" font-size="10.00">algorithm</text>
</a>
</g>
</g>
<!-- Node20&#45;&gt;Node21 -->
<g id="edge22_Node000020_Node000021" class="edge">
<title>Node20&#45;&gt;Node21</title>
<g id="a_edge22_Node000020_Node000021"><a xlink:title=" ">
<path fill="none" stroke="#63b8ff" d="M2278.65,-109.84C2280.36,-102.13 2282.5,-92.49 2284.35,-84.17"/>
<polygon fill="#63b8ff" stroke="#63b8ff" points="2287.8,-84.79 2286.55,-74.27 2280.97,-83.27 2287.8,-84.79"/>
</a>
</g>
</g>
<!-- Node22 -->
<g id="Node000022" class="node">
<title>Node22</title>
<g id="a_Node000022"><a xlink:title=" ">
<polygon fill="#e0e0e0" stroke="#999999" points="2380.5,-74 2338.5,-74 2338.5,-55 2380.5,-55 2380.5,-74"/>
<text text-anchor="middle" x="2359.5" y="-62" font-family="Helvetica,sans-Serif" font-size="10.00">array</text>
</a>
</g>
</g>
<!-- Node20&#45;&gt;Node22 -->
<g id="edge23_Node000020_Node000022" class="edge">
<title>Node20&#45;&gt;Node22</title>
<g id="a_edge23_Node000020_Node000022"><a xlink:title=" ">
<path fill="none" stroke="#63b8ff" d="M2295.83,-109.84C2308.77,-100.83 2325.49,-89.18 2338.55,-80.09"/>
<polygon fill="#63b8ff" stroke="#63b8ff" points="2340.71,-82.85 2346.91,-74.27 2336.71,-77.11 2340.71,-82.85"/>
</a>
</g>
</g>
<!-- Node23 -->
<g id="Node000023" class="node">
<title>Node23</title>
<g id="a_Node000023"><a xlink:title=" ">
<polygon fill="#e0e0e0" stroke="#999999" points="2446,-74 2399,-74 2399,-55 2446,-55 2446,-74"/>
<text text-anchor="middle" x="2422.5" y="-62" font-family="Helvetica,sans-Serif" font-size="10.00">deque</text>
</a>
</g>
</g>
<!-- Node20&#45;&gt;Node23 -->
<g id="edge25_Node000020_Node000023" class="edge">
<title>Node20&#45;&gt;Node23</title>
<g id="a_edge25_Node000020_Node000023"><a xlink:title=" ">
<path fill="none" stroke="#63b8ff" d="M2310.71,-109.99C2335.24,-100.23 2367.65,-87.33 2391.26,-77.93"/>
<polygon fill="#63b8ff" stroke="#63b8ff" points="2392.79,-81.09 2400.79,-74.14 2390.21,-74.58 2392.79,-81.09"/>
</a>
</g>
</g>
<!-- Node24 -->
<g id="Node000024" class="node">
<title>Node24</title>
<g id="a_Node000024"><a xlink:title=" ">
<polygon fill="#e0e0e0" stroke="#999999" points="2238,-74 2191,-74 2191,-55 2238,-55 2238,-74"/>
<text text-anchor="middle" x="2214.5" y="-62" font-family="Helvetica,sans-Serif" font-size="10.00">queue</text>
</a>
</g>
</g>
<!-- Node20&#45;&gt;Node24 -->
<g id="edge29_Node000020_Node000024" class="edge">
<title>Node20&#45;&gt;Node24</title>
<g id="a_edge29_Node000020_Node000024"><a xlink:title=" ">
<path fill="none" stroke="#63b8ff" d="M2260.73,-109.84C2251.79,-101.26 2240.36,-90.3 2231.1,-81.42"/>
<polygon fill="#63b8ff" stroke="#63b8ff" points="2233.28,-78.66 2223.64,-74.27 2228.44,-83.71 2233.28,-78.66"/>
</a>
</g>
</g>
<!-- Node25 -->
<g id="Node000025" class="node">
<title>Node25</title>
<g id="a_Node000025"><a xlink:title=" ">
<polygon fill="#e0e0e0" stroke="#999999" points="1096,-74 1055,-74 1055,-55 1096,-55 1096,-74"/>
<text text-anchor="middle" x="1075.5" y="-62" font-family="Helvetica,sans-Serif" font-size="10.00">tuple</text>
</a>
</g>
</g>
<!-- Node20&#45;&gt;Node25 -->
<g id="edge30_Node000020_Node000025" class="edge">
<title>Node20&#45;&gt;Node25</title>
<g id="a_edge30_Node000020_Node000025"><a xlink:title=" ">
<path fill="none" stroke="#63b8ff" d="M2167.79,-115.69C2139.71,-113.67 2109.48,-111.63 2081.5,-110 1696.93,-87.62 1229.07,-70.8 1106.22,-66.55"/>
<polygon fill="#63b8ff" stroke="#63b8ff" points="1106.17,-63.04 1096.05,-66.2 1105.93,-70.04 1106.17,-63.04"/>
</a>
</g>
</g>
<!-- Node26&#45;&gt;Node2 -->
<g id="edge51_Node000026_Node000002" class="edge">
<title>Node26&#45;&gt;Node2</title>
<g id="a_edge51_Node000026_Node000002"><a xlink:title=" ">
<path fill="none" stroke="#63b8ff" d="M1344.59,-259.46C1100.63,-253.07 374.63,-232.32 139.5,-206 131.06,-205.05 122.14,-203.74 113.49,-202.28"/>
<polygon fill="#63b8ff" stroke="#63b8ff" points="113.96,-198.81 103.51,-200.53 112.75,-205.71 113.96,-198.81"/>
</a>
</g>
</g>
<!-- Node26&#45;&gt;Node3 -->
<g id="edge60_Node000026_Node000003" class="edge">
<title>Node26&#45;&gt;Node3</title>
<g id="a_edge60_Node000026_Node000003"><a xlink:title=" ">
<path fill="none" stroke="#63b8ff" d="M1506.04,-259.52C1738.05,-253.49 2397.27,-234.09 2490.5,-206 2580.24,-178.96 2671.6,-111.38 2709.86,-80.87"/>
<polygon fill="#63b8ff" stroke="#63b8ff" points="2712.43,-83.3 2718.01,-74.29 2708.03,-77.85 2712.43,-83.3"/>
</a>
</g>
</g>
<!-- Node26&#45;&gt;Node4 -->
<g id="edge42_Node000026_Node000004" class="edge">
<title>Node26&#45;&gt;Node4</title>
<g id="a_edge42_Node000026_Node000004"><a xlink:title=" ">
<path fill="none" stroke="#63b8ff" d="M1344.79,-259.35C1074.11,-251.95 214.42,-226.84 194.5,-206 185.29,-196.36 190.19,-188.62 194.5,-176 206.48,-140.92 212.81,-127.47 245.5,-110 559.83,57.97 689.57,-73.11 1045.5,-55 1567.13,-28.45 2203.31,-14.35 2356.93,-11.19"/>
<polygon fill="#63b8ff" stroke="#63b8ff" points="2357.22,-14.68 2367.15,-10.98 2357.08,-7.69 2357.22,-14.68"/>
</a>
</g>
</g>
<!-- Node26&#45;&gt;Node7 -->
<g id="edge61_Node000026_Node000007" class="edge">
<title>Node26&#45;&gt;Node7</title>
<g id="a_edge61_Node000026_Node000007"><a xlink:title=" ">
<path fill="none" stroke="#63b8ff" d="M1506.07,-258.14C1651.76,-251.57 1968.6,-235.09 2234.5,-206 2244.71,-204.88 2255.52,-203.47 2266.01,-201.97"/>
<polygon fill="#63b8ff" stroke="#63b8ff" points="2266.56,-205.43 2275.95,-200.52 2265.54,-198.5 2266.56,-205.43"/>
</a>
</g>
</g>
<!-- Node26&#45;&gt;Node8 -->
<g id="edge37_Node000026_Node000008" class="edge">
<title>Node26&#45;&gt;Node8</title>
<g id="a_edge37_Node000026_Node000008"><a xlink:title=" ">
<path fill="none" stroke="#63b8ff" d="M1506.09,-259.41C1612.51,-255.22 1792.71,-242.76 1846.5,-206 1867.72,-191.5 1879.71,-163.26 1885.65,-144.52"/>
<polygon fill="#63b8ff" stroke="#63b8ff" points="1889.06,-145.33 1888.48,-134.75 1882.34,-143.39 1889.06,-145.33"/>
</a>
</g>
</g>
<!-- Node26&#45;&gt;Node11 -->
<g id="edge40_Node000026_Node000011" class="edge">
<title>Node26&#45;&gt;Node11</title>
<g id="a_edge40_Node000026_Node000011"><a xlink:title=" ">
<path fill="none" stroke="#63b8ff" d="M1506.32,-260.28C1598.2,-256.99 1739.85,-245.45 1773.5,-206 1802.43,-172.09 1714.8,-143.23 1744.5,-110 1792.19,-56.65 1993.86,-85.45 2064.5,-74 2064.6,-73.98 2064.7,-73.97 2064.8,-73.95"/>
<polygon fill="#63b8ff" stroke="#63b8ff" points="2065.2,-77.44 2074.42,-72.22 2063.96,-70.55 2065.2,-77.44"/>
</a>
</g>
</g>
<!-- Node26&#45;&gt;Node13 -->
<g id="edge41_Node000026_Node000013" class="edge">
<title>Node26&#45;&gt;Node13</title>
<g id="a_edge41_Node000026_Node000013"><a xlink:title=" ">
<path fill="none" stroke="#63b8ff" d="M1506.14,-260.8C1710.93,-258.43 2247.01,-248.24 2419.5,-206 2488.67,-189.06 2526.89,-199.83 2565.5,-140 2576.22,-123.39 2573.43,-100.08 2569.44,-83.98"/>
<polygon fill="#63b8ff" stroke="#63b8ff" points="2572.75,-82.81 2566.64,-74.15 2566.02,-84.73 2572.75,-82.81"/>
</a>
</g>
</g>
<!-- Node26&#45;&gt;Node14 -->
<g id="edge43_Node000026_Node000014" class="edge">
<title>Node26&#45;&gt;Node14</title>
<g id="a_edge43_Node000026_Node000014"><a xlink:title=" ">
<path fill="none" stroke="#63b8ff" d="M1506.34,-257.35C1617.21,-250.66 1809.94,-235.19 1873.5,-206 1905.09,-191.49 1933.18,-161.47 1948.72,-142.61"/>
<polygon fill="#63b8ff" stroke="#63b8ff" points="1951.62,-144.6 1955.12,-134.6 1946.15,-140.23 1951.62,-144.6"/>
</a>
</g>
</g>
<!-- Node26&#45;&gt;Node15 -->
<g id="edge34_Node000026_Node000015" class="edge">
<title>Node26&#45;&gt;Node15</title>
<g id="a_edge34_Node000026_Node000015"><a xlink:title=" ">
<path fill="none" stroke="#63b8ff" d="M1506.17,-256.48C1623.97,-248.42 1836.92,-230.96 1909.5,-206 1953.27,-190.95 1997.94,-159.5 2022.15,-140.83"/>
<polygon fill="#63b8ff" stroke="#63b8ff" points="2024.4,-143.51 2030.1,-134.58 2020.08,-138.01 2024.4,-143.51"/>
</a>
</g>
</g>
<!-- Node26&#45;&gt;Node16 -->
<g id="edge47_Node000026_Node000016" class="edge">
<title>Node26&#45;&gt;Node16</title>
<g id="a_edge47_Node000026_Node000016"><a xlink:title=" ">
<path fill="none" stroke="#63b8ff" d="M1506.31,-259.51C1593.79,-255.44 1725.07,-243.14 1756.5,-206 1765.11,-195.82 1762.28,-188.02 1756.5,-176 1745.4,-152.92 1722.6,-163.08 1711.5,-140 1705.72,-127.98 1702.77,-120.08 1711.5,-110 1745.26,-71.05 1899.03,-65.39 1976.55,-65.07"/>
<polygon fill="#63b8ff" stroke="#63b8ff" points="1976.96,-68.57 1986.96,-65.05 1976.95,-61.57 1976.96,-68.57"/>
</a>
</g>
</g>
<!-- Node26&#45;&gt;Node17 -->
<g id="edge50_Node000026_Node000017" class="edge">
<title>Node26&#45;&gt;Node17</title>
<g id="a_edge50_Node000026_Node000017"><a xlink:title=" ">
<path fill="none" stroke="#63b8ff" d="M1506.11,-262.36C1611.5,-261.56 1787.54,-252.98 1828.5,-206 1844.31,-187.86 1828.5,-160.26 1815.02,-142.68"/>
<polygon fill="#63b8ff" stroke="#63b8ff" points="1817.39,-140.05 1808.36,-134.51 1811.96,-144.47 1817.39,-140.05"/>
</a>
</g>
</g>
<!-- Node26&#45;&gt;Node19 -->
<g id="edge62_Node000026_Node000019" class="edge">
<title>Node26&#45;&gt;Node19</title>
<g id="a_edge62_Node000026_Node000019"><a xlink:title=" ">
<path fill="none" stroke="#63b8ff" d="M1506.47,-256.02C1624.32,-247.67 1850.21,-230.27 2052.75,-206.04"/>
<polygon fill="#63b8ff" stroke="#63b8ff" points="2053.17,-209.51 2062.68,-204.84 2052.34,-202.56 2053.17,-209.51"/>
</a>
</g>
</g>
<!-- Node26&#45;&gt;Node25 -->
<g id="edge46_Node000026_Node000025" class="edge">
<title>Node26&#45;&gt;Node25</title>
<g id="a_edge46_Node000026_Node000025"><a xlink:title=" ">
<path fill="none" stroke="#63b8ff" d="M1344.9,-259.3C1076.71,-251.81 230.13,-226.55 210.5,-206 90.18,-80.06 877.09,-67.01 1044.59,-65.66"/>
<polygon fill="#63b8ff" stroke="#63b8ff" points="1044.73,-69.16 1054.71,-65.58 1044.68,-62.16 1044.73,-69.16"/>
</a>
</g>
</g>
<!-- Node27 -->
<g id="Node000027" class="node">
<title>Node27</title>
<g id="a_Node000027"><a xlink:title=" ">
<polygon fill="#e0e0e0" stroke="#999999" points="2044.5,-200.5 1994.5,-200.5 1994.5,-181.5 2044.5,-181.5 2044.5,-200.5"/>
<text text-anchor="middle" x="2019.5" y="-188.5" font-family="Helvetica,sans-Serif" font-size="10.00">stdio.h</text>
</a>
</g>
</g>
<!-- Node26&#45;&gt;Node27 -->
<g id="edge35_Node000026_Node000027" class="edge">
<title>Node26&#45;&gt;Node27</title>
<g id="a_edge35_Node000026_Node000027"><a xlink:title=" ">
<path fill="none" stroke="#63b8ff" d="M1506.45,-259.6C1615.41,-255.63 1814.73,-243.44 1980.5,-206 1983.33,-205.36 1986.23,-204.58 1989.12,-203.71"/>
<polygon fill="#63b8ff" stroke="#63b8ff" points="1990.34,-206.99 1998.73,-200.52 1988.14,-200.35 1990.34,-206.99"/>
</a>
</g>
</g>
<!-- Node28 -->
<g id="Node000028" class="node">
<title>Node28</title>
<g id="a_Node000028"><a xlink:title=" ">
<polygon fill="#e0e0e0" stroke="#999999" points="255,-200.5 220,-200.5 220,-181.5 255,-181.5 255,-200.5"/>
<text text-anchor="middle" x="237.5" y="-188.5" font-family="Helvetica,sans-Serif" font-size="10.00">any</text>
</a>
</g>
</g>
<!-- Node26&#45;&gt;Node28 -->
<g id="edge36_Node000026_Node000028" class="edge">
<title>Node26&#45;&gt;Node28</title>
<g id="a_edge36_Node000026_Node000028"><a xlink:title=" ">
<path fill="none" stroke="#63b8ff" d="M1344.86,-259.64C1098.78,-253.69 367.95,-233.86 264.5,-206 263.24,-205.66 261.97,-205.26 260.7,-204.8"/>
<polygon fill="#63b8ff" stroke="#63b8ff" points="261.88,-201.5 251.33,-200.61 259.03,-207.89 261.88,-201.5"/>
</a>
</g>
</g>
<!-- Node29 -->
<g id="Node000029" class="node">
<title>Node29</title>
<g id="a_Node000029"><a xlink:title=" ">
<polygon fill="#e0e0e0" stroke="#999999" points="323.5,-200.5 273.5,-200.5 273.5,-181.5 323.5,-181.5 323.5,-200.5"/>
<text text-anchor="middle" x="298.5" y="-188.5" font-family="Helvetica,sans-Serif" font-size="10.00">chrono</text>
</a>
</g>
</g>
<!-- Node26&#45;&gt;Node29 -->
<g id="edge38_Node000026_Node000029" class="edge">
<title>Node26&#45;&gt;Node29</title>
<g id="a_edge38_Node000026_Node000029"><a xlink:title=" ">
<path fill="none" stroke="#63b8ff" d="M1344.7,-258.98C1108.59,-251.39 430.24,-227.92 332.5,-206 330.27,-205.5 328.01,-204.87 325.75,-204.15"/>
<polygon fill="#63b8ff" stroke="#63b8ff" points="326.72,-200.77 316.13,-200.59 324.29,-207.34 326.72,-200.77"/>
</a>
</g>
</g>
<!-- Node30 -->
<g id="Node000030" class="node">
<title>Node30</title>
<g id="a_Node000030"><a xlink:title=" ">
<polygon fill="#e0e0e0" stroke="#999999" points="387.5,-200.5 341.5,-200.5 341.5,-181.5 387.5,-181.5 387.5,-200.5"/>
<text text-anchor="middle" x="364.5" y="-188.5" font-family="Helvetica,sans-Serif" font-size="10.00">cstdio</text>
</a>
</g>
</g>
<!-- Node26&#45;&gt;Node30 -->
<g id="edge39_Node000026_Node000030" class="edge">
<title>Node26&#45;&gt;Node30</title>
<g id="a_edge39_Node000026_Node000030"><a xlink:title=" ">
<path fill="none" stroke="#63b8ff" d="M1344.74,-260.86C1134.86,-258.6 576.11,-248.65 396.5,-206 394.55,-205.54 392.58,-204.96 390.61,-204.31"/>
<polygon fill="#63b8ff" stroke="#63b8ff" points="391.64,-200.95 381.05,-200.58 389.09,-207.48 391.64,-200.95"/>
</a>
</g>
</g>
<!-- Node31 -->
<g id="Node000031" class="node">
<title>Node31</title>
<g id="a_Node000031"><a xlink:title=" ">
<polygon fill="#e0e0e0" stroke="#999999" points="463,-200.5 406,-200.5 406,-181.5 463,-181.5 463,-200.5"/>
<text text-anchor="middle" x="434.5" y="-188.5" font-family="Helvetica,sans-Serif" font-size="10.00">ostream</text>
</a>
</g>
</g>
<!-- Node26&#45;&gt;Node31 -->
<g id="edge44_Node000026_Node000031" class="edge">
<title>Node26&#45;&gt;Node31</title>
<g id="a_edge44_Node000026_Node000031"><a xlink:title=" ">
<path fill="none" stroke="#63b8ff" d="M1344.73,-259.85C1146.14,-255.3 638.19,-240.55 472.5,-206 469.66,-205.41 466.75,-204.64 463.86,-203.78"/>
<polygon fill="#63b8ff" stroke="#63b8ff" points="464.89,-200.43 454.29,-200.54 462.64,-207.06 464.89,-200.43"/>
</a>
</g>
</g>
<!-- Node32 -->
<g id="Node000032" class="node">
<title>Node32</title>
<g id="a_Node000032"><a xlink:title=" ">
<polygon fill="#e0e0e0" stroke="#999999" points="525.5,-200.5 481.5,-200.5 481.5,-181.5 525.5,-181.5 525.5,-200.5"/>
<text text-anchor="middle" x="503.5" y="-188.5" font-family="Helvetica,sans-Serif" font-size="10.00">string</text>
</a>
</g>
</g>
<!-- Node26&#45;&gt;Node32 -->
<g id="edge45_Node000026_Node000032" class="edge">
<title>Node26&#45;&gt;Node32</title>
<g id="a_edge45_Node000026_Node000032"><a xlink:title=" ">
<path fill="none" stroke="#63b8ff" d="M1344.98,-260.19C1155.66,-256.52 686.81,-243.79 534.5,-206 532.77,-205.57 531.01,-205.05 529.26,-204.46"/>
<polygon fill="#63b8ff" stroke="#63b8ff" points="530.1,-201.02 519.51,-200.56 527.5,-207.52 530.1,-201.02"/>
</a>
</g>
</g>
<!-- Node33 -->
<g id="Node000033" class="node">
<title>Node33</title>
<g id="a_Node000033"><a xlink:title=" ">
<polygon fill="#e0e0e0" stroke="#999999" points="601,-200.5 544,-200.5 544,-181.5 601,-181.5 601,-200.5"/>
<text text-anchor="middle" x="572.5" y="-188.5" font-family="Helvetica,sans-Serif" font-size="10.00">typeinfo</text>
</a>
</g>
</g>
<!-- Node26&#45;&gt;Node33 -->
<g id="edge48_Node000026_Node000033" class="edge">
<title>Node26&#45;&gt;Node33</title>
<g id="a_edge48_Node000026_Node000033"><a xlink:title=" ">
<path fill="none" stroke="#63b8ff" d="M1344.69,-259.02C1167.19,-253.08 748.06,-236.23 609.5,-206 606.82,-205.42 604.08,-204.67 601.37,-203.84"/>
<polygon fill="#63b8ff" stroke="#63b8ff" points="602.36,-200.48 591.76,-200.51 600.06,-207.09 602.36,-200.48"/>
</a>
</g>
</g>
<!-- Node34 -->
<g id="Node000034" class="node">
<title>Node34</title>
<g id="a_Node000034"><a xlink:title=" ">
<polygon fill="#e0e0e0" stroke="#999999" points="664,-200.5 619,-200.5 619,-181.5 664,-181.5 664,-200.5"/>
<text text-anchor="middle" x="641.5" y="-188.5" font-family="Helvetica,sans-Serif" font-size="10.00">utility</text>
</a>
</g>
</g>
<!-- Node26&#45;&gt;Node34 -->
<g id="edge49_Node000026_Node000034" class="edge">
<title>Node26&#45;&gt;Node34</title>
<g id="a_edge49_Node000026_Node000034"><a xlink:title=" ">
<path fill="none" stroke="#63b8ff" d="M1344.98,-258.99C1177.95,-253.23 798.9,-237.09 673.5,-206 671.56,-205.52 669.58,-204.93 667.62,-204.27"/>
<polygon fill="#63b8ff" stroke="#63b8ff" points="668.65,-200.91 658.06,-200.52 666.09,-207.43 668.65,-200.91"/>
</a>
</g>
</g>
<!-- Node35 -->
<g id="Node000035" class="node">
<title>Node35</title>
<g id="a_Node000035"><a xlink:title=" ">
<polygon fill="#e0e0e0" stroke="#999999" points="780.5,-200.5 682.5,-200.5 682.5,-181.5 780.5,-181.5 780.5,-200.5"/>
<text text-anchor="middle" x="731.5" y="-188.5" font-family="Helvetica,sans-Serif" font-size="10.00">hpx/hpx_init.hpp</text>
</a>
</g>
</g>
<!-- Node26&#45;&gt;Node35 -->
<g id="edge52_Node000026_Node000035" class="edge">
<title>Node26&#45;&gt;Node35</title>
<g id="a_edge52_Node000026_Node000035"><a xlink:title=" ">
<path fill="none" stroke="#63b8ff" d="M1344.95,-258.34C1223.77,-252.72 987.63,-238.37 789.5,-206 784.13,-205.12 778.53,-204.02 773.01,-202.81"/>
<polygon fill="#63b8ff" stroke="#63b8ff" points="773.76,-199.4 763.23,-200.57 772.2,-206.22 773.76,-199.4"/>
</a>
</g>
</g>
<!-- Node36 -->
<g id="Node000036" class="node">
<title>Node36</title>
<g id="a_Node000036"><a xlink:title=" ">
<polygon fill="#e0e0e0" stroke="#999999" points="924,-200.5 799,-200.5 799,-181.5 924,-181.5 924,-200.5"/>
<text text-anchor="middle" x="861.5" y="-188.5" font-family="Helvetica,sans-Serif" font-size="10.00">hpx/include/async.hpp</text>
</a>
</g>
</g>
<!-- Node26&#45;&gt;Node36 -->
<g id="edge53_Node000026_Node000036" class="edge">
<title>Node26&#45;&gt;Node36</title>
<g id="a_edge53_Node000026_Node000036"><a xlink:title=" ">
<path fill="none" stroke="#63b8ff" d="M1344.7,-254.38C1247.01,-245.31 1077.73,-228.12 933.5,-206 926.73,-204.96 919.64,-203.74 912.64,-202.46"/>
<polygon fill="#63b8ff" stroke="#63b8ff" points="913,-198.97 902.52,-200.56 911.7,-205.85 913,-198.97"/>
</a>
</g>
</g>
<!-- Node37 -->
<g id="Node000037" class="node">
<title>Node37</title>
<g id="a_Node000037"><a xlink:title=" ">
<polygon fill="#e0e0e0" stroke="#999999" points="1088.5,-200.5 942.5,-200.5 942.5,-181.5 1088.5,-181.5 1088.5,-200.5"/>
<text text-anchor="middle" x="1015.5" y="-188.5" font-family="Helvetica,sans-Serif" font-size="10.00">hpx/include/iostreams.hpp</text>
</a>
</g>
</g>
<!-- Node26&#45;&gt;Node37 -->
<g id="edge54_Node000026_Node000037" class="edge">
<title>Node26&#45;&gt;Node37</title>
<g id="a_edge54_Node000026_Node000037"><a xlink:title=" ">
<path fill="none" stroke="#63b8ff" d="M1344.95,-247.91C1278.55,-236.69 1181.91,-220.35 1097.5,-206 1090.35,-204.79 1082.86,-203.51 1075.43,-202.24"/>
<polygon fill="#63b8ff" stroke="#63b8ff" points="1075.81,-198.76 1065.37,-200.53 1074.63,-205.66 1075.81,-198.76"/>
</a>
</g>
</g>
<!-- Node38 -->
<g id="Node000038" class="node">
<title>Node38</title>
<g id="a_Node000038"><a xlink:title=" ">
<polygon fill="#e0e0e0" stroke="#999999" points="1222.5,-200.5 1106.5,-200.5 1106.5,-181.5 1222.5,-181.5 1222.5,-200.5"/>
<text text-anchor="middle" x="1164.5" y="-188.5" font-family="Helvetica,sans-Serif" font-size="10.00">hpx/include/lcos.hpp</text>
</a>
</g>
</g>
<!-- Node26&#45;&gt;Node38 -->
<g id="edge55_Node000026_Node000038" class="edge">
<title>Node26&#45;&gt;Node38</title>
<g id="a_edge55_Node000026_Node000038"><a xlink:title=" ">
<path fill="none" stroke="#63b8ff" d="M1352.1,-241.96C1304.94,-229.4 1245.39,-213.54 1206.19,-203.1"/>
<polygon fill="#63b8ff" stroke="#63b8ff" points="1207,-199.69 1196.43,-200.5 1205.2,-206.46 1207,-199.69"/>
</a>
</g>
</g>
<!-- Node39 -->
<g id="Node000039" class="node">
<title>Node39</title>
<g id="a_Node000039"><a xlink:title=" ">
<polygon fill="#e0e0e0" stroke="#999999" points="1362,-200.5 1241,-200.5 1241,-181.5 1362,-181.5 1362,-200.5"/>
<text text-anchor="middle" x="1301.5" y="-188.5" font-family="Helvetica,sans-Serif" font-size="10.00">hpx/lcos/promise.hpp</text>
</a>
</g>
</g>
<!-- Node26&#45;&gt;Node39 -->
<g id="edge56_Node000026_Node000039" class="edge">
<title>Node26&#45;&gt;Node39</title>
<g id="a_edge56_Node000026_Node000039"><a xlink:title=" ">
<path fill="none" stroke="#63b8ff" d="M1390.63,-241.96C1369.89,-230.33 1344.1,-215.88 1325.61,-205.51"/>
<polygon fill="#63b8ff" stroke="#63b8ff" points="1327.11,-202.34 1316.67,-200.5 1323.68,-208.45 1327.11,-202.34"/>
</a>
</g>
</g>
<!-- Node40 -->
<g id="Node000040" class="node">
<title>Node40</title>
<g id="a_Node000040"><a xlink:title=" ">
<polygon fill="#e0e0e0" stroke="#999999" points="1470.5,-200.5 1380.5,-200.5 1380.5,-181.5 1470.5,-181.5 1470.5,-200.5"/>
<text text-anchor="middle" x="1425.5" y="-188.5" font-family="Helvetica,sans-Serif" font-size="10.00">hpx/mutex.hpp</text>
</a>
</g>
</g>
<!-- Node26&#45;&gt;Node40 -->
<g id="edge57_Node000026_Node000040" class="edge">
<title>Node26&#45;&gt;Node40</title>
<g id="a_edge57_Node000026_Node000040"><a xlink:title=" ">
<path fill="none" stroke="#63b8ff" d="M1425.5,-241.77C1425.5,-232.08 1425.5,-220.46 1425.5,-210.88"/>
<polygon fill="#63b8ff" stroke="#63b8ff" points="1429,-210.82 1425.5,-200.82 1422,-210.82 1429,-210.82"/>
</a>
</g>
</g>
<!-- Node41 -->
<g id="Node000041" class="node">
<title>Node41</title>
<g id="a_Node000041"><a xlink:title=" ">
<polygon fill="#e0e0e0" stroke="#999999" points="1628.5,-200.5 1488.5,-200.5 1488.5,-181.5 1628.5,-181.5 1628.5,-200.5"/>
<text text-anchor="middle" x="1558.5" y="-188.5" font-family="Helvetica,sans-Serif" font-size="10.00">boost/core/demangle.hpp</text>
</a>
</g>
</g>
<!-- Node26&#45;&gt;Node41 -->
<g id="edge58_Node000026_Node000041" class="edge">
<title>Node26&#45;&gt;Node41</title>
<g id="a_edge58_Node000026_Node000041"><a xlink:title=" ">
<path fill="none" stroke="#63b8ff" d="M1462.9,-241.96C1485.35,-230.22 1513.31,-215.61 1533.18,-205.23"/>
<polygon fill="#63b8ff" stroke="#63b8ff" points="1534.99,-208.24 1542.23,-200.5 1531.74,-202.03 1534.99,-208.24"/>
</a>
</g>
</g>
<!-- Node42 -->
<g id="Node000042" class="node">
<title>Node42</title>
<g id="a_Node000042"><a xlink:title=" ">
<polygon fill="#e0e0e0" stroke="#999999" points="1748,-200.5 1647,-200.5 1647,-181.5 1748,-181.5 1748,-200.5"/>
<text text-anchor="middle" x="1697.5" y="-188.5" font-family="Helvetica,sans-Serif" font-size="10.00">boost/format.hpp</text>
</a>
</g>
</g>
<!-- Node26&#45;&gt;Node42 -->
<g id="edge59_Node000026_Node000042" class="edge">
<title>Node26&#45;&gt;Node42</title>
<g id="a_edge59_Node000026_Node000042"><a xlink:title=" ">
<path fill="none" stroke="#63b8ff" d="M1501.99,-241.96C1551.24,-229.37 1613.46,-213.47 1654.31,-203.03"/>
<polygon fill="#63b8ff" stroke="#63b8ff" points="1655.4,-206.37 1664.22,-200.5 1653.66,-199.59 1655.4,-206.37"/>
</a>
</g>
</g>
<!-- Node43&#45;&gt;Node26 -->
<g id="edge64_Node000043_Node000026" class="edge">
<title>Node43&#45;&gt;Node26</title>
<g id="a_edge64_Node000043_Node000026"><a xlink:title=" ">
<path fill="none" stroke="#63b8ff" d="M1529.82,-318.99C1512.01,-309.52 1490.43,-298.03 1471.52,-287.98"/>
<polygon fill="#63b8ff" stroke="#63b8ff" points="1472.96,-284.78 1462.48,-283.17 1469.67,-290.96 1472.96,-284.78"/>
</a>
</g>
</g>
</g>
</svg>
