<?xml version="1.0" encoding="UTF-8" standalone="no"?>
<!DOCTYPE svg PUBLIC "-//W3C//DTD SVG 1.1//EN"
 "http://www.w3.org/Graphics/SVG/1.1/DTD/svg11.dtd">
<!-- Generated by graphviz version 2.43.0 (0)
 -->
<!-- Title: tests/work_aggregation_cpu_triad.cpp Pages: 1 -->
<!--zoomable 508 -->
<svg id="main" version="1.1" xmlns="http://www.w3.org/2000/svg" xmlns:xlink="http://www.w3.org/1999/xlink" xml:space="preserve" onload="init(evt)">
<style type="text/css"><![CDATA[
.edge:hover path { stroke: red; }
.edge:hover polygon { stroke: red; fill: red; }
]]></style>
<script type="text/javascript"><![CDATA[
var edges = document.getElementsByTagName('g');
if (edges && edges.length) {
  for (var i=0;i<edges.length;i++) {
    if (edges[i].id.substr(0,4)=='edge') {
      edges[i].setAttribute('class','edge');
    }
  }
}
]]></script>
        <defs>
                <circle id="rim" cx="0" cy="0" r="7"/>
                <circle id="rim2" cx="0" cy="0" r="3.5"/>
                <g id="zoomPlus">
                        <use xlink:href="#rim" fill="#404040">
                                <set attributeName="fill" to="#808080" begin="zoomplus.mouseover" end="zoomplus.mouseout"/>
                        </use>
                        <path d="M-4,0h8M0,-4v8" fill="none" stroke="white" stroke-width="1.5" pointer-events="none"/>
                </g>
                <g id="zoomMin">
                        <use xlink:href="#rim" fill="#404040">
                                <set attributeName="fill" to="#808080" begin="zoomminus.mouseover" end="zoomminus.mouseout"/>
                        </use>
                        <path d="M-4,0h8" fill="none" stroke="white" stroke-width="1.5" pointer-events="none"/>
                </g>
                <g id="dirArrow">
                        <path fill="none" stroke="white" stroke-width="1.5" d="M0,-3.0v7 M-2.5,-0.5L0,-3.0L2.5,-0.5"/>
                </g>
               <g id="resetDef">
                       <use xlink:href="#rim2" fill="#404040">
                               <set attributeName="fill" to="#808080" begin="reset.mouseover" end="reset.mouseout"/>
                       </use>
               </g>
        </defs>

<script type="text/javascript">
var viewWidth = 2751;
var viewHeight = 508;
var sectionId = 'dynsection-0';
</script>
<script xlink:href="svgpan.js"/>
<svg id="graph" class="graph">
<g id="viewport">
<title>tests/work_aggregation_cpu_triad.cpp</title>
<polygon fill="white" stroke="transparent" points="-4,4 -4,-504 2746.76,-504 2746.76,4 -4,4"/>
<!-- Node1 -->
<g id="node1" class="node">
<title>Node1</title>
<g id="a_node1"><a xlink:title=" ">
<polygon fill="#bfbfbf" stroke="black" points="740,-469.5 740,-499.5 871,-499.5 871,-469.5 740,-469.5"/>
<text text-anchor="start" x="748" y="-487.5" font-family="Helvetica,sans-Serif" font-size="10.00">tests/work_aggregation</text>
<text text-anchor="middle" x="805.5" y="-476.5" font-family="Helvetica,sans-Serif" font-size="10.00">_cpu_triad.cpp</text>
</a>
</g>
</g>
<!-- Node2 -->
<g id="node2" class="node">
<title>Node2</title>
<g id="a_node2"><a xlink:title=" ">
<polygon fill="white" stroke="#bfbfbf" points="0,-185 0,-204 125,-204 125,-185 0,-185"/>
<text text-anchor="middle" x="62.5" y="-192" font-family="Helvetica,sans-Serif" font-size="10.00">hpx/futures/future.hpp</text>
</a>
</g>
</g>
<!-- Node1&#45;&gt;Node2 -->
<g id="edge1" class="edge">
<title>Node1&#45;&gt;Node2</title>
<path fill="none" stroke="midnightblue" d="M747.53,-469.47C711.48,-460.23 664.37,-447.25 623.5,-433 413.77,-359.85 170.59,-246.88 90,-208.65"/>
<polygon fill="midnightblue" stroke="midnightblue" points="91.1,-205.3 80.56,-204.17 88.09,-211.62 91.1,-205.3"/>
</g>
<!-- Node3 -->
<g id="node3" class="node">
<title>Node3</title>
<g id="a_node3"><a xlink:href="std__recycling__allocators_8hpp.html" target="_top" xlink:title=" ">
<polygon fill="white" stroke="black" points="632.5,-402.5 632.5,-432.5 790.5,-432.5 790.5,-402.5 632.5,-402.5"/>
<text text-anchor="start" x="640.5" y="-420.5" font-family="Helvetica,sans-Serif" font-size="10.00">cppuddle/memory_recycling</text>
<text text-anchor="middle" x="711.5" y="-409.5" font-family="Helvetica,sans-Serif" font-size="10.00">/std_recycling_allocators.hpp</text>
</a>
</g>
</g>
<!-- Node1&#45;&gt;Node3 -->
<g id="edge2" class="edge">
<title>Node1&#45;&gt;Node3</title>
<path fill="none" stroke="midnightblue" d="M785.1,-469.4C772.05,-460.37 754.9,-448.51 740.45,-438.52"/>
<polygon fill="midnightblue" stroke="midnightblue" points="742.07,-435.39 731.86,-432.58 738.09,-441.14 742.07,-435.39"/>
</g>
<!-- Node18 -->
<g id="node18" class="node">
<title>Node18</title>
<g id="a_node18"><a xlink:href="kernel__aggregation__interface_8hpp.html" target="_top" xlink:title=" ">
<polygon fill="white" stroke="black" points="809,-402.5 809,-432.5 992,-432.5 992,-402.5 809,-402.5"/>
<text text-anchor="start" x="817" y="-420.5" font-family="Helvetica,sans-Serif" font-size="10.00">cppuddle/kernel_aggregation</text>
<text text-anchor="middle" x="900.5" y="-409.5" font-family="Helvetica,sans-Serif" font-size="10.00">/kernel_aggregation_interface.hpp</text>
</a>
</g>
</g>
<!-- Node1&#45;&gt;Node18 -->
<g id="edge18" class="edge">
<title>Node1&#45;&gt;Node18</title>
<path fill="none" stroke="midnightblue" d="M826.11,-469.4C839.43,-460.28 856.96,-448.29 871.66,-438.24"/>
<polygon fill="midnightblue" stroke="midnightblue" points="873.65,-441.11 879.93,-432.58 869.7,-435.33 873.65,-441.11"/>
</g>
<!-- Node44 -->
<g id="node44" class="node">
<title>Node44</title>
<g id="a_node44"><a xlink:title=" ">
<polygon fill="white" stroke="#bfbfbf" points="1010.5,-408 1010.5,-427 1160.5,-427 1160.5,-408 1010.5,-408"/>
<text text-anchor="middle" x="1085.5" y="-415" font-family="Helvetica,sans-Serif" font-size="10.00">boost/program_options.hpp</text>
</a>
</g>
</g>
<!-- Node1&#45;&gt;Node44 -->
<g id="edge64" class="edge">
<title>Node1&#45;&gt;Node44</title>
<path fill="none" stroke="midnightblue" d="M865.91,-469.48C917.73,-457.45 991.34,-440.36 1038.76,-429.35"/>
<polygon fill="midnightblue" stroke="midnightblue" points="1039.81,-432.7 1048.76,-427.03 1038.23,-425.88 1039.81,-432.7"/>
</g>
<!-- Node4 -->
<g id="node4" class="node">
<title>Node4</title>
<g id="a_node4"><a xlink:href="buffer__management__interface_8hpp.html" target="_top" xlink:title=" ">
<polygon fill="white" stroke="black" points="619,-257.5 619,-276.5 804,-276.5 804,-257.5 619,-257.5"/>
<text text-anchor="middle" x="711.5" y="-264.5" font-family="Helvetica,sans-Serif" font-size="10.00">buffer_management_interface.hpp</text>
</a>
</g>
</g>
<!-- Node3&#45;&gt;Node4 -->
<g id="edge3" class="edge">
<title>Node3&#45;&gt;Node4</title>
<path fill="none" stroke="midnightblue" d="M711.5,-402.26C711.5,-375.35 711.5,-317.04 711.5,-286.9"/>
<polygon fill="midnightblue" stroke="midnightblue" points="715,-286.85 711.5,-276.85 708,-286.85 715,-286.85"/>
</g>
<!-- Node5 -->
<g id="node5" class="node">
<title>Node5</title>
<g id="a_node5"><a xlink:href="buffer__management_8hpp.html" target="_top" xlink:title=" ">
<polygon fill="white" stroke="black" points="628,-185 628,-204 795,-204 795,-185 628,-185"/>
<text text-anchor="middle" x="711.5" y="-192" font-family="Helvetica,sans-Serif" font-size="10.00">detail/buffer_management.hpp</text>
</a>
</g>
</g>
<!-- Node4&#45;&gt;Node5 -->
<g id="edge4" class="edge">
<title>Node4&#45;&gt;Node5</title>
<path fill="none" stroke="midnightblue" d="M711.5,-257.36C711.5,-246.68 711.5,-228.22 711.5,-214.23"/>
<polygon fill="midnightblue" stroke="midnightblue" points="715,-214.22 711.5,-204.22 708,-214.22 715,-214.22"/>
</g>
<!-- Node6 -->
<g id="node6" class="node">
<title>Node6</title>
<g id="a_node6"><a xlink:title=" ">
<polygon fill="white" stroke="#bfbfbf" points="888.5,-118 888.5,-137 938.5,-137 938.5,-118 888.5,-118"/>
<text text-anchor="middle" x="913.5" y="-125" font-family="Helvetica,sans-Serif" font-size="10.00">atomic</text>
</a>
</g>
</g>
<!-- Node5&#45;&gt;Node6 -->
<g id="edge5" class="edge">
<title>Node5&#45;&gt;Node6</title>
<path fill="none" stroke="midnightblue" d="M743.74,-184.96C777.82,-175.66 832.97,-159.86 879.5,-143 881.36,-142.33 883.26,-141.61 885.16,-140.86"/>
<polygon fill="midnightblue" stroke="midnightblue" points="886.66,-144.03 894.59,-137.01 884.01,-137.55 886.66,-144.03"/>
</g>
<!-- Node7 -->
<g id="node7" class="node">
<title>Node7</title>
<g id="a_node7"><a xlink:title=" ">
<polygon fill="white" stroke="#bfbfbf" points="343.5,-56.5 343.5,-75.5 395.5,-75.5 395.5,-56.5 343.5,-56.5"/>
<text text-anchor="middle" x="369.5" y="-63.5" font-family="Helvetica,sans-Serif" font-size="10.00">cassert</text>
</a>
</g>
</g>
<!-- Node5&#45;&gt;Node7 -->
<g id="edge6" class="edge">
<title>Node5&#45;&gt;Node7</title>
<path fill="none" stroke="midnightblue" d="M658.42,-184.96C645.38,-182.94 631.44,-180.83 618.5,-179 555.95,-170.13 378.25,-190.42 336.5,-143 321.14,-125.56 338.31,-99.86 353.07,-83.28"/>
<polygon fill="midnightblue" stroke="midnightblue" points="355.67,-85.62 359.97,-75.94 350.57,-80.83 355.67,-85.62"/>
</g>
<!-- Node8 -->
<g id="node8" class="node">
<title>Node8</title>
<g id="a_node8"><a xlink:title=" ">
<polygon fill="white" stroke="#bfbfbf" points="579,-118 579,-137 644,-137 644,-118 579,-118"/>
<text text-anchor="middle" x="611.5" y="-125" font-family="Helvetica,sans-Serif" font-size="10.00">functional</text>
</a>
</g>
</g>
<!-- Node5&#45;&gt;Node8 -->
<g id="edge7" class="edge">
<title>Node5&#45;&gt;Node8</title>
<path fill="none" stroke="midnightblue" d="M698.01,-184.73C681.45,-173.96 653.12,-155.55 633.41,-142.74"/>
<polygon fill="midnightblue" stroke="midnightblue" points="635.06,-139.64 624.77,-137.13 631.25,-145.51 635.06,-139.64"/>
</g>
<!-- Node9 -->
<g id="node9" class="node">
<title>Node9</title>
<g id="a_node9"><a xlink:title=" ">
<polygon fill="white" stroke="#bfbfbf" points="724.5,-56.5 724.5,-75.5 784.5,-75.5 784.5,-56.5 724.5,-56.5"/>
<text text-anchor="middle" x="754.5" y="-63.5" font-family="Helvetica,sans-Serif" font-size="10.00">iostream</text>
</a>
</g>
</g>
<!-- Node5&#45;&gt;Node9 -->
<g id="edge8" class="edge">
<title>Node5&#45;&gt;Node9</title>
<path fill="none" stroke="midnightblue" d="M706.63,-184.94C698.56,-169.55 684.48,-136.55 696.5,-112 703.02,-98.68 715.6,-88.18 727.37,-80.68"/>
<polygon fill="midnightblue" stroke="midnightblue" points="729.27,-83.62 736.11,-75.53 725.72,-77.59 729.27,-83.62"/>
</g>
<!-- Node10 -->
<g id="node10" class="node">
<title>Node10</title>
<g id="a_node10"><a xlink:title=" ">
<polygon fill="white" stroke="#bfbfbf" points="181.5,-118 181.5,-137 213.5,-137 213.5,-118 181.5,-118"/>
<text text-anchor="middle" x="197.5" y="-125" font-family="Helvetica,sans-Serif" font-size="10.00">list</text>
</a>
</g>
</g>
<!-- Node5&#45;&gt;Node10 -->
<g id="edge9" class="edge">
<title>Node5&#45;&gt;Node10</title>
<path fill="none" stroke="midnightblue" d="M660.42,-184.94C646.82,-182.83 632.12,-180.69 618.5,-179 445.31,-157.55 395.64,-189.72 227.5,-143 225.62,-142.48 223.71,-141.84 221.82,-141.13"/>
<polygon fill="midnightblue" stroke="midnightblue" points="223.22,-137.92 212.66,-137.13 220.42,-144.34 223.22,-137.92"/>
</g>
<!-- Node11 -->
<g id="node11" class="node">
<title>Node11</title>
<g id="a_node11"><a xlink:title=" ">
<polygon fill="white" stroke="#bfbfbf" points="802.5,-56.5 802.5,-75.5 860.5,-75.5 860.5,-56.5 802.5,-56.5"/>
<text text-anchor="middle" x="831.5" y="-63.5" font-family="Helvetica,sans-Serif" font-size="10.00">memory</text>
</a>
</g>
</g>
<!-- Node5&#45;&gt;Node11 -->
<g id="edge10" class="edge">
<title>Node5&#45;&gt;Node11</title>
<path fill="none" stroke="midnightblue" d="M711.66,-184.79C712.41,-168.59 716.19,-133.48 734.5,-112 749.44,-94.47 772.67,-83.37 792.66,-76.57"/>
<polygon fill="midnightblue" stroke="midnightblue" points="793.97,-79.83 802.45,-73.49 791.86,-73.15 793.97,-79.83"/>
</g>
<!-- Node12 -->
<g id="node12" class="node">
<title>Node12</title>
<g id="a_node12"><a xlink:title=" ">
<polygon fill="white" stroke="#bfbfbf" points="310.5,-0.5 310.5,-19.5 358.5,-19.5 358.5,-0.5 310.5,-0.5"/>
<text text-anchor="middle" x="334.5" y="-7.5" font-family="Helvetica,sans-Serif" font-size="10.00">mutex</text>
</a>
</g>
</g>
<!-- Node5&#45;&gt;Node12 -->
<g id="edge11" class="edge">
<title>Node5&#45;&gt;Node12</title>
<path fill="none" stroke="midnightblue" d="M659.43,-184.93C646.1,-182.86 631.79,-180.74 618.5,-179 469.15,-159.39 425.44,-187.4 281.5,-143 279.62,-142.42 157.51,-77.69 156.5,-76 124.14,-21.94 239.8,-12.39 300.13,-11"/>
<polygon fill="midnightblue" stroke="midnightblue" points="300.42,-14.5 310.36,-10.84 300.3,-7.5 300.42,-14.5"/>
</g>
<!-- Node13 -->
<g id="node13" class="node">
<title>Node13</title>
<g id="a_node13"><a xlink:title=" ">
<polygon fill="white" stroke="#bfbfbf" points="956.5,-118 956.5,-137 1012.5,-137 1012.5,-118 956.5,-118"/>
<text text-anchor="middle" x="984.5" y="-125" font-family="Helvetica,sans-Serif" font-size="10.00">optional</text>
</a>
</g>
</g>
<!-- Node5&#45;&gt;Node13 -->
<g id="edge12" class="edge">
<title>Node5&#45;&gt;Node13</title>
<path fill="none" stroke="midnightblue" d="M763.21,-184.94C811.44,-176.37 885.11,-161.77 947.5,-143 949.93,-142.27 952.42,-141.45 954.91,-140.58"/>
<polygon fill="midnightblue" stroke="midnightblue" points="956.19,-143.84 964.35,-137.08 953.76,-137.28 956.19,-143.84"/>
</g>
<!-- Node14 -->
<g id="node14" class="node">
<title>Node14</title>
<g id="a_node14"><a xlink:title=" ">
<polygon fill="white" stroke="#bfbfbf" points="1031,-118 1031,-137 1096,-137 1096,-118 1031,-118"/>
<text text-anchor="middle" x="1063.5" y="-125" font-family="Helvetica,sans-Serif" font-size="10.00">stdexcept</text>
</a>
</g>
</g>
<!-- Node5&#45;&gt;Node14 -->
<g id="edge13" class="edge">
<title>Node5&#45;&gt;Node14</title>
<path fill="none" stroke="midnightblue" d="M786.14,-184.98C849.39,-176.9 942.19,-162.99 1021.5,-143 1024.72,-142.19 1028.04,-141.24 1031.34,-140.23"/>
<polygon fill="midnightblue" stroke="midnightblue" points="1032.63,-143.48 1041.05,-137.04 1030.45,-136.83 1032.63,-143.48"/>
</g>
<!-- Node15 -->
<g id="node15" class="node">
<title>Node15</title>
<g id="a_node15"><a xlink:title=" ">
<polygon fill="white" stroke="#bfbfbf" points="879,-56.5 879,-75.5 948,-75.5 948,-56.5 879,-56.5"/>
<text text-anchor="middle" x="913.5" y="-63.5" font-family="Helvetica,sans-Serif" font-size="10.00">type_traits</text>
</a>
</g>
</g>
<!-- Node5&#45;&gt;Node15 -->
<g id="edge14" class="edge">
<title>Node5&#45;&gt;Node15</title>
<path fill="none" stroke="midnightblue" d="M715.15,-184.95C722.66,-168.37 741.45,-131.75 768.5,-112 784.65,-100.21 832.59,-86.59 868.97,-77.45"/>
<polygon fill="midnightblue" stroke="midnightblue" points="870.02,-80.79 878.89,-74.99 868.34,-74 870.02,-80.79"/>
</g>
<!-- Node16 -->
<g id="node16" class="node">
<title>Node16</title>
<g id="a_node16"><a xlink:title=" ">
<polygon fill="white" stroke="#bfbfbf" points="777,-118 777,-137 870,-137 870,-118 777,-118"/>
<text text-anchor="middle" x="823.5" y="-125" font-family="Helvetica,sans-Serif" font-size="10.00">unordered_map</text>
</a>
</g>
</g>
<!-- Node5&#45;&gt;Node16 -->
<g id="edge15" class="edge">
<title>Node5&#45;&gt;Node16</title>
<path fill="none" stroke="midnightblue" d="M726.6,-184.73C745.41,-173.82 777.75,-155.05 799.86,-142.22"/>
<polygon fill="midnightblue" stroke="midnightblue" points="801.74,-145.17 808.63,-137.13 798.23,-139.12 801.74,-145.17"/>
</g>
<!-- Node17 -->
<g id="node17" class="node">
<title>Node17</title>
<g id="a_node17"><a xlink:href="config_8hpp.html" target="_top" xlink:title=" ">
<polygon fill="white" stroke="black" points="165.5,-56.5 165.5,-75.5 325.5,-75.5 325.5,-56.5 165.5,-56.5"/>
<text text-anchor="middle" x="245.5" y="-63.5" font-family="Helvetica,sans-Serif" font-size="10.00">cppuddle/common/config.hpp</text>
</a>
</g>
</g>
<!-- Node5&#45;&gt;Node17 -->
<g id="edge16" class="edge">
<title>Node5&#45;&gt;Node17</title>
<path fill="none" stroke="midnightblue" d="M658.43,-184.93C645.38,-182.9 631.45,-180.81 618.5,-179 488.99,-160.93 444.91,-198.47 326.5,-143 297.69,-129.5 272.37,-101.83 258.01,-83.87"/>
<polygon fill="midnightblue" stroke="midnightblue" points="260.76,-81.7 251.87,-75.93 255.22,-85.98 260.76,-81.7"/>
</g>
<!-- Node17&#45;&gt;Node12 -->
<g id="edge17" class="edge">
<title>Node17&#45;&gt;Node12</title>
<path fill="none" stroke="midnightblue" d="M259.8,-56.32C273.68,-47.9 294.99,-34.97 311.3,-25.07"/>
<polygon fill="midnightblue" stroke="midnightblue" points="313.5,-27.83 320.24,-19.65 309.87,-21.85 313.5,-27.83"/>
</g>
<!-- Node19 -->
<g id="node19" class="node">
<title>Node19</title>
<g id="a_node19"><a xlink:href="executor__pools__interface_8hpp.html" target="_top" xlink:title=" ">
<polygon fill="white" stroke="black" points="447,-179.5 447,-209.5 610,-209.5 610,-179.5 447,-179.5"/>
<text text-anchor="start" x="455" y="-197.5" font-family="Helvetica,sans-Serif" font-size="10.00">cppuddle/executor_recycling</text>
<text text-anchor="middle" x="528.5" y="-186.5" font-family="Helvetica,sans-Serif" font-size="10.00">/executor_pools_interface.hpp</text>
</a>
</g>
</g>
<!-- Node18&#45;&gt;Node19 -->
<g id="edge19" class="edge">
<title>Node18&#45;&gt;Node19</title>
<path fill="none" stroke="midnightblue" d="M853.07,-402.47C792.81,-383.14 687.41,-344.23 610.5,-288 583.52,-268.27 559.01,-238.31 543.96,-217.87"/>
<polygon fill="midnightblue" stroke="midnightblue" points="546.8,-215.82 538.11,-209.75 541.12,-219.91 546.8,-215.82"/>
</g>
<!-- Node26 -->
<g id="node26" class="node">
<title>Node26</title>
<g id="a_node26"><a xlink:href="aggregation__executors__and__allocators_8hpp.html" target="_top" xlink:title=" ">
<polygon fill="white" stroke="black" points="1226,-246.5 1226,-287.5 1387,-287.5 1387,-246.5 1226,-246.5"/>
<text text-anchor="start" x="1234" y="-275.5" font-family="Helvetica,sans-Serif" font-size="10.00">cppuddle/kernel_aggregation</text>
<text text-anchor="start" x="1234" y="-264.5" font-family="Helvetica,sans-Serif" font-size="10.00">/detail/aggregation_executors</text>
<text text-anchor="middle" x="1306.5" y="-253.5" font-family="Helvetica,sans-Serif" font-size="10.00">_and_allocators.hpp</text>
</a>
</g>
</g>
<!-- Node18&#45;&gt;Node26 -->
<g id="edge32" class="edge">
<title>Node18&#45;&gt;Node26</title>
<path fill="none" stroke="midnightblue" d="M936.18,-402.5C983.43,-384.05 1069.43,-350.81 1143.5,-324 1174.47,-312.79 1208.93,-300.87 1238.17,-290.92"/>
<polygon fill="midnightblue" stroke="midnightblue" points="1239.53,-294.15 1247.87,-287.62 1237.27,-287.53 1239.53,-294.15"/>
</g>
<!-- Node43 -->
<g id="node43" class="node">
<title>Node43</title>
<g id="a_node43"><a xlink:href="aggregation__executor__pools_8hpp.html" target="_top" xlink:title=" ">
<polygon fill="white" stroke="black" points="1152.5,-324.5 1152.5,-365.5 1310.5,-365.5 1310.5,-324.5 1152.5,-324.5"/>
<text text-anchor="start" x="1160.5" y="-353.5" font-family="Helvetica,sans-Serif" font-size="10.00">cppuddle/kernel_aggregation</text>
<text text-anchor="start" x="1160.5" y="-342.5" font-family="Helvetica,sans-Serif" font-size="10.00">/detail/aggregation_executor</text>
<text text-anchor="middle" x="1231.5" y="-331.5" font-family="Helvetica,sans-Serif" font-size="10.00">_pools.hpp</text>
</a>
</g>
</g>
<!-- Node18&#45;&gt;Node43 -->
<g id="edge62" class="edge">
<title>Node18&#45;&gt;Node43</title>
<path fill="none" stroke="midnightblue" d="M966.29,-402.49C1016.8,-391.73 1087.07,-376.76 1142.58,-364.94"/>
<polygon fill="midnightblue" stroke="midnightblue" points="1143.37,-368.35 1152.42,-362.84 1141.91,-361.5 1143.37,-368.35"/>
</g>
<!-- Node20 -->
<g id="node20" class="node">
<title>Node20</title>
<g id="a_node20"><a xlink:href="executor__pools__management_8hpp.html" target="_top" xlink:title=" ">
<polygon fill="white" stroke="black" points="346,-112.5 346,-142.5 561,-142.5 561,-112.5 346,-112.5"/>
<text text-anchor="start" x="354" y="-130.5" font-family="Helvetica,sans-Serif" font-size="10.00">cppuddle/executor_recycling</text>
<text text-anchor="middle" x="453.5" y="-119.5" font-family="Helvetica,sans-Serif" font-size="10.00">/detail/executor_pools_management.hpp</text>
</a>
</g>
</g>
<!-- Node19&#45;&gt;Node20 -->
<g id="edge20" class="edge">
<title>Node19&#45;&gt;Node20</title>
<path fill="none" stroke="midnightblue" d="M512.23,-179.4C502.1,-170.62 488.9,-159.18 477.58,-149.37"/>
<polygon fill="midnightblue" stroke="midnightblue" points="479.59,-146.48 469.74,-142.58 475.01,-151.77 479.59,-146.48"/>
</g>
<!-- Node20&#45;&gt;Node7 -->
<g id="edge23" class="edge">
<title>Node20&#45;&gt;Node7</title>
<path fill="none" stroke="midnightblue" d="M433.59,-112.4C420.51,-103.13 403.42,-91.03 390.18,-81.65"/>
<polygon fill="midnightblue" stroke="midnightblue" points="391.91,-78.58 381.72,-75.66 387.86,-84.29 391.91,-78.58"/>
</g>
<!-- Node20&#45;&gt;Node9 -->
<g id="edge25" class="edge">
<title>Node20&#45;&gt;Node9</title>
<path fill="none" stroke="midnightblue" d="M530.17,-112.48C580.03,-103.19 646.7,-90.43 714.31,-76.2"/>
<polygon fill="midnightblue" stroke="midnightblue" points="715.23,-79.58 724.29,-74.09 713.78,-72.73 715.23,-79.58"/>
</g>
<!-- Node20&#45;&gt;Node11 -->
<g id="edge26" class="edge">
<title>Node20&#45;&gt;Node11</title>
<path fill="none" stroke="midnightblue" d="M561.09,-112.9C625.61,-104.18 709.48,-91.86 792.27,-76.11"/>
<polygon fill="midnightblue" stroke="midnightblue" points="792.93,-79.55 802.09,-74.23 791.61,-72.67 792.93,-79.55"/>
</g>
<!-- Node20&#45;&gt;Node12 -->
<g id="edge27" class="edge">
<title>Node20&#45;&gt;Node12</title>
<path fill="none" stroke="midnightblue" d="M445.88,-112.3C437.26,-97.13 422.09,-72.97 404.5,-56 391.57,-43.53 374.7,-32.56 360.75,-24.57"/>
<polygon fill="midnightblue" stroke="midnightblue" points="362.09,-21.32 351.65,-19.54 358.71,-27.44 362.09,-21.32"/>
</g>
<!-- Node20&#45;&gt;Node15 -->
<g id="edge30" class="edge">
<title>Node20&#45;&gt;Node15</title>
<path fill="none" stroke="midnightblue" d="M561.25,-113.01C564.03,-112.67 566.78,-112.33 569.5,-112 699.54,-96.07 735.21,-97.4 868.75,-75.99"/>
<polygon fill="midnightblue" stroke="midnightblue" points="869.65,-79.39 878.96,-74.34 868.53,-72.48 869.65,-79.39"/>
</g>
<!-- Node20&#45;&gt;Node17 -->
<g id="edge31" class="edge">
<title>Node20&#45;&gt;Node17</title>
<path fill="none" stroke="midnightblue" d="M404.47,-112.47C368.12,-102.08 319.19,-88.08 285.25,-78.37"/>
<polygon fill="midnightblue" stroke="midnightblue" points="285.81,-74.89 275.24,-75.51 283.89,-81.62 285.81,-74.89"/>
</g>
<!-- Node21 -->
<g id="node21" class="node">
<title>Node21</title>
<g id="a_node21"><a xlink:title=" ">
<polygon fill="white" stroke="#bfbfbf" points="451.5,-56.5 451.5,-75.5 515.5,-75.5 515.5,-56.5 451.5,-56.5"/>
<text text-anchor="middle" x="483.5" y="-63.5" font-family="Helvetica,sans-Serif" font-size="10.00">algorithm</text>
</a>
</g>
</g>
<!-- Node20&#45;&gt;Node21 -->
<g id="edge21" class="edge">
<title>Node20&#45;&gt;Node21</title>
<path fill="none" stroke="midnightblue" d="M460.61,-112.4C464.79,-104.11 470.11,-93.55 474.57,-84.71"/>
<polygon fill="midnightblue" stroke="midnightblue" points="477.76,-86.16 479.13,-75.66 471.51,-83.01 477.76,-86.16"/>
</g>
<!-- Node22 -->
<g id="node22" class="node">
<title>Node22</title>
<g id="a_node22"><a xlink:title=" ">
<polygon fill="white" stroke="#bfbfbf" points="533.5,-56.5 533.5,-75.5 575.5,-75.5 575.5,-56.5 533.5,-56.5"/>
<text text-anchor="middle" x="554.5" y="-63.5" font-family="Helvetica,sans-Serif" font-size="10.00">array</text>
</a>
</g>
</g>
<!-- Node20&#45;&gt;Node22 -->
<g id="edge22" class="edge">
<title>Node20&#45;&gt;Node22</title>
<path fill="none" stroke="midnightblue" d="M477.44,-112.4C493.63,-102.86 514.91,-90.32 531,-80.84"/>
<polygon fill="midnightblue" stroke="midnightblue" points="532.96,-83.75 539.8,-75.66 529.41,-77.72 532.96,-83.75"/>
</g>
<!-- Node23 -->
<g id="node23" class="node">
<title>Node23</title>
<g id="a_node23"><a xlink:title=" ">
<polygon fill="white" stroke="#bfbfbf" points="594,-56.5 594,-75.5 641,-75.5 641,-56.5 594,-56.5"/>
<text text-anchor="middle" x="617.5" y="-63.5" font-family="Helvetica,sans-Serif" font-size="10.00">deque</text>
</a>
</g>
</g>
<!-- Node20&#45;&gt;Node23 -->
<g id="edge24" class="edge">
<title>Node20&#45;&gt;Node23</title>
<path fill="none" stroke="midnightblue" d="M492.37,-112.4C520.25,-102.28 557.44,-88.79 584.01,-79.15"/>
<polygon fill="midnightblue" stroke="midnightblue" points="585.43,-82.36 593.64,-75.66 583.04,-75.78 585.43,-82.36"/>
</g>
<!-- Node24 -->
<g id="node24" class="node">
<title>Node24</title>
<g id="a_node24"><a xlink:title=" ">
<polygon fill="white" stroke="#bfbfbf" points="659,-56.5 659,-75.5 706,-75.5 706,-56.5 659,-56.5"/>
<text text-anchor="middle" x="682.5" y="-63.5" font-family="Helvetica,sans-Serif" font-size="10.00">queue</text>
</a>
</g>
</g>
<!-- Node20&#45;&gt;Node24 -->
<g id="edge28" class="edge">
<title>Node20&#45;&gt;Node24</title>
<path fill="none" stroke="midnightblue" d="M508.89,-112.45C545.87,-103.02 595.85,-90.18 648.8,-76.16"/>
<polygon fill="midnightblue" stroke="midnightblue" points="649.95,-79.48 658.72,-73.53 648.15,-72.71 649.95,-79.48"/>
</g>
<!-- Node25 -->
<g id="node25" class="node">
<title>Node25</title>
<g id="a_node25"><a xlink:title=" ">
<polygon fill="white" stroke="#bfbfbf" points="1861,-56.5 1861,-75.5 1902,-75.5 1902,-56.5 1861,-56.5"/>
<text text-anchor="middle" x="1881.5" y="-63.5" font-family="Helvetica,sans-Serif" font-size="10.00">tuple</text>
</a>
</g>
</g>
<!-- Node20&#45;&gt;Node25 -->
<g id="edge29" class="edge">
<title>Node20&#45;&gt;Node25</title>
<path fill="none" stroke="midnightblue" d="M561.21,-112.7C564,-112.45 566.77,-112.22 569.5,-112 1079.89,-71.43 1704.83,-67.41 1850.25,-67.03"/>
<polygon fill="midnightblue" stroke="midnightblue" points="1850.64,-70.53 1860.63,-67.01 1850.62,-63.53 1850.64,-70.53"/>
</g>
<!-- Node26&#45;&gt;Node2 -->
<g id="edge50" class="edge">
<title>Node26&#45;&gt;Node2</title>
<path fill="none" stroke="midnightblue" d="M1225.7,-262.77C979.11,-252.83 246.46,-222.58 139.5,-210 130.57,-208.95 121.11,-207.47 112,-205.86"/>
<polygon fill="midnightblue" stroke="midnightblue" points="112.38,-202.37 101.91,-204 111.11,-209.26 112.38,-202.37"/>
</g>
<!-- Node26&#45;&gt;Node5 -->
<g id="edge60" class="edge">
<title>Node26&#45;&gt;Node5</title>
<path fill="none" stroke="midnightblue" d="M1225.95,-256.46C1112.69,-243.04 907.52,-218.73 793.49,-205.21"/>
<polygon fill="midnightblue" stroke="midnightblue" points="793.76,-201.72 783.42,-204.02 792.94,-208.67 793.76,-201.72"/>
</g>
<!-- Node26&#45;&gt;Node6 -->
<g id="edge36" class="edge">
<title>Node26&#45;&gt;Node6</title>
<path fill="none" stroke="midnightblue" d="M1225.94,-258.31C1144.12,-249.39 1023.9,-232.94 983.5,-210 956.57,-194.71 935.12,-164.96 923.38,-145.95"/>
<polygon fill="midnightblue" stroke="midnightblue" points="926.25,-143.94 918.14,-137.12 920.23,-147.5 926.25,-143.94"/>
</g>
<!-- Node26&#45;&gt;Node9 -->
<g id="edge39" class="edge">
<title>Node26&#45;&gt;Node9</title>
<path fill="none" stroke="midnightblue" d="M1225.78,-257.12C1166.54,-248.74 1093.28,-233.85 1074.5,-210 1065.98,-199.17 1069.71,-191.92 1074.5,-179 1081.85,-159.21 1098.15,-162.79 1105.5,-143 1110.29,-130.08 1114.67,-122.29 1105.5,-112 1060.97,-62.03 878.17,-85.71 794.8,-75.78"/>
<polygon fill="midnightblue" stroke="midnightblue" points="795.06,-72.28 784.67,-74.31 794.06,-79.21 795.06,-72.28"/>
</g>
<!-- Node26&#45;&gt;Node11 -->
<g id="edge40" class="edge">
<title>Node26&#45;&gt;Node11</title>
<path fill="none" stroke="midnightblue" d="M1225.72,-256.1C1169.66,-247.37 1102.03,-232.5 1084.5,-210 1076.03,-199.13 1078,-191.15 1084.5,-179 1098.11,-153.57 1124.89,-168.43 1138.5,-143 1145,-130.85 1147.57,-122.37 1138.5,-112 1100.79,-68.89 945.21,-85.04 871.14,-75.66"/>
<polygon fill="midnightblue" stroke="midnightblue" points="871.24,-72.13 860.83,-74.08 870.18,-79.05 871.24,-72.13"/>
</g>
<!-- Node26&#45;&gt;Node12 -->
<g id="edge41" class="edge">
<title>Node26&#45;&gt;Node12</title>
<path fill="none" stroke="midnightblue" d="M1387.04,-265.89C1682.13,-265.12 2689.49,-258.89 2736.5,-210 2746.05,-200.07 2743.17,-191.05 2736.5,-179 2603.7,60.84 2502.09,-87.44 1911.5,-56 1293.27,-23.09 537.33,-13.21 368.85,-11.35"/>
<polygon fill="midnightblue" stroke="midnightblue" points="368.64,-7.85 358.6,-11.24 368.57,-14.85 368.64,-7.85"/>
</g>
<!-- Node26&#45;&gt;Node13 -->
<g id="edge42" class="edge">
<title>Node26&#45;&gt;Node13</title>
<path fill="none" stroke="midnightblue" d="M1225.89,-260.94C1147.16,-254.31 1034.74,-239.83 1003.5,-210 986.62,-193.88 983.44,-165.9 983.42,-147.29"/>
<polygon fill="midnightblue" stroke="midnightblue" points="986.92,-147.2 983.72,-137.1 979.93,-146.99 986.92,-147.2"/>
</g>
<!-- Node26&#45;&gt;Node14 -->
<g id="edge33" class="edge">
<title>Node26&#45;&gt;Node14</title>
<path fill="none" stroke="midnightblue" d="M1225.65,-261.81C1148.43,-255.91 1039.99,-242.03 1013.5,-210 995.83,-188.64 1022.49,-160.47 1043.16,-143.46"/>
<polygon fill="midnightblue" stroke="midnightblue" points="1045.54,-146.04 1051.24,-137.11 1041.21,-140.54 1045.54,-146.04"/>
</g>
<!-- Node26&#45;&gt;Node15 -->
<g id="edge46" class="edge">
<title>Node26&#45;&gt;Node15</title>
<path fill="none" stroke="midnightblue" d="M1387.44,-265.8C1678.03,-264.71 2653.86,-257.51 2699.5,-210 2709.04,-200.06 2708.93,-189.04 2699.5,-179 2638.01,-113.53 1229.83,-74.94 958.51,-68.1"/>
<polygon fill="midnightblue" stroke="midnightblue" points="958.33,-64.59 948.25,-67.84 958.15,-71.59 958.33,-64.59"/>
</g>
<!-- Node26&#45;&gt;Node16 -->
<g id="edge49" class="edge">
<title>Node26&#45;&gt;Node16</title>
<path fill="none" stroke="midnightblue" d="M1225.98,-263.71C1150.61,-259.25 1036.07,-246.42 943.5,-210 903.16,-194.13 862.81,-162.75 840.7,-143.89"/>
<polygon fill="midnightblue" stroke="midnightblue" points="842.75,-141.04 832.91,-137.11 838.16,-146.32 842.75,-141.04"/>
</g>
<!-- Node26&#45;&gt;Node17 -->
<g id="edge59" class="edge">
<title>Node26&#45;&gt;Node17</title>
<path fill="none" stroke="midnightblue" d="M1225.88,-263.77C977.56,-256.03 237.21,-226.11 172.5,-143 164.04,-132.13 165.78,-124.03 172.5,-112 180.66,-97.39 195.72,-86.94 210.05,-79.8"/>
<polygon fill="midnightblue" stroke="midnightblue" points="211.65,-82.92 219.29,-75.59 208.74,-76.56 211.65,-82.92"/>
</g>
<!-- Node26&#45;&gt;Node19 -->
<g id="edge61" class="edge">
<title>Node26&#45;&gt;Node19</title>
<path fill="none" stroke="midnightblue" d="M1225.92,-261.44C1099.26,-253.83 845.68,-236.8 620.34,-210.04"/>
<polygon fill="midnightblue" stroke="midnightblue" points="620.66,-206.55 610.31,-208.84 619.82,-213.5 620.66,-206.55"/>
</g>
<!-- Node26&#45;&gt;Node25 -->
<g id="edge45" class="edge">
<title>Node26&#45;&gt;Node25</title>
<path fill="none" stroke="midnightblue" d="M1387.17,-265.85C1679.73,-264.9 2670.23,-258.15 2716.5,-210 2832.94,-88.85 2076.28,-70.04 1912.37,-67.4"/>
<polygon fill="midnightblue" stroke="midnightblue" points="1912.08,-63.9 1902.03,-67.24 1911.97,-70.9 1912.08,-63.9"/>
</g>
<!-- Node27 -->
<g id="node27" class="node">
<title>Node27</title>
<g id="a_node27"><a xlink:title=" ">
<polygon fill="white" stroke="#bfbfbf" points="1093.5,-185 1093.5,-204 1143.5,-204 1143.5,-185 1093.5,-185"/>
<text text-anchor="middle" x="1118.5" y="-192" font-family="Helvetica,sans-Serif" font-size="10.00">stdio.h</text>
</a>
</g>
</g>
<!-- Node26&#45;&gt;Node27 -->
<g id="edge34" class="edge">
<title>Node26&#45;&gt;Node27</title>
<path fill="none" stroke="midnightblue" d="M1251.41,-246.47C1222.2,-235.95 1185.78,-222.59 1153.5,-210 1151.86,-209.36 1150.17,-208.69 1148.48,-208.02"/>
<polygon fill="midnightblue" stroke="midnightblue" points="1149.38,-204.6 1138.8,-204.08 1146.74,-211.09 1149.38,-204.6"/>
</g>
<!-- Node28 -->
<g id="node28" class="node">
<title>Node28</title>
<g id="a_node28"><a xlink:title=" ">
<polygon fill="white" stroke="#bfbfbf" points="1162,-185 1162,-204 1197,-204 1197,-185 1162,-185"/>
<text text-anchor="middle" x="1179.5" y="-192" font-family="Helvetica,sans-Serif" font-size="10.00">any</text>
</a>
</g>
</g>
<!-- Node26&#45;&gt;Node28 -->
<g id="edge35" class="edge">
<title>Node26&#45;&gt;Node28</title>
<path fill="none" stroke="midnightblue" d="M1271.12,-246.36C1249.78,-234.51 1223.11,-219.71 1204.07,-209.14"/>
<polygon fill="midnightblue" stroke="midnightblue" points="1205.57,-205.97 1195.12,-204.17 1202.17,-212.09 1205.57,-205.97"/>
</g>
<!-- Node29 -->
<g id="node29" class="node">
<title>Node29</title>
<g id="a_node29"><a xlink:title=" ">
<polygon fill="white" stroke="#bfbfbf" points="1215.5,-185 1215.5,-204 1265.5,-204 1265.5,-185 1215.5,-185"/>
<text text-anchor="middle" x="1240.5" y="-192" font-family="Helvetica,sans-Serif" font-size="10.00">chrono</text>
</a>
</g>
</g>
<!-- Node26&#45;&gt;Node29 -->
<g id="edge37" class="edge">
<title>Node26&#45;&gt;Node29</title>
<path fill="none" stroke="midnightblue" d="M1288.12,-246.36C1277.88,-235.43 1265.3,-221.99 1255.64,-211.67"/>
<polygon fill="midnightblue" stroke="midnightblue" points="1258.01,-209.08 1248.62,-204.17 1252.9,-213.87 1258.01,-209.08"/>
</g>
<!-- Node30 -->
<g id="node30" class="node">
<title>Node30</title>
<g id="a_node30"><a xlink:title=" ">
<polygon fill="white" stroke="#bfbfbf" points="1283.5,-185 1283.5,-204 1329.5,-204 1329.5,-185 1283.5,-185"/>
<text text-anchor="middle" x="1306.5" y="-192" font-family="Helvetica,sans-Serif" font-size="10.00">cstdio</text>
</a>
</g>
</g>
<!-- Node26&#45;&gt;Node30 -->
<g id="edge38" class="edge">
<title>Node26&#45;&gt;Node30</title>
<path fill="none" stroke="midnightblue" d="M1306.5,-246.36C1306.5,-236.3 1306.5,-224.1 1306.5,-214.18"/>
<polygon fill="midnightblue" stroke="midnightblue" points="1310,-214.17 1306.5,-204.17 1303,-214.17 1310,-214.17"/>
</g>
<!-- Node31 -->
<g id="node31" class="node">
<title>Node31</title>
<g id="a_node31"><a xlink:title=" ">
<polygon fill="white" stroke="#bfbfbf" points="1348,-185 1348,-204 1405,-204 1405,-185 1348,-185"/>
<text text-anchor="middle" x="1376.5" y="-192" font-family="Helvetica,sans-Serif" font-size="10.00">ostream</text>
</a>
</g>
</g>
<!-- Node26&#45;&gt;Node31 -->
<g id="edge43" class="edge">
<title>Node26&#45;&gt;Node31</title>
<path fill="none" stroke="midnightblue" d="M1326,-246.36C1336.96,-235.32 1350.46,-221.72 1360.75,-211.37"/>
<polygon fill="midnightblue" stroke="midnightblue" points="1363.33,-213.74 1367.89,-204.17 1358.36,-208.8 1363.33,-213.74"/>
</g>
<!-- Node32 -->
<g id="node32" class="node">
<title>Node32</title>
<g id="a_node32"><a xlink:title=" ">
<polygon fill="white" stroke="#bfbfbf" points="1423.5,-185 1423.5,-204 1467.5,-204 1467.5,-185 1423.5,-185"/>
<text text-anchor="middle" x="1445.5" y="-192" font-family="Helvetica,sans-Serif" font-size="10.00">string</text>
</a>
</g>
</g>
<!-- Node26&#45;&gt;Node32 -->
<g id="edge44" class="edge">
<title>Node26&#45;&gt;Node32</title>
<path fill="none" stroke="midnightblue" d="M1345.22,-246.36C1368.9,-234.35 1398.57,-219.3 1419.47,-208.7"/>
<polygon fill="midnightblue" stroke="midnightblue" points="1421.06,-211.82 1428.4,-204.17 1417.9,-205.58 1421.06,-211.82"/>
</g>
<!-- Node33 -->
<g id="node33" class="node">
<title>Node33</title>
<g id="a_node33"><a xlink:title=" ">
<polygon fill="white" stroke="#bfbfbf" points="1486,-185 1486,-204 1543,-204 1543,-185 1486,-185"/>
<text text-anchor="middle" x="1514.5" y="-192" font-family="Helvetica,sans-Serif" font-size="10.00">typeinfo</text>
</a>
</g>
</g>
<!-- Node26&#45;&gt;Node33 -->
<g id="edge47" class="edge">
<title>Node26&#45;&gt;Node33</title>
<path fill="none" stroke="midnightblue" d="M1368.11,-246.46C1400.49,-236 1440.78,-222.69 1476.5,-210 1478.61,-209.25 1480.78,-208.47 1482.96,-207.66"/>
<polygon fill="midnightblue" stroke="midnightblue" points="1484.32,-210.89 1492.46,-204.11 1481.87,-204.33 1484.32,-210.89"/>
</g>
<!-- Node34 -->
<g id="node34" class="node">
<title>Node34</title>
<g id="a_node34"><a xlink:title=" ">
<polygon fill="white" stroke="#bfbfbf" points="1561,-185 1561,-204 1606,-204 1606,-185 1561,-185"/>
<text text-anchor="middle" x="1583.5" y="-192" font-family="Helvetica,sans-Serif" font-size="10.00">utility</text>
</a>
</g>
</g>
<!-- Node26&#45;&gt;Node34 -->
<g id="edge48" class="edge">
<title>Node26&#45;&gt;Node34</title>
<path fill="none" stroke="midnightblue" d="M1387.2,-252.15C1435.81,-242.69 1498.54,-228.52 1552.5,-210 1554.12,-209.44 1555.77,-208.83 1557.43,-208.17"/>
<polygon fill="midnightblue" stroke="midnightblue" points="1558.93,-211.33 1566.72,-204.15 1556.15,-204.91 1558.93,-211.33"/>
</g>
<!-- Node35 -->
<g id="node35" class="node">
<title>Node35</title>
<g id="a_node35"><a xlink:title=" ">
<polygon fill="white" stroke="#bfbfbf" points="1624.5,-185 1624.5,-204 1722.5,-204 1722.5,-185 1624.5,-185"/>
<text text-anchor="middle" x="1673.5" y="-192" font-family="Helvetica,sans-Serif" font-size="10.00">hpx/hpx_init.hpp</text>
</a>
</g>
</g>
<!-- Node26&#45;&gt;Node35 -->
<g id="edge51" class="edge">
<title>Node26&#45;&gt;Node35</title>
<path fill="none" stroke="midnightblue" d="M1387.14,-252.88C1449.66,-242.35 1538.35,-226.62 1615.5,-210 1620.57,-208.91 1625.87,-207.69 1631.12,-206.44"/>
<polygon fill="midnightblue" stroke="midnightblue" points="1632.19,-209.78 1641.07,-204.01 1630.53,-202.98 1632.19,-209.78"/>
</g>
<!-- Node36 -->
<g id="node36" class="node">
<title>Node36</title>
<g id="a_node36"><a xlink:title=" ">
<polygon fill="white" stroke="#bfbfbf" points="1741,-185 1741,-204 1866,-204 1866,-185 1741,-185"/>
<text text-anchor="middle" x="1803.5" y="-192" font-family="Helvetica,sans-Serif" font-size="10.00">hpx/include/async.hpp</text>
</a>
</g>
</g>
<!-- Node26&#45;&gt;Node36 -->
<g id="edge52" class="edge">
<title>Node26&#45;&gt;Node36</title>
<path fill="none" stroke="midnightblue" d="M1387.03,-257.04C1472.69,-247.12 1612.02,-229.88 1731.5,-210 1738.68,-208.81 1746.23,-207.42 1753.64,-206"/>
<polygon fill="midnightblue" stroke="midnightblue" points="1754.46,-209.4 1763.6,-204.04 1753.11,-202.53 1754.46,-209.4"/>
</g>
<!-- Node37 -->
<g id="node37" class="node">
<title>Node37</title>
<g id="a_node37"><a xlink:title=" ">
<polygon fill="white" stroke="#bfbfbf" points="1884.5,-185 1884.5,-204 2030.5,-204 2030.5,-185 1884.5,-185"/>
<text text-anchor="middle" x="1957.5" y="-192" font-family="Helvetica,sans-Serif" font-size="10.00">hpx/include/iostreams.hpp</text>
</a>
</g>
</g>
<!-- Node26&#45;&gt;Node37 -->
<g id="edge53" class="edge">
<title>Node26&#45;&gt;Node37</title>
<path fill="none" stroke="midnightblue" d="M1387.29,-260.02C1497.81,-251.38 1702.18,-233.82 1875.5,-210 1884.35,-208.78 1893.69,-207.31 1902.79,-205.78"/>
<polygon fill="midnightblue" stroke="midnightblue" points="1903.65,-209.18 1912.91,-204.03 1902.46,-202.28 1903.65,-209.18"/>
</g>
<!-- Node38 -->
<g id="node38" class="node">
<title>Node38</title>
<g id="a_node38"><a xlink:title=" ">
<polygon fill="white" stroke="#bfbfbf" points="2048.5,-185 2048.5,-204 2164.5,-204 2164.5,-185 2048.5,-185"/>
<text text-anchor="middle" x="2106.5" y="-192" font-family="Helvetica,sans-Serif" font-size="10.00">hpx/include/lcos.hpp</text>
</a>
</g>
</g>
<!-- Node26&#45;&gt;Node38 -->
<g id="edge54" class="edge">
<title>Node26&#45;&gt;Node38</title>
<path fill="none" stroke="midnightblue" d="M1387.16,-263.45C1522.58,-258.36 1803.96,-244.32 2039.5,-210 2046.71,-208.95 2054.29,-207.57 2061.67,-206.09"/>
<polygon fill="midnightblue" stroke="midnightblue" points="2062.48,-209.49 2071.54,-204.01 2061.04,-202.64 2062.48,-209.49"/>
</g>
<!-- Node39 -->
<g id="node39" class="node">
<title>Node39</title>
<g id="a_node39"><a xlink:title=" ">
<polygon fill="white" stroke="#bfbfbf" points="2183,-185 2183,-204 2304,-204 2304,-185 2183,-185"/>
<text text-anchor="middle" x="2243.5" y="-192" font-family="Helvetica,sans-Serif" font-size="10.00">hpx/lcos/promise.hpp</text>
</a>
</g>
</g>
<!-- Node26&#45;&gt;Node39 -->
<g id="edge55" class="edge">
<title>Node26&#45;&gt;Node39</title>
<path fill="none" stroke="midnightblue" d="M1387.26,-264.55C1540.97,-260.95 1885.95,-248.87 2173.5,-210 2181.11,-208.97 2189.13,-207.59 2196.92,-206.09"/>
<polygon fill="midnightblue" stroke="midnightblue" points="2197.86,-209.47 2206.97,-204.07 2196.48,-202.61 2197.86,-209.47"/>
</g>
<!-- Node40 -->
<g id="node40" class="node">
<title>Node40</title>
<g id="a_node40"><a xlink:title=" ">
<polygon fill="white" stroke="#bfbfbf" points="2322.5,-185 2322.5,-204 2412.5,-204 2412.5,-185 2322.5,-185"/>
<text text-anchor="middle" x="2367.5" y="-192" font-family="Helvetica,sans-Serif" font-size="10.00">hpx/mutex.hpp</text>
</a>
</g>
</g>
<!-- Node26&#45;&gt;Node40 -->
<g id="edge56" class="edge">
<title>Node26&#45;&gt;Node40</title>
<path fill="none" stroke="midnightblue" d="M1387.11,-263.67C1593.2,-257.37 2135.64,-238.51 2313.5,-210 2318.95,-209.13 2324.65,-207.92 2330.21,-206.58"/>
<polygon fill="midnightblue" stroke="midnightblue" points="2331.18,-209.95 2339.99,-204.06 2329.43,-203.17 2331.18,-209.95"/>
</g>
<!-- Node41 -->
<g id="node41" class="node">
<title>Node41</title>
<g id="a_node41"><a xlink:title=" ">
<polygon fill="white" stroke="#bfbfbf" points="2430.5,-185 2430.5,-204 2570.5,-204 2570.5,-185 2430.5,-185"/>
<text text-anchor="middle" x="2500.5" y="-192" font-family="Helvetica,sans-Serif" font-size="10.00">boost/core/demangle.hpp</text>
</a>
</g>
</g>
<!-- Node26&#45;&gt;Node41 -->
<g id="edge57" class="edge">
<title>Node26&#45;&gt;Node41</title>
<path fill="none" stroke="midnightblue" d="M1387.26,-265.57C1571.34,-263.81 2035.98,-254.86 2421.5,-210 2430.65,-208.93 2440.35,-207.45 2449.69,-205.84"/>
<polygon fill="midnightblue" stroke="midnightblue" points="2450.43,-209.26 2459.65,-204.05 2449.19,-202.37 2450.43,-209.26"/>
</g>
<!-- Node42 -->
<g id="node42" class="node">
<title>Node42</title>
<g id="a_node42"><a xlink:title=" ">
<polygon fill="white" stroke="#bfbfbf" points="2589,-185 2589,-204 2690,-204 2690,-185 2589,-185"/>
<text text-anchor="middle" x="2639.5" y="-192" font-family="Helvetica,sans-Serif" font-size="10.00">boost/format.hpp</text>
</a>
</g>
</g>
<!-- Node26&#45;&gt;Node42 -->
<g id="edge58" class="edge">
<title>Node26&#45;&gt;Node42</title>
<path fill="none" stroke="midnightblue" d="M1387.1,-264.49C1629.22,-259.64 2347.73,-242.79 2579.5,-210 2585.91,-209.09 2592.63,-207.81 2599.16,-206.37"/>
<polygon fill="midnightblue" stroke="midnightblue" points="2600.26,-209.71 2609.2,-204.03 2598.66,-202.9 2600.26,-209.71"/>
</g>
<!-- Node43&#45;&gt;Node26 -->
<g id="edge63" class="edge">
<title>Node43&#45;&gt;Node26</title>
<path fill="none" stroke="midnightblue" d="M1250.81,-324.43C1259.74,-315.39 1270.47,-304.51 1280.13,-294.72"/>
<polygon fill="midnightblue" stroke="midnightblue" points="1282.72,-297.08 1287.25,-287.51 1277.74,-292.16 1282.72,-297.08"/>
</g>
</g>
</svg>
        <g id="navigator" transform="translate(0 0)" fill="#404254">
                <rect fill="#f2f5e9" fill-opacity="0.5" stroke="#606060" stroke-width=".5" x="0" y="0" width="60" height="60"/>
                <use id="zoomplus" xlink:href="#zoomPlus" x="17" y="9" onmousedown="handleZoom(evt,'in')"/>
                <use id="zoomminus" xlink:href="#zoomMin" x="42" y="9" onmousedown="handleZoom(evt,'out')"/>
                <use id="reset" xlink:href="#resetDef" x="30" y="36" onmousedown="handleReset()"/>
                <g id="arrowUp" xlink:href="#dirArrow" transform="translate(30 24)" onmousedown="handlePan(0,-1)">
                  <use xlink:href="#rim" fill="#404040">
                        <set attributeName="fill" to="#808080" begin="arrowUp.mouseover" end="arrowUp.mouseout"/>
                  </use>
                  <path fill="none" stroke="white" stroke-width="1.5" d="M0,-3.0v7 M-2.5,-0.5L0,-3.0L2.5,-0.5"/>
                </g>
                <g id="arrowRight" xlink:href="#dirArrow" transform="rotate(90) translate(36 -43)" onmousedown="handlePan(1,0)">
                  <use xlink:href="#rim" fill="#404040">
                        <set attributeName="fill" to="#808080" begin="arrowRight.mouseover" end="arrowRight.mouseout"/>
                  </use>
                  <path fill="none" stroke="white" stroke-width="1.5" d="M0,-3.0v7 M-2.5,-0.5L0,-3.0L2.5,-0.5"/>
                </g>
                <g id="arrowDown" xlink:href="#dirArrow" transform="rotate(180) translate(-30 -48)" onmousedown="handlePan(0,1)">
                  <use xlink:href="#rim" fill="#404040">
                        <set attributeName="fill" to="#808080" begin="arrowDown.mouseover" end="arrowDown.mouseout"/>
                  </use>
                  <path fill="none" stroke="white" stroke-width="1.5" d="M0,-3.0v7 M-2.5,-0.5L0,-3.0L2.5,-0.5"/>
                </g>
                <g id="arrowLeft" xlink:href="#dirArrow" transform="rotate(270) translate(-36 17)" onmousedown="handlePan(-1,0)">
                  <use xlink:href="#rim" fill="#404040">
                        <set attributeName="fill" to="#808080" begin="arrowLeft.mouseover" end="arrowLeft.mouseout"/>
                  </use>
                  <path fill="none" stroke="white" stroke-width="1.5" d="M0,-3.0v7 M-2.5,-0.5L0,-3.0L2.5,-0.5"/>
                </g>
        </g>
        <svg viewBox="0 0 15 15" width="100%" height="30px" preserveAspectRatio="xMaxYMin meet">
         <g id="arrow_out" transform="scale(0.3 0.3)">
          <a xlink:href="work__aggregation__cpu__triad_8cpp__incl_org.svg" target="_base">
           <rect id="button" ry="5" rx="5" y="6" x="6" height="38" width="38"
                fill="#f2f5e9" fill-opacity="0.5" stroke="#606060" stroke-width="1.0"/>
           <path id="arrow"
             d="M 11.500037,31.436501 C 11.940474,20.09759 22.043105,11.32322 32.158766,21.979434 L 37.068811,17.246167 C 37.068811,17.246167 37.088388,32 37.088388,32 L 22.160133,31.978069 C 22.160133,31.978069 26.997745,27.140456 26.997745,27.140456 C 18.528582,18.264221 13.291696,25.230495 11.500037,31.436501 z"
             style="fill:#404040;"/>
          </a>
         </g>
        </svg>
</svg>
